<svg width="500" height="500" viewBox="0 0 500 500" fill="none" xmlns="http://www.w3.org/2000/svg">
<path d="M226.42 332.3C313.81 346.46 420.5 337.1 440.9 237.36C459.4 146.88 376.14 71.24 282.66 100.36C242.34 112.92 223.54 151.5 180.26 158.03C136.98 164.56 82.0001 148.71 64.3801 204.3C37.0801 290.36 168.91 323 226.42 332.3Z" fill="#F99942"/>
<path opacity="0.9" d="M226.42 332.3C313.81 346.46 420.5 337.1 440.9 237.36C459.4 146.88 376.14 71.24 282.66 100.36C242.34 112.92 223.54 151.5 180.26 158.03C136.98 164.56 82.0001 148.71 64.3801 204.3C37.0801 290.36 168.91 323 226.42 332.3Z" fill="white"/>
<path d="M250 427.56C357.082 427.56 443.89 422.492 443.89 416.24C443.89 409.988 357.082 404.92 250 404.92C142.917 404.92 56.11 409.988 56.11 416.24C56.11 422.492 142.917 427.56 250 427.56Z" fill="#F5F5F5"/>
<path d="M413.64 148.23H262.92C262.92 148.23 235.77 173.23 235.77 234.01C235.77 286.28 256.36 357.15 248.63 386.16C242.8 408.05 214.53 411.81 200.98 412.33H344.44C344.44 412.33 391.62 415.18 399.35 386.16C407.08 357.14 386.49 286.28 386.49 234C386.49 173.19 413.64 148.23 413.64 148.23Z" fill="#00A688"/>
<path opacity="0.7" d="M413.64 148.23H262.92C262.92 148.23 235.77 173.23 235.77 234.01C235.77 286.28 256.36 357.15 248.63 386.16C242.8 408.05 214.53 411.81 200.98 412.33H344.44C344.44 412.33 391.62 415.18 399.35 386.16C407.08 357.14 386.49 286.28 386.49 234C386.49 173.19 413.64 148.23 413.64 148.23Z" fill="white"/>
<g opacity="0.8">
<path opacity="0.8" d="M372.64 212.33H252.1C255.51 185.59 264.7 170.03 269.77 163.23H386C380.3 175.13 374.92 191.34 372.64 212.33Z" fill="#00A688"/>
<path opacity="0.3" d="M371.63 226.51H250.92C251.02 224.08 251.16 221.72 251.36 219.44H372C371.833 221.74 371.71 224.097 371.63 226.51Z" fill="#00A688"/>
<path opacity="0.3" d="M288.77 240.68H250.88C250.813 238.42 250.777 236.197 250.77 234.01V233.62H288.67V234C288.67 236.21 288.7 238.44 288.77 240.68Z" fill="#00A688"/>
<path opacity="0.3" d="M372.35 254.85H251.73C251.52 252.47 251.35 250.11 251.22 247.79H371.89C372.01 250.13 372.163 252.483 372.35 254.85Z" fill="#00A688"/>
<path opacity="0.3" d="M373.68 269H253.16C252.88 266.633 252.62 264.277 252.38 261.93H373C373.17 264.31 373.42 266.67 373.68 269Z" fill="#00A688"/>
<path opacity="0.3" d="M375.42 283.2H255C254.67 280.84 254.36 278.48 254.06 276.14H374.52C374.8 278.493 375.1 280.847 375.42 283.2Z" fill="#00A688"/>
<path opacity="0.3" d="M377.41 297.37H257C256.653 295.01 256.32 292.657 256 290.31H376.4C376.73 292.66 377.07 295 377.41 297.37Z" fill="#00A688"/>
<path opacity="0.3" d="M379.54 311.55H259.17C258.98 310.26 258.78 308.95 258.58 307.64L258.1 304.48H378.47C378.83 306.84 379.18 309.2 379.54 311.55Z" fill="#00A688"/>
<path opacity="0.3" d="M261.27 325.72C260.937 323.387 260.603 321.033 260.27 318.66H380.62C380.97 321.02 381.33 323.37 381.67 325.72H261.27Z" fill="#00A688"/>
<path opacity="0.3" d="M263.18 339.89C262.9 337.58 262.59 335.22 262.27 332.83H362.67C363.01 335.21 363.33 337.57 363.67 339.89H263.18Z" fill="#00A688"/>
<path opacity="0.3" d="M264.66 354.07C264.467 351.763 264.247 349.407 264 347H384.52C384.79 349.42 385.04 351.78 385.25 354.07H264.66Z" fill="#00A688"/>
<path opacity="0.3" d="M265.35 368.24C265.35 365.96 265.26 363.6 265.13 361.18H328.72C328.88 363.65 328.97 366.01 329 368.24H265.35Z" fill="#00A688"/>
</g>
<path d="M356 404.68C348.35 406.07 340.6 405.01 332.91 404.68C329.222 404.441 325.52 404.539 321.85 404.97C318.25 405.45 314.67 406.39 311.04 406.07C312.24 405.426 313.369 404.658 314.41 403.78C314.456 403.734 314.49 403.678 314.507 403.615C314.524 403.553 314.525 403.487 314.509 403.424C314.492 403.361 314.46 403.304 314.415 403.257C314.369 403.211 314.312 403.177 314.25 403.16C302.96 399.16 292.68 409.98 281.43 407.46C284.62 405.1 289.11 405.05 291.83 401.95C291.88 401.896 291.914 401.829 291.927 401.757C291.94 401.685 291.932 401.61 291.903 401.542C291.874 401.474 291.827 401.416 291.766 401.375C291.705 401.334 291.634 401.311 291.56 401.31C281.5 401.11 272 405 262 405.89C261.52 405.89 261.52 406.68 262 406.64C271.65 405.8 280.9 402.11 290.63 402.03C287.72 404.63 283.28 404.72 280.32 407.34C280.274 407.387 280.241 407.444 280.224 407.507C280.207 407.57 280.206 407.637 280.223 407.7C280.239 407.763 280.271 407.822 280.316 407.869C280.361 407.916 280.418 407.951 280.48 407.97C291.82 411.1 302.14 400.28 313.34 403.62C312.172 404.537 310.9 405.312 309.55 405.93C309.487 405.968 309.436 406.024 309.404 406.09C309.372 406.157 309.36 406.231 309.37 406.304C309.379 406.378 309.41 406.446 309.458 406.502C309.506 406.558 309.569 406.599 309.64 406.62C313.33 407.24 316.94 406.45 320.58 405.87C324.656 405.285 328.781 405.124 332.89 405.39C340.66 405.76 348.46 406.81 356.18 405.39C356.69 405.32 356.49 404.59 356 404.68Z" fill="#00A688"/>
<path d="M151.88 185.13C152.51 185.94 153.32 186.89 154.06 187.77C154.8 188.65 155.61 189.54 156.41 190.4C158.02 192.12 159.65 193.81 161.41 195.4C164.674 198.499 168.381 201.094 172.41 203.1C172.9 203.32 173.41 203.52 173.86 203.7C174.083 203.789 174.31 203.865 174.54 203.93C174.753 204.014 174.974 204.078 175.2 204.12C176.16 204.367 177.141 204.521 178.13 204.58C180.344 204.688 182.563 204.56 184.75 204.2C187.073 203.846 189.373 203.358 191.64 202.74C193.94 202.14 196.29 201.4 198.48 200.63L200.48 204.63C196.035 207.409 191.221 209.55 186.18 210.99C183.522 211.751 180.783 212.191 178.02 212.3C176.524 212.36 175.026 212.263 173.55 212.01C173.17 211.95 172.78 211.86 172.4 211.77C172.02 211.68 171.62 211.58 171.29 211.47C170.59 211.26 169.91 211.03 169.29 210.77C164.2 208.677 159.516 205.709 155.45 202C153.466 200.28 151.573 198.458 149.78 196.54C148.89 195.54 148.02 194.61 147.18 193.61C146.34 192.61 145.54 191.61 144.67 190.46L151.88 185.13Z" fill="#FFB573"/>
<path d="M141.71 182.3C141.49 187.9 143.71 198 143.71 198L157.57 196.32C157.57 196.32 158.08 181.54 155.39 177.97C150.84 172 141.92 177 141.71 182.3Z" fill="#00A688"/>
<path d="M196.62 202.05L203.11 196.11L203.94 202.51C203.94 202.51 201.25 206.12 198.2 204.6L196.62 202.05Z" fill="#FFB573"/>
<path d="M206.37 196.46L209.12 200.06L203.94 202.51L203.11 196.11L206.37 196.46Z" fill="#FFB573"/>
<path d="M204.73 180.27C205.42 180.27 205.8 180.27 206.29 180.27C206.5 180.256 206.71 180.256 206.92 180.27L207.44 180.34C207.889 180.393 208.316 180.562 208.68 180.83C208.857 181.038 208.974 181.291 209.02 181.56L209.25 182.32L210.18 185.32L212.04 191.39L215.75 203.54C218.2 211.64 220.75 219.72 223.11 227.84C227.96 244.06 232.55 260.34 237.06 276.65C241.57 292.96 245.81 309.34 250.17 325.65C254.53 341.96 258.43 358.46 259.82 375.58C259.87 376.725 259.526 377.852 258.845 378.773C258.163 379.694 257.186 380.353 256.077 380.64C254.968 380.927 253.794 380.824 252.751 380.349C251.709 379.874 250.861 379.055 250.35 378.03C243.25 362.39 238.61 346.12 234.55 329.7C230.49 313.28 226.18 297 222.2 280.59C218.22 264.18 214.33 247.68 210.69 231.15C208.82 222.9 207.12 214.6 205.33 206.33L202.68 193.91L201.35 187.7L200.69 184.59L200.52 183.82C200.429 183.56 200.409 183.281 200.46 183.01C200.655 182.613 200.943 182.27 201.3 182.01L201.73 181.69C201.895 181.564 202.069 181.451 202.25 181.35C202.68 181.1 202.99 180.89 203.61 180.59C203.959 180.411 204.339 180.302 204.73 180.27Z" fill="#263238"/>
<path d="M258.86 378.16C258.785 377.889 258.607 377.659 258.364 377.519C258.12 377.379 257.832 377.339 257.56 377.41L255.36 377.98L253.16 378.55C252.888 378.621 252.655 378.796 252.511 379.037C252.367 379.279 252.323 379.567 252.39 379.84C253.76 386.14 252.39 390.65 253.85 396.19C255.36 402.02 261.93 405.01 261.93 405.01L261.72 402.52L262.72 404.8C262.72 404.8 267.01 399 265.5 393.17C264.08 387.63 260.72 384.33 258.86 378.16Z" fill="#F99942"/>
<path opacity="0.3" d="M258.86 378.16C258.785 377.889 258.607 377.659 258.364 377.519C258.12 377.379 257.832 377.339 257.56 377.41L255.36 377.98L253.16 378.55C252.888 378.621 252.655 378.796 252.511 379.037C252.367 379.279 252.323 379.567 252.39 379.84C253.76 386.14 252.39 390.65 253.85 396.19C255.36 402.02 261.93 405.01 261.93 405.01L261.72 402.52L262.72 404.8C262.72 404.8 267.01 399 265.5 393.17C264.08 387.63 260.72 384.33 258.86 378.16Z" fill="white"/>
<path d="M260.57 392.62C260.635 392.883 260.62 393.158 260.528 393.413C260.436 393.667 260.271 393.889 260.054 394.049C259.836 394.21 259.576 394.303 259.306 394.316C259.036 394.329 258.768 394.262 258.536 394.123C258.304 393.984 258.118 393.779 258.002 393.535C257.886 393.291 257.845 393.018 257.884 392.75C257.923 392.482 258.04 392.232 258.221 392.031C258.402 391.83 258.638 391.687 258.9 391.62C259.254 391.532 259.628 391.588 259.941 391.775C260.254 391.963 260.48 392.266 260.57 392.62Z" fill="#263238"/>
<path d="M261.8 402.82C261.761 402.832 261.719 402.836 261.678 402.831C261.637 402.826 261.598 402.813 261.562 402.793C261.527 402.772 261.496 402.744 261.471 402.711C261.447 402.678 261.429 402.64 261.42 402.6L258.94 393.05C258.929 393.011 258.927 392.97 258.932 392.929C258.937 392.889 258.951 392.85 258.971 392.814C258.992 392.779 259.019 392.748 259.051 392.723C259.084 392.699 259.121 392.68 259.16 392.67C259.199 392.658 259.241 392.654 259.282 392.659C259.323 392.664 259.362 392.677 259.398 392.697C259.434 392.718 259.465 392.746 259.489 392.779C259.513 392.812 259.531 392.85 259.54 392.89L262.02 402.44C262.031 402.479 262.033 402.521 262.028 402.561C262.023 402.601 262.009 402.64 261.989 402.676C261.968 402.711 261.941 402.742 261.909 402.767C261.876 402.791 261.839 402.81 261.8 402.82Z" fill="#263238"/>
<path d="M253.7 343.82L240.22 347.31C239.846 347.404 239.45 347.347 239.119 347.15C238.787 346.953 238.547 346.633 238.45 346.26C238.354 345.893 238.405 345.503 238.591 345.172C238.778 344.842 239.086 344.597 239.45 344.49L253 341C253.367 340.904 253.757 340.955 254.088 341.141C254.418 341.328 254.663 341.636 254.77 342C254.822 342.19 254.836 342.388 254.811 342.583C254.785 342.779 254.72 342.967 254.62 343.137C254.521 343.306 254.388 343.454 254.23 343.572C254.071 343.689 253.891 343.774 253.7 343.82Z" fill="#F99942"/>
<path d="M185.27 160.8C185.03 161.4 185.16 162.03 185.55 162.2C185.94 162.37 186.46 162.02 186.7 161.42C186.94 160.82 186.82 160.19 186.42 160.02C186.02 159.85 185.52 160.2 185.27 160.8Z" fill="#263238"/>
<path d="M186.24 160L187.85 160.21C187.85 160.21 186.65 161 186.24 160Z" fill="#263238"/>
<path d="M185.55 161.6C185.534 163.21 185.736 164.814 186.15 166.37C185.751 166.455 185.339 166.452 184.941 166.36C184.544 166.269 184.171 166.091 183.85 165.84L185.55 161.6Z" fill="#ED893E"/>
<path d="M187.69 157.14C187.628 157.128 187.569 157.1 187.52 157.06C187.16 156.731 186.73 156.49 186.261 156.354C185.793 156.219 185.3 156.194 184.82 156.28C184.722 156.305 184.618 156.29 184.531 156.24C184.443 156.19 184.378 156.107 184.35 156.01C184.325 155.912 184.34 155.808 184.39 155.72C184.44 155.633 184.523 155.568 184.62 155.54C185.221 155.421 185.841 155.444 186.431 155.607C187.022 155.77 187.566 156.069 188.02 156.48C188.056 156.515 188.084 156.557 188.103 156.604C188.123 156.65 188.133 156.7 188.133 156.75C188.133 156.8 188.123 156.85 188.103 156.896C188.084 156.943 188.056 156.985 188.02 157.02C187.979 157.066 187.928 157.101 187.87 157.122C187.813 157.143 187.751 157.149 187.69 157.14Z" fill="#263238"/>
<path d="M164.07 160.49C164.5 165.36 162.88 173.33 159.2 176.04C159.2 176.04 161.97 181.16 170.84 182.35C180.59 183.66 176.01 178.17 176.01 178.17C170.82 176.17 171.38 172.3 172.69 168.74L164.07 160.49Z" fill="#FFB573"/>
<path d="M190.64 186.48C191.41 191.02 192.36 195.73 193.35 200.32C193.88 202.61 194.41 204.91 195.03 207.16C195.65 209.41 196.27 211.66 196.96 213.87C197.34 214.96 197.68 216.07 198.08 217.13L198.68 218.73L198.82 219.12V219.24C198.84 219.301 198.863 219.361 198.89 219.42C199.096 219.777 199.434 220.038 199.83 220.15C200.621 220.432 201.451 220.59 202.29 220.62C204.436 220.679 206.582 220.505 208.69 220.1C210.9 219.7 213.23 219.16 215.4 218.56L217.23 222.61C216.127 223.266 214.993 223.867 213.83 224.41C212.681 224.973 211.503 225.474 210.3 225.91C207.782 226.893 205.141 227.526 202.45 227.79C200.87 227.934 199.277 227.826 197.73 227.47C195.748 227.018 193.964 225.942 192.64 224.4C192.298 223.986 191.99 223.545 191.72 223.08C191.58 222.85 191.47 222.61 191.35 222.38L191.16 221.93L190.38 220.18C189.87 219.01 189.38 217.84 188.95 216.66C188.09 214.3 187.27 211.93 186.56 209.55C185.85 207.17 185.21 204.77 184.56 202.37C183.37 197.55 182.4 192.78 181.68 187.79L190.64 186.48Z" fill="#FFB573"/>
<path d="M214.44 218.84L218.3 215.78L220.04 221.72C220.04 221.72 214.76 225.54 213.35 221.05L214.44 218.84Z" fill="#FFB573"/>
<path d="M221.79 216.83L223.17 221.17L220.04 221.72L218.31 215.78L221.79 216.83Z" fill="#FFB573"/>
<path d="M149.67 407.41L157.74 408.01L160.13 389.48L152.06 388.88L149.67 407.41Z" fill="#FFB573"/>
<path d="M97.99 383.87L104.98 388.12L116.61 373.6L109.62 369.35L97.99 383.87Z" fill="#FFB573"/>
<path d="M109.86 390.26C109.761 390.275 109.659 390.275 109.56 390.26C108.56 390.26 107.37 388.7 106.77 387.78C106.748 387.749 106.736 387.713 106.736 387.675C106.736 387.637 106.748 387.601 106.77 387.57C106.789 387.538 106.818 387.512 106.851 387.496C106.885 387.48 106.923 387.475 106.96 387.48C107.29 387.55 110.18 388.16 110.56 389.12C110.601 389.226 110.613 389.341 110.595 389.453C110.578 389.566 110.531 389.671 110.46 389.76C110.326 389.993 110.113 390.17 109.86 390.26ZM107.36 387.99C108.21 389.19 109.02 389.9 109.57 389.91C109.69 389.911 109.808 389.88 109.911 389.821C110.015 389.761 110.101 389.674 110.16 389.57C110.187 389.528 110.201 389.48 110.201 389.43C110.201 389.38 110.187 389.332 110.16 389.29C110 388.78 108.51 388.27 107.36 388V387.99Z" fill="#00A688"/>
<path d="M109.43 387.76C108.599 387.986 107.73 388.03 106.88 387.89C106.848 387.879 106.82 387.861 106.797 387.837C106.775 387.812 106.758 387.782 106.75 387.75C106.734 387.723 106.726 387.692 106.726 387.66C106.726 387.628 106.734 387.597 106.75 387.57C106.81 387.5 108.4 385.87 109.57 385.92C109.721 385.922 109.87 385.958 110.005 386.025C110.14 386.093 110.258 386.19 110.35 386.31C110.458 386.417 110.527 386.557 110.545 386.707C110.564 386.858 110.53 387.011 110.45 387.14C110.185 387.451 109.828 387.668 109.43 387.76ZM107.33 387.58C108.33 387.69 109.87 387.4 110.18 386.94C110.18 386.86 110.26 386.75 110.1 386.55C110.041 386.473 109.965 386.411 109.879 386.368C109.792 386.324 109.697 386.301 109.6 386.3C108.729 386.481 107.936 386.928 107.33 387.58Z" fill="#00A688"/>
<path d="M107.08 386.56L100.45 380.18C100.34 380.067 100.193 379.999 100.036 379.988C99.8797 379.977 99.7244 380.024 99.6 380.12L93.94 384.48C93.8036 384.601 93.6944 384.75 93.6196 384.916C93.5448 385.082 93.5061 385.263 93.5061 385.445C93.5061 385.627 93.5448 385.808 93.6196 385.974C93.6944 386.14 93.8036 386.289 93.94 386.41C96.29 388.6 97.53 389.54 100.44 392.35C102.24 394.08 104.68 396.78 107.16 399.17C109.64 401.56 112.06 399.3 111.24 398.09C107.54 392.67 108.09 390.64 107.76 387.87C107.689 387.369 107.449 386.906 107.08 386.56Z" fill="#263238"/>
<path d="M161.24 408.27C160.386 408.254 159.536 408.157 158.7 407.98C158.662 407.972 158.626 407.952 158.6 407.924C158.573 407.895 158.555 407.859 158.55 407.82C158.545 407.781 158.552 407.74 158.569 407.705C158.587 407.669 158.615 407.64 158.65 407.62C159.02 407.43 162.3 405.78 163.26 406.34C163.352 406.387 163.43 406.459 163.485 406.547C163.539 406.635 163.569 406.736 163.57 406.84C163.591 407.014 163.568 407.19 163.503 407.352C163.438 407.514 163.334 407.658 163.2 407.77C162.622 408.153 161.931 408.33 161.24 408.27ZM159.34 407.71C161.12 408 162.45 407.93 162.95 407.49C163.038 407.415 163.106 407.319 163.148 407.21C163.19 407.102 163.205 406.985 163.19 406.87C163.193 406.83 163.184 406.789 163.165 406.754C163.145 406.718 163.116 406.689 163.08 406.67C162.54 406.37 160.69 407.07 159.34 407.71Z" fill="#00A688"/>
<path d="M158.74 408C158.704 408.01 158.666 408.01 158.63 408C158.601 407.981 158.577 407.954 158.563 407.922C158.549 407.89 158.544 407.855 158.55 407.82C158.55 407.68 158.94 404.38 160.75 404.38H160.9C161.43 404.43 161.58 404.69 161.61 404.91C161.76 405.82 159.8 407.57 158.82 408.01L158.74 408ZM160.74 404.73C159.58 404.73 159.12 406.65 158.98 407.47C159.98 406.87 161.31 405.47 161.22 404.95C161.22 404.9 161.22 404.77 160.85 404.74L160.74 404.73Z" fill="#00A688"/>
<path d="M158.24 406.86H149.17C149.013 406.86 148.861 406.915 148.74 407.015C148.62 407.116 148.538 407.256 148.51 407.41L147.29 414.58C147.266 414.76 147.28 414.942 147.332 415.116C147.385 415.29 147.473 415.45 147.593 415.586C147.712 415.723 147.859 415.832 148.024 415.907C148.19 415.982 148.369 416.02 148.55 416.02C151.71 416.02 153.24 415.78 157.23 415.78C159.68 415.78 164.75 416.03 168.14 416.03C171.53 416.03 171.8 412.68 170.39 412.38C164.1 411.02 161.66 409.14 159.58 407.38C159.209 407.054 158.734 406.869 158.24 406.86Z" fill="#263238"/>
<path opacity="0.2" d="M160.13 389.48L158.8 399.78L150.82 398.44L152.06 388.89L160.13 389.48Z" fill="black"/>
<path opacity="0.2" d="M109.61 369.35L116.61 373.61L111.79 379.61L104.65 375.54L109.61 369.35Z" fill="black"/>
<path d="M145.6 224.66L178.27 229.05C190.93 183.23 187.2 182 187.2 182C185.76 181.314 184.273 180.732 182.75 180.26C181.21 179.7 179.653 179.19 178.08 178.73C174.937 177.797 171.741 177.053 168.51 176.5C162.238 175.422 155.863 175.063 149.51 175.43C148.873 175.474 148.255 175.662 147.701 175.979C147.147 176.296 146.671 176.734 146.31 177.26C146.174 177.455 146.057 177.663 145.96 177.88C145.604 178.641 145.466 179.485 145.56 180.32C148.32 204.4 147.43 212.32 145.6 224.66Z" fill="#00A688"/>
<path opacity="0.2" d="M181.45 196C180.807 200.741 181.417 205.568 183.22 210C185.39 201.06 186.57 195 187.15 190.8C184.66 190.69 182.07 191.65 181.45 196Z" fill="black"/>
<path d="M186.91 181.84C192.51 185.04 196.4 192.67 197.57 197.1L185.65 208C185.65 208 179.47 193.63 179.97 189.17C180.47 184.71 184.8 180.63 186.91 181.84Z" fill="#00A688"/>
<path d="M165.84 150.44C163.33 158.02 162.11 161.17 164.31 166.57C167.63 174.7 177.46 176.42 182.18 169.81C186.43 163.86 189.82 152.46 183.77 146.4C182.499 145.048 180.897 144.051 179.122 143.507C177.348 142.964 175.462 142.892 173.651 143.3C171.841 143.708 170.168 144.581 168.798 145.833C167.428 147.086 166.409 148.673 165.84 150.44Z" fill="#FFB573"/>
<path d="M178.27 157.16C177.743 158.55 177.659 160.07 178.03 161.51C178.53 163.51 180.03 163.68 180.96 162.39C181.89 161.1 182.52 158.77 181.52 157.09C180.52 155.41 178.92 155.63 178.27 157.16Z" fill="#FFB573"/>
<path d="M168.56 141C163.16 138 153.44 146.78 151 161.11C149.25 171.37 171.16 176.33 185 176.17C184.08 173.75 178.33 166.47 182 159.46C184.67 154.37 187.71 155.55 187.91 149.63C188.16 142.17 178.28 137.17 168.56 141Z" fill="#263238"/>
<path d="M180.85 144.22C187.13 143.61 193.44 149.78 188.76 155.93C187.617 155.013 186.286 154.359 184.862 154.013C183.439 153.668 181.956 153.639 180.52 153.93C177.65 154.57 180.85 144.22 180.85 144.22Z" fill="#263238"/>
<path d="M169.65 227.89C169.65 227.89 157 281.51 151 312.32C144.74 344.82 114.73 378.68 114.73 378.68L104.57 373C104.57 373 123.45 342.1 129.57 311.75C142.01 250.15 133.57 237.75 145.57 224.67L169.65 227.89Z" fill="#263238"/>
<path d="M115.77 379.63L103.04 372.54L104.9 368.78L119.18 375.35L115.77 379.63Z" fill="#00A688"/>
<path opacity="0.2" d="M162.9 239.54C153.04 248.11 154.11 278.54 155.14 292.2C159.28 272.72 164.25 251.04 167.14 238.49C166.13 237.71 164.72 238 162.9 239.54Z" fill="black"/>
<path d="M177.79 229.07C177.79 229.07 183.5 292.74 180.38 317.02C177.14 342.28 160.66 397.23 160.66 397.23L149 395.73C149 395.73 158.46 341.27 160.14 316.27C161.97 289 153.84 225.86 153.84 225.86L177.79 229.07Z" fill="#263238"/>
<path d="M163.13 397.9L146.55 395.76L146.8 390.86L164.8 392.6L163.13 397.9Z" fill="#00A688"/>
<path d="M145.31 222.69L143.53 225.4C143.39 225.61 143.64 225.87 144.01 225.92L178.28 230.52C178.58 230.52 178.84 230.45 178.87 230.27L179.48 227.41C179.48 227.21 179.28 227 178.96 226.96L145.87 222.52C145.77 222.499 145.666 222.504 145.568 222.533C145.47 222.563 145.382 222.617 145.31 222.69Z" fill="#00A688"/>
<path opacity="0.5" d="M145.31 222.69L143.53 225.4C143.39 225.61 143.64 225.87 144.01 225.92L178.28 230.52C178.58 230.52 178.84 230.45 178.87 230.27L179.48 227.41C179.48 227.21 179.28 227 178.96 226.96L145.87 222.52C145.77 222.499 145.666 222.504 145.568 222.533C145.47 222.563 145.382 222.617 145.31 222.69Z" fill="black"/>
<path d="M149.37 227L148.48 226.88C148.3 226.88 148.18 226.75 148.2 226.64L149.02 222.92C149.02 222.82 149.21 222.75 149.38 222.77L150.27 222.89C150.45 222.89 150.57 223.02 150.55 223.13L149.73 226.85C149.71 226.91 149.54 227 149.37 227Z" fill="#263238"/>
<path d="M171.75 230L170.86 229.88C170.69 229.88 170.56 229.75 170.58 229.64L171.4 225.92C171.4 225.81 171.59 225.74 171.77 225.77L172.65 225.88C172.83 225.88 172.95 226.02 172.93 226.13L172.11 229.84C172.09 230 171.92 230 171.75 230Z" fill="#263238"/>
</svg>
