<svg width="500" height="500" viewBox="0 0 500 500" fill="none" xmlns="http://www.w3.org/2000/svg">
<path d="M500 382.4H0V382.65H500V382.4Z" fill="#EBEBEB"/>
<path d="M137.66 389.21H104.54V389.46H137.66V389.21Z" fill="#EBEBEB"/>
<path d="M211.89 398.37H171.14V398.62H211.89V398.37Z" fill="#EBEBEB"/>
<path d="M103.54 395.24H52.46V395.49H103.54V395.24Z" fill="#EBEBEB"/>
<path d="M449.9 390.89H356.76V391.14H449.9V390.89Z" fill="#EBEBEB"/>
<path d="M347.86 390.89H341.53V391.14H347.86V390.89Z" fill="#EBEBEB"/>
<path d="M319.44 395.11H277.21V395.36H319.44V395.11Z" fill="#EBEBEB"/>
<path d="M237 337.8H43.91C42.3974 337.797 40.9476 337.195 39.8789 336.124C38.8102 335.054 38.21 333.603 38.21 332.09V60.66C38.2232 59.156 38.8292 57.718 39.8965 56.6582C40.9637 55.5985 42.406 55.0026 43.91 55H237C238.514 55 239.967 55.6016 241.038 56.6724C242.108 57.7433 242.71 59.1956 242.71 60.71V332.09C242.71 333.604 242.108 335.057 241.038 336.128C239.967 337.198 238.514 337.8 237 337.8V337.8ZM43.91 55.2C42.4637 55.2026 41.0775 55.7791 40.0557 56.8027C39.0339 57.8264 38.46 59.2136 38.46 60.66V332.09C38.46 333.536 39.0339 334.924 40.0557 335.947C41.0775 336.971 42.4637 337.547 43.91 337.55H237C238.447 337.547 239.835 336.971 240.858 335.948C241.881 334.924 242.457 333.537 242.46 332.09V60.66C242.457 59.2127 241.881 57.8255 240.858 56.8021C239.835 55.7787 238.447 55.2026 237 55.2H43.91Z" fill="#EBEBEB"/>
<path d="M453.31 337.8H260.21C258.696 337.797 257.246 337.195 256.175 336.125C255.105 335.054 254.503 333.604 254.5 332.09V60.66C254.516 59.1551 255.124 57.7171 256.193 56.6576C257.262 55.5981 258.705 55.0025 260.21 55H453.31C454.812 55.0052 456.252 55.6022 457.317 56.6617C458.382 57.7212 458.987 59.1578 459 60.66V332.09C459 333.601 458.401 335.05 457.335 336.121C456.268 337.191 454.821 337.795 453.31 337.8V337.8ZM260.21 55.2C258.763 55.2026 257.375 55.7787 256.352 56.8021C255.329 57.8255 254.753 59.2127 254.75 60.66V332.09C254.753 333.537 255.329 334.924 256.352 335.948C257.375 336.971 258.763 337.547 260.21 337.55H453.31C454.757 337.547 456.145 336.971 457.168 335.948C458.191 334.924 458.767 333.537 458.77 332.09V60.66C458.767 59.2127 458.191 57.8255 457.168 56.8021C456.145 55.7787 454.757 55.2026 453.31 55.2H260.21Z" fill="#EBEBEB"/>
<path d="M427.71 127.84H363.45V230.07H427.71V127.84Z" fill="#E0E0E0"/>
<path d="M431.59 127.84H365.14V230.07H431.59V127.84Z" fill="#F5F5F5"/>
<path d="M370.71 135.3V222.62H426.02V135.3H370.71Z" fill="white"/>
<path d="M371.72 276.38H353.2V379.42H371.72V276.38Z" fill="#F0F0F0"/>
<path d="M438.28 379.42H356.76V382.4H438.28V379.42Z" fill="#F0F0F0"/>
<path d="M371.71 379.42H441.83V276.38H371.71V379.42Z" fill="#F5F5F5"/>
<path d="M433.55 283.16V324.6H380V283.16H384.62C384.904 285.25 385.934 287.167 387.52 288.558C389.106 289.949 391.141 290.72 393.25 290.73H420.3C422.41 290.721 424.447 289.95 426.034 288.559C427.621 287.168 428.653 285.251 428.94 283.16H433.55ZM434.55 282.16H428C427.966 284.181 427.138 286.108 425.696 287.524C424.253 288.941 422.312 289.733 420.29 289.73H393.25C391.23 289.73 389.291 288.937 387.851 287.521C386.41 286.105 385.584 284.18 385.55 282.16H379V325.6H434.55V282.16Z" fill="#EBEBEB"/>
<path d="M433.55 331.2V372.64H380V331.2H384.62C384.908 333.288 385.939 335.203 387.524 336.593C389.109 337.983 391.142 338.756 393.25 338.77H420.3C422.409 338.756 424.443 337.984 426.03 336.594C427.616 335.204 428.649 333.289 428.94 331.2H433.55ZM434.55 330.2H428C427.963 332.22 427.135 334.146 425.693 335.561C424.251 336.977 422.311 337.77 420.29 337.77H393.25C391.231 337.768 389.293 336.973 387.854 335.558C386.414 334.142 385.587 332.219 385.55 330.2H379V373.64H434.55V330.2Z" fill="#EBEBEB"/>
<path d="M296.11 276.38H277.59V379.42H296.11V276.38Z" fill="#F0F0F0"/>
<path d="M362.67 379.42H281.15V382.4H362.67V379.42Z" fill="#F0F0F0"/>
<path d="M296.1 379.42H366.22V276.38H296.1V379.42Z" fill="#F5F5F5"/>
<path d="M357.94 283.16V324.6H304.39V283.16H309C309.287 285.251 310.319 287.168 311.906 288.559C313.493 289.95 315.53 290.721 317.64 290.73H344.69C346.8 290.721 348.837 289.95 350.424 288.559C352.011 287.168 353.043 285.251 353.33 283.16H357.94ZM358.94 282.16H352.4C352.366 284.181 351.538 286.108 350.096 287.524C348.653 288.941 346.712 289.733 344.69 289.73H317.64C315.618 289.733 313.677 288.941 312.234 287.524C310.792 286.108 309.964 284.181 309.93 282.16H303.39V325.6H358.94V282.16Z" fill="#EBEBEB"/>
<path d="M357.94 331.2V372.64H304.39V331.2H309C309.291 333.289 310.324 335.204 311.91 336.594C313.497 337.984 315.531 338.756 317.64 338.77H344.69C346.799 338.756 348.833 337.984 350.42 336.594C352.006 335.204 353.039 333.289 353.33 331.2H357.94ZM358.94 330.2H352.4C352.363 332.22 351.535 334.146 350.093 335.561C348.651 336.977 346.711 337.77 344.69 337.77H317.64C315.619 337.77 313.679 336.977 312.237 335.561C310.795 334.146 309.967 332.22 309.93 330.2H303.39V373.64H358.94V330.2Z" fill="#EBEBEB"/>
<path d="M226.38 275.41H216.77V382.39H226.38V275.41Z" fill="#E6E6E6"/>
<path d="M229.41 275.41H222.74V382.39H229.41V275.41Z" fill="#F0F0F0"/>
<path d="M136.39 287.23H229.41V275.42H136.39V287.23Z" fill="#F0F0F0"/>
<path d="M139.68 287.22H130.07V382.39H139.68V287.22Z" fill="#E6E6E6"/>
<path d="M142.71 287.22H136.04V382.39H142.71V287.22Z" fill="#F0F0F0"/>
<path d="M71.28 287.22H61.67V382.39H71.28V287.22Z" fill="#E6E6E6"/>
<path d="M74.31 287.22H67.64V382.39H74.31V287.22Z" fill="#F0F0F0"/>
<path d="M165.56 287.22H155.95V382.39H165.56V287.22Z" fill="#E6E6E6"/>
<path d="M168.59 287.22H161.92V382.39H168.59V287.22Z" fill="#F0F0F0"/>
<path d="M136.4 275.41H61.67V287.22H136.4V275.41Z" fill="#E6E6E6"/>
<path d="M308.8 79.41H74.47V209.87H308.8V79.41Z" fill="#E0E0E0"/>
<path d="M321.67 79.41H75.65V209.87H321.67V79.41Z" fill="#F5F5F5"/>
<path d="M317.65 205.85V83.4301L79.67 83.4301V205.85H317.65Z" fill="white"/>
<path d="M176.03 205.85L220.96 83.4301H146.81L101.88 205.85H176.03Z" fill="#F5F5F5"/>
<path d="M247.4 205.85L292.33 83.4301H236.4L191.47 205.85H247.4Z" fill="#F5F5F5"/>
<path d="M84.6 252.15V254.78H86.28L87.67 275.41H108.17L109.56 254.78H111.24V252.15H84.6Z" fill="#E6E6E6"/>
<path d="M90.64 201.19C90.31 189.66 101.22 188.31 115.56 190.41C129.19 192.41 132.73 186.41 132.73 186.41C132.73 186.41 136.13 213.8 117.66 220.25C100.11 226.37 91 212.74 90.64 201.19Z" fill="#E6E6E6"/>
<path d="M97.81 218.07C95.09 214.07 86.73 210.26 80.11 223.21C75.32 232.57 69.27 229.07 69.27 229.07C69.27 229.07 80.27 245.48 92.95 240.34C105 235.45 102.6 225.15 97.81 218.07Z" fill="#E6E6E6"/>
<path d="M101.2 236.92C101.87 233.62 106.2 228.98 113.86 235.47C119.4 240.16 122.33 236.32 122.33 236.32C122.33 236.32 119.68 249.72 110.24 249.81C101.27 249.91 100 242.7 101.2 236.92Z" fill="#E6E6E6"/>
<path d="M97.15 259.89C97.0419 259.89 96.935 259.867 96.8366 259.822C96.7382 259.777 96.6507 259.712 96.58 259.63C95.17 257.97 96.32 253.98 97.91 248.47C99.91 241.39 102.51 232.58 100.35 226.19C99.155 222.816 97.7591 219.517 96.17 216.31C93.17 209.87 90.49 204.31 92.69 198.49C92.7229 198.393 92.7758 198.303 92.8451 198.227C92.9145 198.152 92.999 198.091 93.093 198.05C93.1871 198.008 93.2888 197.987 93.3916 197.987C93.4944 197.987 93.596 198.008 93.69 198.05C93.7856 198.085 93.8731 198.14 93.9473 198.209C94.0216 198.279 94.081 198.363 94.122 198.457C94.1631 198.55 94.1849 198.651 94.1863 198.753C94.1877 198.854 94.1685 198.956 94.13 199.05C92.13 204.26 94.54 209.31 97.57 215.7C99.1738 218.949 100.589 222.288 101.81 225.7C104.11 232.54 101.5 241.59 99.39 248.87C98.15 253.16 96.87 257.6 97.76 258.65C97.824 258.725 97.8724 258.813 97.9025 258.907C97.9326 259.001 97.9438 259.1 97.9355 259.199C97.9271 259.297 97.8993 259.393 97.8538 259.481C97.8082 259.569 97.7458 259.646 97.67 259.71C97.5274 259.836 97.3403 259.901 97.15 259.89V259.89Z" fill="#E6E6E6"/>
<path d="M250 427.56C357.082 427.56 443.89 422.492 443.89 416.24C443.89 409.988 357.082 404.92 250 404.92C142.917 404.92 56.11 409.988 56.11 416.24C56.11 422.492 142.917 427.56 250 427.56Z" fill="#F5F5F5"/>
<path d="M158.88 408.54C159.639 408.917 160.514 408.981 161.32 408.72C161.437 408.627 161.523 408.501 161.566 408.358C161.609 408.215 161.607 408.062 161.56 407.92C161.503 407.665 161.349 407.443 161.13 407.3C159.97 406.53 156.8 407.15 156.67 407.18C156.632 407.188 156.596 407.207 156.57 407.236C156.543 407.265 156.525 407.301 156.52 407.34C156.516 407.377 156.522 407.414 156.538 407.448C156.554 407.481 156.579 407.51 156.61 407.53C157.335 407.934 158.095 408.272 158.88 408.54V408.54ZM160.58 407.46C160.7 407.499 160.814 407.553 160.92 407.62C160.988 407.66 161.047 407.714 161.093 407.777C161.14 407.841 161.172 407.913 161.19 407.99C161.24 408.26 161.19 408.36 161.09 408.41C160.57 408.78 158.64 408.14 157.29 407.41C158.38 407.216 159.497 407.233 160.58 407.46V407.46Z" fill="#00A688"/>
<path d="M156.65 407.55H156.73C157.78 407.44 160.15 406.4 160.3 405.49C160.3 405.28 160.3 404.98 159.79 404.76C159.616 404.686 159.429 404.647 159.24 404.647C159.051 404.647 158.864 404.686 158.69 404.76C157.45 405.24 156.57 407.23 156.53 407.31C156.515 407.339 156.507 407.372 156.507 407.405C156.507 407.438 156.515 407.471 156.53 407.5C156.564 407.528 156.606 407.545 156.65 407.55V407.55ZM159.53 405.08H159.64C159.95 405.22 159.93 405.36 159.92 405.4C159.83 405.95 158.17 406.83 157.04 407.08C157.414 406.246 158.035 405.548 158.82 405.08C159.049 404.993 159.301 404.993 159.53 405.08Z" fill="#00A688"/>
<path d="M155.79 407.08H147C146.846 407.074 146.695 407.128 146.58 407.231C146.464 407.333 146.393 407.476 146.38 407.63L145.68 414.79C145.669 414.973 145.696 415.156 145.758 415.329C145.82 415.501 145.917 415.659 146.043 415.793C146.168 415.927 146.319 416.034 146.487 416.107C146.655 416.181 146.837 416.219 147.02 416.22C150.19 416.17 154.75 415.98 158.73 415.98C163.39 415.98 163.73 416.24 169.2 416.24C172.5 416.24 173 412.9 171.58 412.59C165.11 411.21 163.67 411.07 157.81 407.71C157.201 407.332 156.506 407.115 155.79 407.08V407.08Z" fill="#263238"/>
<path d="M115.9 409C116.764 409.1 117.634 408.883 118.35 408.39C118.45 408.279 118.514 408.14 118.534 407.992C118.553 407.844 118.528 407.693 118.46 407.56C118.41 407.449 118.336 407.35 118.242 407.272C118.149 407.194 118.038 407.139 117.92 407.11C116.63 406.75 113.59 408.35 113.46 408.42C113.424 408.437 113.392 408.464 113.37 408.498C113.347 408.531 113.333 408.57 113.33 408.61C113.331 408.647 113.345 408.683 113.368 408.712C113.391 408.741 113.424 408.761 113.46 408.77C114.265 408.919 115.081 408.996 115.9 409ZM117.4 407.44C117.523 407.424 117.647 407.424 117.77 407.44C117.843 407.453 117.912 407.485 117.97 407.532C118.028 407.58 118.072 407.641 118.1 407.71C118.2 407.94 118.1 408.06 118.1 408.13C117.65 408.65 115.61 408.66 114.1 408.45C115.134 407.93 116.251 407.595 117.4 407.46V407.44Z" fill="#00A688"/>
<path d="M113.5 408.79H113.58C114.58 408.35 116.8 406.61 116.78 405.7C116.78 405.49 116.67 405.22 116.15 405.17C115.756 405.135 115.364 405.249 115.05 405.49C114.197 406.344 113.604 407.423 113.34 408.6C113.324 408.626 113.316 408.655 113.316 408.685C113.316 408.715 113.324 408.745 113.34 408.77C113.364 408.784 113.39 408.793 113.418 408.797C113.445 408.8 113.473 408.798 113.5 408.79ZM115.94 405.53H116.06C116.39 405.53 116.4 405.7 116.4 405.74C116.4 406.29 114.9 407.66 113.82 408.25C114.055 407.308 114.547 406.45 115.24 405.77C115.441 405.615 115.687 405.531 115.94 405.53V405.53Z" fill="#00A688"/>
<path d="M110.89 407.08H102.1C101.939 407.082 101.783 407.136 101.656 407.236C101.53 407.335 101.44 407.474 101.4 407.63L99.6 414.79C99.553 414.96 99.5466 415.139 99.5813 415.312C99.616 415.485 99.6908 415.648 99.7997 415.787C99.9086 415.926 100.049 416.038 100.208 416.113C100.368 416.188 100.543 416.225 100.72 416.22C103.89 416.17 108.48 415.98 112.47 415.98C117.13 415.98 115.29 416.24 120.76 416.24C124.06 416.24 125.08 412.9 123.7 412.59C117.44 411.21 118.16 411.07 112.82 407.71C112.248 407.325 111.579 407.107 110.89 407.08Z" fill="#263238"/>
<path d="M149.84 203.2C149.84 203.2 140.5 265.05 136.84 288.01C133.49 309.27 119.77 378.74 115.3 400.21C115 401.68 114.92 403.04 114.13 404.21C115.19 405.57 114.35 408.43 114.35 408.43L100.35 409.85C99.9085 409.293 99.591 408.648 99.4185 407.958C99.2461 407.268 99.2227 406.549 99.35 405.85C99.49 404.85 100.81 402.96 101.08 399.68C102.87 378.02 110.83 318.68 112.85 289.87C114.75 262.82 122.07 203.21 122.07 203.21L149.84 203.2Z" fill="#00A688"/>
<path opacity="0.3" d="M141.88 234C132.55 240.67 135.01 268.93 136.58 289.89C136.68 289.23 136.79 288.6 136.88 288C138.88 275.47 142.53 251.31 145.47 232C145 231.82 142.36 233.66 141.88 234Z" fill="black"/>
<path d="M165.12 203.2C165.12 203.2 164.52 263.4 163.83 287.96C163.21 309.67 163.15 380.58 158.72 400.77C158.27 402.83 159.32 403.24 159.12 404.06C159.052 404.344 158.998 404.631 158.96 404.92C158.884 405.469 158.641 405.982 158.263 406.388C157.886 406.794 157.392 407.074 156.85 407.19L146.59 409.51C146.154 409.608 145.698 409.536 145.314 409.307C144.931 409.078 144.65 408.71 144.53 408.28C144.214 406.941 144.086 405.564 144.15 404.19C144.15 403.07 144.68 400.72 144.61 399.37C143.26 374.01 139.89 309.87 139.26 289.9C138.4 262.56 136.81 203.2 136.81 203.2H165.12Z" fill="#00A688"/>
<path d="M126.47 145.44C125.01 148.14 123.47 151 122.05 153.8C120.63 156.6 119.17 159.46 117.8 162.3C117.12 163.72 116.45 165.14 115.8 166.57C115.15 168 114.52 169.42 113.92 170.84C112.754 173.62 111.729 176.457 110.85 179.34L106.21 172.58C107.092 172.796 107.987 172.953 108.89 173.05C109.811 173.135 110.739 173.135 111.66 173.05C112.63 172.992 113.591 172.838 114.53 172.59C115.01 172.47 115.53 172.33 115.98 172.17C116.21 172.09 116.46 172.01 116.68 171.92L117.03 171.8L117.18 171.74C117.18 171.74 117.29 171.74 117.28 171.74C117.836 171.162 118.598 170.828 119.4 170.812C120.202 170.796 120.977 171.099 121.555 171.655C122.133 172.211 122.467 172.973 122.483 173.775C122.499 174.577 122.196 175.352 121.64 175.93L121.21 176.51C121.08 176.68 120.96 176.85 120.83 177C120.57 177.31 120.31 177.59 120.04 177.89C118.39 179.598 116.415 180.958 114.23 181.89C112.748 182.528 111.193 182.978 109.6 183.23C108.004 183.493 106.384 183.577 104.77 183.48C104.1 183.449 103.442 183.287 102.834 183.002C102.227 182.717 101.681 182.315 101.229 181.819C100.777 181.323 100.427 180.743 100.199 180.112C99.9706 179.48 99.8691 178.81 99.9 178.14C99.9157 177.868 99.9524 177.597 100.01 177.33L100.14 176.73C100.892 173.314 101.864 169.951 103.05 166.66C104.17 163.43 105.45 160.32 106.79 157.24C108.13 154.16 109.57 151.16 111.06 148.24C112.55 145.32 114.06 142.37 115.85 139.4C116.244 138.701 116.772 138.087 117.403 137.593C118.034 137.098 118.757 136.732 119.53 136.517C120.302 136.301 121.11 136.24 121.906 136.337C122.702 136.434 123.471 136.686 124.17 137.08C124.869 137.474 125.483 138.002 125.978 138.633C126.472 139.264 126.838 139.987 127.053 140.76C127.269 141.532 127.33 142.34 127.233 143.136C127.136 143.932 126.884 144.701 126.49 145.4L126.47 145.44Z" fill="#FFC3BD"/>
<path d="M116.08 172.52L120.8 168.87L124.8 177.25C124.8 177.25 120.91 179.64 117.28 178.25L116.08 172.52Z" fill="#FFC3BD"/>
<path d="M127.71 164.2L129.73 172.19L124.77 177.25L120.8 168.87L127.71 164.2Z" fill="#FFC3BD"/>
<path d="M156.79 106.1C156.79 106.75 157.04 107.31 157.46 107.35C157.88 107.39 158.27 106.89 158.32 106.24C158.37 105.59 158.08 105.04 157.65 105C157.22 104.96 156.84 105.46 156.79 106.1Z" fill="#263238"/>
<path d="M157 107.3C157.606 109.348 158.491 111.303 159.63 113.11C159.161 113.387 158.636 113.557 158.093 113.609C157.551 113.661 157.003 113.593 156.49 113.41L157 107.3Z" fill="#ED847E"/>
<path d="M198 143.79L197.62 134.67L188 137.4C188.18 138.954 188.7 140.449 189.525 141.779C190.35 143.108 191.458 144.239 192.77 145.09L198 143.79Z" fill="#FFC3BD"/>
<path d="M194.34 128.06L186.12 132.62L188.03 137.4L197.63 134.67L194.34 128.06Z" fill="#FFC3BD"/>
<path d="M194.19 123.34H185.38C185.16 123.344 184.948 123.428 184.786 123.578C184.624 123.727 184.522 123.931 184.5 124.15L182.87 141.09C182.859 141.192 182.869 141.296 182.901 141.394C182.932 141.492 182.984 141.582 183.053 141.659C183.122 141.735 183.207 141.796 183.301 141.838C183.395 141.879 183.497 141.901 183.6 141.9H192.4C192.621 141.894 192.832 141.809 192.996 141.661C193.159 141.512 193.264 141.309 193.29 141.09L194.91 124.15C194.925 124.048 194.917 123.944 194.887 123.845C194.857 123.746 194.806 123.655 194.738 123.578C194.669 123.501 194.585 123.44 194.49 123.399C194.396 123.358 194.293 123.338 194.19 123.34V123.34Z" fill="#00A688"/>
<path d="M193.58 123.34H184.78C184.56 123.344 184.348 123.428 184.186 123.578C184.024 123.727 183.922 123.931 183.9 124.15L182.27 141.09C182.259 141.192 182.269 141.296 182.301 141.394C182.332 141.492 182.384 141.582 182.453 141.659C182.522 141.735 182.607 141.796 182.701 141.838C182.795 141.879 182.897 141.901 183 141.9H191.8C192.02 141.894 192.23 141.809 192.392 141.66C192.554 141.511 192.656 141.309 192.68 141.09L194.31 124.15C194.323 124.047 194.314 123.943 194.283 123.844C194.252 123.746 194.2 123.655 194.131 123.578C194.061 123.501 193.976 123.44 193.881 123.399C193.786 123.358 193.683 123.338 193.58 123.34V123.34Z" fill="#00A688"/>
<path d="M183 141.55C182.947 141.552 182.895 141.542 182.847 141.521C182.798 141.5 182.755 141.469 182.72 141.43C182.685 141.389 182.658 141.341 182.643 141.29C182.627 141.238 182.623 141.184 182.63 141.13L184.26 124.19C184.274 124.056 184.337 123.931 184.436 123.839C184.536 123.747 184.665 123.694 184.8 123.69H193.6C193.652 123.689 193.703 123.698 193.751 123.717C193.799 123.736 193.843 123.764 193.88 123.8C193.914 123.841 193.94 123.889 193.956 123.941C193.971 123.992 193.976 124.047 193.97 124.1L192.34 141.1C192.326 141.235 192.263 141.359 192.164 141.451C192.064 141.543 191.935 141.596 191.8 141.6L183 141.55Z" fill="white"/>
<path d="M191.31 132.55C191.231 133.396 190.854 134.187 190.246 134.781C189.638 135.374 188.838 135.732 187.99 135.79C187.597 135.797 187.208 135.719 186.849 135.56C186.49 135.401 186.17 135.166 185.911 134.871C185.652 134.576 185.46 134.228 185.35 133.851C185.239 133.475 185.212 133.078 185.27 132.69C185.349 131.844 185.726 131.053 186.334 130.46C186.943 129.866 187.742 129.508 188.59 129.45C188.983 129.441 189.373 129.518 189.733 129.676C190.093 129.835 190.414 130.07 190.674 130.365C190.933 130.661 191.124 131.01 191.234 131.387C191.344 131.764 191.37 132.161 191.31 132.55Z" fill="#F99942"/>
<path d="M196.14 137.21C194.382 135.101 192.862 132.804 191.61 130.36C191.095 130.595 190.684 131.011 190.455 131.529C190.227 132.047 190.196 132.631 190.37 133.17C190.74 134.28 192.15 137.17 192.15 137.17C192.15 137.17 191.47 140.64 192.75 143.06C194.03 145.48 196.14 137.21 196.14 137.21Z" fill="#FFC3BD"/>
<path d="M154.72 102.3C154.629 102.271 154.551 102.211 154.5 102.13C154.473 102.088 154.455 102.04 154.447 101.991C154.439 101.941 154.441 101.891 154.454 101.842C154.466 101.794 154.488 101.748 154.518 101.708C154.548 101.668 154.586 101.635 154.63 101.61C155.142 101.285 155.726 101.09 156.33 101.042C156.935 100.993 157.542 101.092 158.1 101.33C158.146 101.351 158.186 101.382 158.22 101.419C158.253 101.457 158.279 101.501 158.295 101.548C158.311 101.596 158.317 101.647 158.312 101.697C158.308 101.747 158.294 101.796 158.27 101.84C158.225 101.928 158.148 101.994 158.054 102.026C157.961 102.058 157.859 102.052 157.77 102.01V102.01C157.325 101.828 156.843 101.756 156.365 101.8C155.886 101.843 155.425 102.001 155.02 102.26C154.976 102.289 154.926 102.307 154.875 102.314C154.823 102.321 154.77 102.316 154.72 102.3V102.3Z" fill="#263238"/>
<path d="M135.56 113.38C136.76 119.27 137.51 127.43 133.42 131.38C133.42 131.38 135.08 137.38 146.02 137.38C158.02 137.38 151.77 132.14 151.77 132.14C146.77 130.58 146.77 124.88 147.87 120.31L135.56 113.38Z" fill="#FFC3BD"/>
<path d="M131.2 135.3C130.11 133.79 130.12 128.99 131.26 128.14C133.1 126.78 141 126.46 151.66 128.91C150.55 133.56 153 136 153 136L131.2 135.3Z" fill="#00A688"/>
<path d="M119 133.19C111.46 134.92 106.4 155.05 106.4 155.05L120.62 165.73C124.52 161.549 127.254 156.418 128.55 150.85C131.09 140.75 126.72 131.42 119 133.19Z" fill="#263238"/>
<path opacity="0.1" d="M119 133.19C111.46 134.92 106.4 155.05 106.4 155.05L120.62 165.73C124.52 161.549 127.254 156.418 128.55 150.85C131.09 140.75 126.72 131.42 119 133.19Z" fill="white"/>
<path d="M163.43 139C167.57 143.61 171.51 148.28 175.43 152.82C177.43 155.09 179.43 157.33 181.43 159.45C183.272 161.483 185.261 163.378 187.38 165.12C187.783 165.444 188.203 165.744 188.64 166.02C188.97 166.24 189.27 166.32 188.95 166.28C188.569 166.248 188.186 166.288 187.82 166.4C187.506 166.495 187.206 166.633 186.93 166.81C186.732 166.929 186.55 167.074 186.39 167.24C186.3 167.4 186.52 167.24 186.72 166.86C187.282 165.874 187.722 164.823 188.03 163.73C188.41 162.47 188.76 161.12 189.03 159.73C190.22 154.13 191.03 148.06 191.73 142.12L197.78 141.98C198.71 148.302 198.978 154.703 198.58 161.08C198.462 162.757 198.251 164.426 197.95 166.08C197.623 167.991 197.073 169.857 196.31 171.64C195.752 172.891 194.985 174.038 194.04 175.03C193.616 175.475 193.135 175.862 192.61 176.18C192.008 176.558 191.354 176.848 190.67 177.04C189.56 177.345 188.398 177.413 187.26 177.24C185.863 177.024 184.511 176.578 183.26 175.92C182.359 175.45 181.488 174.925 180.65 174.35C177.903 172.358 175.318 170.151 172.92 167.75C170.62 165.5 168.46 163.21 166.34 160.92C162.13 156.31 158.13 151.63 154.19 147.01L163.43 139Z" fill="#FFC3BD"/>
<path opacity="0.4" d="M125.59 147.35C121.52 151.41 120.24 158.8 119.97 165.22L120.64 165.73C124.537 161.547 127.271 156.417 128.57 150.85C128.72 150.25 128.85 149.64 128.96 149.05L125.59 147.35Z" fill="#263238"/>
<path d="M105.87 154L105.58 154.77C105.51 154.993 105.513 155.232 105.589 155.454C105.664 155.675 105.808 155.866 106 156L119.6 166.29C119.825 166.46 120.107 166.536 120.386 166.502C120.666 166.468 120.922 166.328 121.1 166.11V166.04C121.189 165.93 121.256 165.803 121.297 165.667C121.337 165.531 121.35 165.388 121.335 165.247C121.32 165.106 121.278 164.969 121.21 164.844C121.142 164.719 121.05 164.609 120.94 164.52L107.58 153.52C107.446 153.409 107.286 153.331 107.115 153.295C106.944 153.259 106.767 153.265 106.599 153.312C106.431 153.359 106.277 153.446 106.15 153.566C106.023 153.686 105.927 153.835 105.87 154V154Z" fill="#00A688"/>
<path d="M166.77 141.26C168.48 149.96 169.98 180.63 165.46 216.01H119.62C119.28 209.4 125.62 164.34 119.02 133.19C123.775 132.267 128.585 131.656 133.42 131.36C139.518 131.005 145.632 131.005 151.73 131.36C153.73 131.54 155.73 131.83 157.5 132.14C159.784 132.55 161.891 133.64 163.545 135.267C165.199 136.894 166.323 138.983 166.77 141.26V141.26Z" fill="#263238"/>
<path opacity="0.1" d="M166.77 141.26C168.48 149.96 169.98 180.63 165.46 216.01H119.62C119.28 209.4 125.62 164.34 119.02 133.19C123.775 132.267 128.585 131.656 133.42 131.36C139.518 131.005 145.632 131.005 151.73 131.36C153.73 131.54 155.73 131.83 157.5 132.14C159.784 132.55 161.891 133.64 163.545 135.267C165.199 136.894 166.323 138.983 166.77 141.26V141.26Z" fill="white"/>
<path opacity="0.4" d="M168 153L160.94 154.69C160.52 160.01 164.88 166.18 168.44 170.26C168.47 163.63 168.3 157.78 168 153Z" fill="#263238"/>
<path d="M135.32 102.79C135.15 110.79 134.64 115.44 138.32 119.88C143.85 126.56 153.96 123.8 156.51 116.04C158.81 109.04 158.71 97.1699 151.19 93.3099C149.548 92.4432 147.71 92.0137 145.854 92.0627C143.997 92.1118 142.185 92.6378 140.591 93.5901C138.997 94.5423 137.674 95.8889 136.751 97.5001C135.828 99.1114 135.335 100.933 135.32 102.79V102.79Z" fill="#FFC3BD"/>
<path d="M152.58 108.76C152.58 108.76 155.75 111.31 155.81 107.3C155.913 105.376 155.768 103.447 155.38 101.56C155.38 101.56 157.43 101.43 157.25 98.02C157.07 94.61 151.86 89.48 143.73 90.74C135.6 92 136.15 96.06 136.15 96.06C136.15 96.06 128.62 96.54 132.86 108.76C135.94 117.65 136.41 119.27 136.41 119.27C136.41 119.27 143.92 120.86 145.59 119.13C147.26 117.4 149.41 107.65 152.58 108.76Z" fill="#263238"/>
<path d="M148.14 107C148.131 108.987 148.774 110.923 149.97 112.51C151.57 114.58 153.5 113.51 153.97 111.23C154.42 109.14 154.13 105.55 152.07 104.3C150.01 103.05 148.18 104.62 148.14 107Z" fill="#FFC3BD"/>
<path d="M149.91 143.9C146.12 154.31 169.62 166.9 169.62 166.9L178.62 153.9C178.62 153.9 172 140.9 163.89 135C153.91 127.76 152.79 136 149.91 143.9Z" fill="#263238"/>
<path opacity="0.1" d="M149.91 143.9C146.12 154.31 169.62 166.9 169.62 166.9L178.62 153.9C178.62 153.9 172 140.9 163.89 135C153.91 127.76 152.79 136 149.91 143.9Z" fill="white"/>
<path d="M178.79 152.78L179.3 153.45C179.438 153.639 179.513 153.866 179.513 154.1C179.513 154.334 179.438 154.561 179.3 154.75L170.23 167.06C170.075 167.271 169.849 167.42 169.593 167.477C169.338 167.534 169.07 167.496 168.84 167.37L168.7 167.29C168.566 167.219 168.448 167.121 168.355 167.001C168.261 166.882 168.194 166.744 168.157 166.597C168.12 166.45 168.115 166.297 168.141 166.147C168.167 165.998 168.225 165.856 168.31 165.73L177.01 152.83C177.107 152.685 177.237 152.565 177.389 152.48C177.542 152.396 177.713 152.349 177.887 152.344C178.061 152.339 178.235 152.376 178.392 152.452C178.549 152.528 178.685 152.64 178.79 152.78V152.78Z" fill="#00A688"/>
<path d="M381.7 113.75H241.23C237.769 113.8 234.454 115.151 231.943 117.533C229.433 119.916 227.911 123.156 227.68 126.61L213.12 397C213.016 398.658 213.254 400.319 213.819 401.881C214.385 403.442 215.266 404.871 216.408 406.077C217.549 407.284 218.927 408.242 220.455 408.893C221.983 409.544 223.629 409.873 225.29 409.86H365.76C369.222 409.812 372.538 408.462 375.049 406.079C377.56 403.696 379.082 400.454 379.31 397L393.87 126.63C393.977 124.971 393.741 123.307 393.177 121.743C392.613 120.179 391.732 118.748 390.59 117.539C389.448 116.331 388.069 115.371 386.54 114.719C385.01 114.067 383.363 113.737 381.7 113.75V113.75Z" fill="#263238"/>
<path d="M260.95 110.25H254.02V111.25H260.95V110.25Z" fill="#00A688"/>
<path d="M224.7 119.39L223.83 118.89C225.327 116.287 227.478 114.12 230.071 112.604C232.663 111.089 235.607 110.277 238.61 110.25H249.53V111.25H238.61C235.783 111.277 233.012 112.042 230.572 113.47C228.132 114.898 226.108 116.939 224.7 119.39V119.39Z" fill="#00A688"/>
<path d="M379.08 113.75H238.61C235.149 113.8 231.834 115.151 229.323 117.533C226.813 119.916 225.291 123.156 225.06 126.61L210.51 397C210.404 398.657 210.641 400.318 211.205 401.88C211.77 403.442 212.65 404.87 213.791 406.077C214.932 407.283 216.309 408.242 217.836 408.893C219.364 409.544 221.01 409.873 222.67 409.86H363.15C366.61 409.81 369.924 408.459 372.433 406.076C374.942 403.693 376.462 400.453 376.69 397L391.25 126.63C391.357 124.971 391.121 123.307 390.557 121.743C389.993 120.179 389.112 118.748 387.97 117.539C386.828 116.331 385.449 115.371 383.92 114.719C382.39 114.067 380.743 113.737 379.08 113.75V113.75Z" fill="#00A688"/>
<path d="M222.79 407.7C221.407 407.714 220.035 407.442 218.761 406.902C217.488 406.362 216.339 405.565 215.388 404.56C214.436 403.556 213.702 402.366 213.231 401.066C212.76 399.765 212.562 398.381 212.65 397L227.2 126.61C227.389 123.732 228.656 121.03 230.748 119.045C232.841 117.06 235.606 115.937 238.49 115.9H379C380.384 115.886 381.757 116.158 383.031 116.699C384.305 117.24 385.454 118.038 386.406 119.043C387.358 120.048 388.092 121.239 388.563 122.541C389.033 123.843 389.23 125.229 389.14 126.61L374.55 397C374.364 399.88 373.098 402.584 371.005 404.571C368.912 406.559 366.146 407.683 363.26 407.72L222.79 407.7Z" fill="white"/>
<path opacity="0.2" d="M228.76 221.5L233.05 141.9C233.145 140.364 233.816 138.921 234.928 137.857C236.04 136.793 237.511 136.187 239.05 136.16H376.15C376.892 136.151 377.628 136.297 378.311 136.586C378.994 136.876 379.61 137.303 380.12 137.842C380.63 138.382 381.023 139.02 381.275 139.719C381.526 140.417 381.63 141.16 381.58 141.9L377.29 221.5C377.195 223.036 376.524 224.479 375.412 225.543C374.3 226.607 372.829 227.213 371.29 227.24H234.19C233.448 227.249 232.712 227.104 232.029 226.814C231.346 226.524 230.73 226.097 230.22 225.558C229.71 225.019 229.317 224.38 229.066 223.681C228.814 222.983 228.71 222.24 228.76 221.5Z" fill="#00A688"/>
<path d="M312.42 125.84H304.42C303.357 125.851 302.323 125.497 301.491 124.836C300.659 124.175 300.079 123.248 299.85 122.21L298.21 114.86H319.28L317.44 121.86C317.154 122.981 316.508 123.977 315.601 124.696C314.694 125.415 313.577 125.817 312.42 125.84V125.84Z" fill="#00A688"/>
<path opacity="0.5" d="M311.11 120.35C311.065 121.054 310.755 121.715 310.243 122.201C309.732 122.687 309.055 122.961 308.35 122.97C308.011 122.973 307.676 122.907 307.364 122.775C307.052 122.642 306.771 122.447 306.538 122.201C306.305 121.955 306.126 121.664 306.011 121.345C305.896 121.027 305.848 120.688 305.87 120.35C305.915 119.646 306.225 118.985 306.736 118.499C307.248 118.013 307.924 117.739 308.63 117.73C308.969 117.725 309.305 117.79 309.618 117.922C309.93 118.054 310.212 118.249 310.445 118.496C310.678 118.742 310.858 119.034 310.972 119.353C311.087 119.672 311.134 120.012 311.11 120.35Z" fill="white"/>
<path d="M332.16 318.11H264.4C264.262 318.11 264.129 318.057 264.028 317.963C263.928 317.868 263.868 317.738 263.86 317.6L261.7 269.75C261.699 269.678 261.712 269.606 261.738 269.539C261.764 269.471 261.804 269.41 261.854 269.358C261.904 269.306 261.964 269.264 262.03 269.236C262.096 269.207 262.168 269.191 262.24 269.19H339.47C339.548 269.189 339.625 269.206 339.696 269.239C339.767 269.272 339.83 269.32 339.88 269.38C339.931 269.438 339.969 269.507 339.99 269.581C340.01 269.656 340.014 269.734 340 269.81L332.69 317.66C332.669 317.785 332.604 317.899 332.507 317.982C332.41 318.064 332.287 318.109 332.16 318.11V318.11ZM264.91 317H331.7L338.85 270.22H262.8L264.91 317Z" fill="#00A688"/>
<path d="M328.79 327.78H269.62C269.544 327.791 269.466 327.785 269.392 327.762C269.318 327.74 269.25 327.703 269.192 327.652C269.134 327.601 269.087 327.539 269.055 327.469C269.023 327.398 269.007 327.322 269.007 327.245C269.007 327.168 269.023 327.092 269.055 327.022C269.087 326.951 269.134 326.889 269.192 326.838C269.25 326.787 269.318 326.75 269.392 326.728C269.466 326.706 269.544 326.7 269.62 326.71H328.79C329.216 326.701 329.626 326.541 329.946 326.259C330.266 325.978 330.476 325.592 330.54 325.17L339.49 265.78C339.511 265.654 339.575 265.539 339.672 265.455C339.769 265.371 339.892 265.323 340.02 265.32H343.87C344.013 265.32 344.151 265.377 344.252 265.478C344.353 265.579 344.41 265.717 344.41 265.86C344.41 266.003 344.353 266.141 344.252 266.242C344.151 266.343 344.013 266.4 343.87 266.4H340.48L331.6 325.33C331.502 326.007 331.165 326.626 330.649 327.076C330.133 327.525 329.474 327.775 328.79 327.78V327.78Z" fill="#00A688"/>
<path d="M274.12 337.86C273.395 337.867 272.676 337.724 272.009 337.441C271.342 337.158 270.74 336.739 270.242 336.213C269.743 335.686 269.359 335.063 269.113 334.381C268.866 333.699 268.763 332.973 268.81 332.25C268.908 330.76 269.565 329.361 270.65 328.334C271.734 327.307 273.166 326.727 274.66 326.71C275.384 326.703 276.101 326.845 276.767 327.128C277.433 327.411 278.034 327.828 278.531 328.354C279.029 328.88 279.412 329.502 279.658 330.183C279.904 330.864 280.007 331.588 279.96 332.31C279.864 333.801 279.21 335.2 278.127 336.229C277.045 337.258 275.613 337.84 274.12 337.86V337.86ZM274.66 327.78C273.439 327.795 272.269 328.27 271.383 329.109C270.497 329.949 269.96 331.092 269.88 332.31C269.84 332.888 269.92 333.468 270.116 334.013C270.312 334.558 270.619 335.057 271.017 335.477C271.416 335.898 271.898 336.23 272.432 336.455C272.966 336.679 273.541 336.79 274.12 336.78C275.34 336.765 276.508 336.29 277.393 335.45C278.277 334.61 278.812 333.467 278.89 332.25C278.93 331.673 278.85 331.094 278.655 330.549C278.46 330.005 278.154 329.507 277.756 329.086C277.359 328.666 276.878 328.333 276.345 328.108C275.812 327.883 275.238 327.772 274.66 327.78V327.78Z" fill="#00A688"/>
<path d="M325.69 337.86C324.966 337.866 324.248 337.722 323.582 337.438C322.916 337.154 322.316 336.736 321.818 336.209C321.321 335.683 320.937 335.06 320.692 334.378C320.446 333.697 320.343 332.973 320.39 332.25C320.483 330.76 321.138 329.36 322.221 328.332C323.304 327.304 324.737 326.725 326.23 326.71C326.954 326.703 327.672 326.845 328.338 327.128C329.005 327.411 329.606 327.828 330.105 328.354C330.603 328.879 330.987 329.502 331.234 330.182C331.481 330.863 331.585 331.587 331.54 332.31V332.31C331.442 333.801 330.785 335.201 329.701 336.23C328.617 337.258 327.185 337.841 325.69 337.86V337.86ZM326.23 327.78C325.01 327.793 323.84 328.267 322.955 329.107C322.07 329.948 321.536 331.092 321.46 332.31C321.42 332.887 321.5 333.466 321.695 334.011C321.89 334.555 322.196 335.053 322.594 335.473C322.991 335.894 323.472 336.227 324.005 336.452C324.538 336.676 325.112 336.788 325.69 336.78C326.911 336.765 328.081 336.29 328.967 335.451C329.853 334.611 330.39 333.468 330.47 332.25C330.51 331.672 330.43 331.092 330.234 330.547C330.038 330.002 329.732 329.503 329.333 329.083C328.934 328.662 328.452 328.33 327.918 328.105C327.384 327.881 326.809 327.77 326.23 327.78V327.78Z" fill="#00A688"/>
<path d="M290.46 249.11L301.46 258.52L313.46 249.11H290.46Z" fill="#00A688"/>
<path d="M309.47 388.184C317.982 379.898 318.518 366.642 310.667 358.577C302.816 350.512 289.551 350.692 281.038 358.978C272.526 367.265 271.99 380.52 279.841 388.585C287.693 396.65 300.958 396.471 309.47 388.184Z" fill="#F99942"/>
<path d="M280.79 372.56C280.79 372.56 289.33 377.5 292.79 383.87C295.71 378.87 300.08 371.99 310.56 364.22C297.84 369.34 293.13 377.5 293.13 377.5C289.596 374.669 285.301 372.95 280.79 372.56V372.56Z" fill="white"/>
<path d="M301.5 240C325.524 240 345 220.301 345 196C345 171.7 325.524 152 301.5 152C277.475 152 258 171.7 258 196C258 220.301 277.475 240 301.5 240Z" fill="#F99942"/>
<path d="M325 188.477C325.003 184.259 323.867 180.117 321.711 176.489C319.555 172.862 316.459 169.881 312.749 167.862C309.039 165.843 304.851 164.86 300.629 165.016C296.406 165.173 292.304 166.463 288.754 168.751C285.203 171.039 282.338 174.24 280.457 178.018C278.576 181.795 277.75 186.009 278.066 190.216C278.383 194.422 279.829 198.466 282.254 201.921C284.678 205.376 287.991 208.114 291.843 209.848V214H311.158V209.848C315.281 207.995 318.781 204.992 321.237 201.201C323.692 197.41 324.999 192.992 325 188.477Z" fill="white"/>
<path opacity="0.2" d="M309.36 225H293.64L292 214H311L309.36 225Z" fill="black"/>
<path opacity="0.4" d="M305.229 227H297.772L297 225H306L305.229 227Z" fill="black"/>
<path d="M298.737 193.826C298.215 192.298 297.34 190.918 296.184 189.8C293.52 187.116 290.227 186.213 288.737 187.744C287.972 188.518 287.793 189.766 288.244 191.245C288.767 192.771 289.642 194.149 290.797 195.263C292.576 197.07 294.635 198.068 296.261 198.068C296.637 198.072 297.012 198.008 297.367 197.878L298.873 213.484C298.886 213.625 298.951 213.757 299.055 213.852C299.159 213.948 299.294 214.001 299.435 214H299.486C299.56 213.994 299.633 213.972 299.7 213.937C299.765 213.902 299.825 213.853 299.872 213.795C299.92 213.736 299.955 213.669 299.977 213.596C299.998 213.523 300.005 213.447 299.997 213.372L298.423 197.104C298.735 196.625 298.927 196.076 298.983 195.505C299.038 194.933 298.953 194.357 298.737 193.826ZM291.597 194.454C290.582 193.467 289.809 192.253 289.342 190.91C289.171 190.531 289.101 190.112 289.14 189.697C289.179 189.282 289.325 188.884 289.564 188.544C289.726 188.399 289.917 188.287 290.123 188.217C290.328 188.146 290.546 188.117 290.764 188.131C291.98 188.131 293.75 188.931 295.41 190.609C296.429 191.593 297.202 192.808 297.665 194.153C297.837 194.532 297.908 194.951 297.869 195.366C297.831 195.782 297.684 196.179 297.444 196.519C296.558 197.448 294.006 196.837 291.597 194.454Z" fill="#F99942"/>
<path d="M314.257 187.754C313.482 186.971 312.255 186.791 310.79 187.246C309.293 187.798 307.934 188.674 306.808 189.812C305.682 190.95 304.817 192.322 304.272 193.834C304.056 194.364 303.971 194.939 304.024 195.51C304.078 196.081 304.268 196.63 304.579 197.11L303.003 213.372C302.988 213.524 303.034 213.675 303.129 213.793C303.226 213.91 303.364 213.985 303.514 214H303.564C303.705 214.001 303.841 213.948 303.945 213.852C304.049 213.757 304.114 213.625 304.127 213.484L305.635 197.884C305.993 198.015 306.371 198.079 306.751 198.073C308.37 198.073 310.432 197.076 312.212 195.27C313.37 194.156 314.246 192.779 314.768 191.254C315.202 189.775 315.024 188.528 314.257 187.754ZM313.677 190.918C313.213 192.263 312.439 193.477 311.42 194.462C309.06 196.844 306.487 197.454 305.567 196.525C305.327 196.186 305.179 195.788 305.14 195.373C305.102 194.958 305.173 194.539 305.346 194.161C305.812 192.817 306.585 191.603 307.603 190.617C308.581 189.587 309.786 188.806 311.121 188.339C311.493 188.216 311.881 188.149 312.272 188.141C312.704 188.122 313.127 188.269 313.456 188.554C313.7 188.895 313.848 189.296 313.887 189.714C313.926 190.133 313.854 190.555 313.677 190.936V190.918Z" fill="#F99942"/>
</svg>
