<svg width="256" height="256" viewBox="0 0 256 256" fill="none" xmlns="http://www.w3.org/2000/svg">
<path d="M256 195.789H0V195.917H256V195.789Z" fill="#EBEBEB"/>
<path d="M220.011 199.276H170.04V199.404H220.011V199.276Z" fill="#EBEBEB"/>
<path d="M171.863 202.235H147.968V202.363H171.863V202.235Z" fill="#EBEBEB"/>
<path d="M230.349 204.027H220.523V204.155H230.349V204.027Z" fill="#EBEBEB"/>
<path d="M112.128 202.296H64.7527V202.424H112.128V202.296Z" fill="#EBEBEB"/>
<path d="M60.1959 202.296H50.0071V202.424H60.1959V202.296Z" fill="#EBEBEB"/>
<path d="M46.4127 200.136H29.5884V200.264H46.4127V200.136Z" fill="#EBEBEB"/>
<path d="M27.4126 131.927H88.0232V128H27.4126V131.927Z" fill="#EBEBEB"/>
<path d="M28.6105 195.789H83.2L83.2 131.927H28.6105L28.6105 195.789Z" fill="#EBEBEB"/>
<path d="M84.5516 131.927H83.2V195.789H84.5516V131.927Z" fill="#F0F0F0"/>
<path d="M83.2 131.927H28.6055V134.656L83.2 133.289V131.927Z" fill="#E6E6E6"/>
<path d="M133.739 195.789H188.329V131.927H133.739V195.789Z" fill="#EBEBEB"/>
<path d="M189.681 131.927H188.329V195.789H189.681V131.927Z" fill="#F0F0F0"/>
<path d="M188.329 131.927H133.74V134.656L188.329 133.289V131.927Z" fill="#E6E6E6"/>
<path d="M194.063 128H88.0232V131.927H194.063V128Z" fill="#F5F5F5"/>
<path d="M74.3528 118.61H128.174C128.704 118.622 129.23 118.517 129.715 118.303C130.201 118.089 130.633 117.771 130.981 117.371C131.329 116.972 131.585 116.5 131.731 115.991C131.877 115.481 131.909 114.945 131.825 114.422L127.667 81.8432C127.497 80.7021 126.931 79.6572 126.068 78.8915C125.205 78.1258 124.1 77.6881 122.947 77.6551H69.1202C68.59 77.6432 68.0636 77.748 67.5784 77.962C67.0932 78.1761 66.6609 78.4941 66.3122 78.8936C65.9634 79.2932 65.7067 79.7645 65.5603 80.2742C65.4138 80.7839 65.3811 81.3195 65.4645 81.8432L69.6322 114.422C69.8033 115.563 70.3698 116.607 71.2326 117.372C72.0954 118.138 73.1998 118.576 74.3528 118.61Z" fill="#E0E0E0"/>
<path d="M92.5235 101.545H104.53L100.465 128H88.4583L92.5235 101.545Z" fill="#E0E0E0"/>
<path d="M75.0798 118.61H128.896C129.427 118.623 129.953 118.518 130.439 118.305C130.925 118.091 131.357 117.773 131.706 117.373C132.055 116.973 132.312 116.502 132.458 115.992C132.604 115.482 132.636 114.946 132.552 114.422L128.394 81.8432C128.223 80.7016 127.656 79.6567 126.792 78.891C125.928 78.1254 124.822 77.6879 123.669 77.655H69.8471C69.3171 77.643 68.7909 77.7478 68.3059 77.9619C67.8208 78.1759 67.3888 78.4941 67.0405 78.8937C66.6921 79.2934 66.4359 79.7648 66.2901 80.2745C66.1442 80.7842 66.1123 81.3198 66.1966 81.8432L70.354 114.422C70.5253 115.563 71.0925 116.608 71.9564 117.374C72.8203 118.14 73.9259 118.577 75.0798 118.61Z" fill="#E6E6E6"/>
<path d="M96.1484 77.6551H103.997L118.123 109.706H110.269L96.1484 77.6551Z" fill="#F5F5F5"/>
<path d="M90.793 77.6551H93.9366L108.058 109.706H104.914L90.793 77.6551Z" fill="#F5F5F5"/>
<path d="M131.948 109.706L132.552 114.422C132.635 114.946 132.602 115.481 132.456 115.991C132.309 116.501 132.053 116.972 131.704 117.371C131.355 117.771 130.923 118.089 130.438 118.303C129.953 118.517 129.426 118.622 128.896 118.61H75.0797C73.9258 118.577 72.8202 118.14 71.9563 117.374C71.0924 116.608 70.5252 115.563 70.3539 114.422L69.7549 109.706H131.948Z" fill="#F0F0F0"/>
<path d="M53.8318 119.332C53.2605 117.312 53.1468 115.19 53.499 113.121C53.8109 111.031 54.4666 109.007 55.4394 107.131C55.6647 106.655 55.9514 106.22 56.2228 105.759L56.6375 105.088C56.786 104.868 56.9447 104.658 57.1034 104.448C57.426 104.033 57.7383 103.613 58.066 103.204C58.3937 102.794 58.7879 102.441 59.1514 102.067L59.7044 101.509C59.8938 101.335 60.0986 101.171 60.3034 100.997C60.7028 100.664 61.1124 100.342 61.522 100.024C62.3734 99.437 63.2628 98.9068 64.1844 98.4371C63.5751 99.2922 62.8788 100.019 62.2593 100.808C61.9572 101.212 61.6551 101.606 61.3428 101.99C61.1943 102.19 61.0305 102.369 60.882 102.569L60.4621 103.178C60.1805 103.578 59.8938 103.977 59.602 104.366C59.3102 104.755 59.09 105.196 58.8289 105.605C58.7009 105.81 58.5575 106.01 58.4346 106.214L58.0865 106.854C57.8561 107.279 57.5745 107.684 57.3902 108.124C56.499 109.847 55.7589 111.644 55.1783 113.495C54.5618 115.398 54.1113 117.351 53.8318 119.332Z" fill="#E6E6E6"/>
<path d="M43.0644 117.837C42.8027 115.857 42.3746 113.903 41.7844 111.995C41.223 110.138 40.5036 108.333 39.634 106.598C39.4394 106.158 39.1732 105.749 38.953 105.324L38.61 104.678C38.4922 104.469 38.3489 104.274 38.226 104.064C37.97 103.649 37.714 103.24 37.4631 102.82C37.2122 102.4 36.8948 102.026 36.6183 101.617L36.2036 101.007C36.0602 100.803 35.8964 100.618 35.7479 100.424C35.4458 100.035 35.1437 99.6352 34.8468 99.2308C34.2375 98.432 33.5514 97.6948 32.9473 96.8346C33.8655 97.3148 34.7499 97.857 35.5943 98.4576C35.9988 98.7751 36.4033 99.1028 36.8026 99.4407C37.0023 99.6045 37.2071 99.7684 37.3965 99.9527L37.9393 100.511C38.3045 100.89 38.6629 101.274 39.0145 101.663C39.337 102.072 39.6442 102.497 39.9617 102.917C40.1153 103.132 40.274 103.342 40.4173 103.562L40.8269 104.238C41.0829 104.699 41.3748 105.139 41.5949 105.621C42.5431 107.503 43.1745 109.528 43.4637 111.616C43.7964 113.693 43.6599 115.819 43.0644 117.837Z" fill="#E6E6E6"/>
<path d="M43.2282 118.784C43.2845 116.47 43.2282 114.232 43.0797 112.015C42.9196 109.814 42.5996 107.627 42.1223 105.472C41.9277 104.392 41.5795 103.357 41.3031 102.293C41.129 101.781 40.9395 101.269 40.7911 100.757C40.619 100.235 40.4207 99.7222 40.1971 99.2205C39.424 97.1367 38.2976 95.2218 37.2275 93.1533C39.0478 94.6271 40.5789 96.4256 41.7434 98.4576L42.1939 99.2154C42.3424 99.4714 42.4448 99.7274 42.5728 100.014C42.8237 100.526 43.0848 101.089 43.2896 101.632C43.6864 102.719 44.0131 103.831 44.2675 104.96C44.7693 107.259 44.9417 109.617 44.7795 111.964C44.66 114.31 44.1352 116.617 43.2282 118.784Z" fill="#E6E6E6"/>
<path d="M52.951 120.146C51.7535 118.028 50.8035 115.779 50.1197 113.444C49.4187 111.118 48.905 108.74 48.5837 106.332C48.4045 105.134 48.3174 103.921 48.2201 102.707C48.1229 101.494 48.1126 100.28 48.1792 99.0618C48.2315 96.6282 48.5578 94.2082 49.152 91.8477C49.4745 94.2746 49.6128 96.64 49.9097 99.0157C50.0121 100.193 50.1811 101.366 50.2989 102.538L50.5293 104.294C50.5907 104.883 50.6726 105.467 50.7597 106.051C51.0771 108.389 51.4287 110.727 51.8144 113.065L52.951 120.146Z" fill="#E6E6E6"/>
<path d="M52.4698 119.68C51.0356 117.712 49.833 115.585 48.8858 113.341C47.916 111.116 47.13 108.814 46.5357 106.46C46.2131 105.288 45.9879 104.09 45.7575 102.876C45.5271 101.663 45.3735 100.48 45.3018 99.2615C45.0738 96.8388 45.1202 94.3982 45.44 91.986C46.0339 94.3565 46.464 96.6912 46.976 99.0004C47.2167 100.157 47.5187 101.304 47.7696 102.456L48.1997 104.177C48.3277 104.75 48.4762 105.324 48.6298 105.892C49.2083 108.181 49.833 110.459 50.4781 112.742L52.4698 119.68Z" fill="#E6E6E6"/>
<path d="M51.5227 119.163C49.9114 117.34 48.5163 115.337 47.3652 113.193C46.1864 111.06 45.1847 108.834 44.37 106.537C43.94 105.4 43.6072 104.228 43.2641 103.066C42.9211 101.903 42.6548 100.71 42.4654 99.5072C42.0094 97.1156 41.8256 94.68 41.9176 92.2471C42.7316 94.5511 43.3614 96.8551 44.1345 99.0874C44.4827 100.219 44.8923 101.33 45.2507 102.451L45.8395 104.125C46.0187 104.684 46.2235 105.237 46.4334 105.789C47.2219 108.017 48.0564 110.229 48.9217 112.445L51.5227 119.163Z" fill="#E6E6E6"/>
<path d="M54.1644 118.549C53.2287 116.669 52.7232 114.606 52.6847 112.507C52.6047 110.395 52.8728 108.285 53.4783 106.26C53.6114 105.748 53.8265 105.262 53.9903 104.765L54.2719 104.028C54.3794 103.788 54.4972 103.552 54.6149 103.316C54.8505 102.845 55.0809 102.374 55.3266 101.914C55.5724 101.453 55.8949 101.028 56.1817 100.593L56.622 99.9424C56.7756 99.7325 56.9497 99.5379 57.134 99.3383C57.4719 98.9389 57.8098 98.5447 58.158 98.1555C58.8839 97.4193 59.6606 96.7349 60.4825 96.1075C60.037 97.0599 59.4892 97.9047 59.0284 98.7955C58.8031 99.2461 58.5778 99.6915 58.3474 100.127C58.2348 100.347 58.1068 100.557 57.9993 100.782L57.7023 101.458C57.4975 101.903 57.2927 102.349 57.0777 102.784C56.8626 103.219 56.7244 103.695 56.5657 104.146C56.4786 104.371 56.3711 104.591 56.2943 104.817L56.069 105.508C55.9205 105.969 55.7311 106.419 55.6185 106.885C55.0639 108.744 54.6699 110.647 54.4409 112.573C54.178 114.554 54.0855 116.553 54.1644 118.549Z" fill="#E6E6E6"/>
<path d="M54.1644 119.48C52.891 117.523 51.9676 115.359 51.4355 113.085C50.8732 110.801 50.6388 108.447 50.7391 106.097C50.7892 104.918 50.9192 103.745 51.1283 102.584C51.2614 102.006 51.3996 101.432 51.5532 100.864C51.6352 100.582 51.6864 100.291 51.7888 100.014L52.1011 99.1847C52.8937 96.9848 54.0862 94.9503 55.6185 93.184C54.8704 95.3057 54.2498 97.4702 53.76 99.6659C53.6254 100.201 53.5211 100.743 53.4476 101.289C53.3708 101.832 53.2684 102.369 53.1865 102.912C53.1046 104.008 52.9408 105.088 52.9356 106.189C52.8447 108.391 52.9098 110.596 53.1302 112.788C53.3503 115 53.7036 117.212 54.1644 119.48Z" fill="#E6E6E6"/>
<path d="M50.6624 116.552L44.4826 106.02L43.7197 116.28L50.6624 116.552Z" fill="#E6E6E6"/>
<path d="M60.8308 113.715H37.0894L40.1972 128H57.723L60.8308 113.715Z" fill="#F5F5F5"/>
<path d="M45.9982 113.715H37.0894L40.1972 128H44.8769L45.9982 113.715Z" fill="#EBEBEB"/>
<path d="M213.366 146.319H175.616C173.599 128.481 177.306 109.307 186.552 91.392C186.795 90.9221 187.162 90.5276 187.614 90.2514C188.065 89.9753 188.583 89.8279 189.112 89.8253H221.046C221.482 89.8245 221.91 89.9377 222.289 90.1538C222.668 90.3699 222.983 90.6814 223.204 91.0572C223.425 91.433 223.544 91.8602 223.549 92.2961C223.554 92.7321 223.445 93.1618 223.232 93.5424C214.769 110.833 211.425 129.193 213.366 146.319Z" fill="#E0E0E0"/>
<path d="M204.411 141.624H162.816C161.572 141.627 160.379 142.123 159.499 143.002C158.619 143.882 158.124 145.075 158.121 146.319H209.116C209.113 145.073 208.616 143.879 207.734 142.999C206.852 142.119 205.657 141.624 204.411 141.624Z" fill="#E0E0E0"/>
<path d="M185.923 195.789H183.608L177.889 146.319H180.204L185.923 195.789Z" fill="#E0E0E0"/>
<path d="M219.085 195.789H216.771L211.052 146.319H213.366L219.085 195.789Z" fill="#E0E0E0"/>
<path d="M189.005 195.789H191.324L197.043 146.319H194.724L189.005 195.789Z" fill="#E0E0E0"/>
<path d="M155.848 195.789H158.162L163.881 146.319H161.567L155.848 195.789Z" fill="#E0E0E0"/>
<path d="M217.487 34.985H43.1411V67.072H217.487V34.985Z" fill="#F5F5F5"/>
<path d="M41.8253 67.072H43.1411L43.1411 34.985H41.8253L41.8253 67.072Z" fill="#EBEBEB"/>
<path d="M207.135 54.1031C156.047 62.7047 104.96 45.5015 53.8726 54.1031V47.9591C104.96 39.3575 156.047 56.5607 207.135 47.9591V54.1031Z" fill="#EBEBEB"/>
<path d="M128 218.911C182.826 218.911 227.272 216.316 227.272 213.115C227.272 209.914 182.826 207.319 128 207.319C73.1737 207.319 28.7283 209.914 28.7283 213.115C28.7283 216.316 73.1737 218.911 128 218.911Z" fill="#F5F5F5"/>
<path d="M193.536 51.1385H208.451C211.42 51.1385 213.832 54.615 212.106 58.0915H152.97C155.018 53.9955 151.358 51.1385 149.31 51.1385H193.536Z" fill="#F99942"/>
<path d="M146.555 51.1385H207.227C198.917 51.1385 191.509 57.8714 190.669 66.176L179.917 172.759C179.077 181.064 171.669 187.796 163.359 187.796H132.777C124.473 187.796 118.441 181.064 119.255 172.759L130.007 66.176C130.837 57.856 138.24 51.1385 146.555 51.1385Z" fill="#F99942"/>
<path opacity="0.7" d="M146.555 51.1385H207.227C198.917 51.1385 191.509 57.8714 190.669 66.176L179.917 172.759C179.077 181.064 171.669 187.796 163.359 187.796H132.777C124.473 187.796 118.441 181.064 119.255 172.759L130.007 66.176C130.837 57.856 138.24 51.1385 146.555 51.1385Z" fill="white"/>
<path d="M149.847 172.759C149.927 172.137 149.871 171.505 149.684 170.906C149.498 170.307 149.184 169.755 148.764 169.289C148.345 168.822 147.83 168.452 147.254 168.202C146.678 167.953 146.056 167.831 145.429 167.844H84.7566C85.3842 167.83 86.0075 167.952 86.5838 168.201C87.1601 168.45 87.6758 168.82 88.0958 169.287C88.5158 169.753 88.8301 170.305 89.0172 170.905C89.2044 171.504 89.26 172.136 89.1803 172.759C88.3406 181.064 94.3976 187.796 102.702 187.796H163.369C155.064 187.796 148.992 181.064 149.847 172.759Z" fill="#F99942"/>
<path d="M87.9566 167.839H73.042C71.731 167.844 70.474 168.361 69.5393 169.281C68.6047 170.2 68.0665 171.448 68.0398 172.759H140.426C140.453 171.448 140.991 170.2 141.926 169.281C142.861 168.361 144.118 167.844 145.429 167.839H87.9566Z" fill="#F99942"/>
<path opacity="0.6" d="M87.9566 167.839H73.042C71.731 167.844 70.474 168.361 69.5393 169.281C68.6047 170.2 68.0665 171.448 68.0398 172.759H140.426C140.453 171.448 140.991 170.2 141.926 169.281C142.861 168.361 144.118 167.844 145.429 167.839H87.9566Z" fill="white"/>
<g opacity="0.5">
<path opacity="0.5" d="M139.812 103.388H135.235L135.701 98.816H140.273L139.812 103.388Z" fill="white"/>
<path opacity="0.5" d="M147.364 103.388H142.792L143.253 98.816H147.825L147.364 103.388Z" fill="white"/>
<path opacity="0.5" d="M154.921 103.388H150.344L150.805 98.816H155.382L154.921 103.388Z" fill="white"/>
<path opacity="0.5" d="M162.473 103.388H157.896L158.362 98.816H162.934L162.473 103.388Z" fill="white"/>
<path opacity="0.5" d="M170.025 103.388H165.453L165.914 98.816H170.486L170.025 103.388Z" fill="white"/>
<path opacity="0.5" d="M177.582 103.388H173.005L173.466 98.816H178.043L177.582 103.388Z" fill="white"/>
<path opacity="0.5" d="M139.049 110.945H134.477L134.938 106.368H139.51L139.049 110.945Z" fill="white"/>
<path opacity="0.5" d="M146.606 110.945H142.029L142.49 106.368H147.067L146.606 110.945Z" fill="white"/>
<path opacity="0.5" d="M154.158 110.945H149.581L150.047 106.368H154.619L154.158 110.945Z" fill="white"/>
<path opacity="0.5" d="M161.71 110.945H157.138L157.599 106.368H162.171L161.71 110.945Z" fill="white"/>
<path opacity="0.5" d="M169.267 110.945H164.69L165.151 106.368H169.728L169.267 110.945Z" fill="white"/>
<path opacity="0.5" d="M176.819 110.945H172.242L172.703 106.368H177.28L176.819 110.945Z" fill="white"/>
<path opacity="0.5" d="M138.291 118.497H133.714L134.175 113.92H138.752L138.291 118.497Z" fill="white"/>
<path opacity="0.5" d="M145.843 118.497H141.266L141.727 113.92H146.304L145.843 118.497Z" fill="white"/>
<path opacity="0.5" d="M153.395 118.497H148.823L149.284 113.92H153.856L153.395 118.497Z" fill="white"/>
<path opacity="0.5" d="M160.952 118.497H156.375L156.836 113.92H161.413L160.952 118.497Z" fill="white"/>
<path opacity="0.5" d="M168.504 118.497H163.927L164.388 113.92H168.965L168.504 118.497Z" fill="white"/>
<path opacity="0.5" d="M176.056 118.497H171.484L171.945 113.92H176.517L176.056 118.497Z" fill="white"/>
<path opacity="0.5" d="M137.528 126.049H132.951L133.412 121.477H137.989L137.528 126.049Z" fill="white"/>
<path opacity="0.5" d="M145.08 126.049H140.508L140.969 121.477H145.541L145.08 126.049Z" fill="white"/>
<path opacity="0.5" d="M152.632 126.049H148.06L148.521 121.477H153.093L152.632 126.049Z" fill="white"/>
<path opacity="0.5" d="M160.189 126.049H155.612L156.073 121.477H160.65L160.189 126.049Z" fill="white"/>
<path opacity="0.5" d="M167.741 126.049H163.169L163.63 121.477H168.202L167.741 126.049Z" fill="white"/>
<path opacity="0.5" d="M175.293 126.049H170.721L171.182 121.477H175.754L175.293 126.049Z" fill="white"/>
<path opacity="0.5" d="M136.766 133.606H132.193L132.654 129.029H137.226L136.766 133.606Z" fill="white"/>
<path opacity="0.5" d="M144.318 133.606H139.745L140.206 129.029H144.778L144.318 133.606Z" fill="white"/>
<path opacity="0.5" d="M151.875 133.606H147.297L147.758 129.029H152.335L151.875 133.606Z" fill="white"/>
<path opacity="0.5" d="M159.427 133.606H154.849L155.315 129.029H159.887L159.427 133.606Z" fill="white"/>
<path opacity="0.5" d="M166.979 133.606H162.406L162.867 129.029H167.439L166.979 133.606Z" fill="white"/>
<path opacity="0.5" d="M174.536 133.606H169.958L170.419 129.029H174.997L174.536 133.606Z" fill="white"/>
<path opacity="0.5" d="M136.003 141.158H131.43L131.891 136.581H136.463L136.003 141.158Z" fill="white"/>
<path opacity="0.5" d="M143.56 141.158H138.982L139.443 136.581H144.02L143.56 141.158Z" fill="white"/>
<path opacity="0.5" d="M151.112 141.158H146.534L147 136.581H151.572L151.112 141.158Z" fill="white"/>
<path opacity="0.5" d="M158.664 141.158H154.092L154.552 136.581H159.125L158.664 141.158Z" fill="white"/>
<path opacity="0.5" d="M166.221 141.158H161.644L162.104 136.581H166.682L166.221 141.158Z" fill="white"/>
<path opacity="0.5" d="M173.773 141.158H169.196L169.661 136.581H174.234L173.773 141.158Z" fill="white"/>
</g>
<path d="M138.373 136.581C138.313 137.099 138.067 137.578 137.681 137.929C137.295 138.28 136.796 138.48 136.274 138.491C136.031 138.496 135.789 138.448 135.565 138.351C135.342 138.254 135.142 138.11 134.979 137.929C134.816 137.748 134.694 137.533 134.622 137.301C134.549 137.068 134.528 136.823 134.559 136.581C134.618 136.063 134.864 135.584 135.25 135.234C135.636 134.884 136.137 134.685 136.658 134.676C136.901 134.671 137.143 134.718 137.367 134.814C137.59 134.911 137.79 135.054 137.953 135.235C138.116 135.416 138.238 135.63 138.31 135.862C138.383 136.094 138.404 136.34 138.373 136.581Z" fill="#F99942"/>
<path d="M148.214 113.92C148.152 114.439 147.905 114.917 147.519 115.268C147.132 115.619 146.632 115.819 146.11 115.83C145.865 115.836 145.622 115.79 145.397 115.693C145.173 115.597 144.972 115.453 144.808 115.272C144.644 115.09 144.521 114.876 144.448 114.642C144.375 114.409 144.353 114.163 144.384 113.92C144.447 113.402 144.694 112.925 145.081 112.575C145.467 112.225 145.967 112.026 146.488 112.015C146.732 112.01 146.974 112.057 147.198 112.153C147.422 112.25 147.623 112.393 147.786 112.574C147.95 112.754 148.073 112.968 148.147 113.2C148.22 113.433 148.243 113.678 148.214 113.92Z" fill="#F99942"/>
<path d="M162.56 121.477C162.498 121.996 162.252 122.474 161.865 122.825C161.478 123.176 160.978 123.376 160.456 123.387C160.212 123.392 159.97 123.344 159.747 123.247C159.523 123.15 159.323 123.006 159.161 122.825C158.998 122.644 158.876 122.429 158.804 122.197C158.731 121.964 158.71 121.719 158.741 121.477C158.802 120.959 159.048 120.481 159.434 120.13C159.819 119.78 160.319 119.58 160.84 119.567C161.084 119.563 161.325 119.61 161.549 119.707C161.773 119.804 161.973 119.948 162.136 120.129C162.299 120.31 162.422 120.524 162.495 120.757C162.568 120.99 162.59 121.235 162.56 121.477Z" fill="#F99942"/>
<path d="M179.2 106.368C179.139 106.887 178.892 107.365 178.505 107.716C178.118 108.067 177.618 108.267 177.096 108.278C176.852 108.283 176.611 108.235 176.387 108.138C176.164 108.041 175.964 107.897 175.801 107.716C175.638 107.535 175.516 107.32 175.444 107.088C175.371 106.855 175.35 106.61 175.381 106.368C175.442 105.849 175.689 105.371 176.076 105.02C176.463 104.669 176.963 104.469 177.485 104.458C177.729 104.453 177.97 104.501 178.194 104.598C178.417 104.695 178.617 104.839 178.78 105.02C178.943 105.201 179.065 105.416 179.137 105.648C179.21 105.881 179.231 106.126 179.2 106.368Z" fill="#F99942"/>
<path d="M136.463 137.144C136.37 137.145 136.279 137.122 136.197 137.077C136.115 137.033 136.046 136.969 135.995 136.892C135.944 136.814 135.913 136.724 135.906 136.632C135.898 136.539 135.914 136.446 135.951 136.361L145.792 113.7C145.822 113.629 145.867 113.564 145.923 113.511C145.98 113.459 146.047 113.418 146.12 113.393C146.192 113.368 146.269 113.358 146.346 113.365C146.423 113.371 146.497 113.392 146.565 113.428L160.563 120.796L176.901 105.948C177.012 105.849 177.158 105.797 177.306 105.805C177.455 105.813 177.595 105.879 177.695 105.989C177.744 106.044 177.782 106.107 177.806 106.176C177.831 106.245 177.841 106.319 177.838 106.392C177.834 106.465 177.816 106.537 177.784 106.603C177.752 106.669 177.708 106.729 177.654 106.778L161.024 121.892C160.939 121.97 160.833 122.019 160.719 122.033C160.605 122.046 160.49 122.024 160.389 121.969L146.565 114.698L136.98 136.806C136.937 136.907 136.864 136.993 136.772 137.053C136.68 137.113 136.573 137.145 136.463 137.144Z" fill="#F99942"/>
<path opacity="0.5" d="M134.37 157.358H129.797L130.028 155.069H134.6L134.37 157.358Z" fill="#00A688"/>
<path opacity="0.6" d="M141.926 157.358H137.349L138.143 149.478H142.72L141.926 157.358Z" fill="#00A688"/>
<path opacity="0.7" d="M149.478 157.358H144.901L145.367 152.781H149.939L149.478 157.358Z" fill="#00A688"/>
<path opacity="0.8" d="M157.031 157.358H152.458L153.063 151.342H157.64L157.031 157.358Z" fill="#00A688"/>
<path opacity="0.9" d="M164.588 157.358H160.01L160.379 153.708H164.956L164.588 157.358Z" fill="#00A688"/>
<path d="M172.14 157.358H167.562L167.798 155.069H172.37L172.14 157.358Z" fill="#00A688"/>
<path opacity="0.5" d="M177.531 90.8339H137.82C137.652 90.8375 137.486 90.8048 137.331 90.7381C137.177 90.6713 137.039 90.5721 136.927 90.4472C136.815 90.3223 136.731 90.1746 136.681 90.0143C136.631 89.8539 136.616 89.6847 136.637 89.5181L138.445 71.5469C138.487 71.1896 138.657 70.8595 138.923 70.6177C139.189 70.3758 139.534 70.2385 139.894 70.2311H179.61C179.777 70.2283 179.944 70.2616 180.097 70.3286C180.251 70.3957 180.389 70.4949 180.501 70.6196C180.613 70.7443 180.697 70.8916 180.747 71.0516C180.797 71.2116 180.813 71.3805 180.792 71.5469L178.98 89.5181C178.938 89.8754 178.768 90.2055 178.502 90.4473C178.235 90.6892 177.891 90.8265 177.531 90.8339Z" fill="white"/>
<path d="M150.298 80.5325L153.585 73.4669C154.982 73.9975 156.16 74.9831 156.929 76.2648C157.698 77.5465 158.014 79.0498 157.824 80.5325C157.603 82.3476 156.809 84.0449 155.556 85.3774C154.304 86.7098 152.659 87.608 150.861 87.9411L150.298 80.5325Z" fill="#00A688"/>
<path d="M150.298 80.5325L150.861 87.9411C150.424 88.0167 149.983 88.0544 149.54 88.0538C148.581 88.0689 147.631 87.8785 146.752 87.4952C145.874 87.112 145.087 86.545 144.446 85.8322C143.806 85.1195 143.325 84.2777 143.037 83.3635C142.749 82.4492 142.66 81.4839 142.776 80.5325C143.024 78.4969 143.995 76.618 145.512 75.2377C147.028 73.8573 148.99 73.0673 151.04 73.0112C151.902 73.0084 152.757 73.1628 153.564 73.4669L150.298 80.5325Z" fill="white"/>
<path d="M168.177 78.7047H171.029L170.086 88.0435H167.235L168.177 78.7047Z" fill="white"/>
<path d="M172.524 83.671H175.375L174.935 88.0435H172.083L172.524 83.671Z" fill="white"/>
<path d="M172.524 83.6711H175.376L175.647 81.0035H172.795L172.524 83.6711Z" fill="#00A688"/>
<path d="M168.177 78.7046H171.029L171.602 73.0112H168.75L168.177 78.7046Z" fill="#00A688"/>
<path d="M163.159 80.4045H166.011L165.243 88.0435H162.391L163.159 80.4045Z" fill="white"/>
<path d="M163.159 80.4045H166.011L166.364 76.9024H163.512L163.159 80.4045Z" fill="#00A688"/>
<path d="M68.7617 81.6896C68.5365 82.0634 68.2497 82.5344 68.0296 82.9645C67.8094 83.3946 67.5176 83.8605 67.3077 84.3111C66.8468 85.2224 66.3809 86.1287 65.956 87.0605C65.1002 88.8891 64.3614 90.7702 63.7441 92.6925L63.5291 93.4093L63.4267 93.7728L63.396 93.8599C63.3633 94.088 63.3898 94.3207 63.4728 94.5357C63.7665 95.3904 64.1583 96.2082 64.6401 96.9728C65.7276 98.7177 66.9104 100.401 68.1832 102.016L66.5601 103.731C64.7482 102.391 63.0987 100.845 61.6449 99.1232C60.8278 98.1812 60.1486 97.1279 59.6276 95.9949C59.2737 95.2267 59.0986 94.3881 59.1156 93.5424C59.1237 93.4052 59.1391 93.2684 59.1617 93.1328L59.1976 92.9178V92.8154L59.2846 92.3955L59.4638 91.5559C59.9941 89.3592 60.7048 87.21 61.5886 85.1303C62.0289 84.1063 62.4948 83.0823 63.0171 82.089C63.2731 81.577 63.5291 81.0957 63.8158 80.6042C64.1025 80.1127 64.3739 79.6467 64.7169 79.1143L68.7617 81.6896Z" fill="#FF8B7B"/>
<path d="M67.0107 101.094L70.861 101.253L69.325 104.556C69.325 104.556 66.5858 104.402 65.5566 102.743L67.0107 101.094Z" fill="#FF8B7B"/>
<path d="M71.8133 102.738L70.8609 105.697L69.3096 104.561L70.8609 101.253L71.8133 102.738Z" fill="#FF8B7B"/>
<path d="M75.0081 208.62C74.5902 208.608 74.1748 208.551 73.7691 208.451C73.748 208.446 73.7286 208.435 73.7133 208.419C73.6979 208.404 73.6871 208.385 73.682 208.364C73.6781 208.342 73.6804 208.32 73.6886 208.3C73.6967 208.28 73.7105 208.263 73.7281 208.251C73.8868 208.143 75.3 207.227 75.8478 207.473C75.9092 207.501 75.9623 207.544 76.0018 207.599C76.0413 207.654 76.0659 207.718 76.0731 207.785C76.0977 207.89 76.0946 207.999 76.0641 208.102C76.0336 208.206 75.9767 208.299 75.899 208.374C75.6411 208.56 75.325 208.647 75.0081 208.62ZM74.0814 208.292C74.9006 208.456 75.5099 208.425 75.7454 208.21C75.7972 208.16 75.8345 208.097 75.8534 208.028C75.8723 207.958 75.8722 207.885 75.8529 207.816C75.8511 207.786 75.8417 207.757 75.8256 207.732C75.8095 207.707 75.7871 207.686 75.7608 207.672C75.4689 207.544 74.6548 207.939 74.0814 208.292Z" fill="#F99942"/>
<path d="M73.7948 208.451C73.7764 208.456 73.7569 208.456 73.7384 208.451C73.7217 208.44 73.7078 208.426 73.6979 208.409C73.6881 208.392 73.6827 208.373 73.6821 208.353C73.6821 208.297 73.6821 206.945 74.1941 206.495C74.2562 206.437 74.3301 206.395 74.4106 206.369C74.4911 206.343 74.5763 206.336 74.66 206.346C74.749 206.349 74.8345 206.381 74.9032 206.437C74.9718 206.494 75.0196 206.572 75.0389 206.659C75.1516 207.171 74.3119 208.195 73.8716 208.451C73.8468 208.46 73.8196 208.46 73.7948 208.451ZM74.5679 206.556C74.4774 206.556 74.39 206.589 74.3221 206.648C74.02 206.92 73.9279 207.672 73.9074 208.128C74.3477 207.77 74.87 207.012 74.7983 206.689C74.7983 206.638 74.7573 206.572 74.614 206.556H74.5679Z" fill="#F99942"/>
<path d="M109.655 206.531C109.636 206.532 109.616 206.528 109.598 206.52C109.581 206.512 109.565 206.5 109.553 206.484C109.539 206.466 109.532 206.444 109.532 206.42C109.532 206.397 109.539 206.375 109.553 206.356C109.696 206.172 110.956 204.59 111.637 204.544H111.683C111.744 204.546 111.804 204.563 111.857 204.595C111.91 204.626 111.954 204.67 111.985 204.723C112.04 204.805 112.073 204.899 112.081 204.996C112.089 205.094 112.072 205.192 112.031 205.281C111.765 205.906 110.439 206.305 109.671 206.525L109.655 206.531ZM111.647 204.764C111.273 204.79 110.485 205.583 109.947 206.228C110.971 205.926 111.678 205.553 111.831 205.204C111.857 205.145 111.867 205.08 111.861 205.016C111.854 204.951 111.832 204.889 111.795 204.836C111.783 204.814 111.765 204.796 111.744 204.784C111.722 204.771 111.697 204.764 111.673 204.764H111.647Z" fill="#F99942"/>
<path d="M109.655 206.531C109.636 206.528 109.618 206.521 109.602 206.509C109.587 206.498 109.575 206.482 109.568 206.464C109.568 206.418 109.102 205.266 109.43 204.58C109.477 204.478 109.545 204.388 109.629 204.313C109.712 204.238 109.81 204.181 109.916 204.145C110.213 204.037 110.367 204.145 110.428 204.237C110.74 204.662 110.157 206.029 109.747 206.495C109.736 206.507 109.721 206.517 109.705 206.523C109.689 206.53 109.672 206.532 109.655 206.531ZM110.08 204.288C110.035 204.293 109.99 204.303 109.947 204.319C109.869 204.346 109.797 204.388 109.735 204.444C109.673 204.499 109.624 204.566 109.588 204.641C109.447 205.148 109.474 205.687 109.665 206.177C110.044 205.629 110.392 204.605 110.208 204.349C110.195 204.328 110.176 204.311 110.153 204.3C110.13 204.289 110.105 204.285 110.08 204.288Z" fill="#F99942"/>
<path d="M74.8444 62.8378C75.3564 65.6231 76.5647 71.7107 74.6089 73.5232C74.6089 73.5232 75.3513 76.3597 80.5225 76.4621C86.2108 76.5696 83.2566 73.6973 83.2566 73.6973C80.159 72.8935 80.2511 70.5997 80.8041 68.4493L74.8444 62.8378Z" fill="#FF8B7B"/>
<path d="M73.2162 74.9363L72.2229 70.0262C73.6492 70.4425 75.121 70.6832 76.6056 70.743C78.5973 70.743 82.9135 70.5843 85.0587 69.8419C85.6527 70.6816 88.7656 72.9139 88.7656 72.9139L87.373 75.264L73.2162 74.9363Z" fill="#F99942"/>
<path opacity="0.8" d="M73.2162 74.9363L72.2229 70.0262C73.6492 70.4425 75.121 70.6832 76.6056 70.743C78.5973 70.743 82.9135 70.5843 85.0587 69.8419C85.6527 70.6816 88.7656 72.9139 88.7656 72.9139L87.373 75.264L73.2162 74.9363Z" fill="white"/>
<path d="M85.9444 57.4873C85.9099 57.4823 85.8767 57.4701 85.8472 57.4515C85.7982 57.4191 85.7639 57.3688 85.7514 57.3114C85.739 57.254 85.7495 57.1941 85.7806 57.1443C85.9654 56.847 86.2192 56.5987 86.5205 56.4204C86.8218 56.2421 87.1616 56.1392 87.5112 56.1203C87.57 56.1203 87.6266 56.1433 87.6687 56.1845C87.7108 56.2256 87.7351 56.2816 87.7364 56.3405C87.7365 56.3993 87.7134 56.4559 87.6723 56.498C87.6311 56.5401 87.5751 56.5644 87.5163 56.5657C87.2393 56.5842 86.9709 56.6693 86.7338 56.8137C86.4967 56.9581 86.2979 57.1576 86.1544 57.3952C86.1316 57.4288 86.0999 57.4553 86.0627 57.4716C86.0256 57.4879 85.9846 57.4933 85.9444 57.4873Z" fill="#263238"/>
<path d="M87.373 60.1037C87.7229 60.9673 88.1898 61.7787 88.7606 62.5152C88.5692 62.6531 88.3499 62.7475 88.1182 62.7917C87.8865 62.8359 87.6479 62.8289 87.4191 62.7712L87.373 60.1037Z" fill="#FF5652"/>
<path d="M87.04 59.4534C87.04 59.8323 87.25 60.1395 87.4957 60.1395C87.7415 60.1395 87.9412 59.8323 87.9309 59.4534C87.9207 59.0745 87.721 58.7673 87.4752 58.7673C87.2295 58.7673 87.04 59.0745 87.04 59.4534Z" fill="#263238"/>
<path d="M87.3472 58.7879L88.2534 58.5267C88.2534 58.5267 87.7977 59.2384 87.3472 58.7879Z" fill="#263238"/>
<path d="M105.18 209.485L109.722 207.923L106.517 197.821L101.98 199.388L105.18 209.485Z" fill="#FF8B7B"/>
<path d="M68.3418 208.343H73.0266L72.5095 197.489H67.8247L68.3418 208.343Z" fill="#FF8B7B"/>
<path d="M73.3954 207.8H68.1269C68.0374 207.799 67.9506 207.831 67.8828 207.89C67.8149 207.948 67.7707 208.029 67.7583 208.118L67.2155 212.285C67.2063 212.391 67.2192 212.498 67.2533 212.599C67.2874 212.699 67.3421 212.792 67.4138 212.87C67.4855 212.949 67.5727 213.011 67.6699 213.054C67.7671 213.097 67.8721 213.12 67.9784 213.12C69.8165 213.089 70.6971 212.982 73.0114 212.982C74.4399 212.982 76.5186 213.125 78.4898 213.125C80.461 213.125 80.5378 211.185 79.7135 211.005C76.0271 210.217 75.4331 209.126 74.1787 208.087C73.958 207.905 73.6816 207.804 73.3954 207.8Z" fill="#263238"/>
<path d="M109.128 206.08L104.259 208.384C104.174 208.418 104.106 208.483 104.067 208.566C104.028 208.648 104.022 208.742 104.049 208.829L105.303 212.741C105.343 212.84 105.403 212.93 105.479 213.004C105.555 213.079 105.646 213.136 105.745 213.174C105.845 213.212 105.951 213.228 106.058 213.222C106.164 213.216 106.268 213.189 106.363 213.14C108.048 212.316 108.821 211.835 110.971 210.831C112.287 210.212 115.067 209.06 116.9 208.205C118.733 207.35 117.97 205.599 117.136 205.798C113.398 206.705 111.586 206.377 109.968 206.003C109.687 205.936 109.392 205.963 109.128 206.08Z" fill="#263238"/>
<path opacity="0.2" d="M106.517 197.827L108.237 203.233L103.629 204.595L101.975 199.388L106.517 197.827Z" fill="black"/>
<path opacity="0.2" d="M67.8247 197.494H72.5095L72.7757 203.085H68.0909L67.8247 197.494Z" fill="black"/>
<path d="M66.514 74.4294C64.5632 74.8186 62.418 81.7766 62.418 81.7766L67.8964 87.7312C67.8964 87.7312 72.5044 81.2493 71.5879 78.8122C70.6561 76.288 68.818 73.9738 66.514 74.4294Z" fill="#00A688"/>
<path opacity="0.2" d="M66.514 74.4294C64.5632 74.8186 62.418 81.7766 62.418 81.7766L67.8964 87.7312C67.8964 87.7312 72.5044 81.2493 71.5879 78.8122C70.6561 76.288 68.818 73.9738 66.514 74.4294Z" fill="black"/>
<path opacity="0.4" d="M69.5757 78.9453C70.5638 78.0646 71.2294 78.3462 71.68 79.0682C72.1152 81.1571 69.4374 85.4579 68.3571 87.0861C67.8758 85.1097 67.3331 80.9472 69.5757 78.9453Z" fill="black"/>
<path d="M91.551 76.0474C91.8991 78.0954 91.9759 84.3366 88.7759 103.265L69.7244 102.912C70.093 95.1757 70.1289 90.4038 66.5142 74.4499C69.1868 73.9519 71.8922 73.649 74.6089 73.5437C77.4919 73.3979 80.3817 73.4561 83.2566 73.7178C86.0265 74.0198 89.0678 74.624 90.4246 74.9107C90.7043 74.9661 90.9611 75.1039 91.1619 75.3065C91.3626 75.5091 91.4981 75.7671 91.551 76.0474Z" fill="#00A688"/>
<path opacity="0.2" d="M91.5507 76.0474C91.8989 78.0954 91.9757 84.3366 88.7757 103.265L69.7242 102.912C70.0928 95.1757 70.1286 90.4038 66.5139 74.4499C69.1866 73.9519 71.892 73.649 74.6086 73.5437C77.4917 73.3979 80.3815 73.4561 83.2563 73.7178C86.0262 74.0198 89.0675 74.624 90.4243 74.9107C90.7041 74.9661 90.9609 75.1039 91.1616 75.3065C91.3624 75.5091 91.4979 75.7671 91.5507 76.0474Z" fill="black"/>
<path d="M74.3015 58.1991C74.665 62.8429 74.7213 64.8141 77.1021 67.1898C80.6861 70.7738 86.3181 69.3812 87.3421 64.7424C88.2689 60.5645 87.5162 53.673 82.9441 51.8349C81.9469 51.4179 80.8586 51.2663 79.7854 51.3949C78.7121 51.5236 77.6906 51.9281 76.8202 52.569C75.9498 53.21 75.2603 54.0655 74.8189 55.0521C74.3775 56.0388 74.1992 57.123 74.3015 58.1991Z" fill="#FF8B7B"/>
<path d="M75.5304 49.664C70.4923 50.0378 69.3249 55.9565 71.2859 59.7351C68.1627 64.4864 68.5416 66.2016 69.54 67.3076C71.2552 69.2224 80.082 71.5264 85.3659 67.5482C87.7262 65.7716 83.3537 59.4535 83.3537 59.4535C83.3537 59.4535 85.8983 48.8807 75.5304 49.664Z" fill="#263238"/>
<path d="M70.0213 67.497C68.5928 67.497 68.0859 66.7904 67.9221 66.1657C67.4101 64.1177 69.9701 60.1446 72.5301 59.0438C72.5961 59.0236 72.6672 59.0283 72.7299 59.057C72.7927 59.0857 72.8427 59.1365 72.8705 59.1996C72.8983 59.2628 72.9019 59.334 72.8807 59.3996C72.8595 59.4653 72.8149 59.5209 72.7554 59.5558C70.4872 60.5338 68.004 64.2765 68.4699 66.0224C68.6594 66.7392 69.3557 67.0464 70.5179 66.903C70.5919 66.8959 70.6657 66.9182 70.7232 66.9652C70.7807 67.0122 70.8174 67.08 70.8251 67.1539C70.8294 67.1903 70.8264 67.2271 70.8163 67.2623C70.8063 67.2974 70.7893 67.3303 70.7664 67.3589C70.7436 67.3874 70.7153 67.4112 70.6832 67.4287C70.6511 67.4463 70.6158 67.4573 70.5794 67.4611C70.3899 67.4816 70.1954 67.497 70.0213 67.497Z" fill="#263238"/>
<path d="M77.6246 61.5526L72.0796 61.7369C71.8611 61.7446 71.6434 61.7078 71.4395 61.629C71.2357 61.5501 71.0499 61.4308 70.8934 61.2781C70.7369 61.1255 70.613 60.9427 70.5291 60.7409C70.4453 60.539 70.4031 60.3222 70.4054 60.1037C70.4075 59.6549 70.5819 59.224 70.8925 58.9001C71.2031 58.5762 71.6262 58.3838 72.0745 58.3629L77.6194 58.1785C77.8379 58.1709 78.0556 58.2076 78.2595 58.2865C78.4634 58.3654 78.6492 58.4847 78.8056 58.6374C78.9621 58.79 79.086 58.9728 79.1699 59.1746C79.2538 59.3765 79.2959 59.5932 79.2937 59.8118C79.2915 60.2606 79.1172 60.6914 78.8066 61.0154C78.496 61.3393 78.0729 61.5316 77.6246 61.5526Z" fill="#F99942"/>
<path d="M76.155 51.3536C78.0443 48.4147 82.9902 47.529 86.1185 49.3722C89.7793 51.5277 89.7025 55.8541 83.5227 58.2758C76.8001 60.928 76.155 51.3536 76.155 51.3536Z" fill="#263238"/>
<path d="M84.5672 58.2247C85.3165 58.8706 85.8402 59.7387 86.0622 60.7027C86.3387 61.9264 85.5502 61.7626 84.644 61.2608C83.8248 60.8103 82.5448 59.9194 82.596 58.9005C82.6472 57.8816 83.7633 57.5335 84.5672 58.2247Z" fill="#FF8B7B"/>
<path d="M83.7428 103.163C83.7428 103.163 80.8397 135.245 77.9111 153.303C75.5456 167.885 73.5437 202.005 73.5437 202.005H67.154C67.154 202.005 65.0701 168.725 66.3092 154.255C69.4528 117.704 62.9351 114.591 69.7242 102.892L83.7428 103.163Z" fill="#263238"/>
<path opacity="0.4" d="M77.2455 113.889C78.9095 116.337 81.1316 119.158 81.8535 122.138C81.2801 127.549 80.6093 133.535 79.8823 139.29C78.121 134.451 75.1105 124.78 77.2455 113.889Z" fill="black"/>
<path d="M88.7757 103.265C88.7757 103.265 95.0068 138.378 97.6231 152.448C100.342 167.076 108.058 199.639 108.058 199.639L101.683 202.916C101.683 202.916 88.4992 163.594 86.9274 156.216C82.77 140.8 70.8608 102.912 70.8608 102.912L88.7757 103.265Z" fill="#263238"/>
<path d="M109.379 201.006L101.632 204.093L100.127 201.395L108.416 198.083L109.379 201.006Z" fill="#F99942"/>
<path d="M74.4192 202.132H66.2835L65.8125 199.275L74.4243 198.984L74.4192 202.132Z" fill="#F99942"/>
<path d="M69.4477 101.77L68.5773 103.455C68.5108 103.583 68.6695 103.721 68.8897 103.726L88.8577 104.12C89.0317 104.12 89.1751 104.038 89.1853 103.931L89.3645 102.236C89.3645 102.118 89.2314 102.016 89.042 102.011L69.7549 101.632C69.6961 101.626 69.6366 101.635 69.5826 101.659C69.5286 101.684 69.482 101.722 69.4477 101.77Z" fill="#F99942"/>
<path d="M72.0283 103.972H71.5163C71.4139 103.972 71.3319 103.916 71.3422 103.854L71.5982 101.647C71.5982 101.581 71.6955 101.53 71.7979 101.53H72.3099C72.4123 101.53 72.4891 101.586 72.4839 101.652L72.2279 103.859C72.2177 103.936 72.1307 103.977 72.0283 103.972Z" fill="#263238"/>
<path d="M84.5466 104.218H84.0346C83.9322 104.218 83.8554 104.161 83.8657 104.1L84.1165 101.893C84.1165 101.827 84.2138 101.775 84.3213 101.775H84.8333C84.9409 101.775 85.0177 101.832 85.0074 101.898L84.7514 104.105C84.7412 104.172 84.649 104.223 84.5466 104.218Z" fill="#263238"/>
<path d="M93.9674 78.4487C94.546 79.4266 95.1604 80.4967 95.7901 81.4746C96.4199 82.4525 97.0445 83.4868 97.705 84.4596C98.3655 85.4324 99.0465 86.3949 99.753 87.3216C100.46 88.2484 101.176 89.1239 101.929 89.9277C102.544 90.5216 103.302 90.9451 104.131 91.1565C105.174 91.4503 106.244 91.6356 107.325 91.7095C109.654 91.8687 111.992 91.831 114.314 91.5968L114.826 93.9111C112.374 94.7087 109.829 95.1821 107.254 95.3191C105.883 95.3935 104.508 95.3059 103.158 95.058C102.417 94.9121 101.693 94.6908 100.997 94.3975C100.221 94.0649 99.5064 93.6045 98.8826 93.0356C96.9968 91.2568 95.2967 89.2908 93.8087 87.168C92.3207 85.1206 90.9663 82.9794 89.7537 80.7578L93.9674 78.4487Z" fill="#FF8B7B"/>
<path d="M91.2385 75.0234C95.7851 75.7453 97.6641 82.2324 97.6641 82.2324L92.2011 87.4957C92.2011 87.4957 86.0161 81.8176 86.0161 78.2029C86.0161 75.5149 88.7604 74.6291 91.2385 75.0234Z" fill="#00A688"/>
<path opacity="0.2" d="M91.2385 75.0234C95.7851 75.7453 97.6641 82.2324 97.6641 82.2324L92.2011 87.4957C92.2011 87.4957 86.0161 81.8176 86.0161 78.2029C86.0161 75.5149 88.7604 74.6291 91.2385 75.0234Z" fill="black"/>
<path d="M119.7 88.6477C119.639 89.4617 119.532 90.2656 119.414 91.0643C119.296 91.863 119.153 92.6566 119.004 93.4451C118.856 94.2336 118.687 95.0221 118.492 95.8054C118.298 96.5888 118.333 97.4233 117.468 98.0121C117.33 98.0891 117.171 98.1187 117.015 98.0965C116.859 98.0743 116.714 98.0015 116.603 97.8893C116.559 97.8446 116.522 97.7947 116.49 97.7408C115.978 96.768 116.424 96.0563 116.567 95.2678C116.71 94.4793 116.972 93.7318 117.192 92.9433C117.412 92.1549 117.647 91.4073 117.898 90.6445C118.149 89.8816 118.41 89.1085 118.723 88.3763C118.789 88.2746 118.889 88.1997 119.005 88.1651C119.122 88.1304 119.246 88.1381 119.357 88.1869C119.454 88.2206 119.539 88.2825 119.6 88.3646C119.661 88.4468 119.696 88.5454 119.7 88.6477Z" fill="#263238"/>
<path d="M119.767 89.5129L118.231 89.2621C118.001 89.2211 117.888 88.9395 117.975 88.6323C118.062 88.3251 118.323 88.1203 118.554 88.1203L120.09 88.3763C120.32 88.4121 120.433 88.6937 120.346 89.0061C120.259 89.3337 119.998 89.5539 119.767 89.5129Z" fill="#263238"/>
<path d="M122.327 77.3632C119.993 76.6874 117.289 78.6586 116.296 81.7715C115.303 84.8845 116.388 87.9565 118.723 88.6323C121.058 89.3082 123.761 87.3318 124.759 84.224C125.758 81.1162 124.667 78.039 122.327 77.3632ZM119.01 87.7414C117.038 87.1731 116.127 84.5875 116.962 81.9661C117.796 79.3446 120.074 77.6858 122.041 78.2541C124.007 78.8224 124.928 81.408 124.089 84.0294C123.249 86.6509 120.976 88.3097 119.01 87.7414Z" fill="#F99942"/>
<path opacity="0.1" d="M119.552 88.064C117.709 87.552 116.849 85.1047 117.632 82.6522C118.416 80.1997 120.551 78.633 122.399 79.1706C124.247 79.7082 125.102 82.1299 124.314 84.5824C123.525 87.0349 121.395 88.576 119.552 88.064Z" fill="#F99942"/>
<path d="M112.84 94.08L117.857 95.0169L118.369 90.8083C118.369 90.8083 114.243 91.0489 112.824 92.3443L112.84 94.08Z" fill="#FF8B7B"/>
<path d="M119.117 95.0067L120.003 92.2112C120.036 92.1177 120.035 92.0157 120.002 91.9223C119.968 91.829 119.903 91.7502 119.818 91.6992L118.385 90.793L117.873 95.0016L118.564 95.2678C118.672 95.3058 118.791 95.2996 118.894 95.2508C118.998 95.2019 119.078 95.1142 119.117 95.0067Z" fill="#FF8B7B"/>
</svg>
