<svg width="500" height="500" viewBox="0 0 500 500" fill="none" xmlns="http://www.w3.org/2000/svg">
<g opacity="0.5">
<path d="M250 442.59C357.083 442.59 443.89 437.522 443.89 431.27C443.89 425.018 357.083 419.95 250 419.95C142.918 419.95 56.1101 425.018 56.1101 431.27C56.1101 437.522 142.918 442.59 250 442.59Z" fill="#F5F5F5"/>
</g>
<path d="M147.47 243.276C156.69 233.645 155.645 217.683 145.136 207.624C134.628 197.564 118.635 197.216 109.416 206.847C100.197 216.478 101.242 232.44 111.75 242.499C122.258 252.559 138.251 252.907 147.47 243.276Z" fill="#F99942"/>
<g opacity="0.8">
<path opacity="0.8" d="M147.47 243.276C156.69 233.645 155.645 217.683 145.136 207.624C134.628 197.564 118.635 197.216 109.416 206.847C100.197 216.478 101.242 232.44 111.75 242.499C122.258 252.559 138.251 252.907 147.47 243.276Z" fill="white"/>
</g>
<path d="M116.69 209.24C116.48 209.24 116.275 209.174 116.105 209.051C115.935 208.928 115.808 208.755 115.741 208.556C115.675 208.357 115.673 208.142 115.735 207.942C115.798 207.741 115.922 207.566 116.09 207.44C119.457 205.023 123.516 203.76 127.66 203.84C127.925 203.84 128.18 203.945 128.367 204.133C128.555 204.32 128.66 204.575 128.66 204.84C128.66 205.105 128.555 205.36 128.367 205.547C128.18 205.735 127.925 205.84 127.66 205.84C123.948 205.758 120.31 206.881 117.29 209.04C117.117 209.17 116.906 209.24 116.69 209.24Z" fill="#F99942"/>
<path d="M121.42 243.64C121.256 243.639 121.094 243.598 120.95 243.52C117.885 241.881 115.226 239.578 113.167 236.778C111.108 233.978 109.701 230.754 109.05 227.34C108.415 224.387 108.444 221.33 109.136 218.39C109.828 215.449 111.165 212.7 113.05 210.34C113.22 210.136 113.464 210.007 113.728 209.983C113.993 209.959 114.256 210.04 114.46 210.21C114.664 210.38 114.793 210.624 114.817 210.888C114.841 211.153 114.76 211.416 114.59 211.62C112.887 213.756 111.681 216.245 111.06 218.905C110.439 221.565 110.418 224.331 111 227C111.599 230.121 112.887 233.068 114.769 235.629C116.651 238.189 119.08 240.297 121.88 241.8C122.076 241.906 122.23 242.073 122.32 242.276C122.41 242.48 122.429 242.707 122.375 242.923C122.321 243.138 122.197 243.33 122.022 243.467C121.848 243.604 121.632 243.679 121.41 243.68L121.42 243.64Z" fill="#F99942"/>
<path d="M131.43 246.25C129.191 246.24 126.968 245.883 124.84 245.19C124.714 245.149 124.598 245.084 124.498 244.999C124.398 244.913 124.315 244.809 124.255 244.691C124.195 244.574 124.159 244.446 124.149 244.314C124.138 244.183 124.154 244.05 124.195 243.925C124.236 243.8 124.301 243.683 124.386 243.583C124.472 243.483 124.576 243.4 124.694 243.341C124.811 243.281 124.939 243.244 125.071 243.234C125.202 243.224 125.334 243.239 125.46 243.28C131.61 245.28 137.75 244.16 142.3 240.28C144.608 238.243 146.353 235.645 147.365 232.737C148.377 229.83 148.624 226.71 148.08 223.68C148.037 223.415 148.102 223.144 148.26 222.926C148.417 222.709 148.655 222.562 148.92 222.52C149.185 222.478 149.456 222.542 149.674 222.7C149.891 222.857 150.037 223.095 150.08 223.36C150.686 226.727 150.411 230.194 149.28 233.424C148.15 236.653 146.204 239.536 143.63 241.79C140.239 244.707 135.903 246.292 131.43 246.25Z" fill="#F99942"/>
<path d="M148.25 221.12C148.038 221.119 147.831 221.051 147.661 220.925C147.49 220.799 147.364 220.622 147.3 220.42C146.38 217.58 144.874 214.966 142.879 212.745C140.884 210.524 138.445 208.748 135.72 207.53C135.476 207.424 135.284 207.225 135.187 206.978C135.089 206.73 135.094 206.454 135.2 206.21C135.306 205.966 135.505 205.774 135.752 205.677C136 205.579 136.276 205.584 136.52 205.69C139.504 207.024 142.175 208.971 144.36 211.403C146.544 213.836 148.193 216.7 149.2 219.81C149.282 220.062 149.261 220.336 149.141 220.573C149.021 220.809 148.812 220.988 148.56 221.07C148.459 221.101 148.355 221.117 148.25 221.12Z" fill="#F99942"/>
<path d="M132.49 206.4C132.414 206.411 132.336 206.411 132.26 206.4C130.755 206.05 129.215 205.872 127.67 205.87C127.405 205.87 127.15 205.765 126.963 205.577C126.775 205.39 126.67 205.135 126.67 204.87C126.67 204.605 126.775 204.351 126.963 204.163C127.15 203.975 127.405 203.87 127.67 203.87C129.354 203.875 131.031 204.073 132.67 204.46C132.935 204.491 133.177 204.625 133.343 204.834C133.509 205.043 133.585 205.31 133.555 205.575C133.524 205.84 133.39 206.083 133.181 206.249C132.972 206.415 132.705 206.491 132.44 206.46L132.49 206.4Z" fill="#F99942"/>
<path d="M114.85 230.29C114.646 230.291 114.446 230.229 114.278 230.113C114.11 229.996 113.981 229.832 113.91 229.64C112.973 227.22 112.643 224.608 112.95 222.031C113.257 219.454 114.191 216.992 115.67 214.86C117.068 212.84 118.941 211.195 121.124 210.069C123.307 208.942 125.734 208.369 128.19 208.4C128.455 208.4 128.71 208.505 128.897 208.693C129.085 208.881 129.19 209.135 129.19 209.4C129.19 209.665 129.085 209.92 128.897 210.107C128.71 210.295 128.455 210.4 128.19 210.4C126.056 210.375 123.948 210.872 122.05 211.848C120.152 212.824 118.521 214.25 117.3 216C116.003 217.878 115.186 220.045 114.923 222.312C114.66 224.579 114.958 226.875 115.79 229C115.88 229.248 115.869 229.522 115.759 229.762C115.648 230.002 115.447 230.188 115.2 230.28C115.085 230.303 114.966 230.306 114.85 230.29Z" fill="#F99942"/>
<path d="M130.71 241.71C127.713 241.61 124.784 240.787 122.172 239.313C119.561 237.838 117.344 235.755 115.71 233.24C115.589 233.019 115.555 232.76 115.616 232.516C115.677 232.271 115.829 232.059 116.04 231.921C116.251 231.783 116.506 231.73 116.755 231.773C117.003 231.815 117.227 231.95 117.38 232.15C118.832 234.387 120.802 236.242 123.122 237.558C125.442 238.874 128.045 239.612 130.71 239.71C130.975 239.71 131.23 239.815 131.417 240.003C131.605 240.19 131.71 240.445 131.71 240.71C131.71 240.975 131.605 241.23 131.417 241.417C131.23 241.605 130.975 241.71 130.71 241.71Z" fill="#F99942"/>
<path d="M134.45 241.28C134.221 241.287 133.998 241.215 133.816 241.076C133.634 240.938 133.505 240.742 133.45 240.52C133.386 240.263 133.428 239.991 133.565 239.764C133.701 239.537 133.923 239.374 134.18 239.31C142.29 237.31 144.39 230.2 143.72 224.74C142.85 217.62 137.23 210.41 128.16 210.4C127.895 210.4 127.64 210.295 127.453 210.107C127.265 209.919 127.16 209.665 127.16 209.4C127.16 209.135 127.265 208.88 127.453 208.693C127.64 208.505 127.895 208.4 128.16 208.4C138.39 208.4 144.73 216.5 145.71 224.5C146.71 232.75 142.38 239.33 134.66 241.25C134.591 241.267 134.521 241.277 134.45 241.28Z" fill="#F99942"/>
<path d="M124.1 215.92C123.91 215.919 123.725 215.863 123.566 215.761C123.406 215.658 123.28 215.512 123.2 215.34C123.087 215.1 123.075 214.825 123.165 214.576C123.255 214.326 123.44 214.123 123.68 214.01C125.213 213.332 126.874 212.991 128.55 213.01C128.815 213.01 129.07 213.115 129.257 213.303C129.445 213.49 129.55 213.745 129.55 214.01C129.55 214.275 129.445 214.53 129.257 214.717C129.07 214.905 128.815 215.01 128.55 215.01C127.17 215.011 125.806 215.308 124.55 215.88C124.405 215.928 124.251 215.941 124.1 215.92Z" fill="#F99942"/>
<path d="M130.53 237.05C127.997 237.009 125.529 236.244 123.418 234.844C121.308 233.443 119.642 231.468 118.62 229.15C116.55 224.64 117.16 219.93 120.25 216.53C120.429 216.336 120.678 216.22 120.942 216.209C121.207 216.198 121.465 216.292 121.66 216.47C121.854 216.649 121.97 216.898 121.981 217.163C121.992 217.427 121.898 217.685 121.72 217.88C120.477 219.285 119.69 221.034 119.461 222.896C119.233 224.758 119.574 226.646 120.44 228.31C121.324 230.33 122.781 232.046 124.632 233.244C126.483 234.442 128.645 235.07 130.85 235.05C132.518 235.038 134.146 234.543 135.539 233.626C136.932 232.709 138.03 231.408 138.7 229.88C139.453 228.078 139.68 226.1 139.354 224.174C139.029 222.248 138.164 220.454 136.86 219C136.774 218.9 136.71 218.785 136.669 218.66C136.628 218.535 136.613 218.403 136.623 218.272C136.633 218.141 136.669 218.014 136.728 217.897C136.788 217.78 136.87 217.675 136.97 217.59C137.07 217.505 137.185 217.44 137.31 217.399C137.435 217.359 137.567 217.343 137.698 217.353C137.829 217.363 137.956 217.399 138.073 217.459C138.19 217.518 138.294 217.6 138.38 217.7C139.932 219.441 140.958 221.587 141.339 223.888C141.719 226.19 141.439 228.552 140.53 230.7C139.709 232.574 138.365 234.171 136.658 235.3C134.952 236.428 132.956 237.039 130.91 237.06L130.53 237.05Z" fill="#F99942"/>
<path d="M134.74 216.8C134.551 216.801 134.366 216.745 134.21 216.64C132.521 215.553 130.558 214.97 128.55 214.96C128.285 214.96 128.03 214.855 127.843 214.667C127.655 214.48 127.55 214.225 127.55 213.96C127.55 213.695 127.655 213.44 127.843 213.253C128.03 213.065 128.285 212.96 128.55 212.96C130.938 212.969 133.274 213.663 135.28 214.96C135.461 215.077 135.599 215.249 135.675 215.452C135.75 215.654 135.757 215.875 135.697 216.082C135.636 216.288 135.51 216.47 135.338 216.6C135.165 216.729 134.955 216.799 134.74 216.8Z" fill="#F99942"/>
<path d="M130 232.54C128.831 232.532 127.679 232.269 126.623 231.767C125.568 231.266 124.635 230.54 123.89 229.64C122.929 228.54 122.304 227.187 122.092 225.741C121.879 224.296 122.087 222.82 122.69 221.49C123.228 220.283 124.11 219.26 125.224 218.549C126.339 217.838 127.638 217.469 128.96 217.49C129.225 217.49 129.479 217.595 129.667 217.783C129.854 217.971 129.96 218.225 129.96 218.49C129.96 218.755 129.854 219.01 129.667 219.197C129.479 219.385 129.225 219.49 128.96 219.49C128.025 219.473 127.105 219.73 126.314 220.229C125.524 220.728 124.896 221.448 124.51 222.3C124.07 223.282 123.922 224.37 124.083 225.434C124.245 226.498 124.709 227.493 125.42 228.3C126.128 229.168 127.068 229.816 128.13 230.17C129.192 230.524 130.333 230.569 131.42 230.3C132.304 230.101 133.113 229.652 133.749 229.007C134.385 228.362 134.823 227.547 135.01 226.66C135.067 226.402 135.225 226.177 135.448 226.034C135.671 225.892 135.941 225.843 136.2 225.9C136.329 225.927 136.451 225.98 136.559 226.055C136.668 226.129 136.761 226.225 136.832 226.335C136.904 226.446 136.953 226.569 136.976 226.699C137 226.828 136.998 226.961 136.97 227.09C136.705 228.342 136.088 229.491 135.192 230.404C134.295 231.316 133.156 231.953 131.91 232.24C131.287 232.416 130.646 232.516 130 232.54Z" fill="#F99942"/>
<path d="M135.82 224.62C135.599 224.63 135.382 224.567 135.201 224.44C135.02 224.314 134.886 224.131 134.82 223.92C134.421 222.667 133.641 221.57 132.589 220.781C131.537 219.992 130.265 219.552 128.95 219.52C128.685 219.52 128.43 219.415 128.243 219.227C128.055 219.04 127.95 218.785 127.95 218.52C127.95 218.255 128.055 218 128.243 217.813C128.43 217.625 128.685 217.52 128.95 217.52C130.689 217.559 132.372 218.138 133.766 219.177C135.161 220.217 136.196 221.665 136.73 223.32C136.77 223.445 136.786 223.578 136.775 223.709C136.764 223.84 136.727 223.968 136.667 224.085C136.606 224.202 136.523 224.306 136.423 224.391C136.322 224.476 136.206 224.54 136.08 224.58C135.995 224.605 135.908 224.618 135.82 224.62Z" fill="#F99942"/>
<path d="M130.27 228.38C130.005 228.38 129.75 228.275 129.563 228.087C129.375 227.9 129.27 227.645 129.27 227.38C129.27 227.115 129.375 226.86 129.563 226.673C129.75 226.485 130.005 226.38 130.27 226.38C130.406 226.38 130.541 226.353 130.667 226.299C130.792 226.245 130.905 226.166 130.999 226.066C131.093 225.967 131.165 225.85 131.212 225.721C131.258 225.593 131.278 225.456 131.27 225.32C131.275 225.125 131.242 224.932 131.171 224.75C131.101 224.568 130.996 224.402 130.861 224.262C130.726 224.121 130.564 224.009 130.386 223.931C130.207 223.854 130.015 223.813 129.82 223.81C129.673 223.814 129.529 223.847 129.395 223.907C129.261 223.967 129.14 224.053 129.04 224.16C128.937 224.281 128.86 224.421 128.812 224.572C128.764 224.723 128.746 224.882 128.76 225.04C128.768 225.171 128.75 225.303 128.707 225.427C128.664 225.552 128.597 225.666 128.509 225.765C128.422 225.863 128.316 225.943 128.198 226.001C128.08 226.059 127.951 226.092 127.82 226.1C127.688 226.108 127.557 226.09 127.433 226.047C127.308 226.004 127.194 225.937 127.095 225.85C126.997 225.762 126.916 225.656 126.859 225.538C126.801 225.42 126.768 225.291 126.76 225.16C126.724 224.74 126.775 224.318 126.908 223.919C127.042 223.519 127.256 223.151 127.537 222.838C127.818 222.524 128.16 222.271 128.542 222.094C128.924 221.918 129.339 221.821 129.76 221.81C130.218 221.811 130.671 221.903 131.092 222.081C131.514 222.259 131.897 222.518 132.218 222.845C132.539 223.171 132.792 223.558 132.962 223.983C133.132 224.408 133.216 224.862 133.21 225.32C133.218 225.719 133.146 226.116 132.999 226.487C132.852 226.857 132.632 227.195 132.353 227.48C132.073 227.765 131.74 227.992 131.372 228.146C131.004 228.301 130.609 228.38 130.21 228.38H130.27Z" fill="#F99942"/>
<path d="M156 225.05C157.22 238.98 146.91 250.27 133 250.27H131.92C145.18 249.59 154.81 238.57 153.63 225.08C152.949 218.477 149.954 212.327 145.176 207.719C140.397 203.111 134.144 200.342 127.52 199.9C127.87 199.9 128.23 199.9 128.59 199.9C142.54 199.84 154.82 211.13 156 225.05Z" fill="#F99942"/>
<g opacity="0.4">
<path opacity="0.4" d="M156 225.05C157.22 238.98 146.91 250.27 133 250.27H131.92C145.18 249.59 154.81 238.57 153.63 225.08C152.949 218.477 149.954 212.327 145.176 207.719C140.397 203.111 134.144 200.342 127.52 199.9C127.87 199.9 128.23 199.9 128.59 199.9C142.54 199.84 154.82 211.13 156 225.05Z" fill="white"/>
</g>
<path d="M176.42 102.14C176.444 102.438 176.485 102.736 176.54 103.03C176.917 104.957 177.906 106.71 179.36 108.03C181.007 109.572 183.173 110.44 185.43 110.46H269.92C270.906 110.48 271.886 110.303 272.804 109.941C273.721 109.579 274.557 109.037 275.264 108.349C275.97 107.66 276.532 106.838 276.918 105.93C277.304 105.022 277.505 104.046 277.51 103.06C277.525 102.763 277.525 102.466 277.51 102.17C277.274 99.931 276.23 97.8547 274.573 96.3304C272.917 94.8062 270.761 93.9384 268.51 93.89H184C182.94 93.8685 181.889 94.0728 180.914 94.489C179.94 94.9053 179.065 95.5241 178.348 96.3044C177.631 97.0847 177.089 98.0086 176.756 99.0147C176.424 100.021 176.309 101.086 176.42 102.14Z" fill="#F99942"/>
<path opacity="0.8" d="M176.42 102.14C176.444 102.438 176.485 102.736 176.54 103.03C176.917 104.957 177.906 106.71 179.36 108.03C181.007 109.572 183.173 110.44 185.43 110.46H269.92C270.906 110.48 271.886 110.303 272.804 109.941C273.721 109.579 274.557 109.037 275.264 108.349C275.97 107.66 276.532 106.838 276.918 105.93C277.304 105.022 277.505 104.046 277.51 103.06C277.525 102.763 277.525 102.466 277.51 102.17C277.274 99.931 276.23 97.8547 274.573 96.3304C272.917 94.8062 270.761 93.9384 268.51 93.89H184C182.94 93.8685 181.889 94.0728 180.914 94.489C179.94 94.9053 179.065 95.5241 178.348 96.3044C177.631 97.0847 177.089 98.0086 176.756 99.0147C176.424 100.021 176.309 101.086 176.42 102.14Z" fill="white"/>
<path d="M277.51 103C277.51 103.268 277.49 103.535 277.45 103.8C277.152 101.612 276.081 99.6022 274.43 98.1349C272.779 96.6676 270.658 95.8394 268.45 95.7999L178.62 95.9999C179.332 95.3072 180.174 94.7617 181.097 94.3945C182.02 94.0273 183.006 93.8456 184 93.8599H268.49C270.741 93.9084 272.897 94.7761 274.553 96.3004C276.21 97.8247 277.254 99.9009 277.49 102.14C277.51 102.426 277.517 102.713 277.51 103Z" fill="#F99942"/>
<path opacity="0.5" d="M277.51 103C277.51 103.268 277.49 103.535 277.45 103.8C277.152 101.612 276.081 99.6022 274.43 98.1349C272.779 96.6676 270.658 95.8394 268.45 95.7999L178.62 95.9999C179.332 95.3072 180.174 94.7617 181.097 94.3945C182.02 94.0273 183.006 93.8456 184 93.8599H268.49C270.741 93.9084 272.897 94.7761 274.553 96.3004C276.21 97.8247 277.254 99.9009 277.49 102.14C277.51 102.426 277.517 102.713 277.51 103Z" fill="white"/>
<path d="M263 97.8598L263.36 101.86L267.12 100.46L268.01 102.46L264.17 103.74L266.93 107.13L265.2 108.4L262.51 104.88L260.51 108.4L258.62 107.13L260.75 103.74L256.75 102.46L257.29 100.46L261.34 101.81L260.98 97.8098L263 97.8598Z" fill="#F99942"/>
<path d="M239.85 97.8598L240.21 101.86L243.97 100.46L244.87 102.46L241 103.77L243.76 107.16L242.04 108.43L239.35 104.91L237.35 108.43L235.45 107.16L237.59 103.77L233.59 102.49L234.13 100.49L238.18 101.84L237.83 97.8398L239.85 97.8598Z" fill="#F99942"/>
<path d="M216.75 97.8598L217.1 101.86L220.86 100.46L221.76 102.46L217.91 103.74L220.67 107.13L219 108.43L216.31 104.91L214.31 108.43L212.42 107.16L214.55 103.77L210.55 102.49L211.1 100.49L215.1 101.84L214.75 97.8398L216.75 97.8598Z" fill="#F99942"/>
<path d="M193.64 97.8598L193.99 101.86L197.76 100.46L198.65 102.46L194.8 103.74L197.57 107.13L195.84 108.4L193.15 104.88L191.15 108.4L189.26 107.13L191.39 103.74L187.39 102.46L187.93 100.46L191.93 101.81L191.58 97.8098L193.64 97.8598Z" fill="#F99942"/>
<path opacity="0.8" d="M397.79 127.24L393.7 174C393.542 175.492 392.846 176.876 391.742 177.892C390.637 178.908 389.2 179.487 387.7 179.52H355.23C354.527 179.524 353.832 179.379 353.188 179.096C352.545 178.813 351.969 178.398 351.497 177.877C351.025 177.356 350.669 176.741 350.45 176.073C350.232 175.405 350.157 174.699 350.23 174L354.32 127.23C354.471 125.735 355.166 124.348 356.272 123.33C357.377 122.313 358.818 121.737 360.32 121.71H392.79C393.494 121.706 394.19 121.851 394.834 122.134C395.478 122.418 396.055 122.835 396.527 123.357C396.999 123.879 397.355 124.494 397.573 125.164C397.791 125.833 397.865 126.54 397.79 127.24Z" fill="#F99942"/>
<path opacity="0.8" d="M397.79 127.24L393.7 174C393.542 175.492 392.846 176.876 391.742 177.892C390.637 178.908 389.2 179.487 387.7 179.52H355.23C354.527 179.524 353.832 179.379 353.188 179.096C352.545 178.813 351.969 178.398 351.497 177.877C351.025 177.356 350.669 176.741 350.45 176.073C350.232 175.405 350.157 174.699 350.23 174L354.32 127.23C354.471 125.735 355.166 124.348 356.272 123.33C357.377 122.313 358.818 121.737 360.32 121.71H392.79C393.494 121.706 394.19 121.851 394.834 122.134C395.478 122.418 396.055 122.835 396.527 123.357C396.999 123.879 397.355 124.494 397.573 125.164C397.791 125.833 397.865 126.54 397.79 127.24Z" fill="white"/>
<path d="M357.28 134.78H357.19C356.926 134.757 356.682 134.631 356.512 134.428C356.341 134.226 356.258 133.964 356.28 133.7L356.66 129.42C356.682 129.171 356.798 128.939 356.983 128.77C357.168 128.602 357.41 128.509 357.66 128.51H362.18C362.445 128.51 362.699 128.615 362.887 128.803C363.075 128.99 363.18 129.245 363.18 129.51C363.18 129.775 363.075 130.03 362.887 130.217C362.699 130.405 362.445 130.51 362.18 130.51H358.58L358.28 133.87C358.257 134.119 358.142 134.351 357.957 134.52C357.772 134.688 357.53 134.781 357.28 134.78Z" fill="#F99942"/>
<path d="M393.64 134.78H393.55C393.286 134.757 393.042 134.631 392.872 134.428C392.701 134.226 392.618 133.964 392.64 133.7L392.92 130.51H389.5C389.235 130.51 388.98 130.405 388.793 130.217C388.605 130.03 388.5 129.775 388.5 129.51C388.5 129.245 388.605 128.99 388.793 128.803C388.98 128.615 389.235 128.51 389.5 128.51H394C394.139 128.509 394.277 128.538 394.405 128.594C394.532 128.65 394.647 128.731 394.741 128.834C394.835 128.937 394.907 129.058 394.951 129.19C394.996 129.322 395.013 129.461 395 129.6L394.62 133.87C394.598 134.116 394.485 134.345 394.305 134.513C394.124 134.681 393.887 134.776 393.64 134.78Z" fill="#F99942"/>
<path d="M359 167.05H354.48C354.343 167.05 354.207 167.021 354.082 166.966C353.956 166.911 353.843 166.831 353.75 166.73C353.657 166.628 353.585 166.508 353.54 166.377C353.496 166.247 353.479 166.108 353.49 165.97L353.86 161.69C353.883 161.425 354.01 161.179 354.213 161.008C354.417 160.836 354.68 160.753 354.945 160.775C355.21 160.798 355.456 160.925 355.627 161.128C355.799 161.332 355.883 161.595 355.86 161.86L355.58 165.05H359C359.265 165.05 359.52 165.155 359.707 165.343C359.895 165.531 360 165.785 360 166.05C360 166.315 359.895 166.57 359.707 166.757C359.52 166.945 359.265 167.05 359 167.05Z" fill="#F99942"/>
<path d="M390.81 167.05H386.3C386.035 167.05 385.78 166.945 385.593 166.757C385.405 166.57 385.3 166.315 385.3 166.05C385.3 165.785 385.405 165.531 385.593 165.343C385.78 165.155 386.035 165.05 386.3 165.05H389.9L390.19 161.69C390.213 161.426 390.34 161.182 390.542 161.012C390.744 160.841 391.006 160.758 391.27 160.78C391.534 160.803 391.778 160.93 391.948 161.132C392.119 161.334 392.202 161.596 392.18 161.86L391.81 166.14C391.788 166.389 391.672 166.621 391.487 166.79C391.302 166.958 391.06 167.051 390.81 167.05Z" fill="#F99942"/>
<path d="M387.368 150.927C389.626 142.172 385.75 133.604 378.713 131.789C371.675 129.974 364.139 135.6 361.882 144.355C359.624 153.109 363.499 161.677 370.537 163.492C377.575 165.307 385.111 159.681 387.368 150.927Z" fill="white"/>
<path d="M378.55 172.53H365.6L366.73 159.58H379.68L378.55 172.53Z" fill="white"/>
<path d="M393.7 174C393.542 175.492 392.846 176.876 391.742 177.892C390.637 178.908 389.2 179.487 387.7 179.52H355.23C354.527 179.524 353.832 179.379 353.188 179.096C352.545 178.813 351.969 178.398 351.497 177.877C351.025 177.356 350.669 176.741 350.45 176.073C350.232 175.405 350.157 174.699 350.23 174C350.23 174 365.15 169.28 366.99 169.28H378.52L393.7 174Z" fill="white"/>
<path d="M406.33 227L403.84 255.5C403.711 256.76 403.124 257.928 402.192 258.785C401.26 259.642 400.046 260.127 398.78 260.15C398.184 260.161 397.593 260.044 397.046 259.809C396.498 259.573 396.007 259.224 395.605 258.784C395.203 258.344 394.9 257.824 394.714 257.258C394.529 256.692 394.466 256.092 394.53 255.5L397 227C397.23 224.874 397.005 222.724 396.341 220.692C395.676 218.66 394.588 216.792 393.146 215.213C391.705 213.634 389.945 212.379 387.981 211.532C386.018 210.685 383.898 210.265 381.76 210.3H371.6C367.056 210.386 362.7 212.132 359.355 215.208C356.009 218.285 353.906 222.479 353.44 227L352.44 238.64H343.14L344.14 227C345.39 212.66 358.08 201 372.41 201H382.61C385.938 200.945 389.24 201.599 392.296 202.917C395.352 204.236 398.092 206.19 400.336 208.649C402.579 211.108 404.274 214.016 405.307 217.179C406.34 220.343 406.689 223.691 406.33 227Z" fill="#F99942"/>
<g opacity="0.5">
<path opacity="0.5" d="M406.33 227L403.84 255.5C403.711 256.76 403.124 257.928 402.192 258.785C401.26 259.642 400.046 260.127 398.78 260.15C398.184 260.161 397.593 260.044 397.046 259.809C396.498 259.573 396.007 259.224 395.605 258.784C395.203 258.344 394.9 257.824 394.714 257.258C394.529 256.692 394.466 256.092 394.53 255.5L397 227C397.23 224.874 397.005 222.724 396.341 220.692C395.676 218.66 394.588 216.792 393.146 215.213C391.705 213.634 389.945 212.379 387.981 211.532C386.018 210.685 383.898 210.265 381.76 210.3H371.6C367.056 210.386 362.7 212.132 359.355 215.208C356.009 218.285 353.906 222.479 353.44 227L352.44 238.64H343.14L344.14 227C345.39 212.66 358.08 201 372.41 201H382.61C385.938 200.945 389.24 201.599 392.296 202.917C395.352 204.236 398.092 206.19 400.336 208.649C402.579 211.108 404.274 214.016 405.307 217.179C406.34 220.343 406.689 223.691 406.33 227Z" fill="white"/>
</g>
<path d="M407 254.46L402.15 310C401.974 311.722 401.172 313.32 399.897 314.49C398.621 315.66 396.961 316.322 395.23 316.35H339.69C338.876 316.365 338.069 316.206 337.322 315.884C336.574 315.563 335.904 315.086 335.355 314.485C334.807 313.884 334.392 313.174 334.14 312.4C333.887 311.627 333.802 310.809 333.89 310L338.75 254.46C338.862 253.353 339.233 252.287 339.835 251.351C340.436 250.414 341.25 249.633 342.21 249.07C343.252 248.432 344.448 248.086 345.67 248.07H401.2C402.334 248.064 403.447 248.379 404.41 248.98C405.308 249.562 406.027 250.384 406.484 251.352C406.942 252.32 407.12 253.396 407 254.46Z" fill="#F99942"/>
<path d="M349.25 278.72L363.68 300.93L411.27 253.34C411.344 253.252 411.383 253.14 411.381 253.025C411.379 252.91 411.337 252.8 411.26 252.714C411.184 252.628 411.08 252.573 410.966 252.557C410.852 252.542 410.736 252.568 410.64 252.63L365.29 288.18L356.72 274.37L349.25 278.72Z" fill="white"/>
<path d="M276 191.65L276.34 192.06L276.8 192.59C277.13 192.94 277.45 193.31 277.8 193.65C278.49 194.37 279.24 195.07 280 195.78C281.519 197.181 283.111 198.499 284.77 199.73C286.46 200.99 288.24 202.14 290.02 203.28C291.02 203.82 291.84 204.39 292.78 204.91L294.95 206.11C295.265 206.249 295.62 206.27 295.95 206.17C296.65 205.96 300.67 201.98 301.95 200.5C304.79 197.25 309.09 192.97 311.41 189.33L314 192.9C312.363 197.36 310.19 201.604 307.53 205.54C306.099 207.668 304.383 209.589 302.43 211.25C301.257 212.238 299.934 213.031 298.51 213.6C296.705 214.32 294.723 214.47 292.83 214.03C292.341 213.911 291.862 213.75 291.4 213.55L290.5 213.16L288.88 212.42C287.79 211.94 286.74 211.36 285.68 210.83C283.561 209.699 281.504 208.454 279.52 207.1C277.52 205.724 275.6 204.235 273.77 202.64C272.82 201.81 271.97 200.97 271.1 200.06C270.67 199.61 270.23 199.14 269.81 198.65L269.19 197.89C268.96 197.61 268.79 197.4 268.48 196.97L276 191.65Z" fill="#FFB573"/>
<path d="M311 189.88L315.64 179.96L320.07 187.9C320.07 187.9 317.16 192.9 314 192.9L311 189.88Z" fill="#FFB573"/>
<path d="M320.9 175.84L325.58 181.86L320.11 187.89L315.68 179.96L320.9 175.84Z" fill="#FFB573"/>
<path d="M319.27 190.63H326.64C326.848 190.629 327.048 190.55 327.201 190.41C327.354 190.269 327.45 190.077 327.47 189.87L329 172.2C329.011 172.085 328.998 171.968 328.961 171.858C328.925 171.748 328.865 171.646 328.787 171.561C328.709 171.475 328.613 171.407 328.507 171.36C328.401 171.313 328.286 171.29 328.17 171.29H320.81C320.6 171.292 320.399 171.372 320.246 171.514C320.092 171.657 319.997 171.851 319.98 172.06L318.43 189.72C318.42 189.836 318.435 189.953 318.473 190.063C318.51 190.173 318.571 190.274 318.65 190.36C318.729 190.445 318.825 190.514 318.931 190.56C319.038 190.607 319.153 190.63 319.27 190.63Z" fill="#F99942"/>
<path opacity="0.3" d="M319.35 188.86H326.73L328.11 173.07H320.73L319.35 188.86Z" fill="white"/>
<path d="M318.87 186.62L320.18 185.95C320.847 185.611 321.463 185.18 322.01 184.67L322.25 183.8C322.11 183.568 321.9 183.388 321.649 183.285C321.399 183.182 321.122 183.163 320.86 183.23L319.77 183.53L314.36 183.94L314.23 186.22L315.81 188.66H316.35C316.945 188.681 317.528 188.486 317.992 188.111C318.455 187.736 318.767 187.207 318.87 186.62Z" fill="#FFB573"/>
<path d="M266.56 182C270.31 181.32 296.76 204.25 296.76 204.25L288.92 215.75C288.92 215.75 260 195.61 260.92 190.75C261.81 185.64 261.1 183 266.56 182Z" fill="#CF7018"/>
<path opacity="0.2" d="M269.9 189.33L269.61 201.33C272.61 203.66 283.45 211.97 283.45 211.97L269.9 189.33Z" fill="black"/>
<path d="M248.93 420.31L257.8 421.18L260.62 400.61L251.74 399.74L248.93 420.31Z" fill="#FFB573"/>
<path d="M161.6 299.61L159.33 308.25L178.52 316.52L182.5 307.75L161.6 299.61Z" fill="#FFB573"/>
<path d="M264.15 423C264.913 423.094 265.686 422.925 266.34 422.52C266.481 422.397 266.591 422.242 266.661 422.068C266.73 421.894 266.757 421.707 266.74 421.52C266.74 421.403 266.708 421.289 266.648 421.188C266.588 421.088 266.503 421.006 266.4 420.95C265.33 420.31 261.71 422.03 261.3 422.22C261.261 422.238 261.228 422.268 261.207 422.306C261.185 422.344 261.176 422.387 261.18 422.43C261.186 422.474 261.205 422.515 261.236 422.548C261.266 422.58 261.306 422.602 261.35 422.61C262.269 422.825 263.207 422.956 264.15 423ZM265.76 421.21C265.899 421.199 266.039 421.231 266.16 421.3C266.202 421.322 266.237 421.355 266.262 421.396C266.287 421.436 266.3 421.483 266.3 421.53C266.311 421.655 266.292 421.781 266.245 421.897C266.198 422.014 266.124 422.117 266.03 422.2C265.48 422.67 264.03 422.71 262.03 422.33C263.209 421.741 264.481 421.359 265.79 421.2L265.76 421.21Z" fill="#F99942"/>
<path d="M261.39 422.57H261.47C262.55 422.12 264.72 420.26 264.58 419.24C264.541 419.063 264.442 418.904 264.3 418.791C264.158 418.679 263.981 418.618 263.8 418.62C263.592 418.581 263.378 418.588 263.172 418.64C262.967 418.692 262.775 418.787 262.61 418.92C261.46 419.81 261.19 422.22 261.17 422.31C261.161 422.346 261.16 422.385 261.169 422.421C261.178 422.458 261.195 422.492 261.22 422.52C261.243 422.54 261.27 422.554 261.3 422.563C261.329 422.571 261.36 422.574 261.39 422.57ZM263.6 419H263.72C264.11 419.06 264.13 419.21 264.13 419.26C264.22 419.87 262.74 421.35 261.63 421.94C261.736 420.926 262.164 419.973 262.85 419.22C263.072 419.059 263.348 418.991 263.62 419.03L263.6 419Z" fill="#F99942"/>
<path d="M257.36 417.6L249.36 417.94C249.187 417.942 249.022 418.007 248.894 418.123C248.767 418.239 248.687 418.399 248.67 418.57L246.75 429.74C246.739 429.93 246.766 430.12 246.829 430.3C246.892 430.479 246.991 430.645 247.118 430.786C247.245 430.927 247.399 431.042 247.571 431.123C247.743 431.205 247.93 431.251 248.12 431.26H248.28C251.77 431.08 253.45 430.82 257.87 430.67C260.58 430.58 268.87 431.56 272.57 430.72C276.27 429.88 275.57 426.21 273.98 426.24C268.84 426.34 262.91 422.99 259.98 419.07C259.47 418.74 257.92 417.57 257.36 417.6Z" fill="#CF7018"/>
<path d="M163.41 309.38L167.49 302.45C167.582 302.303 167.616 302.127 167.585 301.957C167.553 301.786 167.459 301.634 167.32 301.53L159 293.86C158.691 293.642 158.309 293.553 157.935 293.613C157.561 293.673 157.226 293.876 157 294.18L156.91 294.32C155.17 297.32 154.48 298.9 152.21 302.69C150.81 305.02 145.47 311.49 144.21 315.02C142.95 318.55 146.37 320.02 147.21 318.64C149.92 314.26 155.95 311.1 160.85 310.72C161.32 310.54 163.13 309.87 163.41 309.38Z" fill="#CF7018"/>
<path opacity="0.2" d="M260.62 400.61L259.17 411.22L250.29 410.35L251.73 399.75L260.62 400.61Z" fill="black"/>
<path opacity="0.2" d="M188.4 309.89L184.3 319.14L171.94 313.68L175.09 304.87L188.4 309.89Z" fill="black"/>
<path d="M272.23 192.55C277.3 201.17 271.1 208.44 265.92 234.2L232.5 234.29C233.04 220.41 232.98 209.19 227.06 181.88C226.906 181.207 226.907 180.508 227.061 179.835C227.216 179.163 227.52 178.534 227.952 177.995C228.384 177.457 228.931 177.023 229.555 176.726C230.178 176.429 230.86 176.276 231.55 176.28C234.31 176.28 237.78 176.37 241.31 176.73C246.878 177.185 252.408 178.024 257.86 179.24C260.817 179.953 263.723 180.862 266.56 181.96C268.28 182.54 270.35 187.22 272.23 192.55Z" fill="#CF7018"/>
<path d="M267.16 235.94C267.16 235.94 285.93 290.21 285.48 316.31C285.22 331.26 284.09 359.12 279.58 378.71C275.9 394.71 260.9 404.91 260.9 404.91L248.9 404.2C248.9 404.2 242.4 379.8 243.53 370.09C245.78 350.76 252.45 336.24 251.64 318.49C250.36 289.43 241.76 235.49 241.76 235.49L267.16 235.94Z" fill="#F99942"/>
<path d="M246.49 407.33L263.44 408.33L264.98 403.24L246.04 401.49L246.49 407.33Z" fill="#CF7018"/>
<path opacity="0.2" d="M248.63 345.58C248.63 345.58 248.63 345.48 248.73 345.49C259.38 346.49 266.73 331.16 264.98 310.17L259.33 256.67L248.63 345.58Z" fill="black"/>
<path d="M258.74 235.49C258.74 235.49 273.66 330.92 242.64 341.66C226.27 347.86 212.5 341.14 196.19 333.92C186.76 329.75 174.98 318.46 174.98 318.46L179.51 306.13C187.657 303.927 196.182 303.497 204.51 304.87C220.41 307.33 221.08 311.87 226.73 308.44C238.61 279.08 218.17 255.87 232.06 235.44L258.74 235.49Z" fill="#F99942"/>
<path d="M180.4 303.79L174.34 319.78L178.8 323.19L186 304.16L180.4 303.79Z" fill="#CF7018"/>
<path d="M177.9 217.56C176.39 219.79 168.73 218.28 168.73 218.28L167.1 208.79L176.51 212.56L177.9 217.56Z" fill="#FFB573"/>
<path d="M169 208.3L170.46 218.16L164.81 219C164.504 219.028 164.198 218.941 163.952 218.756C163.707 218.571 163.538 218.302 163.48 218L161.31 211C161.273 210.837 161.3 210.666 161.386 210.523C161.472 210.38 161.609 210.275 161.77 210.23L169 208.3Z" fill="#FFB573"/>
<path d="M166.47 212.77L169.69 213.34L172.74 211.05L171.56 210.21C170.76 209.641 170.198 208.797 169.98 207.84C169.753 206.837 169.616 205.817 169.57 204.79V204.45C169.532 204.148 169.395 203.868 169.182 203.651C168.969 203.434 168.691 203.293 168.39 203.25L167.59 203.84C167.09 204.93 167.45 206.2 167.39 207.05L167.26 208.7L165.97 209.26L166.47 212.77Z" fill="#FFB573"/>
<path d="M228.67 180L209.75 206L175 212.86V218.56C175 218.56 207.66 220.98 215 216.71C222.34 212.44 234.65 186.54 234.65 186.54L228.67 180Z" fill="#FFB573"/>
<path d="M228.45 130C220.51 127.34 211.3 132.27 207.67 139.81C204.04 147.35 205.31 156.6 209.4 163.9C210.63 166.11 212.1 168.19 213.11 170.5C214.232 172.79 214.478 175.412 213.8 177.87C212.98 180.26 212.14 181.79 209.18 181.41C209.18 181.41 209.18 179.77 210.31 179.97C210.31 179.97 207.91 181.3 206.97 180.43C208.06 182.11 210.97 181.5 211.9 179.72C213.29 177.07 210.73 173.48 207.73 173.51C204.73 173.54 202.29 176.58 202.39 179.57C202.515 181.066 203.047 182.498 203.929 183.713C204.81 184.927 206.007 185.877 207.39 186.46C206.579 186.594 205.747 186.455 205.024 186.066C204.3 185.677 203.726 185.06 203.39 184.31C204.75 187.87 209.19 189.44 212.94 188.74C216.69 188.04 219.86 185.64 222.8 183.21C226.8 179.93 230.89 175.78 230.8 170.65C230.71 166.82 228.25 163.53 226.18 160.3C224.11 157.07 222.3 153.13 223.62 149.54C224.73 146.49 227.75 144.65 230.41 142.79C232.33 141.46 236.23 138.49 235.77 135.68C235.3 133 230.7 130.75 228.45 130Z" fill="#CF7018"/>
<path d="M210.56 219L205.32 205.13L206.52 205.23C207.491 205.311 208.465 205.111 209.325 204.654C210.185 204.196 210.895 203.501 211.37 202.65C215.37 195.53 225.7 177.46 228.61 176.56C232.76 175.33 237.03 178.65 238.61 183.56C239.8 187.17 227.61 202.65 221.99 211.45C217 219.24 210.56 219 210.56 219Z" fill="#CF7018"/>
<path d="M159.45 313.94V314.05C159.524 314.242 159.645 314.413 159.802 314.546C159.959 314.679 160.148 314.77 160.35 314.81C160.471 314.848 160.6 314.854 160.725 314.828C160.849 314.802 160.964 314.744 161.06 314.66C161.9 313.89 161.36 310.66 161.31 310.34C161.304 310.298 161.286 310.26 161.257 310.229C161.229 310.199 161.191 310.178 161.15 310.17C161.111 310.165 161.072 310.17 161.035 310.184C160.998 310.198 160.966 310.221 160.94 310.25C160.26 311.21 159.18 312.92 159.45 313.94ZM160.99 310.94C161.17 312.22 161.25 313.94 160.78 314.36C160.731 314.387 160.676 314.401 160.62 314.401C160.564 314.401 160.509 314.387 160.46 314.36C160.326 314.335 160.2 314.276 160.095 314.188C159.99 314.101 159.909 313.988 159.86 313.86C159.68 313.32 160.06 312.22 160.99 310.92V310.94Z" fill="#F99942"/>
<path d="M161 310.76C161.26 311.84 162.28 313.68 163.18 313.9C163.344 313.933 163.514 313.909 163.663 313.833C163.812 313.757 163.931 313.632 164 313.48C164.078 313.337 164.124 313.179 164.135 313.017C164.145 312.854 164.12 312.692 164.06 312.54C163.65 311.3 161.29 310.28 161.19 310.23C161.158 310.213 161.122 310.203 161.085 310.203C161.048 310.203 161.012 310.213 160.98 310.23C160.951 310.254 160.928 310.285 160.914 310.32C160.9 310.355 160.895 310.393 160.9 310.43C160.925 310.542 160.958 310.653 161 310.76ZM163.72 312.76C163.74 312.848 163.743 312.94 163.728 313.029C163.712 313.118 163.679 313.204 163.63 313.28C163.5 313.52 163.37 313.52 163.27 313.5C162.66 313.38 161.73 311.87 161.43 310.82C162.2 311.21 163.43 311.94 163.69 312.7C163.683 312.719 163.683 312.741 163.69 312.76H163.72Z" fill="#F99942"/>
<path d="M232.38 232.6L231.45 235.85C231.33 236.1 231.62 236.36 232.04 236.35H266.54C266.87 236.35 267.14 236.18 267.16 235.98L267.48 232.73C267.48 232.51 267.22 232.31 266.86 232.32H232.96C232.847 232.311 232.734 232.333 232.632 232.382C232.53 232.431 232.443 232.506 232.38 232.6Z" fill="#F99942"/>
<path opacity="0.5" d="M232.38 232.6L231.45 235.85C231.33 236.1 231.62 236.36 232.04 236.35H266.54C266.87 236.35 267.14 236.18 267.16 235.98L267.48 232.73C267.48 232.51 267.22 232.31 266.86 232.32H232.96C232.847 232.311 232.734 232.333 232.632 232.382C232.53 232.431 232.443 232.506 232.38 232.6Z" fill="white"/>
<path d="M239 236.65H238C237.81 236.65 237.65 236.55 237.67 236.43L238.12 232.2C238.12 232.08 238.31 231.98 238.51 231.98H239.51C239.7 231.98 239.85 232.08 239.84 232.21L239.39 236.43C239.33 236.55 239.15 236.66 239 236.65Z" fill="#F99942"/>
<path d="M263.87 236.65H262.87C262.69 236.65 262.53 236.55 262.55 236.43L263 232.21C263 232.08 263.18 231.98 263.37 231.98H264.37C264.56 231.98 264.72 232.08 264.7 232.2L264.25 236.42C264.23 236.55 264.07 236.65 263.87 236.65Z" fill="#F99942"/>
<path d="M252.46 236.63H251.46C251.27 236.63 251.11 236.53 251.13 236.41L251.58 232.19C251.58 232.06 251.77 231.96 251.96 231.96H252.96C253.15 231.96 253.3 232.06 253.29 232.18L252.83 236.4C252.83 236.53 252.66 236.63 252.46 236.63Z" fill="#F99942"/>
<path d="M242.87 158.53C243.93 163.98 244.97 173.82 241.27 176.78C241.27 176.78 242.75 182.37 252.64 183.86C263.56 185.5 257.83 179.28 257.83 179.28C251.88 176.93 252.03 172.63 253.05 168.67L242.87 158.53Z" fill="#FFB573"/>
<path d="M241.31 176.73C246.587 177.065 251.832 177.793 257 178.91L264.48 181.14C265.81 183.82 263.63 189.33 257.37 190.38C257.37 190.38 241.6 192.55 236.95 176.31L241.31 176.73Z" fill="#FFB573"/>
<path opacity="0.2" d="M247 162.68L253 168.68C252.747 169.609 252.583 170.56 252.51 171.52C250.23 170.85 246.57 168.34 246.32 165.94C246.323 164.819 246.554 163.709 247 162.68Z" fill="black"/>
<path d="M236.19 151.65C238.87 160.11 239.81 163.75 245.3 167.08C253.48 172.08 263.3 166.96 263.2 157.88C263.12 149.7 258.77 137.24 249.48 135.88C247.438 135.574 245.351 135.796 243.419 136.524C241.487 137.252 239.773 138.462 238.441 140.04C237.109 141.618 236.203 143.51 235.809 145.537C235.415 147.564 235.546 149.658 236.19 151.62V151.65Z" fill="#FFB573"/>
<path d="M256.38 150.33C257.326 151.815 258.473 153.161 259.79 154.33C259.482 154.663 259.105 154.926 258.685 155.098C258.266 155.271 257.813 155.35 257.36 155.33L256.38 150.33Z" fill="#ED893E"/>
<path d="M255.43 159.85C255.769 159.813 256.103 159.746 256.43 159.65C256.456 159.644 256.48 159.633 256.501 159.618C256.523 159.603 256.541 159.584 256.555 159.561C256.569 159.539 256.578 159.514 256.582 159.488C256.587 159.462 256.586 159.436 256.58 159.41C256.566 159.358 256.532 159.313 256.485 159.285C256.439 159.257 256.383 159.248 256.33 159.26C255.476 159.495 254.58 159.528 253.711 159.354C252.843 159.18 252.028 158.806 251.33 158.26C251.289 158.219 251.233 158.196 251.175 158.196C251.117 158.196 251.061 158.219 251.02 158.26C251 158.28 250.984 158.303 250.973 158.329C250.963 158.355 250.957 158.382 250.957 158.41C250.957 158.438 250.963 158.466 250.973 158.492C250.984 158.517 251 158.541 251.02 158.56C251.634 159.054 252.34 159.423 253.097 159.644C253.853 159.865 254.646 159.935 255.43 159.85Z" fill="#CF7018"/>
<path d="M233.28 134.76C232.178 135.473 231.263 136.44 230.612 137.58C229.961 138.719 229.594 139.999 229.54 141.31C229.495 141.812 229.574 142.316 229.77 142.78C229.869 143.009 230.026 143.209 230.226 143.358C230.426 143.507 230.662 143.601 230.91 143.63C231.67 143.63 232.23 142.95 232.65 142.31L234.59 139.31C235.389 138.336 236.061 137.264 236.59 136.12C237.24 134.15 234.47 134 233.28 134.76Z" fill="#F99942"/>
<path d="M234.23 136.75C228.92 142.89 226.54 159.88 242.1 164.62C244.7 162.56 240.5 158.81 238.72 154.07C237.55 150.97 243.48 145.18 245.79 142.8C248.1 140.42 250.23 136.99 253.49 137.54C254.317 137.817 255.209 137.841 256.05 137.61C258.64 136.44 257.38 134.89 256.05 133.81C254.01 132.3 251.582 131.405 249.05 131.23C246.319 130.908 243.551 131.241 240.974 132.201C238.397 133.161 236.085 134.72 234.23 136.75Z" fill="#CF7018"/>
<path d="M251.5 134.69C257.75 139.9 249.5 140.03 245.13 143.33C240.94 146.5 243.88 151.69 236.79 154.1C231 155.79 229.66 154.77 228.06 153.65C230.043 153.307 231.857 152.318 233.219 150.836C234.581 149.355 235.414 147.465 235.59 145.46C236.08 141.66 244.36 128.65 251.5 134.69Z" fill="#CF7018"/>
<path d="M235.25 158.76C236.229 160.171 237.723 161.14 239.41 161.46C241.65 161.85 242.51 159.8 241.74 157.8C241.01 156 238.98 153.63 236.81 154.14C236.064 154.333 235.425 154.814 235.033 155.478C234.641 156.142 234.529 156.934 234.72 157.68C234.822 158.072 235.002 158.44 235.25 158.76Z" fill="#FFB573"/>
<path d="M250.43 135.22C251.64 138.3 255.13 137.89 257.71 141.11C259.3 143.11 262.42 136.94 258.17 134.51C253.92 132.08 248.53 130.4 250.43 135.22Z" fill="#CF7018"/>
<path d="M246.75 148.22C246.839 148.23 246.929 148.211 247.006 148.166C247.083 148.121 247.144 148.052 247.18 147.97C248 146.15 250.46 145.69 250.48 145.69C250.59 145.666 250.686 145.601 250.749 145.508C250.813 145.415 250.838 145.301 250.82 145.19C250.798 145.082 250.735 144.986 250.643 144.924C250.551 144.863 250.439 144.84 250.33 144.86C250.2 144.86 247.4 145.45 246.4 147.65C246.355 147.752 246.352 147.868 246.392 147.973C246.431 148.077 246.509 148.162 246.61 148.21H246.75V148.22Z" fill="#CF7018"/>
<path d="M259.75 144.54C259.823 144.545 259.896 144.53 259.962 144.497C260.027 144.463 260.082 144.413 260.12 144.35C260.152 144.305 260.174 144.254 260.186 144.2C260.198 144.146 260.198 144.091 260.188 144.037C260.178 143.983 260.157 143.931 260.126 143.885C260.096 143.839 260.056 143.8 260.01 143.77C259.456 143.386 258.818 143.142 258.15 143.056C257.481 142.971 256.802 143.048 256.17 143.28C256.117 143.301 256.069 143.332 256.03 143.372C255.99 143.412 255.958 143.459 255.938 143.512C255.917 143.565 255.907 143.621 255.909 143.677C255.912 143.734 255.925 143.789 255.95 143.84C255.994 143.942 256.076 144.022 256.18 144.064C256.283 144.105 256.398 144.103 256.5 144.06C256.997 143.886 257.529 143.834 258.051 143.907C258.573 143.98 259.069 144.176 259.5 144.48C259.578 144.518 259.663 144.538 259.75 144.54Z" fill="#CF7018"/>
<path d="M300.86 199.28L295 202.61L288.91 215.71C288.91 215.71 294.79 219.45 299.43 216.42C304.07 213.39 300.86 199.28 300.86 199.28Z" fill="#F99942"/>
<path opacity="0.5" d="M300.86 199.28L295 202.61L288.91 215.71C288.91 215.71 294.79 219.45 299.43 216.42C304.07 213.39 300.86 199.28 300.86 199.28Z" fill="white"/>
<path d="M198.39 203.33L205.32 205.33L211.89 218.92C211.89 218.92 206.61 223.81 200.89 219.14C196.61 215.6 198.39 203.33 198.39 203.33Z" fill="#F99942"/>
<g opacity="0.5">
<path opacity="0.5" d="M198.39 203.33L205.32 205.33L211.89 218.92C211.89 218.92 206.61 223.81 200.89 219.14C196.61 215.6 198.39 203.33 198.39 203.33Z" fill="white"/>
</g>
<path d="M259.35 147.93C259.83 147.84 260.35 148.38 260.46 149.12C260.57 149.86 260.3 150.54 259.82 150.62C259.34 150.7 258.82 150.17 258.71 149.43C258.6 148.69 258.87 148 259.35 147.93Z" fill="#CF7018"/>
<path d="M260.83 147.2L259.14 148.03C260.16 148.75 260.83 147.2 260.83 147.2Z" fill="#CF7018"/>
<path d="M251 149.65C251.48 149.56 252 150.1 252.11 150.84C252.22 151.58 251.95 152.26 251.47 152.34C250.99 152.42 250.47 151.89 250.36 151.15C250.25 150.41 250.5 149.74 251 149.65Z" fill="#CF7018"/>
<path d="M252.46 148.92L250.77 149.75C251.79 150.47 252.46 148.92 252.46 148.92Z" fill="#CF7018"/>
<path d="M208.66 187.91C207.719 187.916 206.785 187.739 205.91 187.39C202.81 186.12 201.37 182.9 201.91 178.54C201.928 178.409 201.996 178.29 202.101 178.209C202.206 178.129 202.339 178.093 202.47 178.11C202.536 178.117 202.599 178.138 202.656 178.17C202.714 178.203 202.764 178.246 202.804 178.299C202.844 178.351 202.874 178.411 202.89 178.475C202.907 178.538 202.91 178.605 202.9 178.67C202.38 182.54 203.6 185.38 206.25 186.46C207.788 186.987 209.453 187.013 211.007 186.535C212.561 186.057 213.924 185.1 214.9 183.8C217.41 180.46 216.59 175.72 212.68 170.8C202.44 157.95 203.12 151.12 204.57 145.72C206.67 137.88 212.82 128.9 230.22 130.63C230.353 130.643 230.475 130.709 230.559 130.812C230.643 130.915 230.683 131.047 230.67 131.18C230.657 131.313 230.591 131.435 230.488 131.519C230.385 131.603 230.253 131.643 230.12 131.63C213.43 129.97 207.53 138.53 205.53 145.99C204.09 151.39 203.53 157.7 213.46 170.19C219.46 177.72 217.03 182.65 215.7 184.41C214.868 185.488 213.802 186.363 212.582 186.969C211.363 187.576 210.022 187.897 208.66 187.91Z" fill="#CF7018"/>
</svg>
