<svg width="512" height="512" viewBox="0 0 512 512" fill="none" xmlns="http://www.w3.org/2000/svg">
<path d="M512 391.578H0V391.833H512V391.578Z" fill="#EBEBEB"/>
<path d="M454.543 401.326H420.628V401.582H454.543V401.326Z" fill="#EBEBEB"/>
<path d="M185.682 404.797H134.625V405.053H185.682V404.797Z" fill="#EBEBEB"/>
<path d="M419.604 410.839H389.366V411.095H419.604V410.839Z" fill="#EBEBEB"/>
<path d="M75.8375 409.119H53.7191V409.375H75.8375V409.119Z" fill="#EBEBEB"/>
<path d="M124.242 409.119H84.951V409.375H124.242V409.119Z" fill="#EBEBEB"/>
<path d="M339.169 398.551H243.241V398.807H339.169V398.551Z" fill="#EBEBEB"/>
<path d="M242.688 345.907H44.9638C43.4149 345.904 41.9303 345.287 40.836 344.191C39.7416 343.095 39.127 341.609 39.127 340.06V62.1158C39.1405 60.5757 39.7611 59.1032 40.8539 58.018C41.9468 56.9328 43.4237 56.3226 44.9638 56.3199H242.688C244.239 56.3199 245.726 56.936 246.822 58.0325C247.919 59.129 248.535 60.6163 248.535 62.167V340.06C248.535 341.611 247.919 343.098 246.822 344.195C245.726 345.291 244.239 345.907 242.688 345.907ZM44.9638 56.5247C43.4828 56.5275 42.0633 57.1177 41.017 58.1659C39.9707 59.2142 39.383 60.6347 39.383 62.1158V340.06C39.383 341.541 39.9707 342.962 41.017 344.01C42.0633 345.058 43.4828 345.648 44.9638 345.651H242.688C244.17 345.648 245.591 345.059 246.638 344.011C247.686 342.963 248.276 341.542 248.279 340.06V62.1158C248.276 60.6338 247.686 59.2133 246.638 58.1653C245.591 57.1174 244.17 56.5275 242.688 56.5247H44.9638Z" fill="#EBEBEB"/>
<path d="M464.189 345.907H266.455C264.905 345.904 263.42 345.288 262.324 344.192C261.228 343.096 260.611 341.61 260.608 340.06V62.1158C260.624 60.5748 261.247 59.1022 262.342 58.0173C263.436 56.9324 264.914 56.3226 266.455 56.3199H464.189C465.728 56.3253 467.202 56.9366 468.293 58.0216C469.383 59.1065 470.003 60.5775 470.016 62.1158V340.06C470.016 341.607 469.403 343.091 468.311 344.187C467.219 345.283 465.737 345.902 464.189 345.907ZM266.455 56.5247C264.973 56.5275 263.553 57.1174 262.505 58.1653C261.457 59.2133 260.867 60.6338 260.864 62.1158V340.06C260.867 341.542 261.457 342.963 262.505 344.011C263.553 345.059 264.973 345.648 266.455 345.651H464.189C465.671 345.648 467.092 345.059 468.14 344.011C469.188 342.963 469.778 341.542 469.78 340.06V62.1158C469.778 60.6338 469.188 59.2133 468.14 58.1653C467.092 57.1174 465.671 56.5275 464.189 56.5247H266.455Z" fill="#EBEBEB"/>
<path d="M111.319 219.802L389.038 219.802V84.1625L111.319 84.1625V219.802Z" fill="#E6E6E6"/>
<path d="M106.117 219.802L386.611 219.802V84.1625L106.117 84.1625V219.802Z" fill="#F0F0F0"/>
<path d="M111.319 229.468L389.038 229.468V219.802L111.319 219.802V229.468Z" fill="#E6E6E6"/>
<path d="M97.4439 229.468L377.938 229.468V219.802L97.4439 219.802V229.468Z" fill="#F0F0F0"/>
<path d="M379.331 212.531V91.4534L113.398 91.4534V212.531H379.331Z" fill="#FAFAFA"/>
<path d="M186.542 212.531L174.889 91.4534H154.716L166.369 212.531H186.542Z" fill="white"/>
<path d="M341.832 212.531L330.168 91.4534H309.996L321.659 212.531H341.832Z" fill="white"/>
<path d="M375.962 171.489C376.109 171.487 376.25 171.426 376.353 171.321C376.457 171.215 376.515 171.074 376.515 170.926V96.174C376.525 96.0944 376.519 96.0134 376.496 95.9364C376.473 95.8594 376.434 95.7883 376.381 95.7277C376.328 95.6672 376.263 95.6187 376.189 95.5855C376.116 95.5522 376.037 95.535 375.956 95.535C375.876 95.535 375.797 95.5522 375.724 95.5855C375.65 95.6187 375.585 95.6672 375.532 95.7277C375.479 95.7883 375.44 95.8594 375.417 95.9364C375.394 96.0134 375.388 96.0944 375.398 96.174V170.926C375.398 171 375.413 171.073 375.441 171.142C375.47 171.21 375.511 171.272 375.563 171.324C375.616 171.377 375.678 171.418 375.746 171.446C375.814 171.475 375.888 171.489 375.962 171.489Z" fill="#F0F0F0"/>
<path d="M162.038 212.531L150.374 91.4534H142.51L154.173 212.531H162.038Z" fill="white"/>
<path d="M114.319 212.531L114.319 91.4534H113.398L113.398 212.531H114.319Z" fill="#E6E6E6"/>
<path opacity="0.5" d="M104.397 104.653H382.116L382.781 94.2797H105.062L104.397 104.653Z" fill="#E0E0E0"/>
<path opacity="0.5" d="M104.397 121.702H382.116L382.781 111.329H105.062L104.397 121.702Z" fill="#E0E0E0"/>
<path opacity="0.5" d="M104.397 138.752H382.116L382.781 128.379H105.062L104.397 138.752Z" fill="#E0E0E0"/>
<path opacity="0.5" d="M104.397 155.802H382.116L382.781 145.428H105.062L104.397 155.802Z" fill="#E0E0E0"/>
<path opacity="0.5" d="M104.397 172.851H382.116L382.781 162.478H105.062L104.397 172.851Z" fill="#E0E0E0"/>
<path opacity="0.5" d="M104.397 189.901H382.116L382.781 179.528H105.062L104.397 189.901Z" fill="#E0E0E0"/>
<path d="M270.991 391.578H288.461V274.801H270.991V391.578Z" fill="#E6E6E6"/>
<path d="M275.579 391.578H270.991V375.675H280.402L275.579 391.578Z" fill="#F0F0F0"/>
<path d="M432.097 391.578H449.567V274.801H432.097V391.578Z" fill="#E6E6E6"/>
<path d="M270.981 381.819H436.091V274.801H270.981V381.819Z" fill="#F0F0F0"/>
<path d="M274.545 308.879H432.527V279.531H274.545V308.879Z" fill="#E6E6E6"/>
<path d="M302.08 288.655H401.92C406.405 288.655 410.685 285.041 413.768 278.641H290.232C293.315 285.041 297.595 288.655 302.08 288.655Z" fill="#F0F0F0"/>
<path d="M431.503 391.578H436.101V375.675H426.691L431.503 391.578Z" fill="#F0F0F0"/>
<path d="M274.545 342.979H432.527V313.631H274.545V342.979Z" fill="#E6E6E6"/>
<path d="M302.08 322.754H401.92C406.405 322.754 410.685 319.13 413.768 312.74H290.232C293.315 319.13 297.595 322.754 302.08 322.754Z" fill="#F0F0F0"/>
<path d="M274.545 377.078H432.527V347.73H274.545V377.078Z" fill="#E6E6E6"/>
<path d="M302.08 356.843H401.92C406.405 356.843 410.685 353.219 413.768 346.829H290.232C293.315 353.219 297.595 356.843 302.08 356.843Z" fill="#F0F0F0"/>
<path d="M155.965 238.766H135.711C133.143 238.766 131.062 240.847 131.062 243.415V251.197C131.062 253.765 133.143 255.846 135.711 255.846H155.965C158.533 255.846 160.614 253.765 160.614 251.197V243.415C160.614 240.847 158.533 238.766 155.965 238.766Z" fill="#F5F5F5"/>
<path d="M192.942 238.766H172.687C170.12 238.766 168.038 240.847 168.038 243.415V251.197C168.038 253.765 170.12 255.846 172.687 255.846H192.942C195.51 255.846 197.591 253.765 197.591 251.197V243.415C197.591 240.847 195.51 238.766 192.942 238.766Z" fill="#F5F5F5"/>
<path d="M84.4595 235.346C84.4595 235.346 85.1661 255.826 112.179 255.826C139.192 255.826 139.889 235.346 139.889 235.346H84.4595Z" fill="#F0F0F0"/>
<path d="M200.632 384.901H230.369L230.369 262.298H200.632V384.901Z" fill="#F0F0F0"/>
<path d="M78.0288 391.578H224.666V384.901H78.0288V391.578Z" fill="#F0F0F0"/>
<path d="M200.632 262.287H72.3149V384.891H200.632V262.287Z" fill="#F5F5F5"/>
<path d="M188.948 309.463H84.009V337.725H188.948V309.463Z" fill="#F0F0F0"/>
<path d="M188.948 344.033H84.009V372.296H188.948V344.033Z" fill="#F0F0F0"/>
<path d="M124.16 313.252H148.787C149.414 313.249 150.014 312.999 150.457 312.556C150.9 312.113 151.15 311.513 151.153 310.886C151.153 310.258 150.904 309.655 150.46 309.21C150.017 308.765 149.415 308.513 148.787 308.511H124.16C123.532 308.513 122.93 308.765 122.487 309.21C122.043 309.655 121.795 310.258 121.795 310.886C121.797 311.513 122.047 312.113 122.49 312.556C122.933 312.999 123.533 313.249 124.16 313.252Z" fill="#F5F5F5"/>
<path d="M188.948 274.903H84.009V303.165H188.948V274.903Z" fill="#F0F0F0"/>
<path d="M124.16 278.692H148.787C149.415 278.689 150.017 278.438 150.46 277.992C150.904 277.547 151.153 276.944 151.153 276.316C151.15 275.69 150.9 275.09 150.457 274.646C150.014 274.203 149.414 273.953 148.787 273.951H124.16C123.533 273.953 122.933 274.203 122.49 274.646C122.047 275.09 121.797 275.69 121.795 276.316C121.795 276.944 122.043 277.547 122.487 277.992C122.93 278.438 123.532 278.689 124.16 278.692Z" fill="#F5F5F5"/>
<path d="M124.16 347.812H148.787C150.094 347.812 151.153 346.753 151.153 345.446V345.436C151.153 344.13 150.094 343.071 148.787 343.071H124.16C122.854 343.071 121.795 344.13 121.795 345.436V345.446C121.795 346.753 122.854 347.812 124.16 347.812Z" fill="#F5F5F5"/>
<path d="M68.352 262.287H200.632V255.836L68.352 255.836V262.287Z" fill="#F0F0F0"/>
<path d="M234.527 255.846H200.632V262.298H234.527V255.846Z" fill="#E6E6E6"/>
<path d="M399.114 187.586L391.772 176.466C392.028 240.834 393.114 244.541 393.083 255.621H398.971C399.79 201.728 402.063 201.41 399.114 187.586Z" fill="#E0E0E0"/>
<path d="M396.288 274.79C413.174 274.79 427.418 267.94 430.879 258.673C431.764 256.137 432.976 253.727 434.483 251.505L434.749 251.126H357.806L358.072 251.505C359.587 253.725 360.802 256.135 361.687 258.673C365.148 267.94 379.392 274.79 396.288 274.79Z" fill="#FAFAFA"/>
<path d="M357.652 253.419H434.903C435.946 253.417 436.959 253.069 437.783 252.43C438.608 251.79 439.197 250.896 439.46 249.887C439.638 249.192 439.654 248.465 439.509 247.763C439.363 247.06 439.059 246.4 438.619 245.833C438.18 245.266 437.616 244.807 436.972 244.491C436.328 244.175 435.62 244.01 434.903 244.009H357.652C356.934 244.008 356.226 244.171 355.581 244.487C354.935 244.803 354.371 245.262 353.931 245.829C353.491 246.397 353.187 247.058 353.042 247.761C352.897 248.464 352.916 249.191 353.096 249.887C353.355 250.898 353.944 251.794 354.769 252.434C355.594 253.074 356.608 253.42 357.652 253.419Z" fill="#F0F0F0"/>
<path d="M396.892 178.626C395.428 161.218 377.518 159.498 344.013 151.296C360.448 198.656 402.432 244.193 396.892 178.626Z" fill="#E0E0E0"/>
<path d="M392.038 169.482C389.56 155.658 392.151 141.005 430.95 142.438C421.233 180.5 403.569 233.666 392.038 169.482Z" fill="#E0E0E0"/>
<path d="M393.8 203.233C394.977 187.31 407.245 168.417 447.406 182.006C429.548 212.91 390.953 241.664 393.8 203.233Z" fill="#E0E0E0"/>
<path d="M256 437.821C365.652 437.821 454.543 432.632 454.543 426.23C454.543 419.828 365.652 414.638 256 414.638C146.348 414.638 57.4567 419.828 57.4567 426.23C57.4567 432.632 146.348 437.821 256 437.821Z" fill="#F5F5F5"/>
<path d="M137.984 282.87H263.639V276.091H137.984V282.87Z" fill="#00A688"/>
<path opacity="0.5" d="M137.984 282.87H263.639V276.091H137.984V282.87Z" fill="white"/>
<path d="M137.984 276.091H80.4454V282.87H137.984V276.091Z" fill="#00A688"/>
<path opacity="0.5" d="M137.984 276.091H80.4454V282.87H137.984V276.091Z" fill="white"/>
<path opacity="0.2" d="M137.984 276.091H80.4454V282.87H137.984V276.091Z" fill="black"/>
<path d="M84.3366 290.099H259.768L261.274 282.87H82.8211L84.3366 290.099Z" fill="#00A688"/>
<path opacity="0.6" d="M84.3366 290.099H259.768L261.274 282.87H82.8211L84.3366 290.099Z" fill="black"/>
<path d="M241.551 290.099V422.431H237.588L232.591 290.099H241.551Z" fill="#00A688"/>
<path opacity="0.5" d="M241.551 290.099V422.431H237.588L232.591 290.099H241.551Z" fill="white"/>
<path d="M194.714 290.099V422.431H190.751L185.754 290.099H194.714Z" fill="#00A688"/>
<path opacity="0.5" d="M194.714 290.099V422.431H190.751L185.754 290.099H194.714Z" fill="white"/>
<path d="M93.1738 290.099V422.431H97.1366L102.134 290.099H93.1738Z" fill="#00A688"/>
<path opacity="0.5" d="M93.1738 290.099V422.431H97.1366L102.134 290.099H93.1738Z" fill="white"/>
<path d="M140.012 290.099V422.431H143.974L148.972 290.099H140.012Z" fill="#00A688"/>
<path opacity="0.5" d="M140.012 290.099V422.431H143.974L148.972 290.099H140.012Z" fill="white"/>
<path d="M406.845 191.017C409.088 195.389 411.146 199.752 413.123 204.216C415.099 208.681 416.932 213.197 418.621 217.846C419.021 219.034 419.451 220.181 419.819 221.399L420.106 222.3L420.26 222.751C420.26 222.904 420.413 223.283 420.475 223.539C420.698 224.547 420.773 225.582 420.7 226.611C420.551 228.263 420.14 229.881 419.482 231.404C418.942 232.705 418.295 233.958 417.546 235.151C414.769 239.479 411.355 243.363 407.419 246.671L403.64 243.21C406.178 239.468 408.407 235.527 410.307 231.424C410.708 230.501 411.05 229.554 411.331 228.588C411.548 227.864 411.642 227.11 411.607 226.355C411.608 226.195 411.57 226.036 411.494 225.894C411.494 225.894 411.494 225.946 411.443 225.823L411.29 225.423L410.972 224.625C410.563 223.601 410.081 222.495 409.631 221.42C407.787 217.129 405.791 212.838 403.753 208.548L397.609 195.697L406.845 191.017Z" fill="#FF8B7B"/>
<path d="M404.767 241.971L400.128 243.958L404.746 250.358C404.746 250.358 408.105 248.474 408.525 245.187L404.767 241.971Z" fill="#FF8B7B"/>
<path d="M393.851 247.153L398.961 251.945L404.746 250.358L400.128 243.958L393.851 247.153Z" fill="#FF8B7B"/>
<path d="M374.856 158.915C374.743 159.457 374.374 159.836 374.016 159.765C373.658 159.693 373.473 159.191 373.576 158.659C373.678 158.126 374.067 157.737 374.415 157.809C374.764 157.88 374.968 158.372 374.856 158.915Z" fill="#263238"/>
<path d="M374.426 159.846C373.444 161.366 372.259 162.745 370.903 163.942C371.216 164.284 371.6 164.553 372.028 164.73C372.456 164.907 372.918 164.988 373.381 164.966L374.426 159.846Z" fill="#ED847E"/>
<path d="M377.446 156.324C377.4 156.322 377.354 156.312 377.312 156.292C377.27 156.273 377.232 156.245 377.201 156.211C376.933 155.908 376.599 155.671 376.224 155.519C375.848 155.368 375.443 155.307 375.04 155.341C374.998 155.348 374.956 155.347 374.914 155.338C374.873 155.329 374.834 155.312 374.799 155.288C374.764 155.263 374.735 155.233 374.712 155.197C374.689 155.161 374.674 155.121 374.666 155.08C374.659 155.038 374.66 154.995 374.669 154.954C374.678 154.913 374.695 154.873 374.719 154.839C374.744 154.804 374.774 154.774 374.81 154.752C374.846 154.729 374.886 154.713 374.927 154.706C375.435 154.645 375.95 154.705 376.429 154.884C376.908 155.062 377.338 155.352 377.682 155.73C377.723 155.777 377.749 155.834 377.759 155.895C377.768 155.956 377.76 156.019 377.735 156.076C377.711 156.132 377.671 156.181 377.619 156.216C377.568 156.251 377.508 156.27 377.446 156.273V156.324Z" fill="#263238"/>
<path d="M390.226 166.502C389.202 171.5 388.27 180.644 391.762 183.982C391.762 183.982 390.4 189.041 381.123 189.041C370.883 189.041 376.248 183.982 376.248 183.982C381.809 182.651 381.665 178.514 380.703 174.633L390.226 166.502Z" fill="#FF8B7B"/>
<path d="M394.158 185.569C394.906 183.972 395.745 182.139 393.871 181.647C391.823 181.105 380.611 180.869 376.801 182.18C372.992 183.491 374.211 186.624 374.211 186.624L394.158 185.569Z" fill="#00A688"/>
<path d="M373.606 418.816C372.736 418.816 371.886 418.693 371.558 418.294C371.487 418.19 371.449 418.067 371.449 417.94C371.449 417.814 371.487 417.691 371.558 417.587C371.615 417.493 371.689 417.412 371.777 417.347C371.864 417.282 371.964 417.235 372.07 417.208C373.207 416.901 375.593 418.232 375.685 418.324C375.714 418.339 375.738 418.363 375.753 418.393C375.768 418.422 375.773 418.456 375.767 418.488C375.762 418.52 375.747 418.55 375.726 418.573C375.704 418.597 375.675 418.614 375.644 418.621C374.971 418.742 374.29 418.807 373.606 418.816ZM372.531 417.485C372.426 417.468 372.319 417.468 372.214 417.485C372.148 417.498 372.085 417.524 372.031 417.563C371.976 417.602 371.93 417.652 371.896 417.71C371.784 417.915 371.825 418.007 371.896 418.068C372.214 418.509 373.944 418.519 375.204 418.335C374.372 417.898 373.465 417.623 372.531 417.526V417.485Z" fill="#00A688"/>
<path d="M375.675 418.662H375.603C374.784 418.294 373.146 416.809 373.268 416.041C373.268 415.857 373.432 415.631 373.873 415.59C374.034 415.574 374.196 415.59 374.351 415.637C374.506 415.685 374.65 415.763 374.774 415.867C375.386 416.613 375.745 417.535 375.798 418.499C375.801 418.526 375.797 418.553 375.787 418.579C375.776 418.604 375.758 418.626 375.736 418.642L375.675 418.662ZM374.006 415.898H373.903C373.617 415.898 373.596 416.041 373.596 416.082C373.514 416.543 374.62 417.71 375.47 418.212C375.387 417.434 375.073 416.7 374.569 416.102C374.41 415.973 374.211 415.9 374.006 415.898Z" fill="#00A688"/>
<path d="M383.181 418.499H376.351L375.675 402.698H382.495L383.181 418.499Z" fill="#FF8B7B"/>
<path d="M432.374 410.972L425.585 411.709L420.465 396.36L427.254 395.622L432.374 410.972Z" fill="#FF8B7B"/>
<path d="M422.482 413.256C421.632 413.481 420.782 413.573 420.434 413.256C420.338 413.173 420.271 413.062 420.241 412.939C420.212 412.816 420.222 412.687 420.27 412.57C420.301 412.464 420.353 412.366 420.423 412.281C420.494 412.196 420.581 412.127 420.68 412.078C421.704 411.494 424.346 412.221 424.458 412.252C424.49 412.262 424.519 412.28 424.541 412.306C424.563 412.331 424.577 412.362 424.581 412.395C424.583 412.429 424.575 412.462 424.559 412.491C424.543 412.52 424.518 412.544 424.489 412.559C423.843 412.854 423.171 413.087 422.482 413.256ZM421.11 412.232C421.007 412.259 420.908 412.297 420.813 412.344C420.754 412.375 420.702 412.417 420.66 412.468C420.617 412.519 420.586 412.578 420.567 412.641C420.506 412.867 420.567 412.948 420.618 413C421.038 413.348 422.717 412.928 423.895 412.447C422.989 412.198 422.043 412.128 421.11 412.242V412.232Z" fill="#00A688"/>
<path d="M424.438 412.57C424.438 412.57 424.387 412.57 424.366 412.57C423.475 412.416 421.53 411.392 421.468 410.614C421.468 410.429 421.519 410.173 421.939 410.02C422.086 409.957 422.245 409.925 422.405 409.925C422.565 409.925 422.724 409.957 422.871 410.02C423.895 410.501 424.52 412.232 424.55 412.303C424.566 412.328 424.574 412.356 424.574 412.385C424.574 412.414 424.566 412.443 424.55 412.467L424.438 412.57ZM422.144 410.296H422.042C421.775 410.399 421.786 410.511 421.786 410.552C421.786 411.013 423.188 411.863 424.131 412.15C423.866 411.415 423.379 410.782 422.738 410.337C422.552 410.25 422.34 410.235 422.144 410.296Z" fill="#00A688"/>
<path d="M425.195 411.075L432.558 408.934C432.688 408.895 432.827 408.902 432.953 408.954C433.078 409.007 433.181 409.101 433.244 409.221L436.224 414.72C436.292 414.854 436.329 415.001 436.333 415.151C436.338 415.301 436.309 415.45 436.25 415.588C436.19 415.726 436.101 415.849 435.989 415.948C435.876 416.048 435.743 416.121 435.599 416.164C433.019 416.87 431.729 417.085 428.493 418.017C426.496 418.601 422.451 420.004 419.697 420.803C416.942 421.601 415.795 418.98 416.85 418.406C421.581 415.836 423.045 413.757 424.233 411.843C424.444 411.473 424.788 411.198 425.195 411.075Z" fill="#263238"/>
<path d="M376.392 417.71H383.846C383.983 417.709 384.116 417.756 384.222 417.842C384.328 417.928 384.402 418.047 384.43 418.181L385.782 424.243C385.811 424.393 385.806 424.547 385.768 424.695C385.729 424.843 385.659 424.98 385.56 425.097C385.462 425.213 385.339 425.307 385.2 425.37C385.061 425.433 384.91 425.465 384.758 425.462C382.065 425.411 378.184 425.257 374.804 425.257C370.852 425.257 368.66 425.472 364.063 425.472C361.257 425.472 360.489 422.636 361.656 422.4C367.002 421.233 370.094 421.11 374.712 418.304C375.204 417.95 375.787 417.744 376.392 417.71Z" fill="#263238"/>
<path d="M371.476 196.352C370.575 198.748 369.603 200.847 368.558 203.039C367.514 205.23 366.397 207.329 365.199 209.439C362.772 213.765 359.885 217.816 356.587 221.522C356.147 221.993 355.697 222.464 355.226 222.925C355 223.15 354.765 223.386 354.519 223.611L353.72 224.338C352.955 225.025 352.04 225.523 351.048 225.792C350.323 225.982 349.568 226.028 348.826 225.925C348.456 225.877 348.092 225.792 347.74 225.669C347.43 225.559 347.129 225.425 346.839 225.27C346.057 224.839 345.376 224.245 344.842 223.529C344.502 223.092 344.207 222.622 343.962 222.126C343.318 220.774 342.837 219.351 342.528 217.887C342.251 216.596 342.067 215.368 341.903 214.149C341.343 209.392 341.206 204.594 341.494 199.813L346.614 199.444C347.638 203.858 348.662 208.364 349.809 212.541C350.095 213.565 350.433 214.589 350.771 215.531C351.02 216.308 351.364 217.051 351.795 217.743C351.857 217.825 351.918 217.866 351.877 217.743C351.693 217.485 351.446 217.277 351.16 217.139C351 217.05 350.832 216.975 350.659 216.914C350.443 216.837 350.22 216.782 349.993 216.75C349.538 216.689 349.077 216.713 348.631 216.822C348.191 216.929 347.78 217.128 347.423 217.405L347.863 216.914C348.037 216.74 348.201 216.555 348.365 216.361C348.692 215.992 349.01 215.593 349.327 215.204C351.924 211.808 354.216 208.189 356.178 204.39C357.202 202.465 358.226 200.479 359.158 198.492C360.09 196.506 361.032 194.396 361.851 192.532L371.476 196.352Z" fill="#FF8B7B"/>
<path d="M403.988 185.518C410.388 186.993 416.85 205.691 416.85 205.691L403.681 215.142C403.681 215.142 400.005 206.428 396.38 198.81C392.591 190.822 397.445 184.023 403.988 185.518Z" fill="#263238"/>
<path d="M365.742 185.876C365.742 185.876 358.482 194.068 365.343 244.869H401.848C402.104 239.268 398.582 211.927 403.988 185.477C399.95 184.703 395.866 184.19 391.762 183.941C386.595 183.639 381.415 183.639 376.248 183.941C372.701 184.312 369.188 184.959 365.742 185.876Z" fill="#263238"/>
<path d="M374.784 192.788C377.078 198.932 366.592 215.194 366.592 215.194L351.007 205.824C354.975 201.302 358.383 196.316 361.155 190.976C366.203 180.47 372.941 187.843 374.784 192.788Z" fill="#263238"/>
<path d="M343.245 202.844L336.701 200.09L340.111 194.755C340.111 194.755 344.75 195.246 346.46 198.298C346.704 198.743 346.775 199.262 346.657 199.756C346.54 200.25 346.243 200.683 345.825 200.97L343.245 202.844Z" fill="#FF8B7B"/>
<path d="M331.387 196.096L337.101 192.317L340.111 194.755L336.701 200.09L331.387 196.096Z" fill="#FF8B7B"/>
<path opacity="0.2" d="M375.675 402.698L376.023 410.849H382.853L382.505 402.698H375.675Z" fill="black"/>
<path opacity="0.2" d="M427.254 395.633L420.465 396.37L423.311 404.879L429.896 403.538L427.254 395.633Z" fill="black"/>
<path d="M393.083 161.423C391.332 167.967 390.636 171.889 386.601 174.612C380.529 178.708 372.961 174.008 372.726 167.076C372.511 160.829 375.419 151.173 382.444 149.862C383.99 149.559 385.589 149.657 387.087 150.148C388.584 150.639 389.931 151.505 390.999 152.665C392.066 153.825 392.818 155.239 393.183 156.772C393.548 158.306 393.513 159.907 393.083 161.423Z" fill="#FF8B7B"/>
<path d="M397.363 157.573C398.264 157.788 400.097 157.655 401.746 153.928C404.029 148.808 394.004 150.241 394.004 150.241C394.004 150.241 403.22 146.063 395.356 142.049C390.236 139.438 388.311 141.855 387.615 143.841C387.819 141.793 387.318 139.069 382.618 140.513C375.45 142.705 380.621 148.378 380.621 148.378C379.866 147.839 378.947 147.582 378.023 147.652C377.099 147.721 376.228 148.112 375.562 148.756C373.268 150.804 375.071 153.702 377.283 156.283C375.962 158.147 375.388 160.379 378.931 161.208C379.564 161.324 380.138 161.656 380.554 162.147C380.971 162.638 381.204 163.258 381.215 163.901C381.215 167.393 381.348 170.24 383.775 172.472C386.202 174.705 394.66 171.52 394.23 166.533C396.289 166.314 398.249 165.531 399.892 164.27C404.255 160.86 399.135 158.3 397.363 157.573Z" fill="#263238"/>
<path d="M383.754 161.536C383.055 163.068 381.871 164.328 380.385 165.12C378.419 166.144 377.313 164.649 377.764 162.683C378.163 160.911 379.668 158.249 381.686 158.034C383.703 157.819 384.563 159.683 383.754 161.536Z" fill="#FF8B7B"/>
<path d="M378.296 244.869C378.296 244.869 386.038 297.042 390.287 316.549C394.947 337.951 419.441 403.476 419.441 403.476L431.729 401.213C431.729 401.213 413.419 339.681 410.757 318.495C407.88 295.496 401.838 244.838 401.838 244.838L378.296 244.869Z" fill="#00A688"/>
<path opacity="0.2" d="M383.191 263.455C392.192 265.216 391.168 298.619 390.144 315.802C387.553 303.657 383.775 280.289 381.194 263.7C381.813 263.397 382.517 263.31 383.191 263.455Z" fill="black"/>
<path d="M365.343 244.869C365.343 244.869 364.401 295.905 365.148 316.723C365.916 338.371 373.473 409.272 373.473 409.272H385.024C385.024 409.272 385.444 339.64 385.956 318.372C386.519 295.199 389.325 244.869 389.325 244.869H365.343Z" fill="#00A688"/>
<path d="M416.645 399.36C416.594 399.36 418.785 403.845 418.785 403.845L432.62 401.306L431.596 397.138L416.645 399.36Z" fill="#263238"/>
<path d="M371.251 404.664C371.2 404.664 371.907 409.467 371.907 409.467H385.976L386.355 405.176L371.251 404.664Z" fill="#263238"/>
<path d="M255.386 418.202H262.717L262.666 401.244H255.345L255.386 418.202Z" fill="#7F3E3B"/>
<path d="M216.474 418.202H223.795L226.222 401.244H218.89L216.474 418.202Z" fill="#7F3E3B"/>
<path d="M224.256 417.362H216.064C215.922 417.358 215.783 417.408 215.675 417.5C215.568 417.593 215.498 417.723 215.48 417.864L214.518 424.366C214.499 424.531 214.515 424.697 214.565 424.855C214.615 425.013 214.698 425.159 214.808 425.282C214.919 425.406 215.054 425.505 215.205 425.573C215.356 425.641 215.519 425.676 215.685 425.677C218.563 425.626 219.945 425.452 223.56 425.452C225.792 425.452 230.39 425.687 233.462 425.687C236.534 425.687 236.718 422.615 235.438 422.369C229.704 421.141 227.451 419.43 225.515 417.813C225.166 417.511 224.717 417.35 224.256 417.362Z" fill="#263238"/>
<path d="M262.625 417.362H254.628C254.484 417.36 254.344 417.409 254.233 417.501C254.122 417.593 254.048 417.722 254.024 417.864L252.928 424.366C252.902 424.52 252.908 424.678 252.947 424.83C252.985 424.982 253.055 425.124 253.151 425.247C253.247 425.37 253.368 425.472 253.506 425.546C253.644 425.62 253.796 425.665 253.952 425.677C256.829 425.626 260.997 425.452 264.622 425.452C268.861 425.452 272.538 425.687 277.504 425.687C280.515 425.687 281.211 422.615 279.941 422.369C274.155 421.12 269.466 420.987 264.376 417.925C263.852 417.587 263.248 417.393 262.625 417.362Z" fill="#263238"/>
<path d="M257.024 186.511L267.028 183.306C267.028 183.306 276.244 208.578 278.907 211.251C282.511 214.886 287.672 224.563 290.519 229.929C290.191 231.127 288.471 233.912 287.447 234.434C280.392 229.376 271.012 219.73 269.015 215.48C264.468 205.824 257.024 186.511 257.024 186.511Z" fill="#7F3E3B"/>
<path d="M254.71 181.002C251.351 187.146 263.188 207.77 263.188 207.77L278.129 200.847C278.129 200.847 274.708 191.212 270.725 182.958C266.936 175.104 258.437 174.203 254.71 181.002Z" fill="#00A688"/>
<path d="M289.884 228.905L297.421 233.482L291.84 241.142C289.512 238.783 287.558 236.082 286.044 233.134L289.884 228.905Z" fill="#7F3E3B"/>
<path d="M302.94 239.933L298.076 243.435L291.85 241.142L297.421 233.482L302.94 239.933Z" fill="#7F3E3B"/>
<path opacity="0.2" d="M262.666 401.244L262.687 409.989H255.365L255.334 401.244H262.666Z" fill="black"/>
<path opacity="0.2" d="M218.89 401.244H226.222L224.973 409.989H217.641L218.89 401.244Z" fill="black"/>
<path d="M264.284 176.845C264.284 176.845 273.5 202.025 266.271 243.22H227.092C226.673 237.199 229.734 204.81 223.232 176.476C227.55 175.639 231.918 175.084 236.308 174.817C241.857 174.494 247.42 174.494 252.969 174.817C256.787 175.204 260.57 175.881 264.284 176.845Z" fill="#00A688"/>
<path d="M243.64 176.988C243.64 176.988 250.255 185.61 248.863 243.22H256.133C256.133 243.22 258.888 193.905 250.767 176.486C248.382 176.453 245.998 176.621 243.64 176.988Z" fill="white"/>
<path opacity="0.2" d="M231.915 183.47C232.683 188.129 231.485 199.291 227.359 212.142C227.158 201.096 225.983 190.09 223.846 179.251V179.2C226.417 178.975 231.188 179.098 231.915 183.47Z" fill="black"/>
<path d="M238.1 159.242C239.288 164.598 239.974 171.243 236.308 174.817C236.308 174.817 238.592 180.255 248.596 180.255C257.7 180.255 253.01 174.817 253.01 174.817C246.999 173.394 247.122 166.001 248.064 161.833L238.1 159.242Z" fill="#7F3E3B"/>
<path d="M236.308 174.356C239.568 177.276 243.531 179.298 247.808 180.224C246.057 181.412 243.804 185.672 243.804 185.672C243.804 185.672 235.346 182.446 233.687 174.746C234.496 174.571 236.308 174.356 236.308 174.356Z" fill="#00A688"/>
<path opacity="0.3" d="M236.308 174.356C239.568 177.276 243.531 179.298 247.808 180.224C246.057 181.412 243.804 185.672 243.804 185.672C243.804 185.672 235.346 182.446 233.687 174.746C234.496 174.571 236.308 174.356 236.308 174.356Z" fill="black"/>
<path d="M252.201 174.152C252.201 174.152 254.525 179.036 250.266 180.173C252.382 181.238 254.156 182.878 255.386 184.904C255.386 184.904 258.396 178.893 254.781 174.561C254.003 174.367 252.201 174.152 252.201 174.152Z" fill="#00A688"/>
<path opacity="0.3" d="M252.201 174.152C252.201 174.152 254.525 179.036 250.266 180.173C252.382 181.238 254.156 182.878 255.386 184.904C255.386 184.904 258.396 178.893 254.781 174.561C254.003 174.367 252.201 174.152 252.201 174.152Z" fill="black"/>
<path opacity="0.2" d="M248.033 161.843C247.293 164.741 247.382 167.789 248.289 170.639C247.439 171.044 246.487 171.186 245.555 171.049C243.364 170.609 242.043 169.605 240.22 165.929C240.067 164.987 238.305 160.184 238.111 159.283L248.033 161.843Z" fill="black"/>
<path d="M256.051 153.754C256.147 154.646 256.062 155.548 255.801 156.406C255.541 157.265 255.111 158.062 254.536 158.751C252.989 160.573 250.819 159.498 250.091 157.317C249.426 155.361 249.436 152.044 251.556 151.02C252.028 150.803 252.546 150.705 253.064 150.735C253.583 150.765 254.086 150.922 254.53 151.192C254.974 151.462 255.344 151.837 255.61 152.283C255.875 152.73 256.026 153.235 256.051 153.754Z" fill="#7F3E3B"/>
<path opacity="0.2" d="M256.051 153.754C256.147 154.646 256.062 155.548 255.801 156.406C255.541 157.265 255.111 158.062 254.536 158.751C252.989 160.573 250.819 159.498 250.091 157.317C249.426 155.361 249.436 152.044 251.556 151.02C252.028 150.803 252.546 150.705 253.064 150.735C253.583 150.765 254.086 150.922 254.53 151.192C254.974 151.462 255.344 151.837 255.61 152.283C255.875 152.73 256.026 153.235 256.051 153.754Z" fill="black"/>
<path d="M233.175 153.487C236.165 160.184 236.605 163.942 241.019 166.799C247.665 171.131 255.58 165.98 255.57 158.505C255.57 151.787 252.088 141.547 244.552 140.073C236.308 138.527 229.376 144.937 233.175 153.487Z" fill="#7F3E3B"/>
<path d="M232.038 159.744C233.151 161.089 234.671 162.035 236.37 162.437C238.418 162.867 238.776 160.87 237.588 158.904C236.513 157.133 234.619 153.692 232.335 155.249C230.82 156.324 230.574 158.065 232.038 159.744Z" fill="#7F3E3B"/>
<path d="M256.225 158.546C256.451 163.072 260.977 168.786 252.856 170.086C248.618 170.754 244.282 169.824 240.691 167.475C237.138 165.274 236.083 159.068 233.329 154.911C233.206 154.757 233.267 154.573 233.411 154.388C233.576 154.2 233.785 154.054 234.019 153.963C234.253 153.873 234.506 153.84 234.755 153.868C235.005 153.896 235.244 153.984 235.452 154.125C235.66 154.265 235.831 154.454 235.95 154.675C236.872 156.283 238.592 158.628 240.906 158.771C244.449 159.048 256 153.917 256.225 158.546Z" fill="#263238"/>
<path d="M240.517 243.22C240.517 243.22 241.541 252.436 242.739 264.919C244.173 279.06 245.944 297.431 247.071 311.429C247.065 311.49 247.065 311.552 247.071 311.613C247.286 314.276 247.47 316.733 247.634 319.048C249.221 341.873 252.918 408.299 252.918 408.299H265.329C265.329 408.299 270.141 340.511 269.916 317.276C269.711 294.912 266.24 243.22 266.24 243.22H240.517Z" fill="#263238"/>
<path d="M251.904 403.937C251.843 403.937 252.088 408.555 252.088 408.555H266.424L266.813 403.364L251.904 403.937Z" fill="#00A688"/>
<path opacity="0.2" d="M242.739 264.919C244.173 279.061 245.944 297.431 247.071 311.429C247.065 311.49 247.065 311.552 247.071 311.613C249.825 298.353 252.344 286.269 249.641 266.557L242.739 264.919Z" fill="black"/>
<path d="M252.365 243.22C252.365 243.22 248.095 296.151 245.094 317.122C241.807 340.091 228.26 408.258 228.26 408.258H214.835C214.835 408.258 222.116 341.903 223.273 319.17C224.532 294.492 227.082 243.19 227.082 243.19L252.365 243.22Z" fill="#263238"/>
<path d="M214.456 403.794C214.405 403.794 214.19 408.556 214.19 408.556H228.936L229.96 403.651L214.456 403.794Z" fill="#00A688"/>
<path d="M244.736 152.381C244.879 152.955 245.289 153.405 245.668 153.283C246.047 153.16 246.231 152.658 246.098 152.084C245.965 151.511 245.545 151.06 245.166 151.183C244.787 151.306 244.603 151.798 244.736 152.381Z" fill="#263238"/>
<path d="M251.208 150.968C251.351 151.552 251.761 151.992 252.14 151.869C252.518 151.747 252.703 151.255 252.57 150.671C252.436 150.088 252.017 149.647 251.638 149.77C251.259 149.893 251.075 150.385 251.208 150.968Z" fill="#263238"/>
<path d="M249.221 151.706C250.325 153.327 251.641 154.794 253.133 156.068C252.808 156.436 252.405 156.727 251.953 156.92C251.501 157.113 251.012 157.203 250.522 157.184L249.221 151.706Z" fill="#630F0F"/>
<path d="M249.242 161.147C249.264 161.141 249.285 161.131 249.303 161.117C249.321 161.103 249.336 161.085 249.348 161.065C249.359 161.045 249.367 161.023 249.37 161C249.372 160.977 249.371 160.954 249.364 160.932C249.35 160.888 249.32 160.852 249.281 160.829C249.241 160.806 249.194 160.799 249.149 160.809C248.437 161 247.689 161.02 246.967 160.869C246.245 160.718 245.568 160.399 244.992 159.939C244.977 159.923 244.958 159.91 244.938 159.902C244.918 159.893 244.896 159.889 244.874 159.889C244.852 159.889 244.83 159.893 244.81 159.902C244.79 159.91 244.772 159.923 244.756 159.939C244.739 159.954 244.725 159.973 244.715 159.994C244.706 160.015 244.701 160.038 244.701 160.061C244.701 160.085 244.706 160.108 244.715 160.129C244.725 160.15 244.739 160.169 244.756 160.184C245.373 160.691 246.102 161.043 246.882 161.211C247.662 161.378 248.471 161.356 249.242 161.147Z" fill="#7F3E3B"/>
<path d="M242.289 150.692C242.34 150.679 242.388 150.655 242.429 150.622C242.47 150.588 242.502 150.545 242.524 150.497C242.684 150.096 242.939 149.74 243.267 149.46C243.595 149.18 243.987 148.984 244.408 148.89C244.458 148.887 244.507 148.875 244.551 148.852C244.595 148.83 244.634 148.798 244.665 148.759C244.696 148.72 244.719 148.675 244.731 148.627C244.743 148.579 244.745 148.529 244.736 148.48C244.721 148.388 244.671 148.306 244.596 148.251C244.522 148.195 244.429 148.171 244.337 148.183C243.795 148.293 243.29 148.538 242.869 148.897C242.448 149.255 242.125 149.714 241.93 150.231C241.895 150.315 241.893 150.41 241.926 150.496C241.958 150.582 242.022 150.652 242.104 150.692C242.165 150.705 242.228 150.705 242.289 150.692Z" fill="#263238"/>
<path d="M253.573 148.019C253.622 147.999 253.667 147.972 253.706 147.937C253.771 147.872 253.808 147.784 253.808 147.691C253.808 147.599 253.771 147.511 253.706 147.446C253.347 147.026 252.893 146.698 252.382 146.488C251.871 146.278 251.318 146.192 250.767 146.237C250.676 146.252 250.595 146.303 250.541 146.378C250.488 146.453 250.466 146.546 250.481 146.637C250.498 146.727 250.549 146.808 250.623 146.863C250.697 146.918 250.788 146.943 250.88 146.934C251.317 146.9 251.755 146.971 252.159 147.14C252.564 147.309 252.922 147.572 253.204 147.907C253.25 147.957 253.308 147.995 253.373 148.015C253.438 148.035 253.507 148.036 253.573 148.019Z" fill="#263238"/>
<path d="M218.993 186.061L228.71 190.556C228.71 190.556 219.341 214.436 220.938 217.805C223.119 222.403 224.829 232.612 228.383 237.548C228.198 238.746 226.765 241.644 225.812 242.248C218.04 238.06 210.371 222.792 209.951 218.204C208.988 207.749 218.993 186.061 218.993 186.061Z" fill="#7F3E3B"/>
<path d="M223.232 176.476C216.33 177.5 208.978 201.492 208.978 201.492L225.782 208.896C225.782 208.896 229.878 198.298 232.827 189.809C235.919 180.931 230.646 175.391 223.232 176.476Z" fill="#00A688"/>
<path d="M226.775 418.642C227.266 418.681 227.755 418.547 228.157 418.263C228.281 418.15 228.373 418.006 228.423 417.846C228.474 417.686 228.481 417.515 228.444 417.352C228.44 417.247 228.408 417.146 228.35 417.059C228.292 416.973 228.211 416.904 228.116 416.86C227.277 416.44 225.044 417.884 224.768 418.058C224.741 418.077 224.719 418.104 224.707 418.135C224.694 418.166 224.69 418.199 224.696 418.232C224.706 418.267 224.724 418.298 224.749 418.323C224.774 418.348 224.805 418.366 224.84 418.376C225.473 418.536 226.122 418.625 226.775 418.642ZM227.748 417.126C227.825 417.109 227.906 417.109 227.983 417.126C228.02 417.147 228.05 417.177 228.071 417.213C228.093 417.249 228.105 417.289 228.106 417.331C228.129 417.443 228.124 417.559 228.09 417.669C228.056 417.778 227.994 417.877 227.912 417.956C227.099 418.339 226.169 418.387 225.321 418.089C226.056 417.606 226.882 417.279 227.748 417.126Z" fill="#00A688"/>
<path d="M224.881 418.376C224.907 418.385 224.936 418.385 224.963 418.376C225.69 417.966 227.011 416.328 226.816 415.549C226.782 415.419 226.707 415.304 226.602 415.221C226.496 415.137 226.367 415.091 226.232 415.089C226.102 415.071 225.969 415.082 225.844 415.121C225.718 415.16 225.603 415.226 225.505 415.314C224.707 416.01 224.696 418.12 224.696 418.212C224.697 418.245 224.705 418.277 224.721 418.306C224.737 418.334 224.761 418.358 224.788 418.376H224.881ZM226.14 415.406H226.212C226.447 415.406 226.468 415.539 226.478 415.58C226.611 416.061 225.771 417.28 225.055 417.843C225.042 417.025 225.286 416.223 225.751 415.549C225.858 415.454 225.997 415.403 226.14 415.406Z" fill="#00A688"/>
<path d="M265.728 418.642C266.35 418.7 266.972 418.541 267.489 418.191C267.604 418.085 267.69 417.951 267.74 417.803C267.79 417.654 267.803 417.496 267.776 417.341C267.767 417.245 267.734 417.153 267.681 417.072C267.627 416.992 267.554 416.926 267.469 416.881C266.557 416.379 263.68 417.905 263.373 418.048C263.343 418.067 263.319 418.095 263.304 418.128C263.29 418.161 263.285 418.197 263.291 418.232C263.297 418.268 263.314 418.301 263.34 418.327C263.365 418.353 263.398 418.37 263.434 418.376C264.189 418.534 264.957 418.623 265.728 418.642ZM266.988 417.126C267.1 417.122 267.212 417.143 267.315 417.188C267.349 417.206 267.377 417.233 267.396 417.265C267.416 417.297 267.427 417.334 267.428 417.372C267.448 417.472 267.442 417.576 267.41 417.673C267.377 417.77 267.32 417.857 267.244 417.925C266.813 418.335 265.615 418.396 263.987 418.13C264.921 417.623 265.937 417.283 266.988 417.126Z" fill="#00A688"/>
<path d="M263.455 418.376H263.516C264.387 417.976 266.066 416.399 265.892 415.57C265.892 415.375 265.708 415.13 265.226 415.078C265.056 415.06 264.883 415.078 264.719 415.129C264.556 415.18 264.404 415.264 264.274 415.375C263.383 416.143 263.25 418.12 263.25 418.202C263.25 418.232 263.257 418.262 263.272 418.289C263.286 418.316 263.307 418.338 263.332 418.355C263.369 418.377 263.413 418.384 263.455 418.376ZM265.103 415.406H265.206C265.523 415.406 265.544 415.56 265.554 415.601C265.656 416.102 264.53 417.341 263.649 417.884C263.687 417.06 263.988 416.271 264.509 415.631C264.672 415.484 264.884 415.404 265.103 415.406Z" fill="#00A688"/>
<path d="M227.512 237.414L234.424 238.438L229.304 245.187C229.304 245.187 223.293 244.101 223.211 239.299L227.512 237.414Z" fill="#7F3E3B"/>
<path d="M239.258 243.128L234.342 248.996L229.325 245.176L234.424 238.428L239.258 243.128Z" fill="#7F3E3B"/>
<path d="M161.976 182.047C161.976 182.047 155.32 179.2 149.985 182.61C144.65 186.02 149.033 186.624 143.176 189.297C137.318 191.969 143.862 195.615 143.176 199.055C142.357 203.151 135.485 204.913 139.366 209.695C143.247 214.477 172.472 216.924 175.657 210.975C178.842 205.025 171.561 205.066 173.333 200.008C175.104 194.949 176.015 191.693 171.11 188.529C166.205 185.364 167.526 179.712 161.976 182.047Z" fill="#263238"/>
<path d="M182.446 225.28C182.733 226.939 183.091 228.823 183.47 230.584C183.849 232.346 184.289 234.168 184.791 235.93C185.762 239.449 186.956 242.904 188.365 246.272C188.703 247.122 189.102 247.921 189.471 248.74L189.573 248.965V249.037C189.573 249.037 189.573 249.037 189.522 249.037C189.338 248.903 189.114 248.835 188.887 248.842C188.713 248.842 188.764 248.924 188.938 248.842C189.192 248.764 189.436 248.658 189.665 248.525C190.334 248.134 190.965 247.682 191.549 247.173C194.248 244.729 196.738 242.064 198.994 239.206L202.066 241.08C200.352 244.736 198.151 248.143 195.523 251.208C194.764 252.063 193.92 252.838 193.004 253.522C192.443 253.924 191.843 254.268 191.212 254.546C190.35 254.932 189.411 255.114 188.467 255.078C187.284 255.015 186.155 254.557 185.262 253.778C184.882 253.451 184.538 253.084 184.238 252.682C184.105 252.498 183.992 252.324 183.89 252.15C183.788 251.976 183.716 251.843 183.654 251.73C183.183 250.839 182.63 249.958 182.252 249.057C180.492 245.467 179.033 241.737 177.889 237.906C177.306 236.012 176.773 234.097 176.343 232.161C175.913 230.226 175.514 228.332 175.237 226.222L182.446 225.28Z" fill="#FFB573"/>
<path d="M179.651 217.293C182.61 217.846 185.395 229.683 185.395 229.683L177.725 235.633C177.725 235.633 169.288 224.051 171.325 220.713C173.363 217.375 175.34 216.484 179.651 217.293Z" fill="#263238"/>
<path opacity="0.2" d="M179.558 219.976L182.548 231.895L178.237 235.233L179.558 219.976Z" fill="black"/>
<path d="M201.902 237.455L207.667 236.483L204.298 242.821C204.298 242.821 199.762 242.893 198.339 240.323L198.676 239.718C199.014 239.127 199.478 238.617 200.036 238.226C200.593 237.834 201.231 237.571 201.902 237.455Z" fill="#FFB573"/>
<path d="M212.644 238.182L210.647 243.876L204.298 242.821L207.667 236.483L212.644 238.182Z" fill="#FFB573"/>
<path d="M193.751 418.703L200.571 416.829L196.7 400.927L189.88 402.801L193.751 418.703Z" fill="#FFB573"/>
<path d="M200.571 415.631L192.952 417.843C192.82 417.879 192.705 417.963 192.629 418.078C192.554 418.193 192.523 418.332 192.543 418.468L193.423 424.745C193.451 424.903 193.512 425.053 193.602 425.185C193.692 425.318 193.809 425.43 193.946 425.514C194.082 425.598 194.235 425.652 194.393 425.673C194.552 425.694 194.714 425.682 194.867 425.636C197.509 424.817 198.748 424.294 202.097 423.322C204.145 422.717 210.145 421.212 212.992 420.383C215.839 419.553 215.173 416.696 213.914 416.789C208.261 417.188 204.053 416.707 201.83 415.765C201.439 415.573 200.993 415.526 200.571 415.631Z" fill="#263238"/>
<g opacity="0.2">
<path opacity="0.2" d="M196.7 400.937L198.687 409.129L191.877 411.003L189.88 402.801L196.7 400.937Z" fill="black"/>
</g>
<path d="M179.651 217.293C179.651 217.293 183.091 218.317 178.964 260.065L150.292 261.868C150.047 250.184 149.606 242.995 142.531 219.423C146.5 218.352 150.542 217.572 154.624 217.088C158.934 216.506 163.28 216.232 167.629 216.269C173.24 216.392 179.651 217.293 179.651 217.293Z" fill="#00A688"/>
<g opacity="0.4">
<path opacity="0.4" d="M179.651 217.293C179.651 217.293 183.091 218.317 178.964 260.065L150.292 261.868C150.047 250.184 149.606 242.995 142.531 219.423C146.5 218.352 150.542 217.572 154.624 217.088C158.934 216.506 163.28 216.232 167.629 216.269C173.24 216.392 179.651 217.293 179.651 217.293Z" fill="#263238"/>
</g>
<path d="M154.982 202.332C156.068 206.428 157.368 214.077 154.614 217.057C154.614 217.057 156.027 221.225 163.83 220.744C172.38 220.201 167.649 216.238 167.649 216.238C162.918 215.419 162.816 211.948 163.42 208.65L154.982 202.332Z" fill="#FFB573"/>
<path d="M154.624 217.088C158.93 216.505 163.273 216.232 167.619 216.269H168.479C169.636 218.173 170.097 221.184 167.885 225.772C167.885 225.772 156.191 221.901 152.914 217.283L154.624 217.088Z" fill="#FFB573"/>
<path opacity="0.2" d="M158.413 204.913L163.389 208.64C163.24 209.41 163.154 210.191 163.133 210.975C161.341 210.831 158.505 209.131 158.198 207.278C158.023 206.486 158.098 205.66 158.413 204.913Z" fill="black"/>
<path d="M150.016 195.369C152.064 202.076 152.75 204.964 157.02 207.657C163.43 211.702 171.233 207.749 171.254 200.561C171.254 194.099 167.956 184.177 160.655 183.071C159.047 182.81 157.398 182.966 155.866 183.523C154.334 184.079 152.971 185.019 151.904 186.251C150.838 187.484 150.105 188.969 149.774 190.565C149.444 192.16 149.527 193.814 150.016 195.369Z" fill="#FFB573"/>
<path d="M161.956 182.671C162.806 185.918 155.064 197.345 150.743 200.479C146.647 195.983 146.872 190.177 148.644 187.218C150.415 184.259 154.624 181.074 161.956 182.671Z" fill="#263238"/>
<path d="M162.509 182.774C165.939 183.747 169.533 187.812 167.629 187.648C165.724 187.484 157.45 183.818 162.509 182.774Z" fill="#263238"/>
<path d="M178.965 260.096C178.965 260.096 187.013 311.552 189.747 332.923C192.584 355.164 199.567 406.856 199.567 406.856L190.351 409.518C190.351 409.518 176.661 358.861 172.565 337.214C168.11 313.662 157.952 261.438 157.952 261.438L178.965 260.096Z" fill="#00A688"/>
<g opacity="0.2">
<path opacity="0.2" d="M178.965 260.096C178.965 260.096 187.013 311.552 189.747 332.923C192.584 355.164 199.567 406.856 199.567 406.856L190.351 409.518C190.351 409.518 176.661 358.861 172.565 337.214C168.11 313.662 157.952 261.438 157.952 261.438L178.965 260.096Z" fill="black"/>
</g>
<path d="M189.686 410.051L200.448 406.917L200.243 403.261L188.068 406.344L189.686 410.051Z" fill="#263238"/>
<path d="M172.902 415.662L179.702 417.556L181.524 402.708H174.459L172.902 415.662Z" fill="#FFB573"/>
<path opacity="0.2" d="M173.568 410.092L180.439 411.587L181.524 402.708H174.459L173.568 410.092Z" fill="black"/>
<path d="M180.009 416.87L172.227 414.73C172.091 414.694 171.947 414.703 171.818 414.756C171.688 414.81 171.58 414.905 171.51 415.027L169.114 420.71C169.041 420.85 169.001 421.005 168.998 421.163C168.995 421.321 169.029 421.478 169.096 421.62C169.163 421.763 169.263 421.888 169.387 421.986C169.511 422.084 169.655 422.152 169.81 422.185C172.544 422.881 173.312 422.994 176.742 423.936C178.842 424.509 183.849 426.947 189.276 426.947C192.174 426.947 191.867 423.875 190.648 423.619C185.19 422.431 182.333 419.523 181.023 417.587C180.78 417.236 180.421 416.983 180.009 416.87Z" fill="#263238"/>
<path d="M172.452 260.454C172.452 260.454 200.018 319.334 197.591 337.797C194.632 360.274 181.985 407.624 181.985 407.624L172.349 405.719C172.349 405.719 177.469 358.185 179.456 336.169C181.647 312.177 151.951 293.56 150.077 261.888L172.452 260.454Z" fill="#00A688"/>
<path d="M171.428 407.941L182.682 410.419L183.757 406.579L171.612 403.876L171.428 407.941Z" fill="#263238"/>
<path d="M182.323 418.724C182.908 418.941 183.548 418.963 184.146 418.785C184.294 418.728 184.426 418.637 184.533 418.52C184.639 418.402 184.717 418.262 184.76 418.109C184.794 418.027 184.802 417.936 184.784 417.848C184.766 417.761 184.722 417.68 184.658 417.618C184.013 416.942 180.736 417.526 180.367 417.618C180.332 417.627 180.299 417.645 180.272 417.67C180.245 417.695 180.225 417.726 180.214 417.761C180.205 417.793 180.208 417.826 180.221 417.856C180.234 417.886 180.257 417.91 180.285 417.925C180.936 418.259 181.619 418.526 182.323 418.724ZM184.115 417.7C184.217 417.721 184.312 417.767 184.392 417.833C184.41 417.864 184.419 417.899 184.419 417.935C184.419 417.971 184.41 418.007 184.392 418.038C184.362 418.136 184.311 418.227 184.242 418.303C184.173 418.38 184.088 418.439 183.992 418.478C183.429 418.724 182.282 418.478 180.869 417.813C181.938 417.601 183.035 417.567 184.115 417.71V417.7Z" fill="#00A688"/>
<path d="M180.316 417.905H180.388C181.35 417.772 183.552 416.809 183.747 416.031C183.747 415.846 183.747 415.59 183.327 415.416C182.998 415.286 182.632 415.286 182.303 415.416C181.421 415.954 180.711 416.732 180.255 417.659C180.239 417.683 180.231 417.712 180.231 417.741C180.231 417.77 180.239 417.798 180.255 417.823L180.316 417.905ZM183.061 415.703H183.163C183.439 415.816 183.409 415.928 183.398 415.969C183.286 416.44 181.729 417.249 180.695 417.495C181.093 416.75 181.693 416.133 182.426 415.713C182.635 415.656 182.858 415.667 183.061 415.744V415.703Z" fill="#00A688"/>
<path d="M161.301 194.611C161.434 195.174 161.833 195.553 162.191 195.461C162.55 195.369 162.744 194.857 162.611 194.304C162.478 193.751 162.089 193.372 161.72 193.454C161.352 193.536 161.167 194.058 161.301 194.611Z" fill="#263238"/>
<path d="M167.567 193.137C167.7 193.69 168.1 194.069 168.468 193.987C168.837 193.905 169.011 193.382 168.888 192.83C168.765 192.277 168.356 191.887 167.987 191.98C167.619 192.072 167.444 192.584 167.567 193.137Z" fill="#263238"/>
<path d="M167.844 192.051L169.083 191.345C169.083 191.345 168.643 192.512 167.844 192.051Z" fill="#263238"/>
<path d="M165.888 194.56C166.678 195.708 167.622 196.742 168.694 197.632C168.461 197.902 168.171 198.117 167.845 198.262C167.52 198.407 167.166 198.479 166.81 198.472L165.888 194.56Z" fill="#ED893E"/>
<path d="M164.28 201.39C164.563 201.368 164.844 201.324 165.12 201.257C165.163 201.245 165.199 201.217 165.222 201.179C165.245 201.141 165.252 201.096 165.243 201.052C165.231 201.009 165.203 200.973 165.165 200.95C165.127 200.927 165.081 200.92 165.038 200.929C164.352 201.108 163.634 201.122 162.942 200.971C162.25 200.819 161.604 200.507 161.055 200.059C161.023 200.029 160.981 200.013 160.937 200.013C160.893 200.013 160.851 200.029 160.819 200.059C160.787 200.092 160.768 200.136 160.768 200.182C160.768 200.228 160.787 200.272 160.819 200.305C161.784 201.11 163.028 201.5 164.28 201.39Z" fill="#263238"/>
<path d="M149.637 202.045C150.392 203.172 151.563 203.952 152.893 204.216C154.665 204.554 155.392 202.947 154.778 201.359C154.225 199.926 152.637 198.031 150.927 198.41C150.555 198.5 150.211 198.682 149.927 198.938C149.643 199.195 149.427 199.518 149.299 199.879C149.171 200.24 149.135 200.627 149.194 201.005C149.253 201.383 149.405 201.741 149.637 202.045Z" fill="#FFB573"/>
<path d="M158.484 193.935C158.555 193.93 158.622 193.903 158.675 193.857C158.729 193.811 158.766 193.748 158.781 193.679C158.978 193.169 159.278 192.705 159.662 192.316C160.046 191.926 160.506 191.62 161.014 191.416C161.097 191.382 161.162 191.317 161.197 191.234C161.232 191.152 161.232 191.059 161.198 190.976C161.182 190.935 161.159 190.898 161.128 190.867C161.098 190.836 161.062 190.811 161.022 190.794C160.982 190.776 160.939 190.767 160.895 190.767C160.852 190.767 160.808 190.775 160.768 190.792C160.16 191.031 159.61 191.397 159.156 191.867C158.702 192.337 158.354 192.899 158.136 193.516C158.124 193.559 158.121 193.604 158.127 193.648C158.133 193.692 158.148 193.735 158.171 193.774C158.194 193.812 158.224 193.845 158.261 193.871C158.297 193.897 158.338 193.916 158.382 193.925L158.484 193.935Z" fill="#263238"/>
<path d="M168.776 189.798C168.833 189.792 168.888 189.771 168.936 189.739C168.984 189.707 169.024 189.664 169.052 189.614C169.089 189.534 169.093 189.442 169.064 189.358C169.036 189.275 168.977 189.205 168.899 189.164C168.425 188.915 167.898 188.785 167.363 188.785C166.828 188.785 166.3 188.915 165.827 189.164C165.79 189.186 165.757 189.215 165.731 189.25C165.706 189.284 165.687 189.324 165.677 189.365C165.666 189.407 165.664 189.451 165.67 189.493C165.677 189.536 165.692 189.577 165.714 189.614C165.759 189.691 165.833 189.748 165.919 189.771C166.005 189.794 166.097 189.782 166.175 189.737C166.549 189.546 166.963 189.447 167.383 189.447C167.803 189.447 168.217 189.546 168.591 189.737C168.648 189.77 168.711 189.791 168.776 189.798Z" fill="#263238"/>
<path d="M146.913 228.977C146.289 232.725 145.674 236.565 145.101 240.364C144.527 244.163 144.015 247.972 143.718 251.74L143.616 253.092C143.588 253.388 143.588 253.686 143.616 253.983C143.725 254.81 143.882 255.631 144.087 256.44C144.538 258.171 145.111 259.973 145.736 261.765C146.954 265.37 148.398 268.984 149.832 272.589L146.678 274.268C144.468 270.938 142.467 267.474 140.687 263.895C139.77 262.056 138.96 260.165 138.261 258.232C137.876 257.178 137.571 256.096 137.349 254.997C137.214 254.322 137.146 253.636 137.144 252.949V251.382C137.247 247.34 137.537 243.35 138.015 239.411C138.465 235.459 139.039 231.567 139.807 227.625L146.913 228.977Z" fill="#FFB573"/>
<path d="M142.561 219.423C139.745 220.447 136.919 230.574 136.919 230.574L148.552 237.834C148.552 237.834 152.095 229.325 150.651 225.7C149.156 221.911 145.766 218.225 142.561 219.423Z" fill="#263238"/>
<path d="M203.469 416.072C204.06 415.954 204.594 415.64 204.984 415.181C205.064 415.052 205.112 414.905 205.125 414.754C205.137 414.603 205.114 414.451 205.056 414.31C205.023 414.224 204.969 414.147 204.9 414.086C204.83 414.026 204.747 413.983 204.657 413.962C203.694 413.747 201.39 415.918 201.124 416.164C201.104 416.193 201.094 416.226 201.094 416.261C201.094 416.296 201.104 416.33 201.124 416.358C201.137 416.39 201.16 416.416 201.19 416.432C201.22 416.449 201.254 416.455 201.288 416.451C202.025 416.396 202.756 416.269 203.469 416.072ZM204.267 414.321C204.372 414.297 204.48 414.297 204.585 414.321C204.621 414.329 204.654 414.347 204.68 414.372C204.707 414.397 204.727 414.429 204.739 414.464C204.784 414.553 204.808 414.651 204.808 414.751C204.808 414.85 204.784 414.949 204.739 415.037C204.431 415.529 203.336 415.918 201.759 416.061C202.49 415.342 203.338 414.754 204.267 414.321Z" fill="#00A688"/>
<path d="M201.288 416.451C201.288 416.451 201.339 416.451 201.349 416.451C202.056 415.857 203.233 413.932 202.885 413.194C202.803 413.02 202.609 412.836 202.148 412.918C201.984 412.947 201.827 413.009 201.688 413.1C201.549 413.192 201.43 413.311 201.339 413.45C200.946 414.368 200.857 415.387 201.083 416.358C201.087 416.387 201.099 416.415 201.117 416.438C201.135 416.461 201.158 416.48 201.185 416.492L201.288 416.451ZM202.107 413.225H202.209C202.506 413.225 202.557 413.286 202.578 413.317C202.793 413.757 202.035 415.222 201.359 415.959C201.194 415.17 201.283 414.349 201.615 413.614C201.726 413.429 201.901 413.29 202.107 413.225Z" fill="#00A688"/>
<path d="M161.567 193.536L162.816 192.84C162.816 192.84 162.376 194.028 161.567 193.536Z" fill="#263238"/>
<path d="M149.791 260.209L149.228 262.82C149.135 263.025 149.381 263.219 149.719 263.199L179.2 261.335C179.456 261.335 179.661 261.181 179.671 261.018L179.763 258.437C179.763 258.263 179.538 258.12 179.251 258.14L150.252 259.973C150.161 259.971 150.072 259.991 149.991 260.032C149.911 260.074 149.842 260.134 149.791 260.209Z" fill="#263238"/>
<path d="M153.897 263.168H153.119C152.965 263.168 152.842 263.107 152.842 263.004L152.996 259.656C152.996 259.553 153.129 259.471 153.283 259.461L154.061 259.41C154.214 259.41 154.337 259.471 154.337 259.574L154.184 262.922C154.173 263.168 154.051 263.168 153.897 263.168Z" fill="#00A688"/>
<path d="M177.019 261.755H176.251C176.087 261.755 175.964 261.683 175.974 261.591L176.128 258.232C176.128 258.14 176.261 258.048 176.415 258.038H177.193C177.347 258.038 177.469 258.099 177.469 258.191L177.316 261.55C177.306 261.653 177.152 261.745 177.019 261.755Z" fill="#00A688"/>
<path d="M165.458 262.482L164.68 262.533C164.526 262.533 164.403 262.472 164.403 262.369L164.567 259.021C164.567 258.918 164.7 258.826 164.854 258.816H165.632C165.786 258.816 165.908 258.877 165.898 258.97L165.745 262.328C165.745 262.38 165.612 262.472 165.458 262.482Z" fill="#00A688"/>
<path d="M149.647 271.903L155.453 276.859L148.357 278.026C148.357 278.026 145.562 274.463 146.739 271.77L149.647 271.903Z" fill="#FFB573"/>
<path d="M156.631 282.685L150.641 283.341L148.357 278.026L155.453 276.859L156.631 282.685Z" fill="#FFB573"/>
<path d="M311.695 169.748C339.859 169.748 362.691 146.917 362.691 118.753C362.691 90.5894 339.859 67.7581 311.695 67.7581C283.531 67.7581 260.7 90.5894 260.7 118.753C260.7 146.917 283.531 169.748 311.695 169.748Z" fill="#F99942"/>
<path d="M208.579 98.4883L207.903 97.7203C212.027 94.0429 217.358 92.0093 222.884 92.0063V93.0303C217.607 93.033 212.516 94.9755 208.579 98.4883Z" fill="#F99942"/>
<path d="M202.752 106.998L201.789 106.639C202.393 105.032 203.18 103.5 204.134 102.072L204.984 102.646C204.08 104.008 203.331 105.468 202.752 106.998Z" fill="#F99942"/>
<path d="M236.297 127.96C243.703 120.554 243.703 108.546 236.297 101.14C228.891 93.7339 216.883 93.7339 209.477 101.14C202.071 108.546 202.071 120.554 209.477 127.96C216.883 135.366 228.891 135.366 236.297 127.96Z" fill="#F99942"/>
<path d="M184.75 164.178C191.175 164.178 196.383 158.97 196.383 152.545C196.383 146.121 191.175 140.913 184.75 140.913C178.326 140.913 173.117 146.121 173.117 152.545C173.117 158.97 178.326 164.178 184.75 164.178Z" fill="#F99942"/>
<path d="M389.775 128.235C394.871 128.235 399.002 124.105 399.002 119.009C399.002 113.914 394.871 109.783 389.775 109.783C384.68 109.783 380.549 113.914 380.549 119.009C380.549 124.105 384.68 128.235 389.775 128.235Z" fill="#F99942"/>
<path d="M338.831 109.906C338.835 105.027 337.523 100.237 335.033 96.0401C332.543 91.8438 328.968 88.3963 324.684 86.0608C320.4 83.7253 315.565 82.5882 310.689 82.7692C305.813 82.9501 301.076 84.4424 296.977 87.089C292.877 89.7356 289.568 93.4386 287.396 97.8079C285.224 102.177 284.27 107.051 284.635 111.917C285.001 116.783 286.671 121.46 289.471 125.456C292.27 129.453 296.096 132.62 300.544 134.625V139.428H322.847V134.625C327.608 132.482 331.65 129.009 334.486 124.624C337.321 120.239 338.83 115.128 338.831 109.906Z" fill="white"/>
<path opacity="0.2" d="M320.922 152.545H302.469L300.544 139.428H322.847L320.922 152.545Z" fill="black"/>
<path opacity="0.4" d="M316.252 154.726H307.139L306.196 152.545H317.194L316.252 154.726Z" fill="black"/>
<path d="M308.797 116.091C308.169 114.272 307.116 112.629 305.725 111.299C302.52 108.104 298.557 107.028 296.765 108.851C295.844 109.773 295.629 111.258 296.171 113.019C296.8 114.835 297.853 116.475 299.243 117.801C301.384 119.951 303.862 121.139 305.818 121.139C306.271 121.144 306.722 121.068 307.149 120.914L308.961 139.489C308.977 139.658 309.055 139.814 309.18 139.928C309.305 140.042 309.468 140.104 309.637 140.104H309.699C309.788 140.096 309.876 140.07 309.956 140.028C310.035 139.987 310.106 139.929 310.163 139.859C310.221 139.79 310.263 139.709 310.289 139.623C310.315 139.536 310.323 139.446 310.313 139.356L308.419 119.992C308.795 119.422 309.026 118.769 309.093 118.089C309.159 117.409 309.057 116.723 308.797 116.091ZM300.206 116.838C298.984 115.664 298.054 114.219 297.492 112.619C297.287 112.168 297.203 111.67 297.249 111.176C297.296 110.682 297.472 110.209 297.759 109.803C297.955 109.63 298.184 109.498 298.432 109.414C298.679 109.329 298.941 109.295 299.203 109.312C300.667 109.312 302.797 110.264 304.794 112.261C306.02 113.432 306.95 114.878 307.507 116.48C307.715 116.931 307.8 117.429 307.753 117.924C307.707 118.418 307.53 118.892 307.241 119.296C306.176 120.402 303.104 119.675 300.206 116.838Z" fill="#F99942"/>
<path d="M326.595 108.851C325.663 107.919 324.188 107.704 322.427 108.247C320.628 108.904 318.995 109.947 317.642 111.302C316.288 112.657 315.248 114.291 314.593 116.091C314.334 116.722 314.232 117.407 314.296 118.087C314.36 118.767 314.589 119.421 314.962 119.992L313.068 139.356C313.05 139.537 313.105 139.717 313.22 139.857C313.336 139.997 313.502 140.086 313.682 140.104H313.743C313.912 140.104 314.076 140.042 314.201 139.928C314.326 139.814 314.404 139.658 314.419 139.489L316.232 120.914C316.662 121.069 317.116 121.145 317.573 121.139C319.519 121.139 321.997 119.951 324.137 117.801C325.528 116.475 326.581 114.835 327.209 113.019C327.731 111.258 327.516 109.773 326.595 108.851ZM325.898 112.62C325.34 114.221 324.41 115.666 323.185 116.838C320.348 119.675 317.256 120.402 316.15 119.296C315.861 118.892 315.684 118.418 315.637 117.924C315.591 117.429 315.676 116.931 315.884 116.48C316.444 114.88 317.374 113.435 318.597 112.261C319.772 111.034 321.221 110.104 322.826 109.548C323.273 109.401 323.739 109.322 324.209 109.312C324.728 109.289 325.237 109.465 325.632 109.804C325.925 110.21 326.103 110.687 326.15 111.186C326.197 111.684 326.11 112.186 325.898 112.64V112.62Z" fill="#F99942"/>
</svg>
