<svg width="306" height="306" viewBox="0 0 306 306" fill="none" xmlns="http://www.w3.org/2000/svg">
<path d="M153 261.667C218.534 261.667 271.661 258.565 271.661 254.739C271.661 250.913 218.534 247.811 153 247.811C87.4655 247.811 34.3393 250.913 34.3393 254.739C34.3393 258.565 87.4655 261.667 153 261.667Z" fill="#F5F5F5"/>
<path d="M82.467 169.059H157.566V165.007H82.467V169.059Z" fill="#F99942"/>
<path opacity="0.5" d="M82.467 169.059H157.566V165.007H82.467V169.059Z" fill="white"/>
<path d="M82.467 165.007H48.0787V169.059H82.467V165.007Z" fill="#F99942"/>
<path opacity="0.5" d="M82.467 165.007H48.0787V169.059H82.467V165.007Z" fill="white"/>
<path opacity="0.2" d="M82.467 165.007H48.0787V169.059H82.467V165.007Z" fill="black"/>
<path d="M50.4043 173.379H155.252L156.152 169.059H49.4986L50.4043 173.379Z" fill="#F99942"/>
<path opacity="0.6" d="M50.4043 173.379H155.252L156.152 169.059H49.4986L50.4043 173.379Z" fill="black"/>
<path d="M144.365 173.379V252.468H141.996L139.01 173.379H144.365Z" fill="#F99942"/>
<path opacity="0.5" d="M144.365 173.379V252.468H141.996L139.01 173.379H144.365Z" fill="white"/>
<path d="M116.372 173.379V252.468H114.003L111.017 173.379H116.372Z" fill="#F99942"/>
<path opacity="0.5" d="M116.372 173.379V252.468H114.003L111.017 173.379H116.372Z" fill="white"/>
<path d="M55.6859 173.379V252.468H58.0543L61.0409 173.379H55.6859Z" fill="#F99942"/>
<path opacity="0.5" d="M55.6859 173.379V252.468H58.0543L61.0409 173.379H55.6859Z" fill="white"/>
<path d="M83.6788 173.379V252.468H86.0472L89.0338 173.379H83.6788Z" fill="#F99942"/>
<path opacity="0.5" d="M83.6788 173.379V252.468H86.0472L89.0338 173.379H83.6788Z" fill="white"/>
<path d="M243.154 114.163C244.494 116.776 245.724 119.383 246.905 122.051C248.086 124.72 249.182 127.419 250.192 130.197C250.43 130.907 250.687 131.592 250.908 132.321L251.079 132.859L251.171 133.128C251.171 133.22 251.263 133.447 251.299 133.6C251.433 134.202 251.478 134.82 251.434 135.436C251.345 136.423 251.099 137.39 250.706 138.3C250.383 139.077 249.996 139.827 249.549 140.54C247.889 143.126 245.849 145.447 243.496 147.425L241.238 145.356C242.755 143.12 244.087 140.764 245.222 138.312C245.462 137.761 245.667 137.194 245.834 136.617C245.964 136.185 246.02 135.734 246 135.283C246 135.187 245.977 135.092 245.932 135.007C245.932 135.007 245.932 135.038 245.902 134.964L245.81 134.726L245.62 134.248C245.375 133.636 245.088 132.975 244.818 132.333C243.717 129.769 242.523 127.204 241.305 124.64L237.633 116.959L243.154 114.163Z" fill="#FF8B7B"/>
<path d="M241.911 144.616L239.139 145.803L241.899 149.628C241.899 149.628 243.906 148.502 244.157 146.537L241.911 144.616Z" fill="#FF8B7B"/>
<path d="M235.387 147.712L238.441 150.577L241.899 149.628L239.139 145.803L235.387 147.712Z" fill="#FF8B7B"/>
<path d="M224.035 94.9764C223.968 95.3007 223.747 95.5272 223.533 95.4843C223.319 95.4415 223.209 95.1416 223.27 94.8234C223.331 94.5051 223.564 94.2726 223.772 94.3154C223.98 94.3582 224.102 94.652 224.035 94.9764Z" fill="#263238"/>
<path d="M223.778 95.5332C223.191 96.4416 222.483 97.2653 221.673 97.9812C221.86 98.1854 222.089 98.3461 222.345 98.4518C222.601 98.5576 222.877 98.6058 223.154 98.5932L223.778 95.5332Z" fill="#ED847E"/>
<path d="M225.583 93.4281C225.555 93.4272 225.528 93.4208 225.503 93.4092C225.478 93.3977 225.455 93.3812 225.436 93.3608C225.277 93.1793 225.077 93.0377 224.852 92.9473C224.628 92.857 224.386 92.8204 224.145 92.8406C224.12 92.845 224.095 92.8444 224.07 92.839C224.045 92.8335 224.022 92.8233 224.001 92.8088C223.98 92.7943 223.963 92.7759 223.949 92.7545C223.935 92.7332 223.926 92.7094 223.922 92.6845C223.917 92.6596 223.918 92.634 223.923 92.6093C223.929 92.5846 223.939 92.5612 223.953 92.5405C223.968 92.5197 223.986 92.5021 224.008 92.4884C224.029 92.4748 224.053 92.4655 224.078 92.4611C224.381 92.4244 224.689 92.4608 224.975 92.5673C225.261 92.6738 225.518 92.8472 225.724 93.0731C225.748 93.101 225.764 93.1352 225.77 93.1718C225.776 93.2084 225.771 93.2458 225.756 93.2797C225.741 93.3137 225.717 93.3427 225.687 93.3636C225.656 93.3844 225.62 93.3962 225.583 93.3975V93.4281Z" fill="#263238"/>
<path d="M233.221 99.5112C232.609 102.498 232.052 107.963 234.139 109.958C234.139 109.958 233.325 112.981 227.78 112.981C221.66 112.981 224.867 109.958 224.867 109.958C228.19 109.162 228.105 106.69 227.529 104.371L233.221 99.5112Z" fill="#FF8B7B"/>
<path d="M235.571 110.907C236.018 109.952 236.52 108.856 235.4 108.563C234.176 108.238 227.474 108.098 225.198 108.881C222.921 109.664 223.649 111.537 223.649 111.537L235.571 110.907Z" fill="#F99942"/>
<path d="M223.288 250.308C222.768 250.308 222.26 250.235 222.064 249.996C222.022 249.934 221.999 249.86 221.999 249.785C221.999 249.709 222.022 249.636 222.064 249.574C222.098 249.518 222.142 249.469 222.195 249.43C222.247 249.391 222.307 249.363 222.37 249.347C223.05 249.164 224.476 249.959 224.531 250.014C224.548 250.023 224.562 250.038 224.571 250.055C224.58 250.073 224.583 250.093 224.58 250.112C224.576 250.131 224.568 250.149 224.555 250.163C224.542 250.177 224.525 250.187 224.506 250.192C224.104 250.264 223.697 250.303 223.288 250.308ZM222.646 249.513C222.583 249.503 222.519 249.503 222.456 249.513C222.417 249.52 222.379 249.536 222.346 249.559C222.314 249.583 222.286 249.612 222.266 249.647C222.199 249.77 222.223 249.825 222.266 249.861C222.456 250.125 223.49 250.131 224.243 250.02C223.746 249.759 223.204 249.595 222.646 249.537V249.513Z" fill="#F99942"/>
<path d="M224.524 250.216H224.482C223.992 249.996 223.013 249.109 223.086 248.65C223.086 248.539 223.184 248.405 223.447 248.38C223.544 248.37 223.641 248.38 223.733 248.408C223.826 248.437 223.912 248.483 223.986 248.546C224.352 248.991 224.566 249.542 224.598 250.118C224.6 250.135 224.598 250.151 224.591 250.166C224.585 250.181 224.574 250.194 224.561 250.204L224.524 250.216ZM223.527 248.564H223.466C223.294 248.564 223.282 248.65 223.282 248.674C223.233 248.949 223.894 249.647 224.402 249.947C224.353 249.482 224.165 249.043 223.863 248.686C223.768 248.609 223.65 248.566 223.527 248.564Z" fill="#F99942"/>
<path d="M229.01 250.118H224.928L224.524 240.675H228.6L229.01 250.118Z" fill="#FF8B7B"/>
<path d="M258.411 245.62L254.353 246.061L251.293 236.887L255.351 236.446L258.411 245.62Z" fill="#FF8B7B"/>
<path d="M252.499 246.985C251.991 247.12 251.483 247.175 251.275 246.985C251.218 246.935 251.177 246.869 251.16 246.796C251.142 246.722 251.148 246.645 251.177 246.575C251.195 246.512 251.227 246.453 251.269 246.402C251.311 246.352 251.363 246.311 251.422 246.281C252.034 245.932 253.613 246.367 253.68 246.385C253.699 246.391 253.716 246.402 253.729 246.417C253.742 246.432 253.751 246.451 253.754 246.471C253.755 246.491 253.75 246.511 253.74 246.528C253.731 246.545 253.716 246.559 253.698 246.569C253.313 246.745 252.911 246.884 252.499 246.985ZM251.679 246.373C251.618 246.39 251.558 246.412 251.501 246.44C251.466 246.458 251.435 246.484 251.41 246.514C251.385 246.545 251.366 246.58 251.354 246.618C251.318 246.752 251.354 246.801 251.385 246.832C251.636 247.04 252.64 246.789 253.343 246.501C252.802 246.353 252.236 246.311 251.679 246.379V246.373Z" fill="#F99942"/>
<path d="M253.668 246.575C253.668 246.575 253.637 246.575 253.625 246.575C253.093 246.483 251.93 245.871 251.893 245.406C251.893 245.296 251.924 245.143 252.175 245.051C252.263 245.013 252.357 244.994 252.453 244.994C252.549 244.994 252.643 245.013 252.732 245.051C253.344 245.339 253.717 246.373 253.735 246.416C253.744 246.43 253.749 246.447 253.749 246.465C253.749 246.482 253.744 246.499 253.735 246.514L253.668 246.575ZM252.297 245.216H252.236C252.077 245.277 252.083 245.345 252.083 245.369C252.083 245.645 252.921 246.153 253.484 246.324C253.326 245.885 253.035 245.506 252.652 245.241C252.541 245.188 252.414 245.18 252.297 245.216Z" fill="#F99942"/>
<path d="M254.121 245.681L258.521 244.402C258.599 244.379 258.682 244.383 258.757 244.414C258.832 244.445 258.893 244.502 258.931 244.574L260.712 247.86C260.752 247.94 260.775 248.028 260.777 248.118C260.78 248.207 260.763 248.297 260.727 248.379C260.692 248.461 260.638 248.535 260.571 248.594C260.504 248.654 260.425 248.698 260.339 248.723C258.796 249.145 258.025 249.274 256.091 249.831C254.898 250.18 252.481 251.018 250.834 251.495C249.188 251.973 248.503 250.406 249.133 250.063C251.96 248.527 252.836 247.285 253.545 246.14C253.672 245.92 253.877 245.755 254.121 245.681Z" fill="#263238"/>
<path d="M224.953 249.647H229.408C229.49 249.647 229.569 249.674 229.633 249.726C229.696 249.777 229.74 249.849 229.757 249.928L230.565 253.552C230.582 253.641 230.579 253.733 230.556 253.822C230.534 253.91 230.491 253.992 230.433 254.062C230.374 254.131 230.3 254.187 230.217 254.225C230.134 254.263 230.044 254.281 229.953 254.28C228.343 254.249 226.024 254.157 224.004 254.157C221.642 254.157 220.332 254.286 217.584 254.286C215.907 254.286 215.448 252.591 216.146 252.45C219.341 251.752 221.189 251.679 223.949 250.002C224.243 249.79 224.591 249.667 224.953 249.647Z" fill="#263238"/>
<path d="M222.015 117.351C221.477 118.783 220.895 120.038 220.271 121.347C219.647 122.657 218.98 123.912 218.264 125.172C216.813 127.758 215.087 130.179 213.117 132.394C212.854 132.676 212.584 132.957 212.303 133.233C212.168 133.367 212.027 133.508 211.881 133.643L211.403 134.077C210.946 134.487 210.399 134.785 209.806 134.946C209.373 135.06 208.921 135.087 208.478 135.026C208.257 134.997 208.039 134.946 207.829 134.873C207.644 134.807 207.464 134.727 207.291 134.634C206.823 134.376 206.416 134.022 206.097 133.594C205.894 133.332 205.718 133.052 205.571 132.755C205.186 131.947 204.899 131.097 204.714 130.221C204.549 129.45 204.439 128.716 204.341 127.988C204.006 125.145 203.924 122.277 204.096 119.42L207.156 119.199C207.768 121.837 208.38 124.53 209.065 127.027C209.237 127.639 209.439 128.251 209.641 128.814C209.789 129.278 209.995 129.722 210.253 130.136C210.289 130.185 210.326 130.209 210.302 130.136C210.191 129.981 210.044 129.857 209.873 129.775C209.777 129.721 209.677 129.676 209.573 129.64C209.444 129.594 209.311 129.561 209.175 129.542C208.904 129.506 208.628 129.52 208.362 129.585C208.099 129.649 207.853 129.768 207.639 129.934L207.903 129.64C208.007 129.536 208.104 129.426 208.202 129.31C208.398 129.089 208.588 128.851 208.778 128.618C210.33 126.588 211.7 124.426 212.872 122.155C213.484 121.005 214.096 119.817 214.653 118.63C215.21 117.443 215.773 116.182 216.262 115.068L222.015 117.351Z" fill="#FF8B7B"/>
<path d="M241.446 110.876C245.271 111.757 249.133 122.932 249.133 122.932L241.263 128.581C241.263 128.581 239.066 123.373 236.899 118.82C234.635 114.046 237.536 109.983 241.446 110.876Z" fill="#263238"/>
<path d="M218.588 111.09C218.588 111.09 214.249 115.986 218.349 146.348H240.167C240.32 143 238.215 126.66 241.446 110.852C239.033 110.389 236.592 110.082 234.139 109.934C231.051 109.753 227.955 109.753 224.867 109.934C222.747 110.155 220.648 110.542 218.588 111.09Z" fill="#263238"/>
<path d="M223.992 115.221C225.363 118.893 219.096 128.612 219.096 128.612L209.781 123.012C212.153 120.309 214.19 117.33 215.846 114.138C218.863 107.859 222.89 112.265 223.992 115.221Z" fill="#263238"/>
<path d="M205.142 121.231L201.232 119.585L203.27 116.396C203.27 116.396 206.042 116.69 207.064 118.514C207.21 118.78 207.252 119.09 207.182 119.385C207.112 119.681 206.935 119.939 206.685 120.111L205.142 121.231Z" fill="#FF8B7B"/>
<path d="M198.055 117.198L201.47 114.94L203.27 116.396L201.232 119.585L198.055 117.198Z" fill="#FF8B7B"/>
<path opacity="0.2" d="M224.524 240.675L224.733 245.547H228.815L228.606 240.675H224.524Z" fill="black"/>
<path opacity="0.2" d="M255.351 236.452L251.293 236.893L252.995 241.979L256.93 241.177L255.351 236.452Z" fill="black"/>
<path d="M234.928 96.4758C233.882 100.387 233.466 102.73 231.054 104.358C227.425 106.806 222.903 103.997 222.762 99.8541C222.633 96.1209 224.371 90.3497 228.57 89.5664C229.494 89.3851 230.45 89.4439 231.345 89.7371C232.24 90.0304 233.045 90.5484 233.683 91.2415C234.321 91.9347 234.77 92.7798 234.988 93.6962C235.206 94.6126 235.186 95.5697 234.928 96.4758Z" fill="#FF8B7B"/>
<path d="M237.487 94.1746C238.025 94.3031 239.121 94.2236 240.106 91.9959C241.471 88.9359 235.479 89.7927 235.479 89.7927C235.479 89.7927 240.987 87.2957 236.287 84.8967C233.227 83.3361 232.077 84.7804 231.66 85.9677C231.783 84.7437 231.483 83.1158 228.674 83.9787C224.39 85.2884 227.48 88.6789 227.48 88.6789C227.03 88.3571 226.48 88.2036 225.928 88.245C225.375 88.2863 224.855 88.52 224.457 88.9053C223.086 90.1293 224.163 91.8613 225.485 93.4035C224.696 94.5173 224.353 95.8515 226.471 96.3472C226.849 96.4165 227.192 96.6147 227.441 96.9081C227.689 97.2015 227.829 97.5721 227.835 97.9568C227.835 100.044 227.915 101.745 229.365 103.079C230.816 104.413 235.871 102.51 235.614 99.5296C236.845 99.3985 238.016 98.9306 238.998 98.1771C241.605 96.1391 238.545 94.6091 237.487 94.1746Z" fill="#263238"/>
<path d="M229.353 96.5431C228.935 97.4588 228.228 98.2115 227.34 98.6851C226.165 99.2971 225.504 98.4036 225.773 97.2286C226.012 96.1698 226.911 94.5786 228.117 94.4501C229.323 94.3216 229.837 95.4354 229.353 96.5431Z" fill="#FF8B7B"/>
<path d="M226.091 146.348C226.091 146.348 230.718 177.529 233.258 189.188C236.042 201.979 250.681 241.14 250.681 241.14L258.025 239.788C258.025 239.788 247.083 203.013 245.492 190.351C243.772 176.605 240.161 146.329 240.161 146.329L226.091 146.348Z" fill="#F99942"/>
<path opacity="0.2" d="M229.017 157.456C234.396 158.508 233.784 178.472 233.172 188.741C231.624 181.483 229.365 167.517 227.823 157.602C228.193 157.421 228.613 157.369 229.017 157.456Z" fill="black"/>
<path d="M218.349 146.348C218.349 146.348 217.786 176.85 218.233 189.292C218.692 202.229 223.209 244.604 223.209 244.604H230.112C230.112 244.604 230.363 202.988 230.669 190.277C231.006 176.427 232.682 146.348 232.682 146.348H218.349Z" fill="#F99942"/>
<path d="M249.011 238.68C248.98 238.68 250.29 241.361 250.29 241.361L258.558 239.843L257.946 237.352L249.011 238.68Z" fill="#263238"/>
<path d="M221.881 241.85C221.85 241.85 222.272 244.72 222.272 244.72H230.681L230.908 242.156L221.881 241.85Z" fill="#263238"/>
<path d="M152.633 249.941H157.015L156.984 239.806H152.608L152.633 249.941Z" fill="#7F3E3B"/>
<path d="M129.377 249.941H133.753L135.203 239.806H130.821L129.377 249.941Z" fill="#7F3E3B"/>
<path d="M134.028 249.439H129.132C129.047 249.437 128.964 249.466 128.9 249.522C128.835 249.577 128.794 249.654 128.783 249.739L128.208 253.625C128.197 253.723 128.206 253.823 128.236 253.917C128.266 254.012 128.316 254.099 128.382 254.173C128.447 254.247 128.528 254.306 128.618 254.346C128.709 254.387 128.807 254.408 128.906 254.408C130.625 254.378 131.451 254.274 133.612 254.274C134.946 254.274 137.694 254.414 139.53 254.414C141.366 254.414 141.476 252.578 140.711 252.432C137.284 251.697 135.937 250.675 134.781 249.708C134.572 249.528 134.304 249.432 134.028 249.439Z" fill="#263238"/>
<path d="M156.96 249.439H152.18C152.094 249.438 152.01 249.467 151.944 249.522C151.878 249.577 151.833 249.654 151.819 249.739L151.164 253.625C151.148 253.717 151.152 253.812 151.175 253.902C151.198 253.993 151.24 254.078 151.297 254.152C151.355 254.225 151.427 254.286 151.51 254.331C151.592 254.375 151.683 254.401 151.776 254.408C153.496 254.378 155.987 254.274 158.153 254.274C160.687 254.274 162.884 254.415 165.852 254.415C167.651 254.415 168.067 252.579 167.309 252.432C163.851 251.685 161.048 251.605 158.006 249.776C157.693 249.574 157.332 249.457 156.96 249.439Z" fill="#263238"/>
<path d="M153.612 111.47L159.591 109.554C159.591 109.554 165.099 124.658 166.69 126.256C168.845 128.428 171.929 134.212 173.631 137.419C173.435 138.135 172.407 139.799 171.795 140.111C167.578 137.088 161.972 131.323 160.779 128.783C158.061 123.012 153.612 111.47 153.612 111.47Z" fill="#7F3E3B"/>
<path d="M152.229 108.177C150.222 111.849 157.296 124.175 157.296 124.175L166.225 120.038C166.225 120.038 164.181 114.279 161.801 109.346C159.536 104.652 154.457 104.113 152.229 108.177Z" fill="#F99942"/>
<path d="M173.251 136.806L177.755 139.542L174.42 144.12C173.029 142.71 171.861 141.096 170.956 139.334L173.251 136.806Z" fill="#7F3E3B"/>
<path d="M181.054 143.398L178.147 145.491L174.426 144.12L177.755 139.542L181.054 143.398Z" fill="#7F3E3B"/>
<path opacity="0.2" d="M156.984 239.806L156.996 245.033H152.621L152.602 239.806H156.984Z" fill="black"/>
<path opacity="0.2" d="M130.821 239.806H135.203L134.456 245.033H130.074L130.821 239.806Z" fill="black"/>
<path d="M157.951 105.692C157.951 105.692 163.459 120.741 159.138 145.362H135.723C135.472 141.764 137.302 122.406 133.416 105.472C135.997 104.971 138.607 104.64 141.231 104.481C144.548 104.288 147.872 104.288 151.188 104.481C153.47 104.712 155.731 105.117 157.951 105.692Z" fill="#F99942"/>
<path d="M145.613 105.778C145.613 105.778 149.567 110.931 148.734 145.362H153.08C153.08 145.362 154.726 115.888 149.873 105.478C148.447 105.458 147.022 105.559 145.613 105.778Z" fill="white"/>
<path opacity="0.2" d="M138.606 109.652C139.065 112.437 138.349 119.107 135.882 126.788C135.762 120.187 135.06 113.609 133.783 107.131V107.1C135.319 106.965 138.171 107.039 138.606 109.652Z" fill="black"/>
<path d="M142.302 95.1721C143.012 98.3729 143.422 102.345 141.231 104.481C141.231 104.481 142.596 107.73 148.575 107.73C154.016 107.73 151.213 104.481 151.213 104.481C147.621 103.63 147.694 99.2113 148.257 96.7205L142.302 95.1721Z" fill="#7F3E3B"/>
<path d="M141.231 104.205C143.179 105.95 145.548 107.159 148.104 107.712C147.057 108.422 145.711 110.968 145.711 110.968C145.711 110.968 140.656 109.04 139.665 104.438C140.148 104.334 141.231 104.205 141.231 104.205Z" fill="#F99942"/>
<path opacity="0.3" d="M141.231 104.205C143.179 105.95 145.548 107.159 148.104 107.712C147.057 108.422 145.711 110.968 145.711 110.968C145.711 110.968 140.656 109.04 139.665 104.438C140.148 104.334 141.231 104.205 141.231 104.205Z" fill="black"/>
<path d="M150.729 104.083C150.729 104.083 152.119 107.002 149.573 107.681C150.838 108.318 151.898 109.298 152.633 110.509C152.633 110.509 154.432 106.916 152.272 104.328C151.807 104.211 150.729 104.083 150.729 104.083Z" fill="#F99942"/>
<path opacity="0.3" d="M150.729 104.083C150.729 104.083 152.119 107.002 149.573 107.681C150.838 108.318 151.898 109.298 152.633 110.509C152.633 110.509 154.432 106.916 152.272 104.328C151.807 104.211 150.729 104.083 150.729 104.083Z" fill="black"/>
<path opacity="0.2" d="M148.239 96.7265C147.796 98.4586 147.849 100.28 148.392 101.984C147.883 102.225 147.314 102.311 146.758 102.228C145.448 101.965 144.658 101.365 143.569 99.1684C143.477 98.6054 142.425 95.7351 142.308 95.1965L148.239 96.7265Z" fill="black"/>
<path d="M153.031 91.8918C153.088 92.4249 153.037 92.9641 152.881 93.4772C152.726 93.9902 152.468 94.4668 152.125 94.8784C151.201 95.9677 149.903 95.3251 149.469 94.0216C149.071 92.8526 149.077 90.8698 150.344 90.2578C150.626 90.1282 150.936 90.0699 151.246 90.0879C151.555 90.1059 151.856 90.1997 152.121 90.361C152.387 90.5223 152.608 90.7462 152.767 91.0131C152.925 91.28 153.016 91.5817 153.031 91.8918Z" fill="#7F3E3B"/>
<path opacity="0.2" d="M153.031 91.8918C153.088 92.4249 153.037 92.9641 152.881 93.4772C152.726 93.9902 152.468 94.4668 152.125 94.8784C151.201 95.9677 149.903 95.3251 149.469 94.0216C149.071 92.8526 149.077 90.8698 150.344 90.2578C150.626 90.1282 150.936 90.0699 151.246 90.0879C151.555 90.1059 151.856 90.1997 152.121 90.361C152.387 90.5223 152.608 90.7462 152.767 91.0131C152.925 91.28 153.016 91.5817 153.031 91.8918Z" fill="black"/>
<path d="M139.359 91.7327C141.146 95.7351 141.409 97.9812 144.046 99.6887C148.018 102.277 152.749 99.1991 152.743 94.7315C152.743 90.7167 150.662 84.5967 146.158 83.7155C141.231 82.7913 137.088 86.6225 139.359 91.7327Z" fill="#7F3E3B"/>
<path d="M138.679 95.4718C139.344 96.2758 140.253 96.841 141.268 97.0814C142.492 97.3384 142.706 96.145 141.996 94.97C141.354 93.9112 140.221 91.8549 138.857 92.7852C137.951 93.4278 137.804 94.4682 138.679 95.4718Z" fill="#7F3E3B"/>
<path d="M153.135 94.7558C153.269 97.4609 155.974 100.876 151.121 101.653C148.588 102.052 145.997 101.496 143.851 100.092C141.727 98.7767 141.097 95.068 139.45 92.5832C139.377 92.4914 139.414 92.3813 139.499 92.2711C139.598 92.1583 139.723 92.0711 139.863 92.017C140.003 91.9629 140.154 91.9434 140.303 91.9602C140.452 91.9771 140.595 92.0297 140.719 92.1137C140.844 92.1977 140.946 92.3105 141.017 92.4425C141.568 93.4033 142.596 94.8048 143.979 94.8905C146.097 95.0557 153 91.9896 153.135 94.7558Z" fill="#263238"/>
<path d="M143.747 145.362C143.747 145.362 144.359 150.87 145.075 158.331C145.931 166.782 146.99 177.762 147.663 186.128C147.66 186.164 147.66 186.201 147.663 186.238C147.792 187.829 147.902 189.298 148 190.681C148.949 204.322 151.158 244.023 151.158 244.023H158.575C158.575 244.023 161.452 203.508 161.317 189.622C161.195 176.256 159.12 145.362 159.12 145.362H143.747Z" fill="#263238"/>
<path d="M150.552 241.415C150.515 241.415 150.662 244.176 150.662 244.176H159.23L159.463 241.073L150.552 241.415Z" fill="#F99942"/>
<path opacity="0.2" d="M145.075 158.331C145.931 166.782 146.99 177.762 147.663 186.128C147.66 186.164 147.66 186.201 147.663 186.238C149.31 178.312 150.815 171.091 149.199 159.31L145.075 158.331Z" fill="black"/>
<path d="M150.827 145.362C150.827 145.362 148.275 176.997 146.482 189.53C144.518 203.258 136.421 243.998 136.421 243.998H128.398C128.398 243.998 132.749 204.341 133.44 190.754C134.193 176.005 135.717 145.344 135.717 145.344L150.827 145.362Z" fill="#263238"/>
<path d="M128.171 241.33C128.141 241.33 128.012 244.176 128.012 244.176H136.825L137.437 241.244L128.171 241.33Z" fill="#F99942"/>
<path d="M146.268 91.0717C146.354 91.4144 146.598 91.6837 146.825 91.6103C147.051 91.5368 147.162 91.2369 147.082 90.8942C147.002 90.5515 146.751 90.2822 146.525 90.3557C146.299 90.4291 146.188 90.7229 146.268 91.0717Z" fill="#263238"/>
<path d="M150.136 90.2272C150.222 90.576 150.466 90.8392 150.693 90.7657C150.919 90.6923 151.029 90.3985 150.95 90.0497C150.87 89.7009 150.619 89.4377 150.393 89.5111C150.166 89.5846 150.056 89.8783 150.136 90.2272Z" fill="#263238"/>
<path d="M148.949 90.6677C149.608 91.637 150.395 92.5138 151.286 93.2749C151.092 93.495 150.851 93.669 150.581 93.7844C150.311 93.8998 150.019 93.9536 149.726 93.9419L148.949 90.6677Z" fill="#630F0F"/>
<path d="M148.961 96.3104C148.974 96.3068 148.987 96.3007 148.998 96.2923C149.008 96.2839 149.018 96.2734 149.024 96.2614C149.031 96.2495 149.036 96.2363 149.037 96.2226C149.039 96.209 149.038 96.1951 149.034 96.1818C149.026 96.1558 149.008 96.1339 148.984 96.1203C148.96 96.1067 148.932 96.1025 148.906 96.1084C148.48 96.2223 148.033 96.2346 147.601 96.1443C147.17 96.0539 146.765 95.8634 146.421 95.5882C146.412 95.5788 146.401 95.5712 146.389 95.5661C146.377 95.561 146.364 95.5583 146.351 95.5583C146.337 95.5583 146.324 95.561 146.312 95.5661C146.3 95.5712 146.289 95.5788 146.28 95.5882C146.27 95.5974 146.261 95.6087 146.256 95.6213C146.25 95.634 146.247 95.6477 146.247 95.6616C146.247 95.6755 146.25 95.6893 146.256 95.7019C146.261 95.7146 146.27 95.7259 146.28 95.7351C146.649 96.038 147.084 96.2484 147.551 96.3485C148.017 96.4486 148.501 96.4355 148.961 96.3104Z" fill="#7F3E3B"/>
<path d="M144.805 90.0619C144.836 90.0545 144.865 90.0402 144.889 90.0201C144.914 89.9999 144.933 89.9745 144.946 89.9457C145.041 89.706 145.194 89.4932 145.39 89.3257C145.586 89.1583 145.82 89.0413 146.072 88.9848C146.102 88.9835 146.131 88.9759 146.157 88.9625C146.184 88.9491 146.207 88.9301 146.226 88.9069C146.244 88.8837 146.258 88.8568 146.265 88.8281C146.272 88.7993 146.273 88.7692 146.268 88.74C146.259 88.6853 146.229 88.6362 146.184 88.6031C146.14 88.57 146.084 88.5555 146.029 88.5625C145.706 88.6282 145.404 88.775 145.152 88.9891C144.901 89.2031 144.708 89.4775 144.591 89.7865C144.57 89.8371 144.569 89.8937 144.588 89.9449C144.608 89.9962 144.646 90.038 144.695 90.0619C144.731 90.0699 144.769 90.0699 144.805 90.0619Z" fill="#263238"/>
<path d="M151.55 88.4645C151.579 88.4527 151.606 88.4362 151.629 88.4156C151.668 88.3766 151.69 88.3237 151.69 88.2687C151.69 88.2136 151.668 88.1608 151.629 88.1218C151.414 87.8711 151.143 87.6749 150.838 87.5494C150.532 87.4238 150.202 87.3725 149.873 87.3996C149.818 87.4086 149.77 87.4388 149.738 87.4836C149.706 87.5283 149.692 87.584 149.701 87.6383C149.712 87.6924 149.742 87.7406 149.786 87.7734C149.83 87.8063 149.885 87.8214 149.94 87.8158C150.201 87.7957 150.463 87.8379 150.705 87.939C150.946 88.0401 151.16 88.1972 151.329 88.3972C151.356 88.4277 151.391 88.4501 151.43 88.4619C151.469 88.4738 151.51 88.4747 151.55 88.4645Z" fill="#263238"/>
<path d="M130.882 111.2L136.69 113.887C136.69 113.887 131.09 128.159 132.045 130.172C133.349 132.92 134.371 139.022 136.494 141.972C136.384 142.688 135.527 144.42 134.958 144.781C130.313 142.278 125.729 133.153 125.478 130.411C124.903 124.163 130.882 111.2 130.882 111.2Z" fill="#7F3E3B"/>
<path d="M133.416 105.472C129.291 106.084 124.897 120.423 124.897 120.423L134.94 124.848C134.94 124.848 137.388 118.514 139.15 113.44C140.999 108.134 137.847 104.823 133.416 105.472Z" fill="#F99942"/>
<path d="M135.534 250.204C135.827 250.227 136.119 250.147 136.36 249.977C136.434 249.91 136.489 249.824 136.519 249.728C136.549 249.633 136.553 249.531 136.531 249.433C136.529 249.371 136.509 249.31 136.475 249.258C136.44 249.206 136.392 249.165 136.335 249.139C135.833 248.888 134.499 249.751 134.334 249.855C134.318 249.867 134.305 249.882 134.297 249.901C134.29 249.919 134.288 249.94 134.291 249.959C134.297 249.98 134.308 249.998 134.323 250.013C134.338 250.028 134.356 250.039 134.377 250.045C134.755 250.14 135.143 250.194 135.534 250.204ZM136.115 249.298C136.161 249.288 136.209 249.288 136.256 249.298C136.277 249.311 136.295 249.328 136.308 249.35C136.321 249.371 136.328 249.396 136.329 249.421C136.343 249.488 136.339 249.557 136.319 249.622C136.299 249.688 136.262 249.747 136.213 249.794C135.727 250.023 135.171 250.051 134.664 249.873C135.104 249.585 135.597 249.389 136.115 249.298Z" fill="#F99942"/>
<path d="M134.401 250.045C134.417 250.051 134.434 250.051 134.45 250.045C134.885 249.8 135.674 248.821 135.558 248.356C135.538 248.278 135.493 248.209 135.43 248.159C135.367 248.11 135.289 248.082 135.209 248.08C135.131 248.07 135.052 248.076 134.977 248.1C134.902 248.123 134.833 248.162 134.775 248.215C134.297 248.631 134.291 249.892 134.291 249.947C134.291 249.967 134.296 249.986 134.306 250.003C134.316 250.02 134.33 250.035 134.346 250.045H134.401ZM135.154 248.27H135.197C135.338 248.27 135.35 248.35 135.356 248.374C135.436 248.662 134.934 249.39 134.505 249.727C134.498 249.238 134.644 248.758 134.922 248.356C134.985 248.299 135.068 248.268 135.154 248.27Z" fill="#F99942"/>
<path d="M158.814 250.204C159.185 250.239 159.558 250.144 159.867 249.935C159.935 249.871 159.987 249.791 160.017 249.702C160.047 249.614 160.054 249.519 160.038 249.427C160.033 249.369 160.013 249.314 159.981 249.266C159.949 249.218 159.905 249.178 159.854 249.151C159.31 248.851 157.59 249.763 157.406 249.849C157.388 249.861 157.374 249.877 157.366 249.897C157.357 249.916 157.354 249.938 157.357 249.959C157.361 249.981 157.371 250 157.387 250.016C157.402 250.031 157.422 250.041 157.443 250.045C157.894 250.14 158.353 250.193 158.814 250.204ZM159.567 249.298C159.634 249.296 159.701 249.308 159.763 249.335C159.783 249.346 159.799 249.362 159.811 249.381C159.823 249.4 159.829 249.422 159.83 249.445C159.842 249.505 159.838 249.567 159.819 249.625C159.8 249.683 159.765 249.735 159.72 249.776C159.463 250.02 158.747 250.057 157.774 249.898C158.332 249.595 158.939 249.392 159.567 249.298Z" fill="#F99942"/>
<path d="M157.455 250.045H157.492C158.012 249.806 159.016 248.864 158.912 248.368C158.912 248.252 158.802 248.105 158.514 248.074C158.412 248.063 158.309 248.074 158.211 248.104C158.113 248.135 158.023 248.185 157.945 248.252C157.413 248.711 157.333 249.892 157.333 249.941C157.333 249.959 157.337 249.977 157.346 249.993C157.354 250.009 157.367 250.023 157.382 250.033C157.404 250.046 157.43 250.05 157.455 250.045ZM158.441 248.27H158.502C158.692 248.27 158.704 248.362 158.71 248.386C158.771 248.686 158.098 249.427 157.572 249.751C157.594 249.259 157.774 248.787 158.086 248.405C158.183 248.317 158.31 248.269 158.441 248.27Z" fill="#F99942"/>
<path d="M135.974 141.892L140.105 142.504L137.045 146.537C137.045 146.537 133.453 145.888 133.404 143.018L135.974 141.892Z" fill="#7F3E3B"/>
<path d="M142.994 145.307L140.056 148.814L137.057 146.531L140.105 142.498L142.994 145.307Z" fill="#7F3E3B"/>
<path d="M96.8061 108.801C96.8061 108.801 92.8281 107.1 89.6396 109.138C86.4511 111.176 89.0705 111.537 85.5698 113.134C82.0692 114.732 85.9799 116.91 85.5698 118.967C85.0802 121.415 80.9737 122.467 83.2932 125.325C85.6127 128.183 103.079 129.646 104.982 126.09C106.886 122.535 102.534 122.559 103.593 119.536C104.652 116.512 105.197 114.566 102.265 112.675C99.3337 110.784 100.123 107.406 96.8061 108.801Z" fill="#263238"/>
<path d="M109.04 134.64C109.211 135.631 109.426 136.757 109.652 137.81C109.878 138.863 110.142 139.952 110.442 141.005C111.022 143.108 111.735 145.173 112.577 147.186C112.779 147.694 113.018 148.171 113.238 148.661L113.3 148.795V148.838C113.3 148.838 113.3 148.838 113.269 148.838C113.159 148.758 113.025 148.718 112.89 148.722C112.785 148.722 112.816 148.771 112.92 148.722C113.072 148.675 113.217 148.612 113.355 148.532C113.754 148.299 114.132 148.028 114.481 147.724C116.094 146.264 117.582 144.671 118.93 142.963L120.766 144.083C119.742 146.268 118.426 148.304 116.855 150.136C116.402 150.647 115.897 151.11 115.35 151.519C115.015 151.759 114.656 151.964 114.279 152.131C113.764 152.362 113.203 152.47 112.639 152.449C111.931 152.411 111.257 152.138 110.723 151.672C110.496 151.477 110.291 151.257 110.111 151.017C110.031 150.907 109.964 150.803 109.903 150.699C109.842 150.595 109.799 150.515 109.762 150.448C109.481 149.915 109.15 149.389 108.924 148.851C107.872 146.705 107 144.476 106.317 142.186C105.968 141.054 105.65 139.909 105.393 138.753C105.135 137.596 104.897 136.464 104.732 135.203L109.04 134.64Z" fill="#FFB573"/>
<path d="M107.369 129.866C109.138 130.197 110.803 137.271 110.803 137.271L106.219 140.827C106.219 140.827 101.176 133.905 102.394 131.91C103.612 129.915 104.793 129.383 107.369 129.866Z" fill="#263238"/>
<path opacity="0.2" d="M107.314 131.47L109.101 138.593L106.525 140.589L107.314 131.47Z" fill="black"/>
<path d="M120.668 141.917L124.114 141.335L122.1 145.123C122.1 145.123 119.389 145.166 118.538 143.63L118.74 143.269C118.942 142.915 119.219 142.611 119.553 142.377C119.886 142.143 120.267 141.986 120.668 141.917Z" fill="#FFB573"/>
<path d="M127.088 142.351L125.895 145.754L122.1 145.123L124.114 141.335L127.088 142.351Z" fill="#FFB573"/>
<path d="M115.797 250.241L119.872 249.121L117.559 239.616L113.483 240.736L115.797 250.241Z" fill="#FFB573"/>
<path d="M119.872 248.405L115.319 249.726C115.24 249.748 115.171 249.798 115.126 249.867C115.081 249.936 115.063 250.018 115.074 250.1L115.601 253.851C115.617 253.946 115.654 254.035 115.708 254.115C115.761 254.194 115.831 254.261 115.913 254.311C115.994 254.361 116.086 254.394 116.18 254.406C116.275 254.419 116.372 254.411 116.464 254.384C118.043 253.894 118.783 253.582 120.784 253.001C122.008 252.64 125.595 251.74 127.296 251.244C128.997 250.749 128.6 249.041 127.847 249.096C124.469 249.335 121.953 249.047 120.625 248.484C120.392 248.37 120.125 248.341 119.872 248.405Z" fill="#263238"/>
<g opacity="0.2">
<path opacity="0.2" d="M117.559 239.622L118.746 244.518L114.677 245.638L113.483 240.736L117.559 239.622Z" fill="black"/>
</g>
<path d="M107.369 129.866C107.369 129.866 109.426 130.478 106.959 155.429L89.8232 156.507C89.6764 149.524 89.4132 145.227 85.1843 131.139C87.5565 130.499 89.9721 130.033 92.412 129.744C94.9878 129.396 97.5852 129.232 100.184 129.254C103.538 129.328 107.369 129.866 107.369 129.866Z" fill="#F99942"/>
<g opacity="0.4">
<path opacity="0.4" d="M107.369 129.866C107.369 129.866 109.426 130.478 106.959 155.429L89.8232 156.507C89.6764 149.524 89.4132 145.227 85.1843 131.139C87.5565 130.499 89.9721 130.033 92.412 129.744C94.9878 129.396 97.5852 129.232 100.184 129.254C103.538 129.328 107.369 129.866 107.369 129.866Z" fill="#263238"/>
</g>
<path d="M92.6262 120.925C93.2749 123.373 94.0522 127.944 92.4059 129.725C92.4059 129.725 93.2505 132.216 97.9139 131.929C103.024 131.604 100.197 129.236 100.197 129.236C97.3692 128.746 97.308 126.671 97.6691 124.701L92.6262 120.925Z" fill="#FFB573"/>
<path d="M92.412 129.744C94.9858 129.396 97.5811 129.232 100.178 129.254H100.692C101.384 130.392 101.659 132.192 100.337 134.934C100.337 134.934 93.3484 132.62 91.39 129.86L92.412 129.744Z" fill="#FFB573"/>
<path opacity="0.2" d="M94.6764 122.467L97.6507 124.695C97.5615 125.155 97.5103 125.622 97.4977 126.09C96.4267 126.005 94.7315 124.989 94.5479 123.881C94.4432 123.408 94.4881 122.914 94.6764 122.467Z" fill="black"/>
<path d="M89.658 116.763C90.882 120.772 91.292 122.498 93.8441 124.108C97.6752 126.525 102.339 124.163 102.351 119.866C102.351 116.005 100.38 110.074 96.0167 109.413C95.0551 109.258 94.0698 109.351 93.1544 109.684C92.2389 110.016 91.4238 110.578 90.7865 111.314C90.1493 112.051 89.711 112.938 89.5135 113.892C89.316 114.846 89.3657 115.834 89.658 116.763Z" fill="#FFB573"/>
<path d="M96.7939 109.175C97.3019 111.115 92.6752 117.945 90.0925 119.817C87.6445 117.131 87.7792 113.661 88.8379 111.892C89.8967 110.123 92.412 108.22 96.7939 109.175Z" fill="#263238"/>
<path d="M97.1244 109.236C99.1746 109.817 101.323 112.247 100.184 112.149C99.0461 112.051 94.1011 109.86 97.1244 109.236Z" fill="#263238"/>
<path d="M106.959 155.448C106.959 155.448 111.77 186.201 113.404 198.973C115.099 212.266 119.273 243.16 119.273 243.16L113.765 244.751C113.765 244.751 105.582 214.475 103.134 201.537C100.472 187.461 94.401 156.249 94.401 156.249L106.959 155.448Z" fill="#F99942"/>
<g opacity="0.2">
<path opacity="0.2" d="M106.959 155.448C106.959 155.448 111.77 186.201 113.404 198.973C115.099 212.266 119.273 243.16 119.273 243.16L113.765 244.751C113.765 244.751 105.582 214.475 103.134 201.537C100.472 187.461 94.401 156.249 94.401 156.249L106.959 155.448Z" fill="black"/>
</g>
<path d="M113.367 245.069L119.799 243.197L119.677 241.012L112.4 242.854L113.367 245.069Z" fill="#263238"/>
<path d="M103.336 248.423L107.4 249.555L108.489 240.681H104.266L103.336 248.423Z" fill="#FFB573"/>
<path opacity="0.2" d="M103.734 245.094L107.841 245.987L108.489 240.681H104.266L103.734 245.094Z" fill="black"/>
<path d="M107.583 249.145L102.932 247.866C102.851 247.844 102.765 247.85 102.688 247.882C102.61 247.914 102.546 247.971 102.504 248.043L101.072 251.44C101.028 251.524 101.005 251.616 101.003 251.711C101.001 251.805 101.021 251.899 101.061 251.984C101.102 252.069 101.161 252.144 101.235 252.203C101.309 252.261 101.396 252.302 101.488 252.321C103.122 252.738 103.581 252.805 105.631 253.368C106.886 253.711 109.878 255.167 113.122 255.167C114.854 255.167 114.67 253.331 113.942 253.178C110.68 252.468 108.973 250.73 108.189 249.573C108.044 249.364 107.83 249.212 107.583 249.145Z" fill="#263238"/>
<path d="M103.067 155.662C103.067 155.662 119.542 190.852 118.092 201.886C116.323 215.32 108.765 243.619 108.765 243.619L103.006 242.48C103.006 242.48 106.066 214.071 107.253 200.913C108.563 186.574 90.8147 175.448 89.6947 156.519L103.067 155.662Z" fill="#F99942"/>
<path d="M102.455 243.808L109.181 245.289L109.823 242.994L102.565 241.379L102.455 243.808Z" fill="#263238"/>
<path d="M108.967 250.253C109.316 250.383 109.698 250.396 110.056 250.29C110.144 250.255 110.223 250.201 110.287 250.131C110.351 250.061 110.397 249.977 110.423 249.886C110.443 249.836 110.448 249.782 110.437 249.729C110.426 249.677 110.4 249.629 110.362 249.592C109.976 249.188 108.018 249.537 107.798 249.592C107.776 249.597 107.757 249.608 107.741 249.623C107.725 249.638 107.713 249.657 107.706 249.678C107.701 249.696 107.702 249.716 107.71 249.734C107.718 249.752 107.732 249.766 107.749 249.775C108.138 249.975 108.546 250.135 108.967 250.253ZM110.038 249.641C110.098 249.653 110.155 249.681 110.203 249.72C110.214 249.739 110.219 249.76 110.219 249.782C110.219 249.803 110.214 249.824 110.203 249.843C110.185 249.902 110.155 249.956 110.113 250.002C110.072 250.047 110.021 250.083 109.964 250.106C109.628 250.253 108.942 250.106 108.098 249.708C108.737 249.582 109.392 249.561 110.038 249.647V249.641Z" fill="#F99942"/>
<path d="M107.767 249.763H107.81C108.385 249.684 109.701 249.108 109.817 248.643C109.817 248.533 109.817 248.38 109.566 248.276C109.37 248.198 109.151 248.198 108.954 248.276C108.427 248.598 108.003 249.062 107.73 249.616C107.721 249.631 107.716 249.648 107.716 249.665C107.716 249.683 107.721 249.7 107.73 249.714L107.767 249.763ZM109.407 248.447H109.468C109.634 248.515 109.615 248.582 109.609 248.607C109.542 248.888 108.612 249.372 107.994 249.518C108.231 249.073 108.59 248.704 109.028 248.454C109.153 248.419 109.286 248.426 109.407 248.472V248.447Z" fill="#F99942"/>
<path d="M96.4022 116.311C96.4818 116.647 96.7205 116.874 96.9347 116.818C97.1489 116.763 97.2652 116.457 97.1856 116.127C97.106 115.796 96.8735 115.57 96.6531 115.619C96.4328 115.668 96.3227 115.98 96.4022 116.311Z" fill="#263238"/>
<path d="M100.148 115.429C100.227 115.76 100.466 115.986 100.686 115.937C100.907 115.888 101.011 115.576 100.937 115.246C100.864 114.915 100.619 114.682 100.399 114.738C100.178 114.793 100.074 115.099 100.148 115.429Z" fill="#263238"/>
<path d="M100.313 114.78L101.053 114.358C101.053 114.358 100.79 115.056 100.313 114.78Z" fill="#263238"/>
<path d="M99.144 116.28C99.616 116.966 100.18 117.584 100.821 118.116C100.682 118.277 100.508 118.406 100.314 118.492C100.119 118.579 99.9078 118.622 99.6948 118.618L99.144 116.28Z" fill="#ED893E"/>
<path d="M98.1832 120.362C98.3523 120.349 98.5201 120.322 98.685 120.282C98.7105 120.275 98.7324 120.258 98.746 120.236C98.7597 120.213 98.7641 120.186 98.7584 120.16C98.7512 120.134 98.7346 120.113 98.7118 120.099C98.6891 120.085 98.662 120.081 98.636 120.086C98.2263 120.193 97.7971 120.201 97.3835 120.111C96.9698 120.021 96.5833 119.834 96.2554 119.566C96.2362 119.549 96.211 119.539 96.185 119.539C96.1589 119.539 96.1338 119.549 96.1146 119.566C96.0952 119.586 96.0842 119.612 96.0842 119.64C96.0842 119.667 96.0952 119.694 96.1146 119.713C96.6912 120.194 97.435 120.428 98.1832 120.362Z" fill="#263238"/>
<path d="M89.4316 120.754C89.8829 121.427 90.5828 121.893 91.3777 122.051C92.4365 122.253 92.871 121.292 92.5038 120.344C92.1733 119.487 91.2247 118.355 90.2027 118.581C89.9803 118.635 89.7748 118.743 89.6049 118.897C89.4349 119.05 89.3059 119.243 89.2293 119.459C89.1528 119.674 89.1312 119.906 89.1665 120.132C89.2018 120.358 89.2929 120.572 89.4316 120.754Z" fill="#FFB573"/>
<path d="M94.7192 115.907C94.7614 115.904 94.8014 115.887 94.8334 115.859C94.8654 115.832 94.8876 115.795 94.8967 115.754C95.0143 115.449 95.1935 115.171 95.423 114.938C95.6526 114.706 95.9276 114.523 96.2309 114.401C96.2804 114.381 96.3197 114.342 96.3404 114.292C96.361 114.243 96.3613 114.187 96.341 114.138C96.3316 114.114 96.3174 114.091 96.2993 114.073C96.2812 114.054 96.2596 114.039 96.2357 114.029C96.2117 114.019 96.186 114.013 96.1599 114.013C96.1339 114.013 96.1081 114.018 96.084 114.028C95.7204 114.17 95.3918 114.39 95.1204 114.67C94.8491 114.951 94.6413 115.287 94.5112 115.656C94.5039 115.681 94.5019 115.708 94.5054 115.735C94.509 115.761 94.5179 115.787 94.5316 115.81C94.5454 115.833 94.5637 115.853 94.5855 115.868C94.6072 115.884 94.6319 115.895 94.658 115.9L94.7192 115.907Z" fill="#263238"/>
<path d="M100.87 113.434C100.904 113.43 100.937 113.418 100.966 113.399C100.994 113.38 101.018 113.354 101.035 113.324C101.057 113.276 101.059 113.221 101.042 113.171C101.025 113.121 100.99 113.08 100.943 113.055C100.66 112.906 100.345 112.829 100.025 112.829C99.7055 112.829 99.3905 112.906 99.1073 113.055C99.0851 113.068 99.0658 113.085 99.0504 113.106C99.0351 113.127 99.0239 113.15 99.0177 113.175C99.0114 113.2 99.0101 113.226 99.014 113.252C99.0178 113.277 99.0266 113.302 99.0399 113.324C99.0668 113.37 99.1109 113.404 99.1625 113.418C99.2141 113.431 99.2691 113.424 99.3153 113.397C99.539 113.283 99.7865 113.224 100.038 113.224C100.289 113.224 100.536 113.283 100.76 113.397C100.794 113.417 100.831 113.43 100.87 113.434Z" fill="#263238"/>
<path d="M87.8036 136.849C87.4303 139.089 87.0631 141.384 86.7204 143.655C86.3777 145.925 86.0717 148.202 85.8942 150.454L85.833 151.262C85.816 151.439 85.816 151.617 85.833 151.794C85.8981 152.289 85.9921 152.779 86.1145 153.263C86.3838 154.297 86.7265 155.374 87.0998 156.445C87.8281 158.6 88.691 160.76 89.5478 162.914L87.6629 163.918C86.3421 161.928 85.1464 159.857 84.0827 157.718C83.5346 156.619 83.0503 155.489 82.6322 154.334C82.4025 153.704 82.2204 153.057 82.0876 152.4C82.0071 151.997 81.9661 151.587 81.9652 151.176V150.24C82.0264 147.824 82.1998 145.44 82.4854 143.085C82.7546 140.723 83.0974 138.397 83.5564 136.041L87.8036 136.849Z" fill="#FFB573"/>
<path d="M85.2026 131.139C83.5196 131.751 81.8305 137.804 81.8305 137.804L88.7828 142.143C88.7828 142.143 90.9004 137.057 90.0374 134.891C89.1439 132.626 87.1182 130.423 85.2026 131.139Z" fill="#263238"/>
<path d="M121.604 248.668C121.958 248.597 122.277 248.41 122.51 248.135C122.558 248.058 122.587 247.971 122.594 247.88C122.601 247.79 122.587 247.699 122.553 247.615C122.533 247.563 122.501 247.517 122.46 247.481C122.418 247.445 122.368 247.419 122.314 247.407C121.739 247.278 120.362 248.576 120.203 248.723C120.191 248.74 120.185 248.76 120.185 248.781C120.185 248.802 120.191 248.822 120.203 248.839C120.211 248.858 120.225 248.873 120.242 248.883C120.26 248.893 120.281 248.897 120.301 248.894C120.742 248.862 121.178 248.786 121.604 248.668ZM122.082 247.621C122.144 247.607 122.209 247.607 122.271 247.621C122.293 247.626 122.312 247.637 122.329 247.652C122.345 247.667 122.357 247.686 122.363 247.707C122.391 247.76 122.405 247.818 122.405 247.878C122.405 247.938 122.391 247.997 122.363 248.049C122.18 248.343 121.525 248.576 120.582 248.661C121.019 248.232 121.526 247.88 122.082 247.621Z" fill="#F99942"/>
<path d="M120.301 248.894C120.301 248.894 120.331 248.894 120.338 248.894C120.76 248.539 121.464 247.389 121.256 246.948C121.207 246.844 121.09 246.734 120.815 246.783C120.717 246.8 120.623 246.837 120.54 246.892C120.457 246.947 120.386 247.018 120.331 247.101C120.097 247.649 120.043 248.258 120.178 248.839C120.181 248.856 120.188 248.873 120.199 248.887C120.21 248.901 120.224 248.912 120.24 248.919L120.301 248.894ZM120.79 246.966H120.852C121.029 246.966 121.06 247.003 121.072 247.021C121.2 247.285 120.748 248.16 120.344 248.6C120.245 248.129 120.298 247.638 120.497 247.199C120.563 247.088 120.667 247.005 120.79 246.966Z" fill="#F99942"/>
<path d="M96.5613 115.668L97.308 115.252C97.308 115.252 97.0448 115.962 96.5613 115.668Z" fill="#263238"/>
<path d="M89.5233 155.515L89.1867 157.076C89.1317 157.198 89.2785 157.315 89.4805 157.302L107.1 156.188C107.253 156.188 107.375 156.097 107.382 155.999L107.437 154.456C107.437 154.352 107.302 154.267 107.131 154.279L89.7987 155.374C89.7447 155.373 89.6913 155.385 89.6432 155.41C89.5951 155.435 89.5539 155.471 89.5233 155.515Z" fill="#263238"/>
<path d="M91.9775 157.284H91.5124C91.4206 157.284 91.3471 157.247 91.3471 157.186L91.4389 155.185C91.4389 155.124 91.5185 155.075 91.6103 155.068L92.0754 155.038C92.1672 155.038 92.2406 155.075 92.2406 155.136L92.1488 157.137C92.1427 157.284 92.0693 157.284 91.9775 157.284Z" fill="#F99942"/>
<path d="M105.796 156.439H105.337C105.24 156.439 105.166 156.396 105.172 156.341L105.264 154.334C105.264 154.279 105.344 154.224 105.435 154.218H105.9C105.992 154.218 106.066 154.254 106.066 154.31L105.974 156.317C105.968 156.378 105.876 156.433 105.796 156.439Z" fill="#F99942"/>
<path d="M98.8869 156.874L98.4218 156.904C98.33 156.904 98.2566 156.868 98.2566 156.807L98.3545 154.805C98.3545 154.744 98.4341 154.689 98.5259 154.683H98.991C99.0828 154.683 99.1562 154.72 99.1501 154.775L99.0583 156.782C99.0583 156.813 98.9787 156.868 98.8869 156.874Z" fill="#F99942"/>
<path d="M89.4377 162.504L92.9077 165.466L88.6665 166.164C88.6665 166.164 86.9958 164.034 87.6996 162.425L89.4377 162.504Z" fill="#FFB573"/>
<path d="M93.6115 168.949L90.0313 169.34L88.6666 166.164L92.9077 165.466L93.6115 168.949Z" fill="#FFB573"/>
<path d="M186.287 101.451C203.119 101.451 216.764 87.806 216.764 70.9737C216.764 54.1414 203.119 40.4961 186.287 40.4961C169.454 40.4961 155.809 54.1414 155.809 70.9737C155.809 87.806 169.454 101.451 186.287 101.451Z" fill="#F99942"/>
<path d="M124.658 58.8622L124.254 58.4032C126.719 56.2054 129.906 54.9901 133.208 54.9883V55.6003C130.054 55.6018 127.011 56.7628 124.658 58.8622Z" fill="#F99942"/>
<path d="M121.176 63.9479L120.601 63.7337C120.962 62.7731 121.432 61.8572 122.002 61.0042L122.51 61.3469C121.969 62.1612 121.522 63.0336 121.176 63.9479Z" fill="#F99942"/>
<path d="M141.224 76.4762C145.65 72.0499 145.65 64.8735 141.224 60.4472C136.798 56.0209 129.621 56.0208 125.195 60.4471C120.769 64.8734 120.769 72.0499 125.195 76.4762C129.621 80.9025 136.798 80.9025 141.224 76.4762Z" fill="#F99942"/>
<path d="M110.417 98.1219C114.257 98.1219 117.369 95.0093 117.369 91.1696C117.369 87.3299 114.257 84.2173 110.417 84.2173C106.577 84.2173 103.465 87.3299 103.465 91.1696C103.465 95.0093 106.577 98.1219 110.417 98.1219Z" fill="#F99942"/>
<path d="M232.952 76.6408C235.997 76.6408 238.466 74.172 238.466 71.1267C238.466 68.0813 235.997 65.6125 232.952 65.6125C229.906 65.6125 227.438 68.0813 227.438 71.1267C227.438 74.172 229.906 76.6408 232.952 76.6408Z" fill="#F99942"/>
<path d="M202.505 65.6859C202.507 62.7697 201.723 59.9069 200.235 57.3989C198.747 54.8909 196.61 52.8306 194.049 51.4348C191.489 50.0389 188.599 49.3593 185.685 49.4675C182.771 49.5756 179.94 50.4675 177.49 52.0493C175.04 53.631 173.062 55.8441 171.764 58.4555C170.466 61.0669 169.896 63.9799 170.114 66.888C170.332 69.796 171.331 72.5914 173.004 74.9798C174.677 77.3682 176.963 79.2612 179.622 80.4596V83.3299H192.951V80.4596C195.797 79.1785 198.213 77.1028 199.907 74.482C201.602 71.8613 202.504 68.8069 202.505 65.6859Z" fill="white"/>
<path opacity="0.2" d="M191.801 91.1698H180.773L179.622 83.3301H192.951L191.801 91.1698Z" fill="black"/>
<path opacity="0.4" d="M189.01 92.4732H183.563L183 91.1697H189.573L189.01 92.4732Z" fill="black"/>
<path d="M184.555 69.3826C184.179 68.2954 183.55 67.3134 182.719 66.5184C180.803 64.609 178.435 63.9664 177.364 65.0557C176.813 65.6065 176.684 66.4939 177.009 67.5466C177.384 68.632 178.014 69.6119 178.845 70.4046C180.124 71.6898 181.605 72.3997 182.774 72.3997C183.045 72.4028 183.314 72.3572 183.569 72.2651L184.653 83.3668C184.662 83.4674 184.708 83.5609 184.783 83.6289C184.858 83.6969 184.955 83.7344 185.057 83.734H185.093C185.147 83.7294 185.199 83.7141 185.247 83.689C185.295 83.664 185.337 83.6296 185.371 83.588C185.405 83.5463 185.431 83.4983 185.446 83.4466C185.462 83.395 185.466 83.3408 185.46 83.2872L184.328 71.7143C184.553 71.3736 184.692 70.983 184.731 70.5765C184.771 70.1701 184.71 69.7602 184.555 69.3826ZM179.42 69.8293C178.69 69.1273 178.134 68.2637 177.798 67.3079C177.675 67.038 177.625 66.7405 177.653 66.4451C177.681 66.1498 177.786 65.867 177.957 65.6249C178.075 65.5215 178.211 65.4423 178.359 65.3919C178.508 65.3415 178.664 65.3208 178.82 65.3311C179.695 65.3311 180.968 65.9003 182.162 67.0937C182.895 67.7935 183.451 68.6578 183.784 69.6151C183.908 69.8848 183.959 70.1825 183.931 70.478C183.903 70.7736 183.797 71.0566 183.624 71.2981C182.988 71.9591 181.152 71.5246 179.42 69.8293Z" fill="#F99942"/>
<path d="M195.191 65.0557C194.634 64.4988 193.753 64.3703 192.7 64.6947C191.625 65.0873 190.649 65.7104 189.84 66.5202C189.032 67.33 188.41 68.307 188.019 69.3826C187.863 69.76 187.802 70.1694 187.841 70.5757C187.879 70.9819 188.016 71.3727 188.239 71.7143L187.107 83.2872C187.097 83.3951 187.129 83.5026 187.198 83.5864C187.267 83.6701 187.366 83.7232 187.474 83.734H187.511C187.612 83.7344 187.709 83.6969 187.784 83.6289C187.859 83.561 187.905 83.4674 187.915 83.3668L188.998 72.2651C189.255 72.3579 189.526 72.4035 189.8 72.3997C190.962 72.3997 192.443 71.6898 193.722 70.4046C194.554 69.6119 195.183 68.632 195.558 67.5466C195.871 66.4939 195.742 65.6065 195.191 65.0557ZM194.775 67.3079C194.442 68.2648 193.886 69.1289 193.153 69.8293C191.458 71.5246 189.61 71.9591 188.949 71.2981C188.776 71.0566 188.671 70.7737 188.643 70.4781C188.615 70.1825 188.665 69.8848 188.79 69.6151C189.125 68.659 189.68 67.7951 190.412 67.0937C191.114 66.3603 191.98 65.8044 192.939 65.4719C193.206 65.3846 193.484 65.3371 193.765 65.3311C194.076 65.3175 194.38 65.4225 194.616 65.6249C194.791 65.8678 194.898 66.1529 194.926 66.4509C194.954 66.7489 194.902 67.0489 194.775 67.3201V67.3079Z" fill="#F99942"/>
</svg>
