<svg fill="none" xmlns="http://www.w3.org/2000/svg" viewBox="0 0 384 384">
  <path d="M193.275 117.926c25.659-15.521 45.481-38.438 79.104-31.534 26.535 5.446 44.744 29.952 44.644 56.832-.13 31.296-24.714 48.861-40.212 72.83-13.824 21.35-28.186 53.399-59.136 50.189-26.327-2.727-37.172-35.789-66.532-37.801-30.352-2.089-50.22 7.826-69.005-26.612-13.978-25.597-10.445-58.79 19.277-70.809 29.491-11.981 62.3 4.785 91.86-13.095z" fill="#848484"/>
  <path d="M193.275 117.926c25.659-15.521 45.481-38.438 79.104-31.534 26.535 5.446 44.744 29.952 44.644 56.832-.13 31.296-24.714 48.861-40.212 72.83-13.824 21.35-28.186 53.399-59.136 50.189-26.327-2.727-37.172-35.789-66.532-37.801-30.352-2.089-50.22 7.826-69.005-26.612-13.978-25.597-10.445-58.79 19.277-70.809 29.491-11.981 62.3 4.785 91.86-13.095z" fill="#EDEDED"/>
  <path d="M192 328.366c82.24 0 148.908-3.892 148.908-8.694 0-4.801-66.668-8.693-148.908-8.693-82.239 0-148.907 3.892-148.907 8.693 0 4.802 66.668 8.694 148.907 8.694z" fill="#F5F5F5"/>
  <path d="M258.708 307.207l-6.266.914-3.902-14.185 6.259-.914 3.909 14.185zM284.605 313.221h-6.32l-1.79-14.63h6.321l1.789 14.63z" fill="#FFC3BD"/>
  <path d="M277.455 312.491h7.68a.564.564 0 01.546.431l1.305 5.614a.924.924 0 01-.51 1.035.927.927 0 01-.404.086c-2.48-.038-4.293-.184-7.411-.184-1.92 0-7.68.199-10.36.199-2.681 0-3.026-2.626-1.943-2.864 4.861-1.06 8.509-2.527 10.053-3.933.288-.254.66-.391 1.044-.384zM251.965 306.386l6.259-2.949a.57.57 0 01.676.161l3.564 4.516a.917.917 0 01.176.782.904.904 0 01-.514.616c-2.304 1.021-5.599 2.426-8.448 3.763a59.977 59.977 0 01-7.473 3.072c-2.442.891-4.032-1.321-3.072-1.913 4.286-2.695 4.946-2.749 7.68-6.912a2.96 2.96 0 011.152-1.136z" fill="#263238"/>
  <path opacity=".2" d="M248.54 293.944l2.012 7.312 6.267-.914-2.012-7.312-6.267.914zM282.816 298.591h-6.321l.929 7.541h6.313l-.921-7.541z" fill="#000"/>
  <path d="M247.98 300.157l10.606-1.536s-7.803-39.06-5.998-58.652c.553-5.952 1.651-11.52 3.61-20.382 2.48-11.183 5.591-23.263 8.141-32.717 2.688-9.984 4.738-17.019 4.738-17.019l-22.164-1.713s-10.176 50.688-10.752 69.957c-.669 20.014 11.819 62.062 11.819 62.062z" fill="#00A688"/>
  <path opacity=".3" d="M247.98 300.157l10.606-1.536s-7.803-39.06-5.998-58.652c.553-5.952 1.651-11.52 3.61-20.382 2.48-11.183 5.591-23.263 8.141-32.717 2.688-9.984 4.738-17.019 4.738-17.019l-22.164-1.713s-10.176 50.688-10.752 69.957c-.669 20.014 11.819 62.062 11.819 62.062z" fill="#000"/>
  <path opacity=".2" d="M256.198 219.571c2.48-11.182 5.591-23.263 8.14-32.717l-2.304-4.977c-5.522 6.49-6.927 26.696-5.836 37.694z" fill="#000"/>
  <path d="M258.87 169.044s2.511 54.106 5.223 72.446c2.964 20.083 10.391 63.183 10.391 63.183h11.573s-4.492-53.529-5.506-64.036c-2.166-22.448.077-69.888.077-69.888l-21.758-1.705z" fill="#00A688"/>
  <path opacity=".3" d="M258.87 169.044s2.511 54.106 5.223 72.446c2.964 20.083 10.391 63.183 10.391 63.183h11.573s-4.492-53.529-5.506-64.036c-2.166-22.448.077-69.888.077-69.888l-21.758-1.705z" fill="#000"/>
  <path d="M273.101 304.927h13.632l-.047-4.071-15.229-.269 1.644 4.34zM246.682 300.595l12.649-1.843-.63-4.063-14.17 1.851 2.151 4.055z" fill="#263238"/>
  <path d="M275.382 313.59a1.896 1.896 0 01-1.221-.323.885.885 0 01-.315-.768.464.464 0 01.246-.422c.699-.361 2.749.898 2.98 1.037a.152.152 0 01.057.066.145.145 0 01.012.087.15.15 0 01-.035.078.14.14 0 01-.073.045 7.347 7.347 0 01-1.651.2zm-.952-1.306a.451.451 0 00-.192.038c-.046 0-.092.062-.092.177a.607.607 0 00.207.545c.346.285 1.175.323 2.243.108a6.138 6.138 0 00-2.166-.868z" fill="#00A688"/>
  <path d="M276.994 313.344a.116.116 0 01-.069 0c-.66-.353-1.935-1.743-1.812-2.442a.48.48 0 01.476-.392.772.772 0 01.637.192c.768.599.914 2.419.914 2.496a.13.13 0 01-.01.078.136.136 0 01-.051.06.154.154 0 01-.085.008zm-1.282-2.534h-.069c-.192 0-.208.115-.215.153-.077.415.768 1.459 1.39 1.959a3.591 3.591 0 00-.768-1.982.513.513 0 00-.338-.13zM251.782 307.43c-.837.622-2.373 1.613-3.264 1.36a.852.852 0 01-.569-.538.484.484 0 01-.034-.238.48.48 0 01.088-.223c.507-.722 3.372-.637 3.694-.63a.173.173 0 01.139.108.15.15 0 01-.001.089.153.153 0 01-.053.072zm-3.51.507v.038a.179.179 0 000 .185.568.568 0 00.376.361c.5.138 1.467-.246 2.635-1.052-1.175 0-2.65.115-3.011.499v-.031z" fill="#00A688"/>
  <path d="M251.782 307.43a.133.133 0 01-.1.046c-.845 0-2.803-.568-3.011-1.259-.046-.161 0-.4.331-.615.127-.077.269-.127.417-.148.148-.022.298-.013.443.025 1.013.254 1.904 1.713 1.943 1.775a.133.133 0 010 .146s-.016.023-.023.03zm-2.75-1.474c-.1.092-.077.153-.069.184.123.415 1.536.937 2.427 1.029a3.549 3.549 0 00-1.597-1.398.766.766 0 00-.638.093.409.409 0 00-.123.092z" fill="#00A688"/>
  <path d="M255.437 122.734a299.475 299.475 0 01-4.8 9.47l-4.93 9.369c-.768 1.536-1.644 3.072-2.396 4.608a13.587 13.587 0 01-2.197 3.187 9.127 9.127 0 01-3.97 2.496 8.927 8.927 0 01-2.381.354 9.979 9.979 0 01-2.143-.269 11.342 11.342 0 01-3.371-1.482 15.311 15.311 0 01-2.512-2.005c-.376-.361-.722-.768-1.052-1.121-.33-.353-.622-.768-.991-1.244l3.387-3.326.991.538c.346.184.699.361 1.044.522a13.14 13.14 0 002.02.768 4.618 4.618 0 001.659.215c.446 0 .661-.153.73-.292.069-.138.161-.238.322-.553.215-.437.405-.885.569-1.344.698-1.72 1.397-3.371 2.135-5.022a323.99 323.99 0 014.523-9.723c.768-1.605 1.536-3.211 2.381-4.793.845-1.582 1.613-3.179 2.465-4.754l8.517 4.401z" fill="#FFC3BD"/>
  <path d="M258.156 118.594c1.743 5.799-10.146 21.566-10.146 21.566l-12.142-7.818a76.248 76.248 0 018.279-14.185c4.915-6.298 12.096-5.929 14.009.437z" fill="#263238"/>
  <path opacity=".2" d="M250.368 126.528c-3.072 1.405-6.359 6.612-6.843 10.752l4.501 2.895a95.802 95.802 0 007.618-12.042c-.944-1.49-1.758-3.21-5.276-1.605z" fill="#000"/>
  <path d="M286.302 116.122a141.172 141.172 0 00-3.97 20.736 197.862 197.862 0 00-1.144 13.824c-.507 9.93-.269 17.502-.561 20.06l-33.715-2.604c-4.67-35.973 4.055-54.42 4.055-54.42a66.174 66.174 0 018.064-.937c.568 0 1.152-.046 1.743-.054 4.794.092 9.579.461 14.331 1.106.906.115 1.82.253 2.703.407a88.218 88.218 0 018.494 1.882z" fill="#263238"/>
  <path d="M263.654 117.343s2.266 1.359 3.072 5.737c2.727-1.16 9.831-6.006 9.884-9.454a12.747 12.747 0 00-2.181-1.805 38.416 38.416 0 01-10.775 5.522zM263.654 117.343a8.604 8.604 0 00-5.675 4.201c-2.742-1.168.468-8.272 2.457-9.093a5.702 5.702 0 012.742-.768s-2.45 4.661.476 5.66z" fill="#fff"/>
  <path d="M282.625 114.624l-5.607-1.728a.772.772 0 00-.96.438c-1.367 3.118-7.68 16.804-16.619 24.315a25.906 25.906 0 01.599-24.576.376.376 0 00-.159-.533.381.381 0 00-.202-.036l-7.419.653a.77.77 0 00-.714.676c-3.072 20.39-6.59 30.997-6.59 30.997 0 8.156.545 17.51.584 26.112a.904.904 0 00.906.906h34.645a.91.91 0 00.913-.876l1.022-25.006s-10.115-15.053.084-30.113a.765.765 0 00-.483-1.229z" fill="#00A688"/>
  <path opacity=".2" d="M258.87 172.032a.198.198 0 01-.129-.048.189.189 0 01-.063-.121 144.437 144.437 0 01.576-34.23.183.183 0 01.077-.127.198.198 0 01.069-.032.195.195 0 01.076-.002c.049.011.092.04.121.081.028.042.04.092.033.142a144.268 144.268 0 00-.568 34.122.2.2 0 01-.177.215h-.015z" fill="#000"/>
  <g opacity=".2" fill="#fff">
    <path opacity=".2" d="M281.634 114.317l-3.732-1.137c-7.634 14.984-10.176 34.046-7.557 56.679.099.867.199 1.758.199 1.981h3.84c0-.43-.069-1.052-.23-2.419-2.558-22.18-.046-40.72 7.48-55.104zM253.733 113.034c-4.801 15.299-6.267 34.353-4.37 56.679.084.998.161 1.866.161 2.127h3.84c0-.407-.054-1.083-.177-2.458-1.92-22.579-.338-41.648 4.7-56.709l-4.154.361z"/>
  </g>
  <path d="M274.776 97.582c-1.214 4.539-2.688 12.91.33 16.236a14.24 14.24 0 01-11.344 3.54c-3.962-.399-3.978-3.179-2.987-4.646 5.222-.83 5.376-4.654 4.692-8.302l9.309-6.828z" fill="#FFC3BD"/>
  <path opacity=".2" d="M270.981 100.37l-5.506 4.032c.168.85.258 1.714.268 2.58 1.99-.13 4.831-2.081 5.177-4.116a6.76 6.76 0 00.061-2.496z" fill="#000"/>
  <path d="M270.059 92.674c-7.718-2.303-12.887-7.503-13.655-12.61.953.922 5.86 1.213 5.86 1.213 3.072-1.413 9.216-.36 10.038 2.612 4.508-.945 4.485 9.638-2.243 8.785z" fill="#263238"/>
  <path d="M275.796 90.693c-.806 6.206-.96 9.884-4.331 12.849-5.069 4.447-12.588.991-13.655-5.376-.96-5.714.514-14.907 6.797-16.896a8.648 8.648 0 0111.189 9.423z" fill="#FFC3BD"/>
  <path d="M268.7 84.226c.545 3.195 2.258 8.917 6.229 10.752 7.081-2.304 8.363-8.663 3.54-10.106-4.823-1.444-10.245-3.464-9.769-.646z" fill="#263238"/>
  <path d="M273.846 90.324c-7.68-2.473-13.563-6.827-13.433-12.84.937.936 3.495 1.62 3.495 1.62 1.536-1.928 16.458-2.174 15.636 7.488 2.657.192 1.014 4.7-5.698 3.732z" fill="#263238"/>
  <path d="M277.763 85.64s1.766-2.612 5.207.2a29.665 29.665 0 00-5.207-.2z" fill="#263238"/>
  <path d="M278.017 85.417s2.534.36 2.734-3.249a25.285 25.285 0 01-2.734 3.249z" fill="#263238"/>
  <path d="M277.848 96.054a5.864 5.864 0 01-3.165 3.24c-1.92.769-3.156-.867-2.841-2.826.276-1.758 1.613-4.285 3.648-4.254a2.69 2.69 0 012.215 1.284 2.705 2.705 0 01.143 2.556z" fill="#FFC3BD"/>
  <path d="M266.204 91.7c0 .506-.33.898-.66.875-.33-.023-.576-.461-.545-.968.03-.507.33-.899.668-.876.338.023.576.461.537.968zM260.46 91.254c-.039.507-.331.898-.669.875-.338-.023-.568-.46-.537-.967.03-.507.33-.899.66-.876.33.023.576.46.546.968z" fill="#263238"/>
  <path d="M262.264 91.653a17.523 17.523 0 01-2.749 3.993 2.998 2.998 0 002.388.6l.361-4.593z" fill="#ED847E"/>
  <path d="M264.961 99.756a3.84 3.84 0 01-.661 0 .146.146 0 010-.292 4.017 4.017 0 003.395-1.321.146.146 0 01.207 0 .169.169 0 010 .215 4.185 4.185 0 01-2.941 1.398zM268.101 89.987a.324.324 0 01-.269-.139 2.42 2.42 0 00-1.843-1.144.315.315 0 01-.307-.3.3.3 0 01.299-.299 2.986 2.986 0 012.35 1.42.298.298 0 01-.084.415.462.462 0 01-.146.047zM258.117 89.088a.323.323 0 01-.169 0 .31.31 0 01-.115-.415 2.982 2.982 0 012.258-1.536.317.317 0 01.323.284.29.29 0 01-.17.289.29.29 0 01-.114.026 2.304 2.304 0 00-1.774 1.221.3.3 0 01-.239.131z" fill="#263238"/>
  <path d="M228.335 142.771l-5.177-3.84-1.359 7.012s4.823 3.133 6.336.584l.2-3.756z" fill="#FFC3BD"/>
  <path d="M216.799 138.371l.883 6.428 4.116 1.159 1.36-7.011-6.359-.576zM289.421 120.338c1.298 1.805 2.396 3.548 3.525 5.376a94.65 94.65 0 013.179 5.56 68.064 68.064 0 012.796 5.929 36.06 36.06 0 012.081 6.751c.283 1.425.361 2.884.23 4.331a9.65 9.65 0 01-.706 2.796 8.117 8.117 0 01-.86 1.536c-.064.098-.136.19-.215.276l-.192.215-.377.431a13.114 13.114 0 01-3.509 2.634 15.216 15.216 0 01-3.756 1.382c-2.346.52-4.759.663-7.15.423a30.11 30.11 0 01-3.379-.538 27.083 27.083 0 01-3.287-.914l.96-4.646c3.679-.054 7.68-.461 10.56-1.705a9.714 9.714 0 001.866-1.06 5.77 5.77 0 001.213-1.244l.108-.169.054-.085s0-.061 0 0c0 .062-.092.138-.123.162-.031.023 0 0 0-.192a8.58 8.58 0 00-.284-1.767 28.381 28.381 0 00-1.828-4.869c-.768-1.69-1.682-3.395-2.627-5.092-.944-1.697-1.958-3.379-2.98-5.061-1.021-1.682-2.135-3.371-3.156-4.938l7.857-5.522z" fill="#FFC3BD"/>
  <path d="M286.303 116.121c5.783 1.79 12.856 18.432 12.856 18.432l-14.07 6.49a51.64 51.64 0 01-5.422-12.91c-.691-2.581 1.575-13.571 6.636-12.012z" fill="#263238"/>
  <path d="M276.292 144.803l-56.452-7.372-6.228 47.687 56.453 7.372 6.227-47.687z" fill="#F99942"/>
  <path opacity=".05" d="M236.575 139.615l-16.738-2.186-6.227 47.687 16.738 2.186 6.227-47.687z" fill="#000"/>
  <path d="M280.182 152.478l-5.023-3.97-1.858 7.887s5.023 2.419 6.589-.123l.292-3.794z" fill="#FFC3BD"/>
  <path d="M269.907 148.478l-1.229 6.597 4.623 1.321 1.859-7.888-5.253-.03z" fill="#FFC3BD"/>
  <path d="M217.267 262.111h-68.129v57.554h68.129v-57.554z" fill="#00A688"/>
  <path opacity=".1" d="M169.336 262.111h-20.198v57.554h20.198v-57.554z" fill="#000"/>
  <path d="M177.815 147.003h-68.129v57.554h68.129v-57.554z" fill="#00A688"/>
  <path opacity=".1" d="M138.263 147.003h-28.577v57.554h28.577v-57.554z" fill="#000"/>
  <path d="M73.459 319.672h68.129V204.557h-68.13v115.115z" fill="#00A688"/>
  <path opacity=".1" d="M125.184 240.891c2.15 16.32 11.558 20.606 16.373 41.065v-59.297c-9.968-10.384-18.501 1.904-16.373 18.232zM102.305 218.826a11.298 11.298 0 01-5.138 13.187c-4.485 2.542-9.592.123-13.14-4.224s-1.375-10.898 3.072-13.448c4.447-2.55 13.686-.914 15.206 4.485zM80.886 293.376c-6.344-19.162 1.574-44.168 16.543-48.492 14.968-4.324 21.089 7.788 23.961 14.7 12.196 11.12 16.574 40.251 0 47.885-5.222 7.365-34.16 5.061-40.504-14.093z" fill="#fff"/>
  <path opacity=".1" d="M121.39 204.557H73.459v115.115h47.931V204.557z" fill="#000"/>
  <path d="M223.119 204.557h-57.554v57.554h57.554v-57.554z" fill="#00A688"/>
  <path opacity=".4" d="M223.119 204.557h-57.554v57.554h57.554v-57.554z" fill="#fff"/>
  <path d="M124.223 199.025c7.378-7.378 7.378-19.341 0-26.719s-19.34-7.378-26.718 0-7.378 19.341 0 26.719 19.34 7.378 26.718 0z" fill="#00A688"/>
  <path opacity=".4" d="M124.223 199.025c7.378-7.378 7.378-19.341 0-26.719s-19.34-7.378-26.718 0-7.378 19.341 0 26.719 19.34 7.378 26.718 0z" fill="#000"/>
</svg>
