<svg width="256" height="256" viewBox="0 0 256 256" fill="none" xmlns="http://www.w3.org/2000/svg">
<path d="M199.68 49.188C169.733 34.7598 144.66 56.356 138.557 74.788C132.454 93.22 120.945 100.9 107.064 94.3361C93.184 87.7723 69.5398 60.4161 39.6954 82.9441C9.85088 105.472 54.2157 156.462 116.255 170.496C150.159 178.176 197.914 183.864 215.916 139.07C226.647 112.343 223.811 60.8155 199.68 49.188Z" fill="#F99942"/>
<g opacity="0.9">
<path opacity="0.8" d="M199.68 49.188C169.733 34.7598 144.66 56.356 138.557 74.788C132.454 93.22 120.945 100.9 107.064 94.3361C93.184 87.7723 69.5398 60.4161 39.6954 82.9441C9.85088 105.472 54.2157 156.462 116.255 170.496C150.159 178.176 197.914 183.864 215.916 139.07C226.647 112.343 223.811 60.8155 199.68 49.188Z" fill="white"/>
</g>
<path d="M127.007 218.911C181.833 218.911 226.278 216.316 226.278 213.115C226.278 209.914 181.833 207.319 127.007 207.319C72.1806 207.319 27.7351 209.914 27.7351 213.115C27.7351 216.316 72.1806 218.911 127.007 218.911Z" fill="#F5F5F5"/>
<path d="M142.985 48.9011H73.8902C69.6487 48.9011 66.2102 52.3396 66.2102 56.5811V200.73C66.2102 204.971 69.6487 208.41 73.8902 208.41H142.985C147.226 208.41 150.665 204.971 150.665 200.73V56.5811C150.665 52.3396 147.226 48.9011 142.985 48.9011Z" fill="#263238"/>
<path d="M145.207 59.5354H71.6733V187.822H145.207V59.5354Z" fill="#00A688"/>
<path opacity="0.3" d="M145.207 175.104H71.6733V187.817H145.207V175.104Z" fill="white"/>
<path opacity="0.1" d="M145.207 112.323C126.514 130.913 91.8973 165.688 71.6733 186.051V187.843H112.761L145.207 155.402V112.323Z" fill="white"/>
<path opacity="0.1" d="M71.6733 124.047L136.185 59.5354H106.018C98.0311 67.4612 84.3863 81.1316 71.6733 93.8906V124.047Z" fill="white"/>
<path opacity="0.1" d="M71.6733 151.014L145.207 77.4808V61.7471L71.6733 135.275V151.014Z" fill="white"/>
<path opacity="0.2" d="M145.207 59.5354H71.6733V65.321H145.207V59.5354Z" fill="black"/>
<path d="M109.251 201.57C111.984 201.126 113.839 198.551 113.396 195.819C112.952 193.086 110.377 191.231 107.645 191.674C104.912 192.118 103.057 194.692 103.5 197.425C103.944 200.158 106.518 202.013 109.251 201.57Z" fill="#4F4F4F"/>
<g opacity="0.6">
<path opacity="0.6" d="M79.6243 63.7542H80.7354V62.2694H79.6243V63.7542Z" fill="white"/>
<path opacity="0.6" d="M77.8121 63.7542H78.9231V61.7778H77.8121V63.7542Z" fill="white"/>
<path opacity="0.6" d="M75.9996 63.7542H77.1106V61.2812H75.9996V63.7542Z" fill="white"/>
<path opacity="0.6" d="M74.1871 63.7542H75.2981V60.7846H74.1871V63.7542Z" fill="white"/>
</g>
<path opacity="0.6" d="M137.404 61.7268H136.743V63.2116H137.404V61.7268Z" fill="white"/>
<path opacity="0.6" d="M137.859 63.7542H143.118V61.189H137.859V63.7542Z" fill="white"/>
<path opacity="0.4" d="M112.101 136.192C110.416 134.656 108.44 136.704 108.44 136.704C108.44 136.704 106.469 134.656 104.779 136.166C102.373 138.322 105.87 142.177 108.44 142.95C111.01 142.198 114.507 138.342 112.101 136.192Z" fill="white"/>
<path opacity="0.7" d="M109.152 150.263C124.834 150.263 137.547 137.55 137.547 121.867C137.547 106.185 124.834 93.4719 109.152 93.4719C93.4692 93.4719 80.7561 106.185 80.7561 121.867C80.7561 137.55 93.4692 150.263 109.152 150.263Z" fill="white"/>
<path d="M119.335 104.506C119.335 104.506 125.136 113.087 128.393 113.435C131.649 113.783 144.387 102.826 144.387 102.826L146.548 104.695C146.548 104.695 134.429 118.007 129.37 118.785C124.312 119.563 114.697 109.538 114.697 109.538L119.335 104.506Z" fill="#E4897B"/>
<path d="M117.953 105.146C117.953 105.146 120.001 103.139 122.817 106.625C125.633 110.112 126.79 110.824 126.79 110.824L119.622 117.823C119.622 117.823 115.408 107.009 117.953 105.146Z" fill="#00A688"/>
<path d="M143.379 102.033C143.379 102.033 143.63 98.8121 144.377 98.6073C145.125 98.4025 144.859 100.783 144.859 100.783C144.859 100.783 148.801 98.3769 149.595 98.592C150.388 98.807 150.26 100.363 150.107 100.783C148.903 104.367 144.603 105.852 144.603 105.852L142.867 104.214L143.379 102.033Z" fill="#E4897B"/>
<path d="M113.816 95.9861C113.816 95.9861 117.774 102.581 116.56 106.738C115.347 110.896 109.105 107.158 109.105 107.158L109.182 98.9659L113.816 95.9861Z" fill="#263238"/>
<path d="M103.202 84.6196C103.202 84.6196 97.35 87.5841 99.6489 98.0135C103.499 115.498 109.182 108.254 109.182 108.254C109.182 108.254 108.931 101.362 106.622 98.0135C104.313 94.6651 104.794 89.8881 104.794 89.8881L103.202 84.6196Z" fill="#263238"/>
<path d="M120.175 130.812L102.629 132.348C102.459 127.999 101.832 123.679 100.76 119.461C100.34 117.782 99.8177 115.903 99.1419 113.737C98.7784 112.575 98.379 111.33 97.9336 109.994C97.6008 108.97 97.2373 107.9 96.8379 106.758C99.2212 105.996 101.656 105.406 104.124 104.992C106.725 104.526 109.357 104.249 111.998 104.162C115.413 104.132 119.335 104.516 119.335 104.516C119.335 104.516 119.893 104.649 120.247 108.269C120.564 111.648 120.876 118.452 120.175 130.812Z" fill="#00A688"/>
<path opacity="0.2" d="M120.175 130.812L102.629 132.348C102.459 127.999 101.832 123.679 100.76 119.461C100.34 117.782 99.8177 115.903 99.1419 113.737C98.7784 112.575 98.379 111.33 97.9336 109.994C97.6008 108.97 97.2373 107.9 96.8379 106.758C99.2212 105.996 101.656 105.406 104.124 104.992C106.725 104.526 109.357 104.249 111.998 104.162C115.413 104.132 119.335 104.516 119.335 104.516C119.335 104.516 119.893 104.649 120.247 108.269C120.564 111.648 120.876 118.452 120.175 130.812Z" fill="white"/>
<path opacity="0.2" d="M102.552 131.012C105.363 129.916 114.63 125.38 114.63 125.38L102.342 128.155C102.398 129.087 102.475 130.029 102.552 131.012Z" fill="black"/>
<path d="M110.554 108.023C106.228 107.47 104.922 105.627 104.922 105.627C107.667 103.036 105.388 98.551 105.388 98.551L110.59 99.5238C110.471 100.249 110.404 100.981 110.391 101.715C110.35 104.874 111.778 104.905 111.778 104.905C112.695 106.615 110.554 108.023 110.554 108.023Z" fill="#E4897B"/>
<path opacity="0.2" d="M110.595 99.5238C110.476 100.249 110.41 100.981 110.396 101.715C106.878 101.715 105.394 98.551 105.394 98.551L110.595 99.5238Z" fill="black"/>
<path d="M108.261 84.9523C112.787 84.7015 113.811 86.8723 114.405 91.5162C115.142 97.3223 114.098 101.72 108.373 100.788C102.091 99.7645 100.33 89.8163 104.108 86.0122C104.994 85.1111 106.822 85.024 108.261 84.9523Z" fill="#E4897B"/>
<path d="M111.481 92.105C111.88 92.7606 112.356 93.3657 112.899 93.9072C112.778 94.1017 112.605 94.2588 112.4 94.3609C112.195 94.4631 111.965 94.5063 111.737 94.4858L111.481 92.105Z" fill="#DE5753"/>
<path d="M108.742 91.5826C108.933 91.4858 109.088 91.3295 109.182 91.1372L108.399 91.5161C108.285 91.5825 108.194 91.6826 108.139 91.8027C108.084 91.9228 108.067 92.057 108.092 92.1868C108.117 92.5606 108.343 92.8422 108.604 92.8268C108.865 92.8114 109.029 92.4889 109.003 92.1202C108.99 91.9136 108.897 91.7203 108.742 91.5826Z" fill="#263238"/>
<path d="M113.135 91.1679C113.326 91.071 113.481 90.9147 113.575 90.7224L112.797 91.1013C112.683 91.169 112.591 91.2698 112.536 91.3906C112.48 91.5113 112.462 91.6461 112.485 91.7771C112.515 92.1509 112.741 92.4325 112.997 92.412C113.253 92.3915 113.422 92.0792 113.391 91.7055C113.388 91.603 113.363 91.5024 113.319 91.4099C113.275 91.3173 113.212 91.2349 113.135 91.1679Z" fill="#263238"/>
<path d="M108.737 89.4938C108.377 89.4709 108.016 89.5304 107.683 89.6679C107.349 89.8055 107.051 90.0173 106.812 90.2874" stroke="#263238" stroke-width="0.707336" stroke-linecap="round" stroke-linejoin="round"/>
<path d="M111.486 89.3094C111.765 89.1523 112.075 89.0601 112.394 89.0397C112.714 89.0193 113.033 89.0712 113.33 89.1916" stroke="#263238" stroke-width="0.707336" stroke-linecap="round" stroke-linejoin="round"/>
<path d="M100.919 106.103C100.919 106.103 105.998 110.225 110.724 110.158C115.449 110.091 117.113 104.777 117.113 104.777C117.113 104.777 109.781 102.606 100.919 106.103Z" fill="#E4897B"/>
<path d="M93.4488 116.394C93.4488 116.394 91.8513 125.815 92.0408 128.498C92.2302 131.181 96.2852 131.263 98.5688 130.991C101.195 130.679 114.891 125.262 114.891 125.262L114.256 122.554C114.256 122.554 103.535 125.472 98.9681 125.984C98.7547 126.006 98.5392 125.979 98.3379 125.904C98.1366 125.83 97.955 125.711 97.8068 125.556C97.6586 125.401 97.5478 125.214 97.4829 125.01C97.4179 124.805 97.4006 124.589 97.4321 124.376L98.492 117.382L93.4488 116.394Z" fill="#E4897B"/>
<path d="M96.838 106.738C96.838 106.738 99.6386 106.118 100.181 110.568C100.51 113.262 100.158 115.996 99.1574 118.519L92.061 117.239C92.061 117.239 93.6943 106.968 96.838 106.738Z" fill="#00A688"/>
<path d="M117.753 119.84C117.578 119.734 117.372 119.692 117.17 119.722C116.33 119.937 113.78 122.461 113.632 122.794L114.287 125.185C114.287 125.185 115.628 125.902 116.279 125.697C116.929 125.492 120.226 123.066 120.231 122.482C120.235 122.45 120.235 122.417 120.231 122.385C120.349 122.298 120.446 122.226 120.513 122.185C121.071 121.837 119.008 120.296 117.753 119.84Z" fill="#E4897B"/>
<path d="M107.995 84.9678C107.995 84.9678 108.573 90.6407 103.842 90.8455C99.1115 91.0503 103.064 85.7614 103.064 85.7614L107.995 84.9678Z" fill="#263238"/>
<path d="M106.981 83.2167C99.2034 83.4624 99.8485 94.8391 104.052 98.0135C104.052 98.0135 102.004 95.2589 103.192 92.8627C103.192 92.8627 104.728 89.1559 104.216 86.304C105.418 85.7822 106.695 85.4522 108 85.3261C108.875 86.3911 111.072 89.6269 113.949 89.5603C114.115 90.062 114.243 90.5755 114.333 91.0963C114.333 91.0963 114.768 82.976 106.981 83.2167Z" fill="#263238"/>
<path d="M112.659 96.6668C112.219 96.9009 111.73 97.0276 111.232 97.0365C110.733 97.0454 110.24 96.9363 109.792 96.718C109.779 96.7111 109.768 96.7017 109.759 96.6905C109.75 96.6792 109.744 96.6663 109.74 96.6524C109.736 96.6386 109.735 96.6241 109.737 96.6099C109.739 96.5957 109.744 96.5819 109.751 96.5695C109.757 96.5573 109.765 96.5464 109.775 96.5376C109.786 96.5288 109.798 96.5223 109.811 96.5184C109.824 96.5146 109.838 96.5135 109.851 96.5152C109.864 96.517 109.877 96.5215 109.889 96.5286C110.306 96.7283 110.765 96.8272 111.227 96.8174C111.689 96.8076 112.143 96.6894 112.551 96.4723C112.576 96.4592 112.605 96.4562 112.631 96.4639C112.658 96.4715 112.681 96.4892 112.695 96.5132C112.708 96.537 112.71 96.5649 112.703 96.5908C112.695 96.6167 112.678 96.6385 112.654 96.6515L112.659 96.6668Z" fill="#263238"/>
<path d="M103.986 93.7791C103.913 93.2578 103.637 92.7866 103.217 92.4689C102.798 92.1512 102.27 92.0129 101.748 92.0843C100.356 92.3096 99.8435 95.228 103.371 95.7298C103.873 95.8015 104.129 95.2946 103.986 93.7791Z" fill="#E4897B"/>
<path d="M103.458 114.469L108.169 113.803C108.169 113.803 109.705 118.826 106.909 119.364C103.852 119.958 103.458 114.469 103.458 114.469Z" fill="#00A688"/>
<path d="M121.204 141.534C120.969 139.209 120.6 136.045 120.129 133.557L120.175 130.812L102.629 132.348L102.47 134.908C102.06 135.666 100.268 139.419 99.4595 148.599C103.108 149.923 106.99 150.485 110.864 150.251C114.739 150.016 118.525 148.991 121.987 147.237L121.204 141.534Z" fill="#263238"/>
<path d="M175.702 113.06L166.778 115.323C166.089 114.897 165.27 114.73 164.469 114.852C163.204 115.088 160.04 117.673 160.163 118.052C160.286 118.431 164.1 120.187 164.648 120.044C166.614 119.532 168.642 117.243 168.642 117.243L176.619 115.6L175.702 113.06Z" fill="#E4897B"/>
<path d="M198.056 80.9676C196.243 82.8979 191.441 82.734 191.441 82.734C191.441 82.734 189.859 82.8723 189.465 81.5308C191.2 81.1007 191.467 79.8515 191.738 78.7711C191.871 78.1036 191.871 77.4163 191.738 76.7487C191.682 76.3723 191.603 75.9995 191.502 75.6326L197.078 70.7839C196.561 73.7279 196.008 79.022 198.056 80.9676Z" fill="#E4897B"/>
<path opacity="0.2" d="M195.962 73.6768C196.008 77.2608 193.167 78.4588 191.753 78.7712C191.887 78.1036 191.887 77.4163 191.753 76.7488L195.962 73.6768Z" fill="black"/>
<path d="M196.423 74.4653C195.881 75.4246 195.038 76.1792 194.025 76.6131C193.012 77.0469 191.885 77.136 190.816 76.8666C189.427 76.5477 188.212 75.7085 187.422 74.5216C187.309 74.3577 187.206 74.1867 187.115 74.0096C185.399 70.743 184.473 64.8704 187.872 62.3718C188.62 61.8109 189.499 61.4516 190.426 61.3284C191.352 61.2051 192.295 61.3221 193.163 61.6681C194.031 62.0141 194.796 62.5774 195.384 63.304C195.972 64.0307 196.363 64.8962 196.52 65.8176C197.257 69.7344 197.882 72.0026 196.423 74.4653Z" fill="#E4897B"/>
<path d="M190.699 68.6335C190.753 68.7529 190.759 68.8884 190.716 69.0122C190.673 69.136 190.584 69.2387 190.468 69.2991C190.263 69.3503 190.033 69.1353 189.956 68.8229C189.879 68.5106 189.982 68.2085 190.187 68.1573C190.391 68.1061 190.617 68.3161 190.699 68.6335Z" fill="#263238"/>
<path d="M187.243 69.3608C187.345 69.668 187.217 69.9752 187.017 70.0264C186.818 70.0776 186.577 69.8625 186.505 69.5502C186.434 69.2379 186.531 68.9358 186.736 68.8846C186.941 68.8334 187.166 69.0638 187.243 69.3608Z" fill="#263238"/>
<path d="M188.487 69.458C188.389 70.4871 188.146 71.4972 187.765 72.4583C188.277 72.6631 188.994 72.3406 189.48 72.0743L188.487 69.458Z" fill="#DE5753"/>
<path d="M191.723 66.9544C191.69 66.9671 191.655 66.9709 191.621 66.9655C191.587 66.9601 191.555 66.9457 191.528 66.9237C191.345 66.7699 191.128 66.6611 190.895 66.606C190.662 66.5509 190.419 66.551 190.187 66.6062C190.162 66.6168 190.136 66.6221 190.11 66.622C190.084 66.6218 190.058 66.6162 190.034 66.6054C190.009 66.5946 189.988 66.5789 189.97 66.5593C189.953 66.5397 189.939 66.5167 189.931 66.4917C189.923 66.4666 189.92 66.4401 189.923 66.4139C189.925 66.3877 189.933 66.3623 189.946 66.3393C189.959 66.3164 189.977 66.2964 189.998 66.2806C190.019 66.2649 190.043 66.2537 190.069 66.2478C190.361 66.1734 190.667 66.1689 190.961 66.2347C191.256 66.3006 191.531 66.4349 191.764 66.6267C191.783 66.6418 191.8 66.6607 191.813 66.6822C191.825 66.7038 191.834 66.7277 191.837 66.7524C191.84 66.7771 191.839 66.8023 191.832 66.8264C191.826 66.8505 191.815 66.8732 191.799 66.893C191.777 66.9176 191.751 66.9383 191.723 66.9544Z" fill="#263238"/>
<path d="M190.212 73.6256C190.678 73.5759 191.126 73.4163 191.518 73.16C191.911 72.9036 192.237 72.5579 192.47 72.1511C192.476 72.1394 192.48 72.1266 192.481 72.1134C192.482 72.1003 192.48 72.0871 192.475 72.0746C192.471 72.0622 192.464 72.0508 192.456 72.041C192.447 72.0313 192.436 72.0234 192.424 72.018C192.413 72.0118 192.401 72.008 192.388 72.0068C192.376 72.0056 192.363 72.0069 192.351 72.0107C192.339 72.0146 192.328 72.0208 192.319 72.0291C192.309 72.0374 192.301 72.0475 192.296 72.0589C192.075 72.4331 191.769 72.7506 191.404 72.9861C191.039 73.2216 190.624 73.3687 190.192 73.4157C190.178 73.4163 190.165 73.4197 190.153 73.4255C190.142 73.4313 190.131 73.4395 190.122 73.4496C190.114 73.4597 190.107 73.4714 190.103 73.4841C190.099 73.4967 190.098 73.5101 190.099 73.5232C190.101 73.5361 190.105 73.5485 190.111 73.5598C190.117 73.5711 190.125 73.5811 190.135 73.5892C190.145 73.5973 190.157 73.6033 190.169 73.607C190.181 73.6106 190.194 73.6117 190.207 73.6103L190.212 73.6256Z" fill="#263238"/>
<path d="M185.502 68.4443C185.472 68.4691 185.433 68.4819 185.394 68.4802C185.37 68.4759 185.347 68.4668 185.326 68.4533C185.305 68.4398 185.287 68.4222 185.273 68.4017C185.259 68.3811 185.25 68.358 185.245 68.3336C185.24 68.3093 185.241 68.2843 185.246 68.26C185.301 67.9623 185.426 67.6821 185.612 67.4426C185.797 67.2031 186.037 67.0111 186.311 66.8827C186.334 66.8736 186.359 66.8692 186.384 66.8697C186.409 66.8701 186.433 66.8755 186.456 66.8855C186.479 66.8955 186.499 66.9099 186.517 66.9279C186.534 66.9458 186.547 66.967 186.557 66.9903C186.566 67.0135 186.57 67.0382 186.57 67.0631C186.569 67.088 186.564 67.1126 186.554 67.1354C186.544 67.1583 186.529 67.1789 186.511 67.1962C186.493 67.2134 186.472 67.227 186.449 67.236C186.235 67.3433 186.049 67.4992 185.906 67.6913C185.763 67.8833 185.666 68.1061 185.625 68.3419C185.612 68.3666 185.595 68.3884 185.574 68.406C185.553 68.4236 185.528 68.4367 185.502 68.4443Z" fill="#263238"/>
<path d="M198.998 68.557C198.788 69.5399 198.2 70.4007 197.36 70.9531C196.238 71.6699 195.312 70.7637 195.271 69.5042C195.271 68.3829 195.824 66.6216 197.109 66.4322C198.394 66.2427 199.234 67.3486 198.998 68.557Z" fill="#E4897B"/>
<path d="M181.365 84.0091C179.446 85.8359 178.035 88.1294 177.269 90.6651C176.306 93.7371 175.405 100.972 174.965 104.899C174.872 105.657 174.538 106.365 174.012 106.919C173.485 107.472 172.794 107.841 172.041 107.971L161.259 109.85L162.119 115.333L175.779 114.017C177.241 113.877 178.618 113.268 179.707 112.282C180.795 111.296 181.536 109.985 181.82 108.544C182.655 104.32 183.771 98.1967 184.278 93.348C185.138 85.1099 184.232 83.1592 181.365 84.0091Z" fill="#00A688"/>
<path opacity="0.1" d="M181.365 84.0091C179.446 85.8359 178.035 88.1294 177.269 90.6651C176.306 93.7371 175.405 100.972 174.965 104.899C174.872 105.657 174.538 106.365 174.012 106.919C173.485 107.472 172.794 107.841 172.041 107.971L161.259 109.85L162.119 115.333L175.779 114.017C177.241 113.877 178.618 113.268 179.707 112.282C180.795 111.296 181.536 109.985 181.82 108.544C182.655 104.32 183.771 98.1967 184.278 93.348C185.138 85.1099 184.232 83.1592 181.365 84.0091Z" fill="black"/>
<path d="M173.792 205.875L169.737 204.877L172.046 196.188L176.101 197.187L173.792 205.875Z" fill="#E4897B"/>
<path d="M169.778 203.474L174.386 205.133C174.462 205.16 174.525 205.213 174.566 205.282C174.607 205.351 174.623 205.432 174.611 205.512L174.145 209.152C174.124 209.309 174.041 209.45 173.916 209.546C173.79 209.642 173.631 209.684 173.475 209.664C173.431 209.658 173.388 209.646 173.347 209.628C171.867 209.07 170.817 208.604 168.949 207.913C167.797 207.493 164.279 206.377 162.692 205.788C161.105 205.199 161.463 203.571 162.18 203.658C165.329 204.078 167.843 203.991 169.077 203.489C169.3 203.397 169.551 203.391 169.778 203.474Z" fill="#2E353A"/>
<path d="M168.283 203.684C168.018 203.614 167.786 203.452 167.628 203.228C167.58 203.145 167.555 203.05 167.555 202.954C167.555 202.858 167.58 202.764 167.628 202.68C167.645 202.628 167.678 202.581 167.722 202.547C167.765 202.512 167.818 202.491 167.874 202.486C168.386 202.419 169.323 203.612 169.41 203.75C169.421 203.765 169.428 203.783 169.428 203.802C169.428 203.82 169.421 203.838 169.41 203.853C169.402 203.87 169.389 203.885 169.372 203.894C169.355 203.903 169.336 203.907 169.317 203.904C168.966 203.868 168.619 203.795 168.283 203.684ZM168.002 202.696C167.961 202.685 167.919 202.685 167.879 202.696C167.879 202.696 167.812 202.696 167.781 202.778C167.752 202.835 167.737 202.898 167.737 202.962C167.737 203.026 167.752 203.089 167.781 203.146C168.138 203.49 168.612 203.688 169.107 203.699C168.806 203.297 168.431 202.957 168.002 202.696Z" fill="#00A688"/>
<path d="M169.302 203.899H169.256C168.944 203.546 168.488 202.44 168.708 202.071C168.745 202.009 168.803 201.962 168.871 201.938C168.939 201.913 169.014 201.913 169.082 201.938C169.154 201.953 169.221 201.983 169.281 202.026C169.34 202.069 169.389 202.125 169.425 202.189C169.732 202.701 169.425 203.827 169.425 203.884C169.42 203.9 169.411 203.914 169.398 203.925C169.385 203.936 169.37 203.943 169.353 203.945C169.342 203.941 169.331 203.936 169.323 203.928C169.314 203.92 169.307 203.91 169.302 203.899ZM169.092 202.092H169.051C168.933 202.051 168.903 202.117 168.887 202.138C168.749 202.368 169.005 203.162 169.287 203.607C169.425 203.169 169.425 202.699 169.287 202.261C169.268 202.22 169.24 202.185 169.207 202.156C169.174 202.127 169.134 202.105 169.092 202.092Z" fill="#00A688"/>
<path opacity="0.2" d="M176.102 197.187L172.046 196.188L170.859 200.673L174.914 201.667L176.102 197.187Z" fill="black"/>
<path d="M200.642 205.834L196.494 206.326L195.598 197.381L199.746 196.89L200.642 205.834Z" fill="#E4897B"/>
<path d="M196.039 205L200.928 204.933C201.009 204.934 201.087 204.961 201.151 205.011C201.214 205.061 201.258 205.131 201.277 205.21L202.116 208.794C202.15 208.948 202.122 209.109 202.037 209.242C201.953 209.375 201.819 209.47 201.666 209.506C201.621 209.511 201.577 209.511 201.533 209.506C199.95 209.506 198.798 209.418 196.812 209.444C195.588 209.444 191.902 209.634 190.212 209.659C188.523 209.685 188.277 208.01 188.968 207.852C192.04 207.135 194.385 206.167 195.368 205.261C195.549 205.09 195.79 204.996 196.039 205Z" fill="#2E353A"/>
<path d="M194.718 205.722C194.444 205.749 194.169 205.68 193.94 205.527C193.864 205.467 193.806 205.388 193.77 205.298C193.734 205.208 193.722 205.111 193.735 205.015C193.732 204.959 193.746 204.904 193.774 204.856C193.802 204.807 193.844 204.769 193.894 204.744C194.339 204.508 195.65 205.292 195.793 205.379C195.81 205.387 195.823 205.401 195.831 205.417C195.84 205.434 195.842 205.452 195.839 205.471C195.838 205.49 195.83 205.509 195.817 205.523C195.804 205.538 195.787 205.548 195.768 205.553C195.425 205.65 195.073 205.706 194.718 205.722ZM194.109 204.897C194.066 204.892 194.023 204.901 193.986 204.923C193.96 204.923 193.929 204.959 193.924 205.035C193.917 205.099 193.926 205.164 193.949 205.223C193.972 205.283 194.009 205.336 194.057 205.379C194.512 205.577 195.024 205.595 195.491 205.43C195.069 205.165 194.6 204.984 194.109 204.897Z" fill="#00A688"/>
<path d="M195.742 205.568H195.696C195.281 205.348 194.467 204.472 194.544 204.032C194.556 203.961 194.593 203.896 194.648 203.849C194.703 203.802 194.773 203.776 194.846 203.776C194.918 203.766 194.991 203.771 195.061 203.791C195.13 203.812 195.195 203.847 195.25 203.894C195.721 204.268 195.834 205.43 195.839 205.476C195.84 205.493 195.836 205.51 195.828 205.526C195.82 205.541 195.808 205.554 195.793 205.563L195.742 205.568ZM194.912 203.945H194.866C194.743 203.945 194.733 204.017 194.733 204.042C194.682 204.303 195.204 204.969 195.624 205.276C195.586 204.815 195.407 204.378 195.112 204.022C195.058 203.972 194.986 203.944 194.912 203.945Z" fill="#00A688"/>
<path opacity="0.2" d="M199.746 196.89L195.598 197.381L196.064 201.994L200.212 201.503L199.746 196.89Z" fill="black"/>
<path d="M181.354 124.088C181.354 124.088 170.92 175.104 170.562 194.693L177.514 197.801C177.514 197.801 183.177 175.667 185.015 163.231C185.015 163.231 189.89 153.354 191.2 145.311C191.2 145.311 190.929 180.639 194.59 199.281L201.113 198.769C201.113 198.769 207.692 132.495 206.504 121.887L181.354 124.088Z" fill="#00A688"/>
<path opacity="0.6" d="M181.354 124.088C181.354 124.088 170.92 175.104 170.562 194.693L177.514 197.801C177.514 197.801 183.177 175.667 185.015 163.231C185.015 163.231 189.89 153.354 191.2 145.311C191.2 145.311 190.929 180.639 194.59 199.281L201.113 198.769C201.113 198.769 207.692 132.495 206.504 121.887L181.354 124.088Z" fill="white"/>
<path opacity="0.2" d="M190.069 132.434C190.069 132.434 189.296 144.563 190.396 149.018C190.729 147.763 191.006 146.514 191.2 145.306L190.069 132.434Z" fill="black"/>
<path d="M193.76 200.76L202.715 199.429L202.439 196.951L193.131 198.17L193.76 200.76Z" fill="#00A688"/>
<path d="M169.384 196.603L178.032 199.265L178.856 196.915L169.932 193.992L169.384 196.603Z" fill="#00A688"/>
<path d="M181.365 84.0091C181.365 84.0091 182.471 81.8228 192.189 81.2596C201.906 80.6964 206.248 82.1352 206.248 82.1352C206.248 82.1352 205.367 102.707 206.494 121.892C206.494 121.892 190.243 127.683 181.344 124.088C181.355 124.088 174.688 99.2411 181.365 84.0091Z" fill="#00A688"/>
<path opacity="0.2" d="M195.67 81.1367C194.595 81.1367 193.438 81.1879 192.189 81.2596C191.436 81.3057 190.745 81.3569 190.094 81.4183C190.094 81.4183 190.924 82.9902 192.189 82.9902C192.877 82.9923 193.555 82.8241 194.162 82.5008C194.77 82.1774 195.288 81.7088 195.67 81.1367Z" fill="black"/>
<path opacity="0.3" d="M205.997 107.868L191.2 115.348C191.2 115.348 200.529 115.635 206.105 112.609C206.06 111.008 206.024 109.428 205.997 107.868Z" fill="black"/>
<path opacity="0.1" d="M191.999 87.0195L197.257 110.413L196.09 113.439L191.999 87.0195Z" fill="black"/>
<path d="M192.04 87.674L164.349 91.8696L168.359 118.334L196.049 114.138L192.04 87.674Z" fill="#00A688"/>
<path opacity="0.1" d="M192.04 87.674L164.349 91.8696L168.359 118.334L196.049 114.138L192.04 87.674Z" fill="white"/>
<path d="M171.172 90.238L149.75 93.5544L153.839 119.971L175.262 116.655L171.172 90.238Z" fill="#00A688"/>
<path opacity="0.3" d="M171.172 90.238L149.75 93.5544L153.839 119.971L175.262 116.655L171.172 90.238Z" fill="white"/>
<path opacity="0.3" d="M163.496 91.4234L157.434 92.3618L158.536 99.4758L164.597 98.5374L163.496 91.4234Z" fill="white"/>
<path opacity="0.1" d="M186.114 87.9278L180.052 88.8662L181.153 95.9802L187.215 95.0418L186.114 87.9278Z" fill="black"/>
<path opacity="0.2" d="M173.073 111.376L166.45 112.401L167.074 116.433L173.697 115.408L173.073 111.376Z" fill="white"/>
<path opacity="0.2" d="M183.418 115.139L182.737 114.238L180.541 114.709C180.424 115.082 180.378 115.475 180.407 115.866L183.479 115.395L183.418 115.139Z" fill="#2E353A"/>
<path d="M196.126 109.865L187.181 112.046C186.496 111.607 185.678 111.426 184.872 111.534C183.613 111.759 180.423 114.314 180.541 114.693C180.658 115.072 183.613 117.386 184.16 117.217C184.708 117.048 188.154 114.611 188.154 114.611L196.674 113.9L196.126 109.865Z" fill="#E4897B"/>
<path d="M205.68 82.1043C205.68 82.1043 201.922 83.1027 202.454 90.0761C202.69 93.1071 202.807 96.343 202.869 99.0361C202.906 100.838 202.43 102.613 201.496 104.154C200.562 105.695 199.209 106.939 197.595 107.74L190.253 110.74L191.2 115.348C191.2 115.348 201.87 114.371 205.623 111.37C209.376 108.37 210.682 101.965 210.073 96.6553C209.223 89.2825 209.504 81.8073 205.68 82.1043Z" fill="#00A688"/>
<path opacity="0.1" d="M205.68 82.1043C205.68 82.1043 201.922 83.1027 202.454 90.0761C202.69 93.1071 202.807 96.343 202.869 99.0361C202.906 100.838 202.43 102.613 201.496 104.154C200.562 105.695 199.209 106.939 197.595 107.74L190.253 110.74L191.2 115.348C191.2 115.348 201.87 114.371 205.623 111.37C209.376 108.37 210.682 101.965 210.073 96.6553C209.223 89.2825 209.504 81.8073 205.68 82.1043Z" fill="black"/>
<path d="M190.949 109.573L191.574 115.983L189.849 116.147L188.932 110.147L190.949 109.573Z" fill="#00A688"/>
<path opacity="0.6" d="M190.949 109.573L191.574 115.983L189.849 116.147L188.932 110.147L190.949 109.573Z" fill="white"/>
<path opacity="0.4" d="M199.974 91.9683L194.022 92.5005L194.107 93.449L200.058 92.9168L199.974 91.9683Z" fill="white"/>
<path d="M192.188 81.2596L194.114 83.8196L198.174 81.1418V80.8961C198.183 80.6812 198.142 80.4672 198.053 80.2714C197.964 80.0756 197.83 79.9037 197.662 79.7697C197.468 79.6502 197.247 79.5798 197.02 79.5646C196.792 79.5495 196.564 79.59 196.356 79.6827L192.188 81.2596Z" fill="#00A688"/>
<path d="M189.48 81.4643L189.956 80.6758C190.555 79.9692 191.031 80.3327 191.031 80.3327L192.188 81.2595L190.499 83.8195L189.48 81.4643Z" fill="#00A688"/>
<path opacity="0.6" d="M192.188 81.2596L194.114 83.8196L198.174 81.1418V80.8961C198.183 80.6812 198.142 80.4672 198.053 80.2714C197.964 80.0756 197.83 79.9037 197.662 79.7697C197.468 79.6502 197.247 79.5798 197.02 79.5646C196.792 79.5495 196.564 79.59 196.356 79.6827L192.188 81.2596Z" fill="white"/>
<path opacity="0.6" d="M189.48 81.4643L189.956 80.6758C190.555 79.9692 191.031 80.3327 191.031 80.3327L192.188 81.2595L190.499 83.8195L189.48 81.4643Z" fill="white"/>
<path d="M198.896 68.4545C199.167 66.7034 197.954 66.4628 197.155 66.6727C196.356 66.8826 195.491 68.1524 195.491 68.1524C194.713 66.8929 194.272 63.7031 194.272 63.7031C193.283 64.2497 192.18 64.5592 191.051 64.6072C189.922 64.6552 188.797 64.4403 187.765 63.9796C187.367 65.0552 186.623 65.9683 185.65 66.5754C185.65 66.5754 184.207 65.9149 185.01 62.5972C185.922 58.8237 191.59 55.1732 197.298 58.9364C203.007 62.6996 199.551 69.6884 199.551 69.6884C199.551 69.6884 198.256 71.977 197.109 72.8372C197.206 72.158 197.206 71.4684 197.109 70.7892C197.574 70.5748 197.98 70.25 198.292 69.8432C198.603 69.4363 198.81 68.9596 198.896 68.4545Z" fill="#2E353A"/>
<path d="M187.089 63.0427C187.419 63.4461 187.802 63.8042 188.226 64.1077C188.657 64.4157 189.125 64.6701 189.618 64.8654C190.111 65.0595 190.628 65.1852 191.154 65.2392C191.693 65.2904 192.237 65.2749 192.772 65.1931C192.24 65.3175 191.695 65.376 191.149 65.3672C190.595 65.3571 190.045 65.2692 189.516 65.1061C188.976 64.9472 188.46 64.7183 187.98 64.4251C187.492 64.1331 187.046 63.7766 186.654 63.3653L187.089 63.0427Z" fill="#2E353A"/>
<path d="M227.927 91.9757C223.78 88.2689 218.936 93.2967 218.936 93.2967C218.936 93.2967 214.088 88.2689 209.946 91.9757C204.037 97.2647 212.629 106.737 218.936 108.631C225.244 106.737 233.836 97.2801 227.927 91.9757Z" fill="#00A688"/>
<path opacity="0.6" d="M227.927 91.9757C223.78 88.2689 218.936 93.2967 218.936 93.2967C218.936 93.2967 214.088 88.2689 209.946 91.9757C204.037 97.2647 212.629 106.737 218.936 108.631C225.244 106.737 233.836 97.2801 227.927 91.9757Z" fill="white"/>
<path d="M144.215 42.6701C140.068 38.9632 135.224 43.991 135.224 43.991C135.224 43.991 130.376 38.9632 126.234 42.6701C120.325 47.9539 128.917 57.4259 135.224 59.3254C141.532 57.4259 150.124 47.9539 144.215 42.6701Z" fill="#00A688"/>
<path opacity="0.6" d="M144.215 42.6701C140.068 38.9632 135.224 43.991 135.224 43.991C135.224 43.991 130.376 38.9632 126.234 42.6701C120.325 47.9539 128.917 57.4259 135.224 59.3254C141.532 57.4259 150.124 47.9539 144.215 42.6701Z" fill="white"/>
<path d="M202.942 58.0608C201.247 56.5248 199.266 58.6035 199.266 58.6035C199.266 58.6035 197.29 56.5555 195.595 58.0608C193.178 60.2214 196.691 64.0922 199.266 64.8704C201.847 64.0922 205.354 60.2214 202.942 58.0608Z" fill="#00A688"/>
<path opacity="0.6" d="M202.942 58.0608C201.247 56.5248 199.266 58.6035 199.266 58.6035C199.266 58.6035 197.29 56.5555 195.595 58.0608C193.178 60.2214 196.691 64.0922 199.266 64.8704C201.847 64.0922 205.354 60.2214 202.942 58.0608Z" fill="white"/>
<path d="M38.1287 98.7444C36.434 97.2084 34.4577 99.2871 34.4577 99.2871C34.4577 99.2871 32.4763 97.2391 30.7815 98.7444C28.37 100.905 31.8772 104.776 34.4577 105.549C37.0331 104.776 40.5454 100.905 38.1287 98.7444Z" fill="#00A688"/>
<path opacity="0.6" d="M38.1287 98.7444C36.434 97.2084 34.4577 99.2871 34.4577 99.2871C34.4577 99.2871 32.4763 97.2391 30.7815 98.7444C28.37 100.905 31.8772 104.776 34.4577 105.549C37.0331 104.776 40.5454 100.905 38.1287 98.7444Z" fill="white"/>
</svg>
