<svg width="256" height="256" viewBox="0 0 256 256" fill="none" xmlns="http://www.w3.org/2000/svg">
<path d="M29.7728 105.339C18.6777 64.6349 94.8326 45.906 135.281 52.0602C186.45 59.8375 214.932 87.8644 213.504 130.78C212.075 173.307 163.589 197.391 127.611 179.251C109.865 170.307 97.024 154.209 79.36 144.896C58.368 133.857 36.7053 130.78 29.7728 105.339Z" fill="#F99942"/>
<path opacity="0.9" d="M29.7728 105.339C18.6777 64.6349 94.8326 45.906 135.281 52.0602C186.45 59.8375 214.932 87.8644 213.504 130.78C212.075 173.307 163.589 197.391 127.611 179.251C109.865 170.307 97.024 154.209 79.36 144.896C58.368 133.857 36.7053 130.78 29.7728 105.339Z" fill="white"/>
<path d="M128 218.911C182.826 218.911 227.272 216.316 227.272 213.115C227.272 209.914 182.826 207.319 128 207.319C73.1737 207.319 28.7283 209.914 28.7283 213.115C28.7283 216.316 73.1737 218.911 128 218.911Z" fill="#F5F5F5"/>
<path d="M149.504 146.273H191.893C192.758 146.273 193.587 146.617 194.199 147.228C194.81 147.84 195.154 148.67 195.154 149.535C195.154 150.4 194.81 151.229 194.199 151.841C193.587 152.452 192.758 152.796 191.893 152.796H149.504V146.273Z" fill="#00A688"/>
<path opacity="0.6" d="M149.504 146.273H191.893C192.758 146.273 193.587 146.617 194.199 147.228C194.81 147.84 195.154 148.67 195.154 149.535C195.154 150.4 194.81 151.229 194.199 151.841C193.587 152.452 192.758 152.796 191.893 152.796H149.504V146.273Z" fill="white"/>
<path d="M192.505 127.056C193.127 124.422 191.496 121.783 188.862 121.161C186.228 120.54 183.589 122.171 182.968 124.804C182.346 127.438 183.977 130.077 186.611 130.699C189.245 131.32 191.884 129.689 192.505 127.056Z" fill="#00A688"/>
<path opacity="0.8" d="M192.505 127.056C193.127 124.422 191.496 121.783 188.862 121.161C186.228 120.54 183.589 122.171 182.968 124.804C182.346 127.438 183.977 130.077 186.611 130.699C189.245 131.32 191.884 129.689 192.505 127.056Z" fill="white"/>
<path d="M154.015 126.592H194.519L190.638 146.273H157.891L154.015 126.592Z" fill="#263238"/>
<path d="M152.883 124.703H195.646C195.74 124.702 195.833 124.723 195.917 124.765C196.001 124.807 196.075 124.868 196.131 124.943C196.188 125.018 196.227 125.105 196.244 125.198C196.261 125.29 196.256 125.385 196.229 125.476L195.717 127.222C195.68 127.347 195.603 127.458 195.498 127.536C195.393 127.614 195.265 127.657 195.134 127.657H153.39C153.259 127.657 153.131 127.614 153.026 127.536C152.921 127.458 152.844 127.347 152.807 127.222L152.295 125.476C152.268 125.385 152.263 125.289 152.281 125.196C152.298 125.103 152.337 125.016 152.394 124.941C152.451 124.865 152.525 124.805 152.61 124.763C152.695 124.722 152.789 124.701 152.883 124.703Z" fill="#00A688"/>
<path opacity="0.6" d="M152.883 124.703H195.646C195.74 124.702 195.833 124.723 195.917 124.765C196.001 124.807 196.075 124.868 196.131 124.943C196.188 125.018 196.227 125.105 196.244 125.198C196.261 125.29 196.256 125.385 196.229 125.476L195.717 127.222C195.68 127.347 195.603 127.458 195.498 127.536C195.393 127.614 195.265 127.657 195.134 127.657H153.39C153.259 127.657 153.131 127.614 153.026 127.536C152.921 127.458 152.844 127.347 152.807 127.222L152.295 125.476C152.268 125.385 152.263 125.289 152.281 125.196C152.298 125.103 152.337 125.016 152.394 124.941C152.451 124.865 152.525 124.805 152.61 124.763C152.695 124.722 152.789 124.701 152.883 124.703Z" fill="white"/>
<path d="M177.424 122.368H157.968V124.703H177.424V122.368Z" fill="#00A688"/>
<path opacity="0.2" d="M177.424 122.368H157.968V124.703H177.424V122.368Z" fill="black"/>
<path d="M169.144 128.962C169.099 129.102 169.006 129.222 168.882 129.301C168.757 129.379 168.609 129.412 168.463 129.393C166.927 129.131 166.17 127.734 166.728 126.049L170.644 114.227C171.264 112.358 173.286 110.843 175.15 110.843H182.088C183.951 110.843 184.965 112.379 184.351 114.227L180.874 124.703H179.712L183.183 114.227C183.593 113.003 182.927 112.005 181.704 112.005H174.766C174.11 112.048 173.481 112.281 172.956 112.676C172.43 113.07 172.031 113.609 171.807 114.227L167.89 126.049C167.557 127.048 167.941 127.897 168.755 128.174C168.833 128.2 168.904 128.241 168.966 128.295C169.027 128.349 169.078 128.414 169.114 128.487C169.15 128.561 169.171 128.64 169.177 128.722C169.182 128.803 169.171 128.885 169.144 128.962Z" fill="#00A688"/>
<path d="M158.101 123.197H92.1551C89.7092 123.197 87.7263 125.18 87.7263 127.626V208.686C87.7263 211.132 89.7092 213.115 92.1551 213.115H158.101C160.547 213.115 162.53 211.132 162.53 208.686V127.626C162.53 125.18 160.547 123.197 158.101 123.197Z" fill="#00A688"/>
<path d="M105.933 156.785H44.4929C43.6275 156.786 42.7979 157.131 42.1864 157.743C41.5749 158.356 41.2315 159.186 41.2315 160.051C41.2295 160.481 41.3123 160.906 41.4753 161.304C41.6383 161.701 41.8782 162.063 42.1813 162.367C42.4843 162.672 42.8446 162.913 43.2413 163.078C43.638 163.243 44.0633 163.328 44.4929 163.328H105.933V156.785Z" fill="#00A688"/>
<path opacity="0.3" d="M105.933 165.12L87.803 173.327V163.307H105.933V165.12Z" fill="#263238"/>
<path opacity="0.7" d="M105.933 156.785H66.8007C65.9353 156.786 65.1057 157.131 64.4942 157.743C63.8828 158.356 63.5393 159.186 63.5393 160.051C63.5407 160.916 63.8847 161.744 64.4961 162.356C65.1074 162.967 65.9362 163.311 66.8007 163.313H105.933V156.785Z" fill="white"/>
<path opacity="0.7" d="M158.101 123.197H112.584C110.138 123.197 108.155 125.18 108.155 127.626V208.686C108.155 211.132 110.138 213.115 112.584 213.115H158.101C160.547 213.115 162.529 211.132 162.529 208.686V127.626C162.529 125.18 160.547 123.197 158.101 123.197Z" fill="white"/>
<path d="M71.0606 163.312H65.5054V213.115H71.0606V163.312Z" fill="#00A688"/>
<path opacity="0.7" d="M71.0606 163.312H65.5054V213.115H71.0606V163.312Z" fill="white"/>
<path opacity="0.3" d="M71.0606 165.473L65.5054 166.676V163.307H71.0606V165.473Z" fill="#00A688"/>
<path opacity="0.3" d="M156.17 133.826H114.509C113.811 133.826 113.244 134.393 113.244 135.091V149.32C113.244 150.018 113.811 150.584 114.509 150.584H156.17C156.869 150.584 157.435 150.018 157.435 149.32V135.091C157.435 134.393 156.869 133.826 156.17 133.826Z" fill="#00A688"/>
<path d="M81.6589 114.386H51.2973L48.2202 156.79H84.7361L81.6589 114.386Z" fill="#00A688"/>
<path opacity="0.3" d="M55.3268 114.386H51.2973L48.2202 156.79H56.3917L55.3268 114.386Z" fill="#263238"/>
<path d="M68.3265 119.557C65.49 119.557 62.9505 117.565 62.5256 114.913C62.421 114.271 62.4507 113.614 62.6128 112.984C62.775 112.354 63.066 111.764 63.4676 111.252C63.9342 110.674 64.5142 110.197 65.1719 109.851C65.8296 109.505 66.5512 109.297 67.2923 109.24C70.3387 108.964 73.1854 111.037 73.636 113.848C73.74 114.492 73.7095 115.149 73.5465 115.78C73.3834 116.411 73.0914 117.002 72.6888 117.514C72.2236 118.093 71.6447 118.57 70.9877 118.916C70.3307 119.262 69.6097 119.47 68.8692 119.526C68.6849 119.547 68.5057 119.557 68.3265 119.557ZM67.8401 110.116C67.6865 110.116 67.5278 110.116 67.3742 110.116C66.7562 110.162 66.1542 110.334 65.6049 110.621C65.0556 110.908 64.5706 111.304 64.1793 111.785C63.8539 112.2 63.6181 112.679 63.4868 113.19C63.3555 113.701 63.3316 114.234 63.4164 114.754C63.7902 117.115 66.2017 118.85 68.7873 118.615C69.4053 118.568 70.0073 118.396 70.5566 118.109C71.1059 117.822 71.591 117.426 71.9822 116.946C72.3076 116.53 72.5434 116.052 72.6747 115.541C72.806 115.03 72.83 114.497 72.7451 113.976C72.3918 111.78 70.2414 110.116 67.8401 110.116Z" fill="#00A688"/>
<path d="M66.048 119.557C65.8688 119.557 65.6896 119.557 65.5053 119.557C64.7649 119.501 64.0438 119.293 63.3869 118.947C62.7299 118.601 62.1509 118.124 61.6858 117.545C61.2827 117.033 60.9907 116.442 60.8285 115.811C60.6663 115.18 60.6374 114.522 60.7437 113.879C61.1891 111.063 64.0359 108.989 67.0823 109.271C67.8235 109.327 68.5453 109.535 69.2031 109.881C69.8609 110.227 70.4408 110.704 70.9069 111.283C71.3096 111.794 71.6014 112.384 71.7636 113.014C71.9258 113.645 71.9549 114.302 71.849 114.944C71.4087 117.565 68.864 119.557 66.048 119.557ZM66.56 110.116C64.1536 110.116 62.0032 111.78 61.6499 113.997C61.5651 114.518 61.589 115.05 61.7203 115.561C61.8516 116.073 62.0874 116.551 62.4128 116.966C62.8041 117.447 63.2891 117.843 63.8384 118.13C64.3877 118.417 64.9897 118.589 65.6077 118.635C68.1933 118.866 70.6048 117.135 70.9837 114.775C71.0691 114.254 71.045 113.721 70.9127 113.209C70.7805 112.698 70.5431 112.22 70.2157 111.805C69.8255 111.325 69.3413 110.929 68.7929 110.642C68.2444 110.355 67.6432 110.183 67.0259 110.136C66.8263 110.121 66.6727 110.116 66.5191 110.116H66.56Z" fill="#00A688"/>
<path d="M120.837 56.6066H111.826V123.202H120.837V56.6066Z" fill="#00A688"/>
<path opacity="0.3" d="M120.837 92.2623H111.826V109.665L120.837 108.554V92.2623Z" fill="#263238"/>
<path opacity="0.3" d="M120.837 57.0623H111.826V62.1259L120.837 61.0149V57.0623Z" fill="#263238"/>
<path d="M92.8002 104.648L90.2863 68.1676C90.2652 67.8602 90.3076 67.5518 90.4107 67.2615C90.5139 66.9711 90.6757 66.7051 90.886 66.4799C91.0963 66.2547 91.3506 66.0752 91.6333 65.9524C91.9159 65.8297 92.2207 65.7663 92.5288 65.7664H148.547C149.116 65.765 149.664 65.9801 150.081 66.368C150.497 66.7559 150.75 67.2876 150.789 67.8553L153.298 104.335C153.32 104.643 153.278 104.952 153.175 105.242C153.072 105.533 152.911 105.799 152.7 106.025C152.49 106.25 152.235 106.43 151.952 106.552C151.669 106.675 151.364 106.737 151.056 106.737H95.0376C94.4691 106.738 93.9214 106.523 93.5058 106.135C93.0902 105.747 92.8379 105.215 92.8002 104.648Z" fill="#263238"/>
<path d="M147.902 67.4303H93.2662C93.0923 67.4306 92.9203 67.4666 92.7609 67.5361C92.6015 67.6056 92.458 67.7071 92.3394 67.8343C92.2209 67.9615 92.1297 68.1117 92.0716 68.2756C92.0134 68.4395 91.9896 68.6136 92.0015 68.7871L94.4182 103.89C94.4402 104.21 94.5829 104.511 94.8176 104.73C95.0523 104.95 95.3615 105.072 95.6828 105.073H150.318C150.493 105.073 150.665 105.037 150.825 104.968C150.985 104.899 151.129 104.798 151.248 104.67C151.368 104.543 151.459 104.393 151.518 104.228C151.576 104.064 151.6 103.89 151.588 103.716L149.171 68.6079C149.148 68.2874 149.004 67.9876 148.768 67.7691C148.533 67.5505 148.223 67.4295 147.902 67.4303Z" fill="#00A688"/>
<path opacity="0.8" d="M147.902 67.4303H93.2662C93.0923 67.4306 92.9203 67.4666 92.7609 67.5361C92.6015 67.6056 92.458 67.7071 92.3394 67.8343C92.2209 67.9615 92.1297 68.1117 92.0716 68.2756C92.0134 68.4395 91.9896 68.6136 92.0015 68.7871L94.4182 103.89C94.4402 104.21 94.5829 104.511 94.8176 104.73C95.0523 104.95 95.3615 105.072 95.6828 105.073H150.318C150.493 105.073 150.665 105.037 150.825 104.968C150.985 104.899 151.129 104.798 151.248 104.67C151.368 104.543 151.459 104.393 151.518 104.228C151.576 104.064 151.6 103.89 151.588 103.716L149.171 68.6079C149.148 68.2874 149.004 67.9876 148.768 67.7691C148.533 67.5505 148.223 67.4295 147.902 67.4303Z" fill="white"/>
<path d="M148.454 121.979H100.5V123.197H148.454V121.979Z" fill="#263238"/>
<path opacity="0.3" d="M135.107 100.961H99.021L97.019 71.9H133.105L135.107 100.961Z" fill="#00A688"/>
<path opacity="0.3" d="M145.424 74.501H135.701L135.521 71.9H145.244L145.424 74.501Z" fill="#00A688"/>
<path opacity="0.3" d="M146.14 84.9816H136.418L135.911 77.5679H145.634L146.14 84.9816Z" fill="#00A688"/>
<path d="M125.128 46.1362H106.998V59.6684H125.128V46.1362Z" fill="#00A688"/>
<path opacity="0.3" d="M114.54 46.1362H106.998V59.6684H114.54V46.1362Z" fill="#263238"/>
<path d="M164.25 104.351L165.248 103.076C165.434 102.839 165.673 102.651 165.947 102.526C166.22 102.401 166.52 102.344 166.82 102.359L169.667 102.487C170.227 102.515 170.773 102.676 171.259 102.956C171.745 103.237 172.157 103.629 172.462 104.1L172.841 104.694C171.305 106.921 168.043 108.211 168.043 108.211L167.153 108.682C166.972 108.784 166.773 108.85 166.567 108.874C166.361 108.899 166.152 108.883 165.953 108.826C165.753 108.769 165.567 108.674 165.404 108.544C165.242 108.415 165.107 108.255 165.007 108.073L164.05 106.312C163.889 106.001 163.822 105.65 163.858 105.301C163.893 104.953 164.029 104.623 164.25 104.351Z" fill="#FF8B7B"/>
<path d="M174.157 78.8172C174.454 79.1808 174.669 79.4368 174.884 79.744C175.099 80.0512 175.314 80.3328 175.524 80.6246C175.944 81.2185 176.328 81.8227 176.712 82.4268C177.457 83.6513 178.141 84.9124 178.76 86.2054C179.077 86.8505 179.364 87.5161 179.656 88.1817C179.948 88.8473 180.193 89.5283 180.429 90.2297C180.92 91.6232 181.317 93.048 181.617 94.4947L181.673 94.7302C181.709 94.8984 181.726 95.0702 181.724 95.2422C181.722 96.1572 181.548 97.0638 181.212 97.9148C180.926 98.6204 180.557 99.289 180.111 99.9065C179.358 100.921 178.465 101.824 177.459 102.589C176.56 103.279 175.604 103.893 174.602 104.422C173.616 104.947 172.588 105.39 171.53 105.748C171.117 105.89 170.667 105.887 170.255 105.74C169.843 105.593 169.494 105.31 169.263 104.939C169.033 104.567 168.936 104.128 168.988 103.694C169.04 103.259 169.238 102.856 169.549 102.548L169.677 102.426C170.307 101.796 171.034 101.115 171.663 100.449C172.288 99.8085 172.876 99.1333 173.425 98.4268C173.903 97.8388 174.307 97.1939 174.628 96.5068C174.884 95.9334 174.853 95.4828 174.776 95.4828L174.884 96.2099C174.5 95.104 174.09 94.0083 173.594 92.9177C173.097 91.8272 172.57 90.7571 171.976 89.6921C171.382 88.6272 170.773 87.5827 170.112 86.5587C169.784 86.0467 169.446 85.5347 169.088 85.0227L168.576 84.2854L168.105 83.6198L167.982 83.4457C167.426 82.6318 167.203 81.635 167.362 80.6617C167.52 79.6884 168.046 78.8133 168.832 78.2177C169.618 77.6221 170.603 77.3516 171.583 77.4623C172.563 77.5729 173.462 78.0562 174.095 78.8121L174.157 78.8172Z" fill="#FF8B7B"/>
<path d="M167.132 74.4755C165.688 77.7523 165.781 81.8432 170.204 88.0998C173.143 88.4224 178.581 84.6029 178.581 84.6029C178.581 84.6029 174.848 74.1325 167.132 74.4755Z" fill="#263238"/>
<path d="M164.669 63.0835C163.814 66.2579 162.76 72.0742 164.818 74.1888C164.818 74.1888 161.812 73.7382 155.433 77.6857C153.585 75.0336 154.957 74.1888 154.957 74.1888C158.541 73.344 158.664 70.7225 158.228 68.2547L164.669 63.0835Z" fill="#FF8B7B"/>
<path d="M151.685 76.5492C152.632 74.5012 154.865 72.5505 156.406 72.8423C157.947 73.1341 158.884 73.6154 159.795 72.8423C160.706 72.0692 162.959 70.9428 164.106 72.2177C165.719 73.9994 168.161 72.7297 167.24 74.6804C166.246 76.8001 151.685 76.5492 151.685 76.5492Z" fill="#00A688"/>
<path d="M153.134 57.257C153.073 57.6922 152.796 58.0301 152.52 58.0096C152.243 57.9891 152.069 57.6205 152.13 57.1853C152.192 56.7501 152.468 56.4173 152.745 56.4378C153.021 56.4583 153.201 56.832 153.134 57.257Z" fill="#263238"/>
<path d="M152.863 56.4685L151.89 56.0947C151.89 56.0947 152.294 56.9446 152.863 56.4685Z" fill="#263238"/>
<path d="M153.042 58.0762C152.52 59.0403 151.876 59.9334 151.127 60.7335C151.613 61.3069 152.602 61.1328 152.602 61.1328L153.042 58.0762Z" fill="#FF5652"/>
<path d="M152.412 53.8061C152.379 53.7508 152.368 53.6849 152.382 53.6218C152.403 53.5583 152.447 53.5054 152.507 53.474C152.566 53.4425 152.634 53.435 152.699 53.4528C153.101 53.5425 153.477 53.7242 153.796 53.9836C154.116 54.243 154.371 54.5731 154.542 54.9479C154.555 54.9783 154.561 55.0111 154.56 55.0441C154.558 55.077 154.55 55.1093 154.535 55.1386C154.519 55.1679 154.498 55.1935 154.472 55.2136C154.446 55.2338 154.416 55.2479 154.383 55.2551C154.318 55.2742 154.248 55.2686 154.187 55.2393C154.125 55.21 154.077 55.1591 154.051 55.0964C153.91 54.8021 153.704 54.5439 153.449 54.3416C153.193 54.1392 152.895 53.9981 152.576 53.929C152.508 53.9096 152.45 53.8659 152.412 53.8061Z" fill="#263238"/>
<path d="M167.383 56.7142C166.415 61.8342 166.118 64.0205 163.195 66.4781C158.797 70.1798 152.75 68.224 152.177 62.9965C151.665 58.2963 153.318 50.7085 158.597 49.0137C159.719 48.6026 160.931 48.5011 162.106 48.72C163.281 48.939 164.375 49.4702 165.274 50.2579C166.173 51.0456 166.843 52.0608 167.214 53.1968C167.585 54.3329 167.644 55.5479 167.383 56.7142Z" fill="#FF8B7B"/>
<path d="M155.904 58.368C154.051 55.465 152.044 51.84 153.303 49.321C154.563 46.802 157.425 47.401 157.425 47.401C157.425 47.401 162.97 44.288 167.936 48.3431C174.52 53.7344 167.46 59.6685 165.714 64.809C163.784 70.4666 153.83 63.616 155.904 58.368Z" fill="#263238"/>
<path d="M184.279 48.9575C181.601 38.9991 169.856 43.5763 166.441 49.4695L167.834 49.833C181.847 40.7911 174.945 53.8624 175.063 59.1923C175.181 64.5223 180.465 67.8042 180.465 67.8042C180.465 67.8042 186.952 58.9107 184.279 48.9575Z" fill="#263238"/>
<path d="M180.736 66.56C179.241 66.56 177.152 66.2784 175.79 64.9011C174.561 63.657 174.177 61.7574 174.659 59.2691C174.812 58.4806 175.058 57.5539 175.314 56.576C176.123 53.504 177.131 49.7254 175.544 48.384C174.428 47.4368 172.078 47.7696 168.555 49.3619C168.54 49.3696 168.524 49.3741 168.507 49.3751C168.49 49.3761 168.473 49.3737 168.458 49.3679C168.442 49.3622 168.427 49.3532 168.415 49.3416C168.403 49.33 168.393 49.316 168.387 49.3005C168.38 49.285 168.376 49.2684 168.376 49.2515C168.375 49.2346 168.378 49.2178 168.385 49.2021C168.391 49.1864 168.4 49.1721 168.412 49.16C168.424 49.1479 168.438 49.1382 168.453 49.1315C172.119 47.4675 174.495 47.1603 175.708 48.1894C177.418 49.6333 176.435 53.3555 175.565 56.6426C175.304 57.6154 175.053 58.537 174.909 59.3203C174.449 61.737 174.807 63.5597 175.974 64.7424C178.15 66.944 182.472 66.1965 182.518 66.1862C182.535 66.1835 182.552 66.1842 182.568 66.1881C182.585 66.1921 182.6 66.1993 182.614 66.2092C182.628 66.2192 182.64 66.2318 182.649 66.2463C182.658 66.2608 182.664 66.2769 182.666 66.2938C182.669 66.3106 182.668 66.3277 182.664 66.3443C182.66 66.3609 182.653 66.3765 182.643 66.3903C182.633 66.404 182.621 66.4157 182.606 66.4247C182.592 66.4336 182.575 66.4395 182.559 66.4422C181.955 66.5287 181.346 66.5681 180.736 66.56Z" fill="#263238"/>
<path d="M168.136 47.2781C168.264 46.6279 166.625 46.8993 166.549 47.4778C166.472 48.0564 166.257 47.7338 165.617 48.5786C164.977 49.4234 164.89 50.4167 166.989 51.0721C168.32 51.4868 168.525 50.4628 169.206 49.9508C169.58 49.6743 169.999 49.5309 170.271 49.321C170.338 49.269 170.387 49.1983 170.414 49.1179C170.44 49.0375 170.442 48.9511 170.418 48.8697C170.395 48.7883 170.349 48.7157 170.284 48.6611C170.219 48.6065 170.14 48.5724 170.056 48.5633C169.196 48.4916 168.003 47.9181 168.136 47.2781Z" fill="#00A688"/>
<path d="M156.846 60.1908C156.616 60.6339 156.296 61.024 155.906 61.3361C155.516 61.6482 155.066 61.8755 154.583 62.0033C153.38 62.2695 152.924 60.882 153.38 59.5303C153.789 58.322 154.916 56.7194 156.063 57.0676C157.21 57.4157 157.496 59.0183 156.846 60.1908Z" fill="#FF8B7B"/>
<path d="M178.754 215.639C182.733 215.045 182.81 214.385 184.945 213.637C186.772 212.992 187.284 213.084 188.759 212.588C189.993 212.173 189.573 211 188.759 209.751C188.354 209.126 188.293 208.533 187.848 207.422L181.801 208.318C181.217 210.007 181.007 212.168 177.556 213.402C175.503 214.139 177.152 215.875 178.754 215.639Z" fill="#263238"/>
<path d="M141.88 215.654C145.838 215.654 146.596 215.393 148.823 215.317C150.728 215.25 151.04 215.654 152.97 215.654C154.25 215.654 154.429 214.211 153.958 213.13C153.595 212.291 153.539 211.282 153.272 210.191H147.82C146.837 211.917 144.154 213.197 141.164 213.412C139.013 213.571 140.288 215.654 141.88 215.654Z" fill="#263238"/>
<path d="M146.504 107.843C146.504 107.843 145.715 136.299 147.405 154.373C147.297 171.336 147.819 210.181 147.819 210.181C147.953 211.046 152.499 210.693 153.272 210.181C153.272 210.181 161.797 181.883 158.013 154.373C167.48 125.67 165.437 107.843 165.437 107.843H146.504Z" fill="#263238"/>
<path d="M152.182 107.843C152.182 107.843 161.428 139.96 165.176 155.735C169.119 172.298 180.833 197.34 181.806 208.318C182.83 208.722 186.102 208.271 187.853 207.422C187.853 207.422 186.25 172.416 176.727 156.467C178.877 117.228 168.228 107.827 168.228 107.827L152.182 107.843Z" fill="#263238"/>
<path d="M181.018 206.121C181.111 206.873 181.15 207.631 181.135 208.389C181.13 208.455 181.139 208.52 181.161 208.582C181.182 208.644 181.217 208.701 181.261 208.749C181.306 208.797 181.36 208.836 181.421 208.862C181.481 208.888 181.546 208.901 181.611 208.901C183.875 208.901 187.003 207.939 187.991 207.601C188.083 207.571 188.163 207.512 188.22 207.434C188.277 207.356 188.308 207.262 188.308 207.166V205.02C188.308 204.952 188.292 204.884 188.263 204.822C188.234 204.759 188.192 204.704 188.139 204.66C188.087 204.616 188.025 204.583 187.959 204.565C187.893 204.547 187.823 204.543 187.755 204.554L181.386 205.624C181.274 205.647 181.174 205.71 181.106 205.802C181.038 205.893 181.006 206.007 181.018 206.121Z" fill="#00A688"/>
<path d="M147.195 207.8C147.195 208.389 147.144 209.439 147.087 210.212C147.086 210.335 147.129 210.455 147.209 210.549C147.289 210.643 147.401 210.705 147.523 210.724C149.526 210.889 151.54 210.866 153.539 210.657C153.634 210.649 153.725 210.609 153.796 210.545C153.867 210.48 153.915 210.394 153.933 210.299L154.342 208.184C154.352 208.116 154.347 208.046 154.328 207.979C154.31 207.912 154.277 207.849 154.234 207.795C154.19 207.741 154.136 207.696 154.075 207.664C154.013 207.631 153.946 207.612 153.877 207.606L147.661 207.36C147.601 207.357 147.541 207.365 147.484 207.386C147.428 207.407 147.376 207.438 147.333 207.48C147.289 207.521 147.254 207.571 147.231 207.626C147.207 207.681 147.195 207.74 147.195 207.8Z" fill="#00A688"/>
<path d="M145.275 82.2682C145.154 85.5811 145.202 88.898 145.418 92.2061C145.587 96.5222 145.884 100.767 146.504 107.843H168.228C167.793 101.724 168.504 94.7507 172.406 80.983C172.636 80.263 172.703 79.5005 172.6 78.7514C172.498 78.0023 172.229 77.2856 171.814 76.6538C171.398 76.022 170.847 75.4911 170.2 75.1001C169.553 74.709 168.827 74.4676 168.074 74.3936C167.214 74.3066 166.298 74.2349 165.361 74.1888C162.078 73.9556 158.782 73.9556 155.499 74.1888C154.424 74.2861 153.313 74.4243 152.253 74.5728C150.38 74.851 148.661 75.7698 147.388 77.1729C146.116 78.5759 145.369 80.3765 145.275 82.2682Z" fill="#263238"/>
<path d="M168.12 105.155C163.773 106.266 157.158 106.583 146.299 105.426C146.56 111.186 144.026 149.919 144.026 149.919C144.026 149.919 166.042 154.757 178.488 148.188C179.292 118.917 168.12 105.155 168.12 105.155Z" fill="#00A688"/>
<path opacity="0.2" d="M159.811 128.512C159.811 128.512 165.786 122.947 168.735 119.148C168.499 123.131 164.941 126.705 159.811 128.512Z" fill="black"/>
<path d="M126.848 82.2375L128.292 82.9696C128.563 83.1042 128.797 83.3019 128.975 83.546C129.153 83.7902 129.27 84.0737 129.316 84.3725L129.741 87.1885C129.829 87.7451 129.782 88.3149 129.604 88.8496C129.426 89.3842 129.121 89.8682 128.717 90.2605L128.205 90.7725C125.727 89.7178 123.822 86.7533 123.822 86.7533L123.187 85.9699C123.051 85.8127 122.948 85.6299 122.883 85.4323C122.818 85.2347 122.793 85.0261 122.81 84.8188C122.827 84.6115 122.884 84.4096 122.98 84.2248C123.076 84.0401 123.207 83.8762 123.366 83.7427L124.902 82.4627C125.17 82.2416 125.497 82.1027 125.842 82.0627C126.187 82.0228 126.536 82.0834 126.848 82.2375Z" fill="#FF8B7B"/>
<path d="M152.781 82.7494C152.622 83.1897 152.504 83.4969 152.366 83.8502C152.228 84.2035 152.079 84.5209 151.936 84.8742C151.649 85.5398 151.332 86.1798 151.009 86.8198C150.357 88.1004 149.636 89.3446 148.849 90.5472C148.459 91.1513 148.045 91.7452 147.625 92.334C147.205 92.9228 146.755 93.4963 146.278 94.0544C145.343 95.1981 144.331 96.2758 143.247 97.28L143.104 97.4182C142.974 97.5417 142.832 97.6515 142.679 97.7459C142.052 98.1355 141.357 98.403 140.631 98.5344C140.027 98.6454 139.409 98.6696 138.798 98.606C137.868 98.4946 136.96 98.2426 136.105 97.8585C134.775 97.2457 133.531 96.4626 132.403 95.5289C131.377 94.6908 130.409 93.7842 129.505 92.8153C128.612 91.8686 127.779 90.8665 127.012 89.815C126.746 89.4508 126.617 89.0049 126.646 88.5551C126.675 88.1052 126.862 87.6799 127.172 87.3533C127.483 87.0267 127.899 86.8195 128.346 86.7679C128.794 86.7162 129.246 86.8234 129.623 87.0707L129.71 87.127C130.662 87.7465 131.671 88.4224 132.654 89.0265C133.637 89.6307 134.63 90.2195 135.603 90.7161C136.474 91.1862 137.395 91.5588 138.347 91.8272C138.624 91.9136 138.915 91.9415 139.203 91.9091C139.269 91.9091 139.264 91.8579 139.203 91.8579C139.081 91.8617 138.962 91.8932 138.854 91.95L138.291 92.4211C139.039 91.52 139.766 90.5984 140.436 89.6102C141.107 88.6221 141.757 87.6083 142.356 86.5382C142.955 85.4681 143.539 84.4134 144.077 83.3177C144.348 82.775 144.589 82.2221 144.86 81.6742L145.224 80.855L145.551 80.1126L145.638 79.9181C146.041 79.0124 146.779 78.2976 147.697 77.9234C148.615 77.5492 149.642 77.5445 150.564 77.9102C151.485 78.276 152.229 78.9839 152.64 79.8859C153.052 80.7878 153.098 81.8139 152.771 82.7494H152.781Z" fill="#FF8B7B"/>
<path d="M152.853 74.491C149.304 74.9518 145.854 77.1534 142.797 84.1882C144.046 86.8711 150.129 89.5489 150.129 89.5489C150.129 89.5489 157.143 80.8961 152.853 74.491Z" fill="#263238"/>
</svg>
