<svg width="512" height="512" viewBox="0 0 512 512" fill="none" xmlns="http://www.w3.org/2000/svg">
<path d="M512 391.578H0V391.833H512V391.578Z" fill="#EBEBEB"/>
<path d="M87.6339 401.326H53.7191V401.582H87.6339V401.326Z" fill="#EBEBEB"/>
<path d="M230.4 401.459H175.247V401.715H230.4V401.459Z" fill="#EBEBEB"/>
<path d="M127.959 406.61H108.308V406.866H127.959V406.61Z" fill="#EBEBEB"/>
<path d="M456.704 406.487H437.012V406.743H456.704V406.487Z" fill="#EBEBEB"/>
<path d="M427.889 406.487H396.872V406.743H427.889V406.487Z" fill="#EBEBEB"/>
<path d="M379.791 404.797H336.21V405.053H379.791V404.797Z" fill="#EBEBEB"/>
<path d="M242.688 345.907H44.9638C43.4149 345.904 41.9303 345.287 40.836 344.191C39.7416 343.095 39.127 341.609 39.127 340.06V62.1158C39.1405 60.5757 39.7611 59.1032 40.8539 58.018C41.9468 56.9328 43.4237 56.3226 44.9638 56.3199H242.688C244.239 56.3199 245.726 56.936 246.822 58.0325C247.919 59.129 248.535 60.6163 248.535 62.167V340.06C248.535 341.611 247.919 343.098 246.822 344.195C245.726 345.291 244.239 345.907 242.688 345.907ZM44.9638 56.5247C43.4828 56.5275 42.0633 57.1177 41.017 58.1659C39.9707 59.2142 39.383 60.6347 39.383 62.1158V340.06C39.383 341.541 39.9707 342.962 41.017 344.01C42.0633 345.058 43.4828 345.648 44.9638 345.651H242.688C244.17 345.648 245.591 345.059 246.638 344.011C247.686 342.963 248.276 341.542 248.279 340.06V62.1158C248.276 60.6338 247.686 59.2133 246.638 58.1653C245.591 57.1174 244.17 56.5275 242.688 56.5247H44.9638Z" fill="#EBEBEB"/>
<path d="M464.189 345.907H266.455C264.905 345.904 263.42 345.288 262.324 344.192C261.228 343.096 260.611 341.61 260.608 340.06V62.1158C260.624 60.5748 261.247 59.1022 262.342 58.0173C263.436 56.9324 264.914 56.3226 266.455 56.3199H464.189C465.728 56.3253 467.202 56.9366 468.293 58.0216C469.383 59.1065 470.003 60.5775 470.016 62.1158V340.06C470.016 341.607 469.403 343.091 468.311 344.187C467.219 345.283 465.737 345.902 464.189 345.907ZM266.455 56.5247C264.973 56.5275 263.553 57.1174 262.505 58.1653C261.457 59.2133 260.867 60.6338 260.864 62.1158V340.06C260.867 341.542 261.457 342.963 262.505 344.011C263.553 345.059 264.973 345.648 266.455 345.651H464.189C465.671 345.648 467.092 345.059 468.14 344.011C469.188 342.963 469.778 341.542 469.78 340.06V62.1158C469.778 60.6338 469.188 59.2133 468.14 58.1653C467.092 57.1174 465.671 56.5275 464.189 56.5247H266.455Z" fill="#EBEBEB"/>
<path d="M429.957 93.2045H311.071V235.151H429.957V93.2045Z" fill="#E6E6E6"/>
<path d="M432.927 93.2045H314.04V235.151H432.927V93.2045Z" fill="#F5F5F5"/>
<path d="M427.602 229.161V99.1846H319.375V229.161H427.602Z" fill="white"/>
<path d="M427.592 229.161V99.1846H425.349V229.161H427.592Z" fill="#E6E6E6"/>
<path d="M430.715 198.369H316.242V206.408H430.715V198.369Z" fill="#F5F5F5"/>
<path d="M438.733 83.3024H305.265C305.047 83.3024 304.839 83.3887 304.685 83.5423C304.532 83.6959 304.445 83.9043 304.445 84.1216C304.445 84.3388 304.532 84.5472 304.685 84.7008C304.839 84.8545 305.047 84.9408 305.265 84.9408H438.733C438.95 84.9408 439.158 84.8545 439.312 84.7008C439.466 84.5472 439.552 84.3388 439.552 84.1216C439.552 83.9043 439.466 83.6959 439.312 83.5423C439.158 83.3887 438.95 83.3024 438.733 83.3024Z" fill="#E6E6E6"/>
<path d="M439.552 88.2175C441.814 88.2175 443.648 86.3837 443.648 84.1215C443.648 81.8594 441.814 80.0255 439.552 80.0255C437.29 80.0255 435.456 81.8594 435.456 84.1215C435.456 86.3837 437.29 88.2175 439.552 88.2175Z" fill="#E6E6E6"/>
<path d="M312.177 88.7091C311.883 88.7091 311.602 88.5926 311.395 88.3852C311.187 88.1778 311.071 87.8965 311.071 87.6032V85.2275C311.073 84.935 311.191 84.6553 311.398 84.4484C311.604 84.2416 311.884 84.1243 312.177 84.1216C312.47 84.1216 312.751 84.2381 312.959 84.4455C313.166 84.6529 313.283 84.9342 313.283 85.2275V87.6032C313.283 87.8965 313.166 88.1778 312.959 88.3852C312.751 88.5926 312.47 88.7091 312.177 88.7091Z" fill="#E6E6E6"/>
<path d="M426.363 88.7091C426.07 88.7091 425.788 88.5926 425.581 88.3852C425.373 88.1778 425.257 87.8965 425.257 87.6032V85.2275C425.26 84.935 425.377 84.6553 425.584 84.4484C425.791 84.2416 426.07 84.1243 426.363 84.1216C426.656 84.1216 426.937 84.2381 427.145 84.4455C427.352 84.6529 427.469 84.9342 427.469 85.2275V87.6032C427.469 87.8965 427.352 88.1778 427.145 88.3852C426.937 88.5926 426.656 88.7091 426.363 88.7091Z" fill="#E6E6E6"/>
<path opacity="0.5" d="M438.467 84.1216H316.242V143.739H438.467V84.1216Z" fill="#E0E0E0"/>
<path d="M325.366 88.2175C327.628 88.2175 329.462 86.3837 329.462 84.1215C329.462 81.8594 327.628 80.0255 325.366 80.0255C323.104 80.0255 321.27 81.8594 321.27 84.1215C321.27 86.3837 323.104 88.2175 325.366 88.2175Z" fill="#E6E6E6"/>
<path d="M91.863 250.399H48.4966L52.3366 199.639H88.023L91.863 250.399Z" fill="#EBEBEB"/>
<path d="M82.3501 250.399H74.8954L73.3082 199.639H80.1894L82.3501 250.399Z" fill="#F5F5F5"/>
<path d="M72.3559 250.399H68.0141V391.578H72.3559V250.399Z" fill="#F0F0F0"/>
<path d="M71.8233 271.196H68.5466C66.9517 271.196 65.6589 272.489 65.6589 274.084V284.744C65.6589 286.338 66.9517 287.631 68.5466 287.631H71.8233C73.4182 287.631 74.711 286.338 74.711 284.744V274.084C74.711 272.489 73.4182 271.196 71.8233 271.196Z" fill="#F0F0F0"/>
<path d="M71.8233 297.533H68.5466C66.9517 297.533 65.6589 298.826 65.6589 300.421V311.081C65.6589 312.676 66.9517 313.969 68.5466 313.969H71.8233C73.4182 313.969 74.711 312.676 74.711 311.081V300.421C74.711 298.826 73.4182 297.533 71.8233 297.533Z" fill="#F0F0F0"/>
<path d="M77.0457 391.578H63.3139C63.3139 390.801 63.6225 390.056 64.1717 389.507C64.7209 388.957 65.4658 388.649 66.2425 388.649H74.1171C74.8938 388.649 75.6387 388.957 76.188 389.507C76.7372 390.056 77.0457 390.801 77.0457 391.578Z" fill="#F0F0F0"/>
<path d="M72.3559 250.399H68.0141V253.051H72.3559V250.399Z" fill="#E0E0E0"/>
<path d="M98.6214 208.281L218.47 208.281L218.47 88.1049L98.6214 88.1049L98.6214 208.281Z" fill="#F0F0F0"/>
<path d="M98.6215 88.1049H96.553V208.281H98.6215V88.1049Z" fill="#E0E0E0"/>
<path d="M109.21 200.683H207.892V95.6927L109.21 95.6927L109.21 200.683Z" fill="#FAFAFA"/>
<path d="M152.873 177.418H164.239C176.274 177.418 186.03 167.662 186.03 155.627V140.749C186.03 128.714 176.274 118.958 164.239 118.958H152.873C140.838 118.958 131.082 128.714 131.082 140.749V155.627C131.082 167.662 140.838 177.418 152.873 177.418Z" fill="#F5F5F5"/>
<path d="M417.3 253.379H371.681V391.567H417.3V253.379Z" fill="#E6E6E6"/>
<path d="M395.028 391.578H417.3V372.5H371.681L395.028 391.578Z" fill="#FAFAFA"/>
<path d="M235.366 253.379H189.747V391.567H235.366V253.379Z" fill="#E6E6E6"/>
<path d="M417.29 253.379H215.931V385.004H417.29V253.379Z" fill="#FAFAFA"/>
<path d="M238.203 391.578H215.941V372.5H261.56L238.203 391.578Z" fill="#FAFAFA"/>
<path d="M400.026 302.428H233.216V335.37H400.026V302.428Z" fill="#F0F0F0"/>
<path d="M400.026 342.415H233.216V375.357H400.026V342.415Z" fill="#F0F0F0"/>
<path d="M360.294 305.951H272.937C271.248 305.951 269.628 305.28 268.433 304.085C267.239 302.891 266.568 301.271 266.568 299.581H366.664C366.665 300.418 366.501 301.247 366.182 302.02C365.862 302.794 365.393 303.496 364.801 304.088C364.209 304.68 363.507 305.149 362.733 305.469C361.96 305.788 361.131 305.952 360.294 305.951Z" fill="#FAFAFA"/>
<path d="M400.026 262.451H233.216V295.393H400.026V262.451Z" fill="#F0F0F0"/>
<path d="M360.294 265.974H272.937C271.247 265.971 269.627 265.298 268.433 264.102C267.238 262.906 266.568 261.284 266.568 259.594H366.664C366.665 260.432 366.501 261.261 366.182 262.035C365.862 262.809 365.393 263.512 364.802 264.105C364.21 264.697 363.508 265.167 362.734 265.488C361.961 265.809 361.132 265.974 360.294 265.974Z" fill="#FAFAFA"/>
<path d="M360.294 345.938H272.937C271.247 345.935 269.627 345.262 268.433 344.066C267.238 342.87 266.568 341.249 266.568 339.558H366.664C366.665 340.396 366.501 341.225 366.182 341.999C365.862 342.773 365.393 343.476 364.802 344.069C364.21 344.661 363.508 345.131 362.734 345.452C361.961 345.773 361.132 345.938 360.294 345.938Z" fill="#FAFAFA"/>
<path d="M256 437.821C365.652 437.821 454.543 432.632 454.543 426.23C454.543 419.828 365.652 414.638 256 414.638C146.348 414.638 57.4567 419.828 57.4567 426.23C57.4567 432.632 146.348 437.821 256 437.821Z" fill="#F5F5F5"/>
<path d="M77.3632 222.71H230.185C225.649 222.654 221.3 220.893 218.003 217.778C214.706 214.663 212.701 210.421 212.388 205.896L209.685 160.348H56.873L59.5661 205.896C59.8795 210.421 61.884 214.663 65.1814 217.778C68.4787 220.893 72.8274 222.654 77.3632 222.71Z" fill="#00A688"/>
<path opacity="0.6" d="M77.3632 222.71H230.185C225.649 222.654 221.3 220.893 218.003 217.778C214.706 214.663 212.701 210.421 212.388 205.896L209.685 160.348H56.873L59.5661 205.896C59.8795 210.421 61.884 214.663 65.1814 217.778C68.4787 220.893 72.8274 222.654 77.3632 222.71Z" fill="white"/>
<path d="M241.51 130.048H105.472C103.303 130.022 101.153 130.447 99.157 131.296C97.161 132.145 95.363 133.399 93.8768 134.978C92.3906 136.558 91.2485 138.429 90.5229 140.473C89.7973 142.516 89.504 144.689 89.6615 146.852L93.184 205.906C93.3447 208.07 93.0535 210.243 92.3291 212.289C91.6046 214.334 90.4627 216.206 88.9758 217.786C87.489 219.367 85.6897 220.62 83.6923 221.468C81.6949 222.316 79.5431 222.738 77.3735 222.71H230.185C232.355 222.738 234.506 222.316 236.504 221.468C238.501 220.62 240.301 219.367 241.787 217.786C243.274 216.206 244.416 214.334 245.141 212.289C245.865 210.243 246.156 208.07 245.996 205.906L246.374 212.296L242.504 146.893C242.337 144.726 242.624 142.548 243.346 140.497C244.067 138.447 245.208 136.57 246.696 134.985C248.183 133.4 249.985 132.143 251.985 131.293C253.985 130.443 256.141 130.019 258.314 130.048H241.51Z" fill="#00A688"/>
<path d="M258.314 130.048H105.472C110.008 130.099 114.358 131.857 117.656 134.971C120.954 138.085 122.958 142.327 123.269 146.852L136.428 368.742H289.239L276.111 146.893C275.805 142.362 273.804 138.113 270.506 134.991C267.208 131.87 262.855 130.105 258.314 130.048Z" fill="#00A688"/>
<path opacity="0.8" d="M258.314 130.048H105.472C110.008 130.099 114.358 131.857 117.656 134.971C120.954 138.085 122.958 142.327 123.269 146.852L136.428 368.742H289.239L276.111 146.893C275.805 142.362 273.804 138.113 270.506 134.991C267.208 131.87 262.855 130.105 258.314 130.048Z" fill="white"/>
<path d="M174.756 193.208H146.432L144.722 164.864H173.056L174.756 193.208ZM149.504 189.87H171.182L169.984 168.192H148.265L149.504 189.87Z" fill="white"/>
<path d="M178.708 259.881H150.354L148.675 231.526H177.029L178.708 259.881ZM153.487 256.543H175.165L173.885 234.865H152.207L153.487 256.543Z" fill="white"/>
<path d="M182.651 326.554H154.296L152.576 298.199H180.931L182.651 326.554ZM157.44 323.215H179.118L177.828 301.537H156.15L157.44 323.215Z" fill="white"/>
<path d="M253.788 164.854H188.6V168.192H253.788V164.854Z" fill="white"/>
<path d="M246.866 177.367H189.338V180.705H246.866V177.367Z" fill="white"/>
<path d="M255.263 189.87H190.075V193.208H255.263V189.87Z" fill="white"/>
<path d="M257.731 231.526H192.543V234.865H257.731V231.526Z" fill="white"/>
<path d="M231.547 244.04H193.28V247.378H231.547V244.04Z" fill="white"/>
<path d="M213.781 256.543H194.028V259.881H213.781V256.543Z" fill="white"/>
<path d="M259.215 256.543H226.621V259.881H259.215V256.543Z" fill="white"/>
<path d="M261.673 298.199H196.485V301.537H261.673V298.199Z" fill="white"/>
<path d="M262.421 310.712H197.233V314.051H262.421V310.712Z" fill="white"/>
<path d="M234.025 323.215H197.97V326.554H234.025V323.215Z" fill="white"/>
<path d="M162.437 186.532C161.729 186.533 161.047 186.261 160.533 185.774L153.6 179.2C153.335 178.949 153.122 178.649 152.973 178.316C152.825 177.983 152.743 177.623 152.733 177.259C152.713 176.522 152.986 175.808 153.493 175.273C153.999 174.738 154.697 174.426 155.434 174.406C156.17 174.386 156.885 174.659 157.42 175.165L162.355 179.825L173.466 168.018C173.971 167.482 174.668 167.168 175.405 167.146C176.141 167.124 176.856 167.395 177.393 167.9C177.929 168.405 178.243 169.103 178.265 169.839C178.287 170.576 178.016 171.291 177.51 171.827L164.495 185.661C164.246 185.929 163.945 186.145 163.611 186.294C163.277 186.444 162.916 186.524 162.55 186.532H162.437Z" fill="#F99942"/>
<path d="M166.39 253.205C165.681 253.207 164.998 252.936 164.485 252.447L157.522 245.873C157.248 245.625 157.026 245.325 156.869 244.99C156.712 244.656 156.624 244.293 156.609 243.924C156.594 243.554 156.654 243.186 156.783 242.84C156.913 242.494 157.11 242.177 157.364 241.908C157.618 241.639 157.923 241.424 158.261 241.275C158.599 241.125 158.963 241.045 159.333 241.039C159.702 241.032 160.07 241.099 160.413 241.237C160.756 241.374 161.068 241.578 161.331 241.838L166.277 246.497L177.377 234.691C177.882 234.154 178.58 233.84 179.316 233.818C180.053 233.796 180.768 234.068 181.304 234.573C181.841 235.078 182.154 235.776 182.177 236.512C182.199 237.248 181.927 237.963 181.422 238.5L168.407 252.334C168.159 252.601 167.86 252.816 167.528 252.966C167.195 253.115 166.836 253.196 166.472 253.205H166.39Z" fill="#F99942"/>
<path d="M170.332 319.887C169.622 319.887 168.94 319.611 168.428 319.119L161.464 312.545C161.19 312.298 160.968 311.998 160.811 311.663C160.654 311.328 160.566 310.966 160.551 310.596C160.537 310.227 160.596 309.858 160.726 309.512C160.855 309.166 161.053 308.85 161.307 308.581C161.56 308.312 161.865 308.097 162.203 307.947C162.541 307.798 162.906 307.718 163.275 307.711C163.645 307.705 164.012 307.772 164.355 307.909C164.698 308.047 165.011 308.251 165.274 308.511L170.22 313.17L181.33 301.363C181.85 300.916 182.517 300.678 183.203 300.694C183.889 300.71 184.544 300.979 185.043 301.45C185.542 301.921 185.848 302.56 185.904 303.243C185.96 303.927 185.76 304.607 185.344 305.152L172.329 318.986C172.078 319.253 171.777 319.467 171.443 319.617C171.109 319.766 170.749 319.848 170.383 319.857L170.332 319.887Z" fill="#F99942"/>
<path d="M317.191 162.943L297.303 167.831L356.654 409.281L376.542 404.393L317.191 162.943Z" fill="#F99942"/>
<path opacity="0.2" d="M317.181 162.941L311.125 164.429L370.475 405.879L376.531 404.391L317.181 162.941Z" fill="black"/>
<path d="M375.039 407.984L359.626 411.773C358.391 412.077 357.635 413.325 357.939 414.56L360.52 425.061C360.824 426.297 362.072 427.052 363.307 426.749L378.721 422.96C379.956 422.656 380.712 421.408 380.408 420.173L377.827 409.672C377.523 408.436 376.275 407.681 375.039 407.984Z" fill="#F99942"/>
<path opacity="0.7" d="M375.039 407.984L359.626 411.773C358.391 412.077 357.635 413.325 357.939 414.56L360.52 425.061C360.824 426.297 362.072 427.052 363.307 426.749L378.721 422.96C379.956 422.656 380.712 421.408 380.408 420.173L377.827 409.672C377.523 408.436 376.275 407.681 375.039 407.984Z" fill="white"/>
<path d="M375.159 400.918L356.255 405.565C355.113 405.846 354.414 406.999 354.695 408.142L356.387 415.023C356.667 416.165 357.821 416.864 358.963 416.583L377.867 411.936C379.009 411.655 379.708 410.502 379.427 409.359L377.735 402.478C377.455 401.336 376.301 400.638 375.159 400.918Z" fill="#E0E0E0"/>
<path d="M317.194 162.918L297.308 167.813L299.643 151.173L301.138 140.503L307.415 149.258L317.194 162.918Z" fill="#E0E0E0"/>
<path d="M307.415 149.258L299.643 151.173L301.138 140.503L307.415 149.258Z" fill="#F99942"/>
<path d="M368.558 147.128C368.456 153.272 367.268 164.854 370.504 168.632C363.066 171.078 356.397 175.428 351.16 181.248C346.726 173.998 352.512 170.097 352.512 170.097C358.892 168.049 358.502 163.246 357.161 158.833L368.558 147.128Z" fill="#FFB573"/>
<path d="M349.276 174.991C350.966 168.714 346.204 167.823 354.14 164.751C360.346 162.294 372.07 161.946 374.825 163.922C376.351 165.028 374.251 168.899 374.251 168.899L349.276 174.991Z" fill="#263238"/>
<path d="M383.672 173.64C384.133 174.377 384.461 174.94 384.829 175.585C385.198 176.23 385.505 176.824 385.853 177.449C386.509 178.698 387.123 179.948 387.717 181.217C388.905 183.747 389.939 186.337 390.892 188.959C392.804 194.269 394.176 199.758 394.988 205.343L395.254 207.452C395.305 207.749 395.346 208.282 395.377 208.742C395.407 209.203 395.377 209.623 395.377 210.033C395.353 211.543 395.24 213.051 395.039 214.549C394.68 217.375 394.138 220.047 393.544 222.741C392.334 227.993 390.806 233.167 388.966 238.234C388.722 238.921 388.236 239.495 387.599 239.85C386.962 240.204 386.217 240.315 385.505 240.16C384.792 240.006 384.16 239.598 383.727 239.011C383.293 238.425 383.088 237.701 383.15 236.974C383.56 231.772 384.041 226.529 384.42 221.409C384.604 218.849 384.748 216.289 384.788 213.873C384.788 212.675 384.788 211.487 384.676 210.493L384.584 209.807L384.451 209.142L384.072 207.36C382.978 202.561 381.505 197.857 379.668 193.29C378.747 190.997 377.754 188.723 376.709 186.481C376.19 185.354 375.648 184.248 375.081 183.163L374.221 181.545L373.412 180.06L373.268 179.794C372.522 178.419 372.342 176.807 372.765 175.301C373.188 173.795 374.182 172.513 375.535 171.728C376.888 170.943 378.494 170.716 380.011 171.096C381.529 171.476 382.838 172.433 383.662 173.763L383.672 173.64Z" fill="#FFCC9E"/>
<path d="M380.928 240.302L381.778 238.889L384.174 234.854L388.567 237.343C389.478 241.439 386.693 245.064 386.693 245.064L385.454 246.088C385.032 246.455 384.486 246.648 383.927 246.627C383.367 246.606 382.837 246.373 382.444 245.975L381.491 245.094C380.892 244.464 380.513 243.656 380.412 242.792C380.31 241.928 380.491 241.054 380.928 240.302Z" fill="#FFB573"/>
<path d="M322.56 238.213L321.853 235.653C321.688 235.051 321.292 234.538 320.753 234.224C320.213 233.91 319.571 233.82 318.966 233.974L315.894 234.762L313.999 235.233C313.003 235.493 312.118 236.071 311.479 236.878C310.84 237.685 310.481 238.679 310.456 239.708V241.234C310.452 241.899 310.7 242.54 311.151 243.029C311.601 243.517 312.22 243.816 312.883 243.866L314.778 244.05C317.62 243.597 320.225 242.197 322.171 240.077C322.382 239.821 322.527 239.518 322.595 239.193C322.663 238.868 322.651 238.532 322.56 238.213Z" fill="#FFCC9E"/>
<path d="M378.552 169.134C383.928 171.52 388.854 177.203 392.888 187.72C391.598 192.051 378.276 199.148 378.276 199.148C378.276 199.148 361.656 163.912 378.552 169.134Z" fill="#00A688"/>
<path d="M334.08 182.6C334.131 186.501 327.67 195.543 335.104 200.786C335.749 208.681 336.62 216.453 338.309 229.407H378.071C374.292 215.071 377.559 205.445 383.621 180.255C383.967 178.901 384.017 177.489 383.766 176.114C383.516 174.739 382.971 173.435 382.17 172.291C381.369 171.146 380.33 170.188 379.124 169.483C377.918 168.777 376.574 168.34 375.183 168.202C373.596 168.049 371.917 167.915 370.207 167.823C364.193 167.393 358.157 167.393 352.143 167.823C350.188 167.997 348.17 168.243 346.235 168.509C342.852 169.002 339.761 170.698 337.528 173.287C335.296 175.875 334.071 179.182 334.08 182.6Z" fill="#00A688"/>
<path d="M347.249 178.801C347.341 181.729 347.249 184.535 347.249 187.402C347.249 190.269 347.064 193.106 346.88 195.973C346.563 201.786 345.879 207.573 344.832 213.299C344.709 214.026 344.515 214.784 344.34 215.521C344.166 216.259 344.013 216.996 343.777 217.774L343.45 218.911L343.275 219.484C343.21 219.742 343.127 219.995 343.03 220.242C342.601 221.345 342.015 222.38 341.289 223.314C340.29 224.61 339.198 225.832 338.022 226.97C336.947 228.045 335.851 229.018 334.746 230.042C330.391 233.793 325.763 237.216 320.901 240.282C320.291 240.665 319.563 240.817 318.85 240.709C318.137 240.601 317.486 240.241 317.016 239.695C316.546 239.148 316.288 238.451 316.289 237.73C316.29 237.009 316.549 236.312 317.02 235.766C320.676 231.598 324.444 227.461 327.956 223.365C328.817 222.341 329.656 221.317 330.455 220.293C331.205 219.384 331.889 218.422 332.503 217.416C332.749 217.037 332.902 216.576 332.769 216.832C332.636 217.088 332.769 216.699 332.769 216.586L332.861 216.136L333.056 215.245C333.199 214.671 333.281 214.026 333.384 213.402C333.486 212.777 333.609 212.152 333.67 211.497C334.367 206.326 334.694 200.878 334.889 195.43C335.083 189.983 335.206 184.433 335.237 179.046C335.228 178.257 335.375 177.474 335.669 176.741C335.963 176.008 336.399 175.341 336.951 174.777C338.065 173.637 339.587 172.987 341.181 172.969C342.776 172.951 344.312 173.568 345.451 174.682C346.591 175.797 347.241 177.319 347.259 178.913L347.249 178.801Z" fill="#FFCC9E"/>
<path d="M342.866 169.421C337.961 171.858 333.097 176.589 331.08 187.423C332.36 191.713 349.891 199.977 349.891 199.977C349.891 199.977 359.649 163.154 342.866 169.421Z" fill="#00A688"/>
<path d="M343.941 143.217C344.074 143.985 343.767 144.702 343.255 144.794C342.743 144.886 342.231 144.353 342.098 143.575C341.965 142.797 342.282 142.09 342.784 141.998C343.286 141.906 343.818 142.438 343.941 143.217Z" fill="#263238"/>
<path d="M343.04 141.988L341.084 141.824C341.084 141.824 342.262 143.083 343.04 141.988Z" fill="#263238"/>
<path d="M343.757 144.077C343.355 145.986 342.697 147.832 341.801 149.565C342.25 149.775 342.739 149.884 343.235 149.884C343.73 149.884 344.219 149.775 344.668 149.565L343.757 144.077Z" fill="#FDB279"/>
<path d="M341.914 137.933C341.796 137.932 341.683 137.888 341.596 137.81C341.553 137.767 341.518 137.716 341.495 137.66C341.471 137.603 341.459 137.543 341.459 137.482C341.459 137.421 341.471 137.361 341.495 137.305C341.518 137.248 341.553 137.197 341.596 137.155C342.096 136.604 342.72 136.179 343.416 135.916C344.112 135.652 344.86 135.557 345.6 135.639C345.659 135.65 345.715 135.673 345.765 135.705C345.814 135.738 345.857 135.781 345.891 135.83C345.924 135.88 345.947 135.935 345.959 135.994C345.97 136.053 345.97 136.113 345.958 136.171C345.934 136.294 345.862 136.402 345.759 136.473C345.655 136.544 345.529 136.571 345.405 136.55C344.82 136.497 344.229 136.581 343.682 136.797C343.134 137.012 342.645 137.352 342.252 137.789C342.162 137.88 342.041 137.931 341.914 137.933Z" fill="#263238"/>
<path d="M369.285 135.588C370.309 145.213 370.924 149.268 367.002 155.044C361.093 163.799 349.215 163.236 345.395 154.194C341.955 146.002 340.879 131.666 349.44 126.075C351.281 124.819 353.421 124.069 355.643 123.9C357.866 123.732 360.094 124.15 362.104 125.113C364.113 126.077 365.835 127.552 367.095 129.39C368.356 131.228 369.111 133.366 369.285 135.588Z" fill="#FFCC9E"/>
<path d="M351.775 142.623C345.631 141.537 344.146 134.482 346.419 131.41C336.067 131.871 329.093 120.289 340.275 113.684C351.457 107.08 361.329 117.309 360.53 121.17C374.303 119.921 382.372 131.256 374.866 139.684C384.768 141.292 399.596 152.453 388.71 164.178C403.425 166.339 405.023 212.419 364.964 204.227C322.734 195.584 359.424 158.833 359.424 158.833C359.424 158.833 348.723 155.822 351.775 142.623Z" fill="#263238"/>
<path d="M391.004 167.178L390.134 166.646C393.851 160.604 394.465 155.105 391.957 150.262C388.731 144.118 380.908 140.493 374.835 140.145L374.897 139.121C381.245 139.479 389.468 143.217 392.868 149.78C395.51 154.9 394.865 160.901 391.004 167.178Z" fill="#263238"/>
<path d="M379.361 140.718C382.894 140.134 381.225 134.369 378.624 132.844C376.023 131.318 363.561 133.796 364.933 137.769C366.305 141.742 374.62 141.507 379.361 140.718Z" fill="white"/>
<path d="M379.996 139.264C383.519 138.588 382.106 133.919 379.464 132.454C376.822 130.99 365.937 132.076 367.421 135.997C368.906 139.919 375.286 140.196 379.996 139.264Z" fill="#00A688"/>
<path d="M343.091 132.577C340.732 132.546 338.451 131.728 336.609 130.253C333.67 127.969 332.052 124.549 332.513 121.539C332.79 119.624 333.988 116.992 338.166 115.323L338.545 116.275C335.596 117.453 333.865 119.347 333.527 121.682C333.158 124.344 334.623 127.386 337.275 129.444C338.505 130.47 339.987 131.149 341.567 131.412C343.148 131.675 344.769 131.511 346.266 130.939L346.655 131.891C345.524 132.354 344.313 132.587 343.091 132.577Z" fill="#263238"/>
<path d="M354.202 143.749C353.741 146.268 353.597 147.343 352.287 148.521C351.914 148.938 351.425 149.232 350.882 149.366C350.339 149.5 349.769 149.466 349.245 149.27C348.722 149.075 348.27 148.725 347.948 148.268C347.627 147.811 347.451 147.267 347.443 146.709C347.238 144.394 348.027 140.667 350.372 139.889C352.717 139.11 354.662 141.24 354.202 143.749Z" fill="#FFCC9E"/>
<path d="M348.549 151.767L347.72 150.282C347.685 150.222 347.666 150.153 347.666 150.083C347.666 150.012 347.685 149.944 347.72 149.883L348.549 148.408C348.585 148.344 348.636 148.291 348.7 148.254C348.763 148.217 348.834 148.197 348.908 148.197C348.981 148.197 349.053 148.217 349.116 148.254C349.179 148.291 349.23 148.344 349.266 148.408L350.095 149.883C350.13 149.944 350.149 150.012 350.149 150.083C350.149 150.153 350.13 150.222 350.095 150.282L349.266 151.767C349.23 151.831 349.179 151.884 349.116 151.922C349.053 151.959 348.981 151.978 348.908 151.978C348.834 151.978 348.763 151.959 348.7 151.922C348.636 151.884 348.585 151.831 348.549 151.767Z" fill="white"/>
<path d="M338.33 229.376C338.33 229.376 336.927 280.719 335.053 314.491C333.066 345.487 330.516 417.976 330.516 417.976L338.35 418.386C338.35 418.386 355.676 357.386 354.949 320.532C375.286 268.984 367.974 230.922 367.974 230.922L338.33 229.376Z" fill="#FFCC9E"/>
<path d="M331.1 414.72C330.926 414.594 330.716 414.526 330.501 414.526C330.286 414.526 330.076 414.594 329.902 414.72C326.143 417.51 321.589 419.025 316.908 419.041C311.706 419.267 312.986 422.113 320.43 423.066C329.185 424.151 331.059 425.953 333.885 426.66C336.712 427.366 338.954 425.216 338.903 419.277C338.898 419.074 338.834 418.877 338.717 418.711C338.6 418.545 338.437 418.418 338.248 418.345C335.731 417.422 333.332 416.205 331.1 414.72Z" fill="#263238"/>
<path d="M348.723 229.376C348.723 229.376 363.059 290.14 371.364 318.464C380.099 348.16 387.021 415.928 386.97 418.171H393.748C393.748 418.171 402.504 363.243 391.7 318.433C390.676 245.729 378.143 229.427 378.143 229.427L348.723 229.376Z" fill="#FFCC9E"/>
<path d="M386.795 415.744C386.619 415.671 386.424 415.658 386.239 415.706C386.054 415.754 385.89 415.861 385.771 416.01C384.02 418.284 382.751 420.803 377.579 423.014C373.299 424.837 375.665 427.336 382.362 426.424C390.236 425.339 390.349 426.619 393.001 426.619C395.653 426.619 396.902 423.977 394.967 418.232C394.905 418.042 394.793 417.873 394.641 417.743C394.489 417.612 394.304 417.527 394.107 417.495C391.608 417.209 389.153 416.621 386.795 415.744Z" fill="#263238"/>
<path d="M338.33 229.376C338.33 229.376 331.571 274.371 332.523 335.872C353.904 335.75 375.149 332.472 395.571 326.144C395.571 326.144 395.878 246.456 378.091 229.407C367.821 226.642 338.565 228.475 338.33 229.376Z" fill="#263238"/>
<path opacity="0.2" d="M339.118 327.137C339.052 327.137 338.988 327.112 338.941 327.066C338.893 327.02 338.865 326.958 338.862 326.892C336.947 287.621 341.596 232.182 341.637 231.66C341.638 231.625 341.647 231.592 341.661 231.561C341.676 231.53 341.697 231.503 341.723 231.481C341.749 231.459 341.78 231.442 341.812 231.432C341.845 231.423 341.88 231.42 341.914 231.424C341.947 231.427 341.98 231.436 342.01 231.451C342.04 231.466 342.067 231.488 342.089 231.513C342.111 231.539 342.127 231.569 342.138 231.601C342.148 231.633 342.152 231.667 342.149 231.701C342.098 232.264 337.459 287.662 339.374 326.933C339.377 326.966 339.373 327.001 339.362 327.033C339.35 327.065 339.333 327.095 339.31 327.12C339.287 327.145 339.259 327.165 339.227 327.178C339.196 327.192 339.162 327.199 339.128 327.199L339.118 327.137Z" fill="white"/>
<path opacity="0.2" d="M365.875 287.867L371.702 257.004L374.047 264.387L365.875 287.867Z" fill="black"/>
</svg>
