<svg width="256" height="256" viewBox="0 0 256 256" fill="none" xmlns="http://www.w3.org/2000/svg">
<path d="M256 195.789H0V195.917H256V195.789Z" fill="#EBEBEB"/>
<path d="M230.349 204.027H213.391V204.155H230.349V204.027Z" fill="#EBEBEB"/>
<path d="M169.585 205.42H165.135V205.548H169.585V205.42Z" fill="#EBEBEB"/>
<path d="M212.879 199.276H203.054V199.404H212.879V199.276Z" fill="#EBEBEB"/>
<path d="M48.9729 200.136H26.8596V200.264H48.9729V200.136Z" fill="#EBEBEB"/>
<path d="M56.7756 200.136H53.5347V200.264H56.7756V200.136Z" fill="#EBEBEB"/>
<path d="M115.277 202.296H67.3127V202.424H115.277V202.296Z" fill="#EBEBEB"/>
<path d="M207.565 130.089L211.896 125.757V110.592H217.016V125.752L221.348 130.084C221.503 130.239 221.609 130.436 221.652 130.651C221.695 130.866 221.673 131.088 221.589 131.291C221.505 131.493 221.363 131.666 221.18 131.788C220.998 131.909 220.784 131.974 220.564 131.973H208.348C208.13 131.973 207.917 131.908 207.736 131.787C207.554 131.665 207.413 131.493 207.329 131.292C207.246 131.09 207.223 130.869 207.265 130.655C207.307 130.441 207.411 130.244 207.565 130.089Z" fill="#F5F5F5"/>
<path d="M203.976 131.978H205.46V87.4087H203.976V131.978Z" fill="#EBEBEB"/>
<path d="M160.404 99.8298H158.92V131.978H160.404V99.8298Z" fill="#EBEBEB"/>
<path d="M148.116 124.273H146.632V131.978H148.116V124.273Z" fill="#EBEBEB"/>
<path d="M182.026 122.179C186.355 122.179 189.865 118.669 189.865 114.34C189.865 110.011 186.355 106.501 182.026 106.501C177.697 106.501 174.188 110.011 174.188 114.34C174.188 118.669 177.697 122.179 182.026 122.179Z" fill="#F5F5F5"/>
<path d="M138.061 86.2465H145.336L142.981 88.6017V118.554C142.961 119.14 143.059 119.725 143.27 120.272C143.48 120.82 143.799 121.32 144.207 121.742C144.615 122.164 145.103 122.499 145.643 122.728C146.183 122.958 146.764 123.076 147.351 123.076C147.938 123.076 148.519 122.958 149.059 122.728C149.599 122.499 150.088 122.164 150.495 121.742C150.903 121.32 151.222 120.82 151.432 120.272C151.643 119.725 151.741 119.14 151.721 118.554V106.302C151.721 104.242 152.539 102.266 153.996 100.809C155.452 99.3528 157.428 98.5345 159.488 98.5345C161.548 98.5345 163.524 99.3528 164.98 100.809C166.437 102.266 167.255 104.242 167.255 106.302V108.81C167.255 109.936 167.702 111.017 168.498 111.813C169.294 112.61 170.373 113.059 171.5 113.06H180.736V100.931C180.735 99.3464 180.105 97.8274 178.984 96.7071C177.864 95.5869 176.345 94.9569 174.761 94.9556C172.498 94.9542 170.328 94.0546 168.727 92.4542C167.127 90.8539 166.227 88.6838 166.226 86.4205V82.9441L163.866 80.5889H166.226V80.3226H168.786V80.5889H171.141L168.786 82.9441V86.441C168.787 88.0253 169.417 89.5443 170.537 90.6645C171.658 91.7848 173.177 92.4147 174.761 92.4161C177.02 92.4188 179.186 93.316 180.786 94.9117C182.385 96.5073 183.288 98.6714 183.296 100.931V113.06H191.191C192.046 113.059 192.866 112.718 193.47 112.114C194.075 111.509 194.415 110.689 194.417 109.834V96.9063C194.386 95.4871 194.638 94.076 195.16 92.7558C195.681 91.4356 196.461 90.2328 197.454 89.2181C198.447 88.2034 199.632 87.3972 200.941 86.8468C202.249 86.2964 203.654 86.0129 205.074 86.0129C206.493 86.0129 207.899 86.2964 209.207 86.8468C210.516 87.3972 211.701 88.2034 212.694 89.2181C213.686 90.2328 214.466 91.4356 214.988 92.7558C215.51 94.076 215.762 95.4871 215.731 96.9063V102.871H213.171V96.9063C213.198 95.8258 213.009 94.7508 212.614 93.7447C212.22 92.7385 211.628 91.8215 210.873 91.0477C210.118 90.2739 209.216 89.6589 208.221 89.239C207.225 88.8192 206.155 88.6028 205.074 88.6028C203.993 88.6028 202.923 88.8192 201.927 89.239C200.931 89.6589 200.03 90.2739 199.275 91.0477C198.52 91.8215 197.928 92.7385 197.534 93.7447C197.139 94.7508 196.949 95.8258 196.977 96.9063V109.834C196.975 111.368 196.365 112.839 195.281 113.924C194.196 115.009 192.725 115.619 191.191 115.62H171.52C169.715 115.617 167.985 114.899 166.71 113.622C165.434 112.346 164.717 110.615 164.716 108.81V106.302C164.716 104.921 164.167 103.596 163.19 102.62C162.214 101.643 160.889 101.094 159.508 101.094C158.127 101.094 156.803 101.643 155.827 102.62C154.85 103.596 154.301 104.921 154.301 106.302V118.554C154.327 119.48 154.166 120.401 153.829 121.264C153.492 122.127 152.986 122.913 152.34 123.577C151.694 124.241 150.921 124.768 150.068 125.129C149.215 125.489 148.298 125.675 147.372 125.675C146.445 125.675 145.528 125.489 144.675 125.129C143.822 124.768 143.049 124.241 142.403 123.577C141.757 122.913 141.251 122.127 140.914 121.264C140.577 120.401 140.416 119.48 140.442 118.554V88.6017L138.061 86.2465Z" fill="#F5F5F5"/>
<path d="M188.938 131.978H174.602V129.48C174.602 129.023 174.783 128.586 175.106 128.263C175.429 127.941 175.866 127.759 176.323 127.759H187.213C187.669 127.759 188.107 127.941 188.429 128.263C188.752 128.586 188.933 129.023 188.933 129.48V131.978H188.938Z" fill="#EBEBEB"/>
<path d="M114.831 82.9185H37.9238V195.676H114.831V82.9185Z" fill="#F0F0F0"/>
<path d="M112.113 86.4666H40.6426V107.29H112.113V86.4666Z" fill="#E0E0E0"/>
<path d="M44.7027 89.8356H40.6426V107.29H44.7027V89.8356Z" fill="#EBEBEB"/>
<path d="M64.338 89.8356H60.2778V107.29H64.338V89.8356Z" fill="#EBEBEB"/>
<path d="M86.6262 89.3981L82.625 90.0878L85.5899 107.288L89.591 106.599L86.6262 89.3981Z" fill="#EBEBEB"/>
<path d="M49.7357 92.1395H45.6755V107.295H49.7357V92.1395Z" fill="#EBEBEB"/>
<path d="M59.0643 92.1395H55.0042V107.295H59.0643V92.1395Z" fill="#EBEBEB"/>
<path d="M82.6214 92.1395H78.5613V107.295H82.6214V92.1395Z" fill="#EBEBEB"/>
<path d="M69.6739 91.616L65.7104 92.4968L68.9984 107.291L72.9618 106.41L69.6739 91.616Z" fill="#EBEBEB"/>
<path d="M53.2429 88.9702H51.2153V107.29H53.2429V88.9702Z" fill="#EBEBEB"/>
<path d="M77.394 88.9702H75.3665V107.29H77.394V88.9702Z" fill="#EBEBEB"/>
<path d="M40.6476 131.415H112.118V110.592H40.6476V131.415Z" fill="#E0E0E0"/>
<path d="M108.058 131.41H112.118V113.956H108.058V131.41Z" fill="#EBEBEB"/>
<path d="M88.4225 131.41H92.4827V113.956H88.4225V131.41Z" fill="#EBEBEB"/>
<path d="M63.1732 130.724L67.1743 131.414L70.1392 114.214L66.138 113.524L63.1732 130.724Z" fill="#EBEBEB"/>
<path d="M103.025 131.415H107.085V116.26H103.025V131.415Z" fill="#EBEBEB"/>
<path d="M93.6908 131.415H97.751V116.26H93.6908V131.415Z" fill="#EBEBEB"/>
<path d="M70.1337 131.415H74.1938V116.26H70.1337V131.415Z" fill="#EBEBEB"/>
<path d="M79.8095 130.532L83.7729 131.413L87.0609 116.618L83.0974 115.738L79.8095 130.532Z" fill="#EBEBEB"/>
<path d="M99.5174 131.415H101.545V113.096H99.5174V131.415Z" fill="#EBEBEB"/>
<path d="M75.3665 131.415H77.394V113.096H75.3665V131.415Z" fill="#EBEBEB"/>
<path d="M44.7027 113.961H40.6426V131.415H44.7027V113.961Z" fill="#EBEBEB"/>
<path d="M49.7357 116.26H45.6755V131.415H49.7357V116.26Z" fill="#EBEBEB"/>
<path d="M59.0643 116.26H55.0042V131.415H59.0643V116.26Z" fill="#EBEBEB"/>
<path d="M53.2429 113.091H51.2153V131.41H53.2429V113.091Z" fill="#EBEBEB"/>
<path d="M112.113 134.712H40.6426V155.535H112.113V134.712Z" fill="#E0E0E0"/>
<path d="M85.7242 138.081H81.6641V155.535H85.7242V138.081Z" fill="#EBEBEB"/>
<path d="M108.012 137.646L104.011 138.336L106.976 155.537L110.977 154.847L108.012 137.646Z" fill="#EBEBEB"/>
<path d="M71.1271 140.38H67.0669V155.535H71.1271V140.38Z" fill="#EBEBEB"/>
<path d="M80.4557 140.38H76.3955V155.535H80.4557V140.38Z" fill="#EBEBEB"/>
<path d="M104.013 140.38H99.9526V155.535H104.013V140.38Z" fill="#EBEBEB"/>
<path d="M91.0645 139.858L87.1011 140.739L90.389 155.533L94.3525 154.653L91.0645 139.858Z" fill="#EBEBEB"/>
<path d="M74.6342 137.216H72.6067V155.535H74.6342V137.216Z" fill="#EBEBEB"/>
<path d="M98.7802 137.216H96.7527V155.535H98.7802V137.216Z" fill="#EBEBEB"/>
<path d="M61.3102 137.644L57.3091 138.334L60.2739 155.534L64.2751 154.844L61.3102 137.644Z" fill="#EBEBEB"/>
<path d="M57.3031 140.38H53.2429V155.535H57.3031V140.38Z" fill="#EBEBEB"/>
<path d="M44.3512 139.86L40.3877 140.74L43.6756 155.535L47.6391 154.654L44.3512 139.86Z" fill="#EBEBEB"/>
<path d="M52.0705 137.216H50.043V155.535H52.0705V137.216Z" fill="#EBEBEB"/>
<path d="M24.6579 195.968H37.9238L37.9238 82.9184H24.6579L24.6579 195.968Z" fill="#E0E0E0"/>
<path d="M230.379 131.963V195.968H227.097V138.527H169.113V195.968H165.284V131.963H230.379Z" fill="#E0E0E0"/>
<path d="M194.278 131.963V195.968H190.996V138.527H133.007V195.968H129.177V131.963H194.278Z" fill="#F5F5F5"/>
<path d="M130.317 60.6897C136.725 58.8788 140.452 52.2158 138.641 45.8075C136.83 39.3993 130.167 35.6724 123.759 37.4833C117.35 39.2943 113.624 45.9573 115.435 52.3655C117.245 58.7738 123.908 62.5006 130.317 60.6897Z" fill="#E0E0E0"/>
<path d="M137.243 50.036C137.767 44.3963 133.619 39.4003 127.979 38.8772C122.339 38.354 117.344 42.5017 116.82 48.1414C116.297 53.7811 120.445 58.777 126.085 59.3002C131.724 59.8234 136.72 55.6756 137.243 50.036Z" fill="#F0F0F0"/>
<path d="M125.051 55.8489L127.539 49.1315L131.062 53.2992" fill="#F0F0F0"/>
<path d="M125.051 56.361C124.99 56.3615 124.929 56.3511 124.872 56.3303C124.745 56.283 124.642 56.1876 124.586 56.0648C124.529 55.9421 124.523 55.8019 124.57 55.6749L127.058 48.9523C127.089 48.8674 127.141 48.7921 127.21 48.7341C127.279 48.676 127.362 48.6372 127.451 48.6216C127.54 48.606 127.631 48.6142 127.716 48.6453C127.801 48.6764 127.876 48.7293 127.933 48.7987L131.451 52.9715C131.538 53.0754 131.581 53.2098 131.57 53.3452C131.558 53.4806 131.493 53.6059 131.389 53.6935C131.286 53.781 131.151 53.8238 131.016 53.8122C130.88 53.8007 130.755 53.7359 130.668 53.632L127.713 50.1299L125.527 56.0282C125.491 56.1254 125.426 56.2092 125.341 56.2686C125.256 56.3281 125.155 56.3603 125.051 56.361Z" fill="#E0E0E0"/>
<path d="M75.5048 82.9184H74.4808V70.9376H62.9659V82.9184H61.9419V69.9136H75.5048V82.9184Z" fill="#EBEBEB"/>
<path d="M65.5257 70.4257H65.0137V79.7645H65.5257V70.4257Z" fill="#EBEBEB"/>
<path d="M66.1144 79.7645C66.1144 79.9316 66.0649 80.0949 65.972 80.2338C65.8792 80.3728 65.7473 80.481 65.5929 80.545C65.4385 80.6089 65.2687 80.6256 65.1048 80.593C64.9409 80.5605 64.7904 80.48 64.6722 80.3618C64.5541 80.2437 64.4736 80.0932 64.441 79.9293C64.4084 79.7654 64.4252 79.5956 64.4891 79.4412C64.5531 79.2868 64.6613 79.1549 64.8003 79.0621C64.9392 78.9692 65.1025 78.9197 65.2696 78.9197C65.3806 78.9197 65.4904 78.9415 65.5929 78.984C65.6954 79.0264 65.7885 79.0887 65.867 79.1671C65.9454 79.2456 66.0076 79.3387 66.0501 79.4412C66.0926 79.5437 66.1144 79.6535 66.1144 79.7645Z" fill="#EBEBEB"/>
<path d="M67.5738 70.4257H67.0618V79.7645H67.5738V70.4257Z" fill="#EBEBEB"/>
<path d="M68.1625 79.7645C68.1625 79.9316 68.113 80.0949 68.0201 80.2338C67.9273 80.3728 67.7954 80.481 67.641 80.545C67.4866 80.6089 67.3168 80.6256 67.1529 80.593C66.989 80.5605 66.8385 80.48 66.7203 80.3618C66.6022 80.2437 66.5217 80.0932 66.4891 79.9293C66.4565 79.7654 66.4733 79.5956 66.5372 79.4412C66.6011 79.2868 66.7094 79.1549 66.8484 79.0621C66.9873 78.9692 67.1506 78.9197 67.3177 78.9197C67.4286 78.9197 67.5385 78.9415 67.641 78.984C67.7435 79.0264 67.8366 79.0887 67.9151 79.1671C67.9935 79.2456 68.0557 79.3387 68.0982 79.4412C68.1407 79.5437 68.1625 79.6535 68.1625 79.7645Z" fill="#EBEBEB"/>
<path d="M69.6219 70.4257H69.1099V79.7645H69.6219V70.4257Z" fill="#EBEBEB"/>
<path d="M70.2106 79.7645C70.2106 79.9316 70.161 80.0949 70.0682 80.2338C69.9754 80.3728 69.8435 80.481 69.6891 80.545C69.5347 80.6089 69.3649 80.6256 69.201 80.593C69.0371 80.5605 68.8866 80.48 68.7684 80.3618C68.6503 80.2437 68.5698 80.0932 68.5372 79.9293C68.5046 79.7654 68.5214 79.5956 68.5853 79.4412C68.6492 79.2868 68.7575 79.1549 68.8964 79.0621C69.0354 78.9692 69.1987 78.9197 69.3658 78.9197C69.4767 78.9197 69.5866 78.9415 69.6891 78.984C69.7916 79.0264 69.8847 79.0887 69.9632 79.1671C70.0416 79.2456 70.1038 79.3387 70.1463 79.4412C70.1887 79.5437 70.2106 79.6535 70.2106 79.7645Z" fill="#EBEBEB"/>
<path d="M71.6697 70.4257H71.1577V79.7645H71.6697V70.4257Z" fill="#EBEBEB"/>
<path d="M72.2584 79.7645C72.2584 79.9316 72.2089 80.0949 72.1161 80.2338C72.0232 80.3728 71.8913 80.481 71.7369 80.545C71.5826 80.6089 71.4127 80.6256 71.2488 80.593C71.085 80.5605 70.9344 80.48 70.8163 80.3618C70.6981 80.2437 70.6177 80.0932 70.5851 79.9293C70.5525 79.7654 70.5692 79.5956 70.6332 79.4412C70.6971 79.2868 70.8054 79.1549 70.9443 79.0621C71.0832 78.9692 71.2466 78.9197 71.4136 78.9197C71.5246 78.9197 71.6344 78.9415 71.7369 78.984C71.8394 79.0264 71.9326 79.0887 72.011 79.1671C72.0895 79.2456 72.1517 79.3387 72.1941 79.4412C72.2366 79.5437 72.2584 79.6535 72.2584 79.7645Z" fill="#EBEBEB"/>
<path d="M73.0305 70.4365L72.5732 70.6667L76.7737 79.0076L77.231 78.7774L73.0305 70.4365Z" fill="#EBEBEB"/>
<path d="M77.7625 78.5101C77.8376 78.6593 77.8668 78.8273 77.8464 78.993C77.826 79.1588 77.7569 79.3147 77.6479 79.4412C77.5389 79.5677 77.3949 79.6591 77.234 79.7038C77.0731 79.7485 76.9026 79.7445 76.744 79.6924C76.5854 79.6402 76.4458 79.5422 76.3428 79.4108C76.2398 79.2793 76.1781 79.1203 76.1655 78.9538C76.1529 78.7873 76.1899 78.6208 76.2718 78.4753C76.3537 78.3298 76.477 78.2118 76.6259 78.1363C76.725 78.0861 76.8331 78.0559 76.944 78.0475C77.0548 78.0391 77.1662 78.0526 77.2718 78.0873C77.3774 78.122 77.4751 78.1773 77.5593 78.2498C77.6435 78.3224 77.7126 78.4108 77.7625 78.5101Z" fill="#EBEBEB"/>
<path d="M128 218.911C182.826 218.911 227.272 216.316 227.272 213.115C227.272 209.914 182.826 207.319 128 207.319C73.1737 207.319 28.7283 209.914 28.7283 213.115C28.7283 216.316 73.1737 218.911 128 218.911Z" fill="#F5F5F5"/>
<path d="M196.035 200.996C195.929 200.774 195.879 200.531 195.887 200.285C195.895 200.04 195.962 199.801 196.082 199.587C196.202 199.373 196.371 199.19 196.576 199.055C196.78 198.92 197.014 198.836 197.258 198.81C197.043 198.179 197.026 197.498 197.209 196.857C197.392 196.217 197.767 195.647 198.282 195.226C198.406 195.114 198.562 195.044 198.728 195.026C198.908 195.047 199.077 195.122 199.214 195.241L202.066 197.289C202.297 197.429 202.492 197.622 202.634 197.852C203.218 198.984 201.098 200.412 201.979 201.364C202.225 201.631 202.624 201.687 202.936 201.876C203.617 202.301 203.699 203.233 204.012 203.965C204.324 204.698 205.435 205.276 205.855 204.595C205.542 203.889 206.49 203.279 207.253 203.192C208.015 203.105 208.819 203.059 209.244 202.337C210.335 203.29 212.767 200.637 212.71 199.567C213.606 199.639 214.216 200.474 214.41 201.313C214.536 202.195 214.567 203.087 214.502 203.976C214.502 205.706 215.086 207.401 215.055 209.131C215.055 210.483 214.513 211.978 213.279 212.521C212.665 212.737 212.013 212.825 211.364 212.777L197.325 212.685C196.987 212.712 196.648 212.655 196.337 212.521C195.702 212.188 195.569 211.359 195.507 210.647L194.755 201.492L196.035 200.996Z" fill="#00A688"/>
<path opacity="0.5" d="M196.035 200.996C195.929 200.774 195.879 200.531 195.887 200.285C195.895 200.04 195.962 199.801 196.082 199.587C196.202 199.373 196.371 199.19 196.576 199.055C196.78 198.92 197.014 198.836 197.258 198.81C197.043 198.179 197.026 197.498 197.209 196.857C197.392 196.217 197.767 195.647 198.282 195.226C198.406 195.114 198.562 195.044 198.728 195.026C198.908 195.047 199.077 195.122 199.214 195.241L202.066 197.289C202.297 197.429 202.492 197.622 202.634 197.852C203.218 198.984 201.098 200.412 201.979 201.364C202.225 201.631 202.624 201.687 202.936 201.876C203.617 202.301 203.699 203.233 204.012 203.965C204.324 204.698 205.435 205.276 205.855 204.595C205.542 203.889 206.49 203.279 207.253 203.192C208.015 203.105 208.819 203.059 209.244 202.337C210.335 203.29 212.767 200.637 212.71 199.567C213.606 199.639 214.216 200.474 214.41 201.313C214.536 202.195 214.567 203.087 214.502 203.976C214.502 205.706 215.086 207.401 215.055 209.131C215.055 210.483 214.513 211.978 213.279 212.521C212.665 212.737 212.013 212.825 211.364 212.777L197.325 212.685C196.987 212.712 196.648 212.655 196.337 212.521C195.702 212.188 195.569 211.359 195.507 210.647L194.755 201.492L196.035 200.996Z" fill="white"/>
<path d="M192.763 186.153L192.942 188.355L193.07 189.926L193.398 194.022L193.587 196.367L193.843 199.496L193.951 200.837L193.982 201.236L194.11 202.808L194.284 204.974L194.391 206.315L194.504 207.672L194.632 209.249L194.729 210.452L194.837 211.789L194.883 212.372H214.881L214.927 211.789L215.04 210.432L215.137 209.239L215.265 207.662L215.378 206.3L215.485 204.959L215.66 202.798L215.788 201.221L215.823 200.822L215.931 199.48L216.182 196.352L216.371 194.002L216.704 189.906L216.832 188.334L217.011 186.132H192.763V186.153ZM193.869 187.177H194.325L193.905 187.597L193.869 187.177ZM195.768 187.177H196.239L198.241 189.179L196.004 191.416L194.048 189.466L194.007 188.954L195.768 187.177ZM194.458 194.411L195.994 192.875L198.231 195.108L195.994 197.345L194.56 195.907L194.458 194.411ZM215.189 195.907L213.765 197.335L211.528 195.098L213.765 192.865L215.301 194.401L215.189 195.907ZM198.963 189.901L201.201 192.138L198.963 194.376L196.726 192.138L198.963 189.901ZM198.963 188.457L197.683 187.177H200.243L198.963 188.457ZM201.923 192.865L204.16 195.098L201.923 197.335L199.68 195.098L201.923 192.865ZM204.882 200.294L202.65 198.057L204.882 195.825L207.119 198.057L204.882 200.294ZM207.841 198.784L210.079 201.021L207.872 203.264L205.635 201.027L207.841 198.784ZM204.16 201.016L201.923 203.264L199.68 201.021L201.912 198.784L204.16 201.016ZM202.65 192.138L204.882 189.901L207.119 192.138L204.882 194.376L202.65 192.138ZM207.841 192.865L210.079 195.098L207.841 197.335L205.609 195.098L207.841 192.865ZM208.568 192.138L210.806 189.901L213.038 192.138L210.806 194.376L208.568 192.138ZM213.038 198.057L210.806 200.294L208.568 198.057L210.806 195.825L213.038 198.057ZM210.806 201.743L213.038 203.981L210.806 206.213L208.568 203.981L210.806 201.743ZM210.079 206.94L207.841 209.178L205.609 206.94L207.846 204.703L210.079 206.94ZM204.882 206.213L202.65 203.981L204.882 201.743L207.119 203.981L204.882 206.213ZM204.16 206.94L201.923 209.178L199.68 206.94L201.912 204.703L204.16 206.94ZM201.216 209.92L199.767 211.369H198.19L196.726 209.92L198.963 207.683L201.216 209.92ZM198.979 206.234L196.741 204.001L198.963 201.728L201.216 203.981L198.979 206.234ZM198.979 200.315L196.741 198.077L198.979 195.845L201.216 198.077L198.979 200.315ZM201.702 187.197H202.173L204.175 189.199L201.938 191.437L199.68 189.179L201.702 187.197ZM203.622 187.197H206.182L204.902 188.477L203.622 187.197ZM207.621 187.197H208.092L210.094 189.199L207.857 191.437L205.624 189.199L207.621 187.197ZM212.096 187.197L210.821 188.477L209.541 187.197H212.096ZM214.016 187.197L215.767 188.954L215.726 189.466L213.781 191.416L211.543 189.179L213.545 187.177L214.016 187.197ZM215.91 187.197L215.875 187.612L215.46 187.197H215.91ZM215.434 193.091L214.502 192.159L215.598 191.063L215.434 193.091ZM214.989 198.564L214.502 198.077L215.076 197.504L214.989 198.564ZM214.682 202.373L213.765 203.264L211.528 201.032L213.765 198.794L214.866 199.9L214.682 202.373ZM214.549 204.047L214.502 204.001L214.554 203.95V204.047H214.549ZM214.159 208.814L213.781 209.193L211.543 206.961L213.781 204.723L214.441 205.384L214.159 208.814ZM213.053 211.374L213.781 210.647L213.996 210.862L213.955 211.374H213.053ZM211.61 211.374H210.033L208.568 209.92L210.806 207.683L213.038 209.92L211.61 211.374ZM207.13 211.374L207.857 210.647L208.584 211.374H207.13ZM204.109 211.374L202.65 209.92L204.882 207.683L207.119 209.92L205.67 211.369L204.109 211.374ZM201.211 211.374L201.938 210.647L202.665 211.374H201.211ZM195.804 210.862L196.019 210.647L196.746 211.374H195.845L195.804 210.862ZM195.359 205.389L196.019 204.728L198.257 206.966L196.019 209.198L195.635 208.819L195.359 205.389ZM195.241 203.95L195.297 204.006L195.251 204.052V203.95H195.241ZM194.913 199.915L196.019 198.81L198.257 201.047L196.004 203.264L195.098 202.363L194.913 199.915ZM194.719 197.509L195.297 198.083L194.785 198.595L194.719 197.509ZM194.207 191.063L195.308 192.164L194.371 193.101L194.207 191.053V191.063Z" fill="#00A688"/>
<g opacity="0.6">
<path opacity="0.6" d="M192.763 186.153L192.942 188.355L193.07 189.926L193.398 194.022L193.587 196.367L193.843 199.496L193.951 200.837L193.982 201.236L194.11 202.808L194.284 204.974L194.391 206.315L194.504 207.672L194.632 209.249L194.729 210.452L194.837 211.789L194.883 212.372H214.881L214.927 211.789L215.04 210.432L215.137 209.239L215.265 207.662L215.378 206.3L215.485 204.959L215.66 202.798L215.788 201.221L215.823 200.822L215.931 199.48L216.182 196.352L216.371 194.002L216.704 189.906L216.832 188.334L217.011 186.132H192.763V186.153ZM193.869 187.177H194.325L193.905 187.597L193.869 187.177ZM195.768 187.177H196.239L198.241 189.179L196.004 191.416L194.048 189.466L194.007 188.954L195.768 187.177ZM194.458 194.411L195.994 192.875L198.231 195.108L195.994 197.345L194.56 195.907L194.458 194.411ZM215.189 195.907L213.765 197.335L211.528 195.098L213.765 192.865L215.301 194.401L215.189 195.907ZM198.963 189.901L201.201 192.138L198.963 194.376L196.726 192.138L198.963 189.901ZM198.963 188.457L197.683 187.177H200.243L198.963 188.457ZM201.923 192.865L204.16 195.098L201.923 197.335L199.68 195.098L201.923 192.865ZM204.882 200.294L202.65 198.057L204.882 195.825L207.119 198.057L204.882 200.294ZM207.841 198.784L210.079 201.021L207.872 203.264L205.635 201.027L207.841 198.784ZM204.16 201.016L201.923 203.264L199.68 201.021L201.912 198.784L204.16 201.016ZM202.65 192.138L204.882 189.901L207.119 192.138L204.882 194.376L202.65 192.138ZM207.841 192.865L210.079 195.098L207.841 197.335L205.609 195.098L207.841 192.865ZM208.568 192.138L210.806 189.901L213.038 192.138L210.806 194.376L208.568 192.138ZM213.038 198.057L210.806 200.294L208.568 198.057L210.806 195.825L213.038 198.057ZM210.806 201.743L213.038 203.981L210.806 206.213L208.568 203.981L210.806 201.743ZM210.079 206.94L207.841 209.178L205.609 206.94L207.846 204.703L210.079 206.94ZM204.882 206.213L202.65 203.981L204.882 201.743L207.119 203.981L204.882 206.213ZM204.16 206.94L201.923 209.178L199.68 206.94L201.912 204.703L204.16 206.94ZM201.216 209.92L199.767 211.369H198.19L196.726 209.92L198.963 207.683L201.216 209.92ZM198.979 206.234L196.741 204.001L198.963 201.728L201.216 203.981L198.979 206.234ZM198.979 200.315L196.741 198.077L198.979 195.845L201.216 198.077L198.979 200.315ZM201.702 187.197H202.173L204.175 189.199L201.938 191.437L199.68 189.179L201.702 187.197ZM203.622 187.197H206.182L204.902 188.477L203.622 187.197ZM207.621 187.197H208.092L210.094 189.199L207.857 191.437L205.624 189.199L207.621 187.197ZM212.096 187.197L210.821 188.477L209.541 187.197H212.096ZM214.016 187.197L215.767 188.954L215.726 189.466L213.781 191.416L211.543 189.179L213.545 187.177L214.016 187.197ZM215.91 187.197L215.875 187.612L215.46 187.197H215.91ZM215.434 193.091L214.502 192.159L215.598 191.063L215.434 193.091ZM214.989 198.564L214.502 198.077L215.076 197.504L214.989 198.564ZM214.682 202.373L213.765 203.264L211.528 201.032L213.765 198.794L214.866 199.9L214.682 202.373ZM214.549 204.047L214.502 204.001L214.554 203.95V204.047H214.549ZM214.159 208.814L213.781 209.193L211.543 206.961L213.781 204.723L214.441 205.384L214.159 208.814ZM213.053 211.374L213.781 210.647L213.996 210.862L213.955 211.374H213.053ZM211.61 211.374H210.033L208.568 209.92L210.806 207.683L213.038 209.92L211.61 211.374ZM207.13 211.374L207.857 210.647L208.584 211.374H207.13ZM204.109 211.374L202.65 209.92L204.882 207.683L207.119 209.92L205.67 211.369L204.109 211.374ZM201.211 211.374L201.938 210.647L202.665 211.374H201.211ZM195.804 210.862L196.019 210.647L196.746 211.374H195.845L195.804 210.862ZM195.359 205.389L196.019 204.728L198.257 206.966L196.019 209.198L195.635 208.819L195.359 205.389ZM195.241 203.95L195.297 204.006L195.251 204.052V203.95H195.241ZM194.913 199.915L196.019 198.81L198.257 201.047L196.004 203.264L195.098 202.363L194.913 199.915ZM194.719 197.509L195.297 198.083L194.785 198.595L194.719 197.509ZM194.207 191.063L195.308 192.164L194.371 193.101L194.207 191.053V191.063Z" fill="white"/>
</g>
<path d="M217.559 185.236H192.205C191.741 185.236 191.365 185.612 191.365 186.076V187.249C191.365 187.712 191.741 188.088 192.205 188.088H217.559C218.023 188.088 218.399 187.712 218.399 187.249V186.076C218.399 185.612 218.023 185.236 217.559 185.236Z" fill="#00A688"/>
<path d="M194.156 213.688H215.613C216.077 213.688 216.453 213.312 216.453 212.849V211.676C216.453 211.212 216.077 210.836 215.613 210.836H194.156C193.692 210.836 193.316 211.212 193.316 211.676V212.849C193.316 213.312 193.692 213.688 194.156 213.688Z" fill="#00A688"/>
<path d="M167.061 169.144L167.245 177.116L168.085 213.688H170.854L171.689 177.116L171.873 169.144H167.061Z" fill="#263238"/>
<path opacity="0.4" d="M167.061 169.144L167.245 177.116L168.085 213.688H170.854L171.689 177.116L171.873 169.144H167.061Z" fill="white"/>
<path opacity="0.2" d="M167.061 169.144L167.245 177.336H171.689L171.873 169.144H167.061Z" fill="black"/>
<path d="M152.018 213.56L154.578 169.708H158.761L155.177 213.56H152.018Z" fill="#263238"/>
<path opacity="0.5" d="M155.182 213.56H152.023L154.342 173.599L154.573 169.656H158.756L158.433 173.599L155.182 213.56Z" fill="white"/>
<path opacity="0.2" d="M158.756 169.656L158.433 173.752H154.342L154.573 169.656H158.756Z" fill="black"/>
<path d="M183.757 213.56L180.173 169.708H184.356L186.916 213.56H183.757Z" fill="#263238"/>
<path opacity="0.5" d="M183.752 213.56L180.501 173.599L180.178 169.656H184.361L184.591 173.599L186.911 213.56H183.752Z" fill="white"/>
<path opacity="0.2" d="M180.178 169.656L180.501 173.752H184.591L184.361 169.656H180.178Z" fill="black"/>
<path d="M186.598 171.203H152.335V167.777C152.335 167.098 152.605 166.447 153.085 165.967C153.565 165.487 154.216 165.217 154.895 165.217H184.038C184.717 165.217 185.368 165.487 185.849 165.967C186.329 166.447 186.598 167.098 186.598 167.777V171.203Z" fill="#263238"/>
<path d="M151.726 171.203H187.213C187.781 171.203 188.242 170.742 188.242 170.173V169.242C188.242 168.673 187.781 168.212 187.213 168.212H151.726C151.158 168.212 150.697 168.673 150.697 169.242V170.173C150.697 170.742 151.158 171.203 151.726 171.203Z" fill="#263238"/>
<path opacity="0.6" d="M151.726 171.203H187.213C187.781 171.203 188.242 170.742 188.242 170.173V169.242C188.242 168.673 187.781 168.212 187.213 168.212H151.726C151.158 168.212 150.697 168.673 150.697 169.242V170.173C150.697 170.742 151.158 171.203 151.726 171.203Z" fill="white"/>
<path d="M119.747 116.736L115.108 111.647C115.108 111.647 114.888 109.824 114.043 109.43C113.198 109.035 107.93 106.122 107.121 107.243C106.312 108.365 104.561 111.068 105.073 112.01C105.585 112.952 109.732 114.196 110.408 114.15C111.084 114.104 112.84 114.15 112.84 114.15L116.618 119.905L119.747 116.736Z" fill="#EBB376"/>
<path d="M140.723 117.279C135.199 120.899 128.435 123.325 126.761 122.399C125.087 121.472 117.453 113.352 117.453 113.352L113.265 115.886C113.265 115.886 119.977 127.872 123.924 129.997C127.872 132.122 146.289 125.307 146.289 125.307L140.723 117.279Z" fill="#00A688"/>
<path opacity="0.7" d="M146.289 125.291C146.289 125.291 140.872 127.293 135.281 128.794C130.56 130.048 125.732 130.954 123.904 129.981C119.956 127.857 113.244 115.876 113.244 115.876L117.432 113.316C117.432 113.316 125.051 121.421 126.74 122.363C128.43 123.305 135.178 120.878 140.703 117.243L143.186 120.827L146.289 125.291Z" fill="white"/>
<path d="M117.222 112.01L119.025 114.401L114.606 119.24L112.594 116.669L117.222 112.01Z" fill="#00A688"/>
<path opacity="0.6" d="M117.222 112.01L119.025 114.401L114.606 119.24L112.594 116.669L117.222 112.01Z" fill="white"/>
<path opacity="0.2" d="M146.289 125.291C146.289 125.291 140.872 127.293 135.281 128.794C137.707 125.035 141.256 122.225 143.206 120.852L146.289 125.291Z" fill="black"/>
<path d="M155.326 109.43C152.463 110.152 148.035 114.401 148.275 117.207C148.516 120.013 147.722 126.694 150.257 135.552C152.791 144.41 151.414 156.099 151.414 156.099L176.696 160.113C176.696 160.113 167.583 106.348 155.326 109.43Z" fill="#00A688"/>
<path opacity="0.4" d="M155.326 109.43C152.463 110.152 148.035 114.401 148.275 117.207C148.516 120.013 147.722 126.694 150.257 135.552C152.791 144.41 151.414 156.099 151.414 156.099L176.696 160.113C176.696 160.113 167.583 106.348 155.326 109.43Z" fill="white"/>
<path d="M156.995 209.992L152.914 209.434L152.351 199.736L156.421 200.3L156.995 209.992Z" fill="#EBB376"/>
<path opacity="0.2" d="M156.421 200.3L152.351 199.741L152.673 205.281L156.744 205.64L156.421 200.3Z" fill="black"/>
<path d="M156.831 152.996L157.824 146.76L180.69 145.408C180.69 145.408 183.122 158.382 181.253 161.838C177.92 168.008 159.949 164.91 154.685 165.499C157.829 178.355 157.522 203.479 157.522 203.479L150.016 204.037C150.016 204.037 144.241 176.968 143.068 164.101C142.275 155.423 149.468 155.648 156.831 152.996Z" fill="#00A688"/>
<path d="M158.403 203.817L149.376 204.411L148.603 200.545L158.52 200.084L158.403 203.817Z" fill="#00A688"/>
<path d="M147.584 206.372L143.478 206.674L140.908 197.309L145.009 197.012L147.584 206.372Z" fill="#EBB376"/>
<path d="M142.925 206.812H142.853C142.853 206.751 142.643 205.599 142.146 205.327C142.083 205.296 142.013 205.279 141.942 205.279C141.871 205.279 141.8 205.296 141.737 205.327C141.659 205.352 141.591 205.402 141.545 205.47C141.5 205.538 141.479 205.619 141.486 205.701C141.585 206.041 141.799 206.335 142.09 206.536C141.717 206.408 141.309 206.419 140.943 206.566C140.893 206.603 140.854 206.652 140.83 206.709C140.805 206.765 140.797 206.828 140.805 206.889C140.798 206.985 140.818 207.081 140.864 207.166C140.909 207.252 140.977 207.322 141.061 207.37C141.318 207.47 141.603 207.47 141.86 207.37C142.216 207.264 142.559 207.12 142.884 206.94H142.92C142.92 206.94 142.92 206.915 142.92 206.904C142.927 206.899 142.934 206.893 142.938 206.885C142.943 206.877 142.946 206.869 142.946 206.86C142.947 206.85 142.945 206.841 142.941 206.833C142.937 206.825 142.932 206.818 142.925 206.812ZM141.691 205.665C141.691 205.609 141.691 205.537 141.829 205.486H141.875C141.911 205.474 141.95 205.469 141.988 205.474C142.026 205.478 142.063 205.491 142.095 205.512C142.392 205.67 142.607 206.295 142.694 206.669L142.602 206.643C142.198 206.403 141.727 205.942 141.691 205.665ZM141.153 207.171C141.103 207.136 141.061 207.089 141.034 207.035C141.006 206.98 140.992 206.919 140.994 206.858C140.992 206.828 140.996 206.798 141.008 206.771C141.02 206.743 141.038 206.719 141.061 206.699C141.297 206.525 142.044 206.699 142.597 206.838C141.916 207.176 141.394 207.299 141.153 207.171Z" fill="#00A688"/>
<path opacity="0.2" d="M145.009 197.012L140.908 197.315L142.377 202.665L146.432 202.168L145.009 197.012Z" fill="black"/>
<path d="M139.515 202.005L146.744 199.88C146.744 199.88 142.428 175.519 138.04 167.071C138.368 166.963 138.803 166.825 139.341 166.666C140.308 166.374 141.594 166.011 143.104 165.591C153.61 162.678 174.904 157.215 174.904 157.215L165.176 148.137C165.176 148.137 126.464 154.045 125.635 164.255C125.251 169.165 139.515 202.005 139.515 202.005Z" fill="#00A688"/>
<path d="M147.681 200.038L138.972 202.501L137.411 198.881L147.016 196.362L147.681 200.038Z" fill="#00A688"/>
<path opacity="0.2" d="M139.351 166.666C140.319 166.374 141.604 166.011 143.114 165.591C142.812 163.113 142.807 160.271 144 158.822C146.371 155.935 152.468 154.24 155.94 153.626C158.843 153.114 168.596 152.09 168.596 152.09C168.596 152.09 155.94 150.876 142.996 154.65C136.607 156.524 137.851 162.775 139.351 166.666Z" fill="black"/>
<path opacity="0.2" d="M158.403 203.817L149.376 204.411L148.603 200.545L158.52 200.084L158.403 203.817Z" fill="white"/>
<path opacity="0.2" d="M147.681 200.038L138.972 202.501L137.411 198.881L147.016 196.362L147.681 200.038Z" fill="white"/>
<path d="M143.078 206.254L147.522 205.015C147.596 204.991 147.676 204.996 147.745 205.031C147.814 205.065 147.867 205.126 147.891 205.199L149.094 208.66C149.145 208.847 149.119 209.046 149.023 209.214C148.927 209.382 148.769 209.505 148.582 209.556C147.021 209.961 146.258 210.068 144.297 210.611C143.094 210.944 140.749 211.712 139.034 211.907C137.318 212.101 137.216 210.432 137.897 210.176C139.576 209.613 141.588 207.862 142.459 206.674C142.612 206.468 142.83 206.32 143.078 206.254Z" fill="#263238"/>
<path d="M152.509 209.439C152.509 209.367 152.443 208.205 151.997 207.836C151.933 207.788 151.859 207.753 151.781 207.735C151.702 207.716 151.621 207.714 151.542 207.729C151.458 207.735 151.378 207.769 151.315 207.824C151.251 207.879 151.207 207.954 151.188 208.036C151.208 208.388 151.351 208.722 151.593 208.978C151.251 208.774 150.848 208.7 150.456 208.768C150.401 208.795 150.352 208.835 150.316 208.885C150.279 208.935 150.255 208.993 150.246 209.055C150.222 209.146 150.224 209.242 150.251 209.332C150.278 209.423 150.33 209.504 150.4 209.567C150.631 209.714 150.909 209.769 151.178 209.72C151.544 209.69 151.905 209.618 152.253 209.505C152.259 209.508 152.265 209.509 152.271 209.509C152.278 209.509 152.284 209.508 152.289 209.505C152.289 209.505 152.289 209.505 152.289 209.475C152.289 209.444 152.387 209.475 152.392 209.439H152.479H152.509ZM151.378 208.077C151.378 208.02 151.414 207.949 151.547 207.923H151.598C151.636 207.92 151.674 207.925 151.709 207.939C151.745 207.952 151.777 207.973 151.803 208C152.064 208.215 152.136 208.865 152.151 209.254L152.069 209.208C151.713 208.924 151.468 208.524 151.378 208.077ZM150.528 209.434C150.485 209.39 150.455 209.336 150.439 209.276C150.422 209.217 150.422 209.155 150.436 209.096C150.439 209.066 150.45 209.037 150.468 209.013C150.486 208.988 150.51 208.969 150.538 208.957C150.799 208.835 151.501 209.137 151.997 209.408C151.286 209.597 150.743 209.608 150.528 209.434Z" fill="#00A688"/>
<path d="M152.607 208.942L157.215 208.65C157.253 208.646 157.292 208.649 157.329 208.66C157.366 208.671 157.401 208.689 157.431 208.713C157.461 208.738 157.485 208.768 157.504 208.802C157.522 208.836 157.534 208.873 157.537 208.911L157.988 212.547C157.995 212.641 157.983 212.736 157.953 212.826C157.923 212.916 157.875 212.999 157.813 213.071C157.751 213.142 157.675 213.2 157.59 213.242C157.504 213.284 157.412 213.309 157.317 213.315C155.71 213.391 154.936 213.345 152.909 213.458C151.665 213.53 149.212 213.796 147.492 213.627C145.772 213.458 145.987 211.768 146.729 211.686C148.485 211.487 150.825 210.196 151.916 209.213C152.11 209.049 152.353 208.953 152.607 208.942Z" fill="#263238"/>
<path d="M182.953 153.451L156.457 149.043C156.457 149.043 154.803 133.304 142.495 118.723C142.495 118.723 146.765 109.384 161.951 110.674C177.137 111.964 182.953 153.451 182.953 153.451Z" fill="#263238"/>
<path d="M149.32 112.563C146.618 114.353 143.768 115.906 140.8 117.207C140.8 117.207 149.1 127.529 151.736 150.82C151.736 150.82 152.719 145.147 150.354 134.999C150.328 134.999 146.15 116.762 149.32 112.563Z" fill="#00A688"/>
<path opacity="0.8" d="M149.32 112.563C146.618 114.353 143.768 115.906 140.8 117.207C140.8 117.207 149.1 127.529 151.736 150.82C151.736 150.82 152.719 145.147 150.354 134.999C150.328 134.999 146.15 116.762 149.32 112.563Z" fill="white"/>
<path d="M158.771 133.78C158.771 133.78 168.289 156.82 175.314 167.306C175.314 167.306 180.849 166.113 184.899 165.729C184.899 165.729 179.835 122.89 169.303 112.691C169.303 112.691 162.826 109.834 156.677 109.778C157.668 111.222 158.249 112.909 158.357 114.657C158.72 120.858 157.937 131.072 158.771 133.78Z" fill="#00A688"/>
<path opacity="0.8" d="M184.899 165.729C180.849 166.113 175.314 167.306 175.314 167.306C171.315 161.347 166.503 151.301 163.108 143.754C161.746 140.733 160.609 138.122 159.847 136.32C159.16 134.723 158.771 133.76 158.771 133.76C157.937 131.062 158.7 120.837 158.357 114.637C158.246 112.889 157.666 111.203 156.677 109.757C162.821 109.814 169.303 112.671 169.303 112.671C179.835 122.88 184.899 165.729 184.899 165.729Z" fill="white"/>
<path opacity="0.2" d="M171.858 126.387C171.858 126.387 170.998 142.111 163.108 143.759C161.746 140.739 160.609 138.127 159.846 136.325C164.091 131.584 171.858 126.387 171.858 126.387Z" fill="black"/>
<path d="M155.325 109.43C155.902 109.74 156.392 110.189 156.75 110.738C157.108 111.286 157.322 111.916 157.373 112.568C157.573 114.842 155.648 127.099 158.787 133.78C158.787 133.78 158.454 123.94 160.323 119.444L159.585 116.649L161.413 115.855C161.413 115.855 159.882 107.761 155.325 109.43Z" fill="#00A688"/>
<path opacity="0.7" d="M155.325 109.43C155.902 109.74 156.392 110.189 156.75 110.738C157.108 111.286 157.322 111.916 157.373 112.568C157.573 114.842 155.648 127.099 158.787 133.78C158.787 133.78 158.454 123.94 160.323 119.444L159.585 116.649L161.413 115.855C161.413 115.855 159.882 107.761 155.325 109.43Z" fill="white"/>
<path d="M151.04 110.08C151.04 110.08 145.823 114.929 145.992 119.255L147.64 119.475L145.725 121.728C145.725 121.728 147.937 131.22 150.308 135.04C150.328 134.999 145.782 116.531 151.04 110.08Z" fill="#00A688"/>
<path opacity="0.7" d="M151.04 110.08C151.04 110.08 145.823 114.929 145.992 119.255L147.64 119.475L145.725 121.728C145.725 121.728 147.937 131.22 150.308 135.04C150.328 134.999 145.782 116.531 151.04 110.08Z" fill="white"/>
<path d="M145.787 115.2C146.574 114.922 147.432 114.922 148.219 115.2C148.399 115.971 148.833 116.658 149.45 117.154C150.067 117.649 150.832 117.924 151.624 117.934C152.014 117.954 152.404 117.937 152.791 117.883C156.754 117.34 156.319 111.447 156.319 111.447C154.874 111.546 153.433 111.2 152.192 110.454C151.144 109.834 150.23 109.01 149.504 108.032L145.787 115.2Z" fill="#EBB376"/>
<path opacity="0.2" d="M145.787 115.2C146.574 114.922 147.432 114.922 148.219 115.2C148.4 115.971 148.833 116.658 149.45 117.154C150.067 117.649 150.832 117.924 151.624 117.934C152.648 115.41 152.509 112.517 152.192 110.454C151.144 109.834 150.23 109.01 149.504 108.032L145.787 115.2Z" fill="black"/>
<path d="M143.022 102.159C144.978 103.009 144.558 105.155 141.235 109.015C139.249 107.249 138.225 103.286 139.3 102.042C140.375 100.797 141.312 101.427 143.022 102.159Z" fill="#263238"/>
<path d="M151.096 103.982C151.711 108.257 152.284 110.725 150.584 113.331C148.05 117.253 142.438 116.403 140.559 112.394C138.875 108.81 138.148 102.405 141.931 99.8758C142.762 99.3133 143.723 98.9723 144.723 98.8851C145.723 98.7979 146.728 98.9675 147.644 99.3777C148.56 99.7879 149.356 100.425 149.956 101.229C150.557 102.033 150.942 102.977 151.076 103.972L151.096 103.982Z" fill="#EBB376"/>
<path d="M145.029 106.44C145.101 106.783 144.978 107.1 144.753 107.146C144.527 107.192 144.292 106.957 144.241 106.609C144.189 106.26 144.292 105.953 144.512 105.902C144.732 105.851 144.937 106.107 145.029 106.44Z" fill="#263238"/>
<path d="M141.128 107.254C141.199 107.597 141.071 107.914 140.846 107.96C140.621 108.006 140.38 107.771 140.334 107.423C140.288 107.075 140.39 106.762 140.616 106.716C140.841 106.67 141.056 106.911 141.128 107.254Z" fill="#263238"/>
<path d="M142.433 107.151C142.247 108.288 141.903 109.393 141.409 110.433C141.68 110.551 141.973 110.609 142.268 110.602C142.563 110.596 142.854 110.526 143.119 110.397L142.433 107.151Z" fill="#D58745"/>
<path d="M148.639 100.588C146.806 101.673 147.487 103.747 151.281 107.156C153.026 105.155 153.544 101.089 152.305 99.9885C151.066 98.8877 150.241 99.6403 148.639 100.588Z" fill="#263238"/>
<path d="M153.805 106.941C153.72 108.024 153.213 109.03 152.392 109.742C151.291 110.669 150.144 109.829 149.949 108.482C149.775 107.264 150.139 105.318 151.485 104.898C152.832 104.479 153.897 105.61 153.805 106.941Z" fill="#EBB376"/>
<path d="M144.742 109.389C144.338 109.383 143.949 109.236 143.642 108.974C143.221 108.617 142.939 108.125 142.843 107.581C142.734 107.041 142.817 106.48 143.078 105.994C143.194 105.773 143.357 105.58 143.556 105.429C143.755 105.278 143.986 105.174 144.23 105.124C145.219 104.94 146.202 105.738 146.422 106.906C146.642 108.073 146.022 109.174 145.034 109.363C144.938 109.379 144.84 109.388 144.742 109.389ZM144.522 105.37C144.442 105.362 144.362 105.362 144.282 105.37C144.076 105.412 143.882 105.501 143.714 105.628C143.547 105.756 143.41 105.919 143.314 106.107C143.081 106.535 143.008 107.033 143.109 107.51C143.191 107.991 143.439 108.427 143.811 108.744C143.969 108.883 144.156 108.985 144.359 109.042C144.562 109.1 144.775 109.112 144.983 109.076C145.823 108.918 146.35 107.955 146.156 106.936C146.102 106.529 145.91 106.151 145.614 105.867C145.317 105.582 144.932 105.407 144.522 105.37Z" fill="#263238"/>
<path d="M140.196 110.177C139.72 110.139 139.272 109.939 138.926 109.61C138.581 109.281 138.358 108.843 138.296 108.37C138.076 107.203 138.696 106.102 139.684 105.912C139.93 105.869 140.183 105.881 140.424 105.949C140.665 106.016 140.888 106.137 141.077 106.301C141.497 106.656 141.78 107.147 141.875 107.689C142.095 108.861 141.471 109.962 140.488 110.147C140.392 110.167 140.294 110.177 140.196 110.177ZM138.563 108.319C138.752 109.343 139.587 110.044 140.437 109.885C141.286 109.727 141.804 108.764 141.609 107.74C141.526 107.26 141.278 106.823 140.908 106.506C140.749 106.368 140.561 106.267 140.358 106.211C140.155 106.154 139.943 106.143 139.735 106.179C138.895 106.337 138.368 107.295 138.563 108.319Z" fill="#263238"/>
<path d="M141.742 107.853C141.712 107.852 141.683 107.842 141.66 107.822C141.647 107.81 141.637 107.795 141.629 107.779C141.622 107.763 141.618 107.745 141.618 107.727C141.618 107.709 141.622 107.692 141.629 107.676C141.637 107.659 141.647 107.645 141.66 107.633C141.83 107.434 142.067 107.304 142.325 107.269C142.584 107.234 142.847 107.296 143.063 107.443C143.079 107.452 143.093 107.463 143.104 107.477C143.115 107.491 143.123 107.508 143.127 107.525C143.132 107.542 143.132 107.561 143.129 107.578C143.126 107.596 143.119 107.613 143.109 107.627C143.09 107.657 143.061 107.679 143.026 107.687C142.992 107.696 142.956 107.691 142.925 107.674C142.763 107.566 142.567 107.52 142.374 107.543C142.181 107.567 142.002 107.658 141.87 107.802C141.855 107.82 141.835 107.835 141.813 107.844C141.79 107.852 141.766 107.856 141.742 107.853Z" fill="#263238"/>
<path d="M146.289 107.064C146.258 107.061 146.229 107.048 146.207 107.026C146.185 107.004 146.17 106.976 146.166 106.945C146.162 106.915 146.168 106.883 146.184 106.857C146.2 106.83 146.224 106.809 146.253 106.798L150.221 105.692C150.256 105.683 150.293 105.687 150.324 105.704C150.356 105.721 150.379 105.75 150.39 105.784C150.398 105.82 150.392 105.857 150.374 105.888C150.356 105.919 150.327 105.943 150.293 105.953L146.325 107.059L146.289 107.064Z" fill="#263238"/>
<path d="M146.673 104.832C146.634 104.844 146.593 104.846 146.554 104.838C146.515 104.83 146.478 104.812 146.447 104.786C146.251 104.595 146.012 104.452 145.751 104.37C145.49 104.287 145.213 104.266 144.942 104.31C144.886 104.324 144.826 104.315 144.776 104.285C144.726 104.255 144.69 104.207 144.676 104.151C144.669 104.123 144.668 104.095 144.672 104.067C144.676 104.039 144.686 104.012 144.701 103.987C144.715 103.963 144.735 103.942 144.758 103.925C144.781 103.908 144.807 103.896 144.835 103.89C145.175 103.825 145.527 103.843 145.86 103.942C146.192 104.042 146.496 104.221 146.744 104.463C146.783 104.505 146.805 104.56 146.805 104.617C146.805 104.674 146.783 104.729 146.744 104.771C146.723 104.794 146.699 104.815 146.673 104.832Z" fill="#263238"/>
<path d="M139.438 106.035C139.402 106.06 139.359 106.071 139.315 106.066C139.259 106.051 139.211 106.015 139.181 105.965C139.151 105.916 139.143 105.856 139.157 105.8C139.243 105.463 139.408 105.153 139.64 104.894C139.872 104.636 140.163 104.437 140.488 104.315C140.515 104.306 140.544 104.303 140.573 104.305C140.602 104.308 140.63 104.316 140.656 104.329C140.681 104.343 140.704 104.361 140.723 104.383C140.742 104.405 140.756 104.431 140.764 104.458C140.779 104.513 140.773 104.572 140.746 104.622C140.719 104.672 140.675 104.711 140.621 104.73C140.37 104.836 140.146 104.998 139.968 105.205C139.791 105.413 139.664 105.658 139.597 105.923C139.581 105.952 139.558 105.977 139.53 105.997C139.503 106.016 139.471 106.029 139.438 106.035Z" fill="#263238"/>
<path d="M143.78 111.242C144.156 111.7 144.498 112.184 144.804 112.691L145.096 112.568C146.406 112.015 146.831 111.324 146.903 110.73C146.934 110.438 146.894 110.143 146.785 109.87C146.728 109.714 146.65 109.566 146.555 109.43C145.898 110.13 145.098 110.682 144.21 111.048C143.954 111.176 143.78 111.242 143.78 111.242Z" fill="#263238"/>
<path d="M144.225 111.048L144.543 111.467C145.777 110.955 146.591 110.408 146.801 109.87C146.743 109.714 146.666 109.566 146.57 109.43C145.913 110.13 145.114 110.682 144.225 111.048Z" fill="white"/>
<path d="M145.111 112.568C146.422 112.015 146.847 111.324 146.918 110.73C146.424 110.948 145.973 111.254 145.587 111.631C145.335 111.887 145.169 112.214 145.111 112.568Z" fill="#DE5753"/>
<path d="M147.799 102.134C147.799 102.134 147.799 100.086 145.111 100.675C142.925 101.187 141.425 102.794 139.208 102.891C136.991 102.989 134.6 98.2835 136.54 97.2236C137.959 96.4403 139.075 98.3705 142.976 96.3174C147.799 93.7574 152.423 96.3174 152.315 99.9936C152.228 102.912 147.799 102.134 147.799 102.134Z" fill="#263238"/>
<path d="M146.821 126.853C143.237 125.67 139.878 124.564 138.844 124.39C136.422 123.986 130.852 126.111 130.852 126.111L130.34 129.434C130.34 129.434 135.296 129.336 138.086 127.979C138.086 127.979 142.147 130.406 146.816 132.884L146.821 126.853Z" fill="#EBB376"/>
<path d="M169.902 114.176C164.931 114.089 162.222 130.335 160.993 131.517C159.765 132.7 144.384 125.778 144.384 125.778L143.923 132.879C143.923 132.879 157.86 140.8 161.818 140.8C165.775 140.8 172.396 128.2 172.744 122.127C173.092 116.055 169.902 114.176 169.902 114.176Z" fill="#00A688"/>
<path opacity="0.7" d="M169.902 114.176C164.931 114.089 162.222 130.335 160.993 131.517C159.765 132.7 144.384 125.778 144.384 125.778L143.923 132.879C143.923 132.879 157.86 140.8 161.818 140.8C165.775 140.8 172.396 128.2 172.744 122.127C173.092 116.055 169.902 114.176 169.902 114.176Z" fill="white"/>
<path d="M143.78 125.174L142.976 133.78L145.787 134.707L146.289 126.387L143.78 125.174Z" fill="#00A688"/>
<path opacity="0.6" d="M143.78 125.174L142.976 133.78L145.787 134.707L146.289 126.387L143.78 125.174Z" fill="white"/>
<path d="M79.2677 212.756C75.5374 212.796 71.9284 211.433 69.1557 208.937C68.1972 208.039 67.3072 207.07 66.4933 206.039C65.2236 204.503 63.9333 202.921 62.1157 201.943C60.1445 200.868 58.4908 200.653 57.2005 201.303C55.0297 202.388 54.5535 205.558 54.5535 205.588L54.0415 205.517C54.0415 205.373 54.5535 202.045 56.965 200.842C58.4191 200.115 60.2316 200.33 62.3564 201.492C64.2354 202.516 65.582 204.145 66.8825 205.716C67.6809 206.727 68.5537 207.677 69.4937 208.558C77.7317 215.854 89.518 211.272 96.9829 203.919C109.568 191.529 112.594 175.037 114.806 157.804C115.61 151.526 117.146 144.384 122.434 138.982C123.011 138.374 123.65 137.826 124.339 137.349L124.626 137.774C123.964 138.232 123.352 138.757 122.798 139.341C117.617 144.635 116.106 151.675 115.313 157.87C113.09 175.191 110.044 191.775 97.3413 204.283C92.4466 209.106 85.7087 212.751 79.2677 212.756Z" fill="#263238"/>
<path d="M73.6872 213.688C63.5803 213.688 59.2539 207.483 56.3867 203.377C54.7995 201.098 53.6475 199.45 52.2907 199.951C48.2868 201.405 48.9064 206.029 48.932 206.228L48.42 206.3C48.42 206.249 47.7134 201.067 52.1115 199.47C53.8625 198.83 55.1067 200.617 56.8219 203.085C59.6276 207.104 63.8619 213.176 73.7179 213.176C78.6433 213.176 83.9272 210.14 88.5966 204.631C98.0584 193.469 106.302 170.286 101.059 138.706L101.571 138.624C106.844 170.368 98.5294 193.71 88.996 204.964C84.1883 210.591 78.7662 213.688 73.6872 213.688Z" fill="#263238"/>
<g opacity="0.4">
<path opacity="0.4" d="M73.6872 213.688C63.5803 213.688 59.2539 207.483 56.3867 203.377C54.7995 201.098 53.6475 199.45 52.2907 199.951C48.2868 201.405 48.9064 206.029 48.932 206.228L48.42 206.3C48.42 206.249 47.7134 201.067 52.1115 199.47C53.8625 198.83 55.1067 200.617 56.8219 203.085C59.6276 207.104 63.8619 213.176 73.7179 213.176C78.6433 213.176 83.9272 210.14 88.5966 204.631C98.0584 193.469 106.302 170.286 101.059 138.706L101.571 138.624C106.844 170.368 98.5294 193.71 88.996 204.964C84.1883 210.591 78.7662 213.688 73.6872 213.688Z" fill="white"/>
</g>
<path d="M55.8081 207.79H52.7361V206.254C52.7361 205.847 52.8979 205.456 53.186 205.168C53.474 204.88 53.8647 204.718 54.2721 204.718C54.6795 204.718 55.0701 204.88 55.3582 205.168C55.6463 205.456 55.8081 205.847 55.8081 206.254V207.79Z" fill="#263238"/>
<path opacity="0.5" d="M55.8081 207.79H52.7361V206.254C52.7361 205.847 52.8979 205.456 53.186 205.168C53.474 204.88 53.8647 204.718 54.2721 204.718C54.6795 204.718 55.0701 204.88 55.3582 205.168C55.6463 205.456 55.8081 205.847 55.8081 206.254V207.79Z" fill="white"/>
<path d="M50.176 207.79H47.104V206.254C47.104 205.847 47.2658 205.456 47.5539 205.168C47.8419 204.88 48.2326 204.718 48.64 204.718C49.0474 204.718 49.4381 204.88 49.7261 205.168C50.0142 205.456 50.176 205.847 50.176 206.254V207.79Z" fill="#263238"/>
<path opacity="0.5" d="M50.176 207.79H47.104V206.254C47.104 205.847 47.2658 205.456 47.5539 205.168C47.8419 204.88 48.2326 204.718 48.64 204.718C49.0474 204.718 49.4381 204.88 49.7261 205.168C50.0142 205.456 50.176 205.847 50.176 206.254V207.79Z" fill="white"/>
<path d="M44.8512 207.585H58.1325C58.3878 207.585 58.6326 207.687 58.8132 207.867C58.9937 208.048 59.0951 208.292 59.0951 208.548V213.56H43.8938V208.548C43.8938 208.293 43.9945 208.049 44.1739 207.869C44.3533 207.689 44.5968 207.587 44.8512 207.585Z" fill="#263238"/>
<path d="M115.907 136.1C115.844 136.106 115.78 136.106 115.717 136.1C115.65 136.092 115.589 136.058 115.547 136.005C115.504 135.953 115.485 135.885 115.492 135.818C115.5 135.751 115.534 135.69 115.586 135.648C115.639 135.605 115.706 135.586 115.774 135.593C116.115 135.61 116.456 135.558 116.778 135.442C117.1 135.326 117.395 135.148 117.647 134.917C118.369 134.226 118.671 133.064 118.595 131.456C118.477 129.306 119.142 127.667 120.469 126.848C121.056 126.495 121.725 126.301 122.41 126.286C123.095 126.27 123.773 126.434 124.375 126.761C126.546 127.964 125.911 131.123 125.88 131.256C125.866 131.324 125.826 131.384 125.767 131.422C125.709 131.46 125.639 131.473 125.571 131.459C125.503 131.444 125.443 131.404 125.405 131.346C125.367 131.287 125.354 131.217 125.368 131.149C125.368 131.123 125.952 128.23 124.119 127.212C123.598 126.927 123.012 126.784 122.418 126.795C121.825 126.807 121.244 126.973 120.735 127.278C119.91 127.79 118.953 128.937 119.096 131.441C119.199 133.207 118.82 134.513 117.98 135.311C117.411 135.823 116.672 136.104 115.907 136.1Z" fill="#F99942"/>
<g opacity="0.3">
<path opacity="0.3" d="M115.907 136.1C115.844 136.106 115.78 136.106 115.717 136.1C115.65 136.092 115.589 136.058 115.547 136.005C115.504 135.953 115.485 135.885 115.492 135.818C115.5 135.751 115.534 135.69 115.586 135.648C115.639 135.605 115.706 135.586 115.774 135.593C116.115 135.61 116.456 135.558 116.778 135.442C117.1 135.326 117.395 135.148 117.647 134.917C118.369 134.226 118.671 133.064 118.595 131.456C118.477 129.306 119.142 127.667 120.469 126.848C121.056 126.495 121.725 126.301 122.41 126.286C123.095 126.27 123.773 126.434 124.375 126.761C126.546 127.964 125.911 131.123 125.88 131.256C125.866 131.324 125.826 131.384 125.767 131.422C125.709 131.46 125.639 131.473 125.571 131.459C125.503 131.444 125.443 131.404 125.405 131.346C125.367 131.287 125.354 131.217 125.368 131.149C125.368 131.123 125.952 128.23 124.119 127.212C123.598 126.927 123.012 126.784 122.418 126.795C121.825 126.807 121.244 126.973 120.735 127.278C119.91 127.79 118.953 128.937 119.096 131.441C119.199 133.207 118.82 134.513 117.98 135.311C117.411 135.823 116.672 136.104 115.907 136.1Z" fill="black"/>
</g>
<path d="M128.379 136.253C125.624 136.253 122.839 135.434 120.52 134.753C119.305 134.336 118.051 134.043 116.777 133.878C113.239 133.693 110.367 136.018 110.341 136.038C110.289 136.082 110.221 136.103 110.153 136.097C110.085 136.091 110.022 136.059 109.978 136.008C109.936 135.954 109.917 135.886 109.923 135.819C109.93 135.751 109.962 135.689 110.013 135.644C110.136 135.542 113.086 133.156 116.808 133.366C118.12 133.535 119.411 133.835 120.663 134.262C124.877 135.501 130.652 137.201 134.784 133.417C138.025 130.447 138.266 127.785 137.406 126.29C137.135 125.782 136.698 125.382 136.167 125.157C135.637 124.933 135.046 124.897 134.492 125.056C131.758 125.901 131.497 130.309 131.497 130.355C131.496 130.389 131.489 130.423 131.475 130.454C131.46 130.485 131.44 130.513 131.414 130.535C131.389 130.558 131.359 130.575 131.326 130.585C131.294 130.596 131.26 130.599 131.226 130.596C131.159 130.592 131.096 130.562 131.051 130.512C131.006 130.462 130.982 130.397 130.985 130.33C130.985 130.135 131.267 125.517 134.339 124.564C135.004 124.372 135.716 124.413 136.355 124.681C136.995 124.949 137.522 125.429 137.851 126.039C138.808 127.708 138.593 130.647 135.127 133.796C133.281 135.458 130.862 136.339 128.379 136.253Z" fill="black"/>
<g opacity="0.4">
<path opacity="0.4" d="M128.379 136.253C125.624 136.253 122.839 135.434 120.52 134.753C119.305 134.336 118.051 134.043 116.777 133.878C113.239 133.693 110.367 136.018 110.341 136.038C110.289 136.082 110.221 136.103 110.153 136.097C110.085 136.091 110.022 136.059 109.978 136.008C109.936 135.954 109.917 135.886 109.923 135.819C109.93 135.751 109.962 135.689 110.013 135.644C110.136 135.542 113.086 133.156 116.808 133.366C118.12 133.535 119.411 133.835 120.663 134.262C124.877 135.501 130.652 137.201 134.784 133.417C138.025 130.447 138.266 127.785 137.406 126.29C137.135 125.782 136.698 125.382 136.167 125.157C135.637 124.933 135.046 124.897 134.492 125.056C131.758 125.901 131.497 130.309 131.497 130.355C131.496 130.389 131.489 130.423 131.475 130.454C131.46 130.485 131.44 130.513 131.414 130.535C131.389 130.558 131.359 130.575 131.326 130.585C131.294 130.596 131.26 130.599 131.226 130.596C131.159 130.592 131.096 130.562 131.051 130.512C131.006 130.462 130.982 130.397 130.985 130.33C130.985 130.135 131.267 125.517 134.339 124.564C135.004 124.372 135.716 124.413 136.355 124.681C136.995 124.949 137.522 125.429 137.851 126.039C138.808 127.708 138.593 130.647 135.127 133.796C133.281 135.458 130.862 136.339 128.379 136.253Z" fill="white"/>
</g>
<path d="M122.204 131.876H135.583C135.704 131.876 135.824 131.9 135.936 131.946C136.047 131.992 136.149 132.06 136.235 132.146C136.32 132.231 136.388 132.333 136.434 132.445C136.481 132.557 136.504 132.676 136.504 132.797V136.453H121.283V132.797C121.283 132.676 121.307 132.557 121.353 132.445C121.399 132.333 121.467 132.231 121.553 132.146C121.638 132.06 121.74 131.992 121.852 131.946C121.963 131.9 122.083 131.876 122.204 131.876Z" fill="#F99942"/>
<path opacity="0.2" d="M122.204 131.876H135.583C135.704 131.876 135.824 131.9 135.936 131.946C136.047 131.992 136.149 132.06 136.235 132.146C136.32 132.231 136.388 132.333 136.434 132.445C136.481 132.557 136.504 132.676 136.504 132.797V136.453H121.283V132.797C121.283 132.676 121.307 132.557 121.353 132.445C121.399 132.333 121.467 132.231 121.553 132.146C121.638 132.06 121.74 131.992 121.852 131.946C121.963 131.9 122.083 131.876 122.204 131.876Z" fill="black"/>
<path d="M124.943 129.526V132.035L125.829 132.091L127.171 129.275L126.669 128.957L125.681 130.795L125.491 129.5L124.943 129.526Z" fill="#F99942"/>
<path d="M130.514 128.957V132.035H131.855L132.695 129.172L132.234 129.07L131.226 130.596L130.821 128.957H130.514Z" fill="#F99942"/>
<path opacity="0.4" d="M130.514 128.957V132.035H131.855L132.695 129.172L132.234 129.07L131.226 130.596L130.821 128.957H130.514Z" fill="white"/>
<path d="M114.314 128.041H115.902C115.974 128.041 116.043 128.069 116.093 128.12C116.144 128.171 116.173 128.24 116.173 128.312V135.429H114.048V128.307C114.049 128.237 114.078 128.17 114.128 128.12C114.177 128.071 114.244 128.042 114.314 128.041Z" fill="#F99942"/>
<path d="M96.9064 128.041H98.4936C98.5655 128.041 98.6346 128.069 98.6855 128.12C98.7363 128.171 98.7649 128.24 98.7649 128.312V135.429H96.6401V128.307C96.6414 128.237 96.6699 128.17 96.7196 128.12C96.7692 128.071 96.8362 128.042 96.9064 128.041Z" fill="#F99942"/>
<path d="M97.7921 128.645H115.062C115.126 128.645 115.187 128.67 115.232 128.716C115.277 128.761 115.303 128.822 115.303 128.886V135.424H97.5259V128.886C97.5257 128.852 97.5327 128.818 97.5463 128.787C97.56 128.756 97.58 128.729 97.6052 128.706C97.6303 128.683 97.6599 128.666 97.6922 128.655C97.7244 128.645 97.7584 128.641 97.7921 128.645Z" fill="#F99942"/>
<path opacity="0.4" d="M97.7921 128.645H115.062C115.126 128.645 115.187 128.67 115.232 128.716C115.277 128.761 115.303 128.822 115.303 128.886V135.424H97.5259V128.886C97.5257 128.852 97.5327 128.818 97.5463 128.787C97.56 128.756 97.58 128.729 97.6052 128.706C97.6303 128.683 97.6599 128.666 97.6922 128.655C97.7244 128.645 97.7584 128.641 97.7921 128.645Z" fill="white"/>
<path d="M115.277 135.224L97.5257 135.086C97.4926 135.086 97.4608 135.073 97.437 135.05C97.4131 135.027 97.399 134.996 97.3977 134.963C97.3976 134.93 97.4102 134.897 97.433 134.872C97.4558 134.848 97.4871 134.833 97.5206 134.83L109.46 134.415L97.5257 134.308C97.4918 134.308 97.4592 134.294 97.4352 134.27C97.4112 134.246 97.3977 134.214 97.3977 134.18C97.3977 134.146 97.4112 134.113 97.4352 134.089C97.4592 134.065 97.4918 134.052 97.5257 134.052L109.46 133.658L97.5308 133.524C97.4969 133.524 97.4643 133.511 97.4403 133.487C97.4163 133.463 97.4028 133.43 97.4028 133.396C97.404 133.364 97.4172 133.333 97.4398 133.309C97.4625 133.285 97.4931 133.271 97.5257 133.268L109.466 132.895L97.5308 132.746C97.4973 132.745 97.4655 132.731 97.4417 132.707C97.418 132.684 97.4041 132.652 97.4028 132.618C97.4028 132.585 97.4156 132.553 97.4385 132.529C97.4614 132.506 97.4927 132.492 97.5257 132.49L109.46 132.137L97.5308 131.963C97.4969 131.963 97.4643 131.949 97.4403 131.925C97.4163 131.901 97.4028 131.869 97.4028 131.835C97.4028 131.802 97.4156 131.77 97.4385 131.746C97.4614 131.722 97.4927 131.708 97.5257 131.707L109.466 131.374L97.5308 131.179C97.4969 131.179 97.4643 131.166 97.4403 131.142C97.4163 131.118 97.4028 131.085 97.4028 131.051C97.404 131.019 97.4172 130.988 97.4398 130.964C97.4625 130.94 97.4931 130.926 97.5257 130.923L109.46 130.611L97.5308 130.401C97.4969 130.401 97.4643 130.388 97.4403 130.364C97.4163 130.34 97.4028 130.307 97.4028 130.273C97.4028 130.239 97.4163 130.207 97.4403 130.183C97.4643 130.159 97.4969 130.145 97.5308 130.145L109.471 129.853L97.5359 129.618C97.502 129.618 97.4694 129.604 97.4454 129.58C97.4214 129.556 97.4079 129.524 97.4079 129.49C97.4091 129.457 97.4223 129.426 97.445 129.402C97.4676 129.379 97.4982 129.364 97.5308 129.362L115.287 128.957C115.304 128.957 115.321 128.959 115.337 128.966C115.353 128.972 115.367 128.981 115.379 128.993C115.391 129.005 115.401 129.02 115.407 129.036C115.413 129.051 115.416 129.068 115.415 129.085C115.415 129.118 115.402 129.15 115.379 129.174C115.356 129.198 115.325 129.212 115.292 129.213L103.588 129.48L115.292 129.71C115.325 129.711 115.356 129.725 115.379 129.749C115.402 129.773 115.415 129.805 115.415 129.838C115.414 129.871 115.401 129.902 115.378 129.925C115.355 129.949 115.325 129.964 115.292 129.966L103.588 130.253L115.292 130.458C115.325 130.46 115.355 130.474 115.378 130.498C115.401 130.522 115.414 130.553 115.415 130.586C115.415 130.619 115.402 130.65 115.379 130.674C115.356 130.698 115.325 130.712 115.292 130.714L103.583 131.021L115.292 131.21C115.326 131.21 115.359 131.224 115.383 131.248C115.407 131.272 115.42 131.304 115.42 131.338C115.42 131.372 115.407 131.405 115.383 131.429C115.359 131.453 115.326 131.466 115.292 131.466L103.588 131.794L115.287 131.963C115.321 131.963 115.353 131.976 115.377 132C115.401 132.024 115.415 132.057 115.415 132.091C115.415 132.124 115.402 132.156 115.379 132.18C115.356 132.203 115.325 132.217 115.292 132.219L103.588 132.567L115.287 132.715C115.32 132.715 115.352 132.728 115.376 132.751C115.4 132.774 115.414 132.805 115.415 132.838C115.416 132.855 115.413 132.872 115.407 132.888C115.401 132.904 115.393 132.918 115.381 132.93C115.37 132.943 115.356 132.953 115.341 132.96C115.325 132.967 115.309 132.971 115.292 132.971L103.588 133.335L115.287 133.463C115.321 133.463 115.353 133.476 115.377 133.5C115.401 133.524 115.415 133.557 115.415 133.591C115.416 133.608 115.413 133.624 115.407 133.64C115.401 133.655 115.392 133.669 115.381 133.681C115.369 133.693 115.356 133.703 115.34 133.709C115.325 133.716 115.309 133.719 115.292 133.719L103.588 134.108L115.287 134.216C115.321 134.216 115.353 134.229 115.377 134.253C115.401 134.277 115.415 134.31 115.415 134.344C115.415 134.377 115.402 134.409 115.379 134.432C115.356 134.456 115.325 134.47 115.292 134.472L103.588 134.876L115.287 134.968C115.321 134.968 115.353 134.982 115.377 135.006C115.401 135.03 115.415 135.062 115.415 135.096C115.415 135.13 115.401 135.163 115.377 135.187C115.353 135.211 115.321 135.224 115.287 135.224H115.277Z" fill="#F99942"/>
<g opacity="0.6">
<path opacity="0.6" d="M115.277 135.224L97.5257 135.086C97.4926 135.086 97.4608 135.073 97.437 135.05C97.4131 135.027 97.399 134.996 97.3977 134.963C97.3976 134.93 97.4102 134.897 97.433 134.872C97.4558 134.848 97.4871 134.833 97.5206 134.83L109.46 134.415L97.5257 134.308C97.4918 134.308 97.4592 134.294 97.4352 134.27C97.4112 134.246 97.3977 134.214 97.3977 134.18C97.3977 134.146 97.4112 134.113 97.4352 134.089C97.4592 134.065 97.4918 134.052 97.5257 134.052L109.46 133.658L97.5308 133.524C97.4969 133.524 97.4643 133.511 97.4403 133.487C97.4163 133.463 97.4028 133.43 97.4028 133.396C97.404 133.364 97.4172 133.333 97.4398 133.309C97.4625 133.285 97.4931 133.271 97.5257 133.268L109.466 132.895L97.5308 132.746C97.4973 132.745 97.4655 132.731 97.4417 132.707C97.418 132.684 97.4041 132.652 97.4028 132.618C97.4028 132.585 97.4156 132.553 97.4385 132.529C97.4614 132.506 97.4927 132.492 97.5257 132.49L109.46 132.137L97.5308 131.963C97.4969 131.963 97.4643 131.949 97.4403 131.925C97.4163 131.901 97.4028 131.869 97.4028 131.835C97.4028 131.802 97.4156 131.77 97.4385 131.746C97.4614 131.722 97.4927 131.708 97.5257 131.707L109.466 131.374L97.5308 131.179C97.4969 131.179 97.4643 131.166 97.4403 131.142C97.4163 131.118 97.4028 131.085 97.4028 131.051C97.404 131.019 97.4172 130.988 97.4398 130.964C97.4625 130.94 97.4931 130.926 97.5257 130.923L109.46 130.611L97.5308 130.401C97.4969 130.401 97.4643 130.388 97.4403 130.364C97.4163 130.34 97.4028 130.307 97.4028 130.273C97.4028 130.239 97.4163 130.207 97.4403 130.183C97.4643 130.159 97.4969 130.145 97.5308 130.145L109.471 129.853L97.5359 129.618C97.502 129.618 97.4694 129.604 97.4454 129.58C97.4214 129.556 97.4079 129.524 97.4079 129.49C97.4091 129.457 97.4223 129.426 97.445 129.402C97.4676 129.379 97.4982 129.364 97.5308 129.362L115.287 128.957C115.304 128.957 115.321 128.959 115.337 128.966C115.353 128.972 115.367 128.981 115.379 128.993C115.391 129.005 115.401 129.02 115.407 129.036C115.413 129.051 115.416 129.068 115.415 129.085C115.415 129.118 115.402 129.15 115.379 129.174C115.356 129.198 115.325 129.212 115.292 129.213L103.588 129.48L115.292 129.71C115.325 129.711 115.356 129.725 115.379 129.749C115.402 129.773 115.415 129.805 115.415 129.838C115.414 129.871 115.401 129.902 115.378 129.925C115.355 129.949 115.325 129.964 115.292 129.966L103.588 130.253L115.292 130.458C115.325 130.46 115.355 130.474 115.378 130.498C115.401 130.522 115.414 130.553 115.415 130.586C115.415 130.619 115.402 130.65 115.379 130.674C115.356 130.698 115.325 130.712 115.292 130.714L103.583 131.021L115.292 131.21C115.326 131.21 115.359 131.224 115.383 131.248C115.407 131.272 115.42 131.304 115.42 131.338C115.42 131.372 115.407 131.405 115.383 131.429C115.359 131.453 115.326 131.466 115.292 131.466L103.588 131.794L115.287 131.963C115.321 131.963 115.353 131.976 115.377 132C115.401 132.024 115.415 132.057 115.415 132.091C115.415 132.124 115.402 132.156 115.379 132.18C115.356 132.203 115.325 132.217 115.292 132.219L103.588 132.567L115.287 132.715C115.32 132.715 115.352 132.728 115.376 132.751C115.4 132.774 115.414 132.805 115.415 132.838C115.416 132.855 115.413 132.872 115.407 132.888C115.401 132.904 115.393 132.918 115.381 132.93C115.37 132.943 115.356 132.953 115.341 132.96C115.325 132.967 115.309 132.971 115.292 132.971L103.588 133.335L115.287 133.463C115.321 133.463 115.353 133.476 115.377 133.5C115.401 133.524 115.415 133.557 115.415 133.591C115.416 133.608 115.413 133.624 115.407 133.64C115.401 133.655 115.392 133.669 115.381 133.681C115.369 133.693 115.356 133.703 115.34 133.709C115.325 133.716 115.309 133.719 115.292 133.719L103.588 134.108L115.287 134.216C115.321 134.216 115.353 134.229 115.377 134.253C115.401 134.277 115.415 134.31 115.415 134.344C115.415 134.377 115.402 134.409 115.379 134.432C115.356 134.456 115.325 134.47 115.292 134.472L103.588 134.876L115.287 134.968C115.321 134.968 115.353 134.982 115.377 135.006C115.401 135.03 115.415 135.062 115.415 135.096C115.415 135.13 115.401 135.163 115.377 135.187C115.353 135.211 115.321 135.224 115.287 135.224H115.277Z" fill="white"/>
</g>
<path d="M105.61 128.041H107.197C107.269 128.041 107.338 128.069 107.389 128.12C107.44 128.171 107.469 128.24 107.469 128.312V135.429H105.344V128.307C105.345 128.237 105.374 128.17 105.423 128.12C105.473 128.071 105.54 128.042 105.61 128.041Z" fill="#F99942"/>
<path d="M95.9438 135.224H116.736C116.792 135.224 116.845 135.246 116.885 135.286C116.924 135.325 116.946 135.378 116.946 135.434V136.458H95.7441V135.434C95.7441 135.38 95.7648 135.328 95.802 135.289C95.8391 135.25 95.8899 135.227 95.9438 135.224Z" fill="#F99942"/>
<path opacity="0.2" d="M95.9438 135.224H116.736C116.792 135.224 116.845 135.246 116.885 135.286C116.924 135.325 116.946 135.378 116.946 135.434V136.458H95.7441V135.434C95.7441 135.38 95.7648 135.328 95.802 135.289C95.8391 135.25 95.8899 135.227 95.9438 135.224Z" fill="white"/>
<path d="M111.78 117.939C111.683 117.176 109.143 116.859 106.102 117.238C103.061 117.617 100.68 118.538 100.772 119.286L101.028 121.334L105.467 121.585C105.795 121.559 106.133 121.528 106.491 121.482C107.003 121.421 107.515 121.334 108.027 121.242L112.056 119.972L111.78 117.939Z" fill="#263238"/>
<path opacity="0.2" d="M111.78 117.939C111.683 117.176 109.143 116.859 106.102 117.238C103.061 117.617 100.68 118.538 100.772 119.286L101.028 121.334L105.467 121.585C105.795 121.559 106.133 121.528 106.491 121.482C107.003 121.421 107.515 121.334 108.027 121.242L112.056 119.972L111.78 117.939Z" fill="white"/>
<path d="M106.358 119.296C103.316 119.675 100.93 120.596 101.028 121.344C101.125 122.091 103.659 122.424 106.701 122.045C109.742 121.666 112.123 120.745 112.031 119.997C111.938 119.25 109.394 118.891 106.358 119.296ZM106.562 120.96C105.313 121.119 104.284 121.114 104.269 120.96C104.253 120.806 105.242 120.55 106.491 120.397C107.74 120.243 108.769 120.243 108.79 120.397C108.81 120.55 107.812 120.781 106.562 120.934V120.96Z" fill="#263238"/>
<path d="M89.8181 126.475L87.5906 125.634L85.4038 131.431L87.6313 132.271L89.8181 126.475Z" fill="#F99942"/>
<path opacity="0.4" d="M88.7227 129.375L86.4951 128.535L85.4017 131.433L87.6293 132.273L88.7227 129.375Z" fill="white"/>
<path d="M88.2023 124.349L88.0589 123.08C88.3846 123.171 88.6775 123.354 88.9033 123.606C89.1291 123.858 89.2784 124.169 89.3338 124.503C89.3711 124.899 89.265 125.295 89.0348 125.619C88.8045 125.943 88.4655 126.174 88.0794 126.269C87.8138 126.349 87.5309 126.349 87.2653 126.269L81.8227 133.069C81.9353 133.262 82.0062 133.477 82.0308 133.7C82.0555 133.922 82.0334 134.148 81.9659 134.361C81.8984 134.575 81.787 134.772 81.639 134.94C81.4909 135.108 81.3093 135.243 81.1059 135.337L80.9677 134.072C80.9596 134.002 80.9378 133.934 80.9035 133.872C80.8691 133.81 80.8229 133.756 80.7675 133.712C80.7122 133.668 80.6486 133.635 80.5806 133.616C80.5126 133.596 80.4415 133.591 80.3712 133.599C80.301 133.607 80.233 133.629 80.1711 133.663C80.1093 133.697 80.0549 133.743 80.0109 133.799C79.9669 133.854 79.9343 133.918 79.9148 133.986C79.8954 134.054 79.8896 134.125 79.8976 134.195L80.041 135.47C79.7143 135.378 79.4206 135.195 79.1947 134.942C78.9687 134.689 78.82 134.376 78.7661 134.041C78.7193 133.646 78.8167 133.246 79.0405 132.916C79.2643 132.586 79.5995 132.347 79.9847 132.244C80.2366 132.168 80.5058 132.168 80.7578 132.244L86.1952 125.44C86.0395 125.037 86.0301 124.593 86.1686 124.184C86.307 123.775 86.5847 123.428 86.953 123.202L87.1117 124.488C87.1297 124.631 87.2029 124.761 87.3158 124.851C87.4287 124.941 87.5723 124.983 87.7159 124.969C87.789 124.961 87.8598 124.939 87.9242 124.904C87.9885 124.868 88.045 124.82 88.0904 124.762C88.1358 124.704 88.1691 124.638 88.1883 124.567C88.2075 124.496 88.2123 124.422 88.2023 124.349Z" fill="#263238"/>
<path opacity="0.6" d="M88.2023 124.349L88.0589 123.08C88.3846 123.171 88.6775 123.354 88.9033 123.606C89.1291 123.858 89.2784 124.169 89.3338 124.503C89.3711 124.899 89.265 125.295 89.0348 125.619C88.8045 125.943 88.4655 126.174 88.0794 126.269C87.8138 126.349 87.5309 126.349 87.2653 126.269L81.8227 133.069C81.9353 133.262 82.0062 133.477 82.0308 133.7C82.0555 133.922 82.0334 134.148 81.9659 134.361C81.8984 134.575 81.787 134.772 81.639 134.94C81.4909 135.108 81.3093 135.243 81.1059 135.337L80.9677 134.072C80.9596 134.002 80.9378 133.934 80.9035 133.872C80.8691 133.81 80.8229 133.756 80.7675 133.712C80.7122 133.668 80.6486 133.635 80.5806 133.616C80.5126 133.596 80.4415 133.591 80.3712 133.599C80.301 133.607 80.233 133.629 80.1711 133.663C80.1093 133.697 80.0549 133.743 80.0109 133.799C79.9669 133.854 79.9343 133.918 79.9148 133.986C79.8954 134.054 79.8896 134.125 79.8976 134.195L80.041 135.47C79.7143 135.378 79.4206 135.195 79.1947 134.942C78.9687 134.689 78.82 134.376 78.7661 134.041C78.7193 133.646 78.8167 133.246 79.0405 132.916C79.2643 132.586 79.5995 132.347 79.9847 132.244C80.2366 132.168 80.5058 132.168 80.7578 132.244L86.1952 125.44C86.0395 125.037 86.0301 124.593 86.1686 124.184C86.307 123.775 86.5847 123.428 86.953 123.202L87.1117 124.488C87.1297 124.631 87.2029 124.761 87.3158 124.851C87.4287 124.941 87.5723 124.983 87.7159 124.969C87.789 124.961 87.8598 124.939 87.9242 124.904C87.9885 124.868 88.045 124.82 88.0904 124.762C88.1358 124.704 88.1691 124.638 88.1883 124.567C88.2075 124.496 88.2123 124.422 88.2023 124.349Z" fill="white"/>
<path d="M80.2663 122.511L82.2528 126.377C82.4938 126.843 82.6408 127.351 82.6853 127.874C82.7298 128.396 82.671 128.922 82.5122 129.422C82.3534 129.921 82.0978 130.385 81.7599 130.786C81.4219 131.187 81.0083 131.517 80.5427 131.758C80.0771 131.999 79.5686 132.146 79.0462 132.191C78.5238 132.235 77.9977 132.176 77.498 132.018C76.9983 131.859 76.5348 131.603 76.1339 131.265C75.733 130.927 75.4027 130.514 75.1616 130.048L73.175 126.182L75.136 125.158L77.1226 129.024C77.343 129.436 77.7166 129.745 78.1628 129.885C78.6091 130.024 79.0922 129.982 79.508 129.769C79.9238 129.555 80.239 129.187 80.3857 128.743C80.5323 128.299 80.4986 127.815 80.2919 127.396L78.3053 123.53L80.2663 122.511Z" fill="#F99942"/>
<path opacity="0.4" d="M75.1373 125.145L73.1746 126.153L74.2932 128.33L76.2559 127.321L75.1373 125.145Z" fill="white"/>
<path opacity="0.4" d="M80.2664 122.513L78.3037 123.521L79.4224 125.698L81.3851 124.689L80.2664 122.513Z" fill="white"/>
<path d="M90.0198 130.043H73.6819V136.453H90.0198V130.043Z" fill="#263238"/>
<path d="M130.611 213.56L135.885 140.119H131.722L127.406 213.56H130.611Z" fill="#263238"/>
<path opacity="0.4" d="M130.611 213.56L135.608 144.015L135.885 140.242H131.722L131.497 144.015L127.406 213.56H130.611Z" fill="white"/>
<path opacity="0.2" d="M131.497 143.826H135.608L135.885 140.242H131.722L131.497 143.826Z" fill="black"/>
<path d="M107.264 213.56L107.74 140.119H103.583L104.059 213.56H107.264Z" fill="#263238"/>
<path opacity="0.5" d="M104.059 213.56H107.264L107.658 152.904L107.74 140.242H103.578L103.66 152.904L104.059 213.56Z" fill="white"/>
<path opacity="0.2" d="M103.578 140.242L103.66 153.042H107.658L107.74 140.242H103.578Z" fill="black"/>
<path d="M74.2913 213.56L79.5649 140.119H75.4023L71.0862 213.56H74.2913Z" fill="#263238"/>
<path opacity="0.5" d="M74.2913 213.56L79.2884 144.015L79.5649 140.242H75.4023L75.1771 144.015L71.0862 213.56H74.2913Z" fill="white"/>
<path opacity="0.2" d="M75.177 143.826H79.2884L79.5648 140.242H75.4023L75.177 143.826Z" fill="black"/>
<path d="M165.837 213.56L161.521 140.119H157.358L162.632 213.56H165.837Z" fill="#263238"/>
<path opacity="0.5" d="M162.637 213.56H165.837L161.746 144.015L161.521 140.242H157.358L157.635 144.015L162.637 213.56Z" fill="white"/>
<path opacity="0.2" d="M161.521 140.242H157.358L157.635 143.826H161.746L161.521 140.242Z" fill="black"/>
<path d="M163.707 142.08H73.2111C73.0658 142.08 72.922 142.051 72.7878 141.996C72.6537 141.94 72.5318 141.859 72.4291 141.756C72.3264 141.653 72.2449 141.531 72.1893 141.397C72.1337 141.263 72.1051 141.119 72.1051 140.974V138.153H164.818V140.969C164.819 141.115 164.791 141.26 164.735 141.395C164.679 141.53 164.598 141.653 164.494 141.756C164.391 141.859 164.268 141.941 164.133 141.997C163.998 142.052 163.853 142.081 163.707 142.08Z" fill="#F99942"/>
<path opacity="0.2" d="M72.1049 140.114H164.818V138.148H72.1049V140.114Z" fill="black"/>
<path d="M70.144 138.665H166.764C166.909 138.665 167.053 138.636 167.187 138.581C167.321 138.525 167.443 138.444 167.546 138.341C167.648 138.238 167.73 138.116 167.785 137.982C167.841 137.848 167.869 137.704 167.869 137.559C167.869 137.265 167.753 136.983 167.546 136.775C167.339 136.567 167.057 136.449 166.764 136.448H70.144C69.8502 136.449 69.5689 136.567 69.3617 136.775C69.1544 136.983 69.0381 137.265 69.0381 137.559C69.0381 137.704 69.0667 137.848 69.1223 137.982C69.1779 138.116 69.2593 138.238 69.362 138.341C69.4647 138.444 69.5866 138.525 69.7208 138.581C69.855 138.636 69.9988 138.665 70.144 138.665Z" fill="#F99942"/>
</svg>
