
<svg width="256" height="256" viewBox="0 0 256 256" fill="none" xmlns="http://www.w3.org/2000/svg">
<path d="M256 195.789H0V195.917H256V195.789Z" fill="#EBEBEB"/>
<path d="M230.349 204.027H216.919V204.155H230.349V204.027Z" fill="#EBEBEB"/>
<path d="M182.661 202.363H165.135V202.491H182.661V202.363Z" fill="#EBEBEB"/>
<path d="M212.874 199.276H199.337V199.404H212.874V199.276Z" fill="#EBEBEB"/>
<path d="M56.7758 200.136H34.6625V200.264H56.7758V200.136Z" fill="#EBEBEB"/>
<path d="M30.1005 200.136H26.8595V200.264H30.1005V200.136Z" fill="#EBEBEB"/>
<path d="M96.087 202.296H67.3126V202.424H96.087V202.296Z" fill="#EBEBEB"/>
<path d="M209.326 53.5193H151.675V142.53H209.326V53.5193Z" fill="#EBEBEB"/>
<path d="M110.976 142.536H151.675V53.5244H110.976L110.976 142.536Z" fill="#F5F5F5"/>
<path d="M110.981 53.5193H110.254V142.53H110.981V53.5193Z" fill="#E6E6E6"/>
<path d="M208.241 141.45V54.6099H152.76V141.45H208.241Z" fill="#F5F5F5"/>
<path d="M208.246 106.307H178.929V54.6099H179.441V105.795H208.246V106.307Z" fill="#E0E0E0"/>
<path d="M209.326 142.536H218.624V53.5244H209.326V142.536Z" fill="#E0E0E0"/>
<path d="M152.76 141.445H162.058V54.6048H152.76V141.445Z" fill="#E0E0E0"/>
<path d="M189.046 65.4336H165.407V99.8041H189.046V65.4336Z" fill="#E6E6E6"/>
<path d="M185.237 68.2649H169.206C168.638 68.2649 168.177 68.7256 168.177 69.294V91.1206C168.177 91.6889 168.638 92.1497 169.206 92.1497H185.237C185.805 92.1497 186.266 91.6889 186.266 91.1206V69.294C186.266 68.7256 185.805 68.2649 185.237 68.2649Z" fill="#F0F0F0"/>
<path d="M189.046 99.8092H193.387V65.4387H189.046V99.8092Z" fill="#E0E0E0"/>
<path d="M177.224 77.3989C177.024 77.3989 176.833 77.3197 176.692 77.1785C176.55 77.0374 176.471 76.8459 176.471 76.6463V72.5093C176.471 72.3093 176.55 72.1173 176.691 71.9753C176.832 71.8334 177.024 71.7529 177.224 71.7516C177.424 71.7529 177.615 71.8334 177.756 71.9753C177.897 72.1173 177.976 72.3093 177.976 72.5093V76.6463C177.976 76.7451 177.957 76.843 177.919 76.9343C177.881 77.0256 177.826 77.1086 177.756 77.1785C177.686 77.2484 177.603 77.3038 177.512 77.3417C177.421 77.3795 177.323 77.3989 177.224 77.3989Z" fill="#FAFAFA"/>
<path d="M174.51 77.3989C174.31 77.3989 174.119 77.3197 173.978 77.1785C173.837 77.0374 173.757 76.8459 173.757 76.6463V72.5093C173.757 72.3093 173.836 72.1173 173.977 71.9753C174.118 71.8334 174.31 71.7529 174.51 71.7516C174.71 71.7529 174.901 71.8334 175.042 71.9753C175.183 72.1173 175.263 72.3093 175.263 72.5093V76.6463C175.263 76.8459 175.183 77.0374 175.042 77.1785C174.901 77.3197 174.71 77.3989 174.51 77.3989Z" fill="#FAFAFA"/>
<path d="M171.796 77.3989C171.597 77.3989 171.405 77.3197 171.264 77.1785C171.123 77.0374 171.044 76.8459 171.044 76.6463V72.5093C171.044 72.3093 171.123 72.1173 171.264 71.9753C171.405 71.8334 171.596 71.7529 171.796 71.7516C171.996 71.7529 172.188 71.8334 172.329 71.9753C172.47 72.1173 172.549 72.3093 172.549 72.5093V76.6463C172.549 76.8459 172.47 77.0374 172.329 77.1785C172.187 77.3197 171.996 77.3989 171.796 77.3989Z" fill="#FAFAFA"/>
<path d="M179.937 77.3989C179.74 77.3949 179.553 77.3139 179.415 77.1731C179.277 77.0324 179.2 76.8433 179.2 76.6463V72.5093C179.2 72.3093 179.279 72.1173 179.42 71.9753C179.561 71.8334 179.753 71.7529 179.953 71.7516C180.153 71.7529 180.344 71.8334 180.485 71.9753C180.626 72.1173 180.705 72.3093 180.705 72.5093V76.6463C180.705 76.7464 180.685 76.8456 180.647 76.9379C180.608 77.0303 180.551 77.1139 180.479 77.184C180.408 77.2541 180.323 77.3092 180.23 77.3461C180.137 77.383 180.037 77.401 179.937 77.3989Z" fill="#FAFAFA"/>
<path d="M182.651 77.3989C182.451 77.3989 182.26 77.3197 182.119 77.1785C181.977 77.0374 181.898 76.8459 181.898 76.6463V72.5093C181.898 72.3093 181.977 72.1173 182.118 71.9753C182.259 71.8334 182.451 71.7529 182.651 71.7516C182.851 71.7529 183.042 71.8334 183.183 71.9753C183.324 72.1173 183.403 72.3093 183.403 72.5093V76.6463C183.403 76.7451 183.384 76.843 183.346 76.9343C183.308 77.0256 183.253 77.1086 183.183 77.1785C183.113 77.2484 183.03 77.3038 182.939 77.3417C182.848 77.3795 182.75 77.3989 182.651 77.3989Z" fill="#FAFAFA"/>
<path d="M171.796 83.2921C171.796 83.3934 171.766 83.4924 171.71 83.5766C171.654 83.6608 171.574 83.7264 171.48 83.7652C171.387 83.8039 171.284 83.8141 171.185 83.7943C171.085 83.7746 170.994 83.7258 170.922 83.6542C170.851 83.5826 170.802 83.4914 170.782 83.392C170.763 83.2927 170.773 83.1898 170.811 83.0962C170.85 83.0027 170.916 82.9227 171 82.8664C171.084 82.8102 171.183 82.7802 171.284 82.7802C171.42 82.7802 171.55 82.8341 171.646 82.9301C171.742 83.0261 171.796 83.1564 171.796 83.2921Z" fill="#FAFAFA"/>
<path d="M171.796 88.1766C171.796 88.2778 171.766 88.3768 171.71 88.461C171.654 88.5452 171.574 88.6108 171.48 88.6496C171.387 88.6883 171.284 88.6985 171.185 88.6787C171.085 88.659 170.994 88.6102 170.922 88.5386C170.851 88.467 170.802 88.3758 170.782 88.2764C170.763 88.1771 170.773 88.0742 170.811 87.9806C170.85 87.8871 170.916 87.8071 171 87.7508C171.084 87.6946 171.183 87.6646 171.284 87.6646C171.42 87.6646 171.55 87.7185 171.646 87.8145C171.742 87.9105 171.796 88.0408 171.796 88.1766Z" fill="#E6E6E6"/>
<path d="M173.967 88.1766C173.967 88.2778 173.937 88.3768 173.881 88.461C173.825 88.5452 173.745 88.6108 173.651 88.6496C173.558 88.6883 173.455 88.6985 173.355 88.6787C173.256 88.659 173.165 88.6102 173.093 88.5386C173.022 88.467 172.973 88.3758 172.953 88.2764C172.933 88.1771 172.944 88.0742 172.982 87.9806C173.021 87.8871 173.087 87.8071 173.171 87.7508C173.255 87.6946 173.354 87.6646 173.455 87.6646C173.591 87.6646 173.721 87.7185 173.817 87.8145C173.913 87.9105 173.967 88.0408 173.967 88.1766Z" fill="#E6E6E6"/>
<path d="M176.128 88.1766C176.128 88.2778 176.098 88.3768 176.042 88.461C175.985 88.5452 175.906 88.6108 175.812 88.6496C175.718 88.6883 175.615 88.6985 175.516 88.6787C175.417 88.659 175.326 88.6102 175.254 88.5386C175.182 88.467 175.134 88.3758 175.114 88.2764C175.094 88.1771 175.104 88.0742 175.143 87.9806C175.182 87.8871 175.247 87.8071 175.332 87.7508C175.416 87.6946 175.515 87.6646 175.616 87.6646C175.752 87.6646 175.882 87.7185 175.978 87.8145C176.074 87.9105 176.128 88.0408 176.128 88.1766Z" fill="#E6E6E6"/>
<path d="M172.57 111.396H168.32V137.707H172.57V111.396Z" fill="#E6E6E6"/>
<path d="M172.57 116.393H168.32V118.574H172.57V116.393Z" fill="#E0E0E0"/>
<path d="M172.57 125.179H168.32V126.106H172.57V125.179Z" fill="#E0E0E0"/>
<path d="M172.575 137.708H174.203V111.396H172.575V137.708Z" fill="#E0E0E0"/>
<path d="M171.371 114.007C171.373 114.191 171.319 114.371 171.217 114.524C171.116 114.677 170.971 114.796 170.802 114.867C170.632 114.938 170.445 114.957 170.265 114.921C170.085 114.886 169.919 114.797 169.79 114.667C169.66 114.537 169.571 114.372 169.536 114.192C169.5 114.011 169.519 113.825 169.59 113.655C169.66 113.486 169.78 113.341 169.933 113.239C170.086 113.138 170.266 113.084 170.45 113.085C170.694 113.087 170.928 113.184 171.1 113.357C171.273 113.529 171.37 113.763 171.371 114.007Z" fill="#F5F5F5"/>
<path d="M177.997 111.396H173.747V137.707H177.997V111.396Z" fill="#E6E6E6"/>
<path d="M177.997 116.393H173.747V118.574H177.997V116.393Z" fill="#E0E0E0"/>
<path d="M177.997 125.179H173.747V126.106H177.997V125.179Z" fill="#E0E0E0"/>
<path d="M178.002 137.708H179.63V111.396H178.002V137.708Z" fill="#E0E0E0"/>
<path d="M176.799 114.007C176.8 114.191 176.746 114.371 176.645 114.524C176.543 114.677 176.399 114.796 176.229 114.867C176.059 114.938 175.873 114.957 175.692 114.921C175.512 114.886 175.347 114.797 175.217 114.667C175.087 114.537 174.998 114.372 174.963 114.192C174.927 114.011 174.946 113.825 175.017 113.655C175.088 113.486 175.207 113.341 175.36 113.239C175.514 113.138 175.693 113.084 175.877 113.085C176.121 113.087 176.355 113.184 176.527 113.357C176.7 113.529 176.797 113.763 176.799 114.007Z" fill="#F5F5F5"/>
<path d="M183.429 111.396H179.179V137.707H183.429V111.396Z" fill="#E6E6E6"/>
<path d="M183.429 116.393H179.179V118.574H183.429V116.393Z" fill="#E0E0E0"/>
<path d="M183.429 125.179H179.179V126.106H183.429V125.179Z" fill="#E0E0E0"/>
<path d="M183.429 137.708H185.057V111.396H183.429V137.708Z" fill="#E0E0E0"/>
<path d="M182.226 114.007C182.227 114.191 182.173 114.371 182.072 114.524C181.97 114.677 181.826 114.796 181.656 114.867C181.487 114.938 181.3 114.957 181.12 114.921C180.939 114.886 180.774 114.797 180.644 114.667C180.514 114.537 180.426 114.372 180.39 114.192C180.355 114.011 180.373 113.825 180.444 113.655C180.515 113.486 180.634 113.341 180.788 113.239C180.941 113.138 181.121 113.084 181.304 113.085C181.548 113.087 181.782 113.184 181.955 113.357C182.127 113.529 182.225 113.763 182.226 114.007Z" fill="#F5F5F5"/>
<path d="M188.856 111.396H184.607V137.707H188.856V111.396Z" fill="#E6E6E6"/>
<path d="M188.856 116.393H184.607V118.574H188.856V116.393Z" fill="#E0E0E0"/>
<path d="M188.856 125.179H184.607V126.106H188.856V125.179Z" fill="#E0E0E0"/>
<path d="M188.856 137.708H190.484V111.396H188.856V137.708Z" fill="#E0E0E0"/>
<path d="M187.653 114.007C187.654 114.191 187.6 114.371 187.499 114.524C187.398 114.677 187.253 114.796 187.083 114.867C186.914 114.938 186.727 114.957 186.547 114.921C186.366 114.886 186.201 114.797 186.071 114.667C185.941 114.537 185.853 114.372 185.817 114.192C185.782 114.011 185.8 113.825 185.871 113.655C185.942 113.486 186.061 113.341 186.215 113.239C186.368 113.138 186.548 113.084 186.731 113.085C186.975 113.087 187.209 113.184 187.382 113.357C187.554 113.529 187.652 113.763 187.653 114.007Z" fill="#F5F5F5"/>
<path d="M194.284 111.396H190.034V137.707H194.284V111.396Z" fill="#E6E6E6"/>
<path d="M194.284 116.393H190.034V118.574H194.284V116.393Z" fill="#E0E0E0"/>
<path d="M194.284 125.179H190.034V126.106H194.284V125.179Z" fill="#E0E0E0"/>
<path d="M194.283 137.708H195.912V111.396H194.283V137.708Z" fill="#E0E0E0"/>
<path d="M193.08 114.007C193.081 114.191 193.028 114.371 192.926 114.524C192.825 114.677 192.68 114.796 192.511 114.867C192.341 114.938 192.154 114.957 191.974 114.921C191.794 114.886 191.628 114.797 191.498 114.667C191.368 114.537 191.28 114.372 191.244 114.192C191.209 114.011 191.228 113.825 191.298 113.655C191.369 113.486 191.489 113.341 191.642 113.239C191.795 113.138 191.975 113.084 192.159 113.085C192.403 113.087 192.636 113.184 192.809 113.357C192.981 113.529 193.079 113.763 193.08 114.007Z" fill="#F5F5F5"/>
<path d="M199.711 111.396H195.461V137.707H199.711V111.396Z" fill="#E6E6E6"/>
<path d="M199.711 116.393H195.461V118.574H199.711V116.393Z" fill="#E0E0E0"/>
<path d="M199.711 125.179H195.461V126.106H199.711V125.179Z" fill="#E0E0E0"/>
<path d="M199.711 137.708H201.339V111.396H199.711V137.708Z" fill="#E0E0E0"/>
<path d="M198.507 114.007C198.509 114.191 198.455 114.371 198.353 114.524C198.252 114.677 198.107 114.796 197.938 114.867C197.768 114.938 197.581 114.957 197.401 114.921C197.221 114.886 197.055 114.797 196.925 114.667C196.796 114.537 196.707 114.372 196.672 114.192C196.636 114.011 196.655 113.825 196.726 113.655C196.796 113.486 196.916 113.341 197.069 113.239C197.222 113.138 197.402 113.084 197.586 113.085C197.83 113.087 198.064 113.184 198.236 113.357C198.409 113.529 198.506 113.763 198.507 114.007Z" fill="#F5F5F5"/>
<path d="M170.706 111.396H170.194V105.795H179.185V106.307H170.706V111.396Z" fill="#E0E0E0"/>
<path d="M176.133 106.051H175.621V111.401H176.133V106.051Z" fill="#E0E0E0"/>
<path d="M181.56 106.051H181.048V111.401H181.56V106.051Z" fill="#E0E0E0"/>
<path d="M186.988 106.051H186.476V111.401H186.988V106.051Z" fill="#E0E0E0"/>
<path d="M192.415 106.051H191.903V111.401H192.415V106.051Z" fill="#E0E0E0"/>
<path d="M197.842 106.051H197.33V111.401H197.842V106.051Z" fill="#E0E0E0"/>
<path d="M204.754 78.2489H196.659V93.9263H204.754V78.2489Z" fill="#EBEBEB"/>
<path d="M203.965 78.2489H196.659V93.9263H203.965V78.2489Z" fill="white"/>
<path d="M201.032 54.6099H200.387V78.2489H201.032V54.6099Z" fill="#E0E0E0"/>
<path d="M81.3414 87.4188H60.4159L60.8409 89.1852H75.8988L79.8719 105.687H64.7987L65.2236 107.453H80.2815L84.2547 123.955H69.1967L69.5551 125.425L60.4159 87.4188H54.5228L80.6348 195.917H86.5279L73.8047 143.073L74.0198 143.985H89.0879L93.0611 160.486H77.9929L78.4179 162.253H93.4758L97.4489 178.754H82.391L82.8159 180.516H97.8739L101.586 195.917H107.464L81.3414 87.4188ZM73.5948 142.203L69.6319 125.716H84.6899L88.663 142.218L73.5948 142.203Z" fill="#E0E0E0"/>
<path d="M44.0883 195.917H45.6652L71.7875 87.4188H70.2156L44.0883 195.917Z" fill="#F5F5F5"/>
<path d="M49.9712 195.917H45.6653L71.7875 87.4188H76.0934L49.9712 195.917Z" fill="#E6E6E6"/>
<path d="M23.1527 195.917H24.7297L50.8519 87.4188H49.275L23.1527 195.917Z" fill="#F5F5F5"/>
<path d="M29.0304 195.917H24.7296L50.8519 87.4188H55.1578L29.0304 195.917Z" fill="#E6E6E6"/>
<path d="M50.4269 89.1852H69.7907L70.2157 87.4188H50.8518L50.4269 89.1852Z" fill="#F5F5F5"/>
<path d="M46.0288 107.453H65.3927L65.8176 105.687H46.4538L46.0288 107.453Z" fill="#F5F5F5"/>
<path d="M41.6307 125.716H60.9946L61.4195 123.95H42.0557L41.6307 125.716Z" fill="#F5F5F5"/>
<path d="M37.2327 143.985H56.5965L57.0215 142.218H37.6576L37.2327 143.985Z" fill="#F5F5F5"/>
<path d="M32.8346 162.253H52.1984L52.6234 160.486H33.2596L32.8346 162.253Z" fill="#F5F5F5"/>
<path d="M28.4365 180.516H47.8004L48.2253 178.755H28.8615L28.4365 180.516Z" fill="#F5F5F5"/>
<path d="M195.492 164.603V160.072C195.492 159.48 195.257 158.912 194.838 158.493C194.419 158.075 193.852 157.839 193.26 157.839C192.668 157.841 192.102 158.077 191.684 158.495C191.267 158.913 191.032 159.481 191.032 160.072V164.603C191.032 166.387 190.336 168.101 189.092 169.38L183.547 175.073C182.979 175.657 182.563 176.371 182.334 177.153C182.106 177.935 182.072 178.761 182.236 179.558L185.575 195.789H200.934L204.288 179.558C204.452 178.761 204.418 177.935 204.19 177.153C203.961 176.371 203.545 175.657 202.977 175.073L197.432 169.38C196.189 168.101 195.493 166.387 195.492 164.603Z" fill="#EBEBEB"/>
<path d="M193.265 157.839H191.913V159.555H193.265V157.839Z" fill="#EBEBEB"/>
<path d="M194.14 164.603V160.072C194.14 159.481 193.906 158.913 193.488 158.495C193.071 158.077 192.504 157.841 191.913 157.839C191.321 157.839 190.753 158.075 190.335 158.493C189.916 158.912 189.681 159.48 189.681 160.072V164.603C189.68 166.387 188.984 168.101 187.74 169.38L182.2 175.073C181.631 175.656 181.213 176.37 180.983 177.152C180.754 177.934 180.72 178.76 180.885 179.558L184.228 195.789H199.588L202.926 179.558C203.09 178.761 203.057 177.935 202.828 177.153C202.6 176.371 202.183 175.657 201.616 175.073L196.096 169.38C194.845 168.104 194.143 166.39 194.14 164.603Z" fill="#E0E0E0"/>
<path d="M191.913 159.56H161.193V161.398H191.913C192.145 161.38 192.362 161.276 192.52 161.106C192.678 160.935 192.766 160.711 192.766 160.479C192.766 160.246 192.678 160.022 192.52 159.852C192.362 159.681 192.145 159.577 191.913 159.56Z" fill="#EBEBEB"/>
<path d="M164.767 164.603V160.072C164.767 159.481 164.532 158.913 164.115 158.495C163.697 158.077 163.131 157.841 162.54 157.839C161.948 157.839 161.38 158.075 160.961 158.493C160.543 158.912 160.307 159.48 160.307 160.072V164.603C160.307 166.387 159.611 168.101 158.367 169.38L152.822 175.073C152.254 175.657 151.838 176.371 151.609 177.153C151.381 177.935 151.347 178.761 151.511 179.558L154.849 195.789H170.209L173.568 179.558C173.732 178.761 173.698 177.935 173.47 177.153C173.241 176.371 172.825 175.657 172.257 175.073L166.707 169.38C165.464 168.101 164.767 166.387 164.767 164.603Z" fill="#EBEBEB"/>
<path d="M162.539 157.839H161.188V159.555H162.539V157.839Z" fill="#EBEBEB"/>
<path d="M163.415 164.603V160.072C163.415 159.481 163.181 158.913 162.763 158.495C162.346 158.077 161.779 157.841 161.188 157.839C160.895 157.839 160.605 157.897 160.334 158.009C160.064 158.122 159.818 158.286 159.611 158.493C159.404 158.701 159.24 158.947 159.129 159.218C159.017 159.489 158.96 159.779 158.961 160.072V164.603C158.958 166.388 158.26 168.101 157.015 169.38L151.475 175.073C150.906 175.656 150.489 176.37 150.261 177.152C150.032 177.934 149.999 178.761 150.165 179.558L153.503 195.789H168.863L172.201 179.558C172.366 178.761 172.333 177.934 172.105 177.152C171.876 176.37 171.459 175.656 170.89 175.073L165.376 169.38C164.125 168.104 163.422 166.39 163.415 164.603Z" fill="#F5F5F5"/>
<path d="M162.11 160.476C162.111 160.659 162.057 160.837 161.957 160.99C161.856 161.142 161.712 161.261 161.544 161.331C161.376 161.402 161.19 161.421 161.011 161.386C160.832 161.351 160.668 161.263 160.538 161.135C160.409 161.006 160.32 160.842 160.284 160.663C160.248 160.484 160.266 160.299 160.336 160.13C160.406 159.961 160.524 159.817 160.675 159.715C160.827 159.614 161.005 159.56 161.188 159.56C161.431 159.561 161.664 159.658 161.836 159.829C162.009 160.001 162.107 160.233 162.11 160.476Z" fill="#EBEBEB"/>
<path d="M203.233 179.558H173.327L169.928 195.789H199.834L203.233 179.558Z" fill="#EBEBEB"/>
<path d="M49.1521 36.6182H25.9431V41.7433H49.1521V36.6182Z" fill="#FAFAFA"/>
<path d="M60.2112 41.7433H37.0022V46.8684H60.2112V41.7433Z" fill="#F5F5F5"/>
<path d="M196.557 40.151H173.348V45.2761H196.557V40.151Z" fill="#FAFAFA"/>
<path d="M207.621 35.0259H184.412V40.151H207.621V35.0259Z" fill="#F5F5F5"/>
<path d="M48.6041 70.8966H25.3951V76.0217H48.6041V70.8966Z" fill="#F5F5F5"/>
<path d="M226.616 149.115H203.407V154.24H226.616V149.115Z" fill="#F5F5F5"/>
<path d="M128 218.911C182.826 218.911 227.272 216.316 227.272 213.115C227.272 209.914 182.826 207.319 128 207.319C73.1737 207.319 28.7283 209.914 28.7283 213.115C28.7283 216.316 73.1737 218.911 128 218.911Z" fill="#F5F5F5"/>
<path d="M125.547 83.0873C124.897 83.7171 124.314 84.2496 123.684 84.8026C123.054 85.3555 122.424 85.8829 121.784 86.4102C120.494 87.4342 119.178 88.4582 117.775 89.431C116.349 90.4341 114.861 91.3472 113.321 92.1651C112.491 92.6132 111.636 93.0132 110.761 93.3632C109.71 93.7847 108.614 94.0853 107.494 94.2592L107.233 94.3001C107.054 94.3179 106.874 94.3179 106.696 94.3001C105.554 94.2218 104.436 93.9336 103.398 93.4502C102.616 93.0932 101.863 92.6755 101.146 92.201C99.8891 91.3645 98.701 90.4297 97.5923 89.4054C96.5273 88.4224 95.5443 87.4086 94.5971 86.3334C93.6494 85.2772 92.7606 84.1696 91.9347 83.0157C91.6295 82.5767 91.485 82.0459 91.5255 81.5128C91.566 80.9796 91.7891 80.4768 92.1571 80.0889C92.5251 79.7011 93.0155 79.4519 93.5458 79.3835C94.076 79.3151 94.6137 79.4315 95.0681 79.7133L95.1295 79.7542L98.4371 81.8381C99.5379 82.5241 100.634 83.2 101.724 83.8144C102.749 84.4139 103.807 84.9541 104.893 85.4323C105.336 85.6361 105.797 85.7972 106.271 85.9136C106.655 86.0058 106.982 86.016 106.875 85.9597L106.081 86.0211C106.505 85.8646 106.918 85.6781 107.315 85.463C107.827 85.1865 108.395 84.864 108.959 84.5005C109.522 84.1369 110.1 83.7376 110.674 83.3126C111.247 82.8877 111.836 82.4678 112.415 82.0173C113.572 81.111 114.739 80.1741 115.886 79.2064L117.606 77.7472L119.281 76.3034L119.363 76.2368C120.271 75.4507 121.451 75.0506 122.65 75.1218C123.85 75.1929 124.974 75.7298 125.783 76.6179C126.593 77.506 127.023 78.6751 126.983 79.8759C126.943 81.0768 126.435 82.2144 125.568 83.0464L125.547 83.0873Z" fill="#CF7A64"/>
<path d="M94.208 83.2972L89.088 83.8092L90.2093 77.7216C90.2093 77.7216 94.9146 77.8086 95.273 80.3174L94.208 83.2972Z" fill="#263238"/>
<path d="M84.8998 80.4762L85.6524 78.4282C85.797 78.0292 86.0789 77.6947 86.4476 77.4846C86.8162 77.2745 87.2477 77.2024 87.6646 77.2813L90.2246 77.7574L89.088 83.8246L86.016 82.8006C85.7875 82.7249 85.5767 82.604 85.396 82.445C85.2154 82.286 85.0686 82.0923 84.9644 81.8753C84.8603 81.6584 84.8009 81.4227 84.7897 81.1823C84.7786 80.9419 84.8161 80.7018 84.8998 80.4762Z" fill="#263238"/>
<path d="M90.67 82.5241C92.0166 83.5788 94.254 86.7891 94.7097 87.7465C98.1043 86.5075 99.799 83.3023 99.3433 82.1401C97.024 80.3532 95.0272 79.1551 93.5577 78.8684C91.1616 79.3599 90.67 82.5241 90.67 82.5241Z" fill="#263238"/>
<path d="M129.198 77.9674C128.445 80.4864 126.797 84.0141 124.283 85.4682C121.769 86.9222 117.422 92.3853 114.094 93.8291C108.774 91.1053 108.493 86.2823 109.123 83.7939C112.343 79.5239 118.226 73.2672 121.288 72.4378C123.95 71.7158 126.249 75.8886 129.198 77.9674Z" fill="#263238"/>
<path d="M128.604 58.0557C130.35 58.7776 131.389 58.5011 131.389 58.5011C131.389 58.5011 130.365 57.1853 130.365 56.5299C130.508 56.7458 130.697 56.9274 130.919 57.0619C131.14 57.1964 131.388 57.2805 131.645 57.3082C130.847 54.4973 132.588 53.3811 132.019 52.2855C130.944 50.2067 126.986 50.1863 127.34 52.4288C125.701 53.2941 125.399 55.3626 125.399 55.3626C125.673 54.9366 126.047 54.5848 126.49 54.3386C125.809 55.9463 126.147 58.2247 127.324 59.9347C127.549 59.9355 127.77 59.8813 127.968 59.7767C128.167 59.6722 128.337 59.5206 128.463 59.3351C128.589 59.1496 128.668 58.936 128.693 58.713C128.718 58.4899 128.687 58.2642 128.604 58.0557Z" fill="#263238"/>
<path d="M149.124 127.887L150.666 127.49C151.761 127.208 152.421 126.092 152.139 124.996L149.715 115.575C149.433 114.48 148.316 113.82 147.221 114.102L145.679 114.499C144.583 114.781 143.924 115.897 144.206 116.993L146.63 126.414C146.912 127.509 148.028 128.169 149.124 127.887Z" fill="#263238"/>
<path d="M145.377 113.869C147.522 112.374 148.772 112.394 149.601 112.998C150.431 113.602 150.625 117.253 151.798 119.188C150.21 119.926 145.377 113.869 145.377 113.869Z" fill="#263238"/>
<path d="M142.648 71.4956C136.685 70.8355 130.669 70.796 124.698 71.3779C122.241 71.64 119.969 72.8028 118.32 74.642C116.671 76.4811 115.762 78.8661 115.768 81.3363C115.768 90.5215 118.2 103.915 119.731 118.016C133.719 122.711 145.516 117.78 145.516 117.78C145.828 114.56 145.654 104.98 144.573 99.3484C145.367 93.5321 147.379 86.8761 148.521 79.1552C148.648 78.2652 148.596 77.3589 148.369 76.4892C148.141 75.6196 147.742 74.8042 147.195 74.0908C146.648 73.3774 145.964 72.7803 145.183 72.3347C144.403 71.8891 143.541 71.6038 142.648 71.4956Z" fill="#263238"/>
<path d="M137.242 60.375C137.047 64.044 137.686 67.7094 139.11 71.0963C137.226 72.8473 134.17 75.0233 130.094 74.9619C126.019 74.9004 126.694 72.8217 127.785 71.4035C130.703 69.9289 130.893 67.7683 130.176 66.4627L137.242 60.375Z" fill="#CE7A63"/>
<path opacity="0.2" d="M137.242 60.375L130.176 66.4627C130.394 66.8657 130.514 67.3144 130.527 67.7725C130.539 68.2306 130.444 68.6852 130.248 69.0995C131.7 69.1833 133.13 68.7151 134.252 67.7888C136.069 66.3296 136.724 64.5632 137.236 62.0595C137.216 61.527 137.216 60.9689 137.242 60.375Z" fill="black"/>
<path d="M139.53 57.344C138.731 61.9111 138.506 64.6298 135.9 66.7085C132.004 69.8317 126.556 67.0362 125.978 62.3053C125.466 58.0506 126.853 51.2922 131.569 50.0173C132.612 49.7334 133.71 49.7187 134.76 49.9747C135.81 50.2307 136.778 50.7489 137.574 51.4809C138.369 52.2129 138.966 53.1348 139.308 54.1602C139.65 55.1856 139.727 56.281 139.53 57.344Z" fill="#CE7A63"/>
<path d="M139.397 58.9056C137.585 59.4176 136.581 59.0489 136.581 59.0489C136.581 59.0489 137.733 57.8508 137.83 57.2006C137.664 57.3991 137.457 57.5588 137.222 57.6685C136.988 57.7782 136.732 57.8352 136.474 57.8355C137.569 55.127 135.962 53.8265 136.648 52.8025C137.938 50.8518 142.464 51.5993 141.865 53.7907C142.3 54.0946 142.631 54.5246 142.814 55.0226C142.997 55.5206 143.023 56.0627 142.889 56.576C142.677 56.1942 142.363 55.8787 141.983 55.6646C142.495 57.3388 142.93 58.7366 140.477 60.8972C140.255 60.8744 140.042 60.7977 139.856 60.6739C139.671 60.55 139.518 60.3827 139.412 60.1865C139.305 59.9903 139.248 59.7711 139.246 59.5478C139.243 59.3246 139.295 59.1042 139.397 58.9056Z" fill="#263238"/>
<path d="M127.176 62.034C128.98 61.8466 130.797 61.8038 132.608 61.906C132.096 62.93 131.169 63.7133 129.121 63.6416C127.073 63.57 127.176 62.034 127.176 62.034Z" fill="white"/>
<path d="M140.913 60.8716C140.452 61.8401 139.639 62.5964 138.639 62.9862C137.37 63.4419 136.765 62.1926 137.139 60.8255C137.482 59.5916 138.547 57.8713 139.812 58.0095C141.076 58.1478 141.512 59.6377 140.913 60.8716Z" fill="#CE7A63"/>
<path d="M133.228 57.17C133.171 57.5642 132.915 57.8458 132.659 57.8048C132.403 57.7639 132.244 57.4157 132.306 57.0215C132.367 56.6272 132.618 56.3508 132.874 56.3917C133.13 56.4327 133.289 56.7808 133.228 57.17Z" fill="#263238"/>
<path d="M128.466 56.4838C128.404 56.8729 128.148 57.1545 127.892 57.1136C127.636 57.0726 127.478 56.7244 127.539 56.3353C127.601 55.9462 127.851 55.6595 128.107 55.7004C128.363 55.7414 128.512 56.0895 128.466 56.4838Z" fill="#263238"/>
<path d="M129.797 57.2007C129.797 57.2007 128.563 59.3101 127.421 60.242C128.015 60.9946 129.234 60.8922 129.234 60.8922L129.797 57.2007Z" fill="#BA4D3C"/>
<path d="M134.774 55.5264C134.812 55.5389 134.853 55.5389 134.891 55.5264C134.948 55.5056 134.994 55.4633 135.02 55.4087C135.046 55.3541 135.049 55.2916 135.03 55.2345C134.913 54.8796 134.712 54.5581 134.445 54.297C134.177 54.0359 133.851 53.8429 133.494 53.7344C133.464 53.7267 133.433 53.725 133.403 53.7294C133.373 53.7338 133.344 53.7442 133.317 53.7599C133.291 53.7756 133.268 53.7964 133.25 53.821C133.232 53.8456 133.219 53.8736 133.212 53.9033C133.198 53.963 133.208 54.0259 133.239 54.0784C133.271 54.131 133.322 54.1692 133.381 54.1849C133.659 54.2775 133.912 54.4342 134.118 54.6423C134.324 54.8504 134.479 55.1042 134.569 55.383C134.586 55.4241 134.614 55.4595 134.65 55.4849C134.686 55.5103 134.729 55.5247 134.774 55.5264Z" fill="#263238"/>
<path d="M126.689 54.3898C126.727 54.3971 126.766 54.3949 126.803 54.3832C126.839 54.3716 126.872 54.351 126.899 54.3233C127.096 54.109 127.34 53.9444 127.612 53.843C127.885 53.7415 128.177 53.7061 128.466 53.7396C128.495 53.7463 128.526 53.7469 128.556 53.7415C128.586 53.736 128.614 53.7246 128.64 53.7079C128.665 53.6911 128.687 53.6694 128.704 53.6441C128.72 53.6187 128.732 53.5903 128.737 53.5604C128.749 53.4993 128.737 53.4359 128.702 53.3841C128.668 53.3323 128.614 53.2963 128.553 53.2839C128.189 53.2355 127.818 53.2753 127.472 53.4001C127.126 53.5248 126.816 53.7308 126.566 54.0007C126.524 54.0446 126.5 54.1034 126.5 54.1645C126.5 54.2257 126.524 54.2845 126.566 54.3284C126.602 54.3584 126.644 54.3794 126.689 54.3898Z" fill="#263238"/>
<path d="M133.816 159.488C137.564 138.578 139.126 113.362 139.126 113.362L118.492 113.05C118.492 113.05 120.868 147.031 121.692 161.265C122.547 176.067 123.146 204.544 123.146 204.544H130.048C130.048 204.544 135.895 177.787 133.816 159.488Z" fill="#00A688"/>
<path opacity="0.2" d="M129.766 119.06C129.766 119.06 132.48 139.356 134.702 154.24C136.678 141.732 137.933 128.589 138.583 120.683L129.766 119.06Z" fill="black"/>
<path d="M113.894 211.533C113.894 211.533 123.146 209.367 123.551 206.208L129.449 206.976L130.094 213.12H127.657L127.273 212.357L126.454 213.12C118.18 213.12 115.113 213.033 113.582 212.521C113.536 212.344 113.54 212.157 113.596 211.982C113.651 211.807 113.754 211.651 113.894 211.533Z" fill="#263238"/>
<path d="M130.283 208.087C128.072 208.215 123.627 207.892 122.788 207.468C121.948 207.043 122.434 203.607 122.434 203.607C122.434 203.607 130.171 202.839 130.852 203.264C131.533 203.689 130.283 208.087 130.283 208.087Z" fill="#00A688"/>
<path opacity="0.3" d="M130.283 208.087C128.072 208.215 123.627 207.892 122.788 207.468C121.948 207.043 122.434 203.607 122.434 203.607C122.434 203.607 130.171 202.839 130.852 203.264C131.533 203.689 130.283 208.087 130.283 208.087Z" fill="white"/>
<path d="M152.356 158.899C148.951 137.871 149.325 123.817 145.92 113.454L126.162 113.183C126.162 113.183 135.588 146.55 139.889 160.44C144.19 174.331 151.998 204.544 151.998 204.544H158.316C158.316 204.544 158.06 175.165 152.356 158.899Z" fill="#00A688"/>
<path d="M145.352 211.533C145.352 211.533 152.33 209.367 152.735 206.208L158.633 206.976L159.278 213.12H157.742L157.358 212.357L156.539 213.12C148.265 213.12 146.56 213.033 145.029 212.521C144.984 212.343 144.99 212.155 145.047 211.98C145.104 211.805 145.21 211.65 145.352 211.533Z" fill="#263238"/>
<path d="M159.278 207.939C157.916 208.215 152.776 207.893 151.849 207.468C150.922 207.043 151.219 203.433 151.219 203.433C151.219 203.433 158.213 202.604 158.961 203.029C159.708 203.453 159.278 207.939 159.278 207.939Z" fill="#00A688"/>
<path opacity="0.3" d="M159.278 207.939C157.916 208.215 152.776 207.893 151.849 207.468C150.922 207.043 151.219 203.433 151.219 203.433C151.219 203.433 158.213 202.604 158.961 203.029C159.708 203.453 159.278 207.939 159.278 207.939Z" fill="white"/>
<path d="M118.492 113.05C118.292 110.735 116.326 94.3155 116.25 92.8102C116.347 84.6182 120.463 74.2092 123.162 71.2243C123.782 70.9536 124.48 70.9136 125.128 71.1116C125.128 71.1116 121.4 75.863 120.376 83.7683C127.232 85.4169 134.63 84.5926 136.566 84.1932C137.242 78.679 140.662 72.023 141.409 71.0758C142.033 71.0413 142.658 71.13 143.247 71.3369C143.247 71.3369 139.53 78.7712 139.151 84.48C138.772 90.1888 146.171 92.9587 146.171 92.9587C146.171 92.9587 145.377 97.9046 145.546 100.127C145.715 102.349 145.945 113.439 145.945 113.439C145.945 113.439 128.102 116.357 118.492 113.05Z" fill="#00A688"/>
<path d="M123.428 121.702L119.962 113.004L119.624 113.137L119.281 113.275L122.752 121.974L122.66 122.742L123.694 124.355L124.037 124.216L124.385 124.078L124.022 122.199L123.428 121.702Z" fill="white"/>
<path d="M119.885 113.802C119.583 113.92 119.247 113.914 118.95 113.786C118.653 113.657 118.418 113.417 118.298 113.116L115.103 105.103C114.983 104.801 114.988 104.464 115.117 104.166C115.246 103.867 115.487 103.632 115.789 103.511C116.09 103.393 116.426 103.399 116.723 103.528C117.021 103.656 117.255 103.897 117.376 104.197L120.571 112.21C120.69 112.512 120.685 112.849 120.557 113.148C120.428 113.446 120.186 113.681 119.885 113.802Z" fill="#263238"/>
<path d="M118.379 111.928C118.042 112.271 117.985 114.488 118.666 115.512C123.228 117.862 135.255 118.205 146.473 115.302C146.744 113.987 146.637 112.23 145.879 111.683C144.343 112.993 132.459 114.872 124.329 113.818C122.241 113.585 120.219 112.943 118.379 111.928Z" fill="#263238"/>
<path opacity="0.2" d="M120.09 86.7841C120.09 86.7841 124.36 88.5351 136.264 87.6801C136.412 91.3538 136.283 95.0335 135.88 98.6881C135.537 100.864 126.152 102.953 126.152 102.953C126.152 102.953 120.166 100.649 119.695 97.961C119.224 95.273 120.09 86.7841 120.09 86.7841Z" fill="white"/>
<path d="M142.874 54.9939C138.593 53.3299 132.951 51.5276 127.928 51.6351C128.061 50.2334 128.683 48.9231 129.684 47.9334C130.708 47.1039 134.118 46.3974 136.776 46.9759C138.88 47.447 141.45 49.0239 142.597 51.0361C143.094 51.9065 142.874 54.9939 142.874 54.9939Z" fill="#00A688"/>
<path opacity="0.3" d="M137.098 48.5529C135.091 46.7097 130.693 47.104 129.684 47.9334C128.683 48.9231 128.061 50.2334 127.928 51.6352C131.118 51.5686 134.553 52.2701 137.733 53.2173C137.784 51.5174 137.876 50.2528 137.098 48.5529Z" fill="white"/>
<path d="M138.583 53.4732C135.557 53.207 132.275 53.0585 130.842 52.4492C129.408 51.84 125.896 51.5942 125.21 52.3417C124.892 51.7632 126.505 50.7136 129.818 50.8876C133.13 51.0617 138.583 53.4732 138.583 53.4732Z" fill="#00A688"/>
<path d="M133.642 48.1075L132.28 47.9949L131.717 49.1162L131.323 49.0803L130.795 50.5139L132.306 49.1725L132.582 49.193L133.642 48.1075Z" fill="white"/>
<path d="M137.216 47.0374C137.165 47.2934 136.817 47.4368 136.448 47.36C136.079 47.2832 135.829 47.0016 135.885 46.7456C135.941 46.4896 136.284 46.3462 136.653 46.423C137.022 46.4998 137.288 46.7763 137.216 47.0374Z" fill="#00A688"/>
<path d="M148.992 75.0695C149.657 75.689 150.226 76.2368 150.809 76.841C151.393 77.4451 151.956 78.0391 152.519 78.6483C153.631 79.8823 154.721 81.1418 155.75 82.4883C156.83 83.8586 157.824 85.295 158.725 86.7891C159.218 87.5994 159.664 88.437 160.061 89.2979C160.541 90.3248 160.9 91.4038 161.131 92.5133L161.188 92.7693C161.221 92.9378 161.237 93.1095 161.234 93.2813C161.221 94.4274 160.995 95.5611 160.568 96.6247C160.251 97.4233 159.875 98.1969 159.442 98.9389C158.676 100.241 157.806 101.479 156.841 102.641C155.933 103.741 154.971 104.796 153.958 105.8C152.952 106.8 151.895 107.747 150.789 108.636C150.368 108.97 149.845 109.148 149.307 109.139C148.77 109.13 148.253 108.934 147.844 108.586C147.434 108.238 147.159 107.759 147.064 107.23C146.969 106.701 147.06 106.156 147.323 105.687L147.359 105.626L149.263 102.205C149.888 101.069 150.502 99.9424 151.055 98.8211C151.599 97.7646 152.081 96.6773 152.499 95.5648C152.678 95.1105 152.815 94.641 152.909 94.1619C152.98 93.7728 152.97 93.4503 152.909 93.5578L153.011 94.3463C152.835 93.9304 152.628 93.5282 152.391 93.1431C152.084 92.6311 151.731 92.1191 151.337 91.5559C150.943 90.9927 150.512 90.4602 150.062 89.9072C149.611 89.3543 149.151 88.7911 148.669 88.2381C147.702 87.1322 146.703 86.0211 145.674 84.9255L144.138 83.2871L142.602 81.6947L142.525 81.6179C141.73 80.7457 141.301 79.6017 141.324 78.4218C141.348 77.242 141.823 76.1162 142.652 75.2765C143.482 74.4368 144.601 73.9472 145.781 73.9087C146.96 73.8702 148.11 74.2857 148.992 75.0695Z" fill="#CF7A64"/>
<path d="M150.359 104.3L145.198 104.371L147.016 110.29C147.016 110.29 151.685 109.66 151.746 107.126L150.359 104.3Z" fill="#263238"/>
<path d="M141.43 108.191L142.418 110.157C142.608 110.536 142.926 110.835 143.316 111.001C143.706 111.167 144.143 111.189 144.548 111.063L147.016 110.29L145.198 104.371L142.259 105.769C142.044 105.872 141.852 106.016 141.693 106.194C141.534 106.372 141.413 106.58 141.336 106.806C141.258 107.031 141.227 107.27 141.243 107.508C141.259 107.745 141.323 107.978 141.43 108.191Z" fill="#263238"/>
<path d="M147.128 105.103C148.291 103.745 149.192 102.182 149.786 100.495C153.313 101.274 155.418 104.223 155.121 105.436C153.073 107.515 151.24 108.969 149.827 109.445C147.82 108.401 147.128 105.103 147.128 105.103Z" fill="#263238"/>
<path d="M143.693 71.7056C146.253 72.32 149.862 73.7536 151.444 76.2009C153.027 78.6483 157.297 83.287 158.92 86.528C156.488 91.9859 153.114 91.9244 150.6 91.4329C146.161 88.448 140.442 84.7411 140.36 81.5769C140.288 78.8172 141.778 74.752 143.693 71.7056Z" fill="#263238"/>
<path d="M99.2973 49.0803C98.8764 47.0339 97.9431 45.1279 96.5847 43.5406C95.2263 41.9533 93.4872 40.7368 91.5304 40.0049C89.5736 39.273 87.463 39.0498 85.3964 39.356C83.3298 39.6623 81.3747 40.4881 79.7142 41.756C78.0538 43.024 76.7423 44.6926 75.9026 46.6056C75.0629 48.5187 74.7225 50.6135 74.9133 52.694C75.104 54.7745 75.8196 56.7725 76.9932 58.501C78.1667 60.2294 79.7597 61.6318 81.6231 62.5766C82.2802 62.9043 82.8571 63.3728 83.3127 63.9488C83.8561 64.6541 84.5869 65.1922 85.4216 65.5019C86.2564 65.8115 87.1614 65.8801 88.0333 65.6998L92.032 64.8755C92.9047 64.6966 93.7093 64.2756 94.354 63.6608C94.9987 63.046 95.4573 62.2622 95.6775 61.399C95.865 60.6965 96.206 60.0443 96.6759 59.4893C97.8695 58.0643 98.7254 56.3878 99.1794 54.5852C99.6333 52.7826 99.6737 50.9007 99.2973 49.0803Z" fill="#F99942"/>
<path d="M93.8804 67.3587L87.3165 68.7104C87.0783 68.7589 86.8306 68.7113 86.6273 68.578C86.4239 68.4447 86.2815 68.2365 86.2311 67.9987C86.1841 67.7599 86.2329 67.5122 86.367 67.3091C86.5012 67.106 86.7098 66.9638 86.9479 66.9133L93.5117 65.536C93.7505 65.489 93.9982 65.5378 94.2013 65.672C94.4044 65.8061 94.5466 66.0147 94.5972 66.2528C94.6234 66.3725 94.6257 66.4963 94.6038 66.6169C94.5819 66.7375 94.5363 66.8525 94.4696 66.9554C94.4029 67.0582 94.3165 67.1469 94.2154 67.2161C94.1142 67.2853 94.0004 67.3338 93.8804 67.3587Z" fill="#263238"/>
<path d="M93.783 70.0979L88.494 71.1679C88.2551 71.2163 88.0067 71.1681 87.8033 71.0337C87.5998 70.8994 87.4579 70.6899 87.4086 70.4511C87.3602 70.2136 87.4079 69.9665 87.5413 69.764C87.6747 69.5615 87.8829 69.4201 88.1203 69.3708L93.4092 68.2803C93.6475 68.2317 93.8952 68.2793 94.0985 68.4126C94.3018 68.5459 94.4442 68.7541 94.4947 68.9919C94.5217 69.1114 94.5247 69.235 94.5034 69.3555C94.4822 69.4761 94.4371 69.5912 94.3708 69.6942C94.3046 69.7972 94.2185 69.8859 94.1175 69.9552C94.0166 70.0245 93.9029 70.073 93.783 70.0979Z" fill="#263238"/>
<path d="M92.0833 65.1263C92.0224 65.1383 91.9593 65.1278 91.9056 65.0967C91.8519 65.0656 91.8113 65.0161 91.7914 64.9574C91.6685 64.5938 89.8407 58.9311 89.4618 54.0927C88.3717 54.4135 87.2569 54.643 86.1287 54.7788C87.6954 59.3868 88.2535 65.2953 88.2893 65.6793C88.295 65.7464 88.2741 65.8131 88.2309 65.8648C88.1878 65.9166 88.126 65.9493 88.0589 65.9558C88.0256 65.9593 87.9918 65.9561 87.9597 65.9463C87.9276 65.9366 87.8978 65.9205 87.872 65.899C87.8462 65.8775 87.825 65.8511 87.8096 65.8213C87.7943 65.7914 87.785 65.7588 87.7825 65.7254C87.7825 65.6332 87.1885 59.4431 85.6116 54.8351C81.5719 55.1679 80.1434 53.6319 79.6929 52.869C79.4231 52.4484 79.291 51.9543 79.3149 51.4552C79.3387 50.956 79.5174 50.4767 79.826 50.0838C80.1672 49.7142 80.6187 49.4647 81.1132 49.3724C81.6077 49.2802 82.1188 49.3501 82.5703 49.5718C84.009 50.1196 85.1303 52.0038 85.9546 54.2975C86.4939 54.2395 87.0776 54.1473 87.7057 54.021C88.3405 53.8879 88.914 53.7446 89.426 53.5858C89.2877 51.1436 89.5591 48.9778 90.665 47.9026C90.995 47.5226 91.4387 47.259 91.9303 47.1511C92.4219 47.0432 92.9352 47.0967 93.394 47.3036C93.8329 47.5422 94.1869 47.9113 94.407 48.3598C94.6271 48.8083 94.7025 49.3141 94.6228 49.8073C94.505 50.6879 93.7985 52.6642 89.9585 53.9494C90.3373 58.8082 92.2471 64.7014 92.2778 64.814C92.2974 64.8785 92.2913 64.9481 92.2608 65.0083C92.2303 65.0684 92.1777 65.1144 92.114 65.1366L92.0833 65.1263ZM92.1601 47.6159C91.7319 47.7192 91.3416 47.941 91.0337 48.2559C90.066 49.198 89.8151 51.159 89.938 53.4066C93.522 52.1625 94.034 50.3346 94.1313 49.7254C94.1976 49.3384 94.1421 48.9404 93.9725 48.5863C93.8028 48.2323 93.5273 47.9397 93.1841 47.749C92.8683 47.5878 92.5065 47.5408 92.1601 47.6159ZM81.1213 49.8943C80.7763 49.9588 80.4637 50.1394 80.2356 50.4063C79.9948 50.7169 79.8566 51.0947 79.8401 51.4873C79.8236 51.8799 79.9296 52.268 80.1434 52.5977C80.4557 53.1097 81.6794 54.5894 85.4477 54.3231C84.6746 52.2086 83.6711 50.5087 82.4065 50.0223C81.9945 49.8547 81.5427 49.8103 81.106 49.8943H81.1213Z" fill="white"/>
<path d="M88.0457 32.7524L87.8235 36.5039L88.3346 36.5342L88.5568 32.7827L88.0457 32.7524Z" fill="#F99942"/>
<path d="M92.8852 33.6113L91.699 37.1772L92.1848 37.3389L93.371 33.7729L92.8852 33.6113Z" fill="#F99942"/>
<path d="M97.3282 35.6986L95.2633 38.8385L95.6911 39.1198L97.756 35.9799L97.3282 35.6986Z" fill="#F99942"/>
<path d="M78.7162 63.9709L76.6512 67.1108L77.079 67.3922L79.1439 64.2522L78.7162 63.9709Z" fill="#F99942"/>
<path d="M101.082 38.8479L98.2742 41.3459L98.6145 41.7285L101.422 39.2304L101.082 38.8479Z" fill="#F99942"/>
<path d="M75.7798 61.3529L72.9722 63.851L73.3125 64.2335L76.1202 61.7354L75.7798 61.3529Z" fill="#F99942"/>
<path d="M103.896 42.8779L100.534 44.5687L100.764 45.0261L104.126 43.3353L103.896 42.8779Z" fill="#F99942"/>
<path d="M73.6337 58.0552L70.2717 59.7461L70.5018 60.2035L73.8637 58.5126L73.6337 58.0552Z" fill="#F99942"/>
<path d="M105.573 47.4936L101.887 48.2535L101.991 48.755L105.677 47.9951L105.573 47.4936Z" fill="#F99942"/>
<path d="M72.4108 54.3299L68.7251 55.0898L68.8285 55.5913L72.5142 54.8314L72.4108 54.3299Z" fill="#F99942"/>
<path d="M102.239 52.1666L102.209 52.6777L105.966 52.8983L105.996 52.3872L102.239 52.1666Z" fill="#F99942"/>
<path d="M68.4409 50.1904L68.4109 50.7015L72.1676 50.9221L72.1976 50.411L68.4409 50.1904Z" fill="#F99942"/>
<path d="M101.568 56.0382L101.407 56.524L104.973 57.709L105.134 57.2232L101.568 56.0382Z" fill="#F99942"/>
<path d="M69.431 45.3817L69.2695 45.8676L72.8359 47.0525L72.9973 46.5667L69.431 45.3817Z" fill="#F99942"/>
<path d="M99.9125 59.607L99.6306 60.0344L102.768 62.1032L103.05 61.6757L99.9125 59.607Z" fill="#F99942"/>
<path d="M71.639 40.998L71.3572 41.4254L74.4946 43.4942L74.7764 43.0667L71.639 40.998Z" fill="#F99942"/>
<path d="M74.8928 37.3182L74.5104 37.6587L77.0094 40.4655L77.3918 40.125L74.8928 37.3182Z" fill="#F99942"/>
<path d="M78.9904 34.6175L78.533 34.8474L80.2204 38.2054L80.6778 37.9755L78.9904 34.6175Z" fill="#F99942"/>
<path d="M83.6533 33.077L83.1519 33.1804L83.9118 36.8661L84.4132 36.7627L83.6533 33.077Z" fill="#F99942"/>
</svg>
