<svg width="330" height="330" viewBox="0 0 330 330" fill="none" xmlns="http://www.w3.org/2000/svg">
<path d="M144.619 121.242C145.768 121 146.908 120.745 148.038 120.476C175.904 114.055 207.768 110.332 231.931 121.658C255.618 132.752 252.708 156.268 238.854 177.863C215.141 214.823 125.334 249.896 101.099 212.315C93.2649 200.171 106.769 178.787 97.0533 164.472C85.9917 148.17 34.8021 158.479 45.0321 122.463C50.7015 102.491 65.2479 103.666 80.8767 110.147C89.8461 113.863 98.4129 118.49 107.692 121.631C118.959 125.453 132.106 123.922 144.619 121.242Z" fill="#F99942"/>
<path opacity="0.9" d="M144.619 121.242C145.768 121 146.908 120.745 148.038 120.476C175.904 114.055 207.768 110.332 231.931 121.658C255.618 132.752 252.708 156.268 238.854 177.863C215.141 214.823 125.334 249.896 101.099 212.315C93.2649 200.171 106.769 178.787 97.0533 164.472C85.9917 148.17 34.8021 158.479 45.0321 122.463C50.7015 102.491 65.2479 103.666 80.8767 110.147C89.8461 113.863 98.4129 118.49 107.692 121.631C118.959 125.453 132.106 123.922 144.619 121.242Z" fill="white"/>
<path d="M165 282.189C235.674 282.189 292.967 278.844 292.967 274.718C292.967 270.592 235.674 267.247 165 267.247C94.3252 267.247 37.0322 270.592 37.0322 274.718C37.0322 278.844 94.3252 282.189 165 282.189Z" fill="#F5F5F5"/>
<path d="M83.2334 223.535H168.004V267.3C168.004 267.861 167.893 268.416 167.679 268.934C167.464 269.452 167.15 269.923 166.753 270.319C166.357 270.716 165.886 271.031 165.368 271.245C164.85 271.46 164.294 271.57 163.734 271.57H87.5036C86.9428 271.57 86.3875 271.46 85.8695 271.245C85.3514 271.031 84.8806 270.716 84.4841 270.319C84.0876 269.923 83.773 269.452 83.5584 268.934C83.3439 268.416 83.2334 267.861 83.2334 267.3V223.535Z" fill="#00A688"/>
<path d="M83.2329 223.535H143.22L135.842 214.091C135.03 213.055 133.023 212.216 131.354 212.216H77.4051C75.7419 212.216 75.0423 213.055 75.8541 214.091L83.2329 223.535Z" fill="#00A688"/>
<path opacity="0.2" d="M83.2329 223.535H143.22L135.842 214.091C135.03 213.055 133.023 212.216 131.354 212.216H77.4051C75.7419 212.216 75.0423 213.055 75.8541 214.091L83.2329 223.535Z" fill="black"/>
<path d="M168.003 223.535H108.022L115.401 217.377C116.213 216.717 118.219 216.156 119.889 216.156H173.831C175.501 216.156 176.194 216.704 175.382 217.377L168.003 223.535Z" fill="#00A688"/>
<path opacity="0.2" d="M108.022 223.535H168.003V267.3C168.003 267.861 167.893 268.416 167.678 268.934C167.464 269.452 167.149 269.923 166.753 270.319C166.356 270.716 165.885 271.031 165.367 271.245C164.849 271.46 164.294 271.57 163.733 271.57H112.293C111.732 271.57 111.177 271.46 110.659 271.245C110.14 271.031 109.67 270.716 109.273 270.319C108.877 269.923 108.562 269.452 108.348 268.934C108.133 268.416 108.022 267.861 108.022 267.3V223.535Z" fill="white"/>
<path opacity="0.5" d="M90.6777 223.535V253.552L92.7501 251.915L94.2087 253.552L95.4759 251.731L96.7761 253.552L98.5845 252.186L100.578 253.552V223.535H90.6777Z" fill="white"/>
<path d="M104.095 158.057L93.4355 149.107" stroke="#00A688" stroke-miterlimit="10"/>
<path d="M109.619 162.697L106.372 159.964" stroke="#00A688" stroke-miterlimit="10"/>
<path d="M141.55 181.427L176.715 137.478L129.894 98.1685L98.8742 133.762L94.2542 142.666C94.0248 142.918 93.8501 143.216 93.7409 143.539C93.6316 143.862 93.5903 144.205 93.6194 144.545C93.6485 144.885 93.7475 145.215 93.9101 145.516C94.0727 145.816 94.2954 146.079 94.5644 146.289L136.804 181.757C137.491 182.311 138.362 182.584 139.242 182.523C140.122 182.462 140.946 182.071 141.55 181.427Z" fill="#00A688"/>
<path opacity="0.5" d="M117.433 149.015L112.371 157.166L114.411 157.608L115.103 159.496L116.456 159.575L117.083 161.192L118.74 161.674L120.014 163.7L125.076 155.549L117.433 149.015Z" fill="white"/>
<path opacity="0.1" d="M175.183 136.191L143.649 171.369L98.8545 133.762L129.894 98.1685L175.183 136.191Z" fill="black"/>
<path d="M175.183 136.191L143.648 171.369L156.703 172.333L187.75 136.739L175.183 136.191Z" fill="#00A688"/>
<path opacity="0.3" d="M175.183 136.191L143.648 171.369L156.703 172.333L187.75 136.739L175.183 136.191Z" fill="black"/>
<path d="M117.334 97.614L85.793 132.799L98.8544 133.762L129.894 98.1684L117.334 97.614Z" fill="#00A688"/>
<path opacity="0.4" d="M117.334 97.614L85.793 132.799L98.8544 133.762L129.894 98.1684L117.334 97.614Z" fill="black"/>
<path opacity="0.1" d="M165.475 147.022L175.184 136.191L129.894 98.1685L124.1 112.134L165.475 147.022Z" fill="black"/>
<path opacity="0.2" d="M98.8545 133.762L129.894 98.1685L124.099 112.134L102.24 136.607L98.8545 133.762Z" fill="black"/>
<path d="M186.119 69.9599C186.245 70.3823 186.119 70.7981 185.842 70.8773C185.565 70.9565 185.241 70.6793 185.116 70.2569C184.991 69.8345 185.116 69.4187 185.393 69.3329C185.67 69.2471 186 69.5375 186.119 69.9599Z" fill="#263238"/>
<path d="M186.166 70.7917C186.041 72.2439 185.717 73.672 185.202 75.0355C185.555 75.1579 185.93 75.2018 186.302 75.1642C186.674 75.1266 187.033 75.0084 187.354 74.8177L186.166 70.7917Z" fill="#ED847E"/>
<path d="M186.997 67.142C187.053 67.1097 187.095 67.0581 187.116 66.9968C187.128 66.9648 187.134 66.9306 187.133 66.8963C187.131 66.862 187.123 66.8284 187.108 66.7974C187.093 66.7665 187.072 66.7389 187.046 66.7165C187.02 66.694 186.99 66.6771 186.957 66.6668C186.571 66.5185 186.154 66.4657 185.743 66.5128C185.332 66.5599 184.938 66.7056 184.595 66.9374C184.55 66.9826 184.523 67.0425 184.519 67.1059C184.515 67.1694 184.534 67.2321 184.573 67.2827C184.611 67.3333 184.667 67.3682 184.729 67.3812C184.791 67.3941 184.856 67.3842 184.911 67.3532C185.185 67.1733 185.499 67.0615 185.825 67.0271C186.151 66.9927 186.48 67.0366 186.786 67.1552C186.82 67.1676 186.856 67.1729 186.893 67.1706C186.929 67.1684 186.965 67.1586 186.997 67.142Z" fill="#263238"/>
<path d="M200.798 72.7848C201.088 76.2828 201.953 82.6848 204.018 84.1632C204.018 84.1632 203.53 88.3674 196.098 89.4432C187.954 90.6444 191.61 85.9716 191.61 85.9716C195.894 84.2556 195.293 80.9754 194.066 77.9922L197.207 74.3886C198.415 73.0554 200.639 70.9962 200.798 72.7848Z" fill="#FFC3BD"/>
<path d="M206.679 85.8726C207.339 85.272 206.019 82.8696 205.207 82.533C203.082 81.642 194.39 82.533 191.123 85.338C190.852 85.8021 190.688 86.321 190.643 86.8566C190.599 87.3921 190.675 87.9309 190.865 88.4334L206.679 85.8726Z" fill="white"/>
<path d="M234.359 262.291C234.145 262.389 233.913 262.442 233.677 262.449C233.441 262.456 233.207 262.416 232.987 262.33C232.9 262.262 232.836 262.168 232.804 262.061C232.772 261.955 232.774 261.842 232.808 261.736C232.826 261.65 232.862 261.569 232.915 261.498C232.967 261.427 233.035 261.369 233.112 261.327C233.825 260.911 235.587 261.459 235.66 261.486C235.684 261.492 235.706 261.505 235.722 261.524C235.739 261.543 235.749 261.566 235.752 261.591C235.755 261.617 235.751 261.644 235.739 261.667C235.728 261.691 235.709 261.71 235.686 261.723C235.264 261.957 234.82 262.147 234.359 262.291ZM233.396 261.486L233.244 261.552C233.199 261.576 233.16 261.61 233.129 261.651C233.098 261.692 233.077 261.739 233.066 261.789C233.02 262.027 233.112 262.099 233.138 262.119C233.455 262.344 234.531 262.02 235.277 261.644C234.669 261.453 234.027 261.399 233.396 261.486Z" fill="#00A688"/>
<path d="M235.659 261.73C235.637 261.736 235.614 261.736 235.593 261.73C234.933 261.598 233.553 260.773 233.481 260.152C233.47 260.055 233.494 259.956 233.549 259.874C233.603 259.793 233.684 259.732 233.778 259.703C233.869 259.663 233.968 259.642 234.068 259.642C234.168 259.642 234.267 259.663 234.359 259.703C235.124 260.02 235.718 261.499 235.738 261.558C235.751 261.578 235.758 261.601 235.758 261.624C235.758 261.648 235.751 261.67 235.738 261.69C235.729 261.702 235.717 261.712 235.703 261.719C235.689 261.726 235.674 261.73 235.659 261.73ZM233.943 259.928C233.923 259.922 233.903 259.922 233.883 259.928C233.732 259.994 233.738 260.073 233.745 260.106C233.784 260.476 234.722 261.142 235.388 261.386C235.19 260.957 234.728 260.126 234.26 259.928C234.158 259.889 234.045 259.889 233.943 259.928Z" fill="#00A688"/>
<path d="M195.677 269.379C194.97 269.379 194.291 269.28 194.06 268.963C194.001 268.88 193.969 268.781 193.969 268.679C193.969 268.578 194.001 268.479 194.06 268.396C194.104 268.319 194.163 268.252 194.233 268.199C194.303 268.146 194.383 268.107 194.469 268.086C195.386 267.841 197.313 268.937 197.393 268.983C197.417 268.995 197.437 269.014 197.45 269.038C197.462 269.062 197.467 269.09 197.462 269.117C197.458 269.144 197.445 269.168 197.425 269.187C197.405 269.206 197.38 269.218 197.353 269.221C196.8 269.324 196.239 269.377 195.677 269.379ZM194.805 268.31C194.721 268.307 194.636 268.318 194.555 268.343C194.449 268.366 194.357 268.43 194.297 268.521C194.205 268.686 194.238 268.765 194.297 268.812C194.555 269.168 195.947 269.174 196.937 269.029C196.28 268.654 195.556 268.41 194.805 268.31Z" fill="#00A688"/>
<path d="M197.339 269.227H197.287C196.627 268.93 195.307 267.736 195.406 267.115C195.406 266.97 195.538 266.785 195.894 266.752C196.023 266.738 196.153 266.75 196.277 266.789C196.401 266.828 196.516 266.892 196.613 266.977C197.32 267.551 197.465 269.036 197.471 269.095C197.475 269.118 197.472 269.142 197.463 269.163C197.453 269.184 197.438 269.202 197.419 269.214C197.394 269.227 197.367 269.232 197.339 269.227ZM196.019 266.997H195.94C195.703 266.997 195.689 267.115 195.683 267.142C195.623 267.518 196.521 268.462 197.194 268.864C197.137 268.235 196.883 267.639 196.468 267.162C196.345 267.052 196.184 266.994 196.019 266.997Z" fill="#00A688"/>
<path d="M203.399 269.095H197.888L197.34 256.344H202.851L203.399 269.095Z" fill="#FFC3BD"/>
<path d="M242.108 260.39L237.032 262.139L231.766 250.12L236.841 248.371L242.108 260.39Z" fill="#FFC3BD"/>
<path d="M235.824 260.878L241.764 259.063C241.869 259.031 241.982 259.036 242.084 259.076C242.186 259.117 242.271 259.192 242.325 259.288L244.8 263.644C244.86 263.75 244.894 263.869 244.902 263.99C244.909 264.112 244.889 264.234 244.842 264.347C244.796 264.46 244.725 264.561 244.634 264.642C244.544 264.724 244.436 264.784 244.318 264.818C242.239 265.419 241.203 265.604 238.603 266.402C236.999 266.891 232.96 268.422 230.683 268.877C228.406 269.333 227.673 267.155 228.558 266.765C232.518 265.016 234.141 263.03 235.085 261.485C235.25 261.2 235.512 260.984 235.824 260.878Z" fill="#263238"/>
<path d="M197.927 268.455H203.94C204.048 268.457 204.154 268.494 204.239 268.563C204.323 268.631 204.383 268.725 204.408 268.831L205.497 273.728C205.524 273.847 205.524 273.969 205.497 274.087C205.469 274.205 205.415 274.316 205.339 274.41C205.263 274.504 205.166 274.579 205.056 274.631C204.946 274.682 204.826 274.707 204.705 274.705C202.534 274.672 199.425 274.54 196.673 274.54C193.485 274.54 192.145 274.718 188.403 274.718C186.146 274.718 185.519 272.435 186.463 272.224C190.773 271.28 192.878 271.181 196.6 268.884C196.995 268.623 197.454 268.474 197.927 268.455Z" fill="#263238"/>
<path d="M213.932 87.6743C215.536 89.1461 216.922 90.6179 218.36 92.1557C219.799 93.6935 221.132 95.2841 222.426 96.9803C223.777 98.7035 225.003 100.521 226.096 102.419C226.692 103.465 227.209 104.555 227.64 105.679C227.752 105.989 227.864 106.286 227.957 106.623C228.065 106.963 228.155 107.309 228.227 107.659L228.34 108.207L228.419 108.814C228.493 109.37 228.493 109.934 228.419 110.491C228.267 111.541 227.879 112.543 227.284 113.421C226.849 114.062 226.339 114.649 225.766 115.17C224.843 116.007 223.834 116.744 222.756 117.368C220.857 118.454 218.87 119.379 216.816 120.133C212.92 121.579 208.905 122.684 204.817 123.433L203.662 119.473C207.246 117.922 210.876 116.246 214.222 114.457C215.851 113.603 217.419 112.637 218.915 111.566C219.538 111.124 220.111 110.615 220.624 110.048C220.78 109.881 220.911 109.692 221.014 109.487C221.066 109.375 221.014 109.388 220.948 109.626C220.901 110.068 220.908 109.725 220.802 109.487C220.769 109.375 220.71 109.223 220.651 109.078C220.591 108.933 220.519 108.768 220.446 108.61C220.088 107.89 219.689 107.191 219.251 106.517C218.232 105.004 217.13 103.547 215.951 102.155C214.737 100.716 213.457 99.2837 212.143 97.8779C210.83 96.4721 209.45 95.0531 208.183 93.7463L213.932 87.6743Z" fill="#FFC3BD"/>
<path d="M205.174 118.846L199.979 120.417L203.319 125.908C203.319 125.908 206.388 124.641 207.068 122.034L205.174 118.846Z" fill="#FFC3BD"/>
<path d="M197.881 122.364L199.927 126.892L203.286 125.915L199.947 120.417L197.881 122.364Z" fill="#FFC3BD"/>
<path d="M201.762 89.1661C201.267 94.4461 212.434 102.617 212.434 102.617L223.186 95.2579C221.319 91.8147 218.59 88.9151 215.266 86.8429C209.101 82.8961 202.382 82.6057 201.762 89.1661Z" fill="#00A688"/>
<g opacity="0.3">
<path opacity="0.3" d="M201.762 89.1661C201.267 94.4461 212.434 102.617 212.434 102.617L223.186 95.2579C221.319 91.8147 218.59 88.9151 215.266 86.8429C209.101 82.8961 202.382 82.6057 201.762 89.1661Z" fill="white"/>
</g>
<path d="M183.479 88.7437C183.479 88.7437 178.654 96.1489 190.112 135.868L219.244 131.565C218.835 127.539 213.964 109.976 213.799 90.7765C213.793 89.8493 213.598 88.9331 213.228 88.0832C212.857 87.2333 212.318 86.4673 211.643 85.8314C210.968 85.1955 210.172 84.7028 209.301 84.3833C208.431 84.0637 207.505 83.9237 206.579 83.9719C205.734 84.0181 204.863 84.0775 203.998 84.1633C199.84 84.5341 195.705 85.1445 191.617 85.9915C188.838 86.6986 186.117 87.6188 183.479 88.7437Z" fill="#00A688"/>
<g opacity="0.3">
<path opacity="0.3" d="M183.479 88.7437C183.479 88.7437 178.654 96.1489 190.112 135.868L219.244 131.565C218.835 127.539 213.964 109.976 213.799 90.7765C213.793 89.8493 213.598 88.9331 213.228 88.0832C212.857 87.2333 212.318 86.4673 211.643 85.8314C210.968 85.1955 210.172 84.7028 209.301 84.3833C208.431 84.0637 207.505 83.9237 206.579 83.9719C205.734 84.0181 204.863 84.0775 203.998 84.1633C199.84 84.5341 195.705 85.1445 191.617 85.9915C188.838 86.6986 186.117 87.6188 183.479 88.7437Z" fill="white"/>
</g>
<path opacity="0.2" d="M182.767 101.508L182.866 101.396L189.716 102.003C190.759 106.425 186.944 112.457 184.931 115.256C183.962 110.716 183.24 106.126 182.767 101.508Z" fill="black"/>
<path opacity="0.2" d="M197.34 256.351L197.624 262.924H203.135L202.851 256.351H197.34Z" fill="black"/>
<path opacity="0.2" d="M236.841 248.371L231.766 250.12L234.485 256.318L239.56 254.569L236.841 248.371Z" fill="black"/>
<path d="M200.078 64.8912C201.293 70.2174 202.269 73.2732 200.415 76.7712C197.63 81.9786 190.462 81.477 187.683 76.6194C185.182 72.2436 183.611 64.2708 188.126 60.6804C189.115 59.8861 190.29 59.3572 191.541 59.144C192.792 58.9307 194.076 59.04 195.273 59.4616C196.47 59.8832 197.539 60.603 198.38 61.5531C199.221 62.5032 199.805 63.6522 200.078 64.8912Z" fill="#FFC3BD"/>
<path d="M189.38 70.1118L187.354 71.3526L187.546 64.4226C186.239 64.4787 184.95 64.1055 183.876 63.36C184.609 62.6604 196.013 58.6674 199.571 59.3604C199.94 59.2086 200.389 58.5222 200.389 58.5222C200.389 58.5222 200.528 59.3868 199.927 59.7168C200.363 59.631 201.452 59.8422 201.755 60.4824C201.256 60.346 200.725 60.3761 200.244 60.5682C200.244 60.5682 204.204 61.1688 202.798 66.66C201.221 72.7122 201.742 76.1904 201.742 76.1904C201.742 76.1904 198.799 78.4674 196.238 78.045C193.505 75.0354 189.559 71.4186 189.38 70.1118Z" fill="#263238"/>
<path d="M185.499 62.8122C182.285 62.8122 181.13 61.2414 180.305 59.9214C182.615 59.6772 187.426 58.1922 190.997 57.9414C194.567 57.6906 198.481 58.3572 197.3 59.9214C196.118 61.4856 185.499 62.8122 185.499 62.8122Z" fill="#263238"/>
<path d="M186.206 61.3801C183.566 61.0105 180.992 58.5222 182.972 56.1396C183.704 57.8886 188.648 57.6841 192.159 56.9515C196.779 55.9879 199.98 57.5454 198.343 60.6937C197.446 62.4163 186.206 61.3801 186.206 61.3801Z" fill="#263238"/>
<path d="M192.231 68.5345C192.609 69.8377 192.549 71.2289 192.059 72.4945C191.399 74.1511 189.934 73.8145 189.169 72.3823C188.509 71.0623 188.007 68.6665 189.129 67.4719C190.251 66.2773 191.756 66.9703 192.231 68.5345Z" fill="#FFC3BD"/>
<path d="M200.448 134.343C200.448 134.343 205.174 174.57 208.606 190.331C212.361 207.596 230.887 254.668 230.887 254.668L240.127 251.473C240.127 251.473 228.247 216.031 225.093 191.895C222.67 173.362 219.219 131.564 219.219 131.564L200.448 134.343Z" fill="#263238"/>
<path d="M228.524 251.711C228.478 251.711 230.418 255.671 230.418 255.671L241.209 252.166L239.942 248.945L228.524 251.711Z" fill="#00A688"/>
<path opacity="0.3" d="M203.056 154.981C204.534 166.162 206.428 179.401 208.091 187.856C210.54 174.9 211.114 158.539 203.056 154.981Z" fill="black"/>
<path d="M190.113 135.868C190.113 135.868 186.192 173.659 186.813 190.45C187.433 207.913 195.591 261.65 195.591 261.65H204.916C204.916 261.65 203.2 208.93 203.596 191.783C204.052 173.085 211.061 132.772 211.061 132.772L190.113 135.868Z" fill="#263238"/>
<path d="M193.775 257.935C193.736 257.935 194.303 261.802 194.303 261.802H205.649L205.959 258.35L193.775 257.935Z" fill="#00A688"/>
<path d="M188.304 98.0232C187.274 99.66 186.232 101.132 185.149 102.643C184.067 104.155 182.932 105.613 181.777 107.065C179.422 110.011 176.871 112.793 174.14 115.394C173.401 116.054 172.721 116.714 171.923 117.315L171.342 117.784L171.052 118.015C170.946 118.1 170.9 118.147 170.682 118.305C170.028 118.771 169.31 119.14 168.55 119.401C167.374 119.802 166.143 120.025 164.9 120.061C163.849 120.096 162.797 120.05 161.752 119.922C157.935 119.421 154.211 118.368 150.697 116.794L151.839 112.834C155.216 113.234 158.617 113.397 162.016 113.322C162.768 113.283 163.517 113.201 164.26 113.078C164.82 112.996 165.363 112.827 165.871 112.576C166.029 112.49 166.115 112.405 166.095 112.385C166.075 112.365 166.181 112.299 166.24 112.24L166.465 112.035L166.907 111.619C167.501 111.091 168.062 110.451 168.643 109.87C169.784 108.643 170.92 107.382 171.995 106.042C173.071 104.702 174.16 103.356 175.216 101.97C176.272 100.584 177.295 99.1782 178.325 97.7724C179.354 96.3666 180.358 94.8882 181.308 93.522L188.304 98.0232Z" fill="#FFC3BD"/>
<path d="M192.139 96.2743C194.357 103.534 181.48 111.58 181.48 111.58L173.111 100.921C174.998 97.4061 177.327 94.1478 180.041 91.2253C185.737 85.0279 190.45 90.7501 192.139 96.2743Z" fill="#00A688"/>
<g opacity="0.3">
<path opacity="0.3" d="M192.139 96.2743C194.357 103.534 181.48 111.58 181.48 111.58L173.111 100.921C174.998 97.4061 177.327 94.1478 180.041 91.2253C185.737 85.0279 190.45 90.7501 192.139 96.2743Z" fill="white"/>
</g>
<path d="M153.779 113.078L147.001 111.837L147.714 117.698C147.714 117.698 151.238 119.678 153.792 116.583L153.779 113.078Z" fill="#FFC3BD"/>
<path d="M144.388 113.157L145.853 117.388L147.701 117.698L146.988 111.837L144.388 113.157Z" fill="#FFC3BD"/>
</svg>
