<svg width="256" height="256" viewBox="0 0 256 256" fill="none" xmlns="http://www.w3.org/2000/svg">
<path d="M256 195.789H0V195.917H256V195.789Z" fill="#EBEBEB"/>
<path d="M230.349 204.027H213.391V204.155H230.349V204.027Z" fill="#EBEBEB"/>
<path d="M169.585 205.42H165.135V205.547H169.585V205.42Z" fill="#EBEBEB"/>
<path d="M212.879 199.275H203.054V199.403H212.879V199.275Z" fill="#EBEBEB"/>
<path d="M48.9728 200.136H26.8595V200.264H48.9728V200.136Z" fill="#EBEBEB"/>
<path d="M56.7756 200.136H53.5347V200.264H56.7756V200.136Z" fill="#EBEBEB"/>
<path d="M115.277 202.296H67.3126V202.424H115.277V202.296Z" fill="#EBEBEB"/>
<path d="M60.6003 69.2378C68.4585 69.2378 74.8288 62.8675 74.8288 55.0093C74.8288 47.1511 68.4585 40.7808 60.6003 40.7808C52.7421 40.7808 46.3718 47.1511 46.3718 55.0093C46.3718 62.8675 52.7421 69.2378 60.6003 69.2378Z" fill="#FEEBD9"/>
<path d="M53.2173 54.8454C53.2173 54.1895 52.9568 53.5605 52.493 53.0968C52.0292 52.633 51.4002 52.3725 50.7444 52.3725C50.5047 52.3715 50.2663 52.4078 50.0378 52.48C50.0748 52.2273 50.0936 51.9724 50.0941 51.7171C50.0941 50.3279 49.5423 48.9957 48.56 48.0134C47.5777 47.0312 46.2455 46.4793 44.8563 46.4793C44.5317 46.4811 44.2078 46.5119 43.8887 46.5715C43.3742 45.721 42.5965 45.0614 41.6735 44.6925C40.7505 44.3236 39.7324 44.2655 38.7734 44.5271C37.8145 44.7887 36.9669 45.3557 36.359 46.1422C35.7512 46.9286 35.4162 47.8918 35.4048 48.8857H35.328C34.2064 48.8857 33.1307 49.3313 32.3376 50.1244C31.5444 50.9175 31.0989 51.9932 31.0989 53.1149C31.0989 54.2365 31.5444 55.3122 32.3376 56.1053C33.1307 56.8984 34.2064 57.344 35.328 57.344H50.816C51.4634 57.3239 52.0772 57.0512 52.526 56.5842C52.9749 56.1172 53.223 55.4931 53.2173 54.8454Z" fill="#F5F5F5"/>
<path d="M180.147 66.304C180.146 65.9185 180.056 65.5386 179.883 65.1943C179.709 64.85 179.458 64.5509 179.149 64.3208C178.84 64.0907 178.481 63.9358 178.102 63.8685C177.722 63.8013 177.332 63.8235 176.963 63.9334C177.073 63.1893 177.022 62.43 176.812 61.7076C176.602 60.9851 176.239 60.3165 175.747 59.7473C175.255 59.1781 174.646 58.7218 173.962 58.4095C173.277 58.0972 172.533 57.9364 171.781 57.9379C171.458 57.9374 171.136 57.9682 170.819 58.03C170.303 57.1809 169.525 56.5226 168.602 56.1546C167.679 55.7866 166.661 55.7289 165.703 55.9903C164.744 56.2516 163.896 56.8177 163.288 57.6032C162.679 58.3887 162.343 59.3508 162.33 60.3443H162.253C161.699 60.3443 161.15 60.4534 160.638 60.6654C160.126 60.8774 159.661 61.1882 159.27 61.58C158.878 61.9717 158.567 62.4368 158.355 62.9487C158.143 63.4605 158.034 64.0091 158.034 64.5632C158.034 65.1172 158.143 65.6658 158.355 66.1777C158.567 66.6895 158.878 67.1546 159.27 67.5464C159.661 67.9381 160.126 68.2489 160.638 68.4609C161.15 68.6729 161.699 68.782 162.253 68.782H177.741C178.386 68.766 179 68.4975 179.45 68.0342C179.9 67.5709 180.15 66.9497 180.147 66.304Z" fill="#F5F5F5"/>
<path d="M110.397 50.304C110.397 49.6481 110.658 49.0191 111.122 48.5553C111.586 48.0916 112.215 47.831 112.87 47.831C113.11 47.83 113.348 47.8663 113.577 47.9385C113.54 47.6859 113.521 47.431 113.521 47.1756C113.521 46.4857 113.657 45.8025 113.922 45.1653C114.187 44.5282 114.575 43.9496 115.064 43.4629C115.553 42.9762 116.133 42.5909 116.772 42.3292C117.41 42.0675 118.094 41.9345 118.784 41.9379C119.109 41.9397 119.433 41.9705 119.752 42.03C120.268 41.1809 121.046 40.5226 121.969 40.1546C122.892 39.7866 123.909 39.7289 124.868 39.9903C125.826 40.2516 126.674 40.8177 127.282 41.6032C127.891 42.3887 128.227 43.3508 128.241 44.3443H128.312C129.431 44.3443 130.504 44.7888 131.296 45.58C132.087 46.3712 132.531 47.4443 132.531 48.5632C132.531 49.6821 132.087 50.7552 131.296 51.5464C130.504 52.3376 129.431 52.782 128.312 52.782H112.799C112.154 52.7647 111.542 52.4956 111.093 52.0325C110.644 51.5693 110.395 50.9489 110.397 50.304Z" fill="#F5F5F5"/>
<path d="M84.2497 62.2541C84.2494 62.0149 84.1932 61.7791 84.0856 61.5655C83.9781 61.3518 83.8221 61.1663 83.6302 61.0236C83.4382 60.8809 83.2156 60.7849 82.98 60.7435C82.7445 60.702 82.5025 60.7161 82.2733 60.7847C82.2956 60.6286 82.3076 60.4712 82.3092 60.3136C82.3092 59.886 82.225 59.4626 82.0613 59.0675C81.8977 58.6724 81.6578 58.3134 81.3554 58.0111C81.0531 57.7087 80.6941 57.4688 80.299 57.3052C79.9039 57.1415 79.4805 57.0573 79.0529 57.0573C78.8502 57.0578 78.648 57.0767 78.4487 57.1136C78.1291 56.5846 77.6457 56.1742 77.0718 55.9447C76.4979 55.7151 75.8649 55.679 75.2686 55.8416C74.6723 56.0043 74.1453 56.357 73.7676 56.8461C73.3898 57.3353 73.1817 57.9343 73.1751 58.5523H73.129C72.7746 58.5367 72.4208 58.593 72.0888 58.7178C71.7568 58.8426 71.4535 59.0333 71.1972 59.2785C70.941 59.5237 70.737 59.8183 70.5977 60.1445C70.4583 60.4706 70.3865 60.8217 70.3865 61.1763C70.3865 61.531 70.4583 61.882 70.5977 62.2082C70.737 62.5344 70.941 62.8289 71.1972 63.0741C71.4535 63.3193 71.7568 63.5101 72.0888 63.6349C72.4208 63.7597 72.7746 63.816 73.129 63.8003H82.7598C83.1609 63.7883 83.5413 63.6198 83.8198 63.3308C84.0982 63.0418 84.2525 62.6554 84.2497 62.2541Z" fill="#F5F5F5"/>
<path d="M90.5062 89.1341C90.5062 88.7267 90.6681 88.336 90.9561 88.048C91.2442 87.7599 91.6349 87.5981 92.0422 87.5981C92.1912 87.5971 92.3395 87.6178 92.4825 87.6595C92.462 87.5034 92.4517 87.346 92.4518 87.1885C92.4518 86.7609 92.536 86.3374 92.6997 85.9423C92.8633 85.5473 93.1032 85.1883 93.4056 84.8859C93.708 84.5835 94.0669 84.3437 94.462 84.18C94.8571 84.0164 95.2805 83.9322 95.7081 83.9322C95.9091 83.9327 96.1096 83.9515 96.3072 83.9885C96.6268 83.4595 97.1102 83.0491 97.684 82.8196C98.2579 82.59 98.891 82.5538 99.4872 82.7165C100.084 82.8792 100.61 83.2318 100.988 83.721C101.366 84.2102 101.574 84.8092 101.581 85.4272H101.632C102.327 85.4272 102.994 85.7034 103.486 86.195C103.977 86.6866 104.253 87.3534 104.253 88.0486C104.253 88.7439 103.977 89.4107 103.486 89.9023C102.994 90.3939 102.327 90.6701 101.632 90.6701H92.0013C91.601 90.6594 91.2208 90.4929 90.9415 90.206C90.6623 89.9191 90.5061 89.5344 90.5062 89.1341Z" fill="#F5F5F5"/>
<path d="M198.917 88.0896C198.917 87.6823 199.079 87.2916 199.367 87.0035C199.655 86.7155 200.046 86.5536 200.453 86.5536C200.604 86.5549 200.754 86.5773 200.898 86.6202C200.874 86.4644 200.862 86.3069 200.863 86.1491C200.863 85.2855 201.206 84.4573 201.816 83.8466C202.427 83.2359 203.255 82.8928 204.119 82.8928C204.32 82.8908 204.521 82.9096 204.718 82.9491C205.039 82.4214 205.523 82.0124 206.097 81.7837C206.67 81.5551 207.303 81.5193 207.899 81.6817C208.495 81.8441 209.022 82.196 209.4 82.6841C209.779 83.1723 209.988 83.7703 209.997 84.3879H210.043C210.719 84.4177 211.357 84.7072 211.825 85.1961C212.292 85.6849 212.553 86.3353 212.553 87.0119C212.553 87.6884 212.292 88.3388 211.825 88.8277C211.357 89.3165 210.719 89.606 210.043 89.6359H200.412C200.01 89.6251 199.628 89.4572 199.349 89.1681C199.069 88.879 198.914 88.4918 198.917 88.0896Z" fill="#F5F5F5"/>
<path d="M82.857 102.42H78.6534V195.062H82.857V102.42Z" fill="#F5F5F5"/>
<path d="M47.017 102.42H42.8135V195.062H47.017V102.42Z" fill="#F5F5F5"/>
<path d="M108.457 126.106H104.253V195.062H108.457V126.106Z" fill="#E6E6E6"/>
<path d="M72.617 126.106H68.4135V195.062H72.617V126.106Z" fill="#E6E6E6"/>
<path d="M63.273 115.062H30.9453L18.5447 88.2432H50.8724L63.273 115.062Z" fill="#F5F5F5"/>
<path d="M57.2211 101.97H24.8934L24.5964 101.335H56.9241L57.2211 101.97Z" fill="#FAFAFA"/>
<path d="M36.7053 115.062H35.9373L23.5366 88.2432H24.3046L36.7053 115.062Z" fill="#FAFAFA"/>
<path d="M42.0966 115.062H41.3286L28.9331 88.2432H29.7011L42.0966 115.062Z" fill="#FAFAFA"/>
<path d="M47.4931 115.062H46.7251L34.3245 88.2432H35.0925L47.4931 115.062Z" fill="#FAFAFA"/>
<path d="M52.8845 115.062H52.1165L39.7158 88.2432H40.4838L52.8845 115.062Z" fill="#FAFAFA"/>
<path d="M58.2758 115.062H57.5078L45.1123 88.2432H45.8803L58.2758 115.062Z" fill="#FAFAFA"/>
<path d="M97.3773 115.062H72.1101L62.418 94.1005H87.6903L97.3773 115.062Z" fill="#F5F5F5"/>
<path d="M92.6515 104.832H67.3792L67.1488 104.33H92.4211L92.6515 104.832Z" fill="#FAFAFA"/>
<path d="M76.6157 115.062H76.0166L66.3245 94.1005H66.9235L76.6157 115.062Z" fill="#FAFAFA"/>
<path d="M80.8294 115.062H80.2303L70.5382 94.1005H71.1372L80.8294 115.062Z" fill="#FAFAFA"/>
<path d="M85.0431 115.062H84.4441L74.752 94.1005H75.3561L85.0431 115.062Z" fill="#FAFAFA"/>
<path d="M89.2621 115.062H88.658L78.9709 94.1005H79.57L89.2621 115.062Z" fill="#FAFAFA"/>
<path d="M93.4759 115.062H92.8769L83.1847 94.1005H83.7837L93.4759 115.062Z" fill="#FAFAFA"/>
<path d="M90.7777 134.508H58.45L46.0544 107.694H78.3821L90.7777 134.508Z" fill="#EBEBEB"/>
<path d="M84.7257 121.421H52.398L52.1062 120.781H84.4339L84.7257 121.421Z" fill="#F5F5F5"/>
<path d="M64.215 134.508H63.447L51.0464 107.694H51.8144L64.215 134.508Z" fill="#F5F5F5"/>
<path d="M69.6064 134.508H68.8384L56.4377 107.694H57.2057L69.6064 134.508Z" fill="#F5F5F5"/>
<path d="M74.9978 134.508H74.2298L61.8342 107.694H62.6022L74.9978 134.508Z" fill="#F5F5F5"/>
<path d="M80.3942 134.508H79.6262L67.2256 107.694H67.9936L80.3942 134.508Z" fill="#F5F5F5"/>
<path d="M85.7856 134.508H85.0176L72.6169 107.694H73.3849L85.7856 134.508Z" fill="#F5F5F5"/>
<path d="M123.658 134.507H98.391L88.6989 113.546H113.966L123.658 134.507Z" fill="#EBEBEB"/>
<path d="M118.927 124.278H93.6602L93.4298 123.781H118.697L118.927 124.278Z" fill="#F5F5F5"/>
<path d="M102.897 134.507H102.293L92.6055 113.551H93.2045L102.897 134.507Z" fill="#F5F5F5"/>
<path d="M107.11 134.507H106.511L96.8192 113.551H97.4183L107.11 134.507Z" fill="#F5F5F5"/>
<path d="M111.324 134.507H110.725L101.033 113.551H101.632L111.324 134.507Z" fill="#F5F5F5"/>
<path d="M115.543 134.507H114.939L105.247 113.551H105.851L115.543 134.507Z" fill="#F5F5F5"/>
<path d="M119.757 134.507H119.158L109.466 113.551H110.065L119.757 134.507Z" fill="#F5F5F5"/>
<path d="M153.421 195.072L152.601 73.4413C152.599 73.0669 152.448 72.7088 152.183 72.445C151.917 72.1813 151.558 72.0333 151.183 72.0333C150.809 72.0333 150.45 72.1813 150.184 72.445C149.918 72.7088 149.768 73.0669 149.765 73.4413L148.941 195.072H153.421Z" fill="#F5F5F5"/>
<path d="M149.944 78.5408L136.755 95.6621C136.71 95.7191 136.677 95.7844 136.658 95.8542C136.639 95.924 136.633 95.997 136.642 96.0689C136.652 96.1409 136.675 96.2102 136.711 96.2731C136.747 96.336 136.795 96.3911 136.853 96.4352C136.961 96.5185 137.096 96.5588 137.232 96.5484C137.368 96.538 137.496 96.4776 137.59 96.3789L150.902 82.4422L150.195 80.7936L151.219 79.4982L149.944 78.5408Z" fill="#F0F0F0"/>
<path d="M151.183 79.4983L142.858 59.5303C142.802 59.3954 142.694 59.2883 142.559 59.2327C142.423 59.177 142.271 59.1773 142.136 59.2333C142.011 59.2877 141.91 59.3859 141.853 59.5095C141.795 59.6331 141.785 59.7734 141.824 59.9041L147.333 78.336L149.115 78.546L149.745 80.0564L151.183 79.4983Z" fill="#F0F0F0"/>
<path d="M149.781 80.0973L171.285 82.3603C171.358 82.3681 171.433 82.3609 171.504 82.3391C171.575 82.3174 171.641 82.2815 171.698 82.2337C171.755 82.1859 171.801 82.1272 171.835 82.061C171.869 81.9948 171.889 81.9224 171.894 81.8483C171.908 81.7124 171.872 81.5759 171.791 81.4652C171.711 81.3546 171.592 81.2777 171.459 81.2493L152.627 77.2301L151.603 78.6944L149.97 78.5203L149.781 80.0973Z" fill="#F0F0F0"/>
<path d="M184.049 195.072L183.137 59.9041C183.135 59.4876 182.967 59.0891 182.672 58.7956C182.376 58.5021 181.977 58.3373 181.56 58.3373C181.144 58.3373 180.744 58.5021 180.449 58.7956C180.153 59.0891 179.986 59.4876 179.983 59.9041L179.072 195.072H184.049Z" fill="#F5F5F5"/>
<path d="M180.183 65.5975L165.53 84.6183C165.48 84.682 165.443 84.7548 165.422 84.8327C165.401 84.9106 165.396 84.9919 165.406 85.0719C165.417 85.152 165.443 85.2291 165.483 85.2989C165.524 85.3687 165.578 85.4297 165.642 85.4784C165.762 85.5701 165.912 85.6141 166.062 85.6018C166.212 85.5895 166.353 85.5218 166.456 85.4119L181.248 69.929L180.449 68.096L181.56 66.6522L180.183 65.5975Z" fill="#EBEBEB"/>
<path d="M181.56 66.6574L172.314 44.498C172.25 44.348 172.13 44.229 171.98 44.1667C171.83 44.1045 171.661 44.1039 171.51 44.1652C171.37 44.2234 171.256 44.3315 171.191 44.4686C171.125 44.6057 171.113 44.7621 171.157 44.9076L177.275 65.4132L179.256 65.6436L179.958 67.323L181.56 66.6574Z" fill="#EBEBEB"/>
<path d="M180.004 67.3228L203.884 69.8367C203.963 69.8452 204.044 69.838 204.121 69.8153C204.198 69.7926 204.269 69.755 204.332 69.7045C204.394 69.6541 204.446 69.5919 204.484 69.5215C204.522 69.451 204.546 69.3737 204.554 69.294C204.57 69.1432 204.53 68.9919 204.441 68.869C204.352 68.7461 204.221 68.6604 204.073 68.6284L183.148 64.1587L181.996 65.7868L180.183 65.5974L180.004 67.3228Z" fill="#EBEBEB"/>
<path d="M214.666 195.072L213.642 44.9127C213.64 44.45 213.454 44.0073 213.126 43.6811C212.798 43.3549 212.354 43.1719 211.891 43.1719C211.429 43.1719 210.985 43.3549 210.657 43.6811C210.329 44.0073 210.143 44.45 210.14 44.9127L209.116 195.072H214.666Z" fill="#F0F0F0"/>
<path d="M210.371 51.2L194.089 72.3353C193.979 72.4789 193.931 72.6601 193.954 72.8393C193.977 73.0186 194.069 73.1816 194.212 73.2928C194.345 73.3946 194.511 73.4435 194.679 73.4303C194.846 73.4171 195.002 73.3426 195.118 73.2211L211.533 56.0179L210.662 53.9699L211.901 52.3622L210.371 51.2Z" fill="#E6E6E6"/>
<path d="M211.901 52.3879L201.626 27.7658C201.591 27.6828 201.54 27.6076 201.476 27.5443C201.412 27.4811 201.337 27.4312 201.253 27.3974C201.17 27.3636 201.081 27.3466 200.991 27.3474C200.901 27.3483 200.812 27.3669 200.73 27.4022C200.575 27.4682 200.45 27.5885 200.378 27.7404C200.307 27.8924 200.293 28.0654 200.341 28.2266L207.14 51.0106L209.336 51.2615L210.12 53.1303L211.901 52.3879Z" fill="#E6E6E6"/>
<path d="M210.171 53.1302L236.703 55.9258C236.792 55.9357 236.882 55.9277 236.968 55.9023C237.054 55.8769 237.135 55.8346 237.204 55.7779C237.274 55.7212 237.331 55.6512 237.374 55.572C237.416 55.4927 237.442 55.4059 237.45 55.3165C237.468 55.1526 237.426 54.9879 237.332 54.8525C237.238 54.7171 237.098 54.6201 236.938 54.5792L213.683 49.6179L212.408 51.4202L210.391 51.2102L210.171 53.1302Z" fill="#E6E6E6"/>
<path d="M128 218.911C182.826 218.911 227.272 216.316 227.272 213.115C227.272 209.914 182.826 207.319 128 207.319C73.1738 207.319 28.7284 209.914 28.7284 213.115C28.7284 216.316 73.1738 218.911 128 218.911Z" fill="#F5F5F5"/>
<path d="M211.492 203.95C211.649 185.529 210.597 167.117 208.343 148.833C206.049 130.959 208.251 122.619 208.251 122.619L209.485 122.854C209.485 122.854 207.483 129.556 211.492 157.097C213.629 172.43 214.847 187.878 215.137 203.356L211.492 203.95Z" fill="#00A688"/>
<path d="M209.536 154.793C212.887 151.588 215.227 147.474 216.269 142.956H217.088C217.088 142.956 215.276 151.818 210.294 156.324L209.536 154.793Z" fill="#00A688"/>
<path d="M201.411 153.364C201.411 153.364 207.524 166.098 212.199 168.1V170.015C212.199 170.015 205.005 164.383 201.052 153.743L201.411 153.364Z" fill="#00A688"/>
<path d="M208.548 141.87C208.548 141.87 205.737 135.644 198.011 131.907L197.596 132.654C197.596 132.654 203.489 134.595 208.599 145.833L208.548 141.87Z" fill="#00A688"/>
<path d="M208.538 134.574C208.538 134.574 210.724 130.12 218.045 125.788L218.409 126.142C218.409 126.142 210.263 132.173 208.594 138.394L208.538 134.574Z" fill="#00A688"/>
<g opacity="0.4">
<path opacity="0.4" d="M211.492 203.95C211.649 185.529 210.597 167.117 208.343 148.833C206.049 130.959 208.251 122.619 208.251 122.619L209.485 122.854C209.485 122.854 207.483 129.556 211.492 157.097C213.629 172.43 214.847 187.878 215.137 203.356L211.492 203.95Z" fill="white"/>
<path opacity="0.4" d="M209.536 154.793C212.887 151.588 215.227 147.474 216.269 142.956H217.088C217.088 142.956 215.276 151.818 210.294 156.324L209.536 154.793Z" fill="white"/>
<path opacity="0.4" d="M201.411 153.364C201.411 153.364 207.524 166.098 212.199 168.1V170.015C212.199 170.015 205.005 164.383 201.052 153.743L201.411 153.364Z" fill="white"/>
<path opacity="0.4" d="M208.548 141.87C208.548 141.87 205.737 135.644 198.011 131.907L197.596 132.654C197.596 132.654 203.489 134.595 208.599 145.833L208.548 141.87Z" fill="white"/>
<path opacity="0.4" d="M208.538 134.574C208.538 134.574 210.724 130.12 218.045 125.788L218.409 126.142C218.409 126.142 210.263 132.173 208.594 138.394L208.538 134.574Z" fill="white"/>
</g>
<path d="M210.749 116.838C210.749 116.838 213.309 122.819 208.655 124.672C208.655 124.672 205.076 120.689 210.749 116.838Z" fill="#00A688"/>
<path opacity="0.1" d="M210.749 116.838C210.749 116.838 213.309 122.819 208.655 124.672C208.655 124.672 205.076 120.689 210.749 116.838Z" fill="white"/>
<path d="M222.561 123.868C222.561 123.868 220.447 129.28 216.325 127.534C216.325 127.534 216.545 122.757 222.561 123.868Z" fill="#00A688"/>
<path opacity="0.1" d="M222.561 123.868C222.561 123.868 220.447 129.28 216.325 127.534C216.325 127.534 216.545 122.757 222.561 123.868Z" fill="white"/>
<path d="M194.145 128.318C194.145 128.318 199.444 128.947 198.856 133.013C198.856 133.013 194.56 133.924 194.145 128.318Z" fill="#00A688"/>
<path opacity="0.1" d="M194.145 128.318C194.145 128.318 199.444 128.947 198.856 133.013C198.856 133.013 194.56 133.924 194.145 128.318Z" fill="white"/>
<path d="M201.728 150.584C201.728 150.584 205.271 153.549 202.916 156.216C202.906 156.216 199.358 154.839 201.728 150.584Z" fill="#00A688"/>
<path opacity="0.1" d="M201.728 150.584C201.728 150.584 205.271 153.549 202.916 156.216C202.906 156.216 199.358 154.839 201.728 150.584Z" fill="white"/>
<path d="M221.87 140.559C221.87 140.559 219.884 145.644 216.008 144.005C216.008 144.005 216.218 139.52 221.87 140.559Z" fill="#00A688"/>
<path opacity="0.1" d="M221.87 140.559C221.87 140.559 219.884 145.644 216.008 144.005C216.008 144.005 216.218 139.52 221.87 140.559Z" fill="white"/>
<path d="M215.798 122.322C215.798 122.322 213.105 128.246 208.599 126.049C208.599 126.049 209.137 120.719 215.798 122.322Z" fill="#00A688"/>
<path opacity="0.2" d="M215.798 122.322C215.798 122.322 213.105 128.246 208.599 126.049C208.599 126.049 209.137 120.719 215.798 122.322Z" fill="white"/>
<path d="M202.557 120.755C202.557 120.755 209.044 121.267 208.507 126.259C208.507 126.259 203.315 127.57 202.557 120.755Z" fill="#00A688"/>
<path opacity="0.2" d="M202.557 120.755C202.557 120.755 209.044 121.267 208.507 126.259C208.507 126.259 203.315 127.57 202.557 120.755Z" fill="white"/>
<path d="M197.463 127.416C197.463 127.416 202.02 130.191 199.793 133.647C199.793 133.632 195.507 132.69 197.463 127.416Z" fill="#00A688"/>
<path opacity="0.2" d="M197.463 127.416C197.463 127.416 202.02 130.191 199.793 133.647C199.793 133.632 195.507 132.69 197.463 127.416Z" fill="white"/>
<path d="M206.592 118.676C206.592 118.676 211.686 122.721 208.466 126.566C208.466 126.566 203.428 124.759 206.592 118.676Z" fill="#00A688"/>
<path opacity="0.3" d="M206.592 118.676C206.592 118.676 211.686 122.721 208.466 126.566C208.466 126.566 203.428 124.759 206.592 118.676Z" fill="white"/>
<path d="M205.885 151.583C205.885 151.583 206.044 156.191 202.486 156.227C202.486 156.227 201.144 152.668 205.885 151.583Z" fill="#00A688"/>
<path opacity="0.2" d="M205.885 151.583C205.885 151.583 206.044 156.191 202.486 156.227C202.486 156.227 201.144 152.668 205.885 151.583Z" fill="white"/>
<path d="M196.971 154.772C196.971 154.772 201.257 153.052 202.496 156.395C202.496 156.395 199.603 158.868 196.971 154.772Z" fill="#00A688"/>
<path opacity="0.2" d="M196.971 154.772C196.971 154.772 201.257 153.052 202.496 156.395C202.496 156.395 199.603 158.868 196.971 154.772Z" fill="white"/>
<path d="M198.876 152.177C198.876 152.177 203.397 153.139 202.563 156.6C202.563 156.6 198.789 157.046 198.876 152.177Z" fill="#00A688"/>
<path opacity="0.3" d="M198.876 152.177C198.876 152.177 203.397 153.139 202.563 156.6C202.563 156.6 198.789 157.046 198.876 152.177Z" fill="white"/>
<path d="M193.633 133.315C193.633 133.315 198.036 130.304 200.289 133.755C200.269 133.755 197.632 137.267 193.633 133.315Z" fill="#00A688"/>
<path opacity="0.3" d="M193.633 133.315C193.633 133.315 198.036 130.304 200.289 133.755C200.269 133.755 197.632 137.267 193.633 133.315Z" fill="white"/>
<path d="M218.056 137.851C218.056 137.851 220.288 142.833 216.402 144.445C216.402 144.445 213.35 141.153 218.056 137.851Z" fill="#00A688"/>
<path opacity="0.2" d="M218.056 137.851C218.056 137.851 220.288 142.833 216.402 144.445C216.402 144.445 213.35 141.153 218.056 137.851Z" fill="white"/>
<path d="M213.243 138.598C213.243 138.598 218.327 140.58 216.694 144.456C216.694 144.456 212.209 144.251 213.243 138.598Z" fill="#00A688"/>
<path opacity="0.3" d="M213.243 138.598C213.243 138.598 218.327 140.58 216.694 144.456C216.694 144.456 212.209 144.251 213.243 138.598Z" fill="white"/>
<path d="M222.561 128.543C222.561 128.543 218.127 132.301 215.327 128.809C215.327 128.809 217.795 124.708 222.561 128.543Z" fill="#00A688"/>
<path opacity="0.2" d="M222.561 128.543C222.561 128.543 218.127 132.301 215.327 128.809C215.327 128.809 217.795 124.708 222.561 128.543Z" fill="white"/>
<path d="M217.411 122.337C217.411 122.337 219.459 127.764 215.255 129.244C215.255 129.244 212.209 125.563 217.411 122.337Z" fill="#00A688"/>
<path opacity="0.3" d="M217.411 122.337C217.411 122.337 219.459 127.764 215.255 129.244C215.255 129.244 212.209 125.563 217.411 122.337Z" fill="white"/>
<path d="M195.712 205.763C195.712 205.763 203.495 204.703 207.964 202.87C212.434 201.037 221.886 203.121 224.86 204.078C227.255 204.784 229.689 205.347 232.151 205.763H195.712Z" fill="#00A688"/>
<path opacity="0.3" d="M195.712 205.763C195.712 205.763 203.495 204.703 207.964 202.87C212.434 201.037 221.886 203.121 224.86 204.078C227.255 204.784 229.689 205.347 232.151 205.763H195.712Z" fill="white"/>
<path d="M42.7366 204.007C45.3948 185.784 46.8537 167.406 47.1039 148.992C47.2524 130.975 50.5599 123.013 50.5599 123.013L51.758 123.412C51.758 123.412 48.8652 129.782 49.1007 157.604C49.1419 173.087 48.2546 188.558 46.4434 203.935L42.7366 204.007Z" fill="#00A688"/>
<path d="M48.4249 135.061C52.863 133.718 56.8108 131.105 59.781 127.544L60.4876 127.903C60.4876 127.903 54.8556 134.989 48.389 136.761L48.4249 135.061Z" fill="#00A688"/>
<path d="M36.4135 143.519C36.4135 143.519 46.6534 153.247 47.1091 158.326L48.9267 158.915C48.9267 158.915 45.7882 150.339 36.8896 143.299L36.4135 143.519Z" fill="#00A688"/>
<path d="M48.2406 142.106C48.2406 142.106 46.3001 135.552 39.1526 130.801L38.6406 131.487C38.6406 131.487 44.2112 134.211 47.7542 146.038L48.2406 142.106Z" fill="#00A688"/>
<path d="M48.4966 148.664C48.4966 148.664 51.2665 144.568 59.1103 141.256L59.4175 141.65C59.4175 141.65 50.5292 146.519 48.0358 152.458L48.4966 148.664Z" fill="#00A688"/>
<path d="M48.6399 134.395C48.6399 134.395 43.3202 127.032 42.3628 119.547L42.7724 119.378C42.7724 119.378 44.8204 128.143 49.3209 131.697L48.6399 134.395Z" fill="#00A688"/>
<g opacity="0.4">
<path opacity="0.4" d="M42.7366 204.007C45.3948 185.784 46.8537 167.406 47.1039 148.992C47.2524 130.975 50.5599 123.013 50.5599 123.013L51.758 123.412C51.758 123.412 48.8652 129.782 49.1007 157.604C49.142 173.087 48.2546 188.558 46.4435 203.935L42.7366 204.007Z" fill="white"/>
<path opacity="0.4" d="M48.425 135.061C52.8631 133.718 56.811 131.105 59.7812 127.544L60.4877 127.903C60.4877 127.903 54.8557 134.989 48.3892 136.76L48.425 135.061Z" fill="white"/>
<path opacity="0.4" d="M36.4135 143.519C36.4135 143.519 46.6534 153.247 47.1091 158.326L48.9267 158.915C48.9267 158.915 45.7882 150.339 36.8896 143.299L36.4135 143.519Z" fill="white"/>
<path opacity="0.4" d="M48.2406 142.106C48.2406 142.106 46.3001 135.552 39.1526 130.801L38.6406 131.487C38.6406 131.487 44.2112 134.211 47.7542 146.038L48.2406 142.106Z" fill="white"/>
<path opacity="0.4" d="M48.4967 148.664C48.4967 148.664 51.2666 144.568 59.1104 141.256L59.4176 141.65C59.4176 141.65 50.5293 146.519 48.0359 152.458L48.4967 148.664Z" fill="white"/>
<path opacity="0.4" d="M48.64 134.395C48.64 134.395 43.3204 127.032 42.3629 119.547L42.7725 119.378C42.7725 119.378 44.8205 128.143 49.321 131.697L48.64 134.395Z" fill="white"/>
</g>
<path d="M56.3609 115.661C56.3609 115.661 57.4259 122.081 52.4646 122.767C52.4646 122.767 49.9353 118.047 56.3609 115.661Z" fill="#00A688"/>
<path opacity="0.1" d="M56.3609 115.661C56.3609 115.661 57.4259 122.081 52.4646 122.767C52.4646 122.767 49.9353 118.047 56.3609 115.661Z" fill="white"/>
<path d="M63.8463 139.96C63.8463 139.96 61.015 145.034 57.1904 142.751C57.1648 142.751 58.03 138.046 63.8463 139.96Z" fill="#00A688"/>
<path opacity="0.1" d="M63.8463 139.96C63.8463 139.96 61.015 145.034 57.1904 142.751C57.1648 142.751 58.03 138.046 63.8463 139.96Z" fill="white"/>
<path d="M35.8041 126.725C35.8041 126.725 40.9754 128.062 39.8336 132.014C39.8336 132.014 35.456 132.337 35.8041 126.725Z" fill="#00A688"/>
<path opacity="0.1" d="M35.8041 126.725C35.8041 126.725 40.9754 128.062 39.8336 132.014C39.8336 132.014 35.456 132.337 35.8041 126.725Z" fill="white"/>
<path d="M33.6742 142.956C33.6742 142.956 35.3996 147.241 38.6662 145.823C38.6662 145.823 38.4511 142.024 33.6742 142.956Z" fill="#00A688"/>
<path opacity="0.1" d="M33.6742 142.956C33.6742 142.956 35.3996 147.241 38.6662 145.823C38.6662 145.823 38.4511 142.024 33.6742 142.956Z" fill="white"/>
<path d="M65.8585 127.939C65.8585 127.939 61.7932 131.574 59.0745 128.364C59.0745 128.364 61.2863 124.457 65.8585 127.939Z" fill="#00A688"/>
<path opacity="0.1" d="M65.8585 127.939C65.8585 127.939 61.7932 131.574 59.0745 128.364C59.0745 128.364 61.2863 124.457 65.8585 127.939Z" fill="white"/>
<path d="M57.518 121.902C57.518 121.902 54.958 127.872 50.3859 125.758C50.3859 125.758 50.8262 120.423 57.518 121.902Z" fill="#00A688"/>
<path opacity="0.2" d="M57.518 121.902C57.518 121.902 54.958 127.872 50.3859 125.758C50.3859 125.758 50.8262 120.423 57.518 121.902Z" fill="white"/>
<path d="M47.9846 117.878C47.9846 117.878 53.3247 121.6 50.35 125.629C50.35 125.629 45.2045 124.14 47.9846 117.878Z" fill="#00A688"/>
<path opacity="0.2" d="M47.9846 117.878C47.9846 117.878 53.3247 121.6 50.35 125.629C50.35 125.629 45.2045 124.14 47.9846 117.878Z" fill="white"/>
<path d="M39.2141 126.28C39.2141 126.28 43.3561 129.649 40.6784 132.767C40.6784 132.767 36.5619 131.236 39.2141 126.28Z" fill="#00A688"/>
<path opacity="0.2" d="M39.2141 126.28C39.2141 126.28 43.3561 129.649 40.6784 132.767C40.6784 132.767 36.5619 131.236 39.2141 126.28Z" fill="white"/>
<path d="M51.3536 116.168C51.3536 116.168 54.9837 121.569 50.7494 124.252C50.7494 124.252 46.4947 120.996 51.3536 116.168Z" fill="#00A688"/>
<path opacity="0.3" d="M51.3536 116.168C51.3536 116.168 54.9837 121.569 50.7494 124.252C50.7494 124.252 46.4947 120.996 51.3536 116.168Z" fill="white"/>
<path d="M33.3414 147.231C33.3414 147.231 37.6832 148.803 38.8045 145.429C38.8045 145.408 35.84 143.053 33.3414 147.231Z" fill="#00A688"/>
<path opacity="0.2" d="M33.3414 147.231C33.3414 147.231 37.6832 148.803 38.8045 145.429C38.8045 145.408 35.84 143.053 33.3414 147.231Z" fill="white"/>
<path d="M39.1219 139.73C39.1219 139.73 36.1677 143.283 38.9632 145.485C38.9632 145.485 42.2042 143.498 39.1219 139.73Z" fill="#00A688"/>
<path opacity="0.2" d="M39.1219 139.73C39.1219 139.73 36.1677 143.283 38.9632 145.485C38.9632 145.485 42.2042 143.498 39.1219 139.73Z" fill="white"/>
<path d="M36.0652 140.744C36.0652 140.744 35.5839 145.352 39.1372 145.618C39.1321 145.618 40.7193 142.162 36.0652 140.744Z" fill="#00A688"/>
<path opacity="0.3" d="M36.0652 140.744C36.0652 140.744 35.5839 145.352 39.1372 145.618C39.1321 145.618 40.7193 142.162 36.0652 140.744Z" fill="white"/>
<path d="M34.6215 131.584C34.6215 131.584 39.3933 129.193 41.1341 132.92C41.1341 132.941 38.0467 136.064 34.6215 131.584Z" fill="#00A688"/>
<path opacity="0.3" d="M34.6215 131.584C34.6215 131.584 39.3933 129.193 41.1341 132.92C41.1341 132.941 38.0467 136.064 34.6215 131.584Z" fill="white"/>
<path d="M63.6825 123.802C63.6825 123.802 63.4213 129.249 59.2281 128.922C59.2281 128.937 57.9942 124.616 63.6825 123.802Z" fill="#00A688"/>
<path opacity="0.2" d="M63.6825 123.802C63.6825 123.802 63.4213 129.249 59.2281 128.922C59.2281 128.937 57.9942 124.616 63.6825 123.802Z" fill="white"/>
<path d="M59.054 122.291C59.054 122.291 62.6943 126.357 59.4841 129.075C59.4841 129.075 55.5775 126.864 59.054 122.291Z" fill="#00A688"/>
<path opacity="0.3" d="M59.054 122.291C59.054 122.291 62.6943 126.357 59.4841 129.075C59.4841 129.075 55.5775 126.864 59.054 122.291Z" fill="white"/>
<path d="M63.2115 144.594C63.2115 144.594 58.3066 147.712 56.0077 143.872C56.0077 143.872 59.0029 140.15 63.2115 144.594Z" fill="#00A688"/>
<path opacity="0.2" d="M63.2115 144.594C63.2115 144.594 58.3066 147.712 56.0077 143.872C56.0077 143.872 59.0029 140.15 63.2115 144.594Z" fill="white"/>
<path d="M58.9465 137.728C58.9465 137.728 60.2623 143.391 55.8745 144.282C55.8745 144.297 53.3555 140.237 58.9465 137.728Z" fill="#00A688"/>
<path opacity="0.3" d="M58.9465 137.728C58.9465 137.728 60.2623 143.391 55.8745 144.282C55.8745 144.297 53.3555 140.237 58.9465 137.728Z" fill="white"/>
<path d="M42.3936 115.169C42.3936 115.169 46.08 118.784 43.1923 121.554C43.1923 121.554 39.3728 119.695 42.3936 115.169Z" fill="#00A688"/>
<path opacity="0.1" d="M42.3936 115.169C42.3936 115.169 46.08 118.784 43.1923 121.554C43.1923 121.554 39.3728 119.695 42.3936 115.169Z" fill="white"/>
<path d="M46.2131 116.818C46.2131 116.818 47.7184 121.759 43.8835 122.814C43.8835 122.814 41.4054 119.358 46.2131 116.818Z" fill="#00A688"/>
<path opacity="0.2" d="M46.2131 116.818C46.2131 116.818 47.7184 121.759 43.8835 122.814C43.8835 122.814 41.4054 119.358 46.2131 116.818Z" fill="white"/>
<path d="M39.3318 118.835C39.3318 118.835 44.4927 119.056 44.2162 123.024C44.2162 123.024 40.1356 124.216 39.3318 118.835Z" fill="#00A688"/>
<path opacity="0.3" d="M39.3318 118.835C39.3318 118.835 44.4927 119.056 44.2162 123.024C44.2162 123.024 40.1356 124.216 39.3318 118.835Z" fill="white"/>
<path d="M26.752 205.763C26.752 205.763 34.5344 204.703 39.0041 202.87C43.4739 201.037 52.9254 203.121 55.9002 204.078C58.2947 204.784 60.7293 205.347 63.191 205.763H26.752Z" fill="#00A688"/>
<path opacity="0.3" d="M26.752 205.763C26.752 205.763 34.5344 204.703 39.0041 202.87C43.4739 201.037 52.9254 203.121 55.9002 204.078C58.2947 204.784 60.7293 205.347 63.191 205.763H26.752Z" fill="white"/>
<path d="M141.665 158.874C141.665 158.874 140.011 167.957 139.29 171.249C138.568 174.541 124.795 194.048 124.795 194.048C124.795 194.048 121.687 199.127 121.687 200.75C121.687 202.373 126.955 205.793 127.626 205.435C128.297 205.077 129.787 197.376 129.787 197.376L129.116 195.364C129.116 195.364 143.17 177.121 144.312 174.423C145.454 171.725 148.06 160.625 148.06 160.625L141.665 158.874Z" fill="#E4897B"/>
<path d="M139.776 165.473C139.776 165.473 141.312 148.838 142.715 145.864C144.118 142.889 149.499 147.308 150.395 153.032C151.291 158.756 147.154 169.201 147.154 169.201L139.776 165.473Z" fill="#F99942"/>
<path opacity="0.4" d="M150.211 158.623C149.699 161.438 148.97 164.21 148.029 166.912C147.548 168.325 147.19 169.221 147.19 169.221L139.776 165.473C139.776 165.473 141.312 148.838 142.715 145.864C144.118 142.889 149.499 147.308 150.395 153.032C150.622 154.894 150.56 156.78 150.211 158.623Z" fill="white"/>
<path d="M139.29 164.101V166.4L147.492 170.527L148.705 167.977L139.29 164.101Z" fill="#F99942"/>
<path opacity="0.6" d="M139.29 164.101V166.4L147.492 170.527L148.705 167.977L139.29 164.101Z" fill="white"/>
<path opacity="0.2" d="M150.211 158.623C149.699 161.438 148.97 164.209 148.029 166.912C146.048 161.792 146.534 150.902 146.534 150.902L150.211 158.623Z" fill="black"/>
<path d="M181.786 207.13L175.176 207.867L169.078 208.543L169.692 203.387V203.372H169.697L170.137 203.366L174.92 203.32L179.825 203.274L181.786 207.13Z" fill="#E4897B"/>
<path opacity="0.2" d="M175.176 207.867L169.078 208.543L169.692 203.387L169.697 203.372L170.137 203.367L174.925 203.315L174.92 203.32L175.176 207.867Z" fill="black"/>
<path d="M172.416 201.385L171.95 210.13L174.192 209.843L174.244 201.134L172.416 201.385Z" fill="#F99942"/>
<path d="M181.125 207.273L177.802 203.126C177.749 203.058 177.719 202.974 177.719 202.888C177.719 202.801 177.749 202.717 177.802 202.65L180.301 199.542C180.409 199.41 180.565 199.326 180.735 199.308C180.905 199.291 181.074 199.342 181.207 199.45C181.243 199.48 181.276 199.514 181.304 199.552C182.359 200.909 183.06 201.953 184.412 203.648C185.242 204.672 187.858 207.744 189.02 209.157C190.182 210.57 188.902 211.912 188.303 211.43C185.626 209.26 183.245 207.918 181.811 207.683C181.539 207.638 181.294 207.491 181.125 207.273Z" fill="#263238"/>
<path opacity="0.2" d="M181.125 207.273L177.802 203.126C177.749 203.058 177.719 202.974 177.719 202.888C177.719 202.801 177.749 202.717 177.802 202.65L180.301 199.542C180.409 199.41 180.565 199.326 180.735 199.308C180.905 199.291 181.074 199.342 181.207 199.45C181.243 199.48 181.276 199.514 181.304 199.552C182.359 200.909 183.06 201.953 184.412 203.648C185.242 204.672 187.858 207.744 189.02 209.157C190.182 210.57 188.902 211.912 188.303 211.43C185.626 209.26 183.245 207.918 181.811 207.683C181.539 207.638 181.294 207.491 181.125 207.273Z" fill="black"/>
<path d="M148.321 138.24C150.031 135.347 153.907 132.951 156.769 133.299C159.631 133.647 173.635 153.365 173.635 153.365L182.62 172.032L152.745 182.057C152.745 182.057 153.308 165.489 148.823 152.253C148.823 152.259 146.017 142.147 148.321 138.24Z" fill="#F99942"/>
<path opacity="0.2" d="M148.321 138.24C150.031 135.347 153.907 132.951 156.769 133.299C159.631 133.647 173.635 153.365 173.635 153.365L182.62 172.032L152.745 182.057C152.745 182.057 153.308 165.489 148.823 152.253C148.823 152.259 146.017 142.147 148.321 138.24Z" fill="white"/>
<path d="M174.111 169.267L172.933 185.206C172.933 185.206 171.745 186.358 170.086 188.068C165.816 192.446 158.423 200.494 159.821 202.296C161.766 204.805 168.254 204.206 168.254 204.206L170.47 210.862L170.982 212.367L170.496 212.48C167.057 213.315 163.549 213.829 160.015 214.016C153.662 214.298 146.647 213.166 145.29 207.14C142.7 195.661 154.67 182.236 159.114 176.42C160.21 174.986 159.857 169.252 159.857 169.252L174.111 169.267Z" fill="#263238"/>
<path opacity="0.2" d="M170.496 212.48C167.057 213.315 163.549 213.829 160.015 214.016C156.978 212.631 154.414 210.384 152.643 207.555C147.277 198.641 163.681 182.124 163.681 182.124V178.258L169.984 182.154L170.086 188.068C165.816 192.446 158.423 200.494 159.821 202.296C161.766 204.805 168.253 204.206 168.253 204.206L170.47 210.862L170.496 212.48Z" fill="black"/>
<path d="M182.63 207.918C182.834 208.136 182.958 208.415 182.984 208.712C182.981 208.816 182.952 208.918 182.899 209.007C182.846 209.097 182.771 209.171 182.681 209.224C182.636 209.263 182.581 209.288 182.522 209.296C182.463 209.305 182.403 209.295 182.349 209.27C181.837 209.045 181.642 207.401 181.622 207.222C181.619 207.202 181.621 207.182 181.629 207.164C181.638 207.146 181.651 207.13 181.668 207.119C181.685 207.108 181.706 207.102 181.727 207.102C181.748 207.102 181.768 207.108 181.785 207.119C182.095 207.355 182.378 207.622 182.63 207.918ZM182.328 208.993C182.353 209.034 182.391 209.065 182.436 209.08C182.436 209.08 182.502 209.106 182.574 209.055C182.633 209.019 182.681 208.97 182.716 208.911C182.751 208.852 182.771 208.785 182.774 208.717C182.643 208.194 182.317 207.742 181.862 207.452C181.919 207.991 182.077 208.514 182.328 208.993Z" fill="#F99942"/>
<path d="M181.811 207.145L181.842 207.186C181.929 207.698 181.724 208.973 181.33 209.193C181.26 209.229 181.18 209.239 181.103 209.222C181.027 209.205 180.958 209.163 180.91 209.101C180.852 209.047 180.807 208.981 180.778 208.907C180.749 208.834 180.736 208.755 180.741 208.676C180.741 208.021 181.658 207.14 181.704 207.109C181.72 207.102 181.737 207.098 181.755 207.098C181.772 207.098 181.79 207.102 181.806 207.109C181.81 207.121 181.811 207.133 181.811 207.145ZM180.977 208.942L181.007 208.978C181.089 209.086 181.156 209.045 181.181 209.029C181.437 208.896 181.658 208.005 181.642 207.442C181.272 207.776 181.013 208.216 180.9 208.702C180.894 208.789 180.922 208.874 180.977 208.942Z" fill="#F99942"/>
<path d="M202.322 210.197L195.712 210.934L189.609 211.61L190.223 206.454L190.228 206.438H190.234H190.669L195.456 206.387L200.361 206.341L202.322 210.197Z" fill="#E4897B"/>
<path d="M201.661 210.34L198.338 206.198C198.284 206.13 198.254 206.045 198.254 205.957C198.254 205.87 198.284 205.785 198.338 205.717L200.837 202.609C200.891 202.543 200.957 202.488 201.032 202.448C201.108 202.408 201.19 202.384 201.275 202.375C201.359 202.367 201.445 202.376 201.526 202.401C201.607 202.426 201.683 202.467 201.748 202.522C201.784 202.55 201.817 202.583 201.846 202.619C202.9 203.981 203.602 205.02 204.948 206.715C205.783 207.739 208.399 210.811 209.556 212.229C210.713 213.647 209.438 214.979 208.839 214.497C206.157 212.326 203.776 210.985 202.347 210.75C202.074 210.708 201.827 210.561 201.661 210.34Z" fill="#263238"/>
<path d="M203.167 210.99C203.37 211.207 203.492 211.487 203.515 211.784C203.513 211.887 203.485 211.989 203.433 212.079C203.381 212.168 203.307 212.243 203.218 212.296C203.171 212.335 203.115 212.359 203.055 212.366C202.995 212.374 202.934 212.363 202.88 212.337C202.368 212.117 202.178 210.473 202.158 210.289C202.153 210.269 202.155 210.248 202.164 210.23C202.172 210.211 202.186 210.196 202.204 210.186C202.221 210.174 202.242 210.168 202.263 210.168C202.284 210.168 202.305 210.174 202.322 210.186C202.633 210.421 202.916 210.691 203.167 210.99ZM202.865 212.065C202.891 212.102 202.926 212.132 202.967 212.152C202.967 212.152 203.039 212.152 203.105 212.127C203.165 212.091 203.215 212.041 203.251 211.981C203.287 211.921 203.307 211.853 203.31 211.784C203.176 211.263 202.851 210.811 202.399 210.519C202.45 211.06 202.608 211.586 202.865 212.065Z" fill="#F99942"/>
<path d="M202.342 210.212L202.373 210.253C202.465 210.765 202.261 212.04 201.861 212.26C201.792 212.297 201.711 212.308 201.634 212.291C201.558 212.274 201.489 212.23 201.441 212.168C201.384 212.113 201.338 212.047 201.308 211.974C201.278 211.901 201.264 211.822 201.267 211.743C201.267 211.093 202.189 210.207 202.23 210.181C202.246 210.173 202.265 210.168 202.284 210.168C202.302 210.168 202.321 210.173 202.337 210.181C202.34 210.191 202.342 210.201 202.342 210.212ZM201.508 212.009L201.539 212.05C201.626 212.152 201.692 212.111 201.718 212.101C201.974 211.963 202.194 211.077 202.179 210.514C201.807 210.848 201.546 211.287 201.431 211.773C201.428 211.859 201.456 211.942 201.508 212.009Z" fill="#F99942"/>
<path opacity="0.2" d="M195.712 210.934L189.609 211.61L190.223 206.454L190.234 206.438H190.669L195.456 206.382V206.387L195.712 210.934Z" fill="black"/>
<path d="M169.626 168.105C168.253 174.403 154.429 204.134 163.164 212.04C169.574 217.851 193.5 212.372 193.5 212.372L193.874 205.123C193.874 205.123 175.043 205.742 173.066 203.556C171.09 201.37 182.707 184.929 184.33 180.444C187.192 172.483 184.09 167.782 184.09 167.782L169.626 168.105Z" fill="#263238"/>
<path d="M192.947 204.452L192.486 213.197L194.729 212.91L194.78 204.206L192.947 204.452Z" fill="#F99942"/>
<path d="M187.177 172.483L159.565 173.02C159.565 173.02 152.806 151.47 143.022 145.398C144.028 143.784 145.252 142.316 146.657 141.036C149.69 138.173 153.357 136.068 157.358 134.892C160.402 134.011 163.565 133.611 166.733 133.709C166.733 133.709 181.043 141.527 187.177 172.483Z" fill="#00A688"/>
<path d="M156.769 135.265C153.984 145.444 148.823 139.781 148.823 139.781C148.998 139.458 149.08 139.093 149.059 138.727C149.025 138.326 148.902 137.938 148.7 137.59C148.497 137.243 148.219 136.946 147.886 136.72C147.561 136.469 147.219 136.241 146.862 136.039L147.487 128.036C148.428 129.476 149.474 130.845 150.615 132.132C152.443 134.144 154.655 135.793 156.769 135.265Z" fill="#E4897B"/>
<path opacity="0.2" d="M149.059 138.752C149.025 138.351 148.902 137.963 148.7 137.616C148.497 137.269 148.219 136.971 147.886 136.745C147.561 136.494 147.219 136.267 146.862 136.064L147.487 128.062C148.428 129.501 149.474 130.87 150.615 132.158C150.774 134.856 150.487 137.534 149.059 138.752Z" fill="black"/>
<path d="M134.548 127.601C134.548 127.601 135.88 132.434 139.74 133.233C143.6 134.031 139.059 123.802 139.059 123.802L134.548 127.601Z" fill="#263238"/>
<path d="M150.272 133.181C150.25 133.415 150.216 133.648 150.17 133.878C149.959 135.056 149.368 136.132 148.486 136.942C147.605 137.751 146.482 138.249 145.29 138.358C143.75 138.528 142.203 138.105 140.964 137.175C140.785 137.049 140.614 136.912 140.452 136.765C140.116 136.451 139.797 136.119 139.494 135.772C136.934 132.818 134.738 127.934 137.037 124.565C137.604 123.727 138.376 123.048 139.279 122.593C140.183 122.137 141.187 121.92 142.198 121.961C143.209 122.003 144.192 122.302 145.055 122.83C145.918 123.358 146.632 124.098 147.128 124.979C149.151 128.43 150.528 130.483 150.272 133.181Z" fill="#E4897B"/>
<path d="M142.336 129.628C142.389 129.676 142.431 129.735 142.46 129.8C142.489 129.865 142.503 129.936 142.503 130.007C142.503 130.078 142.489 130.149 142.46 130.214C142.431 130.279 142.389 130.338 142.336 130.386C142.141 130.519 141.824 130.386 141.634 130.089C141.445 129.792 141.435 129.449 141.634 129.326C141.834 129.203 142.131 129.331 142.336 129.628Z" fill="#263238"/>
<path d="M139.008 131.83C139.107 131.932 139.163 132.069 139.163 132.211C139.163 132.354 139.107 132.49 139.008 132.593C138.819 132.721 138.496 132.593 138.307 132.291C138.117 131.989 138.112 131.656 138.307 131.528C138.501 131.4 138.824 131.553 139.008 131.83Z" fill="#263238"/>
<path d="M140.16 131.277C140.407 132.408 140.497 133.567 140.426 134.723C140.724 134.732 141.02 134.677 141.294 134.56C141.568 134.443 141.814 134.268 142.013 134.047L140.16 131.277Z" fill="#DE5753"/>
<path d="M142.648 127.867C142.619 127.892 142.584 127.909 142.546 127.917C142.509 127.925 142.47 127.923 142.433 127.913C142.191 127.821 141.93 127.787 141.673 127.813C141.415 127.84 141.167 127.927 140.948 128.067C140.904 128.099 140.85 128.113 140.795 128.106C140.741 128.1 140.692 128.073 140.657 128.031C140.624 127.987 140.61 127.931 140.617 127.876C140.625 127.822 140.654 127.772 140.698 127.739C140.969 127.555 141.28 127.44 141.605 127.401C141.93 127.363 142.26 127.403 142.566 127.519C142.619 127.535 142.663 127.572 142.689 127.621C142.715 127.67 142.721 127.727 142.705 127.78C142.691 127.812 142.672 127.842 142.648 127.867Z" fill="#263238"/>
<path d="M136.822 131.635C136.799 131.67 136.765 131.696 136.725 131.707C136.698 131.711 136.671 131.71 136.645 131.704C136.618 131.698 136.594 131.687 136.572 131.671C136.55 131.656 136.531 131.636 136.517 131.613C136.503 131.59 136.493 131.565 136.489 131.538C136.437 131.212 136.464 130.879 136.568 130.566C136.673 130.253 136.851 129.97 137.088 129.741C137.13 129.706 137.185 129.69 137.239 129.694C137.294 129.699 137.344 129.725 137.38 129.767C137.416 129.805 137.436 129.857 137.436 129.91C137.436 129.963 137.416 130.014 137.38 130.053C137.198 130.24 137.063 130.466 136.984 130.714C136.905 130.962 136.884 131.225 136.924 131.482C136.921 131.514 136.91 131.545 136.892 131.571C136.874 131.598 136.85 131.62 136.822 131.635Z" fill="#263238"/>
<path d="M147.999 128C148.398 127.893 150.098 130.888 150.098 130.888C150.098 130.888 151.06 129.27 150.308 126.382C148.823 120.689 147.379 120.09 145.7 120.09C142.628 120.09 141.199 124.462 141.199 124.462C142.095 123.648 143.59 123.95 143.8 125.189C144.097 126.884 146.155 128.553 147.722 128.773C147.732 128.753 147.41 128.138 147.999 128Z" fill="#263238"/>
<path d="M150.677 126.894C150.748 127.43 150.713 127.974 150.573 128.496C150.434 129.018 150.192 129.507 149.863 129.935C148.977 131.077 147.676 130.488 147.2 129.203C146.79 128.056 146.724 126.054 147.973 125.384C149.223 124.713 150.487 125.568 150.677 126.894Z" fill="#E4897B"/>
<path d="M142.715 123.494C142.715 123.494 141.179 126.193 140.616 126.464C140.053 126.735 140.16 125.471 140.16 125.471C140.16 125.471 138.173 127.949 137.426 127.846C136.678 127.744 136.945 126.259 136.945 126.259C136.945 126.259 134.861 129.807 134.047 129.843C133.233 129.879 133.023 127.058 134.559 124.692C134.559 124.692 133.535 126.582 132.844 126.177C132.152 125.773 133.775 121.856 136.94 120.576C136.94 120.576 136.515 120.576 136.458 119.767C136.402 118.958 140.262 117.268 143.329 118.415C143.329 118.415 142.28 117.335 143.764 117.064C145.249 116.792 146.529 118.886 146.529 118.886C146.529 118.886 146.463 117.862 147.41 118.077C148.357 118.292 150.482 121.149 149.791 124.575L142.715 123.494Z" fill="#263238"/>
<path opacity="0.1" d="M150.272 133.181C150.25 133.415 150.216 133.648 150.17 133.878C149.959 135.056 149.368 136.132 148.486 136.942C147.605 137.751 146.482 138.249 145.29 138.358C143.75 138.528 142.203 138.105 140.964 137.175C140.785 137.049 140.614 136.912 140.452 136.765C140.116 136.451 139.797 136.119 139.494 135.772C141.083 135.559 142.57 134.87 143.759 133.796C145.178 132.557 147.302 130.171 145.894 127.846C145.152 126.628 147.016 128.563 147.016 128.563C147.016 128.563 149.294 130.816 150.272 133.181Z" fill="black"/>
<path d="M143.498 135.25C143.962 135.036 144.366 134.712 144.677 134.307C144.988 133.903 145.197 133.428 145.285 132.926C145.287 132.911 145.286 132.897 145.283 132.883C145.279 132.869 145.273 132.856 145.264 132.845C145.256 132.834 145.245 132.824 145.233 132.817C145.221 132.81 145.207 132.805 145.193 132.803C145.179 132.801 145.164 132.801 145.151 132.805C145.137 132.809 145.124 132.815 145.112 132.823C145.101 132.832 145.091 132.843 145.084 132.855C145.077 132.867 145.072 132.881 145.07 132.895C144.979 133.359 144.78 133.795 144.49 134.168C144.201 134.541 143.828 134.842 143.401 135.045C143.375 135.058 143.355 135.079 143.344 135.106C143.334 135.132 143.334 135.162 143.345 135.189C143.35 135.201 143.358 135.213 143.368 135.222C143.378 135.232 143.39 135.239 143.403 135.244C143.416 135.248 143.43 135.251 143.443 135.25C143.457 135.249 143.47 135.246 143.483 135.24L143.498 135.25Z" fill="#263238"/>
<path d="M159.114 140.39C159.114 140.39 177.034 160.732 179.594 175.8L189.102 173.568C189.102 173.568 180.521 140.083 166.733 133.734H159.114V140.39Z" fill="#F99942"/>
<path opacity="0.6" d="M189.102 173.568L179.584 175.811C178.954 172.058 177.372 167.982 175.345 163.978C173.734 160.824 171.944 157.764 169.984 154.814C166.667 149.781 163.035 144.964 159.109 140.39V133.734H166.728C180.521 140.073 189.102 173.568 189.102 173.568Z" fill="white"/>
<path d="M156.769 133.304C156.769 133.304 158.817 135.265 159.114 140.391H162.872C162.872 140.391 162.33 134.692 160.343 133.381C159.596 132.89 156.769 133.304 156.769 133.304Z" fill="#F99942"/>
<path opacity="0.4" d="M156.769 133.304C156.769 133.304 158.817 135.265 159.114 140.391H162.872C162.872 140.391 162.33 134.692 160.343 133.381C159.596 132.89 156.769 133.304 156.769 133.304Z" fill="white"/>
<path d="M148.756 145.674C148.756 145.674 154.568 169.001 152.745 182.062C152.745 182.062 151.383 164.746 148.823 158.469C148.823 158.469 143.826 151.47 143.022 145.398L146.944 140.068C146.944 140.068 147.394 143.514 148.756 145.674Z" fill="#F99942"/>
<path opacity="0.6" d="M148.756 145.674C148.756 145.674 154.568 169.001 152.745 182.062C152.745 182.062 151.383 164.746 148.823 158.469C148.823 158.469 143.826 151.47 143.022 145.398L146.944 140.068C146.944 140.068 147.394 143.514 148.756 145.674Z" fill="white"/>
<path d="M148.321 138.24C148.321 138.24 147.139 142.223 148.757 145.669L147.512 147.154C146.822 145.651 146.487 144.01 146.534 142.357C146.534 139.264 148.321 138.24 148.321 138.24Z" fill="#F99942"/>
<path opacity="0.4" d="M148.321 138.24C148.321 138.24 147.139 142.223 148.757 145.669L147.512 147.154C146.822 145.651 146.487 144.01 146.534 142.357C146.534 139.264 148.321 138.24 148.321 138.24Z" fill="white"/>
<path d="M142.945 191.872C142.656 192.29 142.411 192.736 142.213 193.203L144 195.343C140.338 197.861 136.222 199.645 131.881 200.597C132.593 196.444 139.289 190.357 139.289 190.357L140.59 191.698C140.59 191.698 140.836 191.273 141.286 190.577C142.772 188.299 144.488 186.18 146.406 184.254C146.527 184.134 146.673 184.043 146.834 183.987C146.994 183.931 147.165 183.91 147.334 183.927C147.503 183.944 147.667 183.999 147.812 184.086C147.958 184.173 148.083 184.292 148.178 184.433C148.326 184.656 148.393 184.923 148.368 185.189C148.343 185.456 148.227 185.706 148.04 185.897C146.147 187.714 144.44 189.716 142.945 191.872Z" fill="#263238"/>
<path opacity="0.4" d="M144 195.343C140.338 197.861 136.222 199.645 131.881 200.596C132.593 196.444 139.289 190.357 139.289 190.357L140.59 191.698C140.59 191.698 140.836 191.273 141.286 190.577C141.426 190.92 141.652 191.222 141.943 191.453C142.233 191.683 142.579 191.835 142.945 191.892C142.656 192.31 142.411 192.756 142.213 193.224L144 195.343Z" fill="white"/>
<path opacity="0.2" d="M144 195.343C140.338 197.861 136.222 199.645 131.881 200.596C132.593 196.444 139.289 190.357 139.289 190.357L140.59 191.698C140.59 191.698 139.31 193.234 139.054 194.54C140.213 194.402 141.312 193.946 142.228 193.224L144 195.343Z" fill="white"/>
<path d="M107.991 213.115H139.776C139.776 213.115 135.818 211.958 134.85 210.836C133.883 209.715 130.442 210.14 129.434 210.13C128.425 210.12 126.392 211.128 125.179 210.519C123.965 209.91 119.808 205.435 117.094 204.027C114.381 202.619 112.942 207.34 111.524 208.271C110.106 209.203 107.991 213.115 107.991 213.115Z" fill="#F99942"/>
<path d="M100.818 214.656C100.818 214.656 108.677 210.622 111.058 210.519C113.439 210.417 116.69 212.199 117.494 212.373C118.298 212.547 124.18 211.994 125.394 211.61C126.607 211.226 130.657 212.296 131.876 212.122C133.094 211.948 136.704 209.495 137.933 209.101C139.162 208.707 148.588 213.806 149.709 214.093C150.83 214.38 153.554 214.718 153.554 214.718C153.554 214.718 144.338 215.286 143.022 215.286C141.706 215.286 140.196 216.704 134.871 216.402C129.546 216.1 127.222 216.689 124.692 216.443C122.163 216.197 121.554 215.491 118.717 215.491C115.881 215.491 112.133 216.402 110.208 215.593C108.283 214.784 100.818 214.656 100.818 214.656Z" fill="#F99942"/>
<path opacity="0.2" d="M100.818 214.656C100.818 214.656 108.677 210.622 111.058 210.519C113.439 210.417 116.69 212.199 117.494 212.373C118.298 212.547 124.18 211.994 125.394 211.61C126.607 211.226 130.657 212.296 131.876 212.122C133.094 211.948 136.704 209.495 137.933 209.101C139.162 208.707 148.588 213.806 149.709 214.093C150.83 214.38 153.554 214.718 153.554 214.718C153.554 214.718 144.338 215.286 143.022 215.286C141.706 215.286 140.196 216.704 134.871 216.402C129.546 216.1 127.222 216.689 124.692 216.443C122.163 216.197 121.554 215.491 118.717 215.491C115.881 215.491 112.133 216.402 110.208 215.593C108.283 214.784 100.818 214.656 100.818 214.656Z" fill="white"/>
<path d="M123.904 199.24C124.052 199.301 124.16 199.47 124.324 199.501C124.385 199.501 124.457 199.501 124.523 199.501C124.581 199.515 124.633 199.543 124.677 199.582C124.721 199.621 124.754 199.671 124.774 199.726C124.805 199.842 124.805 199.964 124.774 200.079C124.979 200.033 125.138 200.079 125.25 199.9C125.363 199.721 125.384 199.567 125.614 199.537C125.69 199.526 125.768 199.526 125.844 199.537C126.092 199.551 126.324 199.659 126.495 199.839C126.55 199.946 126.617 200.047 126.694 200.141C126.879 200.294 127.16 200.177 127.401 200.207C127.507 200.229 127.608 200.273 127.696 200.337C127.785 200.4 127.858 200.482 127.913 200.576C128.026 200.743 128.103 200.931 128.138 201.129V201.554C128.149 201.728 128.124 201.902 128.066 202.066C128.005 202.209 127.908 202.511 128.169 202.537C128.256 202.537 128.353 202.511 128.41 202.573C128.466 202.634 128.44 202.68 128.461 202.731C128.481 202.783 128.568 202.844 128.619 202.9C128.664 202.946 128.699 203 128.722 203.059C128.869 203.433 128.887 203.846 128.773 204.232C128.669 204.479 128.59 204.736 128.538 205V206.141C128.499 206.709 128.499 207.279 128.538 207.846C128.563 207.98 128.563 208.117 128.538 208.251C128.526 208.297 128.505 208.34 128.476 208.378C128.447 208.416 128.41 208.448 128.369 208.471C128.302 208.517 128.21 208.471 128.2 208.604C128.2 208.679 128.21 208.753 128.23 208.824C128.256 208.983 128.189 209.219 128.066 209.009C128.025 208.876 128.011 208.737 128.026 208.599C128.026 208.302 128.026 208.005 128.026 207.708C128.026 207.411 127.969 207.16 127.933 206.894C127.928 206.803 127.896 206.716 127.841 206.643C127.611 206.403 127.298 206.945 127.304 207.155C127.324 207.366 127.324 207.579 127.304 207.79C127.146 208.574 127.123 209.379 127.237 210.171C127.237 210.278 127.273 210.406 127.186 210.473C127.142 210.498 127.093 210.511 127.042 210.509C126.996 210.521 126.947 210.522 126.9 210.512C126.853 210.502 126.809 210.482 126.771 210.452C126.727 210.392 126.705 210.317 126.71 210.243C126.741 209.902 126.741 209.559 126.71 209.219C126.704 209.175 126.69 209.134 126.669 209.096C126.643 209.065 126.602 209.044 126.571 209.014C126.533 208.961 126.506 208.901 126.493 208.838C126.479 208.774 126.48 208.708 126.495 208.645C126.505 208.15 126.474 207.655 126.402 207.165C126.398 207.056 126.372 206.948 126.326 206.848C126.304 206.798 126.27 206.755 126.225 206.723C126.181 206.692 126.129 206.673 126.075 206.669C125.824 206.669 125.89 206.95 125.901 207.104C125.914 207.187 125.914 207.272 125.901 207.355C125.89 207.395 125.868 207.431 125.839 207.46C125.809 207.489 125.772 207.509 125.732 207.519C125.705 207.528 125.676 207.528 125.65 207.519C125.63 207.499 125.615 207.475 125.606 207.448C125.597 207.421 125.595 207.393 125.599 207.365V207.181C125.604 207.157 125.604 207.133 125.599 207.109C125.558 207.037 125.445 207.063 125.368 207.032C125.291 207.002 125.225 206.561 125.194 206.438C125.133 206.193 125.092 205.926 125.051 205.691C125.014 205.258 124.93 204.831 124.8 204.416C124.672 204.109 124.605 203.781 124.452 203.489C124.408 203.415 124.374 203.336 124.349 203.254C124.355 203.151 124.355 203.049 124.349 202.947C124.319 202.829 124.232 202.737 124.216 202.624C124.222 202.482 124.271 202.345 124.354 202.23C124.426 202.072 124.448 201.896 124.418 201.725C124.388 201.554 124.307 201.396 124.186 201.272C124.068 201.155 123.914 201.114 123.796 200.996C123.686 200.851 123.559 200.721 123.417 200.607C123.213 200.468 122.905 200.468 122.798 200.238C122.839 200.31 122.941 200.238 122.962 200.156C122.982 200.074 123.013 199.977 123.09 199.982L123.156 200.008C123.252 200.054 123.362 200.063 123.464 200.033C123.417 199.989 123.382 199.933 123.363 199.871C123.344 199.809 123.342 199.743 123.356 199.68C123.385 199.553 123.451 199.437 123.545 199.347C123.586 199.297 123.638 199.258 123.697 199.231C123.755 199.204 123.819 199.192 123.883 199.194L123.904 199.24Z" fill="#F99942"/>
<path opacity="0.2" d="M123.904 199.24C124.052 199.301 124.16 199.47 124.324 199.501C124.385 199.501 124.457 199.501 124.523 199.501C124.581 199.515 124.633 199.543 124.677 199.582C124.721 199.621 124.754 199.671 124.774 199.726C124.805 199.842 124.805 199.964 124.774 200.079C124.979 200.033 125.138 200.079 125.25 199.9C125.363 199.721 125.384 199.567 125.614 199.537C125.69 199.526 125.768 199.526 125.844 199.537C126.092 199.551 126.324 199.659 126.495 199.839C126.55 199.946 126.617 200.047 126.694 200.141C126.879 200.294 127.16 200.177 127.401 200.207C127.507 200.229 127.608 200.273 127.696 200.337C127.785 200.4 127.858 200.482 127.913 200.576C128.026 200.743 128.103 200.931 128.138 201.129V201.554C128.149 201.728 128.124 201.902 128.066 202.066C128.005 202.209 127.908 202.511 128.169 202.537C128.256 202.537 128.353 202.511 128.41 202.573C128.466 202.634 128.44 202.68 128.461 202.731C128.481 202.783 128.568 202.844 128.619 202.9C128.664 202.946 128.699 203 128.722 203.059C128.869 203.433 128.887 203.846 128.773 204.232C128.669 204.479 128.59 204.736 128.538 205V206.141C128.499 206.709 128.499 207.279 128.538 207.846C128.563 207.98 128.563 208.117 128.538 208.251C128.526 208.297 128.505 208.34 128.476 208.378C128.447 208.416 128.41 208.448 128.369 208.471C128.302 208.517 128.21 208.471 128.2 208.604C128.2 208.679 128.21 208.753 128.23 208.824C128.256 208.983 128.189 209.219 128.066 209.009C128.025 208.876 128.011 208.737 128.026 208.599C128.026 208.302 128.026 208.005 128.026 207.708C128.026 207.411 127.969 207.16 127.933 206.894C127.928 206.803 127.896 206.716 127.841 206.643C127.611 206.403 127.298 206.945 127.304 207.155C127.324 207.366 127.324 207.579 127.304 207.79C127.146 208.574 127.123 209.379 127.237 210.171C127.237 210.278 127.273 210.406 127.186 210.473C127.142 210.498 127.093 210.511 127.042 210.509C126.996 210.521 126.947 210.522 126.9 210.512C126.853 210.502 126.809 210.482 126.771 210.452C126.727 210.392 126.705 210.317 126.71 210.243C126.741 209.902 126.741 209.559 126.71 209.219C126.704 209.175 126.69 209.134 126.669 209.096C126.643 209.065 126.602 209.044 126.571 209.014C126.533 208.961 126.506 208.901 126.493 208.838C126.479 208.774 126.48 208.708 126.495 208.645C126.505 208.15 126.474 207.655 126.402 207.165C126.398 207.056 126.372 206.948 126.326 206.848C126.304 206.798 126.27 206.755 126.225 206.723C126.181 206.692 126.129 206.673 126.075 206.669C125.824 206.669 125.89 206.95 125.901 207.104C125.914 207.187 125.914 207.272 125.901 207.355C125.89 207.395 125.868 207.431 125.839 207.46C125.809 207.489 125.772 207.509 125.732 207.519C125.705 207.528 125.676 207.528 125.65 207.519C125.63 207.499 125.615 207.475 125.606 207.448C125.597 207.421 125.595 207.393 125.599 207.365V207.181C125.604 207.157 125.604 207.133 125.599 207.109C125.558 207.037 125.445 207.063 125.368 207.032C125.291 207.002 125.225 206.561 125.194 206.438C125.133 206.193 125.092 205.926 125.051 205.691C125.014 205.258 124.93 204.831 124.8 204.416C124.672 204.109 124.605 203.781 124.452 203.489C124.408 203.415 124.374 203.336 124.349 203.254C124.355 203.151 124.355 203.049 124.349 202.947C124.319 202.829 124.232 202.737 124.216 202.624C124.222 202.482 124.271 202.345 124.354 202.23C124.426 202.072 124.448 201.896 124.418 201.725C124.388 201.554 124.307 201.396 124.186 201.272C124.068 201.155 123.914 201.114 123.796 200.996C123.686 200.851 123.559 200.721 123.417 200.607C123.213 200.468 122.905 200.468 122.798 200.238C122.839 200.31 122.941 200.238 122.962 200.156C122.982 200.074 123.013 199.977 123.09 199.982L123.156 200.008C123.252 200.054 123.362 200.063 123.464 200.033C123.417 199.989 123.382 199.933 123.363 199.871C123.344 199.809 123.342 199.743 123.356 199.68C123.385 199.553 123.451 199.437 123.545 199.347C123.586 199.297 123.638 199.258 123.697 199.231C123.755 199.204 123.819 199.192 123.883 199.194L123.904 199.24Z" fill="white"/>
<path opacity="0.2" d="M175.345 163.968C173.733 160.817 171.943 157.761 169.984 154.813L174.106 144.087C174.106 144.087 176.538 154.281 175.345 163.968Z" fill="black"/>
<path d="M173.097 152.617C173.097 152.617 173.337 163.466 171.95 166.369C170.562 169.272 151.813 184.694 151.813 184.694C151.813 184.694 151.337 188.16 150.559 188.739C149.78 189.317 145.188 190.336 144.712 190.336C144.235 190.336 143.872 183.854 144.312 183.296C144.753 182.738 148.828 181.407 149.504 181.407C149.504 181.407 166.246 164.598 166.246 163.215C166.246 161.833 166.651 150.881 166.651 150.881L173.097 152.617Z" fill="#E4897B"/>
<path d="M165.745 154.829C165.745 154.829 164.475 138.179 165.381 135.004C166.287 131.83 172.314 135.301 174.162 140.81C176.01 146.319 173.65 157.297 173.65 157.297L165.745 154.829Z" fill="#F99942"/>
<path opacity="0.4" d="M165.745 154.829C165.745 154.829 164.475 138.179 165.381 135.004C166.287 131.83 172.314 135.301 174.162 140.81C176.01 146.319 173.65 157.297 173.65 157.297L165.745 154.829Z" fill="white"/>
<path d="M165.018 153.564L165.402 155.832L174.177 158.536L174.95 155.817L165.018 153.564Z" fill="#F99942"/>
<path opacity="0.6" d="M165.018 153.564L165.402 155.832L174.177 158.536L174.95 155.817L165.018 153.564Z" fill="white"/>
<path d="M108.242 185.672C107.029 185.774 104.914 184.612 104.515 184.335C104.115 184.059 103.603 182.246 103.603 182.246C103.603 182.246 92.8513 174.566 91.3153 172.339L91.1361 172.073C88.9703 168.678 86.5281 159.565 86.0519 157.737C86.0007 157.532 85.97 157.42 85.97 157.42C85.97 157.42 86.1492 150.994 88.9805 151.188C91.6634 151.373 92.969 165.192 95.7492 169.426C96.6401 170.783 106.368 180.347 106.952 180.982C107.535 181.617 111.672 182.123 112.072 182.728C112.471 183.332 109.45 185.574 108.242 185.672Z" fill="#B97964"/>
<path opacity="0.2" d="M91.136 172.073C88.9703 168.678 86.528 159.565 86.0519 157.737L89.4106 151.956C89.4106 151.956 92.4519 164.065 91.136 172.073Z" fill="black"/>
<path d="M70.656 147.968C70.2362 147.968 69.8317 147.917 69.4221 147.866C65.2032 147.328 69.8573 138.322 79.5751 131.912C87.7159 126.546 95.0016 125.962 97.8791 128.522C98.4345 129.004 98.8368 129.637 99.0362 130.345C100.244 134.656 83.8554 148.669 70.656 147.968Z" fill="#F99942"/>
<path opacity="0.2" d="M81.0394 135.414C83.625 133.571 87.9156 130.452 92.9639 131.077C98.0122 131.702 90.9159 139.238 83.4407 143.053C75.9655 146.867 73.8714 146.432 73.5181 145.357C72.9242 143.524 77.312 138.092 81.0394 135.414Z" fill="black"/>
<path d="M76.6977 140.8C76.6977 140.8 75.5867 142.909 76.6977 146.089C76.6977 146.089 72.868 146.949 72.2126 150.697C71.5573 154.445 77.2507 154.327 79.2628 153.672C81.275 153.016 78.7508 146.565 78.7508 146.565C78.7508 146.565 82.2017 144.348 82.8827 142.285C83.5636 140.221 76.6977 140.8 76.6977 140.8Z" fill="#263238"/>
<path d="M83.3486 184.965C80.9268 190.054 62.6843 191.386 61.2763 187.771C59.8683 184.156 69.54 171.156 69.9444 165.212C70.3489 159.268 87.1118 154.834 87.1118 154.834C87.1118 154.834 90.1121 170.757 83.3486 184.965Z" fill="#F99942"/>
<path opacity="0.4" d="M83.3486 184.965C80.9268 190.054 62.6843 191.386 61.2763 187.771C59.8683 184.156 69.54 171.156 69.9444 165.212C70.3489 159.268 87.1118 154.834 87.1118 154.834C87.1118 154.834 90.1121 170.757 83.3486 184.965Z" fill="white"/>
<path d="M62.8071 205.855L70.8096 205.757L70.4256 210.074L60.329 208.655L62.8071 205.855Z" fill="#B97964"/>
<path opacity="0.2" d="M62.8071 205.855L70.8096 205.757L70.4256 210.074L60.329 208.655L62.8071 205.855Z" fill="black"/>
<path d="M64.768 205.558C65.0394 205.809 61.824 209.055 61.824 209.055C61.824 209.055 57.8304 209.295 55.5572 210.929C53.2839 212.562 53.0484 210.34 55.0452 208.041L59.9962 202.363C61.44 200.729 61.952 202.962 64.768 205.558Z" fill="#263238"/>
<path opacity="0.2" d="M64.768 205.558C65.0394 205.809 61.824 209.055 61.824 209.055C61.824 209.055 57.8304 209.295 55.5572 210.929C53.2839 212.562 53.0484 210.34 55.0452 208.041L59.9962 202.363C61.44 200.729 61.952 202.962 64.768 205.558Z" fill="black"/>
<path d="M78.7149 178.263L79.4317 182.871C79.4317 182.871 99.3997 198.39 100.68 207.058C101.96 215.726 93.9316 215.552 68.3315 213.504L67.5226 205.24L77.1277 203.914C77.1277 203.914 61.2557 197.663 63.5955 186.788C65.7511 176.763 78.7149 178.263 78.7149 178.263Z" fill="#00A688"/>
<path opacity="0.3" d="M78.7149 178.263L79.4317 182.871C79.4317 182.871 99.3997 198.39 100.68 207.058C101.96 215.726 93.9316 215.552 68.3315 213.504L67.5226 205.24L77.1277 203.914C77.1277 203.914 61.2557 197.663 63.5955 186.788C65.7511 176.763 78.7149 178.263 78.7149 178.263Z" fill="black"/>
<path d="M56.1664 208.773L64.169 208.676L63.785 212.992L53.6884 211.579L56.1664 208.773Z" fill="#B97964"/>
<path d="M58.1274 208.481C58.3988 208.732 55.1834 211.978 55.1834 211.978C55.1834 211.978 51.1898 212.219 48.9165 213.852C46.6432 215.485 46.4077 213.263 48.4045 210.964L53.3607 205.312C54.784 203.653 55.296 205.885 58.1274 208.481Z" fill="#263238"/>
<path d="M78.7149 178.263L63.1296 175.703C63.6058 175.78 66.6368 169.073 67.3229 166.687C68.2804 163.389 69.0228 157.082 68.3469 153.001V152.97C68.2821 152.558 68.303 152.138 68.4081 151.734C68.5133 151.331 68.7005 150.954 68.958 150.626C69.2156 150.298 69.5379 150.027 69.905 149.83C70.272 149.632 70.6759 149.513 71.0912 149.478C72.3354 149.381 73.5796 149.335 74.834 149.33C77.309 149.301 79.7829 149.446 82.2375 149.765C85.3914 150.277 88.9601 151.219 88.9601 151.219C88.9601 151.219 89.4721 151.429 89.2263 154.803C89.0215 158.003 87.8234 168.397 78.7149 178.263Z" fill="#263238"/>
<path d="M84.5466 146.621C84.5466 146.621 82.5395 147.917 82.1965 148.777C82.1748 148.83 82.1577 148.885 82.1453 148.941C82.046 149.429 81.9776 149.923 81.9405 150.42C82.5241 152.136 80.3277 153.119 80.3277 153.119C76.416 151.946 75.4995 150.047 75.4995 150.047C78.72 148.787 79.3344 142.612 79.3344 142.612L80.896 143.816L84.5466 146.621Z" fill="#B97964"/>
<path opacity="0.2" d="M84.5466 146.621C84.5466 146.621 82.5396 147.917 82.1966 148.777C82.1749 148.83 82.1578 148.885 82.1454 148.941C81.2958 148.291 80.6183 147.443 80.172 146.471C79.7257 145.499 79.5243 144.433 79.5854 143.365L80.891 143.805L84.5466 146.621Z" fill="black"/>
<path d="M86.7789 132.147C86.7789 132.147 90.834 131.011 92.8001 134.287C94.7662 137.564 93.1943 140.047 91.8324 141.23" stroke="#263238" stroke-width="0.488465" stroke-linecap="round" stroke-linejoin="round"/>
<path d="M88.3968 131.968C88.3968 131.968 91.7044 132.07 92.6157 134.866C93.5271 137.661 92.8512 140.8 87.9411 144.179C85.5399 145.833 79.575 142.602 79.575 142.602L79.0989 144.046C78.3018 143.469 77.5779 142.796 76.9434 142.044C75.0131 139.781 75.5098 132.285 80.8653 130.816C86.4615 129.285 88.3968 131.968 88.3968 131.968Z" fill="#263238"/>
<path d="M85.2379 132.905C89.4465 133.478 90.491 135.91 90.2094 140.288C89.8561 145.751 88.1307 149.437 83.0414 147.564C76.1089 145.019 78.2593 131.953 85.2379 132.905Z" fill="#B97964"/>
<path d="M87.5212 139.679C87.7732 140.352 88.105 140.994 88.5094 141.589C88.3634 141.746 88.1765 141.86 87.9695 141.918C87.7625 141.976 87.5435 141.975 87.3369 141.916L87.5212 139.679Z" fill="#A24E3F"/>
<path d="M84.992 138.988C84.9511 139.331 84.7309 139.592 84.48 139.566C84.2291 139.541 84.096 139.238 84.1319 138.89C84.1677 138.542 84.393 138.286 84.6439 138.312C84.8947 138.337 85.033 138.639 84.992 138.988Z" fill="#263238"/>
<path d="M84.5518 138.317L85.3351 138.107C85.3351 138.107 84.8897 138.701 84.5518 138.317Z" fill="#263238"/>
<path d="M89.3133 139.397C89.2724 139.745 89.0522 140.006 88.8013 139.981C88.5504 139.955 88.4173 139.653 88.4532 139.305C88.489 138.957 88.7143 138.696 88.9651 138.726C89.216 138.757 89.3492 139.054 89.3133 139.397Z" fill="#263238"/>
<path d="M88.8679 138.752L89.6513 138.542C89.6513 138.542 89.2058 139.11 88.8679 138.752Z" fill="#263238"/>
<path d="M85.3504 136.079C85.0239 135.993 84.6819 135.982 84.3507 136.049C84.0196 136.115 83.7082 136.257 83.4407 136.463" stroke="#263238" stroke-width="0.707962" stroke-linecap="round" stroke-linejoin="round"/>
<path d="M88.4275 136.315C88.7246 136.281 89.0255 136.315 89.3075 136.414C89.5895 136.514 89.8453 136.676 90.0556 136.888" stroke="#263238" stroke-width="0.707962" stroke-linecap="round" stroke-linejoin="round"/>
<path d="M79.6775 139.361C79.6775 139.361 82.1146 136.177 82.1811 133.468C82.1811 133.468 90.9773 131.2 90.2349 139.715C90.2349 139.715 92.073 132.316 84.8691 131.164C77.6653 130.012 76.0013 139.935 79.3088 143.595C79.3088 143.595 78.1671 141.358 79.6775 139.361Z" fill="#263238"/>
<path d="M80.2458 140.344C80.2709 139.852 80.1003 139.37 79.7712 139.004C79.4422 138.638 78.9814 138.416 78.4896 138.388C77.1687 138.353 76.1805 140.948 79.3344 142.029C79.7901 142.182 80.1127 141.763 80.2458 140.344Z" fill="#B97964"/>
<path d="M87.1118 143.171C86.9319 143.671 86.7899 144.185 86.6868 144.707H86.4052C85.1354 144.645 84.5671 144.195 84.3214 143.724C84.2064 143.488 84.1486 143.228 84.1524 142.966C84.1514 142.817 84.1703 142.669 84.2087 142.525C84.9774 142.908 85.8186 143.123 86.6766 143.155C86.9428 143.171 87.1118 143.171 87.1118 143.171Z" fill="#263238"/>
<path d="M86.6766 143.145L86.5384 143.596C85.3454 143.534 84.4903 143.334 84.1524 142.956C84.1513 142.807 84.1703 142.659 84.2087 142.515C84.9774 142.898 85.8186 143.112 86.6766 143.145Z" fill="white"/>
<path d="M86.4052 144.696C85.1354 144.635 84.5671 144.184 84.3213 143.713C84.8038 143.744 85.2771 143.86 85.7191 144.056C86.0103 144.191 86.2508 144.415 86.4052 144.696Z" fill="#DE5753"/>
<path d="M63.1296 175.693C55.9616 185.871 57.4464 196.459 77.0099 205.082L61.5782 207.585L61.9827 213.181C61.9827 213.181 77.2352 214.717 89.6307 214.717C95.0169 214.717 97.6537 205.537 90.5881 197.622C83.5225 189.706 74.5318 184.32 74.5318 184.32C77.0355 182.533 78.7149 178.248 78.7149 178.248L63.1296 175.693Z" fill="#00856D"/>
<path d="M74.8544 149.048C76.0102 157.383 75.2252 165.873 72.5606 173.855C68.1267 186.711 58.1427 199.045 58.1427 199.045C58.1427 199.045 55.2294 184.709 62.6842 175.421C62.6842 175.421 68.1165 165.243 67.7274 153.754C67.5226 147.809 74.8544 149.048 74.8544 149.048Z" fill="#F99942"/>
<path opacity="0.6" d="M72.5657 173.855C68.1267 186.711 58.1427 199.05 58.1427 199.05C58.1427 199.05 55.2243 184.714 62.6841 175.421C64.9883 170.758 66.5532 165.764 67.3228 160.619C67.6596 158.347 67.795 156.05 67.7273 153.753C67.6986 153.154 67.7678 152.554 67.9321 151.977C69.1148 148.075 74.8544 149.048 74.8544 149.048C76.0103 157.383 75.2271 165.872 72.5657 173.855Z" fill="white"/>
<path d="M83.7479 149.924C83.7479 149.924 87.2448 157.046 86.4051 168.438C85.5654 179.83 83.3331 184.965 83.3331 184.965C83.3331 184.965 92.6054 172.472 89.2877 151.301L83.7479 149.924Z" fill="#F99942"/>
<path opacity="0.6" d="M83.7479 149.924C83.7479 149.924 87.2448 157.046 86.4051 168.438C85.5654 179.83 83.3331 184.965 83.3331 184.965C83.3331 184.965 92.6054 172.472 89.2877 151.301L83.7479 149.924Z" fill="white"/>
<path d="M85.97 130.345C85.97 130.345 80.0564 127.017 77.2353 127.555C74.4142 128.092 75.4996 129.971 75.4996 129.971C75.2868 129.958 75.0736 129.99 74.8737 130.064C74.6737 130.138 74.4914 130.253 74.3382 130.401C74.185 130.549 74.0645 130.728 73.9841 130.926C73.9037 131.123 73.8654 131.335 73.8714 131.548C73.8049 133.197 75.3716 137.523 75.3716 137.523L85.97 130.345Z" fill="#F99942"/>
<path opacity="0.2" d="M85.97 130.345C85.97 130.345 80.0564 127.017 77.2353 127.555C74.4142 128.092 75.4996 129.971 75.4996 129.971C75.2868 129.958 75.0736 129.99 74.8737 130.064C74.6737 130.138 74.4914 130.253 74.3382 130.401C74.185 130.549 74.0645 130.728 73.9841 130.926C73.9037 131.123 73.8654 131.335 73.8714 131.548C73.8049 133.197 75.3716 137.523 75.3716 137.523L85.97 130.345Z" fill="white"/>
<path d="M97.8791 128.512L96.9882 130.335C96.9882 130.335 89.0573 129.894 82.0019 134.717C77.7377 137.657 74.2374 141.574 71.7927 146.14L70.656 147.968C70.2362 147.968 69.8317 147.917 69.4221 147.865C65.2032 147.328 69.8573 138.322 79.5751 131.912C87.7159 126.546 95.0016 125.952 97.8791 128.512Z" fill="#F99942"/>
<path d="M103.04 165.412C103.193 165.029 103.247 164.614 103.196 164.204C103.145 163.795 102.991 163.406 102.748 163.072C101.919 161.787 99.6762 161.255 99.6762 161.255C99.6762 161.255 99.4714 164.127 100.352 165.187C101.233 166.246 103.04 165.412 103.04 165.412Z" fill="#00A688"/>
<path d="M106.885 165.842C106.885 165.842 106.424 162.995 111.063 163.169C111.063 163.169 110.423 167.03 106.885 165.842Z" fill="#00A688"/>
<path opacity="0.1" d="M103.04 165.412C103.193 165.029 103.247 164.614 103.196 164.204C103.145 163.795 102.991 163.406 102.748 163.072C101.919 161.787 99.6762 161.255 99.6762 161.255C99.6762 161.255 99.4714 164.127 100.352 165.187C101.233 166.246 103.04 165.412 103.04 165.412Z" fill="white"/>
<path opacity="0.1" d="M106.885 165.842C106.885 165.842 106.424 162.995 111.063 163.169C111.063 163.169 110.423 167.03 106.885 165.842Z" fill="white"/>
<path d="M107.935 164.864C107.892 164.812 107.83 164.779 107.763 164.772C107.696 164.766 107.629 164.786 107.576 164.828C107.2 165.132 106.856 165.476 106.552 165.852C106.238 166.219 105.966 166.621 105.743 167.05C105.532 167.459 105.36 167.888 105.231 168.33C105.098 168.033 104.955 167.741 104.801 167.455C104.202 166.281 103.377 165.238 102.374 164.383C102.323 164.343 102.26 164.324 102.195 164.329C102.131 164.334 102.071 164.362 102.026 164.408C102.002 164.431 101.982 164.459 101.969 164.49C101.956 164.521 101.949 164.554 101.949 164.588C101.949 164.621 101.956 164.654 101.969 164.685C101.982 164.716 102.002 164.744 102.026 164.767C102.912 165.622 103.624 166.641 104.12 167.767C104.638 168.883 104.998 170.065 105.19 171.279C105.376 172.485 105.388 173.711 105.226 174.92C105.142 175.516 105.014 176.104 104.842 176.681C104.684 177.237 104.47 177.776 104.202 178.289V178.33C104.2 178.341 104.2 178.354 104.202 178.366C104.121 178.537 104.112 178.733 104.176 178.911C104.24 179.089 104.372 179.235 104.543 179.315C104.714 179.396 104.91 179.406 105.088 179.342C105.266 179.278 105.412 179.146 105.493 178.975C105.782 178.348 106.003 177.693 106.153 177.019C106.304 176.369 106.405 175.708 106.455 175.043C106.553 173.724 106.46 172.398 106.179 171.105C106.074 170.629 105.942 170.159 105.784 169.697C105.796 169.316 105.846 168.937 105.933 168.566C106.03 168.137 106.173 167.72 106.358 167.322C106.539 166.92 106.766 166.54 107.034 166.19C107.3 165.837 107.602 165.513 107.935 165.222C107.982 165.175 108.008 165.11 108.008 165.043C108.008 164.976 107.982 164.912 107.935 164.864Z" fill="#00A688"/>
<path opacity="0.3" d="M107.935 164.864C107.892 164.812 107.83 164.779 107.763 164.772C107.696 164.766 107.629 164.786 107.576 164.828C107.2 165.132 106.856 165.476 106.552 165.852C106.238 166.219 105.966 166.621 105.743 167.05C105.532 167.459 105.36 167.888 105.231 168.33C105.098 168.033 104.955 167.741 104.801 167.455C104.202 166.281 103.377 165.238 102.374 164.383C102.323 164.343 102.26 164.324 102.195 164.329C102.131 164.334 102.071 164.362 102.026 164.408C102.002 164.431 101.982 164.459 101.969 164.49C101.956 164.521 101.949 164.554 101.949 164.588C101.949 164.621 101.956 164.654 101.969 164.685C101.982 164.716 102.002 164.744 102.026 164.767C102.912 165.622 103.624 166.641 104.12 167.767C104.638 168.883 104.998 170.065 105.19 171.279C105.376 172.485 105.388 173.711 105.226 174.92C105.142 175.516 105.014 176.104 104.842 176.681C104.684 177.237 104.47 177.776 104.202 178.289V178.33C104.2 178.341 104.2 178.354 104.202 178.366C104.121 178.537 104.112 178.733 104.176 178.911C104.24 179.089 104.372 179.235 104.543 179.315C104.714 179.396 104.91 179.406 105.088 179.342C105.266 179.278 105.412 179.146 105.493 178.975C105.782 178.348 106.003 177.693 106.153 177.019C106.304 176.369 106.405 175.708 106.455 175.043C106.553 173.724 106.46 172.398 106.179 171.105C106.074 170.629 105.942 170.159 105.784 169.697C105.796 169.316 105.846 168.937 105.933 168.566C106.03 168.137 106.173 167.72 106.358 167.322C106.539 166.92 106.766 166.54 107.034 166.19C107.3 165.837 107.602 165.513 107.935 165.222C107.982 165.175 108.008 165.11 108.008 165.043C108.008 164.976 107.982 164.912 107.935 164.864Z" fill="white"/>
<path d="M97.5924 182.784C97.9384 182.247 98.3198 181.734 98.7342 181.248C99.5313 180.311 100.478 179.512 101.535 178.883L102.462 178.309L102.784 178.109C103.275 177.828 103.739 177.502 104.172 177.137C104.581 176.778 104.996 176.323 105.539 176.323C106.481 176.323 106.931 177.075 107.495 177.731C108.013 178.431 108.639 179.046 109.348 179.553C110.372 180.142 112.118 182.328 112.072 182.728C112.026 183.127 107.52 186.368 103.772 185.677C101.498 185.26 99.3691 184.264 97.5924 182.784Z" fill="#00A688"/>
<path opacity="0.2" d="M71.6801 162.304C70.0893 162.245 68.5635 161.657 67.3434 160.635C67.6802 158.363 67.8155 156.065 67.7479 153.769C67.7192 153.17 67.7884 152.569 67.9527 151.992C69.7805 154.506 75.2641 162.406 71.6801 162.304Z" fill="black"/>
<path d="M70.1851 149.929C72.8219 149.699 78.1928 166.861 80.21 168.74C82.2273 170.619 99.2923 182.052 99.2923 182.052C100.096 181.979 100.905 181.979 101.709 182.052C102.651 182.19 106.952 183.404 106.952 183.404C106.952 183.404 105.339 186.255 103.726 186.844C102.113 187.433 97.7921 185.672 97.2801 184.192C97.2801 184.192 80.3483 175.616 76.6517 173.184C72.955 170.752 69.0229 159.206 68.0347 155.843C67.0465 152.479 68.6081 150.062 70.1851 149.929Z" fill="#B97964"/>
</svg>
