<svg width="256" height="256" viewBox="0 0 256 256" fill="none" xmlns="http://www.w3.org/2000/svg">
<path d="M118.513 173.435C115.758 164.372 107.448 158.828 98.1145 154.307C62.2438 136.899 61.8495 89.0163 98.053 69.5245C112.722 61.6192 130.637 59.2282 149.048 67.4765C168.069 76.6925 161.597 107.791 165.54 118.047C168.668 133.878 177.777 149.888 175.37 165.888C174.29 191.253 122.747 197.77 118.513 173.435Z" fill="#F99942"/>
<path opacity="0.9" d="M118.513 173.435C115.758 164.372 107.448 158.828 98.1145 154.307C62.2438 136.899 61.8495 89.0163 98.053 69.5245C112.722 61.6192 130.637 59.2282 149.048 67.4765C168.069 76.6925 161.597 107.791 165.54 118.047C168.668 133.878 177.777 149.888 175.37 165.888C174.29 191.253 122.747 197.77 118.513 173.435Z" fill="white"/>
<path d="M128 218.911C182.826 218.911 227.272 216.316 227.272 213.115C227.272 209.914 182.826 207.319 128 207.319C73.1737 207.319 28.7283 209.914 28.7283 213.115C28.7283 216.316 73.1737 218.911 128 218.911Z" fill="#F5F5F5"/>
<path d="M122.783 209.085L118.39 209.019L118.139 198.82L122.532 198.886L122.783 209.085Z" fill="#FFB573"/>
<path d="M150.963 209.101H146.565L144.85 198.917H149.248L150.963 209.101Z" fill="#FFB573"/>
<path d="M146.053 208.113H151.414C151.503 208.115 151.589 208.145 151.66 208.199C151.731 208.253 151.783 208.329 151.808 208.415L152.929 212.321C152.958 212.413 152.964 212.51 152.947 212.605C152.931 212.7 152.892 212.789 152.834 212.866C152.776 212.942 152.7 213.004 152.614 213.046C152.527 213.087 152.431 213.107 152.335 213.105C150.61 213.074 149.345 212.977 147.169 212.977C145.833 212.977 143.478 213.115 141.629 213.115C139.781 213.115 139.423 211.287 140.17 211.123C143.508 210.381 144.333 209.362 145.357 208.384C145.546 208.209 145.795 208.112 146.053 208.113Z" fill="#263238"/>
<path d="M118.272 208.031L123.064 208.108C123.148 208.106 123.229 208.136 123.291 208.193C123.352 208.249 123.391 208.326 123.397 208.41L123.771 212.332C123.778 212.431 123.764 212.532 123.73 212.626C123.697 212.72 123.644 212.807 123.575 212.879C123.506 212.952 123.423 213.01 123.33 213.048C123.238 213.087 123.139 213.106 123.039 213.105C121.313 213.048 118.83 212.91 116.654 212.874C114.094 212.833 113.423 212.941 110.443 212.874C108.641 212.849 108.395 211.016 109.148 210.862C112.676 210.166 113.971 210.125 117.171 208.343C117.505 208.145 117.884 208.037 118.272 208.031Z" fill="#263238"/>
<path d="M120.028 79.872C119.716 82.8928 119.332 85.888 118.902 88.8934C118.472 91.8989 117.975 94.8838 117.412 97.8842C117.269 98.647 117.136 99.3638 116.967 100.163C116.869 100.582 116.772 101.007 116.664 101.417L116.301 102.62C115.788 104.152 115.176 105.648 114.468 107.1C113.785 108.524 113.038 109.903 112.225 111.237C111.419 112.578 110.542 113.875 109.599 115.123L106.737 113.48C107.761 110.74 108.826 107.945 109.66 105.196C110.08 103.818 110.454 102.451 110.736 101.1L110.92 100.106L111.053 99.1437L111.314 96.9523C111.985 91.0234 112.615 85.0278 113.403 79.0938L120.028 79.872Z" fill="#FFB573"/>
<path d="M120.581 75.9552C123.459 79.0272 122.061 91.3613 122.061 91.3613L111.104 85.9802C111.375 83.649 111.766 81.3334 112.276 79.0426C113.019 75.3715 117.76 72.9754 120.581 75.9552Z" fill="#00A688"/>
<path opacity="0.3" d="M120.581 75.9552C123.459 79.0272 122.061 91.3613 122.061 91.3613L111.104 85.9802C111.375 83.649 111.766 81.3334 112.276 79.0426C113.019 75.3715 117.76 72.9754 120.581 75.9552Z" fill="white"/>
<path d="M107.781 111.892L104.074 115.359L108.17 118.231C108.17 118.231 111.386 115.927 110.162 112.968L107.781 111.892Z" fill="#FFB573"/>
<path d="M104.238 119.378L105.231 119.639C105.539 119.722 105.863 119.718 106.169 119.627C106.474 119.537 106.749 119.364 106.962 119.127L108.17 118.231L104.074 115.359L103.142 116.895C103.022 117.126 102.954 117.381 102.946 117.642C102.937 117.902 102.987 118.162 103.092 118.4C103.198 118.639 103.355 118.851 103.554 119.02C103.752 119.189 103.986 119.312 104.238 119.378Z" fill="#FFB573"/>
<path opacity="0.2" d="M118.144 198.82L118.272 204.078L122.665 204.15L122.537 198.891L118.144 198.82Z" fill="black"/>
<path opacity="0.2" d="M149.248 198.922H144.85L145.736 204.17H150.134L149.248 198.922Z" fill="black"/>
<path d="M138.634 76.6361C137.493 92.6054 140.764 107.817 140.902 111.171L117.473 113.219C112.097 94.7251 113.173 82.3808 113.982 77.5782C114.092 76.8985 114.39 76.2633 114.843 75.744C115.295 75.2247 115.883 74.8421 116.542 74.6394C116.941 74.5165 117.386 74.3885 117.862 74.2605C118.487 74.0915 119.163 73.9277 119.87 73.7741C120.259 73.687 120.658 73.6102 121.062 73.5334C124.379 73.0485 127.721 72.7545 131.072 72.6528C131.702 72.6272 132.342 72.6221 132.966 72.6221C133.591 72.6221 134.113 72.6221 134.651 72.6579H135.107C135.602 72.6798 136.088 72.8011 136.536 73.0144C136.984 73.2278 137.384 73.529 137.713 73.9001C138.042 74.2711 138.293 74.7046 138.451 75.1746C138.61 75.6446 138.672 76.1416 138.634 76.6361Z" fill="#00A688"/>
<path opacity="0.4" d="M138.634 76.6361C137.493 92.6054 140.764 107.817 140.902 111.171L117.473 113.219C112.097 94.7251 113.173 82.3808 113.982 77.5782C114.092 76.8985 114.39 76.2633 114.843 75.744C115.295 75.2247 115.883 74.8421 116.542 74.6394C116.941 74.5165 117.386 74.3885 117.862 74.2605C118.487 74.0915 119.163 73.9277 119.87 73.7741C120.259 73.687 120.658 73.6102 121.062 73.5334C124.379 73.0485 127.721 72.7545 131.072 72.6528C131.702 72.6272 132.342 72.6221 132.966 72.6221C133.591 72.6221 134.113 72.6221 134.651 72.6579H135.107C135.602 72.6798 136.088 72.8011 136.536 73.0144C136.984 73.2278 137.384 73.529 137.713 73.9001C138.042 74.2711 138.293 74.7046 138.451 75.1746C138.61 75.6446 138.672 76.1416 138.634 76.6361Z" fill="white"/>
<path opacity="0.3" d="M138.394 83.8247L134.84 83.4407C135.38 85.6024 136.682 87.4968 138.506 88.7757C138.435 87.168 138.399 85.504 138.394 83.8247Z" fill="#00A688"/>
<path d="M129.09 61.5219C128.737 64.7782 128.619 70.7072 131.046 72.6528C129.454 74.5318 127.35 76.7488 123.556 77.1942C119.762 77.6397 120.202 74.9824 121.088 73.5129C124.585 72.3507 124.267 69.7088 123.428 67.2717L129.09 61.5219Z" fill="#FFB573"/>
<path d="M123.566 80.681C123.566 81.1213 123.361 81.4695 123.126 81.4695C122.89 81.4695 122.706 81.1059 122.711 80.6707C122.716 80.2355 122.916 79.8823 123.146 79.8874C123.377 79.8925 123.571 80.2458 123.566 80.681Z" fill="white"/>
<path d="M123.602 84.265C123.638 84.7002 123.474 85.0688 123.239 85.0893C123.003 85.1098 122.788 84.7667 122.752 84.3315C122.716 83.8963 122.885 83.5277 123.121 83.5072C123.356 83.4867 123.571 83.8298 123.602 84.265Z" fill="white"/>
<path opacity="0.2" d="M126.781 63.8669L123.428 67.2666C123.633 67.8319 123.787 68.4145 123.889 69.0074C125.24 68.695 126.986 67.031 127.007 65.5923C127.036 65.0083 126.96 64.4238 126.781 63.8669Z" fill="black"/>
<path d="M116.9 54.5024C116.9 54.5024 119.721 53.1814 122.322 53.5552C125.804 55.8592 122.445 57.5488 120.448 61.7933C117.791 63.0682 118.728 61.7165 118.728 61.7165C118.728 61.7165 114.847 59.4586 116.9 54.5024Z" fill="#263238"/>
<path d="M129.055 56.663C129.162 61.0253 129.449 63.575 127.452 65.9917C124.442 69.6268 118.912 68.1062 117.504 63.8617C116.234 60.0422 116.27 53.5501 120.366 51.456C121.268 50.9899 122.273 50.762 123.288 50.7938C124.302 50.8257 125.291 51.1162 126.162 51.6379C127.032 52.1595 127.755 52.895 128.261 53.7745C128.768 54.654 129.041 55.6483 129.055 56.663Z" fill="#FFB573"/>
<path d="M124.928 53.3044C124.928 53.3044 127.319 51.3076 129.93 51.0055C133.888 52.3469 131.067 54.8353 130.212 59.4484C127.969 61.3633 128.532 59.817 128.532 59.817C128.532 59.817 124.175 58.6189 124.928 53.3044Z" fill="#263238"/>
<path d="M125.763 53.8163C124.626 54.7686 118.922 57.047 115.425 54.3283C113.377 52.7258 113.741 48.9011 116.767 48.1382C116.552 48.7526 117.519 50.6112 120.786 49.3312C123.889 48.1229 130.575 47.7952 130.191 51.8912C129.807 55.9872 125.763 53.8163 125.763 53.8163Z" fill="#263238"/>
<path d="M128.978 51.0515C128.978 51.0515 130.719 50.2016 131.251 49.0035C132.04 51.2 130.017 51.7632 128.978 51.0515Z" fill="#263238"/>
<path d="M131.431 61.2762C131.181 61.7601 130.839 62.19 130.424 62.5415C130.008 62.8929 129.527 63.1589 129.009 63.3242C127.621 63.7594 126.884 62.5306 127.232 61.1943C127.55 59.9962 128.65 58.3219 130.058 58.4704C131.466 58.6189 132.035 60.0781 131.431 61.2762Z" fill="#FFB573"/>
<path d="M126.3 159.442C126.812 149.069 132.874 111.867 132.874 111.867L117.473 113.203C117.473 113.203 114.504 144.625 114.657 158.044C114.811 172.001 116.649 202.557 116.649 202.557L124.094 202.67C124.094 202.67 125.747 170.496 126.3 159.442Z" fill="#263238"/>
<path opacity="0.2" d="M128.338 123.587C125.921 129.623 126.157 144.481 127.109 151.163C128.041 143.401 129.587 132.966 130.842 124.795C129.638 124.191 128.681 123.725 128.338 123.587Z" fill="black"/>
<path d="M125.783 112.481C125.783 112.481 131.927 146.959 134.487 159.729C137.262 173.716 144.251 202.675 144.251 202.675H151.552C151.552 202.675 147.579 172.544 145.05 158.879C142.162 143.324 142.904 120.566 140.902 111.171L125.783 112.481Z" fill="#263238"/>
<path d="M143.401 202.849H152.033L151.849 200.018L142.09 199.834L143.401 202.849Z" fill="#00A688"/>
<path d="M116.372 202.716L124.58 202.854L124.626 199.987L115.374 199.685L116.372 202.716Z" fill="#00A688"/>
<path d="M122.578 58.4499C122.609 58.8032 122.445 59.1053 122.214 59.1257C121.984 59.1462 121.769 58.8749 121.738 58.5216C121.708 58.1683 121.871 57.8662 122.102 57.8458C122.332 57.8253 122.547 58.0966 122.578 58.4499Z" fill="#263238"/>
<path d="M118.584 58.793C118.615 59.1463 118.451 59.4484 118.221 59.4688C117.99 59.4893 117.775 59.218 117.745 58.8647C117.714 58.5114 117.878 58.2093 118.108 58.1888C118.339 58.1684 118.554 58.4397 118.584 58.793Z" fill="#263238"/>
<path d="M119.869 58.88C119.54 59.9967 119.059 61.063 118.441 62.0493C119.117 62.5613 120.156 62.2182 120.156 62.2182L119.869 58.88Z" fill="#ED893E"/>
<path d="M123.336 62.0032C122.943 62.027 122.559 62.13 122.207 62.306C121.855 62.4819 121.543 62.7273 121.288 63.0272C121.269 63.0472 121.258 63.0738 121.258 63.1014C121.258 63.1291 121.269 63.1557 121.288 63.1757C121.308 63.1937 121.335 63.2036 121.362 63.2036C121.389 63.2036 121.416 63.1937 121.436 63.1757C121.726 62.8429 122.091 62.5832 122.5 62.4177C122.909 62.2522 123.352 62.1856 123.791 62.2234C123.818 62.2235 123.844 62.2136 123.864 62.1956C123.884 62.1776 123.896 62.1528 123.899 62.1261C123.9 62.1122 123.899 62.0982 123.895 62.0849C123.891 62.0716 123.884 62.0593 123.875 62.0488C123.866 62.0383 123.854 62.0297 123.842 62.0236C123.829 62.0175 123.816 62.0141 123.802 62.0134C123.647 61.9968 123.491 61.9934 123.336 62.0032Z" fill="#263238"/>
<path d="M121.969 56.105C121.933 56.1144 121.902 56.1362 121.882 56.1664C121.862 56.1854 121.847 56.2082 121.836 56.2332C121.826 56.2583 121.821 56.2852 121.821 56.3123C121.821 56.3395 121.826 56.3664 121.836 56.3914C121.847 56.4165 121.862 56.4392 121.882 56.4582C122.128 56.68 122.424 56.8387 122.745 56.9208C123.066 57.0028 123.402 57.0057 123.725 56.9293C123.751 56.9223 123.776 56.91 123.797 56.8931C123.819 56.8762 123.836 56.8551 123.849 56.8312C123.862 56.8072 123.87 56.7808 123.873 56.7536C123.875 56.7265 123.872 56.6991 123.863 56.6733C123.856 56.6469 123.844 56.6221 123.827 56.6005C123.81 56.579 123.789 56.561 123.765 56.5476C123.741 56.5342 123.715 56.5258 123.688 56.5227C123.661 56.5197 123.633 56.5221 123.607 56.5299C123.351 56.5864 123.086 56.5806 122.833 56.5129C122.579 56.4451 122.346 56.3175 122.153 56.1408C122.127 56.1206 122.097 56.1067 122.065 56.1005C122.033 56.0943 122 56.0958 121.969 56.105Z" fill="#263238"/>
<path d="M118.113 56.2227C118.08 56.219 118.046 56.2236 118.015 56.2361C117.984 56.2486 117.956 56.2687 117.934 56.2944C117.773 56.5007 117.565 56.6654 117.327 56.775C117.089 56.8845 116.829 56.9357 116.567 56.9242C116.515 56.9228 116.464 56.9409 116.425 56.975C116.385 57.009 116.36 57.0565 116.353 57.1083C116.347 57.1601 116.36 57.2124 116.39 57.255C116.42 57.2976 116.465 57.3275 116.516 57.3389C116.846 57.3598 117.177 57.3004 117.479 57.1658C117.781 57.0312 118.046 56.8253 118.252 56.5658C118.27 56.5446 118.283 56.5202 118.292 56.4938C118.3 56.4674 118.303 56.4396 118.301 56.412C118.298 56.3844 118.29 56.3575 118.278 56.3329C118.265 56.3084 118.247 56.2866 118.226 56.2688C118.194 56.2432 118.155 56.2272 118.113 56.2227Z" fill="#263238"/>
<path d="M144.65 208.896C145.034 208.886 145.415 208.833 145.787 208.737C145.807 208.733 145.825 208.722 145.838 208.706C145.851 208.69 145.858 208.671 145.859 208.65C145.861 208.63 145.858 208.61 145.849 208.591C145.84 208.573 145.825 208.558 145.808 208.548C145.639 208.446 144.164 207.575 143.693 207.826C143.641 207.854 143.598 207.896 143.57 207.948C143.542 208 143.529 208.059 143.534 208.118C143.53 208.223 143.551 208.328 143.594 208.424C143.638 208.52 143.703 208.605 143.785 208.671C144.042 208.837 144.345 208.916 144.65 208.896ZM145.475 208.589C144.737 208.737 144.164 208.712 143.908 208.512C143.854 208.465 143.811 208.407 143.782 208.342C143.754 208.276 143.741 208.205 143.744 208.133C143.744 208.051 143.775 208.026 143.801 208.01C144.046 207.872 144.896 208.246 145.475 208.579V208.589Z" fill="#00A688"/>
<path d="M145.766 208.727C145.78 208.727 145.794 208.725 145.807 208.719C145.82 208.713 145.831 208.704 145.84 208.693C145.849 208.682 145.855 208.67 145.858 208.656C145.862 208.642 145.862 208.628 145.858 208.614C145.858 208.563 145.664 207.294 145.126 206.874C145.064 206.822 144.992 206.784 144.915 206.761C144.837 206.738 144.756 206.731 144.676 206.741C144.599 206.74 144.524 206.768 144.467 206.819C144.409 206.87 144.372 206.941 144.363 207.017C144.302 207.503 145.244 208.471 145.715 208.717L145.766 208.727ZM144.742 206.945C144.832 206.948 144.919 206.981 144.988 207.038C145.318 207.429 145.528 207.907 145.592 208.415C145.121 208.072 144.512 207.345 144.568 207.053C144.568 207.053 144.568 206.966 144.712 206.95H144.763L144.742 206.945Z" fill="#00A688"/>
<path d="M117.821 208.63C117.84 208.625 117.856 208.614 117.868 208.599C117.88 208.585 117.887 208.567 117.888 208.548C117.892 208.527 117.889 208.505 117.88 208.486C117.871 208.467 117.856 208.451 117.837 208.44C117.637 208.333 115.886 207.416 115.343 207.698C115.293 207.725 115.251 207.765 115.22 207.813C115.19 207.862 115.172 207.917 115.169 207.974C115.156 208.069 115.166 208.165 115.199 208.254C115.232 208.344 115.287 208.424 115.359 208.486C115.83 208.922 117.094 208.768 117.806 208.64L117.821 208.63ZM115.482 207.872C115.814 207.764 116.767 208.143 117.458 208.486C116.485 208.635 115.763 208.579 115.497 208.333C115.451 208.292 115.416 208.24 115.396 208.181C115.375 208.123 115.369 208.061 115.379 208C115.379 207.977 115.385 207.954 115.396 207.934C115.408 207.914 115.425 207.898 115.446 207.887L115.482 207.872Z" fill="#00A688"/>
<path d="M117.821 208.63C117.837 208.619 117.849 208.604 117.857 208.587C117.865 208.57 117.869 208.551 117.868 208.532C117.868 208.486 117.76 207.299 117.207 206.828C117.129 206.759 117.038 206.708 116.939 206.676C116.841 206.645 116.737 206.633 116.634 206.643C116.347 206.669 116.265 206.812 116.245 206.925C116.152 207.437 117.192 208.389 117.719 208.635C117.734 208.646 117.753 208.651 117.771 208.65C117.79 208.649 117.808 208.642 117.821 208.63ZM116.572 206.848H116.68C116.756 206.843 116.832 206.852 116.904 206.877C116.976 206.902 117.043 206.941 117.1 206.991C117.422 207.377 117.617 207.852 117.658 208.353C117.146 208.02 116.419 207.263 116.475 206.966C116.475 206.935 116.485 206.889 116.572 206.848Z" fill="#00A688"/>
<path d="M138.301 75.8682C138.813 76.4211 139.223 76.8922 139.658 77.44C140.093 77.9878 140.508 78.4896 140.918 79.0221C141.742 80.0922 142.52 81.1981 143.273 82.3399C144.854 84.6821 146.151 87.2033 147.139 89.8509C147.39 90.5851 147.597 91.334 147.758 92.0934C147.804 92.288 147.835 92.4979 147.871 92.6976L147.922 93.0048V93.1277C147.922 93.2198 147.922 93.312 147.953 93.4042C147.965 93.59 147.965 93.7764 147.953 93.9622C147.895 94.6107 147.679 95.235 147.323 95.7799C147.089 96.1399 146.805 96.4641 146.478 96.7424C146.054 97.0986 145.586 97.398 145.085 97.6333C144.703 97.8187 144.31 97.9811 143.908 98.1197C143.206 98.3602 142.49 98.5535 141.763 98.6982C140.411 98.9782 139.043 99.168 137.667 99.2666C136.326 99.3777 134.981 99.4119 133.637 99.369L133.207 96.0973C135.588 95.2934 138.056 94.5613 140.227 93.655C140.764 93.4298 141.281 93.1891 141.727 92.9587C141.921 92.854 142.109 92.7378 142.29 92.6106C142.438 92.5082 142.531 92.3955 142.484 92.4058C142.396 92.4668 142.321 92.5452 142.264 92.6362C142.084 92.91 141.976 93.2255 141.952 93.5526C141.952 93.6602 141.952 93.7677 141.952 93.8701V94.0288V94.0595V94.0288L141.906 93.865C141.875 93.7523 141.855 93.6448 141.814 93.5219C141.661 93.0323 141.48 92.5519 141.271 92.0832C140.825 91.0503 140.309 90.0495 139.725 89.088C139.126 88.064 138.46 87.0758 137.764 86.0877C137.068 85.0995 136.33 84.1114 135.588 83.1386L134.451 81.6947L133.32 80.3072L138.301 75.8682Z" fill="#FFB573"/>
<path d="M135.168 72.6733C139.182 72.7398 144.384 81.1469 144.384 81.1469L136.146 87.9923C136.146 87.9923 131.932 84.0141 130.437 80.1843C128.809 76.0115 130.289 72.5965 135.168 72.6733Z" fill="#00A688"/>
<path opacity="0.4" d="M135.168 72.6733C139.182 72.7398 144.384 81.1469 144.384 81.1469L136.146 87.9923C136.146 87.9923 131.932 84.0141 130.437 80.1843C128.809 76.0115 130.289 72.5965 135.168 72.6733Z" fill="white"/>
<path d="M130.56 71.808C130.56 71.808 129.418 74.6292 123.392 77.2096C124.585 78.0032 125.44 80.1895 125.44 80.1895C125.44 80.1895 133.294 76.8922 132.306 72.3559C131.758 72.0793 131.168 71.8943 130.56 71.808Z" fill="white"/>
<path d="M121.61 80.2253C121.61 80.2253 122.122 78.1108 123.407 77.2096C122.645 76.6362 121.329 74.752 121.677 73.1546C121.184 73.1938 120.699 73.3042 120.238 73.4823C120.238 73.4823 118.272 77.0048 121.61 80.2253Z" fill="white"/>
<path d="M131.297 102.876C131.143 102.874 130.993 102.823 130.869 102.731C130.745 102.64 130.653 102.511 130.606 102.364L118.702 68.8691C118.634 68.6858 118.642 68.483 118.724 68.3054C118.805 68.1278 118.954 67.9898 119.137 67.9219C119.321 67.854 119.523 67.8617 119.701 67.9434C119.879 68.025 120.017 68.1738 120.085 68.3571L131.989 101.888C132.021 101.979 132.035 102.075 132.03 102.171C132.026 102.268 132.002 102.362 131.96 102.449C131.919 102.536 131.861 102.614 131.789 102.679C131.718 102.743 131.634 102.793 131.543 102.825C131.464 102.854 131.381 102.872 131.297 102.876Z" fill="#263238"/>
<path d="M120.339 73.4849C124.991 71.8519 127.132 65.8868 125.122 60.1614C123.112 54.436 117.712 51.1184 113.06 52.7514C108.409 54.3844 106.267 60.3496 108.277 66.075C110.287 71.8004 115.688 75.1179 120.339 73.4849Z" fill="#263238"/>
<path d="M120.605 73.1927C125.065 71.6072 127.027 65.6695 124.987 59.9304C122.947 54.1914 117.677 50.8244 113.217 52.4099C108.757 53.9955 106.795 59.9332 108.835 65.6722C110.876 71.4112 116.145 74.7783 120.605 73.1927Z" fill="#00A688"/>
<path d="M111.421 64.7424C111.113 64.7353 110.81 64.66 110.533 64.5219C110.257 64.3838 110.015 64.1864 109.824 63.9437C109.808 63.9227 109.797 63.8987 109.791 63.8733C109.785 63.8479 109.784 63.8215 109.788 63.7956C109.793 63.7698 109.802 63.7452 109.816 63.7231C109.83 63.701 109.849 63.682 109.87 63.6672C109.913 63.6362 109.967 63.6231 110.019 63.6308C110.072 63.6384 110.119 63.6662 110.152 63.7082C110.371 63.9774 110.669 64.1722 111.003 64.2659C111.337 64.3595 111.693 64.3475 112.02 64.2315C112.347 64.1155 112.631 63.901 112.832 63.6176C113.033 63.3342 113.141 62.9957 113.142 62.6483C113.139 62.5948 113.157 62.5424 113.193 62.5022C113.228 62.462 113.278 62.4372 113.331 62.4333C113.358 62.4312 113.385 62.4345 113.41 62.4429C113.435 62.4514 113.459 62.4649 113.479 62.4825C113.499 62.5002 113.515 62.5217 113.527 62.5458C113.538 62.5699 113.545 62.596 113.546 62.6227C113.556 63.059 113.426 63.4871 113.176 63.8444C112.925 64.2018 112.567 64.4697 112.154 64.6093C111.92 64.6973 111.672 64.7424 111.421 64.7424Z" fill="white"/>
<path d="M119.614 61.8291C119.305 61.821 119.002 61.7452 118.726 61.6072C118.45 61.4692 118.208 61.2723 118.016 61.0304C117.986 60.9875 117.974 60.9345 117.982 60.8827C117.991 60.831 118.02 60.7847 118.062 60.7539C118.084 60.7382 118.108 60.7269 118.134 60.7207C118.16 60.7145 118.186 60.7135 118.213 60.7178C118.239 60.7221 118.264 60.7316 118.286 60.7457C118.309 60.7598 118.328 60.7783 118.344 60.8C118.564 61.0686 118.863 61.2627 119.197 61.3556C119.532 61.4486 119.888 61.436 120.215 61.3196C120.543 61.2031 120.827 60.9885 121.028 60.7049C121.229 60.4213 121.337 60.0827 121.339 59.7351C121.337 59.7084 121.34 59.6816 121.349 59.6563C121.357 59.6309 121.371 59.6075 121.388 59.5875C121.406 59.5674 121.427 59.5511 121.451 59.5395C121.476 59.5279 121.502 59.5213 121.528 59.52C121.555 59.5179 121.581 59.5212 121.606 59.5297C121.631 59.5383 121.655 59.5518 121.674 59.5695C121.694 59.5873 121.71 59.6088 121.721 59.6329C121.732 59.6569 121.738 59.683 121.738 59.7095C121.748 60.1451 121.619 60.5727 121.37 60.93C121.12 61.2872 120.763 61.5556 120.351 61.696C120.115 61.7837 119.865 61.8288 119.614 61.8291Z" fill="white"/>
<path d="M115.369 68.5261C115.317 68.5263 115.267 68.5068 115.229 68.4717C115.191 68.4365 115.168 68.3883 115.164 68.3367C115.161 67.7301 115.346 67.1374 115.694 66.6409C116.043 66.1444 116.537 65.7685 117.109 65.5654C117.68 65.3623 118.301 65.342 118.885 65.5074C119.468 65.6728 119.986 66.0156 120.366 66.4883C120.382 66.5098 120.393 66.5341 120.399 66.5599C120.405 66.5858 120.406 66.6126 120.402 66.6388C120.398 66.6651 120.388 66.6902 120.374 66.7127C120.36 66.7352 120.342 66.7547 120.32 66.7699C120.276 66.8004 120.222 66.8126 120.17 66.804C120.117 66.7954 120.07 66.7667 120.038 66.7239C119.71 66.3218 119.265 66.0311 118.765 65.8914C118.265 65.7518 117.734 65.7701 117.245 65.9439C116.755 66.1176 116.332 66.4383 116.032 66.862C115.732 67.2858 115.57 67.7919 115.569 68.3111C115.571 68.3646 115.553 68.417 115.518 68.4572C115.482 68.4974 115.433 68.5222 115.379 68.5261H115.369Z" fill="white"/>
<path d="M110.229 61.9981C110.201 61.9976 110.174 61.9897 110.151 61.9753C110.127 61.9609 110.108 61.9405 110.095 61.9161C110.087 61.8987 110.081 61.8796 110.08 61.8601C110.079 61.8406 110.081 61.821 110.087 61.8025C110.093 61.7839 110.103 61.7668 110.116 61.752C110.129 61.7372 110.144 61.7252 110.162 61.7165C110.839 61.3154 111.426 60.7786 111.886 60.1398C112.346 59.501 112.669 58.774 112.835 58.0045C112.838 57.9848 112.845 57.966 112.855 57.9491C112.866 57.9323 112.879 57.9177 112.896 57.9062C112.912 57.8947 112.93 57.8867 112.95 57.8824C112.969 57.8782 112.989 57.8779 113.009 57.8816C113.048 57.8902 113.082 57.9138 113.104 57.9472C113.126 57.9807 113.134 58.0215 113.126 58.0608C112.959 58.8772 112.621 59.6488 112.134 60.3249C111.647 61.0009 111.022 61.5659 110.3 61.9827C110.278 61.9927 110.253 61.9979 110.229 61.9981Z" fill="white"/>
<path d="M119.214 58.5626C117.845 58.5756 116.516 58.104 115.461 57.2314C115.431 57.2056 115.412 57.1687 115.408 57.1288C115.405 57.089 115.417 57.0494 115.443 57.0189C115.469 56.9883 115.506 56.9693 115.546 56.9659C115.586 56.9626 115.625 56.9752 115.656 57.001C116.268 57.4957 116.977 57.8572 117.737 58.0627C118.497 58.2681 119.291 58.3128 120.069 58.1939C120.088 58.1899 120.108 58.1897 120.127 58.1933C120.147 58.1969 120.165 58.2043 120.181 58.215C120.198 58.2256 120.212 58.2395 120.223 58.2556C120.234 58.2718 120.242 58.29 120.246 58.3091C120.25 58.3283 120.25 58.3481 120.247 58.3673C120.243 58.3866 120.236 58.4049 120.225 58.4213C120.214 58.4377 120.2 58.4518 120.184 58.4629C120.168 58.474 120.15 58.4817 120.131 58.4858C119.828 58.5417 119.521 58.5674 119.214 58.5626Z" fill="white"/>
<path d="M123.392 63.7594C123.177 63.7429 122.972 63.6587 122.808 63.5189C122.643 63.3792 122.527 63.1909 122.476 62.9812C122.366 62.3879 122.469 61.775 122.767 61.2506C122.788 61.2179 122.819 61.1941 122.856 61.1836C122.893 61.1732 122.933 61.177 122.967 61.1943C123.5 61.4755 123.918 61.9361 124.145 62.4948C124.235 62.7304 124.229 62.9923 124.127 63.2234C124.026 63.4545 123.837 63.6361 123.602 63.7287C123.534 63.7493 123.463 63.7596 123.392 63.7594ZM122.962 61.5424C122.746 61.9599 122.678 62.438 122.767 62.8992C122.77 62.9896 122.793 63.0781 122.835 63.1581C122.877 63.2381 122.936 63.3074 123.01 63.3606C123.083 63.4137 123.167 63.4494 123.256 63.4647C123.345 63.4801 123.436 63.4747 123.523 63.4491C123.61 63.4235 123.689 63.3782 123.756 63.3169C123.822 63.2556 123.873 63.1799 123.906 63.0955C123.938 63.0112 123.951 62.9205 123.942 62.8305C123.934 62.7406 123.905 62.6537 123.858 62.5767C123.687 62.1441 123.377 61.7803 122.977 61.5424H122.962Z" fill="white"/>
<path d="M126.976 98.5037L127.381 99.4202C127.508 99.7083 127.712 99.956 127.97 100.136C128.228 100.317 128.531 100.423 128.845 100.444L131.169 100.603L130.427 95.3856L128.026 96.1587C127.795 96.2327 127.582 96.3545 127.402 96.5162C127.221 96.6778 127.076 96.8757 126.977 97.0969C126.878 97.3182 126.827 97.5578 126.827 97.8002C126.827 98.0426 126.878 98.2823 126.976 98.5037Z" fill="#FFB573"/>
<path d="M134.876 95.872L130.437 95.36L131.18 100.577C131.18 100.577 135.276 100.536 135.675 98.3961L134.876 95.872Z" fill="#FFB573"/>
</svg>
