<svg width="256" height="256" viewBox="0 0 256 256" fill="none" xmlns="http://www.w3.org/2000/svg">
<path d="M256 195.789H0V195.917H256V195.789Z" fill="#EBEBEB"/>
<path d="M230.349 204.027H213.391V204.155H230.349V204.027Z" fill="#EBEBEB"/>
<path d="M169.585 205.419H165.135V205.547H169.585V205.419Z" fill="#EBEBEB"/>
<path d="M212.879 199.276H203.054V199.404H212.879V199.276Z" fill="#EBEBEB"/>
<path d="M48.9728 200.136H26.8595V200.264H48.9728V200.136Z" fill="#EBEBEB"/>
<path d="M56.7756 200.136H53.5347V200.264H56.7756V200.136Z" fill="#EBEBEB"/>
<path d="M115.277 202.296H67.3126V202.424H115.277V202.296Z" fill="#EBEBEB"/>
<path d="M222.561 36.8486H64.4865V109.681H222.561V36.8486Z" fill="#E6E6E6"/>
<path d="M226.97 36.8486H65.5104V109.681H226.97V36.8486Z" fill="#F0F0F0"/>
<path d="M222.561 109.681H64.4865V111.652H224.62L222.561 109.681Z" fill="#E6E6E6"/>
<path d="M229.023 109.681H69.1506L70.0978 111.652H229.975L229.023 109.681Z" fill="#F0F0F0"/>
<path d="M223.841 106.383V40.1561L68.6388 40.1561V106.383L223.841 106.383Z" fill="#FAFAFA"/>
<path d="M92.1753 106.378L114.217 40.151H135.27L113.224 106.378H92.1753Z" fill="white"/>
<path d="M117.75 106.378L139.791 40.151H147.999L125.952 106.378H117.75Z" fill="white"/>
<path d="M223.841 106.383V40.1561H223.007V106.383H223.841Z" fill="#E6E6E6"/>
<path d="M34.816 195.789H43.3459L43.3459 142.961H34.816L34.816 195.789Z" fill="#F0F0F0"/>
<path d="M146.662 142.956H43.3459V195.784H146.662V142.956Z" fill="#F5F5F5"/>
<path d="M147.343 167.741H53.1405V190.024H147.343V167.741Z" fill="#FAFAFA"/>
<path d="M147.343 152.448H53.1405V164.014H147.343V152.448Z" fill="#FAFAFA"/>
<g style="mix-blend-mode:multiply" opacity="0.7">
<path d="M52.5568 190.019H53.1405V167.736H52.5568V190.019Z" fill="#E6E6E6"/>
</g>
<g style="mix-blend-mode:multiply" opacity="0.7">
<path d="M52.5568 164.014H53.1405V152.448H52.5568V164.014Z" fill="#E6E6E6"/>
</g>
<g style="mix-blend-mode:multiply" opacity="0.7">
<path d="M34.8108 147.21H146.852V145.725H34.8108V147.21Z" fill="#E6E6E6"/>
</g>
<path d="M33.8125 146.355H43.3408V142.06H33.8125V146.355Z" fill="#F0F0F0"/>
<path d="M147.661 142.059H43.3459V146.355H147.661V142.059Z" fill="#F5F5F5"/>
<path d="M198.81 182.513C198.087 180.864 197.524 179.149 197.13 177.393C196.711 175.626 196.395 173.836 196.183 172.032C195.759 168.43 195.655 164.798 195.871 161.178C196.313 153.928 197.755 146.774 200.156 139.919L201.078 137.359L202.076 134.84C202.414 134.006 202.788 133.181 203.162 132.362C203.535 131.543 203.889 130.709 204.293 129.905C205.128 128.302 205.886 126.669 206.807 125.123L208.143 122.778L209.582 120.499C213.401 114.428 218.007 108.887 223.278 104.023C222.561 105.677 221.799 107.279 221.015 108.861C220.232 110.444 219.479 112.041 218.732 113.623C217.237 116.792 215.721 119.916 214.318 123.075L213.253 125.44L212.229 127.811C211.533 129.382 210.898 130.98 210.238 132.557L209.29 134.943C208.973 135.741 208.655 136.53 208.379 137.339L207.473 139.735L206.638 142.152C204.393 148.592 202.582 155.176 201.216 161.859C200.535 165.207 199.957 168.591 199.552 172.027C199.099 175.505 198.851 179.006 198.81 182.513Z" fill="#E6E6E6"/>
<path d="M165.192 170.132C165.705 164.228 165.564 158.285 164.772 152.412C164.695 151.7 164.562 150.989 164.444 150.282C164.327 149.576 164.209 148.869 164.071 148.173C163.932 147.476 163.774 146.775 163.62 146.079L163.39 145.055L163.118 144.031C162.422 141.283 161.55 138.582 160.507 135.946C158.4 130.617 155.742 125.522 152.576 120.745L151.378 118.912C150.958 118.318 150.523 117.724 150.113 117.115L149.468 116.224C149.258 115.922 149.023 115.64 148.808 115.338L147.482 113.546C147.062 112.922 146.57 112.363 146.12 111.764C145.669 111.165 145.198 110.577 144.748 109.962C143.8 108.78 142.838 107.597 141.932 106.322C147.543 109.058 152.589 112.828 156.805 117.432C161.151 122.082 164.58 127.51 166.912 133.432C169.252 139.393 170.354 145.767 170.153 152.166C170.045 155.324 169.595 158.46 168.812 161.521C168.411 163.034 167.919 164.522 167.337 165.975C166.764 167.429 166.045 168.822 165.192 170.132Z" fill="#E6E6E6"/>
<path d="M166.733 170.132C166.83 166.497 166.84 162.939 166.758 159.38C166.677 155.822 166.538 152.335 166.246 148.854C165.745 141.948 164.77 135.085 163.328 128.312C162.944 126.638 162.591 124.948 162.12 123.295C161.731 121.62 161.198 119.987 160.732 118.323C159.708 115.046 158.587 111.78 157.292 108.564C154.732 102.103 151.501 95.8976 147.999 89.5078C150.863 91.7802 153.483 94.3437 155.817 97.1571C158.187 99.9778 160.301 103.004 162.135 106.199L163.482 108.621C163.917 109.435 164.291 110.28 164.7 111.114L165.299 112.363C165.499 112.783 165.658 113.219 165.837 113.643L166.886 116.203C167.511 117.944 168.136 119.695 168.648 121.472C169.16 123.249 169.595 125.056 170.03 126.848C171.57 134.07 172.106 141.47 171.622 148.838C171.378 152.493 170.865 156.124 170.086 159.703C169.697 161.485 169.231 163.256 168.684 164.997C168.153 166.752 167.501 168.468 166.733 170.132Z" fill="#E6E6E6"/>
<path d="M196.972 174.5C196.06 172.416 195.226 170.296 194.463 168.166C194.074 167.096 193.71 166.026 193.336 164.956L192.312 161.725C190.945 157.404 189.752 153.021 188.677 148.649C186.552 139.847 184.923 130.933 183.798 121.948C182.677 112.947 182.138 103.883 182.185 94.8121C182.24 92.5457 182.318 90.2758 182.42 88.0025C182.472 85.7395 182.758 83.4713 182.958 81.2083C183.158 78.9453 183.404 76.6925 183.834 74.4499C184.264 72.2073 184.643 69.975 185.124 67.7581C185.994 76.8256 186.66 85.6781 187.571 94.5715C188.483 103.465 189.501 112.276 190.602 121.114L193.961 147.676C195.072 156.554 196.168 165.443 196.972 174.5Z" fill="#E6E6E6"/>
<path d="M195.476 173.056C194.401 171.064 193.398 169.032 192.461 166.979C191.985 165.955 191.534 164.931 191.073 163.907L189.757 160.768C188.037 156.6 186.481 152.376 185.021 148.111C182.142 139.573 179.726 130.885 177.782 122.086C175.828 113.264 174.421 104.33 173.568 95.3344C173.39 93.0816 173.235 90.8271 173.102 88.5709C172.933 86.3232 172.974 84.0499 172.933 81.792C172.892 79.5341 172.902 77.2762 173.076 75.008C173.251 72.7399 173.384 70.4922 173.619 68.2445C175.503 77.1175 177.091 85.8419 178.903 94.5511C180.715 103.26 182.548 111.923 184.463 120.597L190.193 146.657C192.072 155.377 193.946 164.111 195.476 173.056Z" fill="#E6E6E6"/>
<path d="M201.329 184.279C200.028 182.654 198.796 180.987 197.632 179.277C197.043 178.427 196.47 177.562 195.901 176.717L194.243 174.08C193.142 172.324 192.113 170.537 191.078 168.75C190.566 167.859 190.08 166.948 189.583 166.042C189.087 165.135 188.595 164.229 188.119 163.313C184.321 155.978 180.989 148.411 178.145 140.657C175.281 132.893 172.982 124.933 171.264 116.838C170.865 114.79 170.484 112.754 170.122 110.73C169.764 108.682 169.554 106.634 169.293 104.586L168.96 101.514C168.863 100.49 168.827 99.4406 168.781 98.4064C168.678 96.3345 168.632 94.2626 168.643 92.1907C171.423 100.029 173.763 107.781 176.466 115.446C179.169 123.11 181.76 130.714 184.586 138.307L193.024 161.131C195.855 168.771 198.712 176.404 201.329 184.279Z" fill="#E6E6E6"/>
<path d="M192.512 171.407C191.21 170.005 189.982 168.537 188.831 167.009C187.653 165.504 186.578 163.937 185.482 162.371C184.387 160.804 183.388 159.186 182.41 157.553C181.898 156.739 181.443 155.919 180.961 155.095C180.48 154.271 179.994 153.452 179.558 152.607C178.668 150.922 177.746 149.253 176.917 147.538C176.087 145.823 175.283 144.097 174.474 142.372C173.665 140.646 173 138.86 172.257 137.103L171.745 135.777L171.233 134.436L170.25 131.753C168.924 128.169 167.875 124.508 166.81 120.847C166.359 118.994 165.883 117.146 165.458 115.287C165.258 114.355 165.002 113.439 164.838 112.497L164.326 109.681C164.152 108.744 164.004 107.802 163.845 106.86C163.686 105.917 163.502 104.991 163.42 104.033C163.205 102.135 163.014 100.238 162.847 98.3398C162.78 97.3875 162.662 96.4454 162.637 95.488C162.611 94.5305 162.581 93.5782 162.575 92.6259C162.545 90.7178 162.567 88.8098 162.642 86.9017C165.202 94.1363 167.153 101.315 169.559 108.375C170.634 111.959 171.909 115.425 173.025 118.958L174.853 124.211C175.155 125.087 175.427 125.972 175.739 126.843L176.696 129.454C177.894 132.961 179.231 136.417 180.48 139.914C181.14 141.65 181.811 143.375 182.441 145.126L184.428 150.344L188.452 160.814C189.829 164.311 191.186 167.823 192.512 171.407Z" fill="#E6E6E6"/>
<path d="M199.557 179.64C198.528 178.239 197.648 176.734 196.931 175.15C196.192 173.569 195.554 171.943 195.021 170.281C193.97 166.946 193.244 163.516 192.855 160.041C192.463 156.562 192.351 153.057 192.522 149.56C192.578 147.809 192.778 146.074 192.947 144.333C193.116 142.592 193.423 140.872 193.756 139.162C195.067 132.334 197.229 125.698 200.192 119.409C203.06 113.133 206.768 107.276 211.215 102.001C210.755 103.67 210.253 105.306 209.71 106.911C209.224 108.544 208.686 110.141 208.174 111.739L206.669 116.531C206.213 118.139 205.645 119.706 205.23 121.303C203.337 127.589 201.759 133.967 200.504 140.411C199.876 143.613 199.374 146.826 198.999 150.052C198.624 153.277 198.368 156.52 198.231 159.78C198.108 163.041 198.129 166.323 198.328 169.626C198.498 172.989 198.909 176.336 199.557 179.64Z" fill="#E6E6E6"/>
<path d="M196.89 170.199C196.013 168.642 195.234 167.031 194.56 165.376C193.864 163.722 193.265 162.038 192.702 160.338C191.602 156.92 190.731 153.432 190.095 149.898C189.459 146.344 189.05 142.753 188.872 139.146C188.836 138.245 188.821 137.339 188.8 136.433C188.78 135.526 188.8 134.62 188.8 133.714C188.8 132.808 188.867 131.901 188.913 130.995C188.959 130.089 189.01 129.183 189.107 128.276C189.205 127.37 189.287 126.464 189.409 125.563L189.804 122.86C189.952 121.958 190.157 121.068 190.316 120.172C190.408 119.726 190.49 119.276 190.587 118.835C190.684 118.395 190.812 117.944 190.93 117.504C191.8 113.954 193 110.493 194.514 107.167C197.509 100.511 201.856 94.4486 207.365 89.8713C206.986 90.6957 206.572 91.479 206.188 92.2777L205.583 93.4451L205.036 94.6483L203.93 97.0086L202.931 99.3997C201.636 102.551 200.525 105.776 199.603 109.056L199.24 110.269L198.938 111.498C198.733 112.317 198.497 113.126 198.313 113.951C198.129 114.775 197.97 115.599 197.775 116.419C197.581 117.238 197.463 118.072 197.304 118.902C197.228 119.311 197.156 119.726 197.069 120.141C196.982 120.555 196.941 120.97 196.874 121.385C196.751 122.22 196.603 123.049 196.506 123.889L196.183 126.392C196.081 127.232 196.024 128.077 195.937 128.916C195.85 129.756 195.779 130.596 195.722 131.441C195.666 132.285 195.594 133.13 195.564 133.975C195.533 134.82 195.456 135.67 195.436 136.535C195.415 137.4 195.4 138.235 195.359 139.095C195.287 142.5 195.328 145.915 195.436 149.335C195.656 156.186 196.199 163.092 196.89 170.199Z" fill="#E6E6E6"/>
<path d="M189.86 163.205L167.363 118.825L168.264 162.345L189.86 163.205Z" fill="#E6E6E6"/>
<path d="M207.176 151.373H161.951L167.869 195.789H201.252L207.176 151.373Z" fill="#F5F5F5"/>
<path d="M178.923 151.373H161.951L167.869 195.789H176.783L178.923 151.373Z" fill="#EBEBEB"/>
<path d="M64.5683 135.511H49.8893V142.059H64.5683V135.511Z" fill="#E0E0E0"/>
<path d="M97.9968 142.059H64.5683V135.511H97.9968C98.229 135.511 98.4517 135.603 98.6159 135.767C98.7801 135.932 98.8723 136.154 98.8723 136.387V141.189C98.871 141.42 98.7781 141.642 98.6141 141.805C98.45 141.968 98.2281 142.059 97.9968 142.059Z" fill="#F0F0F0"/>
<path d="M63.5853 136.361H49.8893V141.204H63.5853V136.361Z" fill="#F0F0F0"/>
<path d="M67.5225 130.729H52.8435V135.506H67.5225V130.729Z" fill="#E6E6E6"/>
<path d="M93.5066 135.511H67.5226V130.734H93.5066C93.7388 130.734 93.9615 130.826 94.1257 130.99C94.2898 131.155 94.3821 131.377 94.3821 131.61V134.656C94.3767 134.885 94.2821 135.102 94.1185 135.262C93.9549 135.422 93.7353 135.511 93.5066 135.511Z" fill="#FAFAFA"/>
<path d="M85.9392 130.729H74.8032V135.506H85.9392V130.729Z" fill="#F5F5F5"/>
<path d="M66.5395 131.584H52.8435V134.656H66.5395V131.584Z" fill="#F5F5F5"/>
<path d="M128 218.911C182.826 218.911 227.272 216.316 227.272 213.115C227.272 209.914 182.826 207.319 128 207.319C73.1737 207.319 28.7283 209.914 28.7283 213.115C28.7283 216.316 73.1737 218.911 128 218.911Z" fill="#F5F5F5"/>
<path d="M189.604 77.2608C190.869 73.1648 177.931 72.2329 174.812 79.5904C170.445 89.8969 176.814 95.6928 176.814 95.6928C180.526 93.7011 187.787 93.4041 191.755 94.72L189.604 77.2608Z" fill="#263238"/>
<path d="M190.602 208.886L186.609 209.039L186.588 204.723L190.577 204.57L190.602 208.886Z" fill="#B55B52"/>
<path d="M186.45 208.215H190.976C191.057 208.215 191.135 208.242 191.198 208.291C191.262 208.34 191.308 208.409 191.329 208.486L192.312 212.07C192.337 212.155 192.342 212.244 192.326 212.33C192.31 212.417 192.274 212.498 192.221 212.568C192.167 212.638 192.098 212.694 192.019 212.732C191.94 212.77 191.853 212.789 191.765 212.787C190.183 212.756 189.415 212.664 187.428 212.664C186.204 212.664 183.05 212.792 181.361 212.792C179.671 212.792 179.364 211.123 180.05 210.975C183.122 210.294 184.873 209.362 185.82 208.471C185.989 208.308 186.215 208.216 186.45 208.215Z" fill="#F99942"/>
<path opacity="0.2" d="M186.588 204.728L186.599 206.95L190.592 206.971L190.582 204.57L186.588 204.728Z" fill="black"/>
<path d="M177.464 124.836C176.814 129.751 179.031 153.068 180.9 163.236C183.383 176.748 185.733 206.044 185.733 206.044L191.114 205.722C191.114 205.722 191.765 173.604 190.116 162.714C190.008 148.424 190.264 123.397 190.264 123.397L177.464 124.836Z" fill="#263238"/>
<path opacity="0.2" d="M190.141 138.972C190.141 135.347 187.459 132.485 186.788 139.407C186.363 143.816 188.078 151.209 190.09 156.329C190.085 150.753 190.111 144.507 190.141 138.972Z" fill="black"/>
<path d="M214.359 209.331L210.698 209.428L208.973 204.436L212.639 204.339L214.359 209.331Z" fill="#B55B52"/>
<path d="M214.272 208.215H209.756C209.721 208.212 209.685 208.218 209.652 208.231C209.618 208.244 209.588 208.264 209.564 208.29C209.539 208.316 209.521 208.347 209.51 208.381C209.499 208.415 209.496 208.451 209.5 208.486L209.833 212.07C209.868 212.264 209.967 212.441 210.115 212.571C210.263 212.701 210.45 212.777 210.647 212.787C212.214 212.756 212.951 212.664 214.938 212.664C216.161 212.664 217.769 212.792 219.459 212.792C221.148 212.792 220.841 211.123 220.104 210.975C216.791 210.294 216.274 209.362 214.984 208.471C214.778 208.316 214.53 208.227 214.272 208.215Z" fill="#F99942"/>
<path opacity="0.2" d="M208.978 204.442L209.864 207.012L213.601 207.119L212.644 204.339L208.978 204.442Z" fill="black"/>
<path d="M183.608 124.145C183.608 124.145 191.908 154.532 196.076 163.497C198.784 177.347 208.476 206.372 208.476 206.372L214.108 205.983C214.108 205.983 207.964 176.614 204.186 162.975C202.138 150.303 200.801 129.183 194.97 122.865L183.608 124.145Z" fill="#263238"/>
<path d="M175.565 102.236C175.457 104.796 175.237 107.279 174.935 109.793C174.633 112.307 174.264 114.796 173.778 117.289L173.589 118.226L173.486 118.738C173.422 119.04 173.325 119.334 173.194 119.613C172.997 120.054 172.692 120.437 172.309 120.73C171.831 121.079 171.251 121.26 170.66 121.242C170.276 121.227 169.898 121.143 169.544 120.996C169.299 120.894 169.065 120.771 168.842 120.627C168.199 120.189 167.613 119.673 167.096 119.091C166.63 118.579 166.205 118.067 165.801 117.555C164.258 115.51 162.888 113.34 161.705 111.068C161.581 110.829 161.549 110.552 161.616 110.29C161.682 110.028 161.843 109.8 162.066 109.649C162.29 109.498 162.562 109.435 162.829 109.471C163.097 109.507 163.342 109.64 163.517 109.845C165.094 111.708 166.687 113.618 168.356 115.297C168.766 115.717 169.185 116.122 169.605 116.48C169.954 116.802 170.338 117.082 170.752 117.315C170.819 117.34 170.88 117.371 170.885 117.361C170.89 117.35 170.854 117.325 170.675 117.309C170.398 117.305 170.126 117.391 169.902 117.555C169.76 117.653 169.643 117.783 169.559 117.934C169.528 118.001 169.559 117.934 169.559 117.934L169.621 117.509L169.749 116.603C170.071 114.191 170.327 111.754 170.563 109.317C170.798 106.88 170.977 104.412 171.141 102.006V101.975C171.174 101.389 171.438 100.84 171.875 100.449C172.313 100.058 172.887 99.8561 173.473 99.8887C174.059 99.9213 174.608 100.185 175 100.623C175.391 101.06 175.592 101.635 175.56 102.221L175.565 102.236Z" fill="#B55B52"/>
<path d="M173.686 98.816C169.887 100.675 170.481 105.6 170.481 105.6L176.558 109.88C176.558 109.88 178.78 104.53 178.319 101.965C177.843 99.328 176.502 97.4592 173.686 98.816Z" fill="#F99942"/>
<path opacity="0.2" d="M173.056 102.943C173.947 101.54 175.478 101.878 177.26 102.994C177.674 103.353 178.021 103.783 178.284 104.264C177.902 106.191 177.336 108.077 176.594 109.896L172.309 106.88C172.138 105.522 172.4 104.144 173.056 102.943Z" fill="black"/>
<path d="M163.804 110.541L162.898 107.074L159.826 109.839C159.826 109.839 160.937 111.693 162.724 111.944L163.804 110.541Z" fill="#B55B52"/>
<path d="M160.543 105.661L159.918 106.281C159.444 106.746 159.168 107.376 159.15 108.04C159.132 108.704 159.372 109.349 159.821 109.839L162.893 107.075L162.033 105.81C161.952 105.692 161.847 105.593 161.724 105.521C161.602 105.448 161.464 105.403 161.322 105.389C161.18 105.374 161.037 105.392 160.902 105.439C160.768 105.486 160.645 105.562 160.543 105.661Z" fill="#B55B52"/>
<path d="M162.099 105.897C161.323 104.856 160.62 103.763 159.995 102.625C159.8 102.236 159.171 102.779 159.483 103.347C159.795 103.915 160.374 105.769 160.988 106.445C161.603 107.121 162.099 105.897 162.099 105.897Z" fill="#B55B52"/>
<path d="M172.278 101.627C173.358 111.519 176.584 118.415 177.465 124.836L194.944 122.88C193.956 116.454 193.454 112.251 194.683 100.352C194.737 99.8345 194.683 99.3114 194.524 98.8161C194.365 98.3208 194.104 97.864 193.759 97.4748C193.414 97.0857 192.991 96.7727 192.518 96.5558C192.045 96.3389 191.532 96.2228 191.012 96.215C189.947 96.215 188.77 96.215 187.582 96.2918C184.918 96.3969 182.266 96.6946 179.646 97.1826C177.803 97.5615 175.842 98.094 174.439 98.5036C173.771 98.6916 173.191 99.1064 172.796 99.6764C172.402 100.246 172.219 100.936 172.278 101.627Z" fill="#F99942"/>
<path d="M179.646 97.1725C179.646 97.1725 176.84 100.209 181.023 104.34C182.58 101.194 184.821 98.4352 187.582 96.2662L179.646 97.1725Z" fill="white"/>
<path d="M185.795 87.4291C185.58 90.0403 185.605 94.7763 187.582 96.2816C187.582 96.2816 183.214 98.6572 180.859 102.835C177.787 99.7632 179.646 97.1724 179.646 97.1724C182.415 96.1484 182.108 94.0646 181.386 92.1395L185.795 87.4291Z" fill="#B55B52"/>
<path opacity="0.2" d="M185.314 87.9462C185.446 89.4697 185.253 91.004 184.745 92.4466C184.392 93.4399 183.173 94.0082 181.883 94.2489C181.821 93.5237 181.649 92.8123 181.371 92.1394L185.314 87.9462Z" fill="black"/>
<path d="M189.502 83.7786C188.744 88.0077 188.508 89.815 186.102 91.7504C182.477 94.6586 177.449 92.8 176.932 88.4275C176.466 84.4902 177.792 78.2336 182.16 77.0253C183.122 76.7549 184.137 76.7351 185.11 76.9677C186.082 77.2004 186.978 77.6777 187.714 78.3544C188.45 79.0311 189 79.8847 189.313 80.8341C189.626 81.7834 189.691 82.797 189.502 83.7786Z" fill="#B55B52"/>
<path d="M186.24 80.384C185.216 82.647 186.112 86.487 189.358 86.2515C186.732 89.2467 187.356 95.8156 187.356 95.8156C188.999 95.9328 190.64 95.5774 192.087 94.7916C192.087 94.7916 191.063 88.5811 192.143 84.224C193.024 80.6809 192.896 73.8048 185.216 75.2998C184.32 75.4739 178.483 77.0048 177.895 80.0716C177.848 80.3481 184.126 82.1657 186.24 80.384Z" fill="#263238"/>
<path d="M190.464 86.1799C190.373 86.5812 190.204 86.9606 189.966 87.2963C189.727 87.6319 189.425 87.9172 189.077 88.1357C188.14 88.7143 187.366 87.9514 187.372 86.9069C187.372 85.9648 187.884 84.5312 188.933 84.3776C189.166 84.3471 189.403 84.3755 189.623 84.4601C189.842 84.5448 190.037 84.683 190.189 84.8622C190.341 85.0414 190.446 85.2559 190.494 85.486C190.542 85.7162 190.532 85.9547 190.464 86.1799Z" fill="#B55B52"/>
<path opacity="0.2" d="M191.934 103.188C191.866 104.062 192.029 104.938 192.407 105.729C192.784 106.519 193.362 107.197 194.084 107.694C194.176 105.923 194.33 103.936 194.555 101.652C193.664 100.695 192.144 101.53 191.934 103.188Z" fill="black"/>
<path d="M195.072 121.82L196.035 123.295C196.111 123.412 195.983 123.551 195.779 123.571L177.449 125.619C177.29 125.619 177.152 125.573 177.132 125.476L176.794 123.94C176.794 123.832 176.901 123.725 177.07 123.704L194.775 121.718C194.829 121.708 194.885 121.712 194.937 121.73C194.989 121.748 195.036 121.779 195.072 121.82Z" fill="#263238"/>
<path d="M192.937 124.068L193.413 124.012C193.505 124.012 193.572 123.945 193.562 123.889L193.111 121.876C193.111 121.82 193.009 121.779 192.912 121.789L192.44 121.846C192.343 121.846 192.277 121.912 192.292 121.969L192.743 123.976C192.753 124.037 192.845 124.078 192.937 124.068Z" fill="#F99942"/>
<path d="M178.821 125.65L179.292 125.599C179.39 125.599 179.456 125.527 179.441 125.471L178.99 123.464C178.99 123.402 178.888 123.366 178.796 123.377L178.319 123.428C178.227 123.428 178.161 123.494 178.171 123.556L178.622 125.563C178.637 125.619 178.724 125.66 178.821 125.65Z" fill="#F99942"/>
<path d="M185.856 124.856L186.332 124.805C186.424 124.805 186.491 124.739 186.481 124.677L186.03 122.67C186.03 122.614 185.928 122.573 185.836 122.583L185.359 122.634C185.267 122.634 185.201 122.701 185.211 122.762L185.662 124.769C185.697 124.831 185.784 124.867 185.856 124.856Z" fill="#F99942"/>
<path d="M182.272 84.2085C182.231 84.5567 182.016 84.8178 181.791 84.7922C181.566 84.7666 181.412 84.4594 181.453 84.1164C181.494 83.7733 181.709 83.5071 181.939 83.5327C182.17 83.5583 182.328 83.8655 182.272 84.2085Z" fill="#263238"/>
<path d="M178.366 83.7479C178.325 84.096 178.11 84.3571 177.884 84.3315C177.659 84.3059 177.505 83.9987 177.546 83.6557C177.587 83.3127 177.802 83.0464 178.058 83.072C178.314 83.0976 178.407 83.4048 178.366 83.7479Z" fill="#263238"/>
<path d="M178.13 83.1027L177.321 82.7648C177.321 82.7648 177.664 83.456 178.13 83.1027Z" fill="#263238"/>
<path d="M179.333 84.48C178.931 85.2275 178.428 85.9165 177.838 86.528C178 86.6751 178.192 86.7848 178.401 86.8494C178.61 86.914 178.83 86.9319 179.047 86.9017L179.333 84.48Z" fill="#A02724"/>
<path d="M180.019 88.1255C180.003 88.1143 179.99 88.0988 179.982 88.0808C179.974 88.0627 179.971 88.0427 179.973 88.0231C179.975 88.0096 179.98 87.9966 179.987 87.9848C179.994 87.9731 180.003 87.9629 180.014 87.9548C180.025 87.9467 180.037 87.9408 180.051 87.9376C180.064 87.9344 180.078 87.9339 180.091 87.936C180.519 88.0109 180.959 87.9835 181.374 87.8563C181.79 87.7291 182.169 87.5056 182.482 87.2039C182.491 87.1938 182.502 87.1856 182.514 87.1798C182.527 87.1739 182.54 87.1705 182.553 87.1698C182.567 87.1691 182.581 87.1711 182.593 87.1756C182.606 87.1801 182.618 87.1871 182.628 87.1962C182.638 87.2053 182.646 87.2163 182.652 87.2285C182.658 87.2407 182.661 87.254 182.662 87.2676C182.663 87.2811 182.661 87.2947 182.656 87.3075C182.652 87.3203 182.645 87.332 182.636 87.3421C182.303 87.6695 181.898 87.9128 181.452 88.0517C181.007 88.1906 180.535 88.2212 180.076 88.1408L180.019 88.1255Z" fill="#263238"/>
<path d="M184.151 82.3859C184.12 82.3702 184.095 82.3451 184.08 82.3142C183.955 82.0884 183.778 81.8952 183.565 81.7502C183.351 81.6052 183.107 81.5125 182.851 81.4797C182.796 81.4797 182.744 81.4581 182.706 81.4197C182.668 81.3813 182.646 81.3292 182.646 81.2749C182.646 81.2206 182.668 81.1685 182.706 81.1301C182.744 81.0916 182.796 81.0701 182.851 81.0701C183.174 81.1047 183.484 81.2157 183.755 81.3937C184.027 81.5718 184.252 81.8118 184.412 82.0941C184.426 82.1172 184.435 82.1429 184.439 82.1697C184.443 82.1964 184.442 82.2236 184.435 82.2498C184.428 82.276 184.417 82.3006 184.401 82.3222C184.384 82.3438 184.364 82.362 184.341 82.3757C184.312 82.3914 184.28 82.4005 184.247 82.4022C184.214 82.404 184.182 82.3984 184.151 82.3859Z" fill="#263238"/>
<path d="M177.331 81.7101L177.301 81.6845C177.281 81.6659 177.266 81.6436 177.256 81.6189C177.245 81.5943 177.24 81.5678 177.24 81.5411C177.24 81.5144 177.245 81.4879 177.256 81.4633C177.266 81.4386 177.281 81.4164 177.301 81.3977C177.506 81.1449 177.769 80.9448 178.067 80.8139C178.366 80.683 178.691 80.6251 179.016 80.6451C179.07 80.6519 179.12 80.68 179.153 80.7232C179.187 80.7664 179.202 80.8212 179.195 80.8755C179.188 80.9298 179.16 80.9792 179.117 81.0128C179.074 81.0464 179.019 81.0615 178.965 81.0547C178.707 81.0403 178.45 81.0882 178.214 81.1942C177.979 81.3003 177.773 81.4614 177.613 81.664C177.58 81.7057 177.533 81.7337 177.481 81.7422C177.429 81.7508 177.376 81.7393 177.331 81.7101Z" fill="#263238"/>
<path d="M194.483 98.9132C195.989 100.449 197.417 101.985 198.81 103.608C199.506 104.417 200.207 105.231 200.858 106.091C201.566 106.977 202.22 107.903 202.819 108.866C203.008 109.166 203.179 109.477 203.331 109.798C203.439 110.046 203.525 110.303 203.587 110.566C203.61 110.673 203.627 110.78 203.638 110.889V111.089C203.643 111.177 203.643 111.266 203.638 111.355V111.493V111.554V111.606L203.612 111.708C203.479 112.261 203.382 112.819 203.208 113.362C202.901 114.468 202.499 115.546 202.005 116.582C201.498 117.634 200.871 118.624 200.136 119.531C199.759 119.991 199.344 120.42 198.897 120.811C198.671 121.011 198.441 121.201 198.19 121.385C198.067 121.472 197.934 121.559 197.801 121.641C197.668 121.723 197.545 121.794 197.33 121.907L196.219 120.018C196.219 119.992 196.332 119.9 196.388 119.828L196.603 119.588C196.746 119.419 196.885 119.24 197.018 119.076C197.281 118.698 197.522 118.304 197.74 117.898C198.176 117.078 198.539 116.222 198.825 115.338C198.953 114.877 199.096 114.432 199.194 113.956C199.291 113.48 199.398 113.024 199.475 112.553C199.552 112.082 199.608 111.595 199.68 111.119V111.027V110.986V111.078C199.68 111.135 199.68 111.211 199.68 111.247C199.677 111.28 199.677 111.312 199.68 111.345V111.473C199.68 111.575 199.68 111.544 199.68 111.503C199.68 111.462 199.516 111.237 199.398 111.068C198.886 110.367 198.241 109.573 197.586 108.82C196.931 108.068 196.245 107.284 195.538 106.532L191.314 101.995L194.483 98.9132Z" fill="#B55B52"/>
<path d="M198.436 121.221L195.364 124.073L193.372 120.832C193.372 120.832 195.287 119.455 197.008 119.972L198.436 121.221Z" fill="#B55B52"/>
<path d="M193.024 124.672L192 123.602C191.806 123.397 191.7 123.123 191.706 122.84C191.711 122.558 191.828 122.289 192.031 122.092L193.342 120.806L195.328 124.073L194.473 124.774C194.262 124.94 193.997 125.022 193.729 125.003C193.461 124.984 193.21 124.866 193.024 124.672Z" fill="#B55B52"/>
<path d="M187.556 98.7699C187.321 100.598 192.19 105.938 192.19 105.938L196.747 100.234C196.747 100.234 194.622 97.2543 192.999 96.5785C190.393 95.4777 187.822 96.686 187.556 98.7699Z" fill="#F99942"/>
<path d="M182.052 83.5635L181.243 83.2256C181.243 83.2256 181.596 83.927 182.052 83.5635Z" fill="#263238"/>
<path d="M65.8533 79.9795C63.9641 82.0736 61.614 88.3507 68.8946 87.0912C76.1752 85.8317 65.8533 79.9795 65.8533 79.9795Z" fill="#263238"/>
<path d="M68.1728 74.2093C68.6182 71.424 63.5238 65.0291 61.5168 68.9766C59.0541 73.728 68.1728 74.2093 68.1728 74.2093Z" fill="#263238"/>
<path d="M68.1881 75.8989C70.4973 74.281 71.5315 66.1709 67.287 67.4714C62.1721 69.033 68.1881 75.8989 68.1881 75.8989Z" fill="#263238"/>
<path d="M79.8719 100.741C79.8258 101.171 79.7848 101.709 79.749 102.2C79.7132 102.692 79.6927 103.224 79.6773 103.736C79.6773 104.76 79.6159 105.784 79.6466 106.783C79.6896 108.805 79.8726 110.822 80.1944 112.819C80.2661 113.331 80.3788 113.802 80.4709 114.294L80.5016 114.463C80.5006 114.481 80.5006 114.5 80.5016 114.519C80.5016 114.519 80.5016 114.519 80.5016 114.565C80.5016 114.611 80.7474 114.734 81.0956 114.77C81.502 114.818 81.9128 114.818 82.3192 114.77C84.2869 114.452 86.2112 113.907 88.0536 113.147L89.0469 114.913C88.5708 115.256 88.1151 115.543 87.6338 115.83C87.1525 116.116 86.6764 116.393 86.1695 116.639C85.137 117.174 84.0506 117.598 82.9285 117.903C82.2932 118.073 81.6402 118.168 80.9829 118.185C80.1241 118.21 79.2758 117.991 78.5356 117.555C78.0903 117.279 77.7111 116.908 77.4245 116.47C77.2883 116.263 77.1733 116.044 77.0815 115.814C77.0347 115.707 76.9936 115.598 76.9586 115.487L76.9074 115.323L76.8818 115.22C76.7436 114.678 76.5797 114.13 76.462 113.582C75.9712 111.394 75.6782 109.166 75.5864 106.926C75.5301 105.815 75.5096 104.709 75.5506 103.598C75.5506 103.04 75.5967 102.487 75.6376 101.929C75.6786 101.371 75.7298 100.838 75.8117 100.214L79.8719 100.741Z" fill="#FFB573"/>
<path d="M79.3599 95.9129C80.8959 96.6092 80.8959 103.496 80.8959 103.496L73.943 106.65C73.943 106.65 72.7551 98.2784 74.3167 96.7065C75.8783 95.1347 77.1122 94.8992 79.3599 95.9129Z" fill="#263238"/>
<path opacity="0.2" d="M78.9759 97.3824L80.0204 103.91L76.2469 105.615L78.9759 97.3824Z" fill="black"/>
<path d="M87.1628 114.007L90.0659 110.828L90.9772 114.33C90.9772 114.33 89.1187 116.106 87.5366 115.594L87.1628 114.007Z" fill="#FFB573"/>
<path d="M91.9346 110.725L92.3647 112.461C92.397 112.597 92.3932 112.74 92.3537 112.875C92.3142 113.009 92.2403 113.131 92.1394 113.229L90.9772 114.33L90.0658 110.827L90.629 110.315C90.7315 110.223 90.8565 110.158 90.9916 110.129C91.1266 110.099 91.2671 110.105 91.399 110.147C91.5309 110.188 91.6497 110.263 91.7437 110.365C91.8376 110.466 91.9034 110.59 91.9346 110.725Z" fill="#FFB573"/>
<path d="M80.2354 97.5002C80.0408 99.8401 78.8684 105.544 74.0914 119.368L58.0658 116.598C59.3919 110.454 60.0882 106.532 59.4738 94.2849C59.459 94.0084 59.5013 93.7319 59.5979 93.4725C59.6946 93.2132 59.8436 92.9764 60.0358 92.7771C60.2279 92.5778 60.4589 92.4202 60.7146 92.314C60.9702 92.2079 61.245 92.1555 61.5218 92.1601C63.1286 92.1746 64.7335 92.2754 66.3295 92.4621C68.7807 92.7017 71.2119 93.1141 73.605 93.6961C75.5608 94.2081 77.6549 94.9556 78.9195 95.4164C79.3389 95.5687 79.6956 95.8561 79.9338 96.2333C80.172 96.6105 80.2781 97.0562 80.2354 97.5002Z" fill="#263238"/>
<path opacity="0.2" d="M59.7759 97.7101C61.1634 98.3245 62.2335 100.137 61.5679 103.025C61.2495 104.335 60.566 105.528 59.5967 106.465C59.7298 104.177 59.7503 101.499 59.6428 98.048L59.7759 97.7101Z" fill="black"/>
<path d="M68.4595 84.3929C68.5158 86.8147 68.2342 91.1821 66.3245 92.4621C66.3245 92.4621 67.712 94.1977 71.5878 97.1878C75.2845 95.1398 73.6051 93.7165 73.6051 93.7165C71.1014 92.6464 71.5008 90.7213 72.2688 88.9805L68.4595 84.3929Z" fill="#FFB573"/>
<path opacity="0.2" d="M70.016 86.2668L72.2688 88.9753C72.0834 89.3794 71.9344 89.7992 71.8233 90.2297C70.8505 89.9123 69.4272 88.791 69.4016 87.6697C69.3862 87.1424 69.888 86.4921 70.016 86.2668Z" fill="black"/>
<path d="M66.5599 79.9334C66.7801 83.9014 66.7852 85.5654 68.7769 87.6134C71.7721 90.6854 76.5951 89.559 77.5679 85.6064C78.4434 82.0224 77.9366 76.1548 74.0658 74.5523C73.2119 74.1941 72.2805 74.0606 71.3603 74.1645C70.4402 74.2684 69.562 74.6062 68.8094 75.1457C68.0568 75.6852 67.455 76.4085 67.0612 77.2466C66.6674 78.0847 66.4948 79.0097 66.5599 79.9334Z" fill="#FFB573"/>
<path d="M66.5242 82.5908C68.2342 82.6778 70.1952 79.3805 69.4016 77.8906C70.2976 77.6909 74.1171 78.121 74.1018 76.713C75.8272 77.9162 79.616 77.9776 80.2458 76.3444C80.8755 74.7111 79.4419 73.1904 77.5783 73.7844C76.2317 70.313 69.7549 69.5962 67.3382 72.8935C64.2765 72.8167 57.6256 77.824 66.5242 82.5908Z" fill="#263238"/>
<path d="M73.4207 81.0291C73.4207 81.3517 73.5845 81.6128 73.7995 81.6128C74.0146 81.6128 74.1784 81.3568 74.1835 81.0342C74.1887 80.7117 74.0146 80.4454 73.8047 80.4454C73.5947 80.4454 73.4207 80.7066 73.4207 81.0291Z" fill="#263238"/>
<path d="M77.0662 81.0496C77.0662 81.3721 77.2351 81.6332 77.445 81.6384C77.655 81.6435 77.829 81.3772 77.8342 81.0547C77.8393 80.7321 77.6652 80.471 77.4553 80.4659C77.2454 80.4608 77.0713 80.727 77.0662 81.0496Z" fill="#263238"/>
<path d="M77.3632 80.4864L78.1363 80.2662C78.1363 80.2662 77.7369 80.896 77.3632 80.4864Z" fill="#263238"/>
<path d="M75.9398 81.623C76.2226 82.3548 76.6051 83.0439 77.0764 83.671C76.9112 83.7876 76.7225 83.8667 76.5236 83.903C76.3246 83.9392 76.1202 83.9317 75.9244 83.881L75.9398 81.623Z" fill="#ED893E"/>
<path d="M74.0453 85.1559C74.2028 85.1813 74.3621 85.1933 74.5215 85.1917C74.534 85.1924 74.5466 85.1905 74.5583 85.1862C74.5701 85.1819 74.5809 85.1752 74.59 85.1666C74.5991 85.158 74.6064 85.1476 74.6113 85.136C74.6163 85.1245 74.6188 85.1121 74.6188 85.0996C74.6175 85.0742 74.6069 85.0501 74.5889 85.0321C74.5709 85.0142 74.5469 85.0035 74.5215 85.0023C74.1189 85.0071 73.7208 84.9169 73.3596 84.7389C72.9985 84.561 72.6843 84.3004 72.4428 83.9783C72.4365 83.967 72.428 83.9572 72.4177 83.9495C72.4074 83.9418 72.3956 83.9363 72.383 83.9334C72.3705 83.9305 72.3575 83.9303 72.3448 83.9327C72.3322 83.9351 72.3202 83.9402 72.3097 83.9476C72.2927 83.9656 72.2833 83.9894 72.2833 84.0141C72.2833 84.0388 72.2927 84.0626 72.3097 84.0807C72.5142 84.3651 72.7727 84.6064 73.0706 84.7909C73.3684 84.9754 73.6996 85.0994 74.0453 85.1559Z" fill="#263238"/>
<path d="M73.5078 85.6986C73.6436 85.7797 73.7857 85.8499 73.9327 85.9085C73.9441 85.9135 73.9564 85.9161 73.9689 85.9162C73.9813 85.9163 73.9936 85.9139 74.0051 85.9091C74.0166 85.9043 74.027 85.8973 74.0357 85.8884C74.0443 85.8795 74.0511 85.8689 74.0556 85.8573C74.0606 85.8459 74.0632 85.8336 74.0633 85.8212C74.0634 85.8087 74.061 85.7964 74.0562 85.7849C74.0515 85.7735 74.0444 85.7631 74.0355 85.7544C74.0266 85.7457 74.016 85.7389 74.0044 85.7344C73.6322 85.5883 73.2994 85.3571 73.0327 85.0592C72.766 84.7614 72.5727 84.4052 72.4684 84.0192C72.466 84.007 72.4611 83.9953 72.4541 83.985C72.4471 83.9747 72.438 83.9659 72.4275 83.9592C72.4169 83.9525 72.4051 83.948 72.3928 83.946C72.3805 83.944 72.3679 83.9445 72.3558 83.9475C72.3318 83.9525 72.3106 83.9663 72.2963 83.9863C72.2821 84.0062 72.2759 84.0308 72.279 84.0551C72.3651 84.3966 72.5181 84.7176 72.729 84.9997C72.9399 85.2818 73.2046 85.5193 73.5078 85.6986Z" fill="#263238"/>
<path d="M65.3465 83.026C65.5672 83.7612 66.0671 84.3806 66.7392 84.7514C67.6352 85.2327 68.3059 84.4801 68.2445 83.5175C68.1881 82.6522 67.6505 81.3569 66.6573 81.275C66.4405 81.2609 66.2237 81.3011 66.0265 81.392C65.8292 81.4829 65.6577 81.6216 65.5276 81.7954C65.3975 81.9693 65.3127 82.1729 65.2811 82.3878C65.2495 82.6026 65.272 82.822 65.3465 83.026Z" fill="#FFB573"/>
<path d="M71.7619 79.2269C71.7982 79.2444 71.8391 79.2498 71.8787 79.2425C71.9183 79.2351 71.9545 79.2153 71.982 79.186C72.6016 78.5665 73.7177 78.7457 73.728 78.7457C73.7774 78.7532 73.8278 78.7415 73.8688 78.7129C73.9098 78.6843 73.9382 78.641 73.9481 78.5921C73.9525 78.5671 73.9518 78.5416 73.9462 78.5169C73.9405 78.4923 73.93 78.469 73.9152 78.4485C73.9004 78.428 73.8817 78.4106 73.8601 78.3975C73.8385 78.3843 73.8144 78.3756 73.7894 78.3719C73.7382 78.3719 72.4684 78.162 71.7158 78.9197C71.6977 78.9374 71.6833 78.9585 71.6735 78.9818C71.6636 79.0051 71.6586 79.0301 71.6586 79.0554C71.6586 79.0807 71.6636 79.1057 71.6735 79.129C71.6833 79.1523 71.6977 79.1734 71.7158 79.1911L71.7619 79.2269Z" fill="#263238"/>
<path d="M78.3001 79.2986C78.3323 79.303 78.3652 79.2992 78.3956 79.2875C78.426 79.2759 78.453 79.2568 78.4742 79.2321C78.506 79.1933 78.5212 79.1436 78.5164 79.0937C78.5116 79.0438 78.4872 78.9978 78.4486 78.9658C78.2219 78.768 77.9512 78.6271 77.6591 78.555C77.367 78.4828 77.0619 78.4815 76.7692 78.5511C76.7219 78.5664 76.6825 78.5997 76.6595 78.6437C76.6366 78.6878 76.6318 78.7391 76.6463 78.7866C76.6527 78.8109 76.664 78.8336 76.6795 78.8533C76.6951 78.8731 76.7144 78.8894 76.7365 78.9014C76.7585 78.9134 76.7828 78.9207 76.8078 78.923C76.8328 78.9253 76.858 78.9224 76.8818 78.9146C77.1142 78.8616 77.3559 78.865 77.5866 78.9247C77.8174 78.9844 78.0304 79.0986 78.2079 79.2577C78.2344 79.2794 78.2662 79.2936 78.3001 79.2986Z" fill="#263238"/>
<path d="M72.5607 208.056H76.5645L76.3085 198.784H72.3047L72.5607 208.056Z" fill="#FFB573"/>
<path d="M76.7999 207.59H72.2994C72.2229 207.588 72.1483 207.615 72.0917 207.667C72.0352 207.718 72.0013 207.79 71.9973 207.867L71.6645 211.425C71.6611 211.517 71.6761 211.609 71.7088 211.694C71.7414 211.78 71.7909 211.859 71.8544 211.925C71.9179 211.992 71.9941 212.045 72.0785 212.081C72.1628 212.117 72.2536 212.136 72.3455 212.137C73.9122 212.111 74.6597 212.019 76.6412 212.019C77.8546 212.019 80.3788 212.142 82.0581 212.142C83.7375 212.142 83.7477 210.483 83.036 210.33C79.8668 209.654 78.5817 208.727 77.4809 207.836C77.2881 207.68 77.0481 207.593 76.7999 207.59Z" fill="#263238"/>
<g opacity="0.2">
<path opacity="0.2" d="M76.3085 198.784L76.4417 203.566H72.4378L72.3047 198.784H76.3085Z" fill="black"/>
</g>
<path d="M74.1018 119.368C74.1018 119.368 76.6003 144.369 77.3786 156.565C78.1875 169.247 77.1277 202.645 77.1277 202.645H71.7158C71.7158 202.645 68.3725 165.023 68.3725 157.517C66.2426 143.913 60.3699 129.823 62.3667 117.345L74.1018 119.368Z" fill="#F99942"/>
<path opacity="0.6" d="M74.1018 119.368C74.1018 119.368 76.6003 144.369 77.3786 156.565C78.1875 169.247 77.1277 202.645 77.1277 202.645H71.7158C71.7158 202.645 68.3725 165.023 68.3725 157.517C66.2426 143.913 60.3699 129.823 62.3667 117.345L74.1018 119.368Z" fill="white"/>
<path opacity="0.2" d="M65.5974 129.265C64.4589 129.571 63.4441 130.224 62.6943 131.133C63.5187 136.32 64.9113 141.64 66.1913 146.964C67.1078 141.179 66.5599 131.43 65.5974 129.265Z" fill="#F99942"/>
<path d="M71.2447 202.834H77.5986L78.0646 200.806L70.9478 200.561L71.2447 202.834Z" fill="#263238"/>
<path d="M78.3359 208.292C78.6786 208.321 79.0211 208.235 79.3087 208.046C79.3732 207.99 79.4225 207.918 79.452 207.837C79.4816 207.757 79.4904 207.67 79.4777 207.585C79.475 207.533 79.459 207.482 79.4312 207.437C79.4035 207.392 79.3649 207.355 79.319 207.329C78.807 207.063 77.23 207.877 77.0508 207.969C77.0334 207.978 77.0193 207.992 77.0109 208.01C77.0026 208.028 77.0004 208.047 77.0047 208.067C77.0072 208.086 77.0153 208.104 77.0281 208.118C77.0408 208.133 77.0577 208.143 77.0764 208.148C77.491 208.235 77.9126 208.283 78.3359 208.292ZM79.0527 207.462C79.1129 207.459 79.173 207.471 79.2268 207.498C79.2466 207.507 79.2634 207.521 79.2752 207.54C79.287 207.558 79.2933 207.579 79.2934 207.601C79.3013 207.656 79.2951 207.713 79.2754 207.766C79.2557 207.819 79.2232 207.866 79.1807 207.903C78.9401 208.123 78.2796 208.159 77.3939 208.015C77.9063 207.739 78.4621 207.552 79.0374 207.462H79.0527Z" fill="#F99942"/>
<path d="M77.0815 208.148H77.1173C77.5986 207.933 78.5406 207.068 78.469 206.612C78.469 206.505 78.3717 206.372 78.1106 206.346C78.0186 206.338 77.926 206.349 77.8381 206.377C77.7502 206.405 77.6688 206.45 77.5986 206.51C77.0866 206.93 77.0047 208.005 76.9995 208.046C76.9991 208.063 77.0026 208.079 77.0097 208.094C77.0169 208.11 77.0274 208.123 77.0405 208.133C77.0529 208.141 77.0669 208.146 77.0815 208.148ZM78.0338 206.525H78.0901C78.2642 206.525 78.2744 206.612 78.2795 206.633C78.3256 206.909 77.6856 207.585 77.1992 207.882C77.2376 207.426 77.4165 206.993 77.7112 206.643C77.802 206.568 77.9159 206.526 78.0338 206.525Z" fill="#F99942"/>
<path d="M39.3778 201.769L43.0796 203.295L46.8632 194.826L43.1666 193.301L39.3778 201.769Z" fill="#FFB573"/>
<path d="M43.3715 203.264L39.4598 201.042C39.3934 201.003 39.3149 200.989 39.2393 201.004C39.1636 201.019 39.0963 201.062 39.0502 201.124L36.8639 203.945C36.8114 204.019 36.775 204.103 36.757 204.192C36.7391 204.28 36.7401 204.372 36.7599 204.46C36.7797 204.549 36.8179 204.632 36.872 204.705C36.9261 204.777 36.9948 204.838 37.0739 204.882C38.4511 205.629 39.1526 205.906 40.8729 206.899C41.9276 207.503 44.0575 208.855 45.5167 209.685C46.9759 210.514 47.8771 209.116 47.3446 208.661C44.9484 206.52 44.334 205.102 43.8527 203.812C43.765 203.576 43.5937 203.381 43.3715 203.264Z" fill="#263238"/>
<g opacity="0.2">
<path opacity="0.2" d="M46.8633 194.831L44.9126 199.194L41.2108 197.668L43.1615 193.301L46.8633 194.831Z" fill="black"/>
</g>
<path d="M69.6013 118.589C69.6013 118.589 63.0579 147.323 61.952 159.488C59.1718 170.788 46.08 198.656 46.08 198.656L41.0726 196.608C41.0726 196.608 48.9216 166.835 53.2326 158.633C53.6422 145.034 53.5706 128.65 57.8918 116.572L69.6013 118.589Z" fill="#F99942"/>
<path opacity="0.6" d="M69.6013 118.589C69.6013 118.589 63.0579 147.323 61.952 159.488C59.1718 170.788 46.08 198.656 46.08 198.656L41.0726 196.608C41.0726 196.608 48.9216 166.835 53.2326 158.633C53.6422 145.034 53.5706 128.65 57.8918 116.572L69.6013 118.589Z" fill="white"/>
<path d="M40.54 196.598L46.4127 199.02L47.6159 197.325L41.134 194.381L40.54 196.598Z" fill="#263238"/>
<path d="M44.334 204.595C44.6177 204.79 44.9584 204.884 45.3017 204.861C45.3856 204.844 45.4638 204.806 45.5291 204.75C45.5943 204.695 45.6447 204.624 45.6755 204.544C45.7006 204.499 45.7137 204.447 45.7137 204.396C45.7137 204.344 45.7006 204.293 45.6755 204.247C45.3836 203.766 43.5916 203.689 43.3919 203.684C43.3725 203.682 43.3528 203.686 43.3361 203.696C43.3193 203.706 43.3066 203.722 43.2998 203.74C43.2885 203.756 43.2825 203.775 43.2825 203.794C43.2825 203.813 43.2885 203.832 43.2998 203.848C43.621 204.128 43.9672 204.378 44.334 204.595ZM45.358 204.227C45.4124 204.255 45.4597 204.295 45.4963 204.344C45.5076 204.363 45.5136 204.384 45.5136 204.406C45.5136 204.427 45.5076 204.449 45.4963 204.467C45.4758 204.519 45.4433 204.565 45.4014 204.601C45.3596 204.638 45.3096 204.664 45.2556 204.677C44.9331 204.744 44.3443 204.452 43.6428 203.889C44.2312 203.903 44.8129 204.017 45.3631 204.227H45.358Z" fill="#F99942"/>
<path d="M43.3254 203.858C43.3254 203.858 43.3254 203.858 43.3613 203.858C43.8733 203.904 45.1328 203.617 45.2915 203.187C45.3274 203.085 45.3274 202.931 45.1123 202.778C45.0387 202.726 44.9555 202.689 44.8676 202.67C44.7797 202.651 44.6889 202.649 44.6003 202.665C43.9552 202.778 43.3459 203.689 43.3203 203.689C43.3117 203.703 43.3071 203.719 43.3071 203.735C43.3071 203.751 43.3117 203.767 43.3203 203.781C43.3148 203.793 43.3124 203.807 43.3133 203.82C43.3142 203.834 43.3184 203.847 43.3254 203.858ZM44.9536 202.921C44.9727 202.927 44.9902 202.938 45.0048 202.952C45.143 203.049 45.1226 203.116 45.1123 203.136C45.015 203.397 44.1242 203.648 43.5763 203.689C43.8333 203.311 44.2021 203.023 44.631 202.865C44.7418 202.848 44.8552 202.867 44.9536 202.921Z" fill="#F99942"/>
<path d="M73.728 80.4608L74.5011 80.2457C74.5011 80.2457 74.0864 80.8448 73.728 80.4608Z" fill="#263238"/>
<path d="M57.9993 115.62L57.3439 116.982C57.2671 117.084 57.3797 117.217 57.5641 117.253L74.0556 120.1C74.1989 120.125 74.3321 120.1 74.3577 119.982L74.7519 118.574C74.7775 118.477 74.6649 118.369 74.5061 118.344L58.2809 115.543C58.2313 115.53 58.1793 115.531 58.13 115.544C58.0806 115.558 58.0356 115.584 57.9993 115.62Z" fill="#263238"/>
<path d="M59.9039 117.816L59.4687 117.745C59.3816 117.745 59.3253 117.673 59.3407 117.617L59.8527 115.789C59.8527 115.738 59.9499 115.707 60.037 115.722L60.4722 115.794C60.5592 115.794 60.6155 115.866 60.6002 115.922L60.0882 117.75C60.0882 117.801 60.0063 117.832 59.9039 117.816Z" fill="#F99942"/>
<g opacity="0.6">
<path opacity="0.6" d="M59.9039 117.816L59.4687 117.745C59.3816 117.745 59.3253 117.673 59.3407 117.617L59.8527 115.789C59.8527 115.738 59.9499 115.707 60.037 115.722L60.4722 115.794C60.5592 115.794 60.6155 115.866 60.6002 115.922L60.0882 117.75C60.0882 117.801 60.0063 117.832 59.9039 117.816Z" fill="white"/>
</g>
<path d="M72.8064 120.044L72.3763 119.967C72.2893 119.967 72.2278 119.895 72.2432 119.844L72.7552 118.016C72.7552 117.96 72.8525 117.929 72.9395 117.944L73.3747 118.021C73.4618 118.021 73.5181 118.093 73.5027 118.144L72.9907 119.972C72.9805 120.028 72.8934 120.059 72.8064 120.044Z" fill="#F99942"/>
<g opacity="0.6">
<path opacity="0.6" d="M72.8064 120.044L72.3763 119.967C72.2893 119.967 72.2278 119.895 72.2432 119.844L72.7552 118.016C72.7552 117.96 72.8525 117.929 72.9395 117.944L73.3747 118.021C73.4618 118.021 73.5181 118.093 73.5027 118.144L72.9907 119.972C72.9805 120.028 72.8934 120.059 72.8064 120.044Z" fill="white"/>
</g>
<path d="M66.3909 118.938L65.9557 118.861C65.8687 118.861 65.8124 118.789 65.8277 118.738L66.3397 116.905C66.3397 116.854 66.437 116.823 66.524 116.838L66.9592 116.91C67.0412 116.91 67.1026 116.982 67.0872 117.038L66.5752 118.866C66.5599 118.917 66.478 118.948 66.3909 118.938Z" fill="#F99942"/>
<g opacity="0.6">
<path opacity="0.6" d="M66.3909 118.938L65.9557 118.861C65.8687 118.861 65.8124 118.789 65.8277 118.738L66.3397 116.905C66.3397 116.854 66.437 116.823 66.524 116.838L66.9592 116.91C67.0412 116.91 67.1026 116.982 67.0872 117.038L66.5752 118.866C66.5599 118.917 66.478 118.948 66.3909 118.938Z" fill="white"/>
</g>
<path d="M56.2483 118.743L59.2486 121.856L55.1884 122.127C55.1884 122.127 53.8009 119.962 54.6099 118.508L56.2483 118.743Z" fill="#FFB573"/>
<path d="M60.5491 97.5769C59.392 99.4201 58.1939 101.253 56.9958 103.071C55.7977 104.888 54.574 106.731 53.4784 108.493L53.3043 108.769C53.3043 108.769 53.3043 108.8 53.2633 108.836C53.2212 108.953 53.1954 109.075 53.1865 109.199C53.1541 109.605 53.173 110.012 53.2428 110.413C53.4145 111.391 53.668 112.354 54.0006 113.29C54.3283 114.273 54.7123 115.261 55.1372 116.239C55.5622 117.217 56.0025 118.211 56.448 119.168L54.7276 120.243C53.3537 118.439 52.1536 116.509 51.1436 114.478C50.6058 113.399 50.177 112.268 49.8636 111.104C49.6867 110.435 49.5938 109.747 49.5872 109.056C49.5888 108.633 49.6421 108.212 49.7459 107.802C49.8124 107.563 49.898 107.33 50.0019 107.105L50.1248 106.859L50.2272 106.66C50.7699 105.636 51.3126 104.683 51.8758 103.721C52.439 102.758 53.0022 101.827 53.5756 100.89C54.7225 99.0105 55.8899 97.1622 57.1136 95.3344L60.5491 97.5769Z" fill="#FFB573"/>
<path d="M61.6344 92.2521C57.7023 91.5763 54.748 97.6435 54.748 97.6435L59.356 103.316C59.356 103.316 62.3103 100.014 62.9656 97.8995C63.662 95.6979 63.5493 92.5849 61.6344 92.2521Z" fill="#263238"/>
<path d="M59.5968 125.204L56.1818 125.245L55.1885 122.127L59.2486 121.856L59.5968 125.204Z" fill="#FFB573"/>
<path d="M194.621 52.055C195.919 52.0564 197.205 52.3135 198.403 52.8116C199.602 53.3098 200.691 54.0393 201.608 54.9583C202.524 55.8774 203.251 56.9681 203.746 58.1681C204.241 59.3681 204.495 60.6539 204.493 61.952V137.134C204.49 139.751 203.449 142.261 201.598 144.111C199.748 145.962 197.239 147.003 194.621 147.005H169.585C167.548 147.005 165.594 147.815 164.154 149.255C162.714 150.695 161.905 152.649 161.905 154.685V161.966L146.591 148.849C145.198 147.658 143.426 147.004 141.594 147.005H61.3785C58.7613 147.003 56.252 145.962 54.4014 144.111C52.5507 142.261 51.5099 139.751 51.5071 137.134V61.952C51.5099 59.3348 52.5507 56.8255 54.4014 54.9749C56.252 53.1242 58.7613 52.0833 61.3785 52.0806H194.621V52.055ZM194.621 44.4006H61.3785C56.7278 44.4141 52.2713 46.2676 48.9827 49.5562C45.6942 52.8448 43.8407 57.3012 43.8271 61.952V137.134C43.8407 141.785 45.6942 146.241 48.9827 149.53C52.2713 152.818 56.7278 154.672 61.3785 154.685H141.594L169.585 178.657V154.685H194.621C199.272 154.672 203.729 152.818 207.017 149.53C210.306 146.241 212.159 141.785 212.173 137.134V61.952C212.159 57.3012 210.306 52.8448 207.017 49.5562C203.729 46.2676 199.272 44.4141 194.621 44.4006Z" fill="#F99942"/>
<path d="M122.296 209.582C122.767 209.582 123.213 209.521 123.356 209.311C123.395 209.255 123.416 209.189 123.416 209.121C123.416 209.053 123.395 208.987 123.356 208.932C123.325 208.882 123.284 208.838 123.235 208.804C123.187 208.769 123.132 208.745 123.074 208.732C122.465 208.568 121.221 209.29 121.165 209.321C121.149 209.33 121.138 209.344 121.131 209.361C121.125 209.378 121.124 209.396 121.129 209.413C121.132 209.43 121.141 209.446 121.154 209.458C121.167 209.47 121.183 209.478 121.201 209.48C121.562 209.548 121.929 209.582 122.296 209.582ZM122.849 208.881C122.905 208.875 122.962 208.875 123.018 208.881C123.088 208.898 123.149 208.942 123.187 209.004C123.254 209.111 123.233 209.162 123.213 209.193C123.054 209.428 122.132 209.434 121.451 209.341C121.884 209.103 122.359 208.952 122.849 208.896V208.881Z" fill="#00856D"/>
<path d="M121.195 209.485H121.231C121.661 209.29 122.501 208.502 122.419 208.092C122.419 207.995 122.327 207.872 122.091 207.852C122.006 207.841 121.92 207.849 121.838 207.873C121.756 207.898 121.68 207.939 121.615 207.995C121.17 208.379 121.103 209.357 121.103 209.398C121.104 209.414 121.108 209.429 121.115 209.443C121.122 209.457 121.132 209.47 121.144 209.48C121.16 209.487 121.178 209.488 121.195 209.485ZM122.025 208.01H122.081C122.235 208.01 122.245 208.087 122.25 208.108C122.301 208.353 121.738 208.973 121.293 209.244C121.315 208.833 121.47 208.44 121.733 208.123C121.812 208.05 121.917 208.009 122.025 208.01Z" fill="#00856D"/>
<path d="M117.187 209.398H120.827L120.873 200.97H117.233L117.187 209.398Z" fill="#CE7A63"/>
<path d="M120.791 208.978H116.813C116.742 208.977 116.673 209.001 116.619 209.046C116.565 209.091 116.528 209.154 116.516 209.224L115.917 212.48C115.902 212.56 115.906 212.642 115.927 212.72C115.948 212.799 115.986 212.872 116.038 212.934C116.09 212.996 116.156 213.045 116.229 213.079C116.303 213.113 116.383 213.131 116.465 213.13C117.898 213.105 119.967 213.018 121.769 213.018C123.873 213.018 124.134 213.135 126.607 213.135C128.102 213.135 128.456 211.625 127.826 211.487C124.959 210.862 124.196 210.796 121.682 209.28C121.418 209.1 121.11 208.996 120.791 208.978Z" fill="#263238"/>
<path opacity="0.2" d="M120.873 200.97L120.852 205.317H117.207L117.233 200.97H120.873Z" fill="black"/>
<path d="M93.0917 208.328C93.1195 207.942 93.0006 207.56 92.7589 207.258C92.7038 207.218 92.6375 207.196 92.5695 207.196C92.5014 207.196 92.4351 207.218 92.38 207.258C92.3314 207.287 92.2897 207.326 92.2579 207.373C92.226 207.42 92.2048 207.473 92.1957 207.529C92.0626 208.133 92.8562 209.408 92.892 209.464C92.9017 209.479 92.9156 209.491 92.932 209.498C92.9484 209.506 92.9665 209.508 92.9842 209.505C93.0011 209.503 93.0168 209.495 93.0288 209.483C93.0409 209.471 93.0486 209.456 93.0507 209.439C93.094 209.07 93.1077 208.698 93.0917 208.328ZM92.3544 207.744C92.3466 207.69 92.3466 207.634 92.3544 207.58C92.3588 207.546 92.3707 207.513 92.3893 207.484C92.4079 207.454 92.4327 207.43 92.4619 207.411C92.5695 207.35 92.6207 207.375 92.6514 207.411C92.8971 207.58 92.9535 208.502 92.8971 209.178C92.6259 208.739 92.4417 208.252 92.3544 207.744Z" fill="#00856D"/>
<path d="M93.0508 209.408C93.0538 209.396 93.0538 209.384 93.0508 209.372C92.8306 208.932 91.996 208.056 91.5864 208.118C91.4892 208.118 91.3714 208.2 91.3612 208.44C91.3557 208.616 91.4181 208.786 91.5352 208.917C91.9447 209.247 92.4442 209.447 92.9688 209.49C92.9837 209.492 92.999 209.49 93.0126 209.484C93.0263 209.477 93.0378 209.467 93.0456 209.454C93.0524 209.44 93.0542 209.424 93.0508 209.408ZM91.5148 208.507V208.456C91.5148 208.302 91.5813 208.292 91.6018 208.292C91.8476 208.251 92.4978 208.845 92.7948 209.316C92.3707 209.273 91.9693 209.104 91.6428 208.829C91.5718 208.744 91.5305 208.638 91.525 208.527L91.5148 208.507Z" fill="#00856D"/>
<path d="M92.9945 209.449L96.5631 209.7L98.0326 201.206L94.4691 200.955L92.9945 209.449Z" fill="#CE7A63"/>
<path d="M92.9587 208.635L96.8959 208.287C96.9694 208.28 97.043 208.298 97.1051 208.338C97.1672 208.378 97.2143 208.437 97.239 208.507L98.437 211.666C98.4649 211.739 98.4757 211.817 98.4686 211.895C98.4615 211.973 98.4368 212.048 98.3963 212.114C98.3558 212.181 98.3006 212.237 98.2349 212.28C98.1692 212.322 98.0947 212.348 98.0172 212.357C96.5939 212.46 94.5254 212.557 92.7385 212.716C90.6547 212.9 92.0115 212.895 89.5641 213.115C88.0844 213.248 87.4495 211.779 88.0281 211.579C90.7519 210.708 91.2179 210.109 92.1241 208.988C92.2324 208.876 92.3622 208.788 92.5055 208.727C92.6489 208.666 92.803 208.635 92.9587 208.635Z" fill="#263238"/>
<path opacity="0.2" d="M98.0326 201.211L97.2748 205.588L93.7062 205.338L94.4639 200.955L98.0326 201.211Z" fill="black"/>
<path d="M122.184 116.813C122.184 116.813 115.528 144.773 113.009 155.151C110.228 166.513 99.328 204.216 99.328 204.216L92.8256 202.808C92.8256 202.808 99.8912 170.414 102.671 154.563C104.806 142.392 109.629 116.813 109.629 116.813H122.184Z" fill="#263238"/>
<path d="M100.352 202.24L99.8707 204.744L92.1036 203.914L91.9961 201.62L100.352 202.24Z" fill="#00856D"/>
<path opacity="0.3" d="M118.349 129.772C113.741 130.381 112.906 146.529 112.799 156.001L113.009 155.146C114.391 149.484 116.997 138.563 119.086 129.823C118.847 129.751 118.595 129.734 118.349 129.772Z" fill="black"/>
<path d="M129.091 116.813C129.091 116.813 127.314 144.041 126.531 155.126C125.706 166.656 122.435 204.472 122.435 204.472H116.224C116.224 204.472 115.574 167.347 115.395 156.006C115.195 143.647 116.285 116.813 116.285 116.813H129.091Z" fill="#263238"/>
<path d="M123.269 202.02C123.295 202.02 123.018 204.58 123.018 204.58H115.517L115.226 202.291L123.269 202.02Z" fill="#00856D"/>
<path d="M111.872 90.624C110.879 92.6362 109.87 94.7507 108.938 96.8295C108.006 98.9082 107.09 101.012 106.378 103.112L106.102 103.895L105.856 104.673L105.743 105.027C105.752 104.943 105.752 104.859 105.743 104.776C105.709 104.431 105.544 104.112 105.282 103.885C105.083 103.752 105.078 103.808 105.154 103.849C105.297 103.915 105.446 103.965 105.6 103.997C106.059 104.094 106.524 104.157 106.993 104.187C109.234 104.256 111.477 104.189 113.71 103.987H113.771C114.102 103.962 114.43 104.057 114.696 104.255C114.963 104.453 115.148 104.74 115.22 105.063C115.292 105.387 115.244 105.725 115.086 106.017C114.928 106.308 114.67 106.533 114.36 106.65C112.035 107.587 109.598 108.217 107.11 108.524C106.396 108.597 105.676 108.604 104.96 108.544C104.527 108.509 104.099 108.434 103.68 108.319C103.065 108.159 102.494 107.861 102.011 107.448C101.661 107.149 101.374 106.784 101.166 106.373C100.957 105.947 100.831 105.485 100.797 105.011C100.776 104.634 100.805 104.255 100.884 103.885L100.997 103.373L101.212 102.446L101.458 101.54C102.131 99.1846 102.943 96.8714 103.89 94.6125C104.832 92.3699 105.83 90.2144 106.993 88.0333C107.334 87.3951 107.912 86.9165 108.603 86.7007C109.294 86.4848 110.042 86.549 110.686 86.8794C111.33 87.2097 111.818 87.7798 112.046 88.4669C112.273 89.1539 112.222 89.9028 111.903 90.5523L111.872 90.624Z" fill="#CF7A64"/>
<path d="M113.812 104.125L116.075 103.235L115.963 107.443C115.049 107.379 114.168 107.081 113.403 106.578C113.215 106.442 113.074 106.252 112.998 106.033C112.922 105.814 112.915 105.577 112.978 105.354L113.106 104.893C113.154 104.719 113.243 104.558 113.366 104.424C113.489 104.29 113.642 104.188 113.812 104.125Z" fill="#CE7A63"/>
<path d="M119.803 102.758L118.989 106.404L115.963 107.438L116.076 103.235L119.803 102.758Z" fill="#CE7A63"/>
<path d="M124.017 71.7927C124.078 72.0794 124.278 72.2791 124.462 72.2432C124.646 72.2074 124.759 71.9411 124.698 71.6544C124.636 71.3677 124.442 71.1424 124.252 71.1987C124.063 71.2551 123.96 71.5008 124.017 71.7927Z" fill="#263238"/>
<path d="M124.247 72.2842C124.769 73.0949 125.402 73.829 126.126 74.4653C125.957 74.6459 125.751 74.7876 125.522 74.8804C125.293 74.9733 125.047 75.0151 124.8 75.0029L124.247 72.2842Z" fill="#BA4D3C"/>
<path d="M122.639 70.4051C122.596 70.4046 122.554 70.3882 122.522 70.3591C122.506 70.3433 122.493 70.3246 122.484 70.3039C122.476 70.2833 122.471 70.2611 122.471 70.2387C122.471 70.2163 122.476 70.1942 122.484 70.1735C122.493 70.1529 122.506 70.1341 122.522 70.1184C122.703 69.9126 122.931 69.7531 123.187 69.6534C123.442 69.5536 123.718 69.5164 123.991 69.545C124.035 69.5537 124.075 69.5794 124.101 69.6167C124.126 69.654 124.137 69.6999 124.129 69.7447C124.126 69.767 124.119 69.7884 124.107 69.8077C124.096 69.8271 124.08 69.8439 124.062 69.8573C124.044 69.8706 124.023 69.8802 124.001 69.8855C123.98 69.8908 123.957 69.8916 123.935 69.888C123.719 69.867 123.501 69.8984 123.299 69.9795C123.098 70.0606 122.919 70.189 122.778 70.3539C122.759 70.3718 122.738 70.3856 122.714 70.3944C122.69 70.4032 122.665 70.4069 122.639 70.4051Z" fill="#263238"/>
<path d="M116.029 77.0253C116.541 79.6877 116.864 83.3792 115.005 85.1558C115.005 85.1558 115.738 87.8541 120.683 87.8541C126.121 87.8541 123.3 85.4835 123.3 85.4835C121.037 84.7821 121.057 82.2067 121.574 80.1382L116.029 77.0253Z" fill="#CE7A63"/>
<path d="M108.488 85.1662C105.073 85.9495 102.825 95.1553 102.825 95.1553L108.544 99.4356C110.661 97.9159 112.162 95.6865 112.773 93.1534C113.92 88.5761 111.974 84.3674 108.488 85.1662Z" fill="#00856D"/>
<path opacity="0.2" d="M111.411 91.5712C109.462 93.6462 108.327 96.3552 108.216 99.2L108.518 99.4355C110.633 97.9141 112.134 95.6855 112.747 93.1532C112.814 92.8819 112.875 92.6054 112.927 92.3392L111.411 91.5712Z" fill="black"/>
<path d="M130.048 88.8167C130.785 92.713 131.896 101.96 129.818 117.678C129.798 117.807 129.738 117.926 129.646 118.018C129.554 118.111 129.434 118.171 129.306 118.19C127.522 118.401 125.718 118.377 123.94 118.118C120.356 117.606 117.381 117.827 113.905 118.118C112.372 118.237 110.833 118.26 109.297 118.185C109.214 118.181 109.133 118.159 109.06 118.123C108.986 118.086 108.92 118.034 108.867 117.97C108.814 117.907 108.775 117.833 108.752 117.754C108.729 117.674 108.723 117.591 108.733 117.509C109.271 113.464 111.222 98.4269 108.513 85.1815C110.664 84.7691 112.84 84.4955 115.026 84.3623C117.783 84.2009 120.548 84.2009 123.305 84.3623C124.216 84.4442 125.112 84.5773 125.911 84.7155C126.933 84.903 127.875 85.3949 128.613 86.1266C129.352 86.8584 129.852 87.796 130.048 88.8167Z" fill="#00856D"/>
<path d="M114.299 73.129C115.231 76.6209 115.604 78.7098 117.755 80.1588C120.996 82.345 125.025 79.8362 125.153 76.1396C125.266 72.8116 123.72 67.666 119.977 66.9594C119.152 66.7996 118.3 66.8535 117.501 67.1161C116.703 67.3786 115.985 67.8411 115.416 68.4595C114.847 69.0779 114.445 69.8316 114.25 70.6489C114.054 71.4663 114.071 72.32 114.299 73.129Z" fill="#CE7A63"/>
<path d="M122.465 74.1991C123.556 76.6055 123.213 78.8071 121.856 79.8311C120.32 80.9984 116.014 81.1776 114.381 79.5239C115 78.9044 115.343 78.1312 114.55 77.0304C113.756 75.9296 110.843 74.2195 110.787 71.8695C110.73 69.5194 112.287 69.2531 112.195 69.2531C110.817 68.6387 110.904 66.4269 112.42 65.2083C114.027 63.913 116.639 63.5546 119.747 64.1843C121.707 64.5735 123.633 64.5376 123.295 63.2986C125.604 64.6247 124.457 69.5348 122.225 70.1799C122.578 71.0656 124.124 72.4736 124.124 72.4736C124.124 72.4736 123.745 73.9379 122.465 74.1991Z" fill="#263238"/>
<path d="M112.42 68.777C112.42 68.777 111.58 69.289 109.373 68.6439C109.967 69.7447 112.174 69.7857 112.706 69.5348C113.239 69.2839 112.42 68.777 112.42 68.777Z" fill="#263238"/>
<path d="M121.062 73.3184C121.263 74.1412 121.731 74.8742 122.393 75.4022C123.269 76.0934 123.929 75.4585 123.929 74.4448C123.894 73.5334 123.417 72.0794 122.424 71.7824C121.431 71.4854 120.832 72.3251 121.062 73.3184Z" fill="#CE7A63"/>
<path d="M130.186 88.2842C130.642 89.3441 131.072 90.4142 131.512 91.4791C131.953 92.5441 132.383 93.6142 132.808 94.6842L135.337 101.079C135.762 102.134 136.187 103.183 136.617 104.192L136.945 104.919L137.027 105.098V105.139C137.027 105.139 137.027 105.139 136.996 105.088C136.923 104.96 136.839 104.838 136.745 104.725C136.554 104.515 136.327 104.341 136.074 104.213C135.889 104.109 135.688 104.035 135.48 103.992C135.352 103.964 135.222 103.947 135.091 103.941C135.011 103.936 134.931 103.936 134.851 103.941C134.771 103.946 134.692 103.96 134.615 103.982C134.572 103.99 134.53 104.006 134.492 104.028C134.646 103.999 134.794 103.947 134.932 103.875C135.137 103.782 135.368 103.67 135.593 103.547C136.525 103.035 137.508 102.477 138.486 101.909C139.464 101.34 140.477 100.767 141.491 100.224H141.522C141.806 100.071 142.135 100.021 142.452 100.085C142.768 100.148 143.053 100.319 143.257 100.57C143.461 100.82 143.571 101.134 143.568 101.457C143.565 101.78 143.45 102.092 143.242 102.339C141.711 104.197 139.995 105.895 138.122 107.407C137.871 107.602 137.61 107.797 137.318 107.996C136.971 108.24 136.601 108.449 136.212 108.621C136.046 108.692 135.875 108.75 135.7 108.795C135.554 108.833 135.405 108.859 135.255 108.872C135.137 108.879 135.019 108.879 134.902 108.872C134.729 108.869 134.558 108.848 134.39 108.81C134.149 108.757 133.916 108.671 133.699 108.554C133.411 108.401 133.156 108.194 132.946 107.945C132.84 107.818 132.744 107.683 132.659 107.541L132.613 107.454L132.582 107.402L132.47 107.192C132.311 106.911 132.178 106.645 132.029 106.368C131.471 105.293 130.964 104.233 130.493 103.168C129.505 101.043 128.579 98.9236 127.672 96.7937C127.222 95.7287 126.778 94.6603 126.341 93.5886C125.906 92.5185 125.471 91.4484 125.056 90.3732C124.78 89.6943 124.784 88.9333 125.069 88.2578C125.354 87.5824 125.895 87.0476 126.574 86.7713C127.253 86.495 128.014 86.4997 128.689 86.7843C129.365 87.069 129.9 87.6104 130.176 88.2894L130.186 88.2842Z" fill="#CF7A64"/>
<path d="M143.549 98.1043C142.895 98.4789 142.322 98.9788 141.862 99.5753C141.401 100.172 141.063 100.853 140.866 101.581L142.131 103.204L144.896 102.349C145.115 102.28 145.304 102.139 145.433 101.949L146.852 99.8554C146.962 99.6515 147.012 99.4204 146.996 99.1891C146.979 98.9579 146.898 98.7361 146.76 98.5498L145.259 96.5325L143.549 98.1043Z" fill="#CE7A63"/>
<path d="M122.67 90.839C122.988 94.8992 127.457 100.203 127.457 100.203L133.76 95.4777C133.76 95.4777 132.803 89.7689 129.536 86.6713C125.496 82.8467 122.368 87.04 122.67 90.839Z" fill="#00856D"/>
<path d="M124.201 84.3469C123.617 82.6369 116.905 82.3399 112.86 82.7495C108.815 83.1591 110.853 86.3079 111.534 86.7482C109.701 87.4292 110.679 90.665 114.094 92.2522C117.509 93.8394 124.928 86.4103 124.201 84.3469Z" fill="#263238"/>
</svg>
