<svg width="500" height="500" viewBox="0 0 500 500" fill="none" xmlns="http://www.w3.org/2000/svg">
<g clip-path="url(#clip0)">
<g opacity="0.5">
<path d="M250 427.56C357.082 427.56 443.89 422.492 443.89 416.24C443.89 409.988 357.082 404.92 250 404.92C142.917 404.92 56.11 409.988 56.11 416.24C56.11 422.492 142.917 427.56 250 427.56Z" fill="#F5F5F5"/>
</g>
<path d="M260.41 365.5H132.84C130.789 365.471 128.824 364.667 127.34 363.25C125.857 361.833 124.963 359.908 124.84 357.86L113.4 136.31C113.337 135.324 113.477 134.337 113.814 133.408C114.15 132.48 114.674 131.631 115.354 130.914C116.034 130.198 116.854 129.63 117.764 129.245C118.673 128.861 119.653 128.668 120.64 128.68H248.21C250.261 128.707 252.225 129.508 253.709 130.923C255.193 132.339 256.086 134.263 256.21 136.31L267.63 357.86C267.693 358.844 267.553 359.831 267.218 360.759C266.883 361.686 266.361 362.535 265.683 363.252C265.006 363.969 264.188 364.538 263.281 364.925C262.373 365.312 261.396 365.507 260.41 365.5Z" fill="#F99942"/>
<path opacity="0.5" d="M260.41 365.5H132.84C130.789 365.471 128.824 364.667 127.34 363.25C125.857 361.833 124.963 359.908 124.84 357.86L113.4 136.31C113.337 135.324 113.477 134.337 113.814 133.408C114.15 132.48 114.674 131.631 115.354 130.914C116.034 130.198 116.854 129.63 117.764 129.245C118.673 128.861 119.653 128.668 120.64 128.68H248.21C250.261 128.707 252.225 129.508 253.709 130.923C255.193 132.339 256.086 134.263 256.21 136.31L267.63 357.86C267.693 358.844 267.553 359.831 267.218 360.759C266.883 361.686 266.361 362.535 265.683 363.252C265.006 363.969 264.188 364.538 263.281 364.925C262.373 365.312 261.396 365.507 260.41 365.5Z" fill="white"/>
<path d="M265.9 351.44H143.9C141.935 351.421 140.051 350.658 138.626 349.306C137.201 347.953 136.341 346.111 136.22 344.15L125.3 132.25C125.239 131.307 125.374 130.361 125.696 129.473C126.018 128.584 126.52 127.772 127.171 127.086C127.821 126.401 128.607 125.857 129.477 125.49C130.348 125.122 131.285 124.938 132.23 124.95H254.23C256.194 124.972 258.078 125.737 259.501 127.091C260.924 128.446 261.781 130.289 261.9 132.25L272.82 344.15C272.881 345.092 272.746 346.036 272.425 346.923C272.103 347.811 271.602 348.622 270.952 349.306C270.303 349.991 269.518 350.534 268.649 350.901C267.78 351.268 266.844 351.452 265.9 351.44Z" fill="#F99942"/>
<path d="M265.9 346.57H143.9C143.185 346.545 142.503 346.259 141.985 345.765C141.467 345.271 141.148 344.603 141.09 343.89L130.16 132C130.135 131.718 130.171 131.434 130.264 131.167C130.357 130.9 130.505 130.655 130.7 130.45C130.895 130.245 131.131 130.084 131.393 129.977C131.655 129.87 131.937 129.82 132.22 129.83H254.22C254.934 129.857 255.613 130.144 256.129 130.638C256.645 131.132 256.962 131.798 257.02 132.51L268 344.4C268.024 344.681 267.989 344.963 267.896 345.23C267.803 345.496 267.655 345.739 267.461 345.944C267.268 346.149 267.033 346.311 266.772 346.419C266.512 346.526 266.232 346.578 265.95 346.57H265.9ZM132.22 130.08C131.971 130.072 131.724 130.116 131.493 130.209C131.262 130.302 131.054 130.442 130.88 130.62C130.713 130.805 130.585 131.021 130.505 131.257C130.424 131.492 130.392 131.742 130.41 131.99L141.33 343.88C141.386 344.529 141.677 345.135 142.148 345.585C142.62 346.034 143.239 346.295 143.89 346.32H265.89C266.137 346.33 266.384 346.287 266.613 346.193C266.843 346.1 267.049 345.959 267.22 345.78C267.391 345.598 267.521 345.382 267.602 345.145C267.683 344.909 267.713 344.659 267.69 344.41L256.78 132.52C256.727 131.872 256.438 131.266 255.968 130.816C255.498 130.366 254.88 130.105 254.23 130.08H132.22Z" fill="white"/>
<path opacity="0.3" d="M223.227 207.056C237.103 192.817 236.199 169.431 221.208 154.822C206.218 140.214 182.816 139.915 168.94 154.154C155.064 168.393 155.968 191.779 170.959 206.387C185.949 220.996 209.351 221.295 223.227 207.056Z" fill="white"/>
<path opacity="0.5" d="M226 180.61C226.28 185.524 225.292 190.428 223.13 194.85C220.79 199.593 217.158 203.579 212.652 206.348C208.145 209.116 202.949 210.556 197.66 210.5C192.179 210.451 186.805 208.983 182.059 206.241C177.314 203.498 173.359 199.574 170.58 194.85C167.99 190.53 166.5 185.64 166.24 180.61C165.993 176.752 166.546 172.885 167.862 169.251C169.179 165.616 171.232 162.293 173.892 159.488C176.552 156.683 179.763 154.458 183.322 152.951C186.882 151.444 190.715 150.688 194.58 150.73C202.625 150.814 210.339 153.943 216.17 159.487C222 165.032 225.512 172.579 226 180.61Z" fill="white"/>
<path d="M223.1 194.85C220.76 199.593 217.128 203.579 212.622 206.348C208.115 209.116 202.919 210.556 197.63 210.5C192.149 210.451 186.775 208.983 182.029 206.241C177.284 203.498 173.329 199.574 170.55 194.85C178.149 189.602 187.175 186.81 196.41 186.85C205.892 186.886 215.162 189.664 223.1 194.85Z" fill="#F99942"/>
<path d="M205.347 179.915C210.347 174.785 210.019 166.358 204.616 161.093C199.213 155.828 190.781 155.718 185.781 160.848C180.782 165.978 181.109 174.405 186.512 179.67C191.915 184.936 200.348 185.045 205.347 179.915Z" fill="#F99942"/>
<path opacity="0.5" d="M248.41 269H152.88C152.048 268.991 151.25 268.668 150.647 268.095C150.044 267.521 149.681 266.741 149.63 265.91L148.91 251.91C148.885 251.512 148.943 251.113 149.079 250.738C149.216 250.363 149.428 250.02 149.703 249.731C149.978 249.442 150.31 249.213 150.678 249.058C151.045 248.903 151.441 248.825 151.84 248.83H247.37C248.2 248.838 248.997 249.161 249.6 249.732C250.203 250.303 250.567 251.081 250.62 251.91L251.34 265.91C251.366 266.309 251.31 266.709 251.174 267.085C251.038 267.462 250.826 267.806 250.551 268.096C250.275 268.386 249.943 268.616 249.575 268.772C249.206 268.927 248.81 269.005 248.41 269Z" fill="white"/>
<path opacity="0.3" d="M219.16 241.1H179.26C178.425 241.094 177.623 240.77 177.017 240.194C176.412 239.618 176.048 238.834 176 238L175.85 235C175.824 234.601 175.88 234.201 176.016 233.825C176.152 233.448 176.364 233.104 176.639 232.814C176.915 232.524 177.247 232.294 177.615 232.138C177.984 231.983 178.38 231.905 178.78 231.91H218.67C219.502 231.918 220.3 232.242 220.903 232.815C221.506 233.389 221.869 234.169 221.92 235L222.08 238C222.105 238.398 222.047 238.797 221.912 239.173C221.776 239.548 221.565 239.892 221.291 240.182C221.017 240.473 220.687 240.704 220.321 240.862C219.954 241.02 219.559 241.101 219.16 241.1Z" fill="black"/>
<path opacity="0.3" d="M234 336.31H174.23C172.815 336.293 171.458 335.741 170.433 334.765C169.407 333.79 168.788 332.463 168.7 331.05L168.35 324.15C168.315 323.472 168.418 322.794 168.653 322.157C168.889 321.52 169.251 320.937 169.719 320.445C170.187 319.953 170.75 319.561 171.375 319.294C171.999 319.027 172.671 318.889 173.35 318.89H233.1C234.515 318.908 235.872 319.459 236.897 320.435C237.923 321.41 238.542 322.737 238.63 324.15L238.98 331.05C239.015 331.727 238.913 332.403 238.678 333.039C238.444 333.674 238.083 334.256 237.618 334.748C237.152 335.24 236.591 335.632 235.969 335.9C235.347 336.169 234.677 336.308 234 336.31Z" fill="black"/>
<path opacity="0.5" d="M250.16 302.86H154.62C153.789 302.849 152.992 302.525 152.389 301.952C151.787 301.379 151.423 300.6 151.37 299.77L150.65 285.77C150.625 285.371 150.683 284.972 150.819 284.596C150.956 284.221 151.168 283.878 151.443 283.588C151.718 283.298 152.049 283.068 152.417 282.911C152.785 282.755 153.181 282.677 153.58 282.68H249.11C249.942 282.689 250.74 283.012 251.343 283.586C251.946 284.159 252.309 284.939 252.36 285.77L253.09 299.77C253.113 300.168 253.055 300.567 252.918 300.942C252.781 301.317 252.568 301.66 252.294 301.949C252.019 302.239 251.688 302.469 251.321 302.626C250.954 302.782 250.559 302.862 250.16 302.86Z" fill="white"/>
<path d="M333 176.62C333.25 177 333.38 177.2 333.54 177.47L333.99 178.21C334.28 178.71 334.54 179.21 334.79 179.7C335.29 180.7 335.79 181.7 336.19 182.7C337.028 184.686 337.75 186.72 338.35 188.79C339.561 192.88 340.358 197.081 340.73 201.33L340.8 202.12C340.808 202.28 340.808 202.44 340.8 202.6V203.13C340.817 203.826 340.776 204.521 340.68 205.21C340.488 206.487 340.153 207.738 339.68 208.94C338.801 211.086 337.638 213.105 336.22 214.94C333.575 218.327 330.437 221.296 326.91 223.75L324.15 220.52C326.661 217.684 328.886 214.605 330.79 211.33C331.647 209.844 332.319 208.259 332.79 206.61C332.981 205.912 333.092 205.194 333.12 204.47C333.151 204.161 333.151 203.849 333.12 203.54V203.33C333.13 203.237 333.13 203.143 333.12 203.05L333 202.35C332.357 198.623 331.448 194.947 330.28 191.35C329.7 189.56 328.99 187.83 328.28 186.14C327.93 185.29 327.53 184.46 327.13 183.66L326.51 182.48L326.2 181.93L325.94 181.49L333 176.62Z" fill="#FCDCBE"/>
<path d="M323.7 223.77L327.32 231.42L330.19 224.95C330.19 224.95 327.64 219.35 324.19 219.87L323.7 223.77Z" fill="#FCDCBE"/>
<path d="M329.91 231.8L332.79 227.08L330.19 224.95L327.32 231.42L329.91 231.8Z" fill="#FCDCBE"/>
<path d="M313.63 408.22C314.379 408.201 315.123 408.101 315.85 407.92C315.887 407.909 315.92 407.888 315.946 407.86C315.973 407.832 315.991 407.798 316 407.76C316.006 407.722 316.001 407.682 315.985 407.647C315.969 407.611 315.943 407.581 315.91 407.56C315.62 407.37 313.08 405.73 312.1 406.17C311.991 406.221 311.898 406.299 311.83 406.398C311.761 406.496 311.72 406.611 311.71 406.73C311.68 406.911 311.694 407.097 311.751 407.271C311.809 407.445 311.908 407.603 312.04 407.73C312.493 408.08 313.058 408.254 313.63 408.22ZM315.28 407.63C313.83 407.93 312.73 407.88 312.28 407.49C312.188 407.399 312.121 407.286 312.084 407.162C312.047 407.038 312.043 406.907 312.07 406.78C312.07 406.61 312.17 406.56 312.24 406.53C312.78 406.29 314.25 407 315.28 407.63Z" fill="#F99942"/>
<path d="M315.8 407.92H315.9C315.93 407.9 315.955 407.874 315.972 407.842C315.99 407.811 315.999 407.776 316 407.74C316 407.64 316 405.23 315.08 404.42C314.967 404.319 314.834 404.243 314.689 404.198C314.544 404.153 314.39 404.14 314.24 404.16C314.082 404.161 313.93 404.217 313.808 404.317C313.686 404.417 313.602 404.556 313.57 404.71C313.38 405.66 314.9 407.46 315.7 407.92H315.8ZM314.37 404.53C314.451 404.528 314.532 404.542 314.607 404.571C314.683 404.6 314.752 404.644 314.81 404.7C315.338 405.478 315.61 406.4 315.59 407.34C314.79 406.7 313.84 405.34 313.96 404.77C313.96 404.68 314.03 404.56 314.28 404.53H314.37Z" fill="#F99942"/>
<path d="M304.19 404.14C304.213 404.111 304.229 404.076 304.234 404.039C304.239 404.001 304.235 403.963 304.22 403.929C304.206 403.894 304.183 403.864 304.153 403.841C304.123 403.819 304.087 403.804 304.05 403.8C303.64 403.8 300.05 403.63 299.23 404.51V404.57C299.162 404.657 299.118 404.759 299.102 404.868C299.087 404.977 299.1 405.088 299.14 405.19C299.193 405.362 299.288 405.518 299.415 405.645C299.542 405.772 299.698 405.867 299.87 405.92C301.03 406.28 303.08 404.97 304.2 404.16L304.19 404.14ZM299.53 404.77C299.98 404.29 301.96 404.16 303.44 404.18C301.89 405.24 300.6 405.74 299.95 405.54C299.837 405.506 299.734 405.444 299.65 405.36C299.566 405.276 299.504 405.173 299.47 405.06C299.45 405.021 299.439 404.979 299.439 404.935C299.439 404.892 299.45 404.849 299.47 404.81L299.53 404.77Z" fill="#F99942"/>
<path d="M304.19 404.14C304.205 404.109 304.213 404.075 304.213 404.04C304.213 404.005 304.205 403.971 304.19 403.94C304.14 403.86 303.02 401.94 301.7 401.54C301.51 401.484 301.312 401.468 301.116 401.492C300.92 401.516 300.73 401.58 300.56 401.68C300.08 401.96 300.05 402.29 300.11 402.5C300.37 403.43 302.92 404.25 304.02 404.24C304.055 404.239 304.088 404.23 304.118 404.212C304.148 404.195 304.173 404.17 304.19 404.14ZM300.6 402.14C300.656 402.085 300.72 402.037 300.79 402C300.913 401.921 301.053 401.871 301.198 401.852C301.343 401.833 301.49 401.846 301.63 401.89C302.5 402.12 303.31 403.24 303.68 403.79C302.49 403.66 300.68 402.93 300.53 402.37C300.517 402.327 300.517 402.282 300.53 402.24C300.542 402.197 300.566 402.159 300.6 402.13V402.14Z" fill="#F99942"/>
<path d="M315.2 147.33C314.2 152.33 312.04 163.14 315.51 166.46C315.51 166.46 314.15 171.46 304.92 171.46C294.76 171.46 300.07 166.46 300.07 166.46C305.61 165.14 305.47 161.02 304.5 157.16L315.2 147.33Z" fill="#FCDCBE"/>
<path d="M298.28 135.61C298.336 135.619 298.394 135.619 298.45 135.61C298.498 135.587 298.54 135.554 298.575 135.514C298.61 135.474 298.636 135.428 298.653 135.378C298.67 135.327 298.676 135.274 298.672 135.222C298.668 135.169 298.654 135.117 298.63 135.07C298.361 134.5 297.959 134.002 297.458 133.619C296.957 133.236 296.371 132.98 295.75 132.87C295.646 132.861 295.542 132.893 295.461 132.958C295.379 133.023 295.325 133.117 295.31 133.22C295.299 133.325 295.329 133.43 295.395 133.512C295.46 133.594 295.556 133.648 295.66 133.66C296.15 133.754 296.611 133.964 297.004 134.272C297.397 134.58 297.711 134.977 297.92 135.43C297.959 135.489 298.012 135.537 298.076 135.569C298.139 135.6 298.209 135.615 298.28 135.61Z" fill="#A7642A"/>
<path d="M295.25 140C294.463 141.46 293.48 142.805 292.33 144C292.641 144.285 293.011 144.499 293.414 144.627C293.816 144.754 294.241 144.793 294.66 144.74L295.25 140Z" fill="#FCDCBE"/>
<path d="M296 138.87C295.92 139.54 295.49 140.04 295.06 139.99C294.63 139.94 294.33 139.35 294.41 138.68C294.49 138.01 294.92 137.51 295.41 137.56C295.9 137.61 296.07 138.2 296 138.87Z" fill="#A7642A"/>
<path d="M295.54 137.62L294 137C294 137 294.65 138.32 295.54 137.62Z" fill="#A7642A"/>
<path d="M313.02 402.24L304.86 404.14L299.9 385.38L308.06 383.48L313.02 402.24Z" fill="#4F2E10"/>
<path d="M325.54 407.72H317.17L317.82 388.33H326.2L325.54 407.72Z" fill="#4F2E10"/>
<path d="M316.5 406.75H325.91C326.073 406.749 326.231 406.807 326.355 406.913C326.478 407.02 326.558 407.168 326.58 407.33L327.65 414.77C327.671 414.958 327.652 415.149 327.595 415.329C327.537 415.509 327.441 415.675 327.315 415.816C327.188 415.957 327.033 416.069 326.86 416.146C326.687 416.222 326.499 416.261 326.31 416.26C323.03 416.21 321.45 416.01 317.31 416.01C314.76 416.01 311.04 416.28 307.53 416.28C304.02 416.28 303.82 412.8 305.29 412.49C311.85 411.07 312.89 409.13 315.1 407.27C315.49 406.936 315.987 406.752 316.5 406.75Z" fill="#834C1A"/>
<path d="M304.14 402.89L312.69 398.96C312.835 398.891 313.001 398.877 313.155 398.921C313.31 398.965 313.443 399.065 313.53 399.2L317.62 405.52C317.716 405.683 317.776 405.864 317.797 406.051C317.819 406.238 317.8 406.428 317.744 406.608C317.687 406.788 317.594 406.954 317.469 407.096C317.344 407.237 317.191 407.351 317.02 407.43C314.02 408.75 312.5 409.24 308.74 410.97C306.43 412.03 301.74 414.47 298.56 415.97C295.38 417.47 293.74 414.36 294.94 413.46C300.31 409.46 301.85 406.59 303.08 403.98C303.288 403.499 303.665 403.111 304.14 402.89Z" fill="#834C1A"/>
<path opacity="0.2" d="M299.9 385.38L302.56 395.44L310.62 393.15L308.07 383.48L299.9 385.38Z" fill="black"/>
<path opacity="0.2" d="M326.2 388.33H317.82L317.49 398.33H325.87L326.2 388.33Z" fill="black"/>
<path d="M330 168.36C333.48 169.13 337.2 181.64 337.2 181.64L327.36 192.11C327.36 192.11 319.19 180.35 320.86 176.03C322.55 171.52 325.85 167.46 330 168.36Z" fill="#834C1A"/>
<path opacity="0.4" d="M324.44 176.33C322.68 174.72 321.49 175.2 320.68 176.48C319.88 180.2 324.62 187.99 326.53 190.94C327.41 187.42 328.42 180 324.44 176.33Z" fill="black"/>
<path d="M285.91 168.61C285.91 168.61 281.91 170.01 289.91 219.16H323.91C323.34 205.32 323.32 196.78 329.91 168.36C325.146 167.377 320.316 166.742 315.46 166.46C310.32 166.09 305.16 166.09 300.02 166.46C293.43 167.07 285.91 168.61 285.91 168.61Z" fill="#834C1A"/>
<path opacity="0.4" d="M285.6 187.47C285.82 189.86 286.11 192.55 286.49 195.59C289.28 193.08 291.56 185.94 290.72 181.78C288.727 183.398 286.999 185.318 285.6 187.47Z" fill="black"/>
<path d="M289.24 180C287.405 184.618 285.339 189.14 283.05 193.55C280.787 198.119 278.109 202.471 275.05 206.55L274.41 207.34L274.09 207.73C273.98 207.86 273.89 207.98 273.72 208.16C273.118 208.817 272.448 209.407 271.72 209.92C270.434 210.81 269.026 211.511 267.54 212C264.949 212.828 262.258 213.305 259.54 213.42C254.45 213.622 249.354 213.169 244.38 212.07L244.93 207.87C247.23 207.87 249.64 207.87 251.93 207.68C254.23 207.567 256.521 207.313 258.79 206.92C260.897 206.591 262.958 206.014 264.93 205.2C265.726 204.86 266.47 204.409 267.14 203.86C267.396 203.646 267.627 203.404 267.83 203.14C267.83 203.14 267.95 202.98 268.03 202.87L268.26 202.54L268.73 201.88C271.239 198.004 273.475 193.958 275.42 189.77C277.42 185.52 279.42 181.11 281.25 176.77L289.24 180Z" fill="#FCDCBE"/>
<path d="M285.91 168.61C281.74 169.61 276.62 181.05 276.62 181.05L285.26 193.75C285.26 193.75 296.77 179.26 295.4 174.84C294 170.23 291 167.37 285.91 168.61Z" fill="#834C1A"/>
<path d="M247.33 208.51L240.12 205.18L239.4 212.35C239.4 212.35 245.4 214.12 248.4 212.35L247.33 208.51Z" fill="#FCDCBE"/>
<path d="M235.81 204.46L235.12 209.92L239.4 212.35L240.12 205.18L235.81 204.46Z" fill="#FCDCBE"/>
<path d="M318.82 139.36C317.29 147.53 316.82 151.03 312.14 154.74C305.14 160.32 295.39 156.66 294.45 148.2C293.59 140.58 296.23 128.5 304.7 126.2C306.566 125.685 308.532 125.657 310.412 126.118C312.292 126.579 314.022 127.514 315.438 128.834C316.854 130.153 317.908 131.814 318.5 133.656C319.092 135.499 319.202 137.463 318.82 139.36Z" fill="#FCDCBE"/>
<path d="M300.87 141.08C300.4 145.25 300.22 156.08 309.38 156.42C320.59 156.83 323.95 147.25 322.95 143.42C328.79 138.67 329.63 130.5 323.07 124.25C316.51 118 302.07 121.49 298.07 127.58C293 135.13 300.87 141.08 300.87 141.08Z" fill="#C6762F"/>
<path d="M312.1 126.68C311.56 122.28 311.98 119.25 316.1 119.25C320.22 119.25 325.84 120.74 327.9 124.95C329.96 129.16 330.13 135.75 324.38 135.08C318.63 134.41 312.75 131.94 312.1 126.68Z" fill="#F99942"/>
<path d="M318.48 125.62C317.48 120.38 322.17 105.62 333.56 104.62C338.84 104.17 341.28 109.85 338.56 110.79C343.56 110.73 346.76 117.34 342.1 118.33C345.78 120.69 344.87 125.53 339.62 127.91C335.71 129.71 319.83 132.88 318.48 125.62Z" fill="#C6762F"/>
<path d="M330.65 131.25C326.98 131.25 323.15 130.71 320.77 129.12C320.105 128.719 319.544 128.165 319.136 127.504C318.727 126.843 318.482 126.095 318.42 125.32C318.417 125.254 318.439 125.19 318.482 125.14C318.524 125.09 318.585 125.058 318.65 125.05C318.683 125.046 318.717 125.049 318.749 125.058C318.781 125.068 318.81 125.084 318.836 125.105C318.861 125.127 318.882 125.154 318.896 125.184C318.911 125.214 318.919 125.247 318.92 125.28C318.98 125.979 319.205 126.654 319.575 127.25C319.945 127.846 320.45 128.346 321.05 128.71C325.58 131.71 336.05 130.71 339.31 129.71C342.13 128.79 344.04 127 344.42 124.94C344.538 124.184 344.445 123.41 344.15 122.704C343.856 121.998 343.371 121.387 342.75 120.94C342.726 120.918 342.707 120.89 342.694 120.86C342.681 120.83 342.674 120.798 342.674 120.765C342.674 120.732 342.681 120.7 342.694 120.67C342.707 120.64 342.726 120.612 342.75 120.59C342.797 120.544 342.86 120.519 342.925 120.519C342.99 120.519 343.053 120.544 343.1 120.59C343.798 121.099 344.341 121.793 344.667 122.593C344.994 123.393 345.092 124.268 344.95 125.12C344.54 127.37 342.51 129.29 339.51 130.27C336.615 131 333.634 131.329 330.65 131.25Z" fill="#C6762F"/>
<path d="M298.32 140C297.389 141.306 297.005 142.925 297.25 144.51C297.58 146.61 299.62 146.75 301.1 145.41C302.58 144.07 303.87 141.65 302.78 139.91C302.538 139.534 302.203 139.227 301.809 139.017C301.414 138.807 300.972 138.701 300.525 138.71C300.078 138.719 299.64 138.842 299.255 139.068C298.869 139.294 298.547 139.615 298.32 140Z" fill="#FCDCBE"/>
<path d="M298.89 219.16C298.89 219.16 303.75 276.65 308.8 309.05C312.87 335.22 316.09 396.39 316.09 396.39H327.51C327.51 396.39 331.57 337.05 329.51 311.17C324.28 245.67 335.95 240.33 323.94 219.17L298.89 219.16Z" fill="#F99942"/>
<path opacity="0.4" d="M313.27 240.89C308.744 245.64 305.092 251.151 302.48 257.17C303.81 270.09 305.39 284.43 307.07 296.99C313.964 279.143 316.1 259.811 313.27 240.89Z" fill="black"/>
<path d="M290.9 218.8C290.9 218.8 280.35 281.59 278.69 309.89C282.83 336.06 299.77 391.38 299.77 391.38L310.16 387.61C310.16 387.61 304.41 327.29 298.16 310.78C312.23 263.41 322.57 251.43 319.56 219.16C312.35 219.16 290.9 218.8 290.9 218.8Z" fill="#F99942"/>
<path d="M298.38 394.14L312.42 390.33L311.62 384.73L296.59 388.8L298.38 394.14Z" fill="#834C1A"/>
<path d="M314.52 396.62H329.07L329.83 391.52L314.44 391L314.52 396.62Z" fill="#834C1A"/>
<path d="M324.44 217.16L325.97 220.21C326.09 220.45 325.81 220.69 325.42 220.69H289.74C289.44 220.69 289.18 220.54 289.16 220.34L288.85 217.34C288.85 217.13 289.1 216.95 289.43 216.95H323.88C323.983 216.936 324.089 216.948 324.187 216.984C324.284 217.021 324.371 217.081 324.44 217.16Z" fill="#F99942"/>
<path opacity="0.6" d="M324.44 217.16L325.97 220.21C326.09 220.45 325.81 220.69 325.42 220.69H289.74C289.44 220.69 289.18 220.54 289.16 220.34L288.85 217.34C288.85 217.13 289.1 216.95 289.43 216.95H323.88C323.983 216.936 324.089 216.948 324.187 216.984C324.284 217.021 324.371 217.081 324.44 217.16Z" fill="black"/>
<path d="M319.81 221H320.73C320.92 221 321.06 220.9 321.05 220.79L320.61 216.79C320.61 216.67 320.44 216.58 320.26 216.58H319.33C319.15 216.58 319.01 216.67 319.02 216.79L319.45 220.79C319.47 220.92 319.63 221 319.81 221Z" fill="#F99942"/>
<path d="M307.43 191.88C307.32 191.878 307.213 191.842 307.125 191.775C307.036 191.709 306.972 191.616 306.94 191.51C303.68 179.45 296.94 169.51 293.67 168.01C293.416 167.854 293.111 167.804 292.82 167.87C292.76 167.902 292.693 167.921 292.625 167.926C292.557 167.932 292.489 167.923 292.424 167.901C292.36 167.878 292.3 167.843 292.25 167.797C292.2 167.751 292.159 167.695 292.131 167.633C292.103 167.571 292.088 167.504 292.087 167.435C292.086 167.367 292.099 167.299 292.125 167.236C292.151 167.173 292.19 167.116 292.239 167.069C292.288 167.021 292.346 166.984 292.41 166.96C292.683 166.86 292.975 166.82 293.265 166.844C293.556 166.869 293.837 166.956 294.09 167.1C297.55 168.74 304.39 178.54 307.81 190.87C310.26 190.87 314.04 190.54 314.96 190.46C316.1 189.1 324.48 178.62 321.35 167.15C321.332 167.087 321.327 167.021 321.335 166.956C321.342 166.891 321.363 166.828 321.396 166.771C321.429 166.714 321.472 166.664 321.525 166.625C321.577 166.585 321.636 166.556 321.7 166.54C321.827 166.506 321.963 166.524 322.077 166.59C322.191 166.655 322.275 166.763 322.31 166.89C325.8 179.65 315.68 191.16 315.57 191.27C315.531 191.319 315.482 191.359 315.427 191.388C315.372 191.417 315.312 191.435 315.25 191.44C315.2 191.44 310.21 191.88 307.43 191.88Z" fill="#F99942"/>
<path d="M324 198.94C318.55 188.73 316.32 188.01 315.35 184.73C316.085 182.896 317.134 181.204 318.45 179.73C317.79 179.54 316.37 179.26 315.45 179.09C315.55 178.64 315.66 178.2 315.76 177.77C314.759 177.658 313.746 177.705 312.76 177.91V176.91C311.49 176.634 310.185 176.549 308.89 176.66C309.003 177.133 309.113 177.613 309.22 178.1C308.22 178.29 306.7 178.6 305.97 178.81C307.389 180.417 308.43 182.319 309.02 184.38C306.08 189.43 294.66 221.89 313.24 224.38C331.82 226.87 329.44 209.16 324 198.94Z" fill="#F99942"/>
<path opacity="0.4" d="M324 198.94C318.55 188.73 316.32 188.01 315.35 184.73C316.085 182.896 317.134 181.204 318.45 179.73C317.79 179.54 316.37 179.26 315.45 179.09C315.55 178.64 315.66 178.2 315.76 177.77C314.759 177.658 313.746 177.705 312.76 177.91V176.91C311.49 176.634 310.185 176.549 308.89 176.66C309.003 177.133 309.113 177.613 309.22 178.1C308.22 178.29 306.7 178.6 305.97 178.81C307.389 180.417 308.43 182.319 309.02 184.38C306.08 189.43 294.66 221.89 313.24 224.38C331.82 226.87 329.44 209.16 324 198.94Z" fill="white"/>
<path d="M308.26 183.41C308.144 183.925 308.094 184.453 308.11 184.98C308.11 185.35 309.11 185.6 310.22 185.71C311.33 185.82 315.99 186 315.84 185.48C315.69 184.96 316.07 184.25 316.09 183.81C316.11 183.37 314.24 183.35 312.67 183.41C311.1 183.47 308.57 182.85 308.26 183.41Z" fill="#F99942"/>
<path d="M297.45 221H298.37C298.55 221 298.69 220.9 298.68 220.79L298.25 216.79C298.25 216.67 298.08 216.58 297.89 216.58H297C296.82 216.58 296.68 216.67 296.69 216.79L297.12 220.79C297.1 220.92 297.26 221 297.45 221Z" fill="#F99942"/>
<path d="M665.054 118.049C665.644 117.467 665.649 116.517 665.067 115.928L655.578 106.325C654.996 105.736 654.046 105.73 653.457 106.312C652.868 106.894 652.862 107.844 653.445 108.433L661.879 116.969L653.343 125.404C652.754 125.986 652.748 126.936 653.33 127.525C653.912 128.114 654.862 128.12 655.451 127.538L665.054 118.049ZM499.991 117.5L663.991 118.482L664.009 115.482L500.009 114.5L499.991 117.5Z" fill="black"/>
</g>
<defs>
<clipPath id="clip0">
<rect width="500" height="500" fill="white"/>
</clipPath>
</defs>
</svg>
