<svg width="403" height="99" viewBox="0 0 403 99" fill="none" xmlns="http://www.w3.org/2000/svg">
<path d="M44.9796 21.836V14.4309L41.8897 20.0491H40.9151L37.8108 14.4309V21.836H36.1576V11.4431H37.9336L41.406 17.7975L44.8785 11.4431H46.6545V21.836H44.9796Z" fill="white"/>
<path d="M49.0224 21.836V11.4431H50.6756V21.836H49.0224Z" fill="white"/>
<path d="M54.704 14.4881V21.836H53.0508V11.4431H54.408L60.3567 18.9555V11.4574H62.0244V21.836H60.5733L54.704 14.4881Z" fill="white"/>
<path d="M64.3851 21.836V11.4431H66.0383V21.836H64.3851Z" fill="white"/>
<path d="M74.622 13.8877C74.3958 13.6399 74.0108 13.4016 73.4669 13.1729C72.9231 12.9442 72.3624 12.8298 71.7849 12.8298C71.1014 12.8298 70.5889 12.9561 70.2471 13.2086C69.9102 13.4564 69.7418 13.8091 69.7418 14.2665C69.7418 14.4095 69.761 14.5381 69.7995 14.6525C69.838 14.7669 69.8862 14.8693 69.9439 14.9598C70.0065 15.0456 70.0979 15.129 70.2183 15.21C70.3386 15.291 70.4565 15.3601 70.572 15.4173C70.6923 15.4745 70.8536 15.5364 71.0557 15.6031C71.2627 15.6651 71.4552 15.7199 71.6332 15.7675C71.8113 15.8104 72.0447 15.8676 72.3335 15.9391C72.7956 16.0487 73.1902 16.1583 73.5175 16.2679C73.8448 16.3727 74.16 16.5085 74.4632 16.6753C74.7664 16.8373 75.0095 17.0208 75.1924 17.2257C75.3752 17.4258 75.5196 17.6712 75.6255 17.9619C75.7362 18.2526 75.7916 18.5838 75.7916 18.9555C75.7916 19.37 75.7242 19.7441 75.5894 20.0777C75.4595 20.4112 75.279 20.6924 75.048 20.9211C74.817 21.1498 74.5378 21.3428 74.2105 21.5001C73.8833 21.6526 73.5319 21.7645 73.1565 21.836C72.7811 21.9027 72.3768 21.9361 71.9437 21.9361C71.1447 21.9361 70.3723 21.817 69.6263 21.5787C68.8803 21.3357 68.2089 20.9878 67.6121 20.5351L68.3701 19.127C68.6733 19.4367 69.1667 19.737 69.8501 20.0276C70.5383 20.3135 71.2458 20.4565 71.9726 20.4565C72.6271 20.4565 73.13 20.3421 73.4814 20.1134C73.8375 19.8847 74.0156 19.5559 74.0156 19.127C74.0156 18.9555 73.9891 18.8006 73.9362 18.6624C73.8833 18.5242 73.7918 18.4003 73.6619 18.2907C73.5319 18.1764 73.3972 18.0787 73.2576 17.9977C73.1228 17.9167 72.9279 17.8333 72.6728 17.7475C72.4226 17.6617 72.1915 17.5902 71.9798 17.5331C71.7728 17.4759 71.4913 17.402 71.1351 17.3115C70.5816 17.1685 70.1244 17.0232 69.7634 16.8755C69.4025 16.7277 69.0824 16.5467 68.8033 16.3322C68.5289 16.1178 68.3292 15.8652 68.2041 15.5746C68.0789 15.2791 68.0164 14.9313 68.0164 14.531C68.0164 14.0306 68.1126 13.5803 68.3052 13.18C68.5025 12.775 68.772 12.4414 69.1137 12.1794C69.4554 11.9173 69.8573 11.7171 70.3193 11.5789C70.7814 11.4408 71.2843 11.3717 71.8282 11.3717C73.118 11.3717 74.2996 11.7624 75.3728 12.5439L74.622 13.8877Z" fill="white"/>
<path d="M85.155 12.8941H81.6681V21.836H79.9932V12.8941H76.4918V11.4431H85.155V12.8941Z" fill="white"/>
<path d="M90.8221 10.371L89.7537 10.0493L90.5983 8.44106H92.1505L90.8221 10.371ZM93.7604 20.385V21.836H86.5628V11.4431H93.6304V12.8941H88.216V15.8462H92.9013V17.2114H88.216V20.385H93.7604Z" fill="white"/>
<path d="M95.4714 21.836V11.4431H100.041C100.498 11.4431 100.932 11.5408 101.341 11.7362C101.755 11.9316 102.101 12.1889 102.38 12.5082C102.659 12.8274 102.881 13.1896 103.044 13.5946C103.208 13.9997 103.29 14.4095 103.29 14.824C103.29 15.5293 103.102 16.1678 102.727 16.7396C102.351 17.3067 101.856 17.6879 101.24 17.8833L103.709 21.836H101.846L99.5647 18.2192H97.1246V21.836H95.4714ZM97.1246 16.7682H100.027C100.484 16.7682 100.862 16.58 101.16 16.2036C101.459 15.8223 101.608 15.3625 101.608 14.824C101.608 14.2951 101.439 13.8424 101.102 13.466C100.766 13.0847 100.376 12.8941 99.9329 12.8941H97.1246V16.7682Z" fill="white"/>
<path d="M105.246 21.836V11.4431H106.9V21.836H105.246Z" fill="white"/>
<path d="M108.61 16.6396C108.61 15.9534 108.738 15.291 108.993 14.6525C109.253 14.0092 109.604 13.4469 110.047 12.9656C110.49 12.4843 111.027 12.0983 111.657 11.8077C112.288 11.517 112.957 11.3717 113.664 11.3717C114.391 11.3717 115.072 11.5241 115.707 11.8291C116.342 12.1341 116.872 12.5367 117.295 13.0371C117.724 13.5327 118.061 14.0973 118.306 14.7311C118.551 15.3601 118.674 16.001 118.674 16.6539C118.674 17.3401 118.544 18.0024 118.284 18.641C118.029 19.2795 117.683 19.8394 117.245 20.3207C116.807 20.802 116.273 21.188 115.642 21.4786C115.012 21.7645 114.343 21.9075 113.635 21.9075C113.048 21.9075 112.49 21.8122 111.96 21.6216C111.431 21.4262 110.964 21.1594 110.56 20.821C110.16 20.4827 109.811 20.092 109.513 19.6488C109.219 19.2056 108.996 18.7267 108.842 18.2121C108.687 17.6927 108.61 17.1685 108.61 16.6396ZM113.65 20.4279C114.16 20.4279 114.629 20.3183 115.057 20.0991C115.486 19.8799 115.837 19.5916 116.111 19.2342C116.386 18.8721 116.597 18.467 116.747 18.0191C116.901 17.5712 116.978 17.1113 116.978 16.6396C116.978 16.1488 116.896 15.677 116.732 15.2243C116.573 14.7669 116.352 14.3642 116.068 14.0163C115.789 13.6637 115.438 13.385 115.014 13.18C114.595 12.9704 114.14 12.8655 113.65 12.8655C113.139 12.8655 112.668 12.9751 112.235 13.1943C111.806 13.4088 111.452 13.6947 111.173 14.0521C110.894 14.4095 110.678 14.8121 110.524 15.2601C110.37 15.708 110.293 16.1678 110.293 16.6396C110.293 17.2972 110.425 17.9119 110.69 18.4837C110.959 19.0555 111.354 19.5225 111.874 19.8847C112.393 20.2468 112.985 20.4279 113.65 20.4279Z" fill="white"/>
<path d="M124.045 21.836V11.4431H127.771C128.594 11.4431 129.332 11.5789 129.987 11.8506C130.646 12.1174 131.185 12.4891 131.604 12.9656C132.023 13.4374 132.34 13.9854 132.557 14.6096C132.778 15.2291 132.889 15.901 132.889 16.6253C132.889 18.1978 132.422 19.4606 131.488 20.4136C130.56 21.3619 129.32 21.836 127.771 21.836H124.045ZM127.771 12.8941H125.699V20.385H127.771C128.492 20.385 129.113 20.2206 129.633 19.8918C130.158 19.5583 130.55 19.1103 130.81 18.548C131.07 17.9857 131.2 17.3448 131.2 16.6253C131.2 15.515 130.894 14.6168 130.283 13.9306C129.676 13.2396 128.839 12.8941 127.771 12.8941Z" fill="white"/>
<path d="M137.271 11.4431H138.838L142.917 21.836H141.17L140.065 19.0126H136.015L134.918 21.836H133.156L137.271 11.4431ZM139.74 17.7975L138.051 13.2444L136.311 17.7975H139.74Z" fill="white"/>
<path d="M12.0745 43.1841V32.7912H14.5002V43.1841H12.0745Z" fill="white"/>
<path d="M18.9329 37.2443V43.1841H16.5072V32.7912H18.4347L23.2933 38.9097V32.7912H25.719V43.1841H23.7409L18.9329 37.2443Z" fill="white"/>
<path d="M35.7249 34.8998H32.534V43.1841H30.1083V34.8998H26.903V32.7912H35.7249V34.8998Z" fill="white"/>
<path d="M44.287 41.0755V43.1841H36.9089V32.7912H44.1571V34.8998H39.3346V36.9155H43.4785V38.8668H39.3346V41.0755H44.287Z" fill="white"/>
<path d="M50.7483 37.7518H54.7983V43.1841H52.7914V42.162C51.9924 42.891 51.0708 43.2556 50.0264 43.2556C49.3429 43.2556 48.6932 43.1245 48.0772 42.8624C47.4611 42.6004 46.9245 42.2406 46.4673 41.7831C46.0148 41.3209 45.6539 40.7562 45.3844 40.0891C45.1148 39.4172 44.9801 38.6929 44.9801 37.9162C44.9801 37.2109 45.1148 36.539 45.3844 35.9005C45.6539 35.2572 46.0173 34.7044 46.4745 34.2422C46.9365 33.7752 47.4924 33.4059 48.1421 33.1343C48.7919 32.8579 49.4825 32.7197 50.2141 32.7197C51.1718 32.7197 52.0189 32.9223 52.7553 33.3273C53.4964 33.7276 54.0499 34.2803 54.4157 34.9856L52.6109 36.3365C52.375 35.8791 52.0309 35.5193 51.5785 35.2572C51.1309 34.9903 50.6472 34.8569 50.1274 34.8569C49.3381 34.8569 48.6908 35.1595 48.1854 35.7647C47.6849 36.3651 47.4346 37.1109 47.4346 38.0019C47.4346 38.9073 47.6945 39.6531 48.2143 40.2392C48.7389 40.8253 49.4103 41.1184 50.2285 41.1184C51.1863 41.1184 52.0406 40.6848 52.7914 39.8175V39.4958H50.7483V37.7518Z" fill="white"/>
<path d="M56.401 43.1841V32.7912H61.1369C61.7722 32.7912 62.3569 32.9651 62.8912 33.313C63.4254 33.6561 63.8369 34.0969 64.1257 34.6353C64.4192 35.169 64.566 35.7242 64.566 36.3008C64.566 36.9345 64.4096 37.5254 64.0968 38.0734C63.7888 38.6167 63.3724 39.0312 62.8478 39.3171L65.158 43.1841H62.4797L60.4655 39.8318H58.8267V43.1841H56.401ZM58.8267 37.7375H61.043C61.3366 37.7375 61.5845 37.6017 61.7866 37.3301C61.9936 37.0584 62.097 36.7153 62.097 36.3008C62.097 35.8957 61.9815 35.5622 61.7505 35.3001C61.5195 35.0332 61.2596 34.8998 60.9708 34.8998H58.8267V37.7375Z" fill="white"/>
<path d="M68.9554 32.7912H71.5688L75.1784 43.1841H72.695L71.8792 40.8539H68.6161L67.8147 43.1841H65.3313L68.9554 32.7912ZM71.4821 39.2028L70.2548 35.2072L68.9987 39.2028H71.4821Z" fill="white"/>
<path d="M84.7512 40.8539C84.4961 41.4829 84.0341 42.0047 83.3651 42.4193C82.6961 42.8291 81.9573 43.0936 81.1488 43.2127C81.63 43.6749 81.8707 44.1729 81.8707 44.7066C81.8707 45.1545 81.7215 45.5238 81.4231 45.8145C81.1295 46.1099 80.706 46.2576 80.1525 46.2576C79.5365 46.2576 78.9373 46.1028 78.3549 45.793L78.9108 44.5779C79.1803 44.7733 79.4619 44.871 79.7554 44.871C79.972 44.871 80.1429 44.8162 80.268 44.7066C80.398 44.6017 80.4629 44.4516 80.4629 44.2563C80.4629 43.9227 80.2464 43.5844 79.8132 43.2413C79.1442 43.1698 78.5161 42.9673 77.929 42.6337C77.3466 42.3002 76.8581 41.888 76.4634 41.3972C76.0688 40.9063 75.7559 40.3583 75.5249 39.7532C75.2987 39.1432 75.1856 38.5261 75.1856 37.9019C75.1856 37.3968 75.2602 36.8964 75.4094 36.4008C75.5586 35.9053 75.7848 35.4383 76.088 34.9999C76.3912 34.5567 76.7498 34.1683 77.1637 33.8348C77.5776 33.4965 78.0661 33.2296 78.6292 33.0342C79.1971 32.8341 79.8036 32.734 80.4485 32.734C81.4063 32.734 82.2533 32.9389 82.9897 33.3487C83.7261 33.7585 84.2747 34.3089 84.6357 34.9999L82.7731 36.2865C82.6576 36.0244 82.5084 35.798 82.3255 35.6074C82.1426 35.4121 81.9405 35.2643 81.7191 35.1643C81.5025 35.0594 81.2835 34.9856 81.0621 34.9427C80.8456 34.895 80.6218 34.8712 80.3907 34.8712C80.0298 34.8712 79.6977 34.9308 79.3945 35.0499C79.0913 35.169 78.8338 35.3311 78.622 35.536C78.4102 35.7361 78.2298 35.972 78.0806 36.2436C77.9362 36.5104 77.8279 36.7916 77.7557 37.087C77.6883 37.3777 77.6546 37.6779 77.6546 37.9877C77.6546 38.5404 77.7653 39.0551 77.9867 39.5316C78.2129 40.0081 78.5378 40.3941 78.9613 40.6895C79.3897 40.985 79.8758 41.1327 80.4196 41.1327C80.7325 41.1327 81.0333 41.0874 81.322 40.9969C81.6156 40.9063 81.8972 40.7515 82.1667 40.5323C82.4362 40.3083 82.6383 40.0319 82.7731 39.7031L84.7512 40.8539Z" fill="white"/>
<path d="M88.7723 31.2115C88.652 31.2115 88.5461 31.2354 88.4547 31.283C88.3632 31.3307 88.2935 31.3855 88.2453 31.4474C88.202 31.5046 88.1659 31.5713 88.137 31.6476C88.1082 31.7238 88.0913 31.7834 88.0865 31.8263C88.0817 31.8644 88.0793 31.893 88.0793 31.912H86.8087C86.8087 31.812 86.8279 31.6833 86.8664 31.526C86.905 31.3688 86.9723 31.1901 87.0686 30.99C87.1648 30.7898 87.2804 30.6064 87.4151 30.4396C87.5547 30.268 87.7352 30.1251 87.9566 30.0107C88.178 29.8916 88.421 29.832 88.6857 29.832C88.8927 29.832 89.0924 29.8701 89.2849 29.9464C89.4774 30.0179 89.6338 30.0989 89.7542 30.1894C89.8793 30.2752 90.0213 30.3562 90.1801 30.4324C90.3389 30.5039 90.4953 30.5397 90.6494 30.5397C90.7745 30.5397 90.8876 30.5158 90.9887 30.4682C91.0897 30.4158 91.1643 30.3586 91.2125 30.2966C91.2654 30.2299 91.3087 30.1584 91.3424 30.0822C91.3761 30.006 91.3978 29.9464 91.4074 29.9035C91.417 29.8558 91.4218 29.8225 91.4218 29.8034H92.6924C92.6924 29.8797 92.6708 29.9917 92.6274 30.1394C92.5889 30.2871 92.5192 30.4634 92.4181 30.6683C92.317 30.8732 92.1943 31.0662 92.0499 31.2473C91.9103 31.4236 91.725 31.5737 91.494 31.6976C91.263 31.8215 91.0103 31.8834 90.736 31.8834C90.4809 31.8834 90.2355 31.8286 89.9996 31.719C89.7686 31.6047 89.5496 31.4927 89.3427 31.3831C89.1405 31.2687 88.9504 31.2115 88.7723 31.2115ZM88.4475 32.7912H91.0609L94.6705 43.1841H92.1871L91.3713 40.8539H88.1082L87.3068 43.1841H84.8234L88.4475 32.7912ZM90.9742 39.2028L89.7469 35.2072L88.4908 39.2028H90.9742Z" fill="white"/>
<path d="M94.6777 37.9734C94.6777 37.0584 94.9015 36.2031 95.3491 35.4073C95.7967 34.6067 96.4248 33.9611 97.2334 33.4702C98.0467 32.9794 98.9443 32.734 99.9262 32.734C100.533 32.734 101.11 32.8317 101.659 33.0271C102.207 33.2225 102.689 33.4917 103.103 33.8348C103.517 34.1779 103.875 34.5734 104.178 35.0213C104.486 35.4645 104.72 35.9434 104.879 36.458C105.037 36.9727 105.117 37.4921 105.117 38.0162C105.117 38.9264 104.895 39.7817 104.453 40.5823C104.01 41.3829 103.384 42.0309 102.576 42.5265C101.767 43.0221 100.869 43.2699 99.8828 43.2699C99.1272 43.2699 98.4197 43.1198 97.7604 42.8196C97.101 42.5194 96.5475 42.1215 96.0999 41.6259C95.6571 41.1303 95.3082 40.5656 95.0531 39.9319C94.8029 39.2933 94.6777 38.6405 94.6777 37.9734ZM99.8973 41.1327C100.34 41.1327 100.74 41.0421 101.096 40.8611C101.457 40.68 101.748 40.4393 101.969 40.1391C102.191 39.8342 102.359 39.4958 102.475 39.1242C102.59 38.7525 102.648 38.3689 102.648 37.9734C102.648 37.5683 102.585 37.1823 102.46 36.8154C102.34 36.4437 102.167 36.1125 101.94 35.8219C101.714 35.5312 101.423 35.3001 101.067 35.1285C100.715 34.957 100.326 34.8712 99.8973 34.8712C99.4545 34.8712 99.055 34.9618 98.6989 35.1428C98.3427 35.3191 98.054 35.5574 97.8326 35.8576C97.6112 36.1531 97.4403 36.4842 97.32 36.8512C97.2045 37.2181 97.1467 37.6017 97.1467 38.0019C97.1467 38.407 97.2069 38.7954 97.3272 39.167C97.4475 39.5387 97.6208 39.8723 97.847 40.1677C98.0732 40.4584 98.362 40.6919 98.7133 40.8682C99.0695 41.0445 99.4641 41.1327 99.8973 41.1327Z" fill="white"/>
<path d="M117.346 41.0755V43.1841H109.968V32.7912H117.216V34.8998H112.394V36.9155H116.538V38.8668H112.394V41.0755H117.346Z" fill="white"/>
<path d="M122.27 43.1841V32.7912H126.19C127.032 32.7912 127.788 32.927 128.457 33.1986C129.131 33.4655 129.682 33.8372 130.11 34.3137C130.538 34.7854 130.863 35.3334 131.085 35.9577C131.311 36.5772 131.424 37.249 131.424 37.9734C131.424 39.5459 130.945 40.8086 129.987 41.7617C129.034 42.71 127.769 43.1841 126.19 43.1841H122.27ZM126.19 34.8998H124.696V41.0755H126.19C127.056 41.0755 127.732 40.7896 128.219 40.2178C128.709 39.6412 128.955 38.893 128.955 37.9734C128.955 37.0441 128.709 36.3008 128.219 35.7432C127.728 35.181 127.051 34.8998 126.19 34.8998Z" fill="white"/>
<path d="M132.247 37.9734C132.247 37.0584 132.471 36.2031 132.918 35.4073C133.366 34.6067 133.994 33.9611 134.803 33.4702C135.616 32.9794 136.514 32.734 137.495 32.734C138.102 32.734 138.679 32.8317 139.228 33.0271C139.777 33.2225 140.258 33.4917 140.672 33.8348C141.086 34.1779 141.444 34.5734 141.748 35.0213C142.056 35.4645 142.289 35.9434 142.448 36.458C142.607 36.9727 142.686 37.4921 142.686 38.0162C142.686 38.9264 142.465 39.7817 142.022 40.5823C141.579 41.3829 140.953 42.0309 140.145 42.5265C139.336 43.0221 138.439 43.2699 137.452 43.2699C136.696 43.2699 135.989 43.1198 135.33 42.8196C134.67 42.5194 134.117 42.1215 133.669 41.6259C133.226 41.1303 132.877 40.5656 132.622 39.9319C132.372 39.2933 132.247 38.6405 132.247 37.9734ZM137.467 41.1327C137.909 41.1327 138.309 41.0421 138.665 40.8611C139.026 40.68 139.317 40.4393 139.538 40.1391C139.76 39.8342 139.928 39.4958 140.044 39.1242C140.159 38.7525 140.217 38.3689 140.217 37.9734C140.217 37.5683 140.154 37.1823 140.029 36.8154C139.909 36.4437 139.736 36.1125 139.51 35.8219C139.283 35.5312 138.992 35.3001 138.636 35.1285C138.285 34.957 137.895 34.8712 137.467 34.8712C137.024 34.8712 136.624 34.9618 136.268 35.1428C135.912 35.3191 135.623 35.5574 135.402 35.8576C135.18 36.1531 135.01 36.4842 134.889 36.8512C134.774 37.2181 134.716 37.6017 134.716 38.0019C134.716 38.407 134.776 38.7954 134.896 39.167C135.017 39.5387 135.19 39.8723 135.416 40.1677C135.642 40.4584 135.931 40.6919 136.283 40.8682C136.639 41.0445 137.033 41.1327 137.467 41.1327Z" fill="white"/>
<path d="M0 64.5322V54.1393H3.92008C4.76233 54.1393 5.51795 54.2751 6.18694 54.5467C6.86074 54.8136 7.41181 55.1852 7.84016 55.6618C8.2685 56.1335 8.59337 56.6815 8.81476 57.3058C9.04097 57.9252 9.15407 58.5971 9.15407 59.3214C9.15407 60.8939 8.67519 62.1567 7.71743 63.1098C6.76448 64.058 5.4987 64.5322 3.92008 64.5322H0ZM3.92008 56.2479H2.42568V62.4236H3.92008C4.78639 62.4236 5.4626 62.1377 5.9487 61.5658C6.43961 60.9892 6.68507 60.2411 6.68507 59.3214C6.68507 58.3922 6.43961 57.6488 5.9487 57.0913C5.45779 56.529 4.78158 56.2479 3.92008 56.2479Z" fill="white"/>
<path d="M17.9616 62.4236V64.5322H10.5835V54.1393H17.8317V56.2479H13.0092V58.2636H17.1531V60.2149H13.0092V62.4236H17.9616Z" fill="white"/>
<path d="M25.7368 57.1842C25.6261 57.0461 25.2675 56.8459 24.6611 56.5838C24.0595 56.3217 23.4868 56.1907 22.9429 56.1907C22.0718 56.1907 21.6362 56.4766 21.6362 57.0484C21.6362 57.2104 21.6723 57.3486 21.7445 57.463C21.8215 57.5774 21.9683 57.6846 22.1849 57.7847C22.4015 57.8847 22.5988 57.9634 22.7769 58.0205C22.955 58.0777 23.251 58.1635 23.6649 58.2779C23.7467 58.3017 23.8068 58.3184 23.8453 58.3279C24.2833 58.447 24.6563 58.5661 24.9643 58.6853C25.2724 58.7996 25.5683 58.945 25.8523 59.1213C26.1411 59.2928 26.3721 59.4834 26.5454 59.6931C26.7186 59.9028 26.8558 60.1577 26.9569 60.4579C27.0579 60.7534 27.1085 61.0917 27.1085 61.4729C27.1085 61.9304 27.0363 62.3426 26.8919 62.7095C26.7475 63.0716 26.5526 63.3718 26.3071 63.6101C26.0617 63.8484 25.7681 64.0485 25.4264 64.2105C25.0847 64.3678 24.7285 64.4798 24.3579 64.5465C23.9873 64.6132 23.5927 64.6465 23.1739 64.6465C22.3943 64.6465 21.605 64.5322 20.806 64.3034C20.0119 64.0747 19.3092 63.7602 18.698 63.3599L19.7592 61.2656C19.8122 61.3276 19.9445 61.4205 20.1563 61.5444C20.3729 61.6683 20.6352 61.8041 20.9432 61.9518C21.256 62.0948 21.6194 62.2187 22.0333 62.3235C22.452 62.4283 22.8491 62.4808 23.2245 62.4808C24.0812 62.4808 24.5095 62.2234 24.5095 61.7088C24.5095 61.623 24.4975 61.5444 24.4734 61.4729C24.4494 61.3967 24.4084 61.3276 24.3507 61.2656C24.2929 61.2037 24.2352 61.1489 24.1774 61.1012C24.1197 61.0488 24.0355 60.9964 23.9248 60.944C23.8141 60.8916 23.7154 60.8487 23.6288 60.8153C23.5421 60.7772 23.4218 60.7343 23.2678 60.6867C23.1138 60.639 22.9838 60.5985 22.878 60.5651C22.7721 60.5318 22.6229 60.4889 22.4304 60.4365C22.2378 60.3841 22.0814 60.3388 21.9611 60.3007C21.4606 60.1482 21.0394 59.9886 20.6977 59.8218C20.3608 59.655 20.0721 59.4596 19.8314 59.2357C19.5908 59.0117 19.4151 58.7544 19.3044 58.4637C19.1937 58.1683 19.1384 57.8252 19.1384 57.4344C19.1384 56.9007 19.2418 56.417 19.4488 55.9834C19.6557 55.5498 19.9349 55.1948 20.2862 54.9184C20.6424 54.642 21.0539 54.43 21.5207 54.2822C21.9876 54.1298 22.4857 54.0535 23.0151 54.0535C24.2376 54.0535 25.4986 54.4323 26.798 55.19L25.7368 57.1842Z" fill="white"/>
<path d="M35.9088 62.4236V64.5322H28.5307V54.1393H35.7788V56.2479H30.9564V58.2636H35.1002V60.2149H30.9564V62.4236H35.9088Z" fill="white"/>
<path d="M39.8072 58.5924V64.5322H37.3815V54.1393H39.3091L44.1677 60.2578V54.1393H46.5934V64.5322H44.6153L39.8072 58.5924Z" fill="white"/>
<path d="M50.1236 54.1393L52.5926 61.7231L55.0327 54.1393H57.5883L53.7766 64.5322H51.3942L47.5535 54.1393H50.1236Z" fill="white"/>
<path d="M57.5378 59.3214C57.5378 58.4065 57.7616 57.5512 58.2092 56.7554C58.6568 55.9548 59.2849 55.3091 60.0934 54.8183C60.9068 54.3275 61.8044 54.0821 62.7862 54.0821C63.3927 54.0821 63.9702 54.1798 64.5189 54.3752C65.0675 54.5705 65.5488 54.8398 65.9627 55.1829C66.3766 55.526 66.7352 55.9215 67.0384 56.3694C67.3464 56.8126 67.5799 57.2915 67.7387 57.8061C67.8975 58.3207 67.9769 58.8401 67.9769 59.3643C67.9769 60.2745 67.7555 61.1298 67.3127 61.9304C66.87 62.7309 66.2443 63.379 65.4357 63.8746C64.6272 64.3702 63.7296 64.6179 62.7429 64.6179C61.9873 64.6179 61.2798 64.4678 60.6204 64.1676C59.9611 63.8674 59.4076 63.4695 58.96 62.9739C58.5172 62.4784 58.1683 61.9137 57.9132 61.2799C57.6629 60.6414 57.5378 59.9886 57.5378 59.3214ZM62.7574 62.4808C63.2001 62.4808 63.5996 62.3902 63.9558 62.2091C64.3167 62.0281 64.6079 61.7874 64.8293 61.4872C65.0507 61.1822 65.2191 60.8439 65.3346 60.4722C65.4502 60.1005 65.5079 59.7169 65.5079 59.3214C65.5079 58.9164 65.4453 58.5304 65.3202 58.1635C65.1999 57.7918 65.0266 57.4606 64.8004 57.1699C64.5742 56.8793 64.283 56.6482 63.9269 56.4766C63.5755 56.3051 63.1857 56.2193 62.7574 56.2193C62.3146 56.2193 61.9151 56.3098 61.559 56.4909C61.2028 56.6672 60.914 56.9055 60.6926 57.2057C60.4712 57.5011 60.3004 57.8323 60.1801 58.1992C60.0646 58.5661 60.0068 58.9497 60.0068 59.35C60.0068 59.7551 60.067 60.1434 60.1873 60.5151C60.3076 60.8868 60.4809 61.2204 60.7071 61.5158C60.9333 61.8065 61.2221 62.04 61.5734 62.2163C61.9295 62.3926 62.3242 62.4808 62.7574 62.4808Z" fill="white"/>
<path d="M69.3775 64.5322V54.1393H71.8031V62.4236H76.8927V64.5322H69.3775Z" fill="white"/>
<path d="M78.2644 54.1393L80.7334 61.7231L83.1735 54.1393H85.7292L81.9174 64.5322H79.535L75.6943 54.1393H78.2644Z" fill="white"/>
<path d="M86.7038 64.5322V54.1393H89.1295V64.5322H86.7038Z" fill="white"/>
<path d="M99.417 64.5322V58.3422L97.1573 62.8453H95.8217L93.5621 58.3422V64.5322H91.1364V54.1393H93.7715L96.4931 59.5716L99.2293 54.1393H101.843V64.5322H99.417Z" fill="white"/>
<path d="M111.235 62.4236V64.5322H103.857V54.1393H111.105V56.2479H106.283V58.2636H110.426V60.2149H106.283V62.4236H111.235Z" fill="white"/>
<path d="M115.133 58.5924V64.5322H112.708V54.1393H114.635L119.494 60.2578V54.1393H121.92V64.5322H119.941L115.133 58.5924Z" fill="white"/>
<path d="M131.925 56.2479H128.735V64.5322H126.309V56.2479H123.103V54.1393H131.925V56.2479Z" fill="white"/>
<path d="M132.286 59.3214C132.286 58.4065 132.51 57.5512 132.958 56.7554C133.405 55.9548 134.033 55.3091 134.842 54.8183C135.655 54.3275 136.553 54.0821 137.535 54.0821C138.141 54.0821 138.719 54.1798 139.267 54.3752C139.816 54.5705 140.297 54.8398 140.711 55.1829C141.125 55.526 141.484 55.9215 141.787 56.3694C142.095 56.8126 142.328 57.2915 142.487 57.8061C142.646 58.3207 142.726 58.8401 142.726 59.3643C142.726 60.2745 142.504 61.1298 142.061 61.9304C141.619 62.7309 140.993 63.379 140.184 63.8746C139.376 64.3702 138.478 64.6179 137.492 64.6179C136.736 64.6179 136.028 64.4678 135.369 64.1676C134.71 63.8674 134.156 63.4695 133.709 62.9739C133.266 62.4784 132.917 61.9137 132.662 61.2799C132.412 60.6414 132.286 59.9886 132.286 59.3214ZM137.506 62.4808C137.949 62.4808 138.348 62.3902 138.704 62.2091C139.065 62.0281 139.357 61.7874 139.578 61.4872C139.799 61.1822 139.968 60.8439 140.083 60.4722C140.199 60.1005 140.257 59.7169 140.257 59.3214C140.257 58.9164 140.194 58.5304 140.069 58.1635C139.949 57.7918 139.775 57.4606 139.549 57.1699C139.323 56.8793 139.032 56.6482 138.676 56.4766C138.324 56.3051 137.934 56.2193 137.506 56.2193C137.063 56.2193 136.664 56.3098 136.308 56.4909C135.951 56.6672 135.663 56.9055 135.441 57.2057C135.22 57.5011 135.049 57.8323 134.929 58.1992C134.813 58.5661 134.755 58.9497 134.755 59.35C134.755 59.7551 134.816 60.1434 134.936 60.5151C135.056 60.8868 135.229 61.2204 135.456 61.5158C135.682 61.8065 135.971 62.04 136.322 62.2163C136.678 62.3926 137.073 62.4808 137.506 62.4808Z" fill="white"/>
<path d="M69.2437 85.7583V75.3654H73.9795C74.6148 75.3654 75.1996 75.5393 75.7338 75.8872C76.268 76.2302 76.6795 76.671 76.9683 77.2095C77.2619 77.7432 77.4087 78.2983 77.4087 78.8749C77.4087 79.5087 77.2523 80.0996 76.9394 80.6476C76.6314 81.1908 76.2151 81.6054 75.6905 81.8913L78.0007 85.7583H75.3223L73.3081 82.4059H71.6693V85.7583H69.2437ZM71.6693 80.3116H73.8857C74.1793 80.3116 74.4271 80.1758 74.6293 79.9042C74.8362 79.6326 74.9397 79.2895 74.9397 78.8749C74.9397 78.4699 74.8242 78.1363 74.5932 77.8742C74.3621 77.6074 74.1022 77.474 73.8135 77.474H71.6693V80.3116Z" fill="white"/>
<path d="M86.5267 83.6497V85.7583H79.1485V75.3654H86.3967V77.474H81.5742V79.4896H85.7181V81.441H81.5742V83.6497H86.5267Z" fill="white"/>
<path d="M92.9879 80.3259H97.038V85.7583H95.031V84.7361C94.2321 85.4652 93.3104 85.8297 92.266 85.8297C91.5826 85.8297 90.9328 85.6987 90.3168 85.4366C89.7007 85.1745 89.1641 84.8147 88.7069 84.3573C88.2545 83.8951 87.8935 83.3304 87.624 82.6633C87.3545 81.9914 87.2197 81.2671 87.2197 80.4903C87.2197 79.7851 87.3545 79.1132 87.624 78.4747C87.8935 77.8314 88.2569 77.2786 88.7141 76.8164C89.1761 76.3494 89.732 75.9801 90.3818 75.7085C91.0315 75.4321 91.7221 75.2939 92.4537 75.2939C93.4115 75.2939 94.2585 75.4964 94.9949 75.9014C95.7361 76.3017 96.2896 76.8545 96.6553 77.5597L94.8505 78.9107C94.6147 78.4532 94.2706 78.0934 93.8182 77.8314C93.3706 77.5645 92.8869 77.4311 92.3671 77.4311C91.5778 77.4311 90.9304 77.7337 90.4251 78.3388C89.9245 78.9393 89.6743 79.685 89.6743 80.5761C89.6743 81.4815 89.9342 82.2272 90.454 82.8134C90.9786 83.3995 91.65 83.6925 92.4681 83.6925C93.4259 83.6925 94.2802 83.2589 95.031 82.3916V82.07H92.9879V80.3259Z" fill="white"/>
<path d="M98.6406 85.7583V75.3654H101.066V85.7583H98.6406Z" fill="white"/>
<path d="M102.467 80.5475C102.467 79.6326 102.691 78.7772 103.138 77.9815C103.586 77.1809 104.214 76.5352 105.023 76.0444C105.836 75.5536 106.733 75.3082 107.715 75.3082C108.322 75.3082 108.899 75.4059 109.448 75.6012C109.997 75.7966 110.478 76.0658 110.892 76.4089C111.306 76.752 111.664 77.1475 111.967 77.5955C112.275 78.0386 112.509 78.5175 112.668 79.0322C112.827 79.5468 112.906 80.0662 112.906 80.5904C112.906 81.5006 112.685 82.3559 112.242 83.1565C111.799 83.957 111.173 84.6051 110.365 85.1007C109.556 85.5962 108.659 85.844 107.672 85.844C106.916 85.844 106.209 85.6939 105.55 85.3937C104.89 85.0935 104.337 84.6956 103.889 84.2C103.446 83.7045 103.097 83.1398 102.842 82.506C102.592 81.8675 102.467 81.2146 102.467 80.5475ZM107.686 83.7068C108.129 83.7068 108.529 83.6163 108.885 83.4352C109.246 83.2541 109.537 83.0135 109.758 82.7133C109.98 82.4083 110.148 82.07 110.264 81.6983C110.379 81.3266 110.437 80.943 110.437 80.5475C110.437 80.1425 110.374 79.7565 110.249 79.3896C110.129 79.0179 109.956 78.6867 109.729 78.396C109.503 78.1053 109.212 77.8742 108.856 77.7027C108.505 77.5311 108.115 77.4454 107.686 77.4454C107.244 77.4454 106.844 77.5359 106.488 77.717C106.132 77.8933 105.843 78.1316 105.622 78.4318C105.4 78.7272 105.229 79.0584 105.109 79.4253C104.994 79.7922 104.936 80.1758 104.936 80.5761C104.936 80.9811 104.996 81.3695 105.116 81.7412C105.237 82.1129 105.41 82.4464 105.636 82.7419C105.862 83.0326 106.151 83.2661 106.502 83.4424C106.859 83.6187 107.253 83.7068 107.686 83.7068Z" fill="white"/>
<path d="M116.732 79.8184V85.7583H114.307V75.3654H116.234L121.093 81.4839V75.3654H123.518V85.7583H121.54L116.732 79.8184Z" fill="white"/>
<path d="M128.175 75.3654H130.788L134.398 85.7583H131.914L131.099 83.4281H127.835L127.034 85.7583H124.551L128.175 75.3654ZM130.702 81.7769L129.474 77.7813L128.218 81.7769H130.702Z" fill="white"/>
<path d="M135.43 85.7583V75.3654H137.856V83.6497H142.945V85.7583H135.43Z" fill="white"/>
<path d="M265.36 0.24722C267.743 0.24722 267.743 0.24722 268.32 0.677168C268.526 0.963761 268.526 0.963761 268.716 1.27859C268.868 1.49727 269.02 1.71589 269.171 1.93447C269.248 2.05033 269.324 2.16619 269.403 2.28556C269.746 2.79359 270.118 3.27655 270.493 3.76159C270.904 4.29607 271.308 4.83557 271.714 5.37405C271.767 3.6822 271.819 1.99034 271.873 0.24722C272.817 0.24722 273.76 0.24722 274.733 0.24722C274.733 3.73667 274.733 7.22612 274.733 10.8213C272.191 10.8213 272.191 10.8213 271.552 10.31C271.322 9.97451 271.322 9.97451 271.109 9.60969C271.028 9.48796 270.947 9.36622 270.863 9.2408C270.696 8.98897 270.531 8.73492 270.37 8.47881C270.06 7.99491 269.723 7.53458 269.381 7.0735C269.042 6.61692 268.711 6.1552 268.378 5.69448C268.326 7.38633 268.274 9.07818 268.22 10.8213C267.276 10.8213 266.332 10.8213 265.36 10.8213C265.36 7.33186 265.36 3.84241 265.36 0.24722Z" fill="white"/>
<path d="M323.819 0.24722C330.575 0.24722 330.575 0.24722 332.239 1.84935C333.427 3.06389 333.728 4.30935 333.74 5.95791C333.71 7.25282 333.261 8.26333 332.419 9.24358C330.065 11.4938 326.895 10.9815 323.819 10.9815C323.819 7.4392 323.819 3.89688 323.819 0.24722ZM326.838 3.13106C326.838 4.77004 326.838 6.40903 326.838 8.09768C328.696 8.14576 328.696 8.14576 330.233 7.30662C330.76 6.6321 330.878 6.10058 330.86 5.25389C330.781 4.69785 330.525 4.35713 330.173 3.93213C330.098 3.83961 330.023 3.74708 329.945 3.65175C328.976 2.87021 328.102 3.13106 326.838 3.13106Z" fill="white"/>
<path d="M286.551 0.49439C287.923 1.26946 288.947 2.42965 289.522 3.89767C289.891 5.22707 289.85 6.78589 289.26 8.04257C288.349 9.5244 287.227 10.3989 285.644 11.0315C284.148 11.3129 282.759 11.2438 281.404 10.5008C280.011 9.49672 279.172 8.31031 278.704 6.65572C278.541 5.03954 278.68 3.7002 279.655 2.38441C281.449 0.262291 283.877 -0.631406 286.551 0.49439ZM282.358 3.77188C281.813 4.52331 281.59 5.24238 281.722 6.17508C281.953 6.87027 282.247 7.35052 282.775 7.85732C283.591 8.22343 284.376 8.27283 285.232 7.98624C285.697 7.74992 286.002 7.46871 286.319 7.05626C286.596 6.13686 286.722 5.11424 286.332 4.21059C285.981 3.68956 285.633 3.36084 285.058 3.13103C284.058 2.98567 283.116 3.04754 282.358 3.77188Z" fill="white"/>
<path d="M220.88 0.727898C222.218 1.712 223.276 2.89551 223.581 4.57302C223.718 6.33619 223.407 7.8145 222.31 9.21921C221.314 10.2749 220.143 11.0565 218.681 11.1799C216.98 11.2195 215.759 10.9387 214.457 9.79998C213.175 8.54381 212.606 7.34373 212.55 5.54431C212.601 3.54702 213.446 2.4372 214.814 1.08838C216.621 -0.197747 218.924 -0.377276 220.88 0.727898ZM216.273 3.77195C215.738 4.49708 215.523 5.06221 215.566 5.97051C215.727 6.78723 216.181 7.38491 216.78 7.9375C217.464 8.1828 218.098 8.201 218.815 8.09771C219.585 7.72395 220.044 7.2774 220.404 6.49558C220.524 5.59392 220.523 4.83595 220.146 4.00226C219.496 3.33039 218.94 3.10415 218.021 3.06101C217.268 3.08837 216.838 3.24318 216.273 3.77195Z" fill="white"/>
<path d="M206.871 1.01831C207.469 1.44876 207.923 1.87285 208.331 2.49027C208.116 3.13846 207.819 3.22678 207.239 3.5617C207.069 3.66145 206.899 3.7612 206.723 3.86398C206.266 4.0924 206.266 4.0924 205.789 4.0924C205.521 3.82878 205.256 3.56164 204.995 3.29134C204.07 2.98046 203.105 2.98061 202.215 3.38146C201.472 4.11136 201.314 4.77076 201.271 5.78466C201.296 6.5692 201.426 7.03243 201.976 7.6171C202.778 8.19471 203.57 8.18609 204.518 8.09774C205.069 8.00687 205.069 8.00687 205.471 7.77731C205.524 7.56583 205.576 7.35435 205.63 7.13646C204.791 7.13646 203.953 7.13646 203.088 7.13646C203.088 6.39627 203.088 5.65609 203.088 4.89347C204.976 4.89347 206.863 4.89347 208.807 4.89347C208.807 6.91437 208.673 8.41899 207.232 9.89138C206.036 10.9364 204.75 11.2283 203.195 11.2019C201.895 11.068 200.664 10.5028 199.725 9.57909C198.551 8.12193 198.127 6.7218 198.245 4.87094C198.345 4.07154 198.522 3.48241 198.958 2.8107C199.026 2.69959 199.093 2.58848 199.162 2.474C200.924 -0.168652 204.269 -0.63155 206.871 1.01831Z" fill="white"/>
<path d="M252.334 0.247185C253.7 0.227359 253.7 0.227359 255.094 0.207132C255.378 0.201298 255.662 0.195463 255.955 0.189452C257.625 0.169263 258.987 0.250624 260.277 1.43877C260.939 2.13046 261.117 2.81253 261.121 3.76187C261.095 5.17384 260.453 6.01123 259.482 6.97615C259.545 7.08694 259.608 7.19772 259.672 7.31187C259.953 7.81057 260.234 8.30958 260.515 8.80859C260.663 9.0702 260.663 9.0702 260.813 9.3371C260.907 9.50284 261 9.66858 261.096 9.83934C261.182 9.99287 261.269 10.1464 261.358 10.3046C261.548 10.6611 261.548 10.6611 261.548 10.8213C260.505 10.9904 259.392 11.1536 258.37 10.8213C257.556 10.1335 257.159 9.07479 256.782 8.09764C256.717 7.93635 256.652 7.77505 256.585 7.60887C256.545 7.50581 256.505 7.40275 256.464 7.29657C256.045 7.29657 255.625 7.29657 255.193 7.29657C255.193 8.51259 255.193 9.72861 255.193 10.9815C254.25 10.9815 253.306 10.9815 252.334 10.9815C252.334 7.43916 252.334 3.89685 252.334 0.247185ZM255.352 2.97081C255.352 3.55239 255.352 4.13396 255.352 4.73316C255.74 4.75046 256.126 4.76316 256.514 4.77321C256.678 4.78127 256.678 4.78127 256.846 4.78949C257.515 4.80359 257.515 4.80359 258.052 4.43652C258.262 3.98475 258.211 3.75759 258.053 3.29124C257.745 2.9093 257.745 2.9093 257.183 2.93952C256.963 2.94165 256.743 2.94547 256.524 2.95079C256.412 2.95223 256.299 2.95368 256.184 2.95517C255.906 2.95895 255.629 2.96469 255.352 2.97081Z" fill="white"/>
<path d="M349.395 0.247242C350.761 0.227416 350.761 0.227416 352.155 0.207189C352.439 0.201354 352.723 0.19552 353.016 0.189509C354.564 0.170598 355.889 0.200626 357.13 1.2492C357.277 1.43229 357.277 1.43229 357.427 1.61907C357.529 1.74154 357.631 1.86401 357.736 1.99019C358.279 2.76682 358.22 3.66055 358.132 4.573C357.909 5.31396 357.497 5.87493 356.997 6.45301C356.912 6.55168 356.826 6.65034 356.739 6.752C356.642 6.86298 356.642 6.86298 356.544 6.97621C356.606 7.08699 356.669 7.19778 356.733 7.31193C357.015 7.81063 357.295 8.30963 357.576 8.80865C357.724 9.07026 357.724 9.07026 357.875 9.33716C357.968 9.5029 358.061 9.66864 358.157 9.83939C358.244 9.99293 358.33 10.1465 358.419 10.3047C358.609 10.6611 358.609 10.6611 358.609 10.8213C356.462 11.0827 356.462 11.0827 355.432 10.8213C354.769 10.2256 354.487 9.55937 354.161 8.73855C354.033 8.51242 353.901 8.28805 353.764 8.06766C353.525 7.61706 353.525 7.61706 353.525 7.29663C353.106 7.29663 352.687 7.29663 352.254 7.29663C352.254 8.51265 352.254 9.72867 352.254 10.9815C351.311 10.9815 350.367 10.9815 349.395 10.9815C349.395 7.43922 349.395 3.8969 349.395 0.247242ZM352.413 2.97087C352.413 3.55244 352.413 4.13402 352.413 4.73322C352.801 4.74619 353.188 4.75572 353.575 4.76326C353.685 4.76728 353.794 4.77131 353.907 4.77546C354.546 4.78798 354.546 4.78798 355.107 4.51605C355.345 4.13711 355.338 3.89098 355.273 3.45151C355.116 3.16396 355.116 3.16396 354.796 2.97087C354.375 2.93607 353.994 2.92545 353.575 2.94083C353.463 2.943 353.352 2.94517 353.237 2.9474C352.962 2.95305 352.688 2.96167 352.413 2.97087Z" fill="white"/>
<path d="M337.64 0.24722C340.156 0.24722 342.672 0.24722 345.265 0.24722C345.265 1.14602 345.265 2.04481 345.265 2.97085C343.745 2.97085 342.224 2.97085 340.658 2.97085C340.658 3.44668 340.658 3.92252 340.658 4.41277C341.654 4.41277 342.65 4.41277 343.676 4.41277C343.676 5.20582 343.676 5.99888 343.676 6.81597C342.68 6.81597 341.684 6.81597 340.658 6.81597C340.658 7.2918 340.658 7.76764 340.658 8.25789C342.178 8.25789 343.699 8.25789 345.265 8.25789C345.265 9.15669 345.265 10.0555 345.265 10.9815C342.749 10.9815 340.232 10.9815 337.64 10.9815C337.64 7.4392 337.64 3.89688 337.64 0.24722Z" fill="white"/>
<path d="M312.064 0.24722C314.58 0.24722 317.096 0.24722 319.689 0.24722C319.689 1.14602 319.689 2.04481 319.689 2.97085C318.169 2.97085 316.648 2.97085 315.082 2.97085C315.082 3.44668 315.082 3.92252 315.082 4.41277C316.078 4.41277 317.074 4.41277 318.1 4.41277C318.1 5.20582 318.1 5.99888 318.1 6.81597C317.104 6.81597 316.108 6.81597 315.082 6.81597C315.082 7.2918 315.082 7.76764 315.082 8.25789C316.602 8.25789 318.123 8.25789 319.689 8.25789C319.689 9.15669 319.689 10.0555 319.689 10.9815C317.173 10.9815 314.656 10.9815 312.064 10.9815C312.064 7.4392 312.064 3.89688 312.064 0.24722Z" fill="white"/>
<path d="M365.916 0.24722C366.86 0.24722 367.803 0.24722 368.776 0.24722C368.895 0.536349 368.895 0.536349 369.018 0.831319C369.321 1.56202 369.624 2.2927 369.927 3.02338C370.057 3.33671 370.187 3.65004 370.317 3.96338C370.444 4.26779 370.57 4.5722 370.696 4.87658C370.822 5.18036 370.948 5.48419 371.074 5.78808C371.383 6.53393 371.695 7.27836 372.013 8.02031C372.072 8.15956 372.132 8.29881 372.193 8.44228C372.304 8.70417 372.417 8.96566 372.531 9.22669C372.58 9.34321 372.63 9.45972 372.681 9.57977C372.724 9.68081 372.768 9.78184 372.813 9.88595C372.906 10.1805 372.906 10.1805 372.906 10.8213C371.962 10.8213 371.019 10.8213 370.046 10.8213C369.837 10.2926 369.627 9.7639 369.411 9.21917C367.366 9.13986 367.366 9.13986 365.281 9.05896C365.123 9.53479 364.966 10.0106 364.804 10.5009C364.752 10.6066 364.699 10.7124 364.645 10.8213C363.649 10.8213 362.653 10.8213 361.627 10.8213C362.342 8.85058 363.129 6.92129 363.95 4.99354C364.188 4.43499 364.425 3.87631 364.661 3.31756C364.745 3.12124 364.745 3.12124 364.83 2.92095C365.205 2.03465 365.568 1.14468 365.916 0.24722ZM367.187 4.25256C367.054 4.56601 366.922 4.87983 366.79 5.19381C366.716 5.36853 366.642 5.54325 366.566 5.72326C366.374 6.14413 366.374 6.14413 366.393 6.49554C367.022 6.49554 367.651 6.49554 368.299 6.49554C367.931 5.36315 367.931 5.36315 367.505 4.25256C367.4 4.25256 367.295 4.25256 367.187 4.25256Z" fill="white"/>
<path d="M240.737 0.407425C243.201 0.407425 245.665 0.407425 248.204 0.407425C248.204 1.25335 248.204 2.09928 248.204 2.97084C246.683 2.97084 245.163 2.97084 243.597 2.97084C243.597 3.44667 243.597 3.92251 243.597 4.41276C244.593 4.41276 245.589 4.41276 246.615 4.41276C246.615 5.20582 246.615 5.99887 246.615 6.81596C245.619 6.81596 244.623 6.81596 243.597 6.81596C243.597 7.29179 243.597 7.76763 243.597 8.25788C245.117 8.25788 246.637 8.25788 248.204 8.25788C248.204 9.10381 248.204 9.94973 248.204 10.8213C245.74 10.8213 243.276 10.8213 240.737 10.8213C240.737 7.38472 240.737 3.94814 240.737 0.407425Z" fill="white"/>
<path d="M226.123 0.247231C227.119 0.247231 228.115 0.247231 229.141 0.247231C229.556 1.08503 229.909 1.83729 230.221 2.70551C230.258 2.81038 230.296 2.91524 230.335 3.02329C230.454 3.35269 230.572 3.68245 230.69 4.01225C230.771 4.23799 230.852 4.46371 230.934 4.6894C231.131 5.23776 231.328 5.78645 231.524 6.33534C232.129 5.04213 232.652 3.72787 233.152 2.39009C233.291 2.01736 233.431 1.64477 233.571 1.27235C233.632 1.10989 233.693 0.947431 233.755 0.78005C233.907 0.407445 233.907 0.407445 234.065 0.247231C234.29 0.23337 234.516 0.230081 234.741 0.231586C234.945 0.23236 234.945 0.23236 235.152 0.23315C235.295 0.234493 235.437 0.235835 235.584 0.237218C235.728 0.237941 235.871 0.238664 236.019 0.239409C236.374 0.241303 236.729 0.243944 237.084 0.247231C236.308 2.68127 235.348 5.05164 234.413 7.42679C234.251 7.83885 234.089 8.25093 233.927 8.66308C233.828 8.91669 233.728 9.17024 233.628 9.42374C233.446 9.88704 233.269 10.3484 233.112 10.8213C232.116 10.8213 231.12 10.8213 230.094 10.8213C229.913 10.3415 229.732 9.8617 229.551 9.3819C229.359 8.88204 229.154 8.38861 228.947 7.89492C228.437 6.66562 227.97 5.42007 227.504 4.17348C227.352 3.76803 227.2 3.36286 227.047 2.95772C226.95 2.69843 226.853 2.43913 226.756 2.17981C226.71 2.05948 226.665 1.93915 226.618 1.81518C226.424 1.29391 226.257 0.788525 226.123 0.247231Z" fill="white"/>
<path d="M300.467 0.24722C302.984 0.24722 305.5 0.24722 308.092 0.24722C308.092 1.14602 308.092 2.04481 308.092 2.97085C306.572 2.97085 305.052 2.97085 303.486 2.97085C303.486 3.49955 303.486 4.02826 303.486 4.57298C304.429 4.57298 305.373 4.57298 306.345 4.57298C306.345 5.36604 306.345 6.15909 306.345 6.97618C305.349 6.97618 304.353 6.97618 303.327 6.97618C303.327 8.24507 303.327 9.51396 303.327 10.8213C302.383 10.8213 301.44 10.8213 300.467 10.8213C300.467 7.33186 300.467 3.84241 300.467 0.24722Z" fill="white"/>
<path d="M376.718 0.407425C377.662 0.407425 378.606 0.407425 379.578 0.407425C379.578 2.9452 379.578 5.48298 379.578 8.09767C381.046 8.09767 382.513 8.09767 384.026 8.09767C384.026 8.99646 384.026 9.89526 384.026 10.8213C381.614 10.8213 379.203 10.8213 376.718 10.8213C376.718 7.38472 376.718 3.94814 376.718 0.407425Z" fill="white"/>
<path d="M201.857 96.7755C201.332 96.7755 200.859 96.6985 200.439 96.5444C200.023 96.3904 199.676 96.1843 199.4 95.9262C199.124 95.6681 198.894 95.3581 198.712 94.996C198.529 94.6301 198.396 94.2487 198.315 93.852C198.237 93.4514 198.198 93.0258 198.198 92.5751V88.3168H199.54V92.5751C199.54 92.8948 199.564 93.1972 199.61 93.4822C199.657 93.7634 199.737 94.0349 199.85 94.2969C199.966 94.5588 200.11 94.7822 200.281 94.9671C200.453 95.152 200.672 95.3003 200.941 95.412C201.209 95.5237 201.515 95.5795 201.857 95.5795C202.203 95.5795 202.511 95.5237 202.779 95.412C203.051 95.2964 203.273 95.1443 203.444 94.9555C203.615 94.7668 203.757 94.5415 203.87 94.2795C203.983 94.0176 204.061 93.748 204.104 93.4706C204.15 93.1895 204.174 92.8909 204.174 92.5751V88.3168H205.528V92.5751C205.528 93.1644 205.458 93.7075 205.318 94.2044C205.177 94.6975 204.963 95.1404 204.676 95.5333C204.392 95.9224 204.008 96.2267 203.526 96.4462C203.047 96.6658 202.491 96.7755 201.857 96.7755Z" fill="white"/>
<path d="M210.676 90.7782V96.7178H209.339V88.3168H210.436L215.245 94.3893V88.3284H216.593V96.7178H215.42L210.676 90.7782Z" fill="white"/>
<path d="M220.533 96.7178V88.3168H221.869V96.7178H220.533Z" fill="white"/>
<path d="M228.114 86.7453C227.99 86.7453 227.885 86.7723 227.799 86.8262C227.713 86.8763 227.653 86.9398 227.618 87.0168C227.583 87.09 227.56 87.1517 227.548 87.2017C227.536 87.248 227.531 87.2845 227.531 87.3115H226.789C226.789 87.2537 226.801 87.1748 226.824 87.0746C226.848 86.9745 226.891 86.8589 226.953 86.728C227.019 86.5931 227.097 86.4699 227.186 86.3582C227.28 86.2426 227.402 86.1463 227.554 86.0693C227.71 85.9884 227.881 85.948 228.067 85.948C228.266 85.948 228.455 85.9922 228.634 86.0808C228.812 86.1656 228.984 86.2522 229.147 86.3408C229.31 86.4256 229.472 86.468 229.631 86.468C229.74 86.468 229.836 86.4487 229.917 86.4102C230.003 86.3717 230.067 86.3274 230.11 86.2773C230.157 86.2272 230.194 86.1733 230.221 86.1155C230.248 86.0539 230.264 86.0057 230.267 85.9711C230.275 85.9364 230.279 85.9094 230.279 85.8902H231.032C231.032 85.9402 231.018 86.0134 230.991 86.1097C230.968 86.206 230.921 86.3216 230.851 86.4564C230.785 86.5912 230.703 86.7164 230.606 86.832C230.509 86.9475 230.376 87.0477 230.209 87.1324C230.046 87.2133 229.865 87.2537 229.666 87.2537C229.46 87.2537 229.264 87.2114 229.077 87.1266C228.89 87.0419 228.717 86.9571 228.558 86.8724C228.402 86.7877 228.254 86.7453 228.114 86.7453ZM228.272 88.3168H229.538L232.835 96.7178H231.423L230.53 94.4355H227.256L226.369 96.7178H224.945L228.272 88.3168ZM230.267 93.4533L228.902 89.7729L227.496 93.4533H230.267Z" fill="white"/>
<path d="M235.054 92.5173C235.054 91.9626 235.157 91.4272 235.363 90.9111C235.573 90.3911 235.857 89.9366 236.215 89.5475C236.573 89.1585 237.007 88.8465 237.516 88.6115C238.026 88.3766 238.567 88.2591 239.139 88.2591C239.726 88.2591 240.276 88.3823 240.79 88.6289C241.304 88.8754 241.731 89.2009 242.074 89.6053C242.42 90.0059 242.692 90.4623 242.891 90.9746C243.089 91.4831 243.188 92.0012 243.188 92.5289C243.188 93.0835 243.083 93.6189 242.873 94.1351C242.667 94.6512 242.387 95.1038 242.033 95.4929C241.679 95.8819 241.247 96.1939 240.737 96.4289C240.228 96.66 239.687 96.7755 239.115 96.7755C238.641 96.7755 238.189 96.6985 237.761 96.5444C237.333 96.3865 236.956 96.1708 236.629 95.8973C236.306 95.6238 236.024 95.308 235.783 94.9498C235.546 94.5915 235.365 94.2044 235.24 93.7884C235.116 93.3686 235.054 92.9449 235.054 92.5173ZM239.127 95.5795C239.539 95.5795 239.919 95.4909 240.265 95.3138C240.611 95.1366 240.895 94.9035 241.117 94.6146C241.339 94.3219 241.51 93.9945 241.63 93.6324C241.755 93.2703 241.817 92.8986 241.817 92.5173C241.817 92.1206 241.751 91.7392 241.619 91.3733C241.49 91.0035 241.311 90.678 241.082 90.3969C240.856 90.1118 240.572 89.8865 240.23 89.7209C239.891 89.5514 239.524 89.4666 239.127 89.4666C238.714 89.4666 238.333 89.5552 237.983 89.7324C237.637 89.9057 237.351 90.1369 237.125 90.4257C236.9 90.7146 236.725 91.0401 236.6 91.4022C236.476 91.7643 236.413 92.136 236.413 92.5173C236.413 93.0489 236.52 93.5458 236.734 94.008C236.952 94.4702 237.271 94.8477 237.691 95.1404C238.111 95.4332 238.59 95.5795 239.127 95.5795Z" fill="white"/>
<path d="M257.412 95.5449V96.7178H251.594V88.3168H257.307V89.4897H252.93V91.876H256.717V92.9795H252.93V95.5449H257.412Z" fill="white"/>
<path d="M265.811 96.7178V88.3168H269.505C269.874 88.3168 270.225 88.3958 270.555 88.5537C270.89 88.7117 271.17 88.9197 271.396 89.1777C271.621 89.4358 271.8 89.7286 271.932 90.056C272.065 90.3834 272.131 90.7146 272.131 91.0497C272.131 91.6198 271.979 92.136 271.676 92.5982C271.372 93.0566 270.972 93.3647 270.474 93.5226L272.469 96.7178H270.964L269.12 93.7942H267.147V96.7178H265.811ZM267.147 92.6213H269.493C269.863 92.6213 270.168 92.4692 270.409 92.1649C270.651 91.8567 270.771 91.485 270.771 91.0497C270.771 90.6222 270.635 90.2563 270.363 89.952C270.09 89.6438 269.775 89.4897 269.417 89.4897H267.147V92.6213Z" fill="white"/>
<path d="M281.562 95.5449V96.7178H275.744V88.3168H281.457V89.4897H277.08V91.876H280.868V92.9795H277.08V95.5449H281.562Z" fill="white"/>
<path d="M288.385 88.2706C289.128 88.2706 289.78 88.4382 290.34 88.7733C290.904 89.1046 291.328 89.5475 291.612 90.1022L290.562 90.8013C290.449 90.5586 290.307 90.3487 290.136 90.1715C289.964 89.9905 289.778 89.8518 289.575 89.7555C289.373 89.6554 289.169 89.5822 288.963 89.536C288.76 89.4897 288.552 89.4666 288.338 89.4666C287.996 89.4666 287.677 89.5263 287.381 89.6457C287.086 89.7613 286.833 89.9173 286.623 90.1137C286.412 90.3102 286.232 90.5394 286.08 90.8013C285.928 91.0632 285.815 91.3386 285.741 91.6275C285.671 91.9164 285.636 92.2092 285.636 92.5058C285.636 93.0489 285.751 93.5554 285.981 94.0253C286.214 94.4952 286.543 94.8747 286.967 95.1635C287.391 95.4486 287.86 95.5911 288.373 95.5911C288.665 95.5911 288.949 95.5468 289.225 95.4582C289.505 95.3658 289.774 95.2136 290.031 95.0018C290.291 94.7861 290.492 94.5222 290.632 94.2102L291.746 94.8342C291.579 95.2348 291.307 95.5872 290.929 95.8915C290.552 96.1958 290.138 96.4212 289.686 96.5675C289.235 96.7139 288.782 96.7871 288.327 96.7871C287.751 96.7871 287.206 96.6619 286.693 96.4115C286.183 96.1612 285.753 95.8318 285.403 95.4235C285.057 95.0152 284.782 94.553 284.58 94.0369C284.378 93.5169 284.277 92.9911 284.277 92.4595C284.277 92.0512 284.335 91.6468 284.452 91.2462C284.568 90.8417 284.744 90.4623 284.977 90.108C285.214 89.7497 285.494 89.4339 285.817 89.1604C286.14 88.8869 286.523 88.6712 286.967 88.5133C287.41 88.3515 287.883 88.2706 288.385 88.2706Z" fill="white"/>
<path d="M294.373 92.5173C294.373 91.9626 294.476 91.4272 294.682 90.9111C294.893 90.3911 295.177 89.9366 295.534 89.5475C295.892 89.1585 296.326 88.8465 296.836 88.6115C297.345 88.3766 297.886 88.2591 298.458 88.2591C299.046 88.2591 299.596 88.3823 300.11 88.6289C300.623 88.8754 301.051 89.2009 301.393 89.6053C301.74 90.0059 302.012 90.4623 302.21 90.9746C302.409 91.4831 302.508 92.0012 302.508 92.5289C302.508 93.0835 302.403 93.6189 302.193 94.1351C301.987 94.6512 301.707 95.1038 301.353 95.4929C300.999 95.8819 300.567 96.1939 300.057 96.4289C299.547 96.66 299.007 96.7755 298.435 96.7755C297.96 96.7755 297.509 96.6985 297.081 96.5444C296.653 96.3865 296.276 96.1708 295.949 95.8973C295.626 95.6238 295.344 95.308 295.103 94.9498C294.865 94.5915 294.684 94.2044 294.56 93.7884C294.435 93.3686 294.373 92.9449 294.373 92.5173ZM298.446 95.5795C298.859 95.5795 299.238 95.4909 299.584 95.3138C299.931 95.1366 300.215 94.9035 300.436 94.6146C300.658 94.3219 300.829 93.9945 300.95 93.6324C301.074 93.2703 301.137 92.8986 301.137 92.5173C301.137 92.1206 301.071 91.7392 300.938 91.3733C300.81 91.0035 300.631 90.678 300.401 90.3969C300.176 90.1118 299.892 89.8865 299.549 89.7209C299.211 89.5514 298.843 89.4666 298.446 89.4666C298.034 89.4666 297.653 89.5552 297.303 89.7324C296.956 89.9057 296.67 90.1369 296.445 90.4257C296.219 90.7146 296.044 91.0401 295.92 91.4022C295.795 91.7643 295.733 92.136 295.733 92.5173C295.733 93.0489 295.84 93.5458 296.054 94.008C296.272 94.4702 296.591 94.8477 297.011 95.1404C297.431 95.4332 297.91 95.5795 298.446 95.5795Z" fill="white"/>
<path d="M307.265 90.7782V96.7178H305.929V88.3168H307.026L311.834 94.3893V88.3284H313.182V96.7178H312.009L307.265 90.7782Z" fill="white"/>
<path d="M322.141 90.2929C321.958 90.0926 321.647 89.9 321.207 89.7151C320.768 89.5302 320.314 89.4377 319.847 89.4377C319.295 89.4377 318.881 89.5398 318.604 89.744C318.332 89.9443 318.196 90.2293 318.196 90.5991C318.196 90.7146 318.212 90.8186 318.243 90.9111C318.274 91.0035 318.313 91.0863 318.359 91.1595C318.41 91.2289 318.484 91.2963 318.581 91.3617C318.678 91.4272 318.774 91.4831 318.867 91.5293C318.964 91.5755 319.095 91.6256 319.258 91.6795C319.425 91.7296 319.581 91.7739 319.725 91.8124C319.869 91.8471 320.058 91.8933 320.291 91.9511C320.664 92.0397 320.983 92.1283 321.248 92.2169C321.513 92.3016 321.767 92.4114 322.012 92.5462C322.258 92.6772 322.454 92.8255 322.602 92.9911C322.75 93.1529 322.866 93.3512 322.952 93.5862C323.041 93.8212 323.086 94.0889 323.086 94.3893C323.086 94.7244 323.032 95.0268 322.923 95.2964C322.818 95.5661 322.672 95.7933 322.485 95.9782C322.298 96.1631 322.073 96.3191 321.808 96.4462C321.544 96.5695 321.26 96.66 320.956 96.7178C320.653 96.7717 320.326 96.7987 319.976 96.7987C319.33 96.7987 318.706 96.7024 318.103 96.5098C317.5 96.3133 316.957 96.0321 316.474 95.6662L317.087 94.528C317.332 94.7784 317.731 95.021 318.284 95.256C318.84 95.4871 319.412 95.6027 319.999 95.6027C320.528 95.6027 320.935 95.5102 321.219 95.3253C321.507 95.1404 321.651 94.8747 321.651 94.528C321.651 94.3893 321.629 94.2641 321.586 94.1524C321.544 94.0407 321.47 93.9406 321.365 93.852C321.26 93.7595 321.151 93.6806 321.038 93.6151C320.929 93.5496 320.771 93.4822 320.565 93.4129C320.363 93.3435 320.176 93.2858 320.005 93.2395C319.838 93.1933 319.61 93.1336 319.322 93.0604C318.875 92.9449 318.505 92.8274 318.213 92.708C317.922 92.5886 317.663 92.4422 317.437 92.2689C317.216 92.0955 317.054 91.8914 316.953 91.6564C316.852 91.4176 316.801 91.1364 316.801 90.8129C316.801 90.4084 316.879 90.0444 317.035 89.7209C317.194 89.3934 317.412 89.1238 317.688 88.912C317.965 88.7001 318.289 88.5383 318.663 88.4266C319.036 88.3149 319.443 88.2591 319.882 88.2591C320.925 88.2591 321.88 88.5749 322.748 89.2066L322.141 90.2929Z" fill="white"/>
<path d="M332.687 89.4897H329.868V96.7178H328.514V89.4897H325.684V88.3168H332.687V89.4897Z" fill="white"/>
<path d="M335.856 96.7178V88.3168H339.55C339.92 88.3168 340.27 88.3958 340.601 88.5537C340.935 88.7117 341.215 88.9197 341.441 89.1777C341.667 89.4358 341.846 89.7286 341.978 90.056C342.11 90.3834 342.176 90.7146 342.176 91.0497C342.176 91.6198 342.025 92.136 341.721 92.5982C341.418 93.0566 341.017 93.3647 340.519 93.5226L342.515 96.7178H341.009L339.165 93.7942H337.193V96.7178H335.856ZM337.193 92.6213H339.539C339.908 92.6213 340.214 92.4692 340.455 92.1649C340.696 91.8567 340.817 91.485 340.817 91.0497C340.817 90.6222 340.68 90.2563 340.408 89.952C340.136 89.6438 339.821 89.4897 339.463 89.4897H337.193V92.6213Z" fill="white"/>
<path d="M349.314 96.7755C348.789 96.7755 348.316 96.6985 347.896 96.5444C347.48 96.3904 347.134 96.1843 346.857 95.9262C346.581 95.6681 346.352 95.3581 346.169 94.996C345.986 94.6301 345.854 94.2487 345.772 93.852C345.694 93.4514 345.655 93.0258 345.655 92.5751V88.3168H346.997V92.5751C346.997 92.8948 347.021 93.1972 347.067 93.4822C347.114 93.7634 347.194 94.0349 347.307 94.2969C347.423 94.5588 347.567 94.7822 347.739 94.9671C347.91 95.152 348.13 95.3003 348.398 95.412C348.666 95.5237 348.972 95.5795 349.314 95.5795C349.66 95.5795 349.968 95.5237 350.236 95.412C350.509 95.2964 350.73 95.1443 350.901 94.9555C351.073 94.7668 351.215 94.5415 351.327 94.2795C351.44 94.0176 351.518 93.748 351.561 93.4706C351.608 93.1895 351.631 92.8909 351.631 92.5751V88.3168H352.985V92.5751C352.985 93.1644 352.915 93.7075 352.775 94.2044C352.635 94.6975 352.421 95.1404 352.133 95.5333C351.849 95.9224 351.466 96.2267 350.983 96.4462C350.505 96.6658 349.948 96.7755 349.314 96.7755Z" fill="white"/>
<path d="M363.729 94.8342C363.511 95.3504 363.136 95.7779 362.603 96.1169C362.07 96.452 361.488 96.6638 360.858 96.7524C361.266 97.0914 361.471 97.4708 361.471 97.8907C361.471 98.2296 361.356 98.4993 361.126 98.6996C360.897 98.8999 360.576 99 360.164 99C359.673 99 359.205 98.8864 358.757 98.6591L359.09 97.96C359.393 98.1256 359.675 98.2084 359.936 98.2084C360.162 98.2084 360.337 98.1603 360.461 98.064C360.59 97.9716 360.654 97.8348 360.654 97.6538C360.654 97.3456 360.44 97.0529 360.012 96.7755C359.471 96.7332 358.963 96.5791 358.489 96.3133C358.018 96.0475 357.621 95.7144 357.298 95.3138C356.975 94.9132 356.721 94.4644 356.534 93.9675C356.351 93.4706 356.259 92.968 356.259 92.4595C356.259 92.0512 356.318 91.6468 356.435 91.2462C356.551 90.8417 356.726 90.4623 356.96 90.108C357.197 89.7497 357.477 89.4339 357.8 89.1604C358.123 88.8869 358.506 88.6712 358.95 88.5133C359.393 88.3515 359.866 88.2706 360.368 88.2706C361.111 88.2706 361.762 88.4382 362.323 88.7733C362.887 89.1046 363.311 89.5475 363.595 90.1022L362.544 90.8013C362.432 90.5586 362.29 90.3487 362.118 90.1715C361.947 89.9905 361.761 89.8518 361.558 89.7555C361.356 89.6554 361.152 89.5822 360.945 89.536C360.743 89.4897 360.535 89.4666 360.321 89.4666C359.979 89.4666 359.66 89.5263 359.364 89.6457C359.068 89.7613 358.815 89.9173 358.605 90.1137C358.395 90.3102 358.214 90.5394 358.063 90.8013C357.911 91.0632 357.798 91.3386 357.724 91.6275C357.654 91.9164 357.619 92.2092 357.619 92.5058C357.619 93.0489 357.734 93.5554 357.963 94.0253C358.197 94.4952 358.526 94.8747 358.95 95.1635C359.374 95.4486 359.843 95.5911 360.356 95.5911C360.648 95.5911 360.932 95.5468 361.208 95.4582C361.488 95.3658 361.757 95.2136 362.013 95.0018C362.274 94.7861 362.474 94.5222 362.614 94.2102L363.729 94.8342Z" fill="white"/>
<path d="M369.175 86.7453C369.05 86.7453 368.945 86.7723 368.859 86.8262C368.774 86.8763 368.714 86.9398 368.679 87.0168C368.644 87.09 368.62 87.1517 368.609 87.2017C368.597 87.248 368.591 87.2845 368.591 87.3115H367.85C367.85 87.2537 367.862 87.1748 367.885 87.0746C367.908 86.9745 367.951 86.8589 368.013 86.728C368.079 86.5931 368.157 86.4699 368.247 86.3582C368.34 86.2426 368.463 86.1463 368.614 86.0693C368.77 85.9884 368.941 85.948 369.128 85.948C369.326 85.948 369.515 85.9922 369.694 86.0808C369.873 86.1656 370.044 86.2522 370.207 86.3408C370.371 86.4256 370.532 86.468 370.692 86.468C370.801 86.468 370.896 86.4487 370.978 86.4102C371.063 86.3717 371.128 86.3274 371.17 86.2773C371.217 86.2272 371.254 86.1733 371.281 86.1155C371.308 86.0539 371.324 86.0057 371.328 85.9711C371.336 85.9364 371.34 85.9094 371.34 85.8902H372.092C372.092 85.9402 372.079 86.0134 372.052 86.1097C372.028 86.206 371.982 86.3216 371.911 86.4564C371.845 86.5912 371.764 86.7164 371.666 86.832C371.569 86.9475 371.437 87.0477 371.27 87.1324C371.106 87.2133 370.925 87.2537 370.727 87.2537C370.521 87.2537 370.324 87.2114 370.137 87.1266C369.951 87.0419 369.778 86.9571 369.618 86.8724C369.462 86.7877 369.315 86.7453 369.175 86.7453ZM369.332 88.3168H370.598L373.896 96.7178H372.483L371.591 94.4355H368.317L367.43 96.7178H366.006L369.332 88.3168ZM371.328 93.4533L369.962 89.7729L368.556 93.4533H371.328Z" fill="white"/>
<path d="M376.114 92.5173C376.114 91.9626 376.217 91.4272 376.423 90.9111C376.633 90.3911 376.917 89.9366 377.275 89.5475C377.633 89.1585 378.067 88.8465 378.577 88.6115C379.086 88.3766 379.627 88.2591 380.199 88.2591C380.786 88.2591 381.337 88.3823 381.85 88.6289C382.364 88.8754 382.792 89.2009 383.134 89.6053C383.481 90.0059 383.753 90.4623 383.951 90.9746C384.15 91.4831 384.249 92.0012 384.249 92.5289C384.249 93.0835 384.144 93.6189 383.934 94.1351C383.728 94.6512 383.447 95.1038 383.093 95.4929C382.739 95.8819 382.308 96.1939 381.798 96.4289C381.288 96.66 380.748 96.7755 380.176 96.7755C379.701 96.7755 379.25 96.6985 378.822 96.5444C378.394 96.3865 378.016 96.1708 377.69 95.8973C377.367 95.6238 377.085 95.308 376.844 94.9498C376.606 94.5915 376.425 94.2044 376.301 93.7884C376.176 93.3686 376.114 92.9449 376.114 92.5173ZM380.187 95.5795C380.6 95.5795 380.979 95.4909 381.325 95.3138C381.672 95.1366 381.956 94.9035 382.177 94.6146C382.399 94.3219 382.57 93.9945 382.691 93.6324C382.815 93.2703 382.878 92.8986 382.878 92.5173C382.878 92.1206 382.811 91.7392 382.679 91.3733C382.551 91.0035 382.372 90.678 382.142 90.3969C381.917 90.1118 381.633 89.8865 381.29 89.7209C380.952 89.5514 380.584 89.4666 380.187 89.4666C379.775 89.4666 379.394 89.5552 379.044 89.7324C378.697 89.9057 378.411 90.1369 378.186 90.4257C377.96 90.7146 377.785 91.0401 377.661 91.4022C377.536 91.7643 377.474 92.136 377.474 92.5173C377.474 93.0489 377.581 93.5458 377.795 94.008C378.013 94.4702 378.332 94.8477 378.752 95.1404C379.172 95.4332 379.65 95.5795 380.187 95.5795Z" fill="white"/>
<path d="M196.963 43.1556V22.1737L187.9 22.0397L178.882 21.9505L178.971 32.5307L179.105 43.1556H196.963Z" fill="white"/>
<path d="M212.277 31.7718C212.009 28.2004 210.223 25.3879 207.142 23.6469C205.357 22.6201 204.017 22.263 201.428 22.0844L198.08 21.8165V43.5127L201.383 43.2449C205.267 42.977 207.544 41.9502 209.777 39.4503C211.786 37.2181 212.5 35.0307 212.277 31.7718Z" fill="white"/>
<path d="M256.207 31.2361C254.422 27.62 251.296 24.629 247.725 23.2004C245.359 22.263 244.376 22.2183 233.26 22.0397C226.652 21.9505 221.295 21.9951 221.295 22.129C221.295 22.263 225.938 29.5397 231.653 38.2896L242.01 54.1822L244.242 53.9144C249.109 53.3787 254.064 49.6734 256.431 44.8073C257.502 42.5752 257.681 41.727 257.681 38.2449C257.681 34.5842 257.547 33.9146 256.207 31.2361Z" fill="white"/>
<path d="M318.621 45.7002V21.9505L315.63 21.9951C310.228 22.0844 307.728 23.0219 305.049 25.9683C302.772 28.4682 302.102 30.2986 302.102 33.7807C302.102 37.2628 302.772 39.0931 305.049 41.5931C307.638 44.4502 309.647 45.2984 314.514 45.5216L318.621 45.7002Z" fill="white"/>
<path d="M339.158 41.1467V21.9505H329.559C322.148 21.9505 319.871 22.0844 319.692 22.5308C319.603 22.8433 319.559 27.0843 319.603 31.995L319.737 40.9235L329.47 41.0574L339.158 41.1467Z" fill="white"/>
<path d="M361.48 75.9677V21.9505H343.622V75.9677H361.48Z" fill="white"/>
<path d="M383.803 57.6643V21.9505H374.874C368.088 21.9505 365.855 22.0844 365.721 22.5308C365.588 22.7987 365.543 30.7896 365.588 40.2538V57.5751H374.784L383.803 57.6643Z" fill="white"/>
<path d="M300.763 60.3429L289.78 41.9502C283.753 31.8164 278.664 23.3344 278.485 23.1558C278.262 22.9326 273.038 31.2807 266.833 41.6824C260.627 52.0394 254.555 62.2179 253.395 64.1821C252.189 66.191 251.207 67.9767 251.207 68.1107C251.207 68.2446 252.323 70.0749 253.752 72.1731C256.564 76.4141 257.904 77.1284 257.904 74.4052C257.904 72.1285 259.511 67.6642 261.341 64.941C265.315 58.959 272.458 55.4769 279.557 56.0126C289.2 56.7269 297.102 64.1375 298.441 73.6017C298.908 76.093 298.685 75.9677 298.964 75.9677L300.763 76.0123V60.3429Z" fill="white"/>
<path d="M240.492 53.8697C240.492 53.7358 236.742 47.843 232.188 40.7895C229.929 37.3242 227.713 33.9342 225.948 31.2338C224.12 28.4378 222.775 26.3809 222.366 25.7451L220.848 23.5129V54.093H230.67C236.072 54.093 240.492 54.0037 240.492 53.8697Z" fill="white"/>
<path d="M342.283 61.7714C343.622 54.2715 339.068 46.0127 332.014 43.2895C328.889 42.0842 320.139 41.5485 319.737 42.5306C319.603 42.8877 319.559 50.4769 319.603 59.45L319.737 75.7445L323.443 75.8784C333.488 76.2356 340.631 70.8785 342.283 61.7714Z" fill="white"/>
<path d="M197.187 75.9677V44.2716H178.882V75.9677H197.187Z" fill="white"/>
<path d="M217.947 52.7537C216.652 50.2091 212.991 46.727 210.223 45.477C208.616 44.7627 207.009 44.4948 203.124 44.3609L198.08 44.1824V76.1016L202.901 75.8784C206.83 75.6998 208.125 75.4766 210.223 74.5392C218.616 70.6553 222.099 60.9232 217.947 52.7537Z" fill="white"/>
<path d="M318.621 75.9677V46.5038H302.102V60.8339L306.611 68.4232L311.121 75.9677H318.621Z" fill="white"/>
<path d="M249.868 68.1107C249.868 68.0214 247.948 65.0303 245.626 61.4589L241.43 54.9858H220.848V75.9677H245.269L247.591 72.1285C248.841 70.0303 249.868 68.2446 249.868 68.1107Z" fill="white"/>
<path d="M294.334 65.4321C291.611 61.4143 286.923 58.2893 282.101 57.2626C274.378 55.6554 266.163 59.0483 261.922 65.7C260.359 68.1553 258.797 72.6195 258.797 74.6731V75.9677H297.638V74.6731C297.638 72.5302 295.986 67.8428 294.334 65.4321Z" fill="white"/>
<path d="M383.803 75.9677V58.5572H374.874C367.998 58.5572 365.891 58.5532 365.612 58.5532C365.612 58.8862 365.543 63.3339 365.588 67.7089L365.721 75.7445L374.784 75.8784L383.803 75.9677Z" fill="white"/>
<path d="M403 75.9677V58.5572H384.696V75.9677H403Z" fill="white"/>
<path d="M309.942 75.9677C309.942 75.7891 308.263 72.9767 306.522 69.9856C305.629 68.5127 304.759 67.0621 304.073 65.9183C303.386 64.774 302.52 63.2947 302.363 63.0492C301.918 61.9391 302.102 63.6597 302.102 69.4053V75.9677H305.897C307.995 75.9677 309.552 75.9677 309.942 75.9677Z" fill="white"/>
<path d="M254.779 75.6998C254.779 75.5659 253.886 74.0481 252.77 72.3517C251.698 70.6553 250.671 69.2713 250.582 69.2713C250.314 69.2713 246.743 75.2088 246.743 75.6552C246.743 75.8338 248.573 75.9677 250.761 75.9677C252.993 75.9677 254.779 75.8338 254.779 75.6998Z" fill="white"/>
</svg>
