<?xml version="1.0" encoding="UTF-8"?>
<svg xmlns="http://www.w3.org/2000/svg" xmlns:xlink="http://www.w3.org/1999/xlink" fill="none" width="206" height="61" viewBox="0 0 206 61" version="1.1">
<g id="surface1">
<path style=" stroke:none;fill-rule:nonzero;fill:rgb(0%,65.098039%,53.333333%);fill-opacity:1;" d="M 61.328125 10.421875 C 61.328125 12.132812 59.945312 13.519531 58.234375 13.519531 C 56.523438 13.519531 55.140625 12.132812 55.140625 10.421875 C 55.140625 8.707031 56.523438 7.320312 58.234375 7.320312 C 59.945312 7.320312 61.328125 8.707031 61.328125 10.421875 Z M 61.328125 10.421875 "/>
<path style=" stroke:none;fill-rule:nonzero;fill:rgb(97.647059%,60%,25.882353%);fill-opacity:1;" d="M 64.105469 24.242188 C 61.527344 24.242188 59.070312 24.777344 56.84375 25.742188 L 56.84375 25.75 C 55.917969 26.148438 55.039062 26.621094 54.203125 27.164062 C 53.054688 27.90625 51.988281 28.773438 51.03125 29.753906 C 50.496094 30.296875 49.996094 30.878906 49.53125 31.484375 C 49.402344 31.65625 29.554688 60.980469 29.554688 60.980469 L 37.925781 60.980469 C 40.484375 60.980469 42.914062 60.394531 45.128906 59.445312 L 45.128906 59.441406 C 46.042969 59.050781 46.914062 58.582031 47.746094 58.058594 C 48.933594 57.296875 50.023438 56.417969 51.003906 55.414062 C 51.683594 54.722656 53.117188 52.824219 53.117188 52.824219 L 72.445312 24.253906 L 64.105469 24.253906 Z M 51.191406 50.445312 C 51.191406 50.445312 51.054688 50.664062 51 50.757812 C 50.992188 50.757812 50.152344 51.980469 50.152344 51.980469 L 49.136719 53.175781 C 46.320312 56.160156 42.339844 58.046875 37.917969 58.046875 L 35.042969 58.046875 L 35.199219 57.808594 C 35.199219 57.808594 51.738281 33.289062 52.160156 32.777344 C 52.390625 32.496094 52.632812 32.21875 52.882812 31.957031 C 55.6875 28.976562 59.695312 27.15625 64.105469 27.15625 L 66.90625 27.15625 Z M 51.191406 50.445312 "/>
<path style=" stroke:none;fill-rule:nonzero;fill:rgb(0%,65.098039%,53.333333%);fill-opacity:1;" d="M 15.300781 53.667969 C 14.003906 55.394531 12.417969 56.871094 10.605469 58.046875 L 28.394531 58.078125 L 26.472656 61 L 0 60.96875 L 1.964844 58.054688 C 1.992188 58.046875 2.015625 58.046875 2.035156 58.046875 C 6.335938 57.664062 10.125 55.515625 12.683594 52.324219 L 42.511719 8.113281 C 43.902344 6.042969 45.710938 4.269531 47.800781 2.914062 C 48.652344 2.371094 49.542969 1.886719 50.476562 1.488281 C 52.695312 0.53125 55.140625 0 57.710938 0 L 95.527344 0 L 93.558594 2.914062 C 88.929688 3.335938 84.878906 5.816406 82.347656 9.429688 C 82.246094 9.570312 73.796875 22.125 73.796875 22.125 L 70.28125 22.125 L 79.902344 7.835938 C 81.253906 5.886719 82.976562 4.21875 84.957031 2.921875 L 57.703125 2.921875 C 52.464844 2.921875 47.808594 5.511719 45.039062 9.53125 C 45.019531 9.578125 15.300781 53.667969 15.300781 53.667969 Z M 15.300781 53.667969 "/>
<path style=" stroke:none;fill-rule:nonzero;fill:rgb(0%,65.098039%,53.333333%);fill-opacity:1;" d="M 142.097656 29.578125 L 139.523438 29.578125 L 137.957031 25.167969 L 151.703125 25.167969 C 156.78125 25.167969 160.4375 27.796875 160.4375 32.445312 C 160.4375 35.582031 158.726562 37.613281 157.023438 38.484375 L 157.023438 38.5625 C 160.078125 39.476562 161.546875 42.339844 161.546875 45.203125 C 161.546875 50.847656 157.0625 53.394531 151.824219 53.394531 L 144.796875 53.394531 C 142.933594 53.394531 142.097656 52.601562 142.097656 50.6875 Z M 151.746094 36.699219 C 153.929688 36.699219 155.160156 35.109375 155.160156 33.082031 C 155.160156 31.054688 153.96875 29.585938 151.671875 29.585938 L 147.304688 29.585938 L 147.304688 36.699219 Z M 148.171875 48.988281 L 152.21875 48.988281 C 154.757812 48.988281 156.1875 47.28125 156.1875 44.890625 C 156.1875 42.542969 154.71875 40.835938 152.21875 40.835938 L 147.300781 40.835938 L 147.300781 48.113281 C 147.300781 48.667969 147.617188 48.988281 148.171875 48.988281 Z M 148.171875 48.988281 "/>
<path style=" stroke:none;fill-rule:nonzero;fill:rgb(0%,65.098039%,53.333333%);fill-opacity:1;" d="M 164.6875 48.988281 L 167.507812 48.988281 L 167.507812 29.578125 L 164.6875 29.578125 L 164.6875 25.167969 L 176.886719 25.167969 L 175.246094 29.578125 L 172.425781 29.578125 L 172.425781 48.988281 L 175.246094 48.988281 L 175.246094 53.398438 L 164.6875 53.398438 Z M 164.6875 48.988281 "/>
<path style=" stroke:none;fill-rule:nonzero;fill:rgb(0%,65.098039%,53.333333%);fill-opacity:1;" d="M 177.1875 48.988281 L 177.824219 48.988281 C 178.5 48.988281 178.8125 48.828125 179.054688 48.113281 L 187.433594 25.167969 L 192.871094 25.167969 L 201.199219 48.113281 C 201.4375 48.828125 201.757812 48.988281 202.433594 48.988281 L 206.160156 48.988281 L 203.070312 53.398438 L 199.976562 53.398438 C 197.992188 53.398438 197.277344 52.882812 196.644531 51.089844 L 194.898438 46.164062 L 185.367188 46.164062 L 183.617188 51.089844 C 182.984375 52.882812 182.308594 53.398438 180.324219 53.398438 L 177.191406 53.398438 L 177.191406 48.988281 Z M 193.699219 41.867188 L 191.28125 34.789062 C 190.761719 33.234375 190.167969 30.578125 190.167969 30.578125 L 190.085938 30.578125 C 190.085938 30.578125 189.492188 33.242188 188.976562 34.789062 L 186.558594 41.867188 Z M 191.195312 17.886719 L 196.039062 17.886719 L 191.875 23.296875 L 188.179688 23.296875 Z M 191.195312 17.886719 "/>
<path style=" stroke:none;fill-rule:nonzero;fill:rgb(0%,65.098039%,53.333333%);fill-opacity:1;" d="M 111.894531 48.988281 L 112.53125 48.988281 C 113.207031 48.988281 113.519531 48.828125 113.765625 48.113281 L 122.136719 25.167969 L 127.570312 25.167969 L 135.902344 48.113281 C 136.140625 48.828125 136.460938 48.988281 137.136719 48.988281 L 137.773438 48.988281 L 137.773438 53.398438 L 134.679688 53.398438 C 132.695312 53.398438 131.980469 52.882812 131.347656 51.089844 L 129.601562 46.164062 L 120.074219 46.164062 L 118.324219 51.089844 C 117.695312 52.882812 117.019531 53.398438 115.035156 53.398438 L 108.753906 53.398438 Z M 128.40625 41.867188 L 125.988281 34.789062 C 125.472656 33.234375 124.878906 30.578125 124.878906 30.578125 L 124.800781 30.578125 C 124.800781 30.578125 124.207031 33.242188 123.691406 34.789062 L 121.273438 41.867188 Z M 128.40625 41.867188 "/>
<path style=" stroke:none;fill-rule:nonzero;fill:rgb(0%,65.098039%,53.333333%);fill-opacity:1;" d="M 93.683594 45.566406 C 93.683594 45.566406 96.773438 49.179688 100.703125 49.179688 C 102.847656 49.179688 104.753906 48.027344 104.753906 45.84375 C 104.753906 41.027344 91.496094 41.433594 91.496094 32.640625 C 91.496094 28.070312 95.464844 24.6875 100.902344 24.6875 C 104.191406 24.6875 109.273438 26.242188 109.273438 30.257812 L 109.273438 36.03125 L 104.589844 33.433594 L 104.589844 31.613281 C 104.589844 30.300781 102.726562 29.425781 100.855469 29.425781 C 98.476562 29.425781 96.726562 30.660156 96.726562 32.449219 C 96.726562 37.265625 109.988281 36.304688 109.988281 45.574219 C 109.988281 50.066406 106.535156 53.886719 100.621094 53.886719 C 94.386719 53.886719 90.933594 49.511719 90.933594 49.511719 Z M 93.683594 45.566406 "/>
<path style=" stroke:none;fill-rule:nonzero;fill:rgb(51.764706%,51.764706%,51.764706%);fill-opacity:1;" d="M 97.429688 11.777344 C 98.257812 11.777344 98.941406 12.042969 99.484375 12.582031 C 100.027344 13.117188 100.300781 13.78125 100.300781 14.589844 C 100.300781 15.386719 100.027344 16.058594 99.484375 16.59375 C 98.941406 17.132812 98.253906 17.402344 97.4375 17.402344 L 95.019531 17.402344 L 95.019531 20.71875 L 94.0625 20.71875 L 94.0625 11.777344 Z M 95.003906 12.671875 L 95.003906 16.5 L 97.421875 16.5 C 97.996094 16.5 98.464844 16.328125 98.8125 15.976562 C 99.164062 15.625 99.335938 15.164062 99.335938 14.582031 C 99.335938 14.007812 99.164062 13.539062 98.8125 13.195312 C 98.464844 12.84375 98.003906 12.671875 97.421875 12.671875 Z M 95.003906 12.671875 "/>
<path style=" stroke:none;fill-rule:nonzero;fill:rgb(51.764706%,51.764706%,51.764706%);fill-opacity:1;" d="M 103.101562 20.71875 L 103.101562 11.777344 L 104.058594 11.777344 L 104.058594 19.824219 L 108.644531 19.824219 L 108.644531 20.71875 Z M 103.101562 20.71875 "/>
<path style=" stroke:none;fill-rule:nonzero;fill:rgb(51.764706%,51.764706%,51.764706%);fill-opacity:1;" d="M 112.023438 18.230469 L 111 20.71875 L 109.980469 20.71875 L 113.675781 11.777344 L 114.566406 11.777344 L 118.261719 20.71875 L 117.246094 20.71875 L 116.226562 18.230469 Z M 114.128906 13.117188 L 112.40625 17.332031 L 115.84375 17.332031 Z M 114.128906 13.117188 "/>
<path style=" stroke:none;fill-rule:nonzero;fill:rgb(51.764706%,51.764706%,51.764706%);fill-opacity:1;" d="M 125.40625 11.777344 L 125.40625 12.671875 L 122.601562 12.671875 L 122.601562 20.71875 L 121.648438 20.71875 L 121.648438 12.671875 L 118.84375 12.671875 L 118.84375 11.777344 Z M 125.40625 11.777344 "/>
<path style=" stroke:none;fill-rule:nonzero;fill:rgb(51.764706%,51.764706%,51.764706%);fill-opacity:1;" d="M 128.019531 18.230469 L 126.996094 20.71875 L 125.976562 20.71875 L 129.671875 11.777344 L 130.5625 11.777344 L 134.257812 20.71875 L 133.242188 20.71875 L 132.222656 18.230469 Z M 130.125 13.117188 L 128.402344 17.332031 L 131.839844 17.332031 Z M 130.125 13.117188 "/>
<path style=" stroke:none;fill-rule:nonzero;fill:rgb(51.764706%,51.764706%,51.764706%);fill-opacity:1;" d="M 142.742188 11.777344 L 142.742188 12.671875 L 137.644531 12.671875 L 137.644531 15.734375 L 141.722656 15.734375 L 141.722656 16.628906 L 137.644531 16.628906 L 137.644531 20.710938 L 136.6875 20.710938 L 136.6875 11.777344 Z M 142.742188 11.777344 "/>
<path style=" stroke:none;fill-rule:nonzero;fill:rgb(51.764706%,51.764706%,51.764706%);fill-opacity:1;" d="M 152.300781 19.503906 C 151.410156 20.398438 150.324219 20.847656 149.054688 20.847656 C 147.777344 20.847656 146.699219 20.398438 145.804688 19.503906 C 144.914062 18.609375 144.464844 17.523438 144.464844 16.25 C 144.464844 14.972656 144.914062 13.890625 145.804688 12.996094 C 146.699219 12.101562 147.785156 11.652344 149.054688 11.652344 C 150.328125 11.652344 151.410156 12.101562 152.300781 12.996094 C 153.195312 13.890625 153.640625 14.976562 153.640625 16.25 C 153.636719 17.523438 153.1875 18.609375 152.300781 19.503906 Z M 146.46875 18.882812 C 147.171875 19.59375 148.03125 19.953125 149.054688 19.953125 C 150.074219 19.953125 150.9375 19.59375 151.636719 18.882812 C 152.339844 18.175781 152.691406 17.292969 152.691406 16.246094 C 152.691406 15.195312 152.339844 14.320312 151.636719 13.605469 C 150.9375 12.894531 150.074219 12.535156 149.054688 12.535156 C 148.03125 12.535156 147.171875 12.894531 146.46875 13.605469 C 145.769531 14.3125 145.417969 15.195312 145.417969 16.246094 C 145.417969 17.292969 145.769531 18.175781 146.46875 18.882812 Z M 146.46875 18.882812 "/>
<path style=" stroke:none;fill-rule:nonzero;fill:rgb(51.764706%,51.764706%,51.764706%);fill-opacity:1;" d="M 160.078125 11.777344 C 160.871094 11.777344 161.519531 12.03125 162.042969 12.542969 C 162.566406 13.054688 162.820312 13.695312 162.820312 14.460938 C 162.820312 14.84375 162.761719 15.1875 162.632812 15.507812 C 162.503906 15.820312 162.351562 16.070312 162.171875 16.25 C 161.996094 16.429688 161.816406 16.582031 161.628906 16.703125 C 161.445312 16.832031 161.292969 16.914062 161.171875 16.953125 L 160.980469 17.019531 L 163.085938 20.726562 L 162 20.726562 L 160.023438 17.152344 L 157.476562 17.152344 L 157.476562 20.726562 L 156.519531 20.726562 L 156.519531 11.777344 Z M 157.46875 12.671875 L 157.46875 16.246094 L 160.078125 16.246094 C 160.621094 16.246094 161.054688 16.085938 161.378906 15.757812 C 161.707031 15.4375 161.867188 15.003906 161.867188 14.453125 C 161.867188 13.910156 161.707031 13.476562 161.378906 13.148438 C 161.054688 12.832031 160.621094 12.664062 160.078125 12.664062 L 157.46875 12.664062 Z M 157.46875 12.671875 "/>
<path style=" stroke:none;fill-rule:nonzero;fill:rgb(51.764706%,51.764706%,51.764706%);fill-opacity:1;" d="M 170.402344 18.160156 L 166.835938 13.4375 L 166.835938 20.71875 L 165.878906 20.71875 L 165.878906 11.777344 L 166.707031 11.777344 L 170.410156 16.632812 L 174.105469 11.777344 L 174.933594 11.777344 L 174.933594 20.71875 L 173.980469 20.71875 L 173.980469 13.4375 Z M 170.402344 18.160156 "/>
<path style=" stroke:none;fill-rule:nonzero;fill:rgb(51.764706%,51.764706%,51.764706%);fill-opacity:1;" d="M 179.398438 18.230469 L 178.378906 20.71875 L 177.359375 20.71875 L 181.050781 11.777344 L 181.945312 11.777344 L 185.640625 20.71875 L 184.625 20.71875 L 183.605469 18.230469 Z M 181.496094 13.117188 L 179.777344 17.332031 L 183.222656 17.332031 Z M 181.496094 13.117188 "/>
</g>
</svg>
