<svg width="215" height="64" viewBox="0 0 215 64" fill="none" xmlns="http://www.w3.org/2000/svg">
<path d="M63.959 10.9327C63.959 12.7302 62.515 14.1857 60.7317 14.1857C58.9485 14.1857 57.5045 12.7302 57.5045 10.9327C57.5045 9.13515 58.9485 7.67969 60.7317 7.67969C62.515 7.67969 63.959 9.13515 63.959 10.9327Z" fill="#9A9A9A"/>
<path d="M66.8536 25.4336C64.1654 25.4336 61.6035 25.997 59.2813 27.0098V27.0165C58.3164 27.4323 57.3982 27.9287 56.5265 28.4988C55.3288 29.2768 54.2175 30.189 53.2194 31.2152C52.6605 31.7853 52.1414 32.3957 51.6557 33.0328C51.5226 33.2139 30.8218 63.9798 30.8218 63.9798H39.5519C42.2202 63.9798 44.7554 63.3627 47.0644 62.3701V62.3634C48.0159 61.9542 48.9275 61.4646 49.7926 60.9146C51.0302 60.1165 52.1681 59.1909 53.1928 58.1378C53.8981 57.4135 55.3953 55.4214 55.3953 55.4214L75.5505 25.447H66.8536V25.4336ZM53.3858 52.9264C53.3858 52.9264 53.246 53.1544 53.1861 53.255C53.1795 53.255 52.3011 54.5361 52.3011 54.5361L51.2431 55.7903C48.3087 58.9226 44.1566 60.9012 39.5453 60.9012H36.5443L36.7106 60.653C36.7106 60.653 53.958 34.9243 54.3972 34.3877C54.6367 34.0926 54.8896 33.8042 55.1491 33.5292C58.0769 30.4036 62.2557 28.4921 66.8536 28.4921H69.7748L53.3858 52.9264Z" fill="#6F6E6E"/>
<path d="M15.9565 56.3069C14.6057 58.1178 12.9488 59.6672 11.0591 60.9013L29.6107 60.9348L27.6078 64L0 63.9665L2.04946 60.908C2.07607 60.9013 2.10269 60.9013 2.12265 60.9013C6.6075 60.4988 10.56 58.2452 13.2283 54.8983L44.3361 8.51142C45.7867 6.33829 47.6698 4.4804 49.8524 3.05848C50.7374 2.48837 51.6689 1.97862 52.6404 1.56278C54.956 0.556697 57.5046 0 60.1862 0H99.6249L97.5688 3.05848C92.7446 3.50115 88.5192 6.10354 85.8776 9.89311C85.7711 10.0407 76.9611 23.2136 76.9611 23.2136H73.2947L83.329 8.22301C84.7397 6.17732 86.5363 4.42674 88.5991 3.06519H60.1795C54.7165 3.06519 49.859 5.7816 46.9711 10.0004C46.9512 10.0474 15.9565 56.3069 15.9565 56.3069Z" fill="#9A9A9A"/>
<path d="M148.193 31.0342H145.505L143.875 26.4062H158.208C163.504 26.4062 167.317 29.1629 167.317 34.039C167.317 37.3323 165.534 39.4651 163.757 40.3773V40.4578C166.944 41.4169 168.475 44.4218 168.475 47.4266C168.475 53.349 163.797 56.0185 158.334 56.0185H151.008C149.065 56.0185 148.193 55.1868 148.193 53.1813V31.0342ZM158.254 38.506C160.53 38.506 161.814 36.8359 161.814 34.7097C161.814 32.5836 160.57 31.0409 158.174 31.0409H153.623V38.506H158.254ZM154.528 51.3972H158.746C161.395 51.3972 162.885 49.6064 162.885 47.0979C162.885 44.6364 161.355 42.8456 158.746 42.8456H153.616V50.4784C153.616 51.0619 153.949 51.3972 154.528 51.3972Z" fill="#9A9A9A"/>
<path d="M171.749 51.3972H174.69V31.0342H171.749V26.4062H184.471L182.761 31.0342H179.82V51.3972H182.761V56.0252H171.749V51.3972Z" fill="#9A9A9A"/>
<path d="M184.784 51.3973H185.449C186.155 51.3973 186.481 51.2296 186.733 50.4784L195.47 26.4063H201.14L209.83 50.4784C210.076 51.2296 210.409 51.3973 211.114 51.3973H215L211.779 56.0253H208.552C206.483 56.0253 205.738 55.482 205.079 53.604L203.256 48.4327H193.314L191.491 53.604C190.832 55.482 190.127 56.0253 188.058 56.0253H184.79V51.3973H184.784ZM202.005 43.9255L199.483 36.5007C198.944 34.8708 198.325 32.0806 198.325 32.0806H198.238C198.238 32.0806 197.62 34.8775 197.081 36.5007L194.559 43.9255H202.005ZM199.396 18.7668H204.447L200.101 24.4411H196.249L199.396 18.7668Z" fill="#9A9A9A"/>
<path d="M116.693 51.3972H117.358C118.063 51.3972 118.389 51.2296 118.642 50.4784L127.372 26.4062H133.042L141.732 50.4784C141.978 51.2296 142.311 51.3972 143.016 51.3972H143.682V56.0252H140.454C138.385 56.0252 137.64 55.4819 136.981 53.6039L135.158 48.4327H125.223L123.4 53.6039C122.741 55.4819 122.036 56.0252 119.966 56.0252H113.419L116.693 51.3972ZM133.913 43.9254L131.391 36.5006C130.853 34.8707 130.234 32.0805 130.234 32.0805H130.154C130.154 32.0805 129.535 34.8774 128.996 36.5006L126.474 43.9254H133.913Z" fill="#9A9A9A"/>
<path d="M97.7019 47.809C97.7019 47.809 100.922 51.5986 105.021 51.5986C107.257 51.5986 109.247 50.3913 109.247 48.0974C109.247 43.0469 95.4195 43.4694 95.4195 34.2471C95.4195 29.4514 99.5584 25.9033 105.228 25.9033C108.661 25.9033 113.958 27.5332 113.958 31.7453V37.8019L109.074 35.0788V33.1672C109.074 31.7922 107.131 30.8733 105.181 30.8733C102.699 30.8733 100.876 32.1678 100.876 34.0458C100.876 39.0964 114.703 38.0903 114.703 47.8157C114.703 52.5309 111.103 56.5351 104.935 56.5351C98.4338 56.5351 94.834 51.9473 94.834 51.9473L97.7019 47.809Z" fill="#9A9A9A"/>
<path d="M101.608 12.3547C102.473 12.3547 103.185 12.6364 103.75 13.1998C104.316 13.7632 104.602 14.4608 104.602 15.3059C104.602 16.1443 104.316 16.8486 103.75 17.412C103.185 17.9754 102.466 18.2571 101.614 18.2571H99.0925V21.7381H98.0944V12.3547H101.608ZM99.0792 13.2937V17.3113H101.601C102.2 17.3113 102.686 17.1303 103.052 16.7614C103.418 16.3925 103.597 15.9095 103.597 15.2992C103.597 14.6955 103.418 14.2059 103.052 13.8437C102.686 13.4748 102.207 13.2937 101.601 13.2937H99.0792Z" fill="#6F6E6E"/>
<path d="M107.523 21.7381V12.3547H108.521V20.7991H113.306V21.7381H107.523Z" fill="#6F6E6E"/>
<path d="M116.826 19.129L115.761 21.7381H114.696L118.549 12.3547H119.481L123.333 21.7381H122.275L121.211 19.129H116.826ZM119.021 13.7632L117.225 18.1833H120.811L119.021 13.7632Z" fill="#6F6E6E"/>
<path d="M130.786 12.3547V13.2937H127.858V21.7381H126.867V13.2937H123.939V12.3547H130.786Z" fill="#6F6E6E"/>
<path d="M133.507 19.129L132.443 21.7381H131.378L135.231 12.3547H136.162L140.015 21.7381H138.957L137.892 19.129H133.507ZM135.703 13.7632L133.907 18.1833H137.493L135.703 13.7632Z" fill="#6F6E6E"/>
<path d="M148.865 12.3547V13.2937H143.548V16.5065H147.8V17.4455H143.548V21.7314H142.55V12.3547H148.865Z" fill="#6F6E6E"/>
<path d="M158.833 20.4637C157.901 21.4027 156.77 21.8722 155.446 21.8722C154.115 21.8722 152.991 21.4027 152.059 20.4637C151.127 19.5247 150.662 18.3845 150.662 17.0498C150.662 15.7083 151.127 14.5748 152.059 13.6358C152.991 12.6968 154.122 12.2273 155.446 12.2273C156.777 12.2273 157.901 12.6968 158.833 13.6358C159.764 14.5748 160.23 15.715 160.23 17.0498C160.224 18.3845 159.758 19.5247 158.833 20.4637ZM152.751 19.8131C153.483 20.5576 154.381 20.9332 155.446 20.9332C156.511 20.9332 157.409 20.5576 158.141 19.8131C158.873 19.0686 159.239 18.143 159.239 17.0431C159.239 15.9431 158.873 15.0242 158.141 14.273C157.409 13.5285 156.511 13.1529 155.446 13.1529C154.381 13.1529 153.483 13.5285 152.751 14.273C152.019 15.0175 151.653 15.9431 151.653 17.0431C151.653 18.143 152.019 19.0686 152.751 19.8131Z" fill="#6F6E6E"/>
<path d="M166.944 12.3547C167.769 12.3547 168.448 12.623 168.994 13.1596C169.539 13.6962 169.805 14.3669 169.805 15.1718C169.805 15.5742 169.739 15.9364 169.606 16.2717C169.473 16.6004 169.313 16.862 169.127 17.0498C168.94 17.2376 168.754 17.3985 168.561 17.526C168.368 17.6601 168.208 17.7473 168.082 17.7876L167.882 17.8546L170.078 21.7448H168.947L166.884 17.9955H164.229V21.7448H163.231V12.3547H166.944ZM164.223 13.2937V17.0431H166.944C167.51 17.0431 167.962 16.8754 168.302 16.5333C168.641 16.198 168.807 15.7419 168.807 15.165C168.807 14.5949 168.641 14.1388 168.302 13.7968C167.962 13.4614 167.51 13.287 166.944 13.287H164.223V13.2937Z" fill="#6F6E6E"/>
<path d="M177.71 19.0552L173.991 14.0986V21.7381H172.993V12.3547H173.858L177.717 17.4522L181.57 12.3547H182.435V21.7381H181.443V14.0986L177.71 19.0552Z" fill="#6F6E6E"/>
<path d="M187.093 19.129L186.028 21.7381H184.963L188.816 12.3547H189.748L193.6 21.7381H192.542L191.478 19.129H187.093ZM189.282 13.7632L187.485 18.1833H191.078L189.282 13.7632Z" fill="#6F6E6E"/>
</svg>
