<svg width="216" height="81" viewBox="0 0 216 81" fill="none" xmlns="http://www.w3.org/2000/svg">
<g clip-path="url(#clip0)">
<g clip-path="url(#clip1)">
<path fill-rule="evenodd" clip-rule="evenodd" d="M63.5606 18.364L69.0141 20.7199C70.0728 21.1771 70.5272 21.2687 68.9746 21.7146L64.036 23.1327C63.9882 23.3825 63.9366 23.6353 63.8842 23.8921C63.675 24.917 63.4511 26.0127 63.4604 27.1436C63.4647 27.6663 63.5904 28.7275 63.5904 28.7275C63.5904 28.7275 63.7806 29.7986 63.9099 30.3147C63.9246 30.3743 63.9338 30.4338 63.9373 30.4929H63.9389C64.3131 36.9427 62.6145 41.9723 59.045 45.72C55.7018 49.2301 50.7428 51.5683 44.3332 52.8542L45.2599 58.115H49.7808C50.4636 58.115 51.0173 58.6444 51.0173 59.2971C51.0173 59.9498 50.4636 60.4791 49.7808 60.4791H40.6839C40.0011 60.4791 39.4474 59.9498 39.4474 59.2971C39.4474 58.6444 40.0011 58.115 40.6839 58.115H42.7571L41.8647 53.0486C39.3823 52.9919 37.0244 53.066 34.7941 53.2742C32.2546 53.5114 29.8753 53.9246 27.6605 54.519C20.3107 56.4912 16.8113 59.8656 12.1097 64.3996L12.0459 64.4612C11.7563 64.7404 11.4838 65.0272 11.2436 65.2798C9.74725 66.8539 9.21048 67.4184 6.27273 66.4149C5.83406 66.265 5.42292 66.0813 5.03768 65.8657C4.65753 65.653 4.31389 65.4105 4.00513 65.1404C3.31133 64.5335 2.81473 63.8034 2.48761 62.9682C2.17538 62.1712 2.02161 61.2831 2.0002 60.3197C1.99204 59.9219 2.22576 59.5733 2.57205 59.4024C6.1779 57.6165 9.54046 55.5191 12.6595 53.1106C15.7733 50.7064 18.647 47.9859 21.2788 44.9478L21.2976 44.9266C24.6881 40.7285 29.7941 36.3056 34.6532 32.097C39.9285 27.5277 44.9062 23.2162 46.8808 19.8841C47.7088 17.4912 49.2477 15.9087 51.0864 15.0017C52.2277 14.4389 53.479 14.1427 54.7422 14.0795C55.9846 14.0174 57.2436 14.1831 58.4215 14.5434C60.6037 15.2105 62.517 16.5532 63.5606 18.364ZM56.6874 18.541C57.5776 18.541 58.2995 19.231 58.2995 20.082C58.2995 20.933 57.5778 21.623 56.6874 21.623C55.7972 21.623 55.0755 20.933 55.0755 20.082C55.0755 19.231 55.7972 18.541 56.6874 18.541ZM22.594 46.6003C25.958 46.4244 29.8832 45.9772 32.5471 44.9677C37.1881 43.2088 40.6168 38.9142 43.9773 35.0947C44.4947 34.5067 47.3978 31.1279 48.2266 31.7808C48.4254 31.9373 48.3261 32.4419 47.8495 33.3865C43.7748 38.6738 40.8099 43.41 35.6041 46.1868C30.8523 48.7215 25.4898 48.8566 20.2597 49.1126C18.2891 51.1201 16.197 52.9778 13.9845 54.6863C10.9325 57.0428 7.65361 59.1111 4.14931 60.8928C4.20112 61.3913 4.30451 61.8503 4.46664 62.264C4.67813 62.804 4.99342 63.271 5.42944 63.6525C5.62523 63.8239 5.85017 63.9816 6.10571 64.1245C6.35635 64.2647 6.64859 64.3928 6.98469 64.5076C8.59561 65.058 8.88153 64.7571 9.67852 63.9186C9.91571 63.6691 10.1847 63.386 10.5471 63.0366L10.6111 62.975C15.5379 58.2238 19.205 54.6878 27.0891 52.5721C29.4129 51.9486 31.9169 51.5141 34.5952 51.2639C37.2165 51.0193 40.0001 50.9528 42.9413 51.0596C49.3782 49.9043 54.286 47.7122 57.4801 44.3586C60.6451 41.0357 62.1548 36.5191 61.8318 30.6816C61.6933 30.1183 61.4957 29.0045 61.4957 29.0045C61.4957 29.0045 61.3544 27.7927 61.3493 27.1596C61.3383 25.7967 61.5799 24.6125 61.8063 23.5043C62.1189 21.9733 62.3971 20.6109 61.7708 19.4505C61.0144 18.0491 59.5173 16.9969 57.7842 16.467C56.8469 16.1804 55.8429 16.0486 54.8501 16.0984C53.8779 16.1469 52.9209 16.3721 52.0553 16.7989C50.6626 17.4859 49.4922 18.7132 48.8608 20.5951L48.8596 20.5992L48.8588 20.6016C48.8378 20.6636 48.8104 20.7246 48.776 20.7836C46.6701 24.4113 41.5245 28.8681 36.0691 33.5933C31.2843 37.7376 26.2562 42.093 22.9682 46.1646C22.9503 46.1897 22.9309 46.2143 22.9103 46.2383C22.8053 46.3595 22.6997 46.48 22.594 46.6003Z" fill="#FF5406"/>
</g>
<path d="M80.0014 29C79.9214 29 79.8574 28.976 79.8094 28.928C79.7614 28.88 79.7374 28.816 79.7374 28.736V20.876C79.7374 20.796 79.7614 20.732 79.8094 20.684C79.8574 20.628 79.9214 20.6 80.0014 20.6H82.9174C83.7734 20.6 84.4454 20.816 84.9334 21.248C85.4294 21.672 85.6774 22.284 85.6774 23.084C85.6774 23.884 85.4294 24.5 84.9334 24.932C84.4454 25.356 83.7734 25.568 82.9174 25.568H80.4934V28.736C80.4934 28.816 80.4654 28.88 80.4094 28.928C80.3614 28.976 80.2974 29 80.2174 29H80.0014ZM82.8574 24.848C83.5454 24.848 84.0614 24.7 84.4054 24.404C84.7494 24.1 84.9214 23.66 84.9214 23.084C84.9214 22.508 84.7494 22.072 84.4054 21.776C84.0614 21.472 83.5454 21.32 82.8574 21.32H80.4934V24.848H82.8574ZM87.5365 29C87.4565 29 87.3925 28.976 87.3445 28.928C87.2965 28.88 87.2725 28.816 87.2725 28.736V20.864C87.2725 20.784 87.2965 20.72 87.3445 20.672C87.3925 20.624 87.4565 20.6 87.5365 20.6H87.7645C87.8445 20.6 87.9085 20.624 87.9565 20.672C88.0045 20.72 88.0285 20.784 88.0285 20.864V28.28H92.1685C92.2565 28.28 92.3245 28.304 92.3725 28.352C92.4205 28.4 92.4445 28.468 92.4445 28.556V28.736C92.4445 28.816 92.4165 28.88 92.3605 28.928C92.3125 28.976 92.2485 29 92.1685 29H87.5365ZM93.2468 29C93.1828 29 93.1268 28.976 93.0788 28.928C93.0308 28.88 93.0068 28.824 93.0068 28.76L93.0308 28.628L96.0668 20.84C96.1308 20.68 96.2468 20.6 96.4148 20.6H96.8228C96.9908 20.6 97.1068 20.68 97.1708 20.84L100.207 28.628L100.231 28.76C100.231 28.824 100.207 28.88 100.159 28.928C100.111 28.976 100.055 29 99.9908 29H99.7508C99.6788 29 99.6188 28.98 99.5708 28.94C99.5308 28.9 99.5028 28.86 99.4868 28.82L98.7428 26.9H94.4948L93.7508 28.82C93.7348 28.86 93.7028 28.9 93.6548 28.94C93.6148 28.98 93.5588 29 93.4868 29H93.2468ZM98.4548 26.18L96.6188 21.452L94.7828 26.18H98.4548ZM102.849 29C102.769 29 102.705 28.976 102.657 28.928C102.609 28.88 102.585 28.816 102.585 28.736V21.32H100.209C100.129 21.32 100.065 21.296 100.017 21.248C99.9691 21.2 99.9451 21.136 99.9451 21.056V20.876C99.9451 20.796 99.9691 20.732 100.017 20.684C100.065 20.628 100.129 20.6 100.209 20.6H105.705C105.793 20.6 105.861 20.624 105.909 20.672C105.957 20.72 105.981 20.788 105.981 20.876V21.056C105.981 21.136 105.953 21.2 105.897 21.248C105.849 21.296 105.785 21.32 105.705 21.32H103.341V28.736C103.341 28.816 103.313 28.88 103.257 28.928C103.209 28.976 103.145 29 103.065 29H102.849ZM105.926 29C105.862 29 105.806 28.976 105.758 28.928C105.71 28.88 105.686 28.824 105.686 28.76L105.71 28.628L108.746 20.84C108.81 20.68 108.926 20.6 109.094 20.6H109.502C109.67 20.6 109.786 20.68 109.85 20.84L112.886 28.628L112.91 28.76C112.91 28.824 112.886 28.88 112.838 28.928C112.79 28.976 112.734 29 112.67 29H112.43C112.358 29 112.298 28.98 112.25 28.94C112.21 28.9 112.182 28.86 112.166 28.82L111.422 26.9H107.174L106.43 28.82C106.414 28.86 106.382 28.9 106.334 28.94C106.294 28.98 106.238 29 106.166 29H105.926ZM111.134 26.18L109.298 21.452L107.462 26.18H111.134ZM114.595 29C114.515 29 114.451 28.976 114.403 28.928C114.355 28.88 114.331 28.816 114.331 28.736V20.876C114.331 20.796 114.355 20.732 114.403 20.684C114.451 20.628 114.515 20.6 114.595 20.6H119.227C119.315 20.6 119.383 20.624 119.431 20.672C119.479 20.72 119.503 20.788 119.503 20.876V21.056C119.503 21.136 119.475 21.2 119.419 21.248C119.371 21.296 119.307 21.32 119.227 21.32H115.087V24.548H118.987C119.075 24.548 119.143 24.572 119.191 24.62C119.239 24.668 119.263 24.736 119.263 24.824V25.004C119.263 25.084 119.235 25.148 119.179 25.196C119.131 25.244 119.067 25.268 118.987 25.268H115.087V28.736C115.087 28.816 115.059 28.88 115.003 28.928C114.955 28.976 114.891 29 114.811 29H114.595ZM123.96 29.12C121.904 29.12 120.848 28.016 120.792 25.808C120.784 25.568 120.78 25.232 120.78 24.8C120.78 24.368 120.784 24.032 120.792 23.792C120.824 22.704 121.12 21.88 121.68 21.32C122.24 20.76 123 20.48 123.96 20.48C124.92 20.48 125.68 20.76 126.24 21.32C126.8 21.88 127.096 22.704 127.128 23.792C127.144 24.272 127.152 24.608 127.152 24.8C127.152 24.992 127.144 25.328 127.128 25.808C127.072 28.016 126.016 29.12 123.96 29.12ZM123.96 28.4C124.68 28.4 125.252 28.184 125.676 27.752C126.108 27.312 126.34 26.644 126.372 25.748C126.388 25.268 126.396 24.952 126.396 24.8C126.396 24.648 126.388 24.332 126.372 23.852C126.34 22.956 126.108 22.292 125.676 21.86C125.244 21.42 124.672 21.2 123.96 21.2C123.248 21.2 122.676 21.42 122.244 21.86C121.812 22.292 121.58 22.956 121.548 23.852C121.54 24.092 121.536 24.408 121.536 24.8C121.536 25.192 121.54 25.508 121.548 25.748C121.58 26.644 121.808 27.312 122.232 27.752C122.664 28.184 123.24 28.4 123.96 28.4ZM129.326 29C129.246 29 129.182 28.976 129.134 28.928C129.086 28.88 129.062 28.816 129.062 28.736V20.876C129.062 20.796 129.086 20.732 129.134 20.684C129.182 20.628 129.246 20.6 129.326 20.6H132.122C132.986 20.6 133.662 20.804 134.15 21.212C134.638 21.62 134.882 22.224 134.882 23.024C134.882 23.656 134.726 24.168 134.414 24.56C134.102 24.944 133.654 25.204 133.07 25.34L135.002 28.628C135.026 28.676 135.038 28.72 135.038 28.76C135.038 28.824 135.014 28.88 134.966 28.928C134.918 28.976 134.862 29 134.798 29H134.654C134.534 29 134.442 28.976 134.378 28.928C134.322 28.872 134.262 28.788 134.198 28.676L132.29 25.448H129.818V28.736C129.818 28.816 129.79 28.88 129.734 28.928C129.686 28.976 129.622 29 129.542 29H129.326ZM132.062 24.728C132.758 24.728 133.274 24.588 133.61 24.308C133.954 24.02 134.126 23.592 134.126 23.024C134.126 22.456 133.954 22.032 133.61 21.752C133.274 21.464 132.758 21.32 132.062 21.32H129.818V24.728H132.062ZM137.013 29C136.933 29 136.865 28.976 136.809 28.928C136.761 28.88 136.737 28.816 136.737 28.736V20.876C136.737 20.788 136.761 20.72 136.809 20.672C136.865 20.624 136.933 20.6 137.013 20.6H137.313C137.433 20.6 137.517 20.652 137.565 20.756L140.289 26.06L143.025 20.756C143.081 20.652 143.165 20.6 143.277 20.6H143.565C143.653 20.6 143.721 20.624 143.769 20.672C143.817 20.72 143.841 20.788 143.841 20.876V28.736C143.841 28.816 143.813 28.88 143.757 28.928C143.709 28.976 143.645 29 143.565 29H143.349C143.269 29 143.205 28.976 143.157 28.928C143.109 28.88 143.085 28.816 143.085 28.736V22.232L140.793 26.744C140.721 26.904 140.597 26.984 140.421 26.984H140.157C139.981 26.984 139.857 26.904 139.785 26.744L137.493 22.232V28.736C137.493 28.816 137.469 28.88 137.421 28.928C137.373 28.976 137.309 29 137.229 29H137.013ZM145.501 29C145.437 29 145.381 28.976 145.333 28.928C145.285 28.88 145.261 28.824 145.261 28.76L145.285 28.628L148.321 20.84C148.385 20.68 148.501 20.6 148.669 20.6H149.077C149.245 20.6 149.361 20.68 149.425 20.84L152.461 28.628L152.485 28.76C152.485 28.824 152.461 28.88 152.413 28.928C152.365 28.976 152.309 29 152.245 29H152.005C151.933 29 151.873 28.98 151.825 28.94C151.785 28.9 151.757 28.86 151.741 28.82L150.997 26.9H146.749L146.005 28.82C145.989 28.86 145.957 28.9 145.909 28.94C145.869 28.98 145.813 29 145.741 29H145.501ZM150.709 26.18L148.873 21.452L147.037 26.18H150.709Z" fill="#4B4D4F"/>
<path d="M87.84 64.4C85.4667 64.4 83.4267 64.04 81.72 63.32C80.0133 62.6 78.72 61.6533 77.84 60.48C76.96 59.3067 76.4933 58.04 76.44 56.68C76.44 56.44 76.52 56.24 76.68 56.08C76.84 55.92 77.04 55.84 77.28 55.84H80.84C81.16 55.84 81.4 55.9067 81.56 56.04C81.7467 56.1467 81.92 56.3333 82.08 56.6C82.3467 57.5067 82.96 58.2667 83.92 58.88C84.88 59.4933 86.1867 59.8 87.84 59.8C89.7333 59.8 91.16 59.4933 92.12 58.88C93.08 58.24 93.56 57.36 93.56 56.24C93.56 55.4933 93.3067 54.88 92.8 54.4C92.32 53.92 91.5867 53.5067 90.6 53.16C89.64 52.8133 88.2 52.3867 86.28 51.88C83.1333 51.1333 80.8267 50.1467 79.36 48.92C77.92 47.6667 77.2 45.8933 77.2 43.6C77.2 42.0533 77.6133 40.68 78.44 39.48C79.2933 38.28 80.5067 37.3333 82.08 36.64C83.68 35.9467 85.5333 35.6 87.64 35.6C89.8267 35.6 91.72 35.9867 93.32 36.76C94.92 37.5333 96.1333 38.5067 96.96 39.68C97.8133 40.8267 98.2667 41.9733 98.32 43.12C98.32 43.36 98.24 43.56 98.08 43.72C97.92 43.88 97.72 43.96 97.48 43.96H93.76C93.2 43.96 92.8133 43.7067 92.6 43.2C92.44 42.3467 91.9067 41.64 91 41.08C90.0933 40.4933 88.9733 40.2 87.64 40.2C86.1467 40.2 84.9733 40.48 84.12 41.04C83.2667 41.6 82.84 42.4133 82.84 43.48C82.84 44.2267 83.0533 44.84 83.48 45.32C83.9067 45.8 84.5733 46.2267 85.48 46.6C86.4133 46.9733 87.7467 47.3867 89.48 47.84C91.8267 48.3733 93.6933 48.9733 95.08 49.64C96.4933 50.3067 97.5333 51.1467 98.2 52.16C98.8667 53.1733 99.2 54.4667 99.2 56.04C99.2 57.7467 98.72 59.24 97.76 60.52C96.8267 61.7733 95.4933 62.7333 93.76 63.4C92.0533 64.0667 90.08 64.4 87.84 64.4ZM109.344 64.4C107.984 64.4 106.731 64.1333 105.584 63.6C104.464 63.04 103.571 62.2933 102.904 61.36C102.264 60.4267 101.944 59.4 101.944 58.28C101.944 56.4667 102.677 55 104.144 53.88C105.611 52.76 107.624 52 110.184 51.6L115.664 50.8V49.96C115.664 48.7867 115.371 47.9067 114.784 47.32C114.197 46.7333 113.251 46.44 111.944 46.44C111.064 46.44 110.344 46.6133 109.784 46.96C109.251 47.28 108.824 47.6 108.504 47.92C108.184 48.2667 107.971 48.4933 107.864 48.6C107.757 48.92 107.557 49.08 107.264 49.08H104.184C103.944 49.08 103.731 49 103.544 48.84C103.384 48.68 103.304 48.4667 103.304 48.2C103.331 47.5333 103.651 46.7733 104.264 45.92C104.904 45.0667 105.877 44.3333 107.184 43.72C108.491 43.1067 110.091 42.8 111.984 42.8C115.131 42.8 117.424 43.5067 118.864 44.92C120.304 46.3333 121.024 48.1867 121.024 50.48V63.04C121.024 63.3067 120.931 63.5333 120.744 63.72C120.584 63.9067 120.357 64 120.064 64H116.824C116.557 64 116.331 63.9067 116.144 63.72C115.957 63.5333 115.864 63.3067 115.864 63.04V61.48C115.277 62.3333 114.437 63.04 113.344 63.6C112.277 64.1333 110.944 64.4 109.344 64.4ZM110.704 60.6C112.171 60.6 113.371 60.12 114.304 59.16C115.237 58.2 115.704 56.8 115.704 54.96V54.12L111.704 54.76C110.157 55 108.984 55.3867 108.184 55.92C107.411 56.4533 107.024 57.1067 107.024 57.88C107.024 58.7333 107.384 59.4 108.104 59.88C108.824 60.36 109.691 60.6 110.704 60.6ZM137.676 64.4C134.929 64.4 132.796 63.4533 131.276 61.56V63.04C131.276 63.3067 131.182 63.5333 130.996 63.72C130.836 63.9067 130.609 64 130.316 64H127.156C126.889 64 126.662 63.9067 126.476 63.72C126.289 63.5333 126.196 63.3067 126.196 63.04V36.56C126.196 36.2667 126.289 36.04 126.476 35.88C126.662 35.6933 126.889 35.6 127.156 35.6H130.556C130.849 35.6 131.076 35.6933 131.236 35.88C131.422 36.04 131.516 36.2667 131.516 36.56V45.44C133.036 43.68 135.089 42.8 137.676 42.8C140.369 42.8 142.436 43.68 143.876 45.44C145.316 47.2 146.089 49.48 146.196 52.28C146.222 52.6 146.236 53.0267 146.236 53.56C146.236 54.12 146.222 54.56 146.196 54.88C146.089 57.76 145.316 60.0667 143.876 61.8C142.436 63.5333 140.369 64.4 137.676 64.4ZM136.196 60.12C139.076 60.12 140.609 58.3467 140.796 54.8C140.822 54.5333 140.836 54.1333 140.836 53.6C140.836 53.0667 140.822 52.6667 140.796 52.4C140.609 48.8533 139.076 47.08 136.196 47.08C134.702 47.08 133.556 47.56 132.756 48.52C131.982 49.4533 131.569 50.5867 131.516 51.92L131.476 53.44L131.516 55C131.596 56.44 132.009 57.6533 132.756 58.64C133.502 59.6267 134.649 60.12 136.196 60.12ZM151.487 39.76C151.22 39.76 150.994 39.6667 150.807 39.48C150.62 39.2933 150.527 39.0667 150.527 38.8V35.92C150.527 35.6533 150.62 35.4267 150.807 35.24C150.994 35.0533 151.22 34.96 151.487 34.96H155.127C155.394 34.96 155.62 35.0533 155.807 35.24C156.02 35.4267 156.127 35.6533 156.127 35.92V38.8C156.127 39.0667 156.034 39.2933 155.847 39.48C155.66 39.6667 155.42 39.76 155.127 39.76H151.487ZM151.647 64C151.38 64 151.154 63.9067 150.967 63.72C150.78 63.5333 150.687 63.3067 150.687 63.04V44.16C150.687 43.8933 150.78 43.6667 150.967 43.48C151.154 43.2933 151.38 43.2 151.647 43.2H154.967C155.26 43.2 155.487 43.2933 155.647 43.48C155.834 43.64 155.927 43.8667 155.927 44.16V63.04C155.927 63.3067 155.834 63.5333 155.647 63.72C155.487 63.9067 155.26 64 154.967 64H151.647ZM167.274 64.4C165.914 64.4 164.66 64.1333 163.514 63.6C162.394 63.04 161.5 62.2933 160.834 61.36C160.194 60.4267 159.874 59.4 159.874 58.28C159.874 56.4667 160.607 55 162.074 53.88C163.54 52.76 165.554 52 168.114 51.6L173.594 50.8V49.96C173.594 48.7867 173.3 47.9067 172.714 47.32C172.127 46.7333 171.18 46.44 169.874 46.44C168.994 46.44 168.274 46.6133 167.714 46.96C167.18 47.28 166.754 47.6 166.434 47.92C166.114 48.2667 165.9 48.4933 165.794 48.6C165.687 48.92 165.487 49.08 165.194 49.08H162.114C161.874 49.08 161.66 49 161.474 48.84C161.314 48.68 161.234 48.4667 161.234 48.2C161.26 47.5333 161.58 46.7733 162.194 45.92C162.834 45.0667 163.807 44.3333 165.114 43.72C166.42 43.1067 168.02 42.8 169.914 42.8C173.06 42.8 175.354 43.5067 176.794 44.92C178.234 46.3333 178.954 48.1867 178.954 50.48V63.04C178.954 63.3067 178.86 63.5333 178.674 63.72C178.514 63.9067 178.287 64 177.994 64H174.754C174.487 64 174.26 63.9067 174.074 63.72C173.887 63.5333 173.794 63.3067 173.794 63.04V61.48C173.207 62.3333 172.367 63.04 171.274 63.6C170.207 64.1333 168.874 64.4 167.274 64.4ZM168.634 60.6C170.1 60.6 171.3 60.12 172.234 59.16C173.167 58.2 173.634 56.8 173.634 54.96V54.12L169.634 54.76C168.087 55 166.914 55.3867 166.114 55.92C165.34 56.4533 164.954 57.1067 164.954 57.88C164.954 58.7333 165.314 59.4 166.034 59.88C166.754 60.36 167.62 60.6 168.634 60.6ZM167.794 40.2C167.367 40.2 167.154 39.9867 167.154 39.56C167.154 39.3467 167.22 39.1733 167.354 39.04L170.594 35.08C170.86 34.7867 171.087 34.6 171.274 34.52C171.487 34.4133 171.754 34.36 172.074 34.36H176.074C176.58 34.36 176.834 34.6133 176.834 35.12C176.834 35.3067 176.767 35.4667 176.634 35.6L171.674 39.68C171.434 39.8667 171.207 40 170.994 40.08C170.807 40.16 170.554 40.2 170.234 40.2H167.794Z" fill="#EF4136"/>
</g>
<defs>
<clipPath id="clip0">
<rect x="0.898148" y="-1" width="215" height="82" fill="white"/>
</clipPath>
<clipPath id="clip1">
<rect x="2" y="8" width="68" height="65" fill="white"/>
</clipPath>
</defs>
</svg>
