<svg width="370" height="200" viewBox="0 0 370 200" fill="none" xmlns="http://www.w3.org/2000/svg">
<path d="M167.755 125.473C177.86 125.473 182.748 129.689 182.748 136.688C182.748 140.595 180.133 144.003 176.287 145.364C180.958 146.605 185.021 150.877 185.021 156.207C185.021 163.087 180.07 168.291 168.657 168.291C163.091 168.291 158.615 168.165 153.462 168.109L153.049 167.674V126.091L153.462 125.656C158.476 125.6 163.217 125.473 167.755 125.473ZM160.259 143.26H167.476C173.937 143.26 175.378 139.788 175.378 136.878C175.378 133.841 174.07 130.495 167.608 130.495C165.685 130.495 162.455 130.495 160.252 130.432V143.26H160.259ZM160.259 148.345V163.347C163.147 163.347 166.035 163.284 168.58 163.284C176.007 163.284 177.517 159.005 177.517 155.849C177.517 152.749 175.524 148.352 168.168 148.352H160.259V148.345Z" fill="white"/>
<path d="M212.497 149.46C214.762 150.203 216.413 152.307 217.378 154.727L220.406 161.979C221.091 163.655 221.916 165.325 223.497 166.44C222.538 167.737 220.406 168.488 218.545 168.488C215.797 168.488 214.832 167.12 213.734 164.462L210.294 156.095C209.126 153.247 207.615 151.017 203.35 151.017H197.713V168.06C196.615 168.242 195.238 168.306 194.07 168.306C192.965 168.306 191.524 168.242 190.497 168.06V126.105L190.909 125.67C196.063 125.607 201.014 125.487 205.692 125.487C215.252 125.487 221.301 129.948 221.301 138.189C221.301 143.884 217.517 148.036 212.497 149.46ZM197.713 145.743C200.392 145.68 203.42 145.616 205.343 145.616C212.084 145.616 213.734 141.773 213.734 138.182C213.734 134.402 212.084 130.685 205.343 130.685C203.35 130.685 200.049 130.685 197.713 130.621V145.743Z" fill="white"/>
<path d="M237.86 157.764L234.217 168.116C233.322 168.298 232.154 168.362 231.056 168.362C229.748 168.362 228.441 168.172 227.483 167.927L227.28 167.618L242.818 125.726C243.916 125.544 245.846 125.48 247.014 125.48C248.182 125.48 250.105 125.544 251.14 125.726L266.538 167.618C265.503 168.235 263.853 168.488 262.273 168.488C260.007 168.488 258.832 167.744 257.944 165.016L255.399 157.764C254.231 157.764 251.825 157.827 251.273 157.827H241.853C241.294 157.827 239.028 157.764 237.86 157.764ZM239.713 152.434C240.818 152.434 242.671 152.371 243.217 152.371H250.091C250.573 152.371 252.427 152.434 253.531 152.434L250.371 143.449C249.133 139.851 247.692 135.517 246.727 132.235H246.385C245.699 135.019 244.462 138.925 243.699 141.219L239.713 152.434Z" fill="white"/>
<path d="M273.056 159.125C277.042 161.481 282.133 163.34 286.874 163.34C292.441 163.34 295.608 160.92 295.671 157.512C295.671 154.601 293.406 152.371 289.413 150.821L281.301 147.657C275.524 145.427 271.881 142.201 271.881 136.934C271.881 130.18 278.203 124.912 287.42 124.912C293.126 124.912 298.42 126.525 301.993 128.132C301.923 129.99 300.825 132.038 299.308 133.28C295.734 131.666 291.056 130.362 287.552 130.362C282.462 130.362 279.301 132.901 279.301 136.19C279.301 138.918 281.636 140.468 285.007 141.766L292.986 144.866C298.895 147.096 303.301 150.877 303.301 156.396C303.301 163.522 297.804 168.853 286.455 168.853C280.748 168.853 274.559 167.12 269.951 164.203C270.168 162.288 271.538 160.24 273.056 159.125Z" fill="white"/>
<path d="M311.846 125.726C312.881 125.544 314.392 125.48 315.49 125.48C316.594 125.48 318.035 125.544 319.133 125.726V168.053C318.028 168.235 316.587 168.298 315.49 168.298C314.392 168.298 312.881 168.235 311.846 168.053V125.726Z" fill="white"/>
<path d="M358.196 162.351C358.196 163.031 358.126 164.146 357.993 164.953C357.58 167.057 355.86 168.116 353.245 168.116H335.301C332.825 168.116 331.035 166.692 331.035 164.027V125.852L331.517 125.48H334.266C337.294 125.48 338.392 126.785 338.392 129.696V162.603C340.524 162.421 342.65 162.358 344.51 162.358H358.196V162.351Z" fill="white"/>
<path d="M160.077 111.495H157.21V118.586C156.559 118.712 155.713 118.74 155.126 118.74C154.566 118.74 153.692 118.712 153.042 118.586V97.4119L153.259 97.2226C155.748 97.1594 157.839 97.0963 160.077 97.0963C164.371 97.0963 167.455 99.4389 167.455 104.313C167.455 109.033 164.371 111.495 160.077 111.495ZM157.21 108.311C158.238 108.276 159.357 108.248 159.825 108.248C162.594 108.248 163.154 105.969 163.154 104.313C163.154 102.63 162.594 100.379 159.825 100.379C159.049 100.379 158.147 100.379 157.21 100.344V108.311Z" fill="white"/>
<path d="M172.441 113.747L170.979 118.621C170.448 118.747 169.825 118.775 169.175 118.775C168.524 118.775 167.678 118.684 167.182 118.495L167.028 118.277L173.972 97.2576C174.657 97.1665 175.685 97.1033 176.399 97.1033C177.049 97.1033 178.14 97.1665 178.797 97.2927L185.615 118.312C185.021 118.656 184.028 118.846 183.217 118.846C181.881 118.846 181.224 118.376 180.727 116.594L179.853 113.754C179.385 113.754 178.636 113.789 178.329 113.789H173.972C173.65 113.775 172.937 113.775 172.441 113.747ZM173.469 110.436C173.902 110.436 174.559 110.401 174.867 110.401H177.545C177.825 110.401 178.42 110.436 178.853 110.436L177.916 107.252C177.392 105.471 176.699 103.065 176.238 101.192H176.049C175.734 102.784 175.084 105.036 174.678 106.467L173.469 110.436Z" fill="white"/>
<path d="M189.937 103.037C189.937 102.195 189.965 101.599 189.965 100.722H189.937C189.503 100.722 188.504 100.75 188.07 100.75H184.615C184.49 100.126 184.462 99.502 184.462 99.004C184.462 98.5341 184.497 97.8818 184.615 97.2576H199.497C199.622 97.6925 199.713 98.3518 199.713 98.8848C199.713 100.259 199 100.757 197.476 100.757H196.014C195.58 100.757 194.58 100.729 194.147 100.729H194.119C194.119 101.606 194.147 102.195 194.147 103.044V118.593C193.434 118.719 192.65 118.747 192.028 118.747C191.434 118.747 190.657 118.719 189.944 118.593V103.037H189.937Z" fill="white"/>
<path d="M213.133 109.405C214.252 109.812 215 110.871 215.441 112.155L216.594 115.311C216.902 116.187 217.371 117.029 218.056 117.59C217.524 118.341 216.378 118.838 215.287 118.838C213.762 118.838 213.231 117.997 212.636 116.37L211.329 112.652C210.86 111.404 210.238 110.408 208.434 110.408H206.538V118.593C205.853 118.719 205.042 118.747 204.448 118.747C203.923 118.747 203.049 118.719 202.392 118.593V97.4189L202.608 97.2296C205.098 97.1665 207.469 97.1033 209.706 97.1033C214.035 97.1033 217.021 99.2565 217.021 103.689C217.021 106.656 215.154 108.69 213.133 109.405ZM206.531 107.154C207.622 107.091 208.804 107.063 209.399 107.063C212.105 107.063 212.727 105.407 212.727 103.689C212.727 101.943 212.105 100.316 209.399 100.316C208.65 100.316 207.497 100.316 206.531 100.28V107.154Z" fill="white"/>
<path d="M221.413 97.2576C222.035 97.1314 222.937 97.1033 223.497 97.1033C224.091 97.1033 224.895 97.1384 225.58 97.2576V118.586C224.895 118.712 224.084 118.74 223.497 118.74C222.937 118.74 222.035 118.712 221.413 118.586V97.2576Z" fill="white"/>
<path d="M234.119 113.747L232.657 118.621C232.126 118.747 231.504 118.775 230.853 118.775C230.203 118.775 229.357 118.684 228.86 118.495L228.706 118.277L235.65 97.2576C236.336 97.1665 237.364 97.1033 238.077 97.1033C238.727 97.1033 239.818 97.1665 240.476 97.2927L247.294 118.312C246.699 118.656 245.706 118.846 244.895 118.846C243.559 118.846 242.902 118.376 242.406 116.594L241.531 113.754C241.063 113.754 240.315 113.789 240.007 113.789H235.65C235.329 113.775 234.615 113.775 234.119 113.747ZM235.147 110.436C235.58 110.436 236.238 110.401 236.545 110.401H239.224C239.503 110.401 240.098 110.436 240.531 110.436L239.594 107.252C239.07 105.471 238.378 103.065 237.916 101.192H237.727C237.413 102.784 236.762 105.036 236.357 106.467L235.147 110.436Z" fill="white"/>
<path d="M260.427 113.747L258.965 118.621C258.434 118.747 257.811 118.775 257.161 118.775C256.51 118.775 255.664 118.684 255.168 118.495L255.014 118.277L261.958 97.2576C262.643 97.1665 263.671 97.1033 264.385 97.1033C265.035 97.1033 266.126 97.1665 266.783 97.2927L273.601 118.312C273.007 118.656 272.014 118.846 271.203 118.846C269.867 118.846 269.21 118.376 268.713 116.594L267.839 113.754C267.371 113.754 266.622 113.789 266.315 113.789H261.958C261.643 113.775 260.923 113.775 260.427 113.747ZM261.455 110.436C261.888 110.436 262.545 110.401 262.853 110.401H265.531C265.811 110.401 266.406 110.436 266.839 110.436L265.902 107.252C265.378 105.471 264.685 103.065 264.224 101.192H264.035C263.72 102.784 263.07 105.036 262.664 106.467L261.455 110.436Z" fill="white"/>
<path d="M277.678 97.2857C278.58 97.1314 279.769 97.0683 280.483 97.0683C281.231 97.0683 282.259 97.1314 283.133 97.2857L285.531 105.941C285.748 106.817 286.525 110.029 286.713 111.278H286.93C287.119 110.029 287.895 106.81 288.112 105.941L290.476 97.2857C291.413 97.1314 292.406 97.0683 293.119 97.0683C293.867 97.0683 295.021 97.1314 295.951 97.2857L297.601 118.523C297.007 118.677 296.168 118.74 295.483 118.74C294.825 118.74 294.238 118.712 293.643 118.614L293.049 108.592C292.923 106.656 292.804 103.78 292.804 101.817H292.587L288.944 115.402C288.322 115.493 287.385 115.556 286.797 115.556C286.238 115.556 285.301 115.493 284.678 115.402L281.035 101.817H280.818C280.783 103.78 280.692 106.656 280.566 108.592L279.972 118.614C279.378 118.705 278.762 118.74 278.105 118.74C277.455 118.74 276.608 118.677 276.021 118.523L277.678 97.2857Z" fill="white"/>
<path d="M305.448 113.747L303.986 118.621C303.455 118.747 302.832 118.775 302.182 118.775C301.532 118.775 300.685 118.684 300.189 118.495L300.035 118.277L306.979 97.2576C307.664 97.1665 308.692 97.1033 309.406 97.1033C310.056 97.1033 311.147 97.1665 311.804 97.2927L318.622 118.312C318.028 118.656 317.035 118.846 316.224 118.846C314.888 118.846 314.231 118.376 313.734 116.594L312.86 113.754C312.392 113.754 311.643 113.789 311.336 113.789H306.979C306.664 113.775 305.951 113.775 305.448 113.747ZM306.483 110.436C306.916 110.436 307.573 110.401 307.881 110.401H310.56C310.839 110.401 311.434 110.436 311.867 110.436L310.93 107.252C310.406 105.471 309.713 103.065 309.252 101.192H309.063C308.748 102.784 308.098 105.036 307.692 106.467L306.483 110.436Z" fill="white"/>
<path d="M334.783 117.183C333.413 118.305 330.888 118.747 329.21 118.747C326.594 118.747 324.573 118.684 321.86 118.621L321.643 118.432V97.4119L321.86 97.2226C324.539 97.1314 326.594 97.0963 329.21 97.0963C330.888 97.0963 333.413 97.5312 334.783 98.6603C337.65 100.975 338.175 104.285 338.175 107.904C338.175 111.558 337.678 114.869 334.783 117.183ZM329.21 100.414C328.028 100.414 327.063 100.414 325.818 100.379V115.465C327.063 115.437 328.028 115.437 329.21 115.437C333.287 115.437 333.881 111.341 333.881 107.911C333.874 104.468 333.287 100.414 329.21 100.414Z" fill="white"/>
<path d="M345.021 113.747L343.559 118.621C343.028 118.747 342.406 118.775 341.755 118.775C341.105 118.775 340.259 118.684 339.762 118.495L339.608 118.277L346.552 97.2576C347.238 97.1665 348.266 97.1033 348.979 97.1033C349.629 97.1033 350.72 97.1665 351.378 97.2927L358.196 118.312C357.601 118.656 356.608 118.846 355.797 118.846C354.462 118.846 353.804 118.376 353.308 116.594L352.434 113.754C351.965 113.754 351.217 113.789 350.909 113.789H346.552C346.238 113.775 345.524 113.775 345.021 113.747ZM346.049 110.436C346.483 110.436 347.14 110.401 347.448 110.401H350.126C350.406 110.401 351 110.436 351.434 110.436L350.497 107.252C349.972 105.471 349.28 103.065 348.818 101.192H348.629C348.315 102.784 347.664 105.036 347.259 106.467L346.049 110.436Z" fill="white"/>
<path d="M180.091 89.9565C180.706 90.2791 181.545 91.261 181.762 92.1868L176.608 95.2588C176.091 95.0694 175.615 94.3751 175.455 93.8561L180.091 89.9565Z" fill="white"/>
<path d="M158.182 181.035L160.559 181.021C161.629 181.021 162.161 181.526 162.161 182.536V186.527C160.86 186.941 159.49 187.151 158.063 187.151C157.336 187.151 156.692 187.032 156.133 186.786C155.573 186.541 155.105 186.197 154.727 185.741C154.35 185.285 154.063 184.724 153.874 184.065C153.685 183.406 153.587 182.648 153.587 181.814C153.587 180.895 153.72 180.088 153.986 179.408C154.252 178.728 154.608 178.153 155.063 177.697C155.511 177.241 156.028 176.897 156.615 176.673C157.203 176.448 157.811 176.329 158.448 176.329C159.762 176.329 160.993 176.694 162.14 177.423C162.133 177.584 162.091 177.753 162.028 177.914C161.965 178.082 161.881 178.244 161.783 178.398C161.685 178.552 161.573 178.7 161.448 178.826C161.322 178.952 161.196 179.064 161.063 179.156C160.224 178.608 159.378 178.335 158.517 178.335C156.874 178.335 156.049 179.492 156.049 181.8C156.049 184.1 156.888 185.243 158.573 185.243C158.804 185.243 159.028 185.236 159.245 185.215C159.462 185.194 159.678 185.166 159.888 185.124V184.107C159.888 183.876 159.888 183.672 159.895 183.497C159.902 183.329 159.909 183.181 159.916 183.055H159.161C158.727 183.055 158.427 182.971 158.259 182.803C158.091 182.634 158.007 182.375 158.007 182.017C158.021 181.715 158.077 181.386 158.182 181.035Z" fill="white"/>
<path d="M170.294 186.19C169.217 185.292 168.671 183.806 168.671 181.744C168.671 180.853 168.776 180.074 168.979 179.401C169.189 178.728 169.483 178.167 169.874 177.711C170.266 177.255 170.734 176.911 171.287 176.68C171.839 176.448 172.469 176.329 173.161 176.329C173.86 176.329 174.483 176.448 175.042 176.68C175.601 176.911 176.077 177.262 176.462 177.718C176.846 178.181 177.147 178.749 177.357 179.415C177.566 180.088 177.664 180.867 177.664 181.744C177.664 182.627 177.559 183.399 177.357 184.072C177.147 184.745 176.853 185.306 176.462 185.762C176.07 186.218 175.601 186.562 175.042 186.793C174.483 187.025 173.853 187.144 173.161 187.144C172.021 187.151 171.063 186.828 170.294 186.19ZM171.517 184.1C171.79 184.893 172.343 185.285 173.168 185.285C173.58 185.285 173.916 185.18 174.175 184.977C174.434 184.766 174.636 184.507 174.783 184.184C174.93 183.869 175.028 183.511 175.077 183.111C175.126 182.718 175.154 182.326 175.154 181.94C175.154 181.582 175.14 181.189 175.119 180.755C175.091 180.32 175.021 179.913 174.902 179.534C174.783 179.156 174.587 178.833 174.329 178.58C174.07 178.328 173.685 178.195 173.175 178.195C172.692 178.195 172.322 178.321 172.063 178.566C171.804 178.812 171.615 179.12 171.49 179.485C171.364 179.85 171.287 180.236 171.252 180.649C171.224 181.056 171.21 181.421 171.21 181.737C171.21 182.199 171.231 182.613 171.28 182.978C171.315 183.343 171.399 183.714 171.517 184.1Z" fill="white"/>
<path d="M188.063 184.886L190.042 176.553C190.287 176.49 190.594 176.462 190.979 176.462C191.504 176.462 191.916 176.518 192.217 176.631L192.308 176.75L189.476 186.92C188.902 186.983 188.322 187.011 187.741 187.011C187.161 187.011 186.741 186.941 186.483 186.793C186.224 186.646 186.028 186.358 185.902 185.924L183.392 176.771C183.937 176.539 184.385 176.42 184.741 176.42C185.168 176.42 185.476 176.518 185.678 176.708C185.881 176.897 186.035 177.206 186.147 177.619L187.315 181.947C187.497 182.627 187.685 183.546 187.888 184.71C187.916 184.829 187.972 184.886 188.063 184.886Z" fill="white"/>
<path d="M201.168 183.855L201.154 184.949V184.963C201.615 184.942 201.986 184.935 202.273 184.935H205.769C205.769 185.313 205.755 185.601 205.72 185.797C205.601 186.576 205.084 186.969 204.175 186.969H200.147C199.713 186.969 199.371 186.842 199.126 186.59C198.881 186.337 198.755 185.994 198.755 185.559V176.666L198.86 176.56H205.385C205.448 176.855 205.476 177.171 205.476 177.514C205.476 177.858 205.406 178.216 205.266 178.594H201.147L201.161 179.689V180.748C201.42 180.741 201.762 180.734 202.189 180.734H204.497C204.587 181.014 204.629 181.337 204.629 181.701C204.629 182.066 204.58 182.403 204.497 182.704H201.168V183.855Z" fill="white"/>
<path d="M220.056 179.759C220.056 180.095 220.007 180.411 219.902 180.706C219.804 181.007 219.671 181.274 219.504 181.512C219.336 181.751 219.14 181.961 218.916 182.136C218.692 182.312 218.455 182.445 218.21 182.536C218.734 182.725 219.126 183.195 219.378 183.932L219.832 185.222C220 185.727 220.259 186.099 220.587 186.344C220.434 186.548 220.21 186.716 219.909 186.849C219.608 186.99 219.273 187.053 218.909 187.053C218.545 187.053 218.266 186.948 218.063 186.744C217.86 186.534 217.671 186.176 217.504 185.657L216.958 184.065C216.846 183.763 216.699 183.532 216.511 183.364C216.322 183.202 216.042 183.118 215.671 183.118H215.049V186.913C214.727 186.976 214.322 187.004 213.839 187.004C213.357 187.004 212.958 186.976 212.643 186.913V176.624L212.748 176.518C213.629 176.497 214.364 176.483 214.965 176.469C215.566 176.462 216.035 176.455 216.378 176.455C216.93 176.455 217.434 176.525 217.888 176.659C218.343 176.799 218.727 177.002 219.049 177.276C219.364 177.549 219.615 177.893 219.79 178.307C219.965 178.728 220.056 179.212 220.056 179.759ZM215.049 178.272V181.26C215.504 181.26 215.888 181.253 216.217 181.239C216.538 181.225 216.797 181.161 216.993 181.056C217.189 180.951 217.336 180.797 217.441 180.607C217.538 180.418 217.594 180.137 217.594 179.766C217.594 178.777 217.119 178.286 216.175 178.286C215.944 178.286 215.734 178.286 215.545 178.286C215.35 178.286 215.189 178.279 215.049 178.272Z" fill="white"/>
<path d="M235.28 176.448L235.385 176.553V186.877C234.979 186.969 234.503 187.018 233.951 187.018C233.399 187.018 232.916 186.99 232.49 186.927L230.112 181.491C229.832 180.874 229.538 180.158 229.252 179.352L229.203 179.366C229.322 180.846 229.385 182.354 229.385 183.904V186.927C229.07 186.99 228.692 187.018 228.252 187.018C227.811 187.018 227.434 186.99 227.133 186.927V176.603C227.517 176.511 227.979 176.462 228.517 176.462C229.056 176.462 229.538 176.49 229.965 176.553L232.308 181.975C232.734 182.978 233.042 183.749 233.245 184.282L233.308 184.254C233.189 182.852 233.126 181.358 233.126 179.78V177.928C233.126 177.402 233.231 177.023 233.441 176.799C233.65 176.567 233.993 176.455 234.469 176.455H235.28V176.448Z" fill="white"/>
<path d="M243.874 186.19C242.797 185.292 242.252 183.806 242.252 181.744C242.252 180.853 242.357 180.074 242.559 179.401C242.769 178.728 243.063 178.167 243.455 177.711C243.846 177.255 244.315 176.911 244.867 176.68C245.42 176.448 246.049 176.329 246.741 176.329C247.441 176.329 248.063 176.448 248.622 176.68C249.182 176.911 249.657 177.262 250.042 177.718C250.427 178.181 250.727 178.749 250.937 179.415C251.147 180.088 251.245 180.867 251.245 181.744C251.245 182.627 251.14 183.399 250.937 184.072C250.727 184.745 250.434 185.306 250.042 185.762C249.65 186.218 249.182 186.562 248.622 186.793C248.063 187.025 247.434 187.144 246.741 187.144C245.601 187.151 244.643 186.828 243.874 186.19ZM245.105 184.1C245.378 184.893 245.93 185.285 246.755 185.285C247.168 185.285 247.503 185.18 247.762 184.977C248.021 184.766 248.224 184.507 248.371 184.184C248.517 183.869 248.615 183.511 248.664 183.111C248.713 182.718 248.741 182.326 248.741 181.94C248.741 181.582 248.727 181.189 248.706 180.755C248.678 180.32 248.608 179.913 248.49 179.534C248.371 179.156 248.175 178.833 247.916 178.58C247.65 178.321 247.273 178.195 246.762 178.195C246.28 178.195 245.909 178.321 245.65 178.566C245.392 178.812 245.203 179.12 245.077 179.485C244.951 179.85 244.874 180.236 244.839 180.649C244.811 181.056 244.797 181.421 244.797 181.737C244.797 182.199 244.818 182.613 244.867 182.978C244.902 183.343 244.979 183.714 245.105 184.1Z" fill="white"/>
<path d="M269.063 178.615L269.077 179.801V180.755H272.329C272.406 181.056 272.448 181.393 272.448 181.751C272.448 182.108 272.406 182.438 272.329 182.746H269.077V186.92C268.755 186.983 268.357 187.011 267.874 187.011C267.392 187.011 266.993 186.983 266.671 186.92V176.645L266.776 176.553H273.252C273.315 176.806 273.343 177.122 273.343 177.5C273.343 177.879 273.238 178.16 273.028 178.342C272.818 178.524 272.497 178.615 272.049 178.615H269.063Z" fill="white"/>
<path d="M282.35 183.855L282.336 184.949V184.963C282.797 184.942 283.168 184.935 283.455 184.935H286.951C286.951 185.313 286.937 185.601 286.902 185.797C286.783 186.576 286.266 186.969 285.357 186.969H281.329C280.895 186.969 280.552 186.842 280.308 186.59C280.063 186.337 279.937 185.994 279.937 185.559V176.666L280.042 176.56H286.566C286.629 176.855 286.657 177.171 286.657 177.514C286.657 177.858 286.587 178.216 286.448 178.594H282.329L282.343 179.689V180.748C282.601 180.741 282.944 180.734 283.371 180.734H285.678C285.769 181.014 285.811 181.337 285.811 181.701C285.811 182.066 285.762 182.403 285.678 182.704H282.35V183.855Z" fill="white"/>
<path d="M300.511 186.253C300.189 186.52 299.762 186.709 299.238 186.828C298.713 186.948 298.133 187.011 297.497 187.011C297.182 187.011 296.734 187.004 296.14 186.997C295.552 186.99 294.811 186.969 293.923 186.955L293.818 186.849V176.631L293.923 176.525C294.51 176.504 295.119 176.49 295.748 176.476C296.378 176.469 297.042 176.462 297.741 176.462C298.601 176.462 299.315 176.603 299.888 176.869C300.462 177.136 300.923 177.514 301.266 177.991C301.608 178.468 301.853 179.029 301.993 179.668C302.133 180.313 302.203 181 302.203 181.737C302.203 182.746 302.084 183.623 301.853 184.36C301.622 185.11 301.175 185.741 300.511 186.253ZM297.727 185.117C299.056 185.117 299.727 183.995 299.727 181.751C299.727 179.492 299.063 178.363 297.727 178.363C297.406 178.363 297.119 178.363 296.874 178.363C296.629 178.363 296.413 178.356 296.231 178.349V185.131C296.413 185.124 296.629 185.117 296.874 185.117C297.119 185.117 297.406 185.117 297.727 185.117Z" fill="white"/>
<path d="M311.497 183.855L311.483 184.949V184.963C311.944 184.942 312.315 184.935 312.601 184.935H316.098C316.098 185.313 316.084 185.601 316.049 185.797C315.93 186.576 315.413 186.969 314.503 186.969H310.476C310.042 186.969 309.699 186.842 309.455 186.59C309.21 186.337 309.084 185.994 309.084 185.559V176.666L309.189 176.56H315.713C315.776 176.855 315.804 177.171 315.804 177.514C315.804 177.858 315.734 178.216 315.594 178.594H311.476L311.49 179.689V180.748C311.748 180.741 312.091 180.734 312.517 180.734H314.825C314.916 181.014 314.958 181.337 314.958 181.701C314.958 182.066 314.909 182.403 314.825 182.704H311.497V183.855Z" fill="white"/>
<path d="M330.385 179.759C330.385 180.095 330.336 180.411 330.231 180.706C330.133 181.007 330 181.274 329.832 181.512C329.664 181.751 329.469 181.961 329.245 182.136C329.021 182.312 328.783 182.445 328.538 182.536C329.063 182.725 329.455 183.195 329.706 183.932L330.161 185.222C330.329 185.727 330.587 186.099 330.916 186.344C330.762 186.548 330.538 186.716 330.238 186.849C329.937 186.99 329.601 187.053 329.238 187.053C328.874 187.053 328.594 186.948 328.392 186.744C328.189 186.534 328 186.176 327.832 185.657L327.287 184.065C327.175 183.763 327.028 183.532 326.839 183.364C326.65 183.202 326.371 183.118 326 183.118H325.378V186.913C325.056 186.976 324.65 187.004 324.168 187.004C323.685 187.004 323.287 186.976 322.972 186.913V176.624L323.077 176.518C323.958 176.497 324.692 176.483 325.294 176.469C325.895 176.462 326.364 176.455 326.706 176.455C327.259 176.455 327.762 176.525 328.217 176.659C328.671 176.799 329.056 177.002 329.378 177.276C329.692 177.549 329.944 177.893 330.119 178.307C330.294 178.728 330.385 179.212 330.385 179.759ZM325.378 178.272V181.26C325.832 181.26 326.217 181.253 326.545 181.239C326.867 181.225 327.126 181.161 327.322 181.056C327.517 180.951 327.664 180.797 327.769 180.607C327.867 180.418 327.923 180.137 327.923 179.766C327.923 178.777 327.448 178.286 326.503 178.286C326.273 178.286 326.063 178.286 325.874 178.286C325.678 178.286 325.517 178.279 325.378 178.272Z" fill="white"/>
<path d="M339.979 184.752C339.706 184.752 339.503 184.745 339.371 184.738L338.72 186.941C338.476 187.004 338.14 187.032 337.706 187.032C337.224 187.032 336.825 186.976 336.525 186.863L336.448 186.744L339.776 176.56C340.168 176.497 340.629 176.469 341.154 176.469C341.748 176.469 342.224 176.504 342.573 176.574L345.839 186.772C345.483 186.962 345.084 187.06 344.643 187.06C344.119 187.06 343.748 186.969 343.538 186.786C343.329 186.604 343.147 186.253 342.993 185.741L342.706 184.738C342.573 184.745 342.378 184.752 342.119 184.752H339.979ZM339.937 182.838L340.545 182.824H341.65C341.699 182.824 341.79 182.824 341.916 182.831C342.042 182.838 342.133 182.838 342.196 182.838L341.937 181.898C341.692 181.049 341.42 180.004 341.105 178.77H341.014C340.93 179.205 340.692 180.172 340.287 181.666L339.937 182.838Z" fill="white"/>
<path d="M356.133 184.872H358.762C358.762 185.278 358.734 185.622 358.685 185.91C358.636 186.197 358.476 186.45 358.203 186.653C357.93 186.863 357.573 186.962 357.126 186.962H353.706C353.273 186.962 352.93 186.835 352.678 186.583C352.427 186.33 352.301 185.987 352.301 185.552V176.553L352.406 176.448H353.294C354.238 176.448 354.706 176.967 354.706 177.998V184.935C355.154 184.893 355.629 184.872 356.133 184.872Z" fill="white"/>
<path d="M143.671 94.6416H11.8462V189.914H143.671V94.6416Z" fill="#00A688"/>
<path d="M140.72 97.1174H14.056V187.032H140.72V97.1174Z" fill="white"/>
<path d="M14.056 97.1034V145.995L64.4616 105.204L140.72 138.94V97.1034H14.056Z" fill="white"/>
<path d="M14.0559 181.652C13.9161 181.652 13.7762 181.624 13.6434 181.561C13.2867 181.4 13.0629 181.049 13.0629 180.656V145.995C13.0629 145.694 13.1958 145.413 13.4336 145.224L63.8392 104.433C64.021 104.285 64.2378 104.215 64.4616 104.215C64.5944 104.215 64.7343 104.243 64.8602 104.299L141.119 138.035C141.552 138.224 141.79 138.701 141.685 139.164C141.58 139.62 141.182 139.942 140.72 139.942C140.713 139.942 140.699 139.942 140.692 139.942C138.881 139.893 137.042 139.865 135.231 139.865C123.518 139.865 111.706 140.952 100.119 143.092C100.063 143.106 100 143.106 99.9371 143.106C99.7203 143.106 99.5175 143.035 99.3427 142.902C91.3567 136.871 81.8392 133.686 71.8182 133.686C60.8671 133.686 50.2657 137.628 41.972 144.775C33.7692 151.852 28.3077 161.615 26.5944 172.275C26.5525 172.549 26.3916 172.794 26.1608 172.949C18.7902 177.858 14.7483 181.379 14.7133 181.414C14.5245 181.568 14.2937 181.652 14.0559 181.652Z" fill="white"/>
<path d="M64.4616 105.204L140.72 138.94C138.874 138.89 137.042 138.862 135.224 138.862C122.671 138.862 110.874 140.083 99.9371 142.11C92.1049 136.197 82.3706 132.69 71.8182 132.69C48.5175 132.69 29.2028 149.762 25.6154 172.114C18.0979 177.122 14.0629 180.656 14.0629 180.656V145.995L64.4616 105.204ZM64.4616 103.219C64.014 103.219 63.5734 103.367 63.2168 103.661L12.8112 144.452C12.3427 144.831 12.0769 145.399 12.0769 146.002V180.663C12.0769 181.442 12.5315 182.15 13.2378 182.473C13.5035 182.592 13.7762 182.648 14.056 182.648C14.5245 182.648 14.993 182.48 15.3636 182.157C15.4056 182.122 19.4056 178.637 26.7063 173.769C27.1678 173.46 27.4755 172.977 27.5664 172.429C29.2378 162.007 34.5804 152.448 42.6084 145.525C50.7203 138.526 61.0909 134.675 71.8112 134.675C81.6154 134.675 90.9301 137.796 98.7413 143.695C99.0839 143.954 99.5035 144.095 99.9301 144.095C100.049 144.095 100.168 144.08 100.287 144.059C111.811 141.927 123.566 140.847 135.217 140.847C137.021 140.847 138.853 140.875 140.657 140.924C140.678 140.924 140.692 140.924 140.713 140.924C141.636 140.924 142.441 140.279 142.643 139.374C142.853 138.449 142.378 137.502 141.51 137.116L65.2518 103.381C65.007 103.268 64.7343 103.219 64.4616 103.219Z" fill="#00A688"/>
<path d="M99.951 142.103C65.4126 148.478 39.4616 162.828 25.5035 172.114C17.972 177.122 13.9301 180.656 13.9301 180.656V187.046C13.9301 187.046 17.6434 183.946 24.9021 179.661C39.6224 170.971 68.9511 157.406 111.643 154.924C120.755 154.391 130.483 154.369 140.797 155.008V138.947C126.161 138.526 112.497 139.788 99.951 142.103Z" fill="#00A688"/>
<path d="M25.3636 45.2518C25.3636 46.1004 25.3077 46.914 25.1888 47.6995C25.0699 48.4781 24.8462 49.2075 24.5175 49.8808C24.1818 50.5541 23.6853 51.1643 23.021 51.6973C22.6993 51.9568 22.3217 52.1742 21.8671 52.3355C21.4196 52.4969 20.958 52.6161 20.4825 52.6862C20.007 52.7564 19.5734 52.7984 19.1818 52.7984C18.5874 52.7984 18.035 52.7914 17.5175 52.7844C17 52.7774 16.4825 52.7634 15.958 52.7493C15.4336 52.7353 14.8601 52.7213 14.2308 52.7073L14.0769 52.567V37.9366L14.2308 37.7963C14.8531 37.7753 15.4266 37.7613 15.951 37.7472C16.4755 37.7332 17 37.7262 17.5175 37.7262C18.035 37.7262 18.5874 37.7192 19.1818 37.7192C19.5734 37.7192 20.007 37.7542 20.4825 37.8314C20.958 37.9085 21.4196 38.0278 21.8741 38.1821C22.3287 38.3434 22.7063 38.5538 23.021 38.8133C23.6783 39.3533 24.1748 39.9565 24.5105 40.6298C24.8462 41.3031 25.0699 42.0325 25.1888 42.8111C25.3077 43.5966 25.3636 44.4102 25.3636 45.2518ZM22.6643 45.2518C22.6643 44.6276 22.6224 43.9964 22.5385 43.3511C22.4545 42.7059 22.2937 42.1237 22.0629 41.5837C21.8252 41.0506 21.4755 40.6228 21.014 40.2932C20.5524 39.9635 19.9371 39.8022 19.1818 39.8022C18.7552 39.8022 18.3496 39.8022 17.972 39.7952C17.5944 39.7882 17.1678 39.7882 16.7063 39.7812V50.7084C17.1678 50.7014 17.5944 50.7014 17.972 50.7014C18.3496 50.7084 18.7552 50.7084 19.1818 50.7084C19.9441 50.7084 20.5524 50.5471 21.014 50.2174C21.4755 49.8878 21.8252 49.46 22.0629 48.9129C22.3007 48.3728 22.4545 47.7767 22.5385 47.1385C22.6224 46.5002 22.6643 45.869 22.6643 45.2518Z" fill="white" stroke="white" stroke-miterlimit="10"/>
<path d="M28.2517 37.9576L28.3916 37.8174H30.8112V39.9776C30.8112 40.2791 30.8112 40.5387 30.8182 40.742C30.8252 40.9454 30.8322 41.1979 30.8322 41.4925V49.3337C30.8322 49.5511 30.8322 49.7545 30.8182 49.9369C30.8112 50.1192 30.8112 50.3296 30.8112 50.5541V52.7353H29.7552C29.2937 52.7353 28.9231 52.595 28.6503 52.3145C28.3776 52.0339 28.2448 51.6412 28.2448 51.1432V37.9576H28.2517ZM37.3007 37.8104C37.3427 38.0067 37.3706 38.1891 37.3776 38.3644C37.3846 38.5398 37.3916 38.7011 37.3916 38.8414C37.3916 38.9957 37.3776 39.178 37.3427 39.3954C37.3077 39.6129 37.2587 39.8233 37.1888 40.0196H32.2238C32.0559 40.0196 31.8392 40.0196 31.5594 40.0126C31.2867 40.0126 31 40.0056 30.7063 39.9986C30.4126 39.9986 30.1538 39.9916 29.9301 39.9846V37.8033H37.3007V37.8104ZM36.0979 44.1086C36.1468 44.2769 36.1818 44.4593 36.2098 44.6697C36.2308 44.8801 36.2448 45.0484 36.2448 45.1887C36.2448 45.336 36.2308 45.5043 36.2098 45.7077C36.1888 45.9111 36.1538 46.1004 36.0979 46.2828H32.2238C32.0559 46.2828 31.8392 46.2758 31.5594 46.2688C31.2797 46.2618 31 46.2547 30.7063 46.2547C30.4126 46.2547 30.1538 46.2477 29.9301 46.2477V44.1436C30.1538 44.1366 30.4126 44.1296 30.7063 44.1296C31 44.1296 31.2867 44.1226 31.5594 44.1156C31.8322 44.1156 32.0559 44.1086 32.2238 44.1086H36.0979ZM37.7552 50.512C37.7552 51.2835 37.6364 51.8446 37.3986 52.1953C37.1608 52.5459 36.7063 52.7213 36.028 52.7213H29.9301V50.6102C30.3147 50.5892 30.6853 50.5681 31.0489 50.5471C31.4126 50.526 31.8252 50.512 32.3007 50.512H37.7552Z" fill="white" stroke="white" stroke-miterlimit="10"/>
<path d="M39.2867 51.3607C39.3217 50.9819 39.4476 50.6102 39.6573 50.2385C39.8671 49.8668 40.1049 49.5722 40.3636 49.3548C40.993 49.7616 41.6923 50.1052 42.4615 50.3928C43.2308 50.6733 43.986 50.8206 44.7413 50.8206C45.5524 50.8206 46.1748 50.6383 46.6014 50.2806C47.035 49.9229 47.2448 49.474 47.2448 48.934C47.2448 48.4921 47.0979 48.0853 46.8042 47.7206C46.5105 47.3559 46.0489 47.0333 45.4196 46.7668L42.8042 45.6656C41.9021 45.2799 41.1678 44.7819 40.6154 44.1717C40.0629 43.5615 39.7902 42.783 39.7902 41.8222C39.7902 41.0016 40.007 40.2651 40.4336 39.6129C40.8671 38.9606 41.4545 38.4486 42.2098 38.0769C42.965 37.7052 43.8252 37.5158 44.8042 37.5158C45.7343 37.5158 46.6084 37.635 47.4406 37.8805C48.2727 38.126 48.965 38.3855 49.5315 38.6731C49.5105 39.0518 49.4196 39.4235 49.2517 39.7812C49.0909 40.1459 48.8671 40.4475 48.5944 40.686C48.035 40.4124 47.4126 40.174 46.7203 39.9706C46.028 39.7672 45.3986 39.662 44.8252 39.662C44.0699 39.662 43.4895 39.8443 43.0769 40.209C42.6643 40.5737 42.4615 41.0086 42.4615 41.4995C42.4615 41.9274 42.6084 42.2851 42.9091 42.5586C43.2028 42.8391 43.6154 43.0916 44.1329 43.3161L46.7482 44.3962C47.3846 44.6627 47.951 44.9993 48.4406 45.3991C48.9301 45.7989 49.3147 46.2618 49.5944 46.7808C49.8741 47.2998 50.014 47.8889 50.014 48.5342C50.014 49.3758 49.8112 50.1333 49.4126 50.8066C49.007 51.4799 48.4126 52.0059 47.6084 52.3987C46.8112 52.7844 45.7972 52.9808 44.5804 52.9808C43.6853 52.9808 42.7622 52.8405 41.8182 52.553C40.8811 52.2724 40.035 51.8727 39.2867 51.3607Z" fill="white" stroke="white" stroke-miterlimit="10"/>
<path d="M52.6713 37.9576L52.8112 37.8174H55.2308V39.9776C55.2308 40.2791 55.2308 40.5387 55.2378 40.742C55.2448 40.9454 55.2518 41.1979 55.2518 41.4925V49.3337C55.2518 49.5511 55.2517 49.7545 55.2378 49.9369C55.2308 50.1192 55.2308 50.3296 55.2308 50.5541V52.7353H54.1748C53.7133 52.7353 53.3427 52.595 53.0699 52.3145C52.7972 52.0339 52.6643 51.6412 52.6643 51.1432V37.9576H52.6713ZM61.7133 37.8104C61.7552 38.0067 61.7832 38.1891 61.7902 38.3644C61.7972 38.5398 61.8042 38.7011 61.8042 38.8414C61.8042 38.9957 61.7902 39.178 61.7552 39.3954C61.7203 39.6129 61.6713 39.8233 61.6014 40.0196H56.6364C56.4685 40.0196 56.2518 40.0196 55.972 40.0126C55.6993 40.0126 55.4126 40.0056 55.1189 39.9986C54.8252 39.9986 54.5664 39.9916 54.3427 39.9846V37.8033H61.7133V37.8104ZM60.5105 44.1086C60.5594 44.2769 60.5944 44.4593 60.6224 44.6697C60.6434 44.8801 60.6573 45.0484 60.6573 45.1887C60.6573 45.336 60.6434 45.5043 60.6224 45.7077C60.6014 45.9111 60.5664 46.1004 60.5105 46.2828H56.6364C56.4685 46.2828 56.2518 46.2758 55.972 46.2688C55.6923 46.2618 55.4126 46.2547 55.1189 46.2547C54.8252 46.2547 54.5664 46.2477 54.3427 46.2477V44.1436C54.5664 44.1366 54.8252 44.1296 55.1189 44.1296C55.4126 44.1296 55.6993 44.1226 55.972 44.1156C56.2448 44.1156 56.4685 44.1086 56.6364 44.1086H60.5105ZM62.1748 50.512C62.1748 51.2835 62.0559 51.8446 61.8182 52.1953C61.5804 52.5459 61.1259 52.7213 60.4476 52.7213H54.3427V50.6102C54.7273 50.5892 55.0979 50.5681 55.4615 50.5471C55.8252 50.526 56.2378 50.512 56.7133 50.512H62.1748Z" fill="white" stroke="white" stroke-miterlimit="10"/>
<path d="M65.014 37.8454C65.2238 37.8033 65.4895 37.7683 65.8112 37.7472C66.1329 37.7262 66.3846 37.7122 66.5664 37.7122C66.7622 37.7122 67 37.7192 67.2867 37.7332C67.5734 37.7472 67.8461 37.7753 68.1189 37.8103L67.4336 40.8402L67.2517 40.8823C67.2867 41.4224 67.3217 42.0185 67.3496 42.6778C67.3776 43.3371 67.4056 44.0034 67.4266 44.6767C67.4475 45.35 67.4615 45.9672 67.4615 46.5213V52.6862C67.2447 52.7213 67.035 52.7493 66.8252 52.7634C66.6224 52.7774 66.4266 52.7844 66.2517 52.7844C66.0909 52.7844 65.9021 52.7774 65.6713 52.7634C65.4406 52.7493 65.2238 52.7213 65.014 52.6862V37.8454ZM68.6643 43.9052C68.4126 43.3581 68.1748 42.8321 67.944 42.3131C67.7203 41.8011 67.5105 41.3172 67.3287 40.8613L66.1049 39.4024L68.1259 37.8103L72.3916 46.5914C72.6643 47.1805 72.9231 47.7486 73.1678 48.3027C73.4126 48.8568 73.6224 49.3477 73.8112 49.7826L75.1119 51.1643L72.986 52.6862L68.6643 43.9052ZM76.1049 37.8384V52.6652C75.8951 52.7072 75.6363 52.7423 75.3217 52.7634C75.007 52.7844 74.7482 52.7984 74.5315 52.7984C74.3147 52.7984 74.0699 52.7914 73.7902 52.7774C73.5175 52.7634 73.2447 52.7353 72.986 52.7002L73.6923 49.8106L73.8881 49.7685C73.8531 49.1654 73.8182 48.5131 73.7832 47.8188C73.7482 47.1244 73.7273 46.4441 73.7133 45.7848C73.6993 45.1255 73.6923 44.5434 73.6923 44.0454V39.3393C73.6923 38.7572 73.7972 38.3434 74.014 38.0909C74.2308 37.8384 74.5944 37.7122 75.1189 37.7122H75.979L76.1049 37.8384Z" fill="white" stroke="white" stroke-miterlimit="10"/>
<path d="M87.9091 37.8104C88.0839 37.7683 88.2657 37.7402 88.4615 37.7262C88.6574 37.7122 88.8462 37.7122 89.035 37.7122C89.2168 37.7122 89.4196 37.7262 89.6434 37.7472C89.8671 37.7753 90.0699 37.8174 90.2378 37.8735L90.3357 38.0348L86.0979 52.6932C85.7762 52.7283 85.4476 52.7564 85.0909 52.7704C84.7413 52.7844 84.3916 52.7914 84.0559 52.7914C83.5594 52.7914 83.1678 52.7073 82.8881 52.5319C82.6084 52.3566 82.3986 52.034 82.2657 51.564L78.3776 38.0348C78.6154 37.9226 78.8671 37.8314 79.1399 37.7542C79.4056 37.6771 79.6853 37.642 79.965 37.642C80.3427 37.642 80.6434 37.7402 80.8671 37.9366C81.0909 38.133 81.2657 38.4626 81.3916 38.9255L83.4895 46.3529C83.6014 46.7317 83.7063 47.1385 83.8182 47.5733C83.9301 48.0081 84.035 48.45 84.1329 48.8989C84.2378 49.3477 84.3287 49.7686 84.4126 50.1683C84.4336 50.2595 84.4615 50.3226 84.4895 50.3507C84.5175 50.3787 84.5594 50.3858 84.6084 50.3858L87.9091 37.8104Z" fill="white" stroke="white" stroke-miterlimit="10"/>
<path d="M91.4196 45.2448C91.4196 43.7579 91.6434 42.4324 92.0909 41.2681C92.5385 40.1038 93.2168 39.1921 94.1259 38.5258C95.035 37.8595 96.1958 37.5228 97.5874 37.5228C98.6434 37.5228 99.5594 37.7122 100.336 38.0979C101.112 38.4837 101.748 39.0237 102.259 39.7181C102.762 40.4124 103.147 41.233 103.392 42.1658C103.643 43.1057 103.769 44.1296 103.769 45.2378C103.769 46.7317 103.545 48.0643 103.098 49.2285C102.65 50.3928 101.965 51.3116 101.056 51.9779C100.147 52.6442 98.986 52.9808 97.5944 52.9808C96.5385 52.9808 95.6224 52.7914 94.8462 52.4057C94.0699 52.02 93.4336 51.4799 92.9231 50.7785C92.4126 50.0772 92.042 49.2566 91.7902 48.3168C91.5385 47.3769 91.4196 46.353 91.4196 45.2448ZM94.1539 45.2448C94.1539 45.883 94.1958 46.5353 94.2867 47.2016C94.3706 47.8679 94.5385 48.4781 94.7832 49.0392C95.028 49.6003 95.3706 50.0561 95.8252 50.3998C96.2797 50.7435 96.8671 50.9188 97.5874 50.9188C98.3077 50.9188 98.8951 50.7435 99.3497 50.3998C99.7972 50.0561 100.147 49.6003 100.385 49.0392C100.622 48.4781 100.79 47.8609 100.881 47.2016C100.965 46.5353 101.014 45.883 101.014 45.2448C101.014 44.6066 100.972 43.9543 100.881 43.295C100.797 42.6357 100.629 42.0256 100.385 41.4645C100.14 40.9034 99.7972 40.4545 99.3497 40.1108C98.9021 39.7672 98.3147 39.5918 97.5874 39.5918C96.8601 39.5918 96.2727 39.7672 95.8252 40.1108C95.3706 40.4545 95.028 40.9104 94.7832 41.4645C94.5385 42.0256 94.3776 42.6357 94.2867 43.295C94.1958 43.9543 94.1539 44.6066 94.1539 45.2448Z" fill="white" stroke="white" stroke-miterlimit="10"/>
<path d="M109.252 52.7283H108.154C107.699 52.7283 107.329 52.588 107.049 52.3145C106.769 52.0409 106.622 51.6412 106.622 51.1292V37.8454L106.762 37.7051H107.748C108.273 37.7051 108.65 37.8384 108.888 38.1049C109.126 38.3714 109.245 38.7922 109.245 39.3674V52.7283H109.252ZM115.378 50.4489C115.378 51.3115 115.245 51.9077 114.979 52.2373C114.713 52.567 114.259 52.7283 113.622 52.7283H108.161L106.783 50.8136C107.531 50.6873 108.294 50.5961 109.077 50.54C109.86 50.4839 110.573 50.4559 111.217 50.4559H115.378V50.4489Z" fill="white" stroke="white" stroke-miterlimit="10"/>
<path d="M124.119 37.8104C124.294 37.7683 124.476 37.7402 124.671 37.7262C124.867 37.7122 125.056 37.7122 125.245 37.7122C125.427 37.7122 125.629 37.7262 125.853 37.7472C126.077 37.7753 126.28 37.8174 126.448 37.8735L126.545 38.0348L122.308 52.6932C121.986 52.7283 121.657 52.7564 121.301 52.7704C120.951 52.7844 120.601 52.7914 120.266 52.7914C119.769 52.7914 119.378 52.7073 119.098 52.5319C118.818 52.3566 118.608 52.034 118.476 51.564L114.587 38.0348C114.825 37.9226 115.077 37.8314 115.35 37.7542C115.615 37.6771 115.895 37.642 116.175 37.642C116.552 37.642 116.853 37.7402 117.077 37.9366C117.301 38.133 117.476 38.4626 117.601 38.9255L119.699 46.3529C119.811 46.7317 119.916 47.1385 120.028 47.5733C120.14 48.0081 120.245 48.45 120.343 48.8989C120.448 49.3477 120.538 49.7686 120.622 50.1683C120.643 50.2595 120.671 50.3226 120.699 50.3507C120.727 50.3787 120.769 50.3858 120.818 50.3858L124.119 37.8104Z" fill="white" stroke="white" stroke-miterlimit="10"/>
<path d="M128.825 37.8103C129.028 37.7753 129.252 37.7472 129.497 37.7332C129.741 37.7192 129.951 37.7122 130.133 37.7122C130.336 37.7122 130.552 37.7192 130.79 37.7332C131.028 37.7472 131.252 37.7753 131.462 37.8103V52.6862C131.252 52.7213 131.028 52.7493 130.79 52.7634C130.552 52.7774 130.336 52.7844 130.133 52.7844C129.951 52.7844 129.741 52.7774 129.497 52.7634C129.252 52.7493 129.028 52.7213 128.825 52.6862V37.8103Z" fill="white" stroke="white" stroke-miterlimit="10"/>
<path d="M136.056 37.8244C136.343 37.7753 136.657 37.7402 136.993 37.7262C137.329 37.7122 137.601 37.7051 137.818 37.7051C138.042 37.7051 138.308 37.7122 138.608 37.7262C138.909 37.7402 139.203 37.7753 139.483 37.8244L141.35 44.2629C141.385 44.4172 141.448 44.6486 141.531 44.9712C141.615 45.2939 141.699 45.6375 141.79 46.0093C141.881 46.381 141.965 46.7387 142.035 47.0683C142.105 47.3979 142.161 47.6574 142.189 47.8398H142.322C142.35 47.6574 142.406 47.3979 142.476 47.0683C142.552 46.7317 142.636 46.381 142.72 46.0093C142.804 45.6375 142.895 45.2869 142.979 44.9712C143.063 44.6556 143.126 44.4172 143.168 44.2629L145.035 37.8244C145.329 37.7753 145.622 37.7402 145.916 37.7262C146.203 37.7122 146.462 37.7051 146.685 37.7051C146.902 37.7051 147.175 37.7122 147.51 37.7262C147.846 37.7402 148.161 37.7753 148.455 37.8244L149.608 52.6582C149.42 52.7072 149.203 52.7423 148.965 52.7704C148.72 52.7914 148.49 52.8054 148.273 52.8054C148.07 52.8054 147.874 52.7984 147.692 52.7914C147.51 52.7774 147.315 52.7563 147.119 52.7213L146.65 45.2518C146.629 44.824 146.608 44.34 146.58 43.793C146.552 43.2459 146.531 42.6988 146.517 42.1518C146.497 41.6047 146.49 41.1067 146.483 40.6649H146.35L143.58 50.4489C143.392 50.4839 143.175 50.512 142.916 50.526C142.664 50.54 142.441 50.5471 142.245 50.5471C142.063 50.5471 141.846 50.54 141.594 50.526C141.343 50.512 141.119 50.4839 140.923 50.4489L138.168 40.6649H138.049C138.035 41.1067 138.021 41.6047 138 42.1518C137.979 42.6988 137.965 43.2459 137.944 43.793C137.923 44.34 137.902 44.824 137.881 45.2518L137.406 52.7213C137.217 52.7563 137.028 52.7844 136.832 52.7914C136.636 52.8054 136.441 52.8054 136.238 52.8054C136.028 52.8054 135.804 52.7914 135.566 52.7704C135.329 52.7493 135.119 52.7143 134.937 52.6582L136.056 37.8244Z" fill="white" stroke="white" stroke-miterlimit="10"/>
<path d="M152.965 37.9576L153.105 37.8174H155.524V39.9776C155.524 40.2791 155.525 40.5387 155.531 40.742C155.538 40.9454 155.545 41.1979 155.545 41.4925V49.3337C155.545 49.5511 155.545 49.7545 155.531 49.9369C155.525 50.1192 155.524 50.3296 155.524 50.5541V52.7353H154.469C154.007 52.7353 153.636 52.595 153.364 52.3145C153.091 52.0339 152.958 51.6412 152.958 51.1432V37.9576H152.965ZM162.014 37.8104C162.056 38.0067 162.084 38.1891 162.091 38.3644C162.098 38.5398 162.105 38.7011 162.105 38.8414C162.105 38.9957 162.091 39.178 162.056 39.3954C162.021 39.6129 161.972 39.8233 161.902 40.0196H156.937C156.769 40.0196 156.552 40.0196 156.273 40.0126C156 40.0126 155.713 40.0056 155.42 39.9986C155.126 39.9986 154.867 39.9916 154.643 39.9846V37.8033H162.014V37.8104ZM160.804 44.1086C160.853 44.2769 160.888 44.4593 160.916 44.6697C160.937 44.8801 160.951 45.0484 160.951 45.1887C160.951 45.336 160.937 45.5043 160.916 45.7077C160.895 45.9111 160.86 46.1004 160.804 46.2828H156.93C156.762 46.2828 156.545 46.2758 156.266 46.2688C155.986 46.2618 155.706 46.2547 155.413 46.2547C155.119 46.2547 154.86 46.2477 154.636 46.2477V44.1436C154.86 44.1366 155.119 44.1296 155.413 44.1296C155.706 44.1296 155.993 44.1226 156.266 44.1156C156.538 44.1156 156.762 44.1086 156.93 44.1086H160.804ZM162.469 50.512C162.469 51.2835 162.35 51.8446 162.112 52.1953C161.874 52.5459 161.42 52.7213 160.741 52.7213H154.636V50.6102C155.021 50.5892 155.392 50.5681 155.755 50.5471C156.119 50.526 156.531 50.512 157.007 50.512H162.469Z" fill="white" stroke="white" stroke-miterlimit="10"/>
<path d="M165.315 37.8454C165.524 37.8033 165.79 37.7683 166.112 37.7472C166.434 37.7262 166.685 37.7122 166.867 37.7122C167.063 37.7122 167.301 37.7192 167.587 37.7332C167.874 37.7472 168.147 37.7753 168.42 37.8103L167.734 40.8402L167.552 40.8823C167.587 41.4224 167.622 42.0185 167.65 42.6778C167.678 43.3371 167.706 44.0034 167.727 44.6767C167.748 45.35 167.762 45.9672 167.762 46.5213V52.6862C167.545 52.7213 167.336 52.7493 167.126 52.7634C166.923 52.7774 166.727 52.7844 166.552 52.7844C166.392 52.7844 166.203 52.7774 165.972 52.7634C165.741 52.7493 165.524 52.7213 165.315 52.6862V37.8454ZM168.965 43.9052C168.713 43.3581 168.476 42.8321 168.245 42.3131C168.021 41.8011 167.811 41.3172 167.629 40.8613L166.406 39.4024L168.427 37.8103L172.692 46.5914C172.965 47.1805 173.224 47.7486 173.469 48.3027C173.713 48.8568 173.923 49.3477 174.112 49.7826L175.413 51.1643L173.287 52.6862L168.965 43.9052ZM176.406 37.8384V52.6652C176.196 52.7072 175.937 52.7423 175.622 52.7634C175.308 52.7844 175.049 52.7984 174.832 52.7984C174.615 52.7984 174.371 52.7914 174.091 52.7774C173.818 52.7634 173.545 52.7353 173.287 52.7002L173.993 49.8106L174.189 49.7685C174.154 49.1654 174.119 48.5131 174.084 47.8188C174.049 47.1244 174.028 46.4441 174.014 45.7848C174 45.1255 173.993 44.5434 173.993 44.0454V39.3393C173.993 38.7572 174.098 38.3434 174.315 38.0909C174.531 37.8384 174.895 37.7122 175.42 37.7122H176.28L176.406 37.8384Z" fill="white" stroke="white" stroke-miterlimit="10"/>
<path d="M178.629 40.0126C178.594 39.8233 178.566 39.6339 178.552 39.4375C178.538 39.2482 178.531 39.0728 178.531 38.9185C178.531 38.7502 178.538 38.5748 178.552 38.3855C178.566 38.1961 178.594 38.0067 178.629 37.8104H188.818C188.86 37.9576 188.895 38.119 188.923 38.3083C188.951 38.4907 188.958 38.673 188.958 38.8343C188.958 39.2622 188.839 39.5638 188.608 39.7461C188.378 39.9215 188.021 40.0126 187.532 40.0126H186.308C186.161 40.0126 185.951 40.0126 185.671 39.9986C185.392 39.9916 185.175 39.9846 185.028 39.9846H182.413C182.259 39.9846 182.049 39.9846 181.769 39.9986C181.497 40.0056 181.28 40.0126 181.126 40.0126H178.629ZM182.406 41.6047C182.406 41.3102 182.406 41.0366 182.413 40.8052C182.42 40.5667 182.42 40.3002 182.42 39.9916V38.9115H185.014V39.9916C185.014 40.2932 185.014 40.5667 185.021 40.8052C185.028 41.0436 185.028 41.3102 185.028 41.6047V52.6932C184.818 52.7283 184.594 52.7564 184.357 52.7704C184.119 52.7844 183.909 52.7914 183.72 52.7914C183.525 52.7914 183.308 52.7844 183.077 52.7704C182.839 52.7564 182.622 52.7283 182.406 52.6932V41.6047Z" fill="white" stroke="white" stroke-miterlimit="10"/>
<path d="M189.531 45.2448C189.531 43.7579 189.755 42.4324 190.203 41.2681C190.65 40.1038 191.329 39.1921 192.238 38.5258C193.147 37.8595 194.308 37.5228 195.699 37.5228C196.755 37.5228 197.671 37.7122 198.448 38.0979C199.224 38.4837 199.86 39.0237 200.371 39.7181C200.874 40.4124 201.259 41.233 201.504 42.1658C201.755 43.1057 201.881 44.1296 201.881 45.2378C201.881 46.7317 201.657 48.0643 201.21 49.2285C200.762 50.3928 200.077 51.3116 199.168 51.9779C198.259 52.6442 197.098 52.9808 195.706 52.9808C194.65 52.9808 193.734 52.7914 192.958 52.4057C192.182 52.02 191.545 51.4799 191.035 50.7785C190.524 50.0772 190.154 49.2566 189.902 48.3168C189.657 47.3769 189.531 46.353 189.531 45.2448ZM192.266 45.2448C192.266 45.883 192.308 46.5353 192.399 47.2016C192.483 47.8679 192.65 48.4781 192.895 49.0392C193.14 49.6003 193.483 50.0561 193.937 50.3998C194.392 50.7435 194.979 50.9188 195.699 50.9188C196.42 50.9188 197.007 50.7435 197.462 50.3998C197.909 50.0561 198.259 49.6003 198.497 49.0392C198.734 48.4781 198.902 47.8609 198.993 47.2016C199.077 46.5353 199.126 45.883 199.126 45.2448C199.126 44.6066 199.084 43.9543 198.993 43.295C198.909 42.6357 198.741 42.0256 198.497 41.4645C198.252 40.9034 197.909 40.4545 197.462 40.1108C197.014 39.7672 196.427 39.5918 195.699 39.5918C194.972 39.5918 194.385 39.7672 193.937 40.1108C193.483 40.4545 193.14 40.9104 192.895 41.4645C192.65 42.0256 192.49 42.6357 192.399 43.295C192.315 43.9543 192.266 44.6066 192.266 45.2448Z" fill="white" stroke="white" stroke-miterlimit="10"/>
<path d="M219.503 42.25C219.503 42.9233 219.378 43.5335 219.126 44.0665C218.874 44.6065 218.545 45.0554 218.126 45.4201C217.706 45.7848 217.252 46.0513 216.762 46.2197C217.133 46.3529 217.448 46.5914 217.706 46.9351C217.965 47.2787 218.175 47.6715 218.336 48.1063L219.217 50.4839C219.364 50.8907 219.51 51.2134 219.664 51.4588C219.818 51.7043 220 51.9007 220.21 52.062C220.035 52.3005 219.783 52.4968 219.448 52.6371C219.112 52.7844 218.783 52.8545 218.448 52.8545C217.965 52.8545 217.608 52.7213 217.385 52.4548C217.161 52.1882 216.951 51.7955 216.769 51.2695L215.769 48.5061C215.594 48.0362 215.364 47.6364 215.077 47.3208C214.79 46.9982 214.315 46.8439 213.664 46.8439H211.049V44.831C211.357 44.8169 211.72 44.8029 212.14 44.7889C212.552 44.7749 212.958 44.7608 213.357 44.7538C213.755 44.7468 214.07 44.7398 214.322 44.7398C214.986 44.7398 215.503 44.6136 215.867 44.3681C216.231 44.1226 216.483 43.807 216.615 43.4283C216.755 43.0495 216.818 42.6568 216.818 42.243C216.818 41.8221 216.748 41.4224 216.615 41.0366C216.483 40.6509 216.231 40.3423 215.867 40.1038C215.503 39.8653 214.993 39.7461 214.322 39.7461C214.126 39.7461 213.902 39.7461 213.65 39.7461C213.399 39.7461 213.14 39.7461 212.874 39.7391C212.608 39.7321 212.357 39.7321 212.126 39.7251V52.6862C211.916 52.7213 211.692 52.7493 211.462 52.7634C211.231 52.7774 211.014 52.7844 210.811 52.7844C210.629 52.7844 210.42 52.7774 210.182 52.7634C209.944 52.7493 209.72 52.7213 209.517 52.6862V37.9366L209.671 37.7963C210.517 37.7753 211.343 37.7542 212.14 37.7402C212.937 37.7262 213.72 37.7192 214.482 37.7192C215.489 37.7192 216.371 37.8875 217.119 38.2312C217.874 38.5748 218.455 39.0798 218.874 39.7531C219.294 40.4264 219.503 41.254 219.503 42.25Z" fill="white" stroke="white" stroke-miterlimit="10"/>
<path d="M222.643 37.9576L222.783 37.8174H225.203V39.9776C225.203 40.2791 225.203 40.5387 225.21 40.742C225.217 40.9454 225.224 41.1979 225.224 41.4925V49.3337C225.224 49.5511 225.224 49.7545 225.21 49.9369C225.203 50.1192 225.203 50.3296 225.203 50.5541V52.7353H224.147C223.685 52.7353 223.315 52.595 223.042 52.3145C222.769 52.0339 222.636 51.6412 222.636 51.1432V37.9576H222.643ZM231.692 37.8104C231.734 38.0067 231.762 38.1891 231.769 38.3644C231.776 38.5398 231.783 38.7011 231.783 38.8414C231.783 38.9957 231.769 39.178 231.734 39.3954C231.699 39.6129 231.65 39.8233 231.58 40.0196H226.615C226.448 40.0196 226.231 40.0196 225.951 40.0126C225.678 40.0126 225.392 40.0056 225.098 39.9986C224.804 39.9986 224.545 39.9916 224.322 39.9846V37.8033H231.692V37.8104ZM230.49 44.1086C230.538 44.2769 230.573 44.4593 230.601 44.6697C230.622 44.8801 230.636 45.0484 230.636 45.1887C230.636 45.336 230.622 45.5043 230.601 45.7077C230.58 45.9111 230.545 46.1004 230.49 46.2828H226.615C226.448 46.2828 226.231 46.2758 225.951 46.2688C225.671 46.2618 225.392 46.2547 225.098 46.2547C224.804 46.2547 224.545 46.2477 224.322 46.2477V44.1436C224.545 44.1366 224.804 44.1296 225.098 44.1296C225.392 44.1296 225.678 44.1226 225.951 44.1156C226.224 44.1156 226.448 44.1086 226.615 44.1086H230.49ZM232.147 50.512C232.147 51.2835 232.028 51.8446 231.79 52.1953C231.552 52.5459 231.098 52.7213 230.42 52.7213H224.315V50.6102C224.699 50.5892 225.07 50.5681 225.434 50.5471C225.797 50.526 226.21 50.512 226.685 50.512H232.147Z" fill="white" stroke="white" stroke-miterlimit="10"/>
<path d="M245.65 39.1079C245.601 39.5007 245.448 39.8724 245.196 40.2301C244.944 40.5878 244.678 40.8543 244.413 41.0366C243.895 40.6509 243.308 40.3423 242.643 40.0968C241.979 39.8584 241.308 39.7391 240.636 39.7391C239.867 39.7391 239.182 39.9215 238.58 40.2932C237.979 40.6649 237.504 41.2611 237.161 42.0887C236.818 42.9163 236.643 44.0104 236.643 45.3781C236.643 47.2507 236.986 48.6324 237.678 49.5161C238.371 50.3998 239.399 50.8487 240.769 50.8487C241.517 50.8487 242.203 50.7715 242.839 50.6102C243.476 50.4489 243.965 50.3016 244.322 50.1754L245.671 52.069C245.245 52.2304 244.741 52.3776 244.161 52.5179C243.58 52.6582 242.965 52.7704 242.301 52.8546C241.643 52.9387 240.979 52.9878 240.315 52.9878C239.154 52.9878 238.175 52.7914 237.364 52.3987C236.552 52.0059 235.902 51.4589 235.399 50.7645C234.895 50.0702 234.525 49.2566 234.294 48.3308C234.063 47.405 233.944 46.4091 233.944 45.35C233.944 43.9824 234.126 42.8111 234.497 41.8222C234.867 40.8333 235.364 40.0267 235.993 39.3884C236.622 38.7502 237.329 38.2803 238.119 37.9787C238.902 37.6771 239.713 37.5228 240.545 37.5228C241.469 37.5228 242.378 37.6701 243.28 37.9577C244.182 38.2452 244.972 38.631 245.65 39.1079ZM243.853 44.6977C244.531 44.6977 245.007 44.845 245.273 45.1466C245.538 45.4482 245.671 45.855 245.671 46.374V46.9281H241.587C241.35 46.9281 241.133 46.9 240.937 46.8439C240.741 46.7878 240.587 46.6756 240.476 46.5143C240.364 46.353 240.308 46.1215 240.308 45.8059C240.308 45.6306 240.329 45.4412 240.364 45.2378C240.399 45.0344 240.448 44.852 240.504 44.6907H243.853V44.6977ZM243.196 48.3448C243.196 47.8398 243.21 47.3489 243.238 46.879C243.266 46.4091 243.329 45.9882 243.434 45.6095L245.671 46.374V52.069L243.196 52.1041V48.3448Z" fill="white" stroke="white" stroke-miterlimit="10"/>
<path d="M248.93 37.8103C249.133 37.7753 249.357 37.7472 249.601 37.7332C249.846 37.7192 250.056 37.7122 250.238 37.7122C250.441 37.7122 250.657 37.7192 250.895 37.7332C251.133 37.7472 251.357 37.7753 251.566 37.8103V52.6862C251.357 52.7213 251.133 52.7493 250.895 52.7634C250.657 52.7774 250.441 52.7844 250.238 52.7844C250.056 52.7844 249.846 52.7774 249.601 52.7634C249.357 52.7493 249.133 52.7213 248.93 52.6862V37.8103Z" fill="white" stroke="white" stroke-miterlimit="10"/>
<path d="M254.51 45.2448C254.51 43.7579 254.734 42.4324 255.182 41.2681C255.629 40.1038 256.308 39.1921 257.217 38.5258C258.126 37.8595 259.287 37.5228 260.678 37.5228C261.734 37.5228 262.65 37.7122 263.427 38.0979C264.203 38.4837 264.839 39.0237 265.35 39.7181C265.853 40.4124 266.238 41.233 266.483 42.1658C266.734 43.1057 266.86 44.1296 266.86 45.2378C266.86 46.7317 266.636 48.0643 266.189 49.2285C265.741 50.3928 265.056 51.3116 264.147 51.9779C263.238 52.6442 262.077 52.9808 260.685 52.9808C259.629 52.9808 258.713 52.7914 257.937 52.4057C257.161 52.02 256.524 51.4799 256.014 50.7785C255.504 50.0772 255.133 49.2566 254.881 48.3168C254.629 47.3769 254.51 46.353 254.51 45.2448ZM257.245 45.2448C257.245 45.883 257.287 46.5353 257.378 47.2016C257.462 47.8679 257.629 48.4781 257.874 49.0392C258.119 49.6003 258.462 50.0561 258.916 50.3998C259.371 50.7435 259.958 50.9188 260.678 50.9188C261.399 50.9188 261.986 50.7435 262.441 50.3998C262.888 50.0561 263.238 49.6003 263.476 49.0392C263.713 48.4781 263.881 47.8609 263.972 47.2016C264.056 46.5353 264.105 45.883 264.105 45.2448C264.105 44.6066 264.063 43.9543 263.972 43.295C263.888 42.6357 263.72 42.0256 263.476 41.4645C263.231 40.9034 262.888 40.4545 262.441 40.1108C261.993 39.7672 261.406 39.5918 260.678 39.5918C259.951 39.5918 259.364 39.7672 258.916 40.1108C258.462 40.4545 258.119 40.9104 257.874 41.4645C257.629 42.0256 257.469 42.6357 257.378 43.295C257.287 43.9543 257.245 44.6066 257.245 45.2448Z" fill="white" stroke="white" stroke-miterlimit="10"/>
<path d="M269.727 37.8454C269.937 37.8033 270.203 37.7683 270.524 37.7472C270.846 37.7262 271.098 37.7122 271.28 37.7122C271.476 37.7122 271.713 37.7192 272 37.7332C272.287 37.7472 272.559 37.7753 272.832 37.8103L272.147 40.8402L271.965 40.8823C272 41.4224 272.035 42.0185 272.063 42.6778C272.091 43.3371 272.119 44.0034 272.14 44.6767C272.161 45.35 272.175 45.9672 272.175 46.5213V52.6862C271.958 52.7213 271.748 52.7493 271.538 52.7634C271.336 52.7774 271.14 52.7844 270.965 52.7844C270.804 52.7844 270.615 52.7774 270.385 52.7634C270.154 52.7493 269.937 52.7213 269.727 52.6862V37.8454ZM273.378 43.9052C273.126 43.3581 272.888 42.8321 272.657 42.3131C272.434 41.8011 272.224 41.3172 272.042 40.8613L270.818 39.4024L272.839 37.8103L277.105 46.5914C277.378 47.1805 277.636 47.7486 277.881 48.3027C278.126 48.8568 278.336 49.3477 278.524 49.7826L279.825 51.1643L277.699 52.6862L273.378 43.9052ZM280.811 37.8384V52.6652C280.601 52.7072 280.343 52.7423 280.028 52.7634C279.713 52.7844 279.455 52.7984 279.238 52.7984C279.021 52.7984 278.776 52.7914 278.497 52.7774C278.224 52.7634 277.951 52.7353 277.692 52.7002L278.399 49.8106L278.594 49.7685C278.559 49.1654 278.524 48.5131 278.49 47.8188C278.455 47.1244 278.434 46.4441 278.42 45.7848C278.406 45.1255 278.399 44.5434 278.399 44.0454V39.3393C278.399 38.7572 278.504 38.3434 278.72 38.0909C278.937 37.8384 279.301 37.7122 279.825 37.7122H280.685L280.811 37.8384Z" fill="white" stroke="white" stroke-miterlimit="10"/>
<path d="M287.958 37.8103C288.161 37.7753 288.406 37.7472 288.699 37.7332C288.993 37.7192 289.252 37.7122 289.476 37.7122C289.678 37.7122 289.923 37.7192 290.217 37.7402C290.51 37.7613 290.755 37.7823 290.951 37.8244L295.776 52.5319C295.587 52.6441 295.357 52.7213 295.077 52.7774C294.797 52.8335 294.531 52.8616 294.266 52.8616C293.846 52.8616 293.524 52.7704 293.294 52.581C293.063 52.3916 292.867 52.0199 292.699 51.4588L290.524 44.4242C290.329 43.8 290.126 43.1196 289.916 42.3762C289.706 41.6328 289.524 40.9595 289.364 40.3423H289.245C289.175 40.6929 289.084 41.0717 288.972 41.4925C288.86 41.9133 288.755 42.3201 288.643 42.7199C288.531 43.1197 288.434 43.4633 288.343 43.7579L285.552 52.7353C285.385 52.7704 285.203 52.7984 285.014 52.8125C284.825 52.8265 284.622 52.8335 284.42 52.8335C284.203 52.8335 283.979 52.8195 283.748 52.7844C283.517 52.7493 283.322 52.7073 283.154 52.6582L283.07 52.5249L287.958 37.8103ZM287.811 49.2285C287.741 49.2285 287.608 49.2285 287.42 49.2215C287.231 49.2145 287.042 49.2145 286.846 49.2075C286.65 49.2005 286.524 49.2005 286.448 49.2005H285.175L285.979 47.0964H287.098C287.175 47.0964 287.301 47.0964 287.469 47.0894C287.636 47.0894 287.804 47.0823 287.972 47.0753C288.14 47.0683 288.266 47.0683 288.336 47.0683H290.357C290.427 47.0683 290.552 47.0683 290.727 47.0753C290.902 47.0753 291.077 47.0823 291.252 47.0894C291.427 47.0964 291.552 47.0964 291.629 47.0964H292.783L293.469 49.2005H292.196C292.119 49.2005 291.979 49.2005 291.79 49.2075C291.601 49.2145 291.406 49.2145 291.217 49.2215C291.028 49.2285 290.895 49.2285 290.825 49.2285H287.811Z" fill="white" stroke="white" stroke-miterlimit="10"/>
<path d="M300.643 52.7283H299.545C299.091 52.7283 298.72 52.588 298.441 52.3145C298.161 52.0409 298.014 51.6412 298.014 51.1292V37.8454L298.154 37.7051H299.14C299.664 37.7051 300.042 37.8384 300.28 38.1049C300.517 38.3714 300.636 38.7922 300.636 39.3674V52.7283H300.643ZM306.769 50.4489C306.769 51.3115 306.636 51.9077 306.371 52.2373C306.105 52.567 305.65 52.7283 305.014 52.7283H299.552L298.175 50.8136C298.923 50.6873 299.685 50.5961 300.469 50.54C301.252 50.4839 301.965 50.4559 302.608 50.4559H306.769V50.4489Z" fill="white" stroke="white" stroke-miterlimit="10"/>
<path d="M14.965 15.6404C15.1678 15.6053 15.3776 15.5843 15.6014 15.5773C15.8252 15.5773 15.986 15.5703 16.0979 15.5703C16.2238 15.5703 16.3776 15.5703 16.5734 15.5773C16.7692 15.5843 16.965 15.5983 17.1608 15.6404L19.6573 23.2852C19.7133 23.4746 19.7902 23.7271 19.8881 24.0427C19.979 24.3583 20.0769 24.6879 20.1678 25.0316C20.2587 25.3753 20.3427 25.6769 20.4126 25.9434C20.4825 26.2099 20.5245 26.3852 20.5385 26.4694H20.6504C20.6643 26.3922 20.7063 26.2169 20.7762 25.9434C20.8462 25.6769 20.9231 25.3683 21.021 25.0316C21.1119 24.6879 21.2098 24.3583 21.3007 24.0427C21.3916 23.7271 21.4755 23.4746 21.5385 23.2852L24.035 15.6404C24.2587 15.6053 24.4615 15.5843 24.6434 15.5773C24.8252 15.5773 24.979 15.5703 25.0979 15.5703C25.2098 15.5703 25.3636 15.5703 25.5734 15.5773C25.7832 15.5843 26 15.5983 26.2238 15.6404L27.3776 30.4952C27.2587 30.5303 27.1259 30.5583 26.965 30.5794C26.8042 30.6004 26.6573 30.6074 26.5175 30.6074C26.3776 30.6074 26.2518 30.6004 26.1329 30.5934C26.014 30.5864 25.8881 30.5653 25.7553 30.5443L25.1469 21.5248C25.1259 21.1881 25.1049 20.7814 25.0839 20.2974C25.0629 19.8135 25.042 19.3085 25.028 18.7965C25.007 18.2845 24.993 17.8286 24.979 17.4218H24.8671L21.4196 28.1947C21.2937 28.2158 21.1608 28.2298 21.014 28.2438C20.8671 28.2579 20.7203 28.2579 20.5874 28.2579C20.4406 28.2579 20.3007 28.2509 20.1608 28.2438C20.021 28.2298 19.8881 28.2158 19.7762 28.1947L16.3357 17.4078H16.2238C16.2028 17.8146 16.1818 18.2705 16.1678 18.7825C16.1469 19.2945 16.1329 19.7924 16.1119 20.2834C16.0909 20.7673 16.0769 21.1811 16.0559 21.5108L15.4336 30.5303C15.3077 30.5513 15.1818 30.5653 15.049 30.5794C14.9161 30.5934 14.7762 30.5934 14.6434 30.5934C14.4965 30.5934 14.3497 30.5864 14.2028 30.5653C14.0559 30.5443 13.9301 30.5233 13.8252 30.4812L14.965 15.6404Z" fill="white"/>
<path d="M31.4406 15.6404C31.5525 15.6194 31.6783 15.6053 31.8182 15.5913C31.958 15.5773 32.1049 15.5773 32.2518 15.5773C32.4126 15.5773 32.5664 15.5843 32.7063 15.5913C32.8462 15.5983 32.986 15.6194 33.1049 15.6404V30.5163C32.979 30.5373 32.8462 30.5513 32.7063 30.5653C32.5664 30.5794 32.4126 30.5794 32.2518 30.5794C32.1049 30.5794 31.965 30.5724 31.8182 30.5653C31.6713 30.5583 31.5455 30.5373 31.4406 30.5163V15.6404Z" fill="white"/>
<path d="M37.4825 15.6404C37.6224 15.6194 37.7832 15.6053 37.979 15.5913C38.1678 15.5773 38.3357 15.5773 38.4825 15.5773C38.6504 15.5773 38.8252 15.5843 39.014 15.5913C39.2028 15.5983 39.3706 15.6194 39.5105 15.6404L39.056 17.6463L38.9021 17.6603C38.9161 18.1022 38.9371 18.5931 38.9581 19.1262C38.979 19.6592 39 20.2063 39.014 20.7603C39.028 21.3144 39.035 21.8474 39.035 22.3594V30.5303C38.8881 30.5513 38.7553 30.5653 38.6224 30.5794C38.4895 30.5934 38.3706 30.5934 38.2518 30.5934C38.1329 30.5934 38.014 30.5864 37.8811 30.5794C37.7483 30.5653 37.6154 30.5513 37.4825 30.5303V15.6404ZM40.4476 20.6341C40.1748 20.1081 39.9161 19.6031 39.6783 19.1121C39.4406 18.6212 39.2028 18.1302 38.972 17.6393L38.1678 16.6363L39.5175 15.6334L44.7972 25.5156C45.0769 26.0486 45.3427 26.5676 45.5874 27.0866C45.8322 27.6056 46.0699 28.1036 46.3007 28.5735L47.1049 29.3941L45.7343 30.5163L40.4476 20.6341ZM47.7762 15.6825V30.5163C47.6364 30.5373 47.4895 30.5513 47.3217 30.5653C47.1539 30.5794 46.972 30.5794 46.7692 30.5794C46.5595 30.5794 46.3706 30.5724 46.1958 30.5653C46.021 30.5583 45.8741 30.5373 45.7343 30.5163L46.2098 28.5805H46.3637C46.3427 28.0475 46.3217 27.5004 46.3007 26.9253C46.2797 26.3502 46.2657 25.7821 46.2518 25.214C46.2378 24.6459 46.2378 24.1128 46.2378 23.6149V16.6574C46.2378 16.2927 46.2937 16.0261 46.3986 15.8438C46.5035 15.6684 46.7343 15.5773 47.0979 15.5773H47.6504L47.7762 15.6825Z" fill="white"/>
<path d="M52.1539 15.6404C52.2658 15.6194 52.3916 15.6053 52.5315 15.5913C52.6714 15.5773 52.8182 15.5773 52.9651 15.5773C53.1259 15.5773 53.2797 15.5843 53.4196 15.5913C53.5595 15.5983 53.6993 15.6194 53.8182 15.6404V30.5163C53.6923 30.5373 53.5595 30.5513 53.4196 30.5653C53.2797 30.5794 53.1259 30.5794 52.9651 30.5794C52.8182 30.5794 52.6783 30.5724 52.5315 30.5653C52.3846 30.5583 52.2588 30.5373 52.1539 30.5163V15.6404Z" fill="white"/>
<path d="M56.8881 29.1416C56.9091 28.8961 57 28.6436 57.1539 28.3981C57.3077 28.1456 57.4755 27.9563 57.6574 27.816C58.3007 28.2578 59.007 28.6155 59.7692 28.8961C60.5315 29.1696 61.2797 29.3099 62.014 29.3099C63.021 29.3099 63.8252 29.0995 64.4266 28.6716C65.028 28.2438 65.3287 27.6617 65.3287 26.9253C65.3287 26.266 65.1049 25.7119 64.6574 25.263C64.2098 24.8142 63.6643 24.4565 63.014 24.1829L60.3846 23.0748C59.4685 22.682 58.7483 22.1911 58.2378 21.6019C57.7203 21.0128 57.4685 20.2834 57.4685 19.4137C57.4685 18.6843 57.6574 18.018 58.042 17.4008C58.4266 16.7836 58.972 16.2996 59.6713 15.9279C60.3706 15.5632 61.2098 15.3809 62.1818 15.3809C63.014 15.3809 63.8042 15.4861 64.5455 15.7035C65.2867 15.9209 65.9441 16.1594 66.5035 16.4399C66.4965 16.6784 66.4336 16.9309 66.3147 17.1834C66.1958 17.4358 66.035 17.6533 65.8392 17.8076C65.2657 17.52 64.6574 17.2745 64.021 17.0852C63.3776 16.8958 62.7832 16.8046 62.2378 16.8046C61.3357 16.8046 60.5944 17.0361 60.021 17.492C59.4476 17.9478 59.1609 18.544 59.1609 19.2664C59.1609 19.8555 59.3706 20.3255 59.7832 20.6761C60.1958 21.0268 60.6923 21.3214 61.2657 21.5669L63.8182 22.6329C64.3916 22.8714 64.9231 23.173 65.4126 23.5307C65.9021 23.8884 66.3007 24.3232 66.6014 24.8212C66.9021 25.3191 67.049 25.9083 67.049 26.5746C67.049 27.3811 66.8602 28.1035 66.4895 28.7348C66.1189 29.373 65.5525 29.871 64.7972 30.2357C64.042 30.6004 63.0909 30.7827 61.9301 30.7827C61.021 30.7827 60.1189 30.6355 59.2308 30.3339C58.3497 30.0323 57.5664 29.6395 56.8881 29.1416Z" fill="white"/>
<path d="M67.9441 17.0782C67.9161 16.9589 67.8951 16.8397 67.8811 16.7205C67.8671 16.5942 67.8671 16.475 67.8671 16.3628C67.8671 16.2436 67.8741 16.1313 67.8811 16.0121C67.8881 15.8929 67.9091 15.7736 67.9441 15.6404H77.5035C77.5385 15.7456 77.5664 15.8578 77.5874 15.977C77.6084 16.1033 77.6154 16.2155 77.6154 16.3277C77.6154 16.5942 77.5315 16.7906 77.3706 16.9028C77.2098 17.0221 76.958 17.0782 76.6154 17.0782H74.7482C74.6154 17.0782 74.4266 17.0712 74.1678 17.0641C73.9091 17.0571 73.7133 17.0501 73.5664 17.0501H71.9021C71.7552 17.0501 71.5594 17.0571 71.3077 17.0641C71.0559 17.0712 70.8601 17.0782 70.7203 17.0782H67.9441ZM71.8951 18.6632C71.8951 18.3687 71.8951 18.1022 71.8951 17.8637C71.8951 17.6252 71.8951 17.3587 71.8951 17.0501V16.3558H73.5594V17.0501C73.5594 17.3587 73.5594 17.6252 73.5594 17.8637C73.5594 18.1022 73.5594 18.3687 73.5594 18.6632V30.5162C73.4406 30.5373 73.3077 30.5513 73.1538 30.5653C73 30.5794 72.8601 30.5794 72.7273 30.5794C72.5874 30.5794 72.4475 30.5723 72.2937 30.5653C72.1399 30.5583 72.007 30.5373 71.8951 30.5162V18.6632Z" fill="white"/>
<path d="M80.0839 15.7666L80.2168 15.6334H81.6923V17.008C81.6923 17.3096 81.6923 17.5481 81.7063 17.7164C81.7133 17.8847 81.7133 18.1162 81.7133 18.4107V28.2789C81.7133 28.4262 81.7133 28.5594 81.7063 28.6857C81.6993 28.8119 81.6923 28.9592 81.6923 29.1135V30.5092H81.042C80.7553 30.5092 80.5175 30.411 80.3497 30.2216C80.1748 30.0323 80.0909 29.7588 80.0909 29.4081V15.7666H80.0839ZM88.6224 15.6404C88.6434 15.7736 88.6574 15.8929 88.6574 16.0051C88.6574 16.1173 88.6644 16.2225 88.6644 16.3137C88.6644 16.4048 88.6574 16.5241 88.6364 16.6644C88.6154 16.8046 88.5874 16.9449 88.5455 17.0711H83.007C82.8462 17.0711 82.6644 17.0711 82.4546 17.0711C82.2448 17.0711 82.028 17.0711 81.7972 17.0641C81.5664 17.0571 81.3497 17.0571 81.1399 17.0501V15.6404H88.6224ZM87.5035 22.2682C87.5245 22.3945 87.5385 22.5207 87.5525 22.647C87.5665 22.7802 87.5665 22.8854 87.5665 22.9766C87.5665 23.0678 87.5595 23.18 87.5525 23.3133C87.5455 23.4465 87.5245 23.5728 87.5035 23.692H83.007C82.8462 23.692 82.6644 23.692 82.4546 23.685C82.2448 23.685 82.028 23.678 81.7972 23.6709C81.5664 23.6709 81.3497 23.6639 81.1399 23.6639V22.2822C81.3497 22.2822 81.5664 22.2822 81.7972 22.2752C82.028 22.2752 82.2448 22.2682 82.4546 22.2612C82.6644 22.2612 82.8462 22.2542 83.007 22.2542H87.5035V22.2682ZM88.979 29.0714C88.979 29.6395 88.8951 30.0183 88.7203 30.2216C88.5455 30.425 88.2588 30.5232 87.8602 30.5232H81.1399V29.1626C81.4196 29.1416 81.7063 29.1205 82 29.0995C82.2867 29.0784 82.6364 29.0714 83.035 29.0714H88.979ZM86.6783 11.2919C86.8112 11.3761 86.9301 11.5023 87.042 11.6496C87.1539 11.7969 87.2518 11.9723 87.3287 12.1686C87.4056 12.358 87.4685 12.5544 87.5035 12.7508L83.049 14.6374C82.9021 14.5322 82.7832 14.399 82.6993 14.2166C82.6084 14.0413 82.5525 13.8729 82.5315 13.7186L86.6783 11.2919Z" fill="white"/>
<path d="M101.559 19.8836C101.559 20.5359 101.441 21.132 101.21 21.6651C100.979 22.1981 100.65 22.654 100.224 23.0257C99.7972 23.3974 99.2937 23.671 98.7063 23.8463C99.042 23.9585 99.3287 24.1759 99.5734 24.5126C99.8182 24.8493 100.021 25.2069 100.168 25.5997L101.301 28.5384C101.483 29.0153 101.636 29.366 101.762 29.5764C101.888 29.7868 102.042 29.9622 102.21 30.1024C102.091 30.2918 101.923 30.4321 101.685 30.5162C101.455 30.6004 101.245 30.6495 101.056 30.6495C100.72 30.6495 100.476 30.5583 100.315 30.369C100.154 30.1796 100.007 29.9061 99.8672 29.5484L98.6154 26.2379C98.3986 25.6698 98.1259 25.1999 97.7972 24.8142C97.4686 24.4284 96.9441 24.2391 96.2098 24.2391H93.2657V22.8644C93.6084 22.8504 93.986 22.8363 94.3986 22.8293C94.8112 22.8153 95.2308 22.8083 95.6504 22.8083C96.0699 22.8083 96.4546 22.8013 96.8042 22.8013C97.6014 22.8013 98.2168 22.654 98.6504 22.3524C99.0839 22.0578 99.3846 21.6791 99.5455 21.2372C99.7063 20.7884 99.7902 20.3395 99.7902 19.8836C99.7902 19.4137 99.7063 18.9508 99.5455 18.509C99.3846 18.0601 99.0839 17.6954 98.6504 17.4008C98.2168 17.1132 97.6014 16.966 96.8042 16.966C96.5664 16.966 96.2727 16.966 95.9301 16.966C95.5874 16.966 95.2378 16.966 94.8881 16.9589C94.5385 16.9519 94.2308 16.9519 93.972 16.9449V30.5162C93.8462 30.5373 93.7133 30.5513 93.5734 30.5653C93.4266 30.5794 93.2797 30.5794 93.1189 30.5794C92.972 30.5794 92.8322 30.5724 92.6853 30.5653C92.5385 30.5513 92.4126 30.5373 92.3077 30.5162V15.7666L92.4476 15.6334C93.2028 15.6193 93.9441 15.6053 94.6853 15.5913C95.4266 15.5773 96.1399 15.5703 96.8392 15.5703C97.8462 15.5703 98.6993 15.7456 99.4056 16.0963C100.105 16.447 100.643 16.9379 101.014 17.5832C101.371 18.2214 101.559 18.9929 101.559 19.8836Z" fill="white"/>
<path d="M105.259 15.6404C105.371 15.6194 105.496 15.6053 105.636 15.5913C105.776 15.5773 105.923 15.5773 106.07 15.5773C106.231 15.5773 106.385 15.5843 106.524 15.5913C106.664 15.5983 106.804 15.6194 106.923 15.6404V30.5163C106.797 30.5373 106.664 30.5513 106.524 30.5653C106.385 30.5794 106.231 30.5794 106.07 30.5794C105.923 30.5794 105.783 30.5724 105.636 30.5653C105.489 30.5583 105.364 30.5373 105.259 30.5163V15.6404Z" fill="white"/>
<path d="M110.399 23.0678C110.399 21.651 110.608 20.3605 111.035 19.1963C111.462 18.032 112.105 17.1062 112.965 16.4119C113.832 15.7245 114.923 15.3738 116.252 15.3738C117.252 15.3738 118.119 15.5702 118.853 15.97C119.587 16.3698 120.196 16.9238 120.678 17.6322C121.161 18.3406 121.517 19.1542 121.755 20.08C121.993 21.0058 122.105 22.0017 122.105 23.0608C122.105 24.4845 121.895 25.782 121.469 26.9463C121.042 28.1176 120.399 29.0434 119.538 29.7377C118.671 30.425 117.58 30.7757 116.252 30.7757C115.245 30.7757 114.378 30.5793 113.636 30.1796C112.895 29.7798 112.294 29.2257 111.811 28.5103C111.329 27.7949 110.972 26.9814 110.741 26.0486C110.511 25.1228 110.399 24.1268 110.399 23.0678ZM112.154 23.0678C112.154 23.7691 112.21 24.4915 112.329 25.235C112.448 25.9784 112.65 26.6587 112.951 27.2829C113.252 27.9072 113.671 28.4121 114.203 28.8049C114.734 29.1906 115.42 29.387 116.252 29.387C117.077 29.387 117.755 29.1906 118.287 28.8049C118.818 28.4192 119.231 27.9072 119.531 27.2829C119.825 26.6587 120.035 25.9784 120.147 25.235C120.259 24.4915 120.322 23.7691 120.322 23.0678C120.322 22.3664 120.266 21.644 120.147 20.9076C120.028 20.1711 119.825 19.4908 119.531 18.8666C119.238 18.2424 118.818 17.7374 118.287 17.3517C117.755 16.9659 117.077 16.7766 116.252 16.7766C115.42 16.7766 114.734 16.9659 114.203 17.3517C113.671 17.7374 113.252 18.2424 112.951 18.8666C112.65 19.4908 112.441 20.1711 112.329 20.9076C112.217 21.644 112.154 22.3594 112.154 23.0678Z" fill="white"/>
<path d="M140.699 23.0888C140.699 23.9375 140.643 24.7511 140.538 25.5226C140.427 26.2941 140.217 27.0165 139.895 27.6827C139.573 28.349 139.105 28.9522 138.476 29.4923C138.175 29.7518 137.804 29.9692 137.371 30.1305C136.937 30.2918 136.49 30.411 136.042 30.4882C135.587 30.5653 135.175 30.6004 134.811 30.6004C134.245 30.6004 133.748 30.6004 133.322 30.5864C132.895 30.5794 132.462 30.5653 132.021 30.5513C131.58 30.5373 131.042 30.5233 130.413 30.5092L130.273 30.376V15.7666L130.413 15.6334C131.035 15.6123 131.566 15.5983 132.014 15.5843C132.462 15.5703 132.895 15.5703 133.322 15.5703C133.748 15.5703 134.245 15.5703 134.811 15.5703C135.182 15.5703 135.594 15.6053 136.042 15.6825C136.497 15.7596 136.937 15.8789 137.371 16.0402C137.804 16.2015 138.175 16.4189 138.476 16.6784C139.098 17.2184 139.566 17.8216 139.888 18.4949C140.21 19.1682 140.42 19.8906 140.531 20.6621C140.643 21.4406 140.699 22.2472 140.699 23.0888ZM138.937 23.0888C138.937 22.3875 138.888 21.6721 138.79 20.9567C138.692 20.2413 138.504 19.575 138.217 18.9718C137.937 18.3687 137.517 17.8847 136.965 17.52C136.413 17.1553 135.685 16.973 134.776 16.973C134.28 16.973 133.818 16.973 133.399 16.9589C132.979 16.9449 132.49 16.9449 131.93 16.9449V29.1766C132.49 29.1766 132.979 29.1837 133.399 29.1907C133.818 29.1977 134.28 29.2047 134.776 29.2047C135.678 29.2047 136.413 29.0223 136.965 28.6576C137.517 28.2929 137.937 27.809 138.217 27.2058C138.497 26.6027 138.692 25.9434 138.79 25.221C138.888 24.4986 138.937 23.7832 138.937 23.0888Z" fill="white"/>
<path d="M143.21 23.0678C143.21 21.651 143.42 20.3605 143.846 19.1963C144.273 18.032 144.916 17.1062 145.776 16.4119C146.643 15.7245 147.734 15.3738 149.063 15.3738C150.063 15.3738 150.93 15.5702 151.664 15.97C152.399 16.3698 153.007 16.9238 153.49 17.6322C153.972 18.3406 154.329 19.1542 154.566 20.08C154.804 21.0058 154.916 22.0017 154.916 23.0608C154.916 24.4845 154.706 25.782 154.28 26.9463C153.853 28.1176 153.21 29.0434 152.35 29.7377C151.483 30.425 150.392 30.7757 149.063 30.7757C148.056 30.7757 147.189 30.5793 146.448 30.1796C145.706 29.7798 145.105 29.2257 144.622 28.5103C144.14 27.7949 143.783 26.9814 143.552 26.0486C143.322 25.1228 143.21 24.1268 143.21 23.0678ZM144.965 23.0678C144.965 23.7691 145.021 24.4915 145.14 25.235C145.259 25.9784 145.462 26.6587 145.762 27.2829C146.063 27.9072 146.483 28.4121 147.014 28.8049C147.545 29.1906 148.231 29.387 149.063 29.387C149.888 29.387 150.566 29.1906 151.098 28.8049C151.629 28.4192 152.042 27.9072 152.343 27.2829C152.636 26.6587 152.846 25.9784 152.958 25.235C153.07 24.4915 153.133 23.7691 153.133 23.0678C153.133 22.3664 153.077 21.644 152.958 20.9076C152.839 20.1711 152.636 19.4908 152.343 18.8666C152.049 18.2424 151.629 17.7374 151.098 17.3517C150.566 16.9659 149.888 16.7766 149.063 16.7766C148.231 16.7766 147.545 16.9659 147.014 17.3517C146.483 17.7374 146.063 18.2424 145.762 18.8666C145.462 19.4908 145.252 20.1711 145.14 20.9076C145.021 21.644 144.965 22.3594 144.965 23.0678Z" fill="white"/>
</svg>
