<svg width="215" height="64" viewBox="0 0 215 64" fill="none" xmlns="http://www.w3.org/2000/svg">
<path d="M63.959 10.9327C63.959 12.7303 62.515 14.1857 60.7317 14.1857C58.9485 14.1857 57.5045 12.7303 57.5045 10.9327C57.5045 9.13521 58.9485 7.67975 60.7317 7.67975C62.515 7.67975 63.959 9.13521 63.959 10.9327Z" fill="white"/>
<path d="M66.8536 25.4337C64.1654 25.4337 61.6035 25.9971 59.2813 27.0098V27.0166C58.3164 27.4324 57.3982 27.9287 56.5265 28.4988C55.3288 29.2769 54.2175 30.1891 53.2194 31.2153C52.6605 31.7854 52.1414 32.3957 51.6557 33.0329C51.5226 33.214 30.8218 63.9799 30.8218 63.9799H39.5519C42.2202 63.9799 44.7554 63.3628 47.0644 62.3701V62.3634C48.0159 61.9543 48.9275 61.4647 49.7926 60.9147C51.0302 60.1165 52.1681 59.1909 53.1928 58.1379C53.8981 57.4135 55.3953 55.4215 55.3953 55.4215L75.5505 25.4471H66.8536V25.4337ZM53.3858 52.9264C53.3858 52.9264 53.246 53.1545 53.1861 53.2551C53.1795 53.2551 52.3011 54.5361 52.3011 54.5361L51.2431 55.7904C48.3087 58.9226 44.1566 60.9013 39.5453 60.9013H36.5443L36.7106 60.6531C36.7106 60.6531 53.958 34.9243 54.3972 34.3878C54.6367 34.0926 54.8896 33.8042 55.1491 33.5292C58.0769 30.4037 62.2557 28.4921 66.8536 28.4921H69.7748L53.3858 52.9264Z" fill="white"/>
<path d="M15.9565 56.3069C14.6057 58.1178 12.9488 59.6672 11.0591 60.9013L29.6107 60.9348L27.6078 64L0 63.9665L2.04946 60.908C2.07607 60.9013 2.10269 60.9013 2.12265 60.9013C6.6075 60.4988 10.56 58.2452 13.2283 54.8983L44.3361 8.51142C45.7867 6.33829 47.6698 4.4804 49.8524 3.05848C50.7374 2.48837 51.6689 1.97862 52.6404 1.56278C54.956 0.556697 57.5046 0 60.1862 0H99.6249L97.5688 3.05848C92.7446 3.50115 88.5192 6.10354 85.8776 9.89311C85.7711 10.0407 76.9611 23.2136 76.9611 23.2136H73.2947L83.329 8.22301C84.7397 6.17732 86.5363 4.42674 88.5991 3.06519H60.1795C54.7165 3.06519 49.859 5.7816 46.9711 10.0004C46.9512 10.0474 15.9565 56.3069 15.9565 56.3069Z" fill="white"/>
<path d="M148.193 31.0342H145.505L143.875 26.4062H158.208C163.504 26.4062 167.317 29.1628 167.317 34.039C167.317 37.3322 165.534 39.4651 163.757 40.3773V40.4577C166.944 41.4169 168.475 44.4217 168.475 47.4265C168.475 53.349 163.797 56.0184 158.334 56.0184H151.008C149.065 56.0184 148.193 55.1867 148.193 53.1813V31.0342ZM158.254 38.506C160.53 38.506 161.814 36.8359 161.814 34.7097C161.814 32.5835 160.57 31.0409 158.174 31.0409H153.623V38.506H158.254ZM154.528 51.3972H158.746C161.395 51.3972 162.885 49.6064 162.885 47.0979C162.885 44.6363 161.355 42.8455 158.746 42.8455H153.616V50.4783C153.616 51.0618 153.949 51.3972 154.528 51.3972Z" fill="white"/>
<path d="M171.749 51.3972H174.69V31.0342H171.749V26.4062H184.471L182.761 31.0342H179.82V51.3972H182.761V56.0251H171.749V51.3972Z" fill="white"/>
<path d="M184.784 51.3972H185.449C186.155 51.3972 186.481 51.2295 186.733 50.4783L195.47 26.4062H201.14L209.83 50.4783C210.076 51.2295 210.409 51.3972 211.114 51.3972H215L211.779 56.0252H208.552C206.483 56.0252 205.738 55.4819 205.079 53.6039L203.256 48.4326H193.314L191.491 53.6039C190.832 55.4819 190.127 56.0252 188.058 56.0252H184.79V51.3972H184.784ZM202.005 43.9254L199.483 36.5005C198.944 34.8707 198.325 32.0805 198.325 32.0805H198.238C198.238 32.0805 197.62 34.8774 197.081 36.5005L194.559 43.9254H202.005ZM199.396 18.7667H204.447L200.101 24.441H196.249L199.396 18.7667Z" fill="white"/>
<path d="M116.693 51.3972H117.358C118.063 51.3972 118.389 51.2295 118.642 50.4783L127.372 26.4062H133.042L141.732 50.4783C141.978 51.2295 142.311 51.3972 143.016 51.3972H143.682V56.0251H140.454C138.385 56.0251 137.64 55.4819 136.981 53.6038L135.158 48.4326H125.223L123.4 53.6038C122.741 55.4819 122.036 56.0251 119.966 56.0251H113.419L116.693 51.3972ZM133.913 43.9254L131.391 36.5005C130.853 34.8707 130.234 32.0805 130.234 32.0805H130.154C130.154 32.0805 129.535 34.8774 128.996 36.5005L126.474 43.9254H133.913Z" fill="white"/>
<path d="M97.7019 47.8089C97.7019 47.8089 100.922 51.5984 105.021 51.5984C107.257 51.5984 109.247 50.3911 109.247 48.0973C109.247 43.0468 95.4195 43.4693 95.4195 34.2469C95.4195 29.4513 99.5584 25.9032 105.228 25.9032C108.661 25.9032 113.958 27.533 113.958 31.7452V37.8018L109.074 35.0786V33.1671C109.074 31.7921 107.131 30.8732 105.181 30.8732C102.699 30.8732 100.876 32.1677 100.876 34.0457C100.876 39.0962 114.703 38.0902 114.703 47.8156C114.703 52.5307 111.103 56.5349 104.935 56.5349C98.4338 56.5349 94.834 51.9472 94.834 51.9472L97.7019 47.8089Z" fill="white"/>
<path d="M101.608 12.3547C102.473 12.3547 103.185 12.6364 103.75 13.1998C104.316 13.7632 104.602 14.4607 104.602 15.3058C104.602 16.1442 104.316 16.8485 103.75 17.4119C103.185 17.9753 102.466 18.257 101.614 18.257H99.0925V21.738H98.0944V12.3547H101.608ZM99.0792 13.2937V17.3113H101.601C102.2 17.3113 102.686 17.1302 103.052 16.7613C103.418 16.3924 103.597 15.9095 103.597 15.2991C103.597 14.6955 103.418 14.2059 103.052 13.8437C102.686 13.4748 102.207 13.2937 101.601 13.2937H99.0792Z" fill="white"/>
<path d="M107.523 21.738V12.3547H108.521V20.799H113.306V21.738H107.523Z" fill="white"/>
<path d="M116.826 19.1289L115.761 21.738H114.696L118.549 12.3547H119.481L123.333 21.738H122.275L121.211 19.1289H116.826ZM119.021 13.7632L117.225 18.1832H120.811L119.021 13.7632Z" fill="white"/>
<path d="M130.786 12.3547V13.2937H127.858V21.738H126.867V13.2937H123.939V12.3547H130.786Z" fill="white"/>
<path d="M133.507 19.1289L132.443 21.738H131.378L135.231 12.3547H136.162L140.015 21.738H138.957L137.892 19.1289H133.507ZM135.703 13.7632L133.907 18.1832H137.493L135.703 13.7632Z" fill="white"/>
<path d="M148.865 12.3547V13.2937H143.548V16.5064H147.8V17.4454H143.548V21.7313H142.55V12.3547H148.865Z" fill="white"/>
<path d="M158.833 20.4637C157.901 21.4027 156.77 21.8722 155.446 21.8722C154.115 21.8722 152.991 21.4027 152.059 20.4637C151.127 19.5247 150.662 18.3844 150.662 17.0497C150.662 15.7083 151.127 14.5747 152.059 13.6357C152.991 12.6967 154.122 12.2272 155.446 12.2272C156.777 12.2272 157.901 12.6967 158.833 13.6357C159.764 14.5747 160.23 15.715 160.23 17.0497C160.224 18.3844 159.758 19.5247 158.833 20.4637ZM152.751 19.8131C153.483 20.5576 154.381 20.9332 155.446 20.9332C156.511 20.9332 157.409 20.5576 158.141 19.8131C158.873 19.0686 159.239 18.143 159.239 17.043C159.239 15.943 158.873 15.0241 158.141 14.2729C157.409 13.5284 156.511 13.1528 155.446 13.1528C154.381 13.1528 153.483 13.5284 152.751 14.2729C152.019 15.0174 151.653 15.943 151.653 17.043C151.653 18.143 152.019 19.0686 152.751 19.8131Z" fill="white"/>
<path d="M166.944 12.3547C167.769 12.3547 168.448 12.623 168.994 13.1595C169.539 13.6961 169.805 14.3668 169.805 15.1717C169.805 15.5741 169.739 15.9363 169.606 16.2717C169.473 16.6003 169.313 16.8619 169.127 17.0497C168.94 17.2375 168.754 17.3985 168.561 17.5259C168.368 17.6601 168.208 17.7473 168.082 17.7875L167.882 17.8546L170.078 21.7447H168.947L166.884 17.9954H164.229V21.7447H163.231V12.3547H166.944ZM164.223 13.2937V17.043H166.944C167.51 17.043 167.962 16.8753 168.302 16.5333C168.641 16.1979 168.807 15.7418 168.807 15.165C168.807 14.5949 168.641 14.1388 168.302 13.7967C167.962 13.4614 167.51 13.287 166.944 13.287H164.223V13.2937Z" fill="white"/>
<path d="M177.71 19.0552L173.991 14.0985V21.738H172.993V12.3547H173.858L177.717 17.4521L181.57 12.3547H182.435V21.738H181.443V14.0985L177.71 19.0552Z" fill="white"/>
<path d="M187.093 19.1289L186.028 21.738H184.963L188.816 12.3547H189.748L193.6 21.738H192.542L191.478 19.1289H187.093ZM189.282 13.7632L187.485 18.1832H191.078L189.282 13.7632Z" fill="white"/>
</svg>
