<svg width="500" height="500" viewBox="0 0 500 500" fill="none" xmlns="http://www.w3.org/2000/svg">
<path d="M425.38 245.09C401.34 297 339 285.17 307 265.86C275 246.55 250 256.26 242.12 281.29C234.24 306.32 242.48 371.89 176.52 373.61C110.56 375.33 85.18 248.84 153.68 168.13C192 123 269.25 81.5 350.84 124.84C399.46 150.67 444.62 203.54 425.38 245.09Z" fill="#F99942"/>
<path opacity="0.9" d="M425.38 245.09C401.34 297 339 285.17 307 265.86C275 246.55 250 256.26 242.12 281.29C234.24 306.32 242.48 371.89 176.52 373.61C110.56 375.33 85.18 248.84 153.68 168.13C192 123 269.25 81.5 350.84 124.84C399.46 150.67 444.62 203.54 425.38 245.09Z" fill="white"/>
<path d="M250 427.56C357.082 427.56 443.89 422.492 443.89 416.24C443.89 409.988 357.082 404.92 250 404.92C142.917 404.92 56.11 409.988 56.11 416.24C56.11 422.492 142.917 427.56 250 427.56Z" fill="#F5F5F5"/>
<path d="M132.72 247.68H256L263.7 255.68V207.17C263.7 204.332 262.573 201.611 260.566 199.604C258.559 197.597 255.838 196.47 253 196.47H132.72C131.313 196.467 129.92 196.742 128.619 197.279C127.319 197.815 126.137 198.603 125.141 199.597C124.145 200.591 123.355 201.771 122.816 203.071C122.277 204.37 122 205.763 122 207.17V237C122.003 238.405 122.282 239.796 122.822 241.093C123.362 242.39 124.153 243.568 125.148 244.56C126.144 245.552 127.325 246.338 128.624 246.873C129.923 247.408 131.315 247.683 132.72 247.68Z" fill="#00A688"/>
<path opacity="0.4" d="M132.72 247.68H256L263.7 255.68V207.17C263.7 204.332 262.573 201.611 260.566 199.604C258.559 197.597 255.838 196.47 253 196.47H132.72C131.313 196.467 129.92 196.742 128.619 197.279C127.319 197.815 126.137 198.603 125.141 199.597C124.145 200.591 123.355 201.771 122.816 203.071C122.277 204.37 122 205.763 122 207.17V237C122.003 238.405 122.282 239.796 122.822 241.093C123.362 242.39 124.153 243.568 125.148 244.56C126.144 245.552 127.325 246.338 128.624 246.873C129.923 247.408 131.315 247.683 132.72 247.68Z" fill="white"/>
<path d="M249 209H138" stroke="#00A688" stroke-width="2" stroke-linecap="round" stroke-linejoin="round"/>
<path d="M249 221H138" stroke="#00A688" stroke-width="2" stroke-linecap="round" stroke-linejoin="round"/>
<path d="M227 233H138" stroke="#00A688" stroke-width="2" stroke-linecap="round" stroke-linejoin="round"/>
<path opacity="0.3" d="M132.72 247.68H256L263.7 255.68V207.17C263.7 204.332 262.573 201.611 260.566 199.604C258.559 197.597 255.838 196.47 253 196.47H132.72C131.313 196.467 129.92 196.742 128.619 197.279C127.319 197.815 126.137 198.603 125.141 199.597C124.145 200.591 123.355 201.771 122.816 203.071C122.277 204.37 122 205.763 122 207.17V237C122.003 238.405 122.282 239.796 122.822 241.093C123.362 242.39 124.153 243.568 125.148 244.56C126.144 245.552 127.325 246.338 128.624 246.873C129.923 247.408 131.315 247.683 132.72 247.68Z" fill="white"/>
<path d="M221 180.68H97.73L90.03 188.68V140.17C90.03 137.334 91.1559 134.614 93.1604 132.607C95.1649 130.601 97.8839 129.473 100.72 129.47H221C223.836 129.473 226.555 130.601 228.56 132.607C230.564 134.614 231.69 137.334 231.69 140.17V170C231.685 172.833 230.556 175.548 228.553 177.55C226.549 179.552 223.833 180.677 221 180.68Z" fill="#F99942"/>
<path d="M137 142H216" stroke="white" stroke-width="2" stroke-linecap="round" stroke-linejoin="round"/>
<path d="M137 154H216" stroke="white" stroke-width="2" stroke-linecap="round" stroke-linejoin="round"/>
<path d="M137 166H194" stroke="white" stroke-width="2" stroke-linecap="round" stroke-linejoin="round"/>
<path d="M176.72 113.68H256L263.7 121.68V83.17C263.697 80.3339 262.569 77.6149 260.562 75.6104C258.556 73.6059 255.836 72.48 253 72.48H176.72C175.314 72.4774 173.921 72.7519 172.621 73.2878C171.322 73.8237 170.14 74.6106 169.145 75.6033C168.149 76.5961 167.359 77.7754 166.819 79.0737C166.28 80.3721 166.001 81.764 166 83.17V103C166.003 104.405 166.282 105.796 166.822 107.093C167.362 108.39 168.153 109.568 169.148 110.56C170.144 111.552 171.325 112.338 172.624 112.873C173.923 113.408 175.315 113.683 176.72 113.68Z" fill="#00A688"/>
<path opacity="0.4" d="M176.72 113.68H256L263.7 121.68V83.17C263.697 80.3339 262.569 77.6149 260.562 75.6104C258.556 73.6059 255.836 72.48 253 72.48H176.72C175.314 72.4774 173.921 72.7519 172.621 73.2878C171.322 73.8237 170.14 74.6106 169.145 75.6033C168.149 76.5961 167.359 77.7754 166.819 79.0737C166.28 80.3721 166.001 81.764 166 83.17V103C166.003 104.405 166.282 105.796 166.822 107.093C167.362 108.39 168.153 109.568 169.148 110.56C170.144 111.552 171.325 112.338 172.624 112.873C173.923 113.408 175.315 113.683 176.72 113.68Z" fill="white"/>
<path d="M249 87H182" stroke="#00A688" stroke-width="2" stroke-linecap="round" stroke-linejoin="round"/>
<path d="M227 99H182" stroke="#00A688" stroke-width="2" stroke-linecap="round" stroke-linejoin="round"/>
<path opacity="0.3" d="M176.72 113.68H256L263.7 121.68V83.17C263.697 80.3339 262.569 77.6149 260.562 75.6104C258.556 73.6059 255.836 72.48 253 72.48H176.72C175.314 72.4774 173.921 72.7519 172.621 73.2878C171.322 73.8237 170.14 74.6106 169.145 75.6033C168.149 76.5961 167.359 77.7754 166.819 79.0737C166.28 80.3721 166.001 81.764 166 83.17V103C166.003 104.405 166.282 105.796 166.822 107.093C167.362 108.39 168.153 109.568 169.148 110.56C170.144 111.552 171.325 112.338 172.624 112.873C173.923 113.408 175.315 113.683 176.72 113.68Z" fill="white"/>
<path d="M127.41 146C127.41 150.945 125.944 155.778 123.197 159.889C120.45 164.001 116.545 167.205 111.977 169.097C107.409 170.989 102.382 171.484 97.5327 170.52C92.6832 169.555 88.2286 167.174 84.7323 163.678C81.236 160.181 78.855 155.727 77.8904 150.877C76.9257 146.028 77.4208 141.001 79.313 136.433C81.2052 131.865 84.4095 127.96 88.5207 125.213C92.632 122.466 97.4655 121 102.41 121C105.699 120.979 108.959 121.611 112.002 122.86C115.045 124.109 117.809 125.949 120.135 128.275C122.461 130.601 124.301 133.365 125.55 136.408C126.799 139.451 127.431 142.711 127.41 146Z" fill="#F99942"/>
<path opacity="0.5" d="M127.41 146C127.41 150.945 125.944 155.778 123.197 159.889C120.45 164.001 116.545 167.205 111.977 169.097C107.409 170.989 102.382 171.484 97.5327 170.52C92.6832 169.555 88.2286 167.174 84.7323 163.678C81.236 160.181 78.855 155.727 77.8904 150.877C76.9257 146.028 77.4208 141.001 79.313 136.433C81.2052 131.865 84.4095 127.96 88.5207 125.213C92.632 122.466 97.4655 121 102.41 121C105.699 120.979 108.959 121.611 112.002 122.86C115.045 124.109 117.809 125.949 120.135 128.275C122.461 130.601 124.301 133.365 125.55 136.408C126.799 139.451 127.431 142.711 127.41 146Z" fill="white"/>
<path d="M120.6 163.12C118.292 165.566 115.514 167.52 112.432 168.866C109.351 170.211 106.029 170.919 102.666 170.948C99.3035 170.977 95.9698 170.326 92.8652 169.034C89.7606 167.742 86.9493 165.836 84.6 163.43C85.77 163.21 87.04 162.98 88.34 162.78C89.44 162.6 90.58 162.43 91.7 162.3C97.6177 161.542 103.574 161.128 109.54 161.06C110.27 161.06 110.99 161.14 111.71 161.14C113.57 161.25 115.34 161.44 116.87 161.63C118.221 161.796 119.506 162.31 120.6 163.12Z" fill="#2E353A"/>
<path d="M115.05 127.42C115.05 127.42 116.38 136.33 110.63 140.5C104.88 144.67 104.88 124.5 104.88 124.5L115.05 127.42Z" fill="#2E353A"/>
<path d="M91.67 162.25C95.5 165.73 104.88 164.44 104.88 164.44C104.88 164.44 110.74 162.84 109.51 161.01C106.06 160.44 104.39 158.83 103.7 156.77C103.322 155.493 103.203 154.154 103.35 152.83C103.407 152.092 103.504 151.358 103.64 150.63L92 142C93.56 147.71 95.42 158.14 91.67 162.25Z" fill="#E4897B"/>
<path opacity="0.2" d="M94.72 147.5C95.18 154.5 100.9 156.38 103.72 156.77C103.342 155.493 103.223 154.154 103.37 152.83L94.72 147.5Z" fill="black"/>
<path d="M93.94 149.11C95.1451 150.894 96.9024 152.232 98.9419 152.921C100.981 153.609 103.191 153.609 105.23 152.92C107.882 152.075 110.116 150.256 111.48 147.83C111.67 147.506 111.844 147.172 112 146.83C114.83 140.21 115.73 128.63 108.73 124.29C107.191 123.323 105.43 122.766 103.615 122.672C101.8 122.577 99.9903 122.948 98.359 123.75C96.7277 124.552 95.3284 125.757 94.2942 127.252C93.26 128.746 92.6251 130.481 92.45 132.29C91.59 140 90.72 144.53 93.94 149.11Z" fill="#E4897B"/>
<path d="M103.73 136.42C103.58 137.03 103.87 137.6 104.28 137.67C104.69 137.74 105.11 137.29 105.22 136.67C105.33 136.05 105.07 135.49 104.67 135.42C104.27 135.35 103.85 135.78 103.73 136.42Z" fill="#2E353A"/>
<path d="M110.8 137.62C110.65 138.23 110.94 138.81 111.35 138.88C111.76 138.95 112.17 138.49 112.28 137.88C112.39 137.27 112.14 136.69 111.73 136.62C111.32 136.55 110.9 137 110.8 137.62Z" fill="#2E353A"/>
<path d="M108.5 137.55C108.921 139.585 109.618 141.553 110.57 143.4C110.085 143.628 109.556 143.745 109.02 143.745C108.484 143.745 107.955 143.628 107.47 143.4L108.5 137.55Z" fill="#DE5753"/>
<path d="M101.93 133.75C101.995 133.772 102.064 133.776 102.131 133.762C102.198 133.748 102.26 133.716 102.31 133.67C102.643 133.342 103.047 133.096 103.492 132.952C103.936 132.808 104.408 132.77 104.87 132.84C104.917 132.852 104.966 132.854 105.015 132.847C105.063 132.84 105.109 132.823 105.151 132.798C105.193 132.773 105.229 132.74 105.258 132.701C105.287 132.662 105.308 132.617 105.32 132.57C105.332 132.523 105.334 132.474 105.327 132.425C105.32 132.377 105.303 132.331 105.278 132.289C105.253 132.247 105.22 132.211 105.181 132.182C105.142 132.153 105.097 132.132 105.05 132.12C104.469 132.016 103.872 132.052 103.308 132.226C102.745 132.4 102.231 132.707 101.81 133.12C101.742 133.189 101.703 133.283 101.703 133.38C101.703 133.477 101.742 133.571 101.81 133.64C101.843 133.684 101.884 133.721 101.93 133.75Z" fill="#2E353A"/>
<path d="M105.91 146.51C104.992 146.496 104.091 146.26 103.284 145.821C102.478 145.382 101.79 144.754 101.28 143.99C101.266 143.968 101.256 143.943 101.252 143.917C101.248 143.892 101.249 143.865 101.256 143.84C101.263 143.814 101.274 143.791 101.29 143.77C101.307 143.749 101.327 143.732 101.35 143.72C101.392 143.694 101.444 143.686 101.492 143.697C101.541 143.708 101.583 143.738 101.61 143.78C102.098 144.476 102.742 145.048 103.49 145.451C104.238 145.854 105.07 146.076 105.92 146.1C105.97 146.103 106.017 146.123 106.052 146.158C106.087 146.194 106.108 146.24 106.11 146.29C106.11 146.34 106.09 146.389 106.054 146.424C106.019 146.46 105.97 146.48 105.92 146.48L105.91 146.51Z" fill="#2E353A"/>
<path d="M114.25 135.7C114.313 135.74 114.386 135.76 114.46 135.76C114.508 135.747 114.552 135.725 114.591 135.695C114.63 135.665 114.662 135.628 114.687 135.585C114.711 135.542 114.726 135.495 114.732 135.446C114.738 135.397 114.734 135.347 114.72 135.3C114.567 134.729 114.28 134.203 113.881 133.766C113.483 133.329 112.985 132.994 112.43 132.79C112.383 132.775 112.334 132.769 112.285 132.774C112.237 132.778 112.189 132.792 112.146 132.816C112.103 132.839 112.065 132.871 112.035 132.91C112.005 132.948 111.983 132.993 111.97 133.04C111.956 133.087 111.952 133.136 111.957 133.184C111.962 133.232 111.976 133.279 112 133.322C112.023 133.365 112.054 133.402 112.092 133.433C112.13 133.463 112.173 133.486 112.22 133.5C112.651 133.673 113.037 133.943 113.345 134.29C113.654 134.638 113.878 135.052 114 135.5C114.023 135.551 114.057 135.596 114.101 135.63C114.144 135.665 114.195 135.689 114.25 135.7Z" fill="#2E353A"/>
<path d="M93.38 157.83L104.47 162.83L105.12 158.83L109.19 160.26C109.903 160.507 110.511 160.989 110.914 161.627C111.318 162.264 111.492 163.02 111.41 163.77L110.95 168.17L105.33 165.09L102.53 169.09L89.21 162.68L93.38 157.83Z" fill="#F99942"/>
<path d="M102.44 126.5C104.376 128.217 106.605 129.572 109.02 130.5L106.88 126.5C106.88 126.5 111.88 130.9 117 132.76C117 132.76 119.25 121.63 106.12 117.25C95 113.55 93 121 93 121C86 118.88 78.1 138.88 93.32 148.18C93.32 148.18 92.1 140.39 93.97 138.88C95.84 137.37 103.12 132.63 102.44 126.5Z" fill="#2E353A"/>
<path d="M88 138C88.5593 139.882 89.8387 141.466 91.56 142.41C93.85 143.64 95.56 141.72 95.4 139.27C95.24 137.08 93.89 133.74 91.4 133.55C88.91 133.36 87.37 135.68 88 138Z" fill="#E4897B"/>
<path d="M257 332V415H263V344H358V415H365V332H257Z" fill="#00A688"/>
<path opacity="0.3" d="M257 332V415H263V344H358V415H365V332H257Z" fill="black"/>
<path opacity="0.6" d="M257 332V415H263V344H358V415H365V332H257Z" fill="white"/>
<path d="M312 332V415H318V344H413V415H420V332H312Z" fill="#00A688"/>
<path opacity="0.6" d="M312 332V415H318V344H413V415H420V332H312Z" fill="white"/>
<path d="M350.12 288.4C348.78 286.2 346.58 288.12 346.58 288.12C346.89 283.89 343.01 281.01 343.01 281.01C343.01 281.01 347.52 281.01 348.15 276.7C348.78 272.39 346.58 274.4 344.51 274.37C342.44 274.34 340.28 280.37 343.01 283.77C345.74 287.17 345.01 292.97 338.71 298.54C337.202 299.948 336.071 301.712 335.42 303.67C335.9 298.55 336.17 291.33 334.66 286.52C332.1 278.33 336.98 276.13 338.39 272.04C339.8 267.95 334.66 264.48 334.66 264.48C334.66 264.48 339.49 262.28 337.13 259.76C334.77 257.24 329.89 257.58 329.89 260.88C329.89 264.18 333.2 265.43 333.2 265.43C333.2 265.43 336.98 269.36 336.98 271.43C336.98 273.5 333.2 277.88 333.2 277.88C333.2 277.88 334.93 274.11 331.47 273.95C328.01 273.79 326.9 278.35 328.32 280.4C329.74 282.45 332.1 280.71 332.1 280.71C332.245 283.098 332.606 285.468 333.18 287.79C333.53 288.97 333.37 293.59 333.07 298.39C332.412 296.656 331.361 295.099 330 293.84C323.71 288.27 323 282.47 325.7 279.07C328.4 275.67 326.27 269.64 324.2 269.67C322.13 269.7 319.93 267.67 320.56 272C321.19 276.33 325.7 276.31 325.7 276.31C325.7 276.31 321.82 279.19 322.13 283.42C322.13 283.42 319.93 281.5 318.59 283.7C316.2 287.64 321.74 290.08 322.67 288.14C322.67 288.14 334.41 296.45 331.58 308.41L332.24 309.41C332.15 310.41 332.1 310.96 332.1 310.96L333.02 310.57L334.02 312.11C333.984 313.847 334.075 315.585 334.29 317.31L337.09 313.16C334.26 301.16 346 292.89 346 292.89C347 294.78 352.51 292.34 350.12 288.4Z" fill="#00A688"/>
<path opacity="0.2" d="M350.12 288.4C348.78 286.2 346.58 288.12 346.58 288.12C346.89 283.89 343.01 281.01 343.01 281.01C343.01 281.01 347.52 281.01 348.15 276.7C348.78 272.39 346.58 274.4 344.51 274.37C342.44 274.34 340.28 280.37 343.01 283.77C345.74 287.17 345.01 292.97 338.71 298.54C337.202 299.948 336.071 301.712 335.42 303.67C335.9 298.55 336.17 291.33 334.66 286.52C332.1 278.33 336.98 276.13 338.39 272.04C339.8 267.95 334.66 264.48 334.66 264.48C334.66 264.48 339.49 262.28 337.13 259.76C334.77 257.24 329.89 257.58 329.89 260.88C329.89 264.18 333.2 265.43 333.2 265.43C333.2 265.43 336.98 269.36 336.98 271.43C336.98 273.5 333.2 277.88 333.2 277.88C333.2 277.88 334.93 274.11 331.47 273.95C328.01 273.79 326.9 278.35 328.32 280.4C329.74 282.45 332.1 280.71 332.1 280.71C332.245 283.098 332.606 285.468 333.18 287.79C333.53 288.97 333.37 293.59 333.07 298.39C332.412 296.656 331.361 295.099 330 293.84C323.71 288.27 323 282.47 325.7 279.07C328.4 275.67 326.27 269.64 324.2 269.67C322.13 269.7 319.93 267.67 320.56 272C321.19 276.33 325.7 276.31 325.7 276.31C325.7 276.31 321.82 279.19 322.13 283.42C322.13 283.42 319.93 281.5 318.59 283.7C316.2 287.64 321.74 290.08 322.67 288.14C322.67 288.14 334.41 296.45 331.58 308.41L332.24 309.41C332.15 310.41 332.1 310.96 332.1 310.96L333.02 310.57L334.02 312.11C333.984 313.847 334.075 315.585 334.29 317.31L337.09 313.16C334.26 301.16 346 292.89 346 292.89C347 294.78 352.51 292.34 350.12 288.4Z" fill="black"/>
<path d="M343.01 332L339.22 310.31L340.29 304H328.36L329.43 310.31L325.65 332H343.01Z" fill="#00A688"/>
<path opacity="0.2" d="M343.01 332L339.22 310.31L340.29 304H328.36L329.43 310.31L325.65 332H343.01Z" fill="white"/>
<path d="M317.93 311.67H299.56V332H317.93V311.67Z" fill="#00A688"/>
<path opacity="0.3" d="M317.93 311.67H299.56V332H317.93V311.67Z" fill="white"/>
<path d="M318.88 309H298.63V314.77H318.88V309Z" fill="#00A688"/>
<path opacity="0.1" d="M318.88 309H298.63V314.77H318.88V309Z" fill="white"/>
<path d="M118.63 406.86L118.94 413.62L128.4 414.3L137.08 414.91L138.02 406.83L127.76 406.84L118.63 406.86Z" fill="#E4897B"/>
<path d="M119.44 415C120.18 414.95 119.18 405.83 119.18 405.83C119.18 405.83 113.18 400.46 111.67 395.04C110.16 389.62 106.99 392.84 107.27 398.95C107.55 405.06 107.75 409.73 107.95 414.07C108.15 418.41 111.73 415.57 119.44 415Z" fill="#2E353A"/>
<path d="M118.17 405H118C118 405 118 405 118 404.93C117.69 404.33 116.15 401.32 116.87 400.37C116.988 400.226 117.147 400.123 117.327 400.074C117.506 400.026 117.696 400.035 117.87 400.1C118.003 400.13 118.129 400.188 118.239 400.269C118.349 400.35 118.441 400.452 118.51 400.57C118.799 401.194 118.909 401.887 118.83 402.57C119.19 401.8 119.65 401.13 120.13 401.08C120.44 401.08 120.71 401.24 120.92 401.65C121.023 401.827 121.085 402.025 121.1 402.23C121.116 402.434 121.085 402.639 121.01 402.83C120.55 404.09 118.47 404.94 118.36 404.99L118.17 405ZM120.09 402C119.68 402 119.02 403.17 118.57 404.55C119.372 404.171 120.036 403.553 120.47 402.78C120.518 402.679 120.537 402.568 120.526 402.457C120.516 402.346 120.476 402.24 120.41 402.15C120.376 402.097 120.328 402.055 120.272 402.029C120.215 402.002 120.152 401.992 120.09 402ZM117.46 400.52C117.409 400.514 117.358 400.521 117.311 400.54C117.264 400.559 117.222 400.59 117.19 400.63C116.86 401.08 117.44 402.73 118.07 404.05C118.25 403.05 118.41 401.44 118.01 400.79C117.972 400.729 117.922 400.677 117.864 400.636C117.806 400.595 117.74 400.565 117.67 400.55L117.46 400.52Z" fill="#00A688"/>
<path opacity="0.2" d="M127.55 406.85L128.21 414.31L136.99 414.92L137.97 406.83L127.55 406.85Z" fill="black"/>
<path d="M107.61 404.85L109.75 411.26L119.04 409.35L127.56 407.57L126.26 399.54L116.39 402.35L107.61 404.85Z" fill="#E4897B"/>
<path d="M110.62 412.5C111.32 412.25 107.87 403.74 107.87 403.74C107.87 403.74 100.66 400.2 97.71 395.41C94.76 390.62 92.6 394.57 94.53 400.41C96.46 406.25 97.94 410.65 99.31 414.78C100.68 418.91 103.34 415.11 110.62 412.5Z" fill="#2E353A"/>
<path d="M106.6 403.13C106.6 403.13 106.6 403.13 106.54 403.13C106.508 403.123 106.48 403.105 106.46 403.08C105.99 402.6 103.69 400.13 104.11 399.02C104.182 398.855 104.303 398.716 104.457 398.623C104.611 398.53 104.79 398.487 104.97 398.5C105.105 398.492 105.241 398.512 105.368 398.559C105.495 398.605 105.611 398.677 105.71 398.77C106.169 399.302 106.468 399.954 106.57 400.65C106.72 399.82 106.97 399.05 107.42 398.87C107.71 398.75 108.02 398.87 108.34 399.2C108.484 399.344 108.595 399.518 108.664 399.71C108.733 399.902 108.759 400.107 108.74 400.31C108.64 401.65 106.86 403.06 106.74 403.12H107V403H106.86C106.86 403 106.65 403.13 106.6 403.13ZM107.6 399.36C107.22 399.51 106.96 400.98 106.9 402.43C107.569 401.889 108.048 401.15 108.27 400.32C108.279 400.183 108.259 400.046 108.213 399.917C108.167 399.788 108.094 399.67 108 399.57C107.87 399.49 107.73 399.36 107.61 399.36H107.6ZM105 399C104.63 399 104.58 399.16 104.56 399.21C104.36 399.73 105.37 401.16 106.34 402.26C106.23 401.21 105.96 399.65 105.34 399.14C105.248 399.053 105.127 399.004 105 399Z" fill="#00A688"/>
<path opacity="0.2" d="M116.19 402.41L118.86 409.4L127.47 407.6L126.22 399.56L116.19 402.41Z" fill="black"/>
<path d="M257.37 415.11C234 415.11 207.92 400.96 196.37 396.8C194.868 396.145 193.265 395.756 191.63 395.65C186.56 395.89 149.06 404.56 131.35 408.71H131.27L122.13 410.87L119.13 400.09C119.13 400.09 186.67 365 196 366.86C203.08 368.28 223 373.58 232.24 376.05L237 377.33L243 367L276 369.53C276 369.53 285 415.11 257.37 415.11Z" fill="#2E353A"/>
<path d="M130.11 402.88L132.76 415.76L195 414.92C195 414.92 240.07 415.11 257.37 415.11C274.67 415.11 258.32 384 258.32 384L130.11 402.88Z" fill="#2E353A"/>
<path opacity="0.2" d="M243 367L242.22 388.41L196.41 396.81L131.41 408.72L200.66 385.72L236.86 387.15C236.634 383.032 235.011 379.113 232.26 376.04L237.02 377.32L243 367Z" fill="black"/>
<path d="M276 364.68V369.52L243 366.99V361.27L276 364.68Z" fill="#00A688"/>
<path opacity="0.4" d="M276 364.68V369.52L243 366.99V361.27L276 364.68Z" fill="black"/>
<path d="M264.662 371.003L266.3 371.087L266.725 362.748L265.087 362.664L264.662 371.003Z" fill="#2E353A"/>
<path d="M250.342 367.911L257.553 368.557L258.043 363.089L250.832 362.443L250.342 367.911Z" fill="#00A688"/>
<path d="M244.523 368.778L246.161 368.861L246.587 360.522L244.949 360.438L244.523 368.778Z" fill="#2E353A"/>
<path opacity="0.6" d="M250.342 367.911L257.553 368.557L258.043 363.089L250.832 362.443L250.342 367.911Z" fill="white"/>
<path d="M225.13 314.75C225.13 314.75 220.93 315 220.84 315.75C220.75 316.5 221.5 322.61 222.13 323.43C222.803 324.164 223.558 324.818 224.38 325.38L222 334.75L227.38 336.97L228.88 326.83C228.88 326.83 231.25 324.13 230.25 321C229.25 317.87 225.13 314.75 225.13 314.75Z" fill="#E4897B"/>
<path opacity="0.2" d="M225.13 314.75C225.13 314.75 220.93 315 220.84 315.75C220.75 316.5 221.5 322.61 222.13 323.43C222.803 324.164 223.558 324.818 224.38 325.38L222 334.75L227.38 336.97L228.88 326.83C228.88 326.83 231.25 324.13 230.25 321C229.25 317.87 225.13 314.75 225.13 314.75Z" fill="black"/>
<path d="M276 282.83C276 282.83 284 297.09 274.47 316.39" stroke="#2E353A" stroke-width="0.5" stroke-linecap="round" stroke-linejoin="round"/>
<path d="M250.48 324L247.7 338.2L246.87 339.1C244.17 341.98 235.44 350.95 228.21 354.31C225.05 355.78 222.21 356.17 220.21 354.5C212.94 348.25 222.21 326.83 222.21 326.83L230.5 330L229.83 338.93L238.83 319L250.48 324Z" fill="#00A688"/>
<path opacity="0.2" d="M246.87 339.1C244.17 341.98 235.44 350.95 228.21 354.31C239.32 348 242.21 334.17 242.21 334.17L246.87 339.1Z" fill="black"/>
<path d="M268.68 273.67C274.55 274.8 280.68 285.82 277.83 300.16C275.889 309.393 272.816 318.35 268.68 326.83L250.48 324C250.48 324 247 269.5 268.68 273.67Z" fill="#2E353A"/>
<path d="M243.05 361.85L276.05 364.7C276.83 352.43 277.62 344.52 284.88 322.65L285.98 319.37C286.105 319.002 286.153 318.612 286.123 318.225C286.092 317.838 285.984 317.461 285.803 317.117C285.623 316.773 285.374 316.469 285.073 316.223C284.772 315.978 284.424 315.797 284.05 315.69C280.498 314.681 276.892 313.869 273.25 313.26C268.353 312.391 263.401 311.87 258.43 311.7C252 311.65 244.63 312.37 244.63 312.37C244.63 312.37 243.63 312.62 242.92 319.43C242.31 325.82 241.72 338.6 243.05 361.85Z" fill="#00A688"/>
<path d="M265.07 311.69C270.656 312.433 276.188 313.539 281.63 315C281.63 315 261.22 325.72 237.81 321.17C237.81 321.17 240.75 312.78 244.63 312.34C251.23 311.62 260 311.16 265.07 311.69Z" fill="#E4897B"/>
<path d="M268.62 276.28C268.62 276.28 269.99 270 259.91 269.17C249.83 268.34 238.83 279.09 241.67 294.17C244.51 309.25 248.79 313.45 245.55 321.96C242.31 330.47 245.95 332.79 248.89 334.13C248.89 334.13 246.89 332.29 247.7 330.13C248.51 327.97 255.79 326.94 255.56 318.95C255.33 310.96 264.56 310.63 264.56 310.63L268.62 276.28Z" fill="#2E353A"/>
<path d="M271.73 314.47C271.73 314.47 269.28 318 261.15 319C261.15 319 257.15 316.35 258.83 313.13C258.83 313.13 260.59 312.58 260.97 309.78C261.149 307.805 260.893 305.815 260.22 303.95C260.13 303.65 260.02 303.33 259.91 303.01L270.19 296.58C270.19 296.58 266.57 309.6 271.73 314.47Z" fill="#E4897B"/>
<path opacity="0.2" d="M267.88 300.3C267.88 300.3 267.33 307.65 260.97 309.77C261.149 307.795 260.893 305.805 260.22 303.94C264 302 267.88 300.3 267.88 300.3Z" fill="black"/>
<path d="M257.37 276.22C248.97 277.65 247.03 282.61 247.89 291.38C248.97 302.33 252.68 309.61 262.79 305.5C276.53 299.93 271.32 273.84 257.37 276.22Z" fill="#E4897B"/>
<path d="M253.24 290C252.781 291.369 252.16 292.679 251.39 293.9C251.696 294.204 252.08 294.419 252.5 294.519C252.92 294.62 253.359 294.603 253.77 294.47L253.24 290Z" fill="#DE5753"/>
<path d="M258.27 288.41C258.37 289.11 258.83 289.61 259.27 289.55C259.71 289.49 260.02 288.86 259.92 288.17C259.82 287.48 259.36 286.97 258.92 287.04C258.48 287.11 258.17 287.72 258.27 288.41Z" fill="#2E353A"/>
<path d="M259.12 287L257.53 286.63C257.53 286.63 258.46 287.83 259.12 287Z" fill="#2E353A"/>
<path d="M249.63 289.53C249.74 290.23 250.19 290.73 250.63 290.67C251.07 290.61 251.39 289.98 251.29 289.29C251.19 288.6 250.73 288.09 250.29 288.16C249.85 288.23 249.53 288.84 249.63 289.53Z" fill="#2E353A"/>
<path d="M250.48 288.16L248.89 287.79C248.89 287.79 249.83 289 250.48 288.16Z" fill="#2E353A"/>
<path d="M257.36 282.6C258.01 282.405 258.696 282.363 259.366 282.476C260.035 282.588 260.669 282.853 261.22 283.25" stroke="#2E353A" stroke-width="0.72468" stroke-linecap="round" stroke-linejoin="round"/>
<path d="M251.2 283.29C250.6 283.243 249.997 283.331 249.436 283.55C248.875 283.768 248.37 284.11 247.96 284.55" stroke="#2E353A" stroke-width="0.72468" stroke-linecap="round" stroke-linejoin="round"/>
<path d="M255.56 297.55C256.106 298.431 256.587 299.35 257 300.3L257.53 300.16C259.93 299.49 260.83 298.39 261.09 297.37C261.216 296.871 261.216 296.349 261.09 295.85C261.028 295.564 260.927 295.288 260.79 295.03C259.494 296.105 257.978 296.883 256.35 297.31C255.88 297.47 255.56 297.55 255.56 297.55Z" fill="#2E353A"/>
<path d="M256.38 297.31L256.83 298.11C259.1 297.48 260.6 296.73 261.12 295.85C261.058 295.564 260.957 295.288 260.82 295.03C259.524 296.105 258.008 296.883 256.38 297.31Z" fill="white"/>
<path d="M257.57 300.16C259.97 299.49 260.87 298.39 261.13 297.37C260.222 297.642 259.369 298.072 258.61 298.64C258.116 299.028 257.753 299.559 257.57 300.16Z" fill="#DE5753"/>
<path d="M269 288.81C269 288.81 263.89 282.58 263.58 277.15C263.58 277.15 245.77 273.15 247.83 290.23C247.83 290.23 243.64 275.5 258.03 272.7C272.42 269.9 275.96 291.04 269.58 298.61C269.55 298.61 272.14 292.72 269 288.81Z" fill="#2E353A"/>
<path d="M267.9 290.82C267.817 289.834 268.126 288.856 268.761 288.097C269.396 287.338 270.305 286.861 271.29 286.77C273.95 286.61 276.1 291.77 269.84 294.14C268.94 294.48 268.26 293.66 267.9 290.82Z" fill="#E4897B"/>
<path d="M253.77 271C253.77 271 235.26 279 241.21 301.67C247.16 324.34 243 323.67 243 323.67" stroke="#2E353A" stroke-width="0.5" stroke-linecap="round" stroke-linejoin="round"/>
<path d="M233.9 321.08C233.914 321.196 233.903 321.315 233.868 321.427C233.833 321.539 233.774 321.642 233.695 321.729C233.616 321.817 233.52 321.886 233.412 321.933C233.304 321.979 233.187 322.002 233.07 322H223.93C223.681 321.99 223.444 321.892 223.261 321.723C223.078 321.555 222.961 321.327 222.93 321.08L220.88 303.08C220.86 302.838 220.936 302.598 221.091 302.411C221.246 302.224 221.469 302.105 221.71 302.08H230.85C231.102 302.116 231.336 302.233 231.516 302.413C231.697 302.594 231.814 302.827 231.85 303.08L233.9 321.08Z" fill="#2E353A"/>
<path opacity="0.5" d="M230.84 302.92L232.91 321.14C232.937 321.246 232.939 321.357 232.915 321.464C232.891 321.571 232.841 321.671 232.771 321.755C232.7 321.839 232.611 321.905 232.51 321.948C232.409 321.99 232.299 322.008 232.19 322H224.44C223.92 322 222.97 321.71 222.91 321.2L220.84 302.92C220.78 302.41 221.67 302 222.19 302H229.94C230.179 302.01 230.405 302.111 230.572 302.282C230.739 302.453 230.835 302.681 230.84 302.92Z" fill="white"/>
<path d="M242.25 328.88L237.54 323.67C237.54 323.67 236 315.25 235.54 314.38C235.08 313.51 228.17 314.38 227.42 314.38C226.67 314.38 227.42 322.84 228.25 323.67C229.08 324.5 231.92 325 231.92 325L237.58 332.88L242.25 328.88Z" fill="#E4897B"/>
<path d="M285.94 317.57C291 332.25 269.25 357.35 258.75 357.57C248.25 357.79 233.25 329.77 233.25 329.77L240.12 325.52C240.12 325.52 257.57 341.52 259.91 341.77C261.23 341.91 273.91 321.82 280.63 317.46C284.38 315 285.94 317.57 285.94 317.57Z" fill="#00A688"/>
<path opacity="0.1" d="M285.94 317.57C291 332.25 269.25 357.35 258.75 357.57C248.25 357.79 233.25 329.77 233.25 329.77L240.12 325.52C240.12 325.52 257.57 341.52 259.91 341.77C261.23 341.91 273.91 321.82 280.63 317.46C284.38 315 285.94 317.57 285.94 317.57Z" fill="black"/>
<path d="M290.39 391.75H269.01V417.09H290.39V391.75Z" fill="#00A688"/>
<path opacity="0.2" d="M290.39 391.75H269.01V417.09H290.39V391.75Z" fill="white"/>
<path d="M291.32 389.08H268.07V394.85H291.32V389.08Z" fill="#00A688"/>
</svg>
