<svg width="306" height="306" viewBox="0 0 306 306" fill="none" xmlns="http://www.w3.org/2000/svg">
<path d="M153 261.667C218.534 261.667 271.661 258.565 271.661 254.739C271.661 250.913 218.534 247.811 153 247.811C87.4655 247.811 34.3393 250.913 34.3393 254.739C34.3393 258.565 87.4655 261.667 153 261.667Z" fill="#F5F5F5"/>
<path d="M147.376 74.4192L137.884 213.031H253.625L264.109 59.8965H162.896L147.376 74.4192Z" fill="#F99942"/>
<path opacity="0.8" d="M147.376 74.4192L137.884 213.031H253.625L264.109 59.8965H162.896L147.376 74.4192Z" fill="white"/>
<path d="M244.154 106.694C251.951 99.1588 252.567 87.1474 245.53 79.8656C238.493 72.5837 226.468 72.7888 218.671 80.3237C210.873 87.8586 210.257 99.8699 217.294 107.152C224.331 114.434 236.357 114.229 244.154 106.694Z" fill="#F99942"/>
<path d="M243.482 105.998C250.868 98.8604 251.452 87.4821 244.786 80.5843C238.121 73.6864 226.729 73.881 219.343 81.019C211.956 88.1569 211.372 99.5352 218.038 106.433C224.704 113.331 236.095 113.136 243.482 105.998Z" fill="white"/>
<mask id="mask0" mask-type="alpha" maskUnits="userSpaceOnUse" x="205" y="68" width="52" height="51">
<path d="M243.482 105.998C250.868 98.8604 251.452 87.4821 244.786 80.5843C238.121 73.6864 226.729 73.881 219.343 81.019C211.956 88.1569 211.372 99.5352 218.038 106.433C224.704 113.331 236.095 113.136 243.482 105.998Z" fill="white"/>
</mask>
<g mask="url(#mask0)">
<path d="M226.691 99.756L223.154 99.5234C223.154 99.5234 221.507 107.994 220.455 108.703C219.016 109.701 216.171 112.112 214.28 112.987C214.084 113.56 214.044 114.175 214.163 114.768C217.101 114.768 222.535 111.843 223.472 110.57C225.62 107.712 226.691 99.756 226.691 99.756Z" fill="#FFC3BD"/>
<path d="M228.38 94.444C229.451 96.4391 226.116 103.624 226.116 103.624L221.575 102.204C221.705 99.9951 222.216 97.8252 223.086 95.7904C224.212 93.4464 227.205 92.253 228.38 94.444Z" fill="#263238"/>
<path opacity="0.2" d="M224.91 98.116C225.522 99.5603 224.72 103.049 224.09 105.258C222.554 102.626 222.34 100.178 224.91 98.116Z" fill="black"/>
<path d="M224.892 94.7988C224.194 97.3509 222.823 104.052 223.943 114.573H235.895C236.171 112.571 235.822 102.798 238.631 93.3668C237.207 93.085 235.765 92.901 234.316 92.816C232.47 92.7088 230.618 92.7088 228.772 92.816C227.983 92.8892 227.203 93.0325 226.44 93.2444C226.069 93.3467 225.731 93.5439 225.46 93.8165C225.188 94.089 224.993 94.4276 224.892 94.7988Z" fill="#263238"/>
<path opacity="0.2" d="M235.583 95.6925C235.222 97.247 235.363 100.962 236.446 105.258C236.767 101.558 237.408 97.8927 238.362 94.3033C237.511 94.1992 235.926 94.2482 235.583 95.6925Z" fill="black"/>
<path d="M234.072 87.6262C233.558 89.4133 233.178 91.6226 234.316 92.816C234.316 92.816 233.429 94.652 230.118 94.652C227.089 94.652 228.772 92.816 228.772 92.816C230.804 92.3386 230.932 89.8784 230.712 88.4953L234.072 87.6262Z" fill="#FFC3BD"/>
<path d="M230.112 94.6214C230.421 95.14 230.586 95.7315 230.589 96.335C230.589 96.335 234.873 94.8723 234.873 92.7242C234.873 92.7242 234.316 92.3754 233.968 92.1122C233.98 92.0939 233.692 93.7646 230.112 94.6214Z" fill="white"/>
<path d="M229.996 94.6215C229.61 95.0875 229.323 95.6267 229.151 96.2066C228.646 95.8205 228.278 95.2839 228.098 94.6743C227.919 94.0648 227.938 93.414 228.154 92.8161C228.509 92.6737 228.876 92.5591 229.249 92.4734C229.249 92.4734 228.729 94.1625 229.996 94.6215Z" fill="white"/>
<path opacity="0.2" d="M230.724 88.4953C230.9 89.4782 230.801 90.4908 230.436 91.4206C230.752 91.3755 231.059 91.2848 231.348 91.1513C232.523 90.6189 233.154 89.7866 233.845 88.5565C233.913 88.2382 233.998 87.9445 234.084 87.6262L230.724 88.4953Z" fill="black"/>
<path d="M227.817 86.8428C227.908 87.1138 228.054 87.3628 228.247 87.5736C228.44 87.7844 228.675 87.9524 228.937 88.0668C229.653 88.3728 230.161 87.718 230.118 86.9652C230.075 86.2125 229.622 85.3067 228.833 85.319C228.655 85.3275 228.482 85.3777 228.326 85.4655C228.171 85.5533 228.039 85.6763 227.94 85.8245C227.842 85.9728 227.779 86.1421 227.758 86.319C227.736 86.4959 227.756 86.6753 227.817 86.8428Z" fill="#FFC3BD"/>
<path opacity="0.2" d="M227.817 86.8428C227.908 87.1138 228.054 87.3628 228.247 87.5736C228.44 87.7844 228.675 87.9524 228.937 88.0668C229.653 88.3728 230.161 87.718 230.118 86.9652C230.075 86.2125 229.622 85.3067 228.833 85.319C228.655 85.3275 228.482 85.3777 228.326 85.4655C228.171 85.5533 228.039 85.6763 227.94 85.8245C227.842 85.9728 227.779 86.1421 227.758 86.319C227.736 86.4959 227.756 86.6753 227.817 86.8428Z" fill="black"/>
<path d="M231.018 81.8428C230.785 80.429 228.698 82.9138 229.145 84.2234C229.592 85.5331 231.275 83.434 231.018 81.8428Z" fill="#263238"/>
<path d="M235.485 85.4291C234.72 87.7976 234.39 89.2113 232.891 90.2272C232.437 90.5742 231.893 90.7835 231.324 90.8303C230.755 90.8771 230.184 90.7594 229.68 90.4912C229.176 90.223 228.759 89.8156 228.48 89.3174C228.201 88.8193 228.07 88.2514 228.105 87.6813C228.166 85.4414 229.408 81.9469 231.942 81.3961C234.476 80.8453 236.232 83.0607 235.485 85.4291Z" fill="#FFC3BD"/>
<path d="M234.788 84.0277C232.205 83.6605 228.496 83.1831 229.843 81.0717C231.122 79.0582 236.226 79.4254 234.678 80.319C236.679 80.4352 239.225 81.3961 237.303 82.057C238.851 83.1586 238.239 86.1085 235.283 87.1366C234.433 85.9004 233.784 85.3557 234.788 84.0277Z" fill="#263238"/>
<path d="M235.853 88.2506C235.416 88.6979 234.83 88.9682 234.206 89.0094C233.398 89.0523 233.245 88.2812 233.68 87.6141C234.115 86.947 234.959 86.2677 235.669 86.5431C236.379 86.8185 236.397 87.6875 235.853 88.2506Z" fill="#FFC3BD"/>
<path d="M231.77 85.4782C231.722 85.674 231.581 85.8087 231.452 85.7903C231.324 85.772 231.269 85.5945 231.324 85.3986C231.379 85.2028 231.513 85.062 231.636 85.0865C231.758 85.111 231.826 85.2823 231.77 85.4782Z" fill="#263238"/>
<path d="M229.622 85.0987C229.573 85.2945 229.433 85.4353 229.31 85.4108C229.188 85.3863 229.127 85.215 229.176 85.0191C229.225 84.8233 229.365 84.6886 229.494 84.707C229.622 84.7254 229.678 84.9028 229.622 85.0987Z" fill="#263238"/>
<path d="M230.283 85.3188C229.899 85.8747 229.447 86.3804 228.937 86.8244C229.046 86.9422 229.18 87.0333 229.33 87.0907C229.479 87.148 229.64 87.17 229.8 87.1549L230.283 85.3188Z" fill="#ED847E"/>
<path d="M230.216 87.7915C230.209 87.7901 230.202 87.7872 230.196 87.783C230.189 87.7788 230.184 87.7733 230.18 87.767C230.176 87.7608 230.173 87.7537 230.172 87.7463C230.171 87.739 230.171 87.7314 230.173 87.7242C230.178 87.7092 230.188 87.6963 230.202 87.6875C230.215 87.6786 230.231 87.6743 230.247 87.6752C230.491 87.7183 230.743 87.706 230.982 87.6393C231.221 87.5725 231.443 87.4531 231.63 87.2897C231.635 87.2843 231.641 87.2801 231.648 87.2771C231.655 87.2742 231.662 87.2727 231.67 87.2727C231.677 87.2727 231.684 87.2742 231.691 87.2771C231.698 87.2801 231.704 87.2843 231.709 87.2897C231.721 87.3011 231.727 87.3165 231.727 87.3325C231.727 87.3485 231.721 87.3639 231.709 87.3754C231.509 87.554 231.27 87.6843 231.011 87.7564C230.752 87.8286 230.48 87.8406 230.216 87.7915Z" fill="#263238"/>
<path d="M232.603 84.8784C232.586 84.8759 232.57 84.8689 232.557 84.8581C232.545 84.8473 232.535 84.8332 232.529 84.8172C232.479 84.6876 232.396 84.5729 232.289 84.4841C232.182 84.3952 232.054 84.335 231.917 84.3092C231.903 84.3088 231.888 84.305 231.875 84.2983C231.862 84.2915 231.851 84.2819 231.842 84.2701C231.833 84.2584 231.827 84.2448 231.824 84.2304C231.821 84.2159 231.822 84.2011 231.826 84.1868C231.831 84.1561 231.848 84.1285 231.873 84.1093C231.898 84.0902 231.929 84.0807 231.96 84.0828C232.133 84.1082 232.297 84.1778 232.435 84.2851C232.574 84.3923 232.682 84.5334 232.75 84.6948C232.76 84.7241 232.759 84.7562 232.746 84.7846C232.734 84.813 232.711 84.8356 232.682 84.8478C232.672 84.8582 232.66 84.8663 232.646 84.8716C232.632 84.8769 232.617 84.8792 232.603 84.8784Z" fill="#263238"/>
<path d="M228.888 84.15C228.874 84.1551 228.859 84.1551 228.845 84.15C228.834 84.1397 228.826 84.1273 228.82 84.1137C228.814 84.1 228.811 84.0853 228.811 84.0704C228.811 84.0555 228.814 84.0408 228.82 84.0272C228.826 84.0135 228.834 84.0011 228.845 83.9909C228.968 83.8467 229.121 83.7317 229.293 83.6544C229.466 83.577 229.654 83.5394 229.843 83.5441C229.857 83.5463 229.871 83.5514 229.884 83.5591C229.896 83.5668 229.907 83.577 229.916 83.589C229.924 83.601 229.93 83.6145 229.934 83.6289C229.937 83.6433 229.937 83.6581 229.935 83.6726C229.929 83.7045 229.911 83.733 229.885 83.7523C229.859 83.7716 229.826 83.7803 229.794 83.7767C229.645 83.7748 229.497 83.8063 229.361 83.8688C229.226 83.9312 229.106 84.0231 229.01 84.1377C228.994 84.1517 228.973 84.1604 228.951 84.1625C228.929 84.1647 228.907 84.1603 228.888 84.15Z" fill="#263238"/>
<path d="M239.684 96.6409L236.446 98.3606C236.446 98.3606 239.574 106.072 239.041 107.228C238.313 108.807 237.107 112.277 235.92 113.997C236.06 114.57 236.359 115.092 236.783 115.503C239.378 113.936 242.566 108.642 242.707 107.112C243.025 103.618 239.684 96.6409 239.684 96.6409Z" fill="#FFC3BD"/>
<path d="M238.631 93.3668C240.895 93.7646 242.56 101.831 242.56 101.831L236.979 103.428C236.185 101.573 235.529 99.6627 235.014 97.712C234.274 94.7254 236.232 92.9323 238.631 93.3668Z" fill="#263238"/>
<path d="M237.095 113.71L234.788 113.544L235.779 116.103C235.779 116.103 237.811 116.182 238.288 114.628L237.095 113.71Z" fill="#FFC3BD"/>
<path d="M232.793 114.719L233.815 116.984L235.779 116.103L234.788 113.544L232.793 114.719Z" fill="#FFC3BD"/>
</g>
<path d="M237.994 196.695C245.791 189.16 246.407 177.149 239.37 169.867C232.334 162.585 220.308 162.79 212.511 170.325C204.714 177.86 204.098 189.871 211.134 197.153C218.171 204.435 230.197 204.23 237.994 196.695Z" fill="#F99942"/>
<path d="M237.322 195.994C244.708 188.856 245.293 177.477 238.627 170.58C231.961 163.682 220.569 163.876 213.183 171.014C205.796 178.152 205.212 189.531 211.878 196.428C218.544 203.326 229.936 203.132 237.322 195.994Z" fill="white"/>
<mask id="mask1" mask-type="alpha" maskUnits="userSpaceOnUse" x="199" y="158" width="52" height="51">
<path d="M237.322 195.994C244.708 188.856 245.293 177.477 238.627 170.58C231.961 163.682 220.569 163.876 213.183 171.014C205.796 178.152 205.212 189.531 211.878 196.428C218.544 203.326 229.936 203.132 237.322 195.994Z" fill="white"/>
</mask>
<g mask="url(#mask1)">
<path d="M218.998 189.928L215.675 188.845C215.675 188.845 212.058 196.801 210.877 197.278C209.261 197.89 205.981 199.61 203.955 200.02C203.626 200.541 203.437 201.137 203.404 201.752C206.207 202.474 212.101 200.883 213.306 199.849C216.036 197.499 218.998 189.928 218.998 189.928Z" fill="#FFB573"/>
<path d="M221.893 185.075C222.431 187.303 217.511 193.612 217.511 193.612L213.527 191.091C214.183 188.948 215.195 186.931 216.519 185.124C218.16 183.086 221.299 182.633 221.893 185.075Z" fill="#F99942"/>
<path opacity="0.3" d="M221.893 185.075C222.431 187.303 217.511 193.612 217.511 193.612L213.527 191.091C214.183 188.948 215.195 186.931 216.519 185.124C218.16 183.086 221.299 182.633 221.893 185.075Z" fill="black"/>
<path opacity="0.2" d="M218.784 187.847C219.157 189.39 218.821 191.856 217.835 193.967C216.96 192.639 215.938 189.475 218.784 187.847Z" fill="black"/>
<path d="M218.729 184.824C218.031 187.376 216.666 194.077 217.78 204.598H229.739C230.014 202.596 229.659 192.823 232.468 183.392C231.044 183.11 229.603 182.926 228.154 182.841C226.307 182.734 224.456 182.734 222.609 182.841C221.82 182.915 221.04 183.058 220.277 183.269C219.907 183.373 219.57 183.571 219.298 183.843C219.027 184.115 218.831 184.453 218.729 184.824Z" fill="#F99942"/>
<path opacity="0.3" d="M218.729 184.824C218.031 187.376 216.666 194.077 217.78 204.598H229.739C230.014 202.596 229.659 192.823 232.468 183.392C231.044 183.11 229.603 182.926 228.154 182.841C226.307 182.734 224.456 182.734 222.609 182.841C221.82 182.915 221.04 183.058 220.277 183.269C219.907 183.373 219.57 183.571 219.298 183.843C219.027 184.115 218.831 184.453 218.729 184.824Z" fill="black"/>
<path opacity="0.2" d="M229.463 187.694C229.102 189.249 228.784 192.939 230.283 195.253C230.607 191.552 231.25 187.887 232.205 184.298C231.336 184.212 229.806 186.238 229.463 187.694Z" fill="black"/>
<g opacity="0.95">
<path opacity="0.95" d="M223.802 187.615L223.147 187.902L222.646 187.45C222.008 186.921 221.545 186.213 221.317 185.416C221.088 184.62 221.106 183.774 221.366 182.988C221.771 182.908 222.18 182.848 222.59 182.811C224.437 182.703 226.289 182.703 228.135 182.811C228.564 182.811 228.992 182.866 229.408 182.909L228.992 183.441C227.588 185.195 225.816 186.62 223.802 187.615Z" fill="white"/>
</g>
<path d="M227.915 177.621C227.395 179.408 227.015 181.617 228.154 182.811C226.867 184.404 225.251 185.7 223.417 186.611C222.856 186.174 222.467 185.553 222.32 184.858C222.172 184.163 222.274 183.438 222.609 182.811C224.647 182.333 224.769 179.873 224.549 178.49L227.915 177.621Z" fill="#FFB573"/>
<path opacity="0.2" d="M224.549 178.49C224.725 179.473 224.626 180.485 224.261 181.415C224.578 181.369 224.888 181.279 225.179 181.146C226.348 180.614 226.979 179.781 227.67 178.551C227.744 178.233 227.823 177.939 227.915 177.621L224.549 178.49Z" fill="black"/>
<path d="M221.654 176.868C221.745 177.14 221.892 177.39 222.086 177.6C222.28 177.811 222.517 177.979 222.78 178.092C223.496 178.398 224.004 177.743 223.955 176.99C223.906 176.238 223.46 175.332 222.676 175.344C222.498 175.352 222.324 175.401 222.168 175.489C222.012 175.576 221.879 175.699 221.779 175.847C221.68 175.996 221.617 176.165 221.595 176.343C221.573 176.52 221.593 176.7 221.654 176.868Z" fill="#FFB573"/>
<path opacity="0.2" d="M221.654 176.868C221.745 177.14 221.892 177.39 222.086 177.6C222.28 177.811 222.517 177.979 222.78 178.092C223.496 178.398 224.004 177.743 223.955 176.99C223.906 176.238 223.46 175.332 222.676 175.344C222.498 175.352 222.324 175.401 222.168 175.489C222.012 175.576 221.879 175.699 221.779 175.847C221.68 175.996 221.617 176.165 221.595 176.343C221.573 176.52 221.593 176.7 221.654 176.868Z" fill="black"/>
<path d="M224.488 172.651C224.255 171.054 222.48 172.884 222.278 174.053C222.076 175.222 223.056 176.403 223.723 175.277C224.39 174.151 224.604 173.514 224.488 172.651Z" fill="#263238"/>
<path d="M229.322 175.424C228.557 177.792 228.227 179.2 226.728 180.222C226.274 180.569 225.73 180.778 225.161 180.825C224.592 180.872 224.021 180.754 223.517 180.486C223.013 180.218 222.596 179.81 222.317 179.312C222.038 178.814 221.908 178.246 221.942 177.676C222.003 175.436 223.245 171.941 225.779 171.391C228.313 170.84 230.112 173.055 229.322 175.424Z" fill="#FFB573"/>
<path d="M228.166 177.902C227.248 177.29 227.083 177.058 227.554 176.507C228.349 175.613 227.168 175.485 227.792 174.377C228.662 172.835 225.889 173.918 225.84 172.798C225.797 171.886 223.392 173.527 223.141 172.474C222.78 170.895 225.094 171.189 225.497 170.418C225.901 169.646 228.276 169.53 228.655 170.656C229.035 171.782 230.228 170.883 231.005 172.254C231.783 173.624 230.173 173.728 230.95 175.063C231.562 176.134 230.381 176.899 229.543 177.749C229.041 178.3 228.735 178.288 228.166 177.902Z" fill="#263238"/>
<path d="M229.843 177.921C229.446 178.406 228.884 178.727 228.264 178.82C227.456 178.931 227.236 178.208 227.615 177.48C227.994 176.752 228.778 176.036 229.512 176.256C230.247 176.476 230.338 177.315 229.843 177.921Z" fill="#FFB573"/>
<path d="M225.608 175.473C225.559 175.669 225.418 175.803 225.296 175.785C225.173 175.767 225.112 175.589 225.161 175.393C225.21 175.197 225.351 175.057 225.479 175.081C225.608 175.106 225.663 175.277 225.608 175.473Z" fill="#263238"/>
<path d="M223.466 175.093C223.411 175.289 223.27 175.43 223.147 175.405C223.025 175.381 222.964 175.21 223.013 175.014C223.062 174.818 223.209 174.683 223.331 174.702C223.453 174.72 223.515 174.897 223.466 175.093Z" fill="#263238"/>
<path d="M224.12 175.313C223.739 175.87 223.289 176.376 222.78 176.819C222.889 176.937 223.023 177.028 223.173 177.085C223.323 177.143 223.484 177.165 223.643 177.149L224.12 175.313Z" fill="#ED893E"/>
<path d="M224.053 177.786C224.046 177.785 224.039 177.782 224.033 177.778C224.027 177.773 224.022 177.768 224.019 177.761C224.015 177.755 224.013 177.748 224.013 177.74C224.012 177.733 224.014 177.726 224.016 177.719C224.019 177.704 224.028 177.69 224.041 177.681C224.053 177.672 224.068 177.668 224.084 177.67C224.328 177.713 224.58 177.701 224.819 177.634C225.058 177.567 225.28 177.448 225.467 177.284C225.472 177.279 225.478 177.275 225.485 177.272C225.492 177.269 225.499 177.268 225.507 177.268C225.514 177.268 225.521 177.269 225.528 177.272C225.535 177.275 225.541 177.279 225.546 177.284C225.552 177.29 225.556 177.296 225.559 177.303C225.561 177.309 225.563 177.317 225.563 177.324C225.563 177.331 225.561 177.339 225.559 177.346C225.556 177.352 225.552 177.359 225.546 177.364C225.346 177.544 225.108 177.675 224.849 177.748C224.59 177.821 224.318 177.834 224.053 177.786Z" fill="#263238"/>
<path d="M226.44 174.873C226.423 174.871 226.408 174.864 226.395 174.853C226.382 174.842 226.372 174.828 226.367 174.812C226.316 174.682 226.233 174.568 226.126 174.479C226.019 174.39 225.891 174.33 225.755 174.304C225.74 174.302 225.726 174.298 225.714 174.291C225.701 174.284 225.69 174.274 225.682 174.263C225.673 174.251 225.667 174.238 225.664 174.224C225.66 174.21 225.66 174.196 225.663 174.181C225.669 174.151 225.686 174.123 225.71 174.104C225.735 174.085 225.766 174.075 225.797 174.077C225.971 174.103 226.134 174.172 226.273 174.28C226.411 174.387 226.519 174.528 226.587 174.689C226.597 174.719 226.596 174.751 226.583 174.779C226.571 174.808 226.548 174.83 226.52 174.842C226.509 174.853 226.497 174.861 226.483 174.866C226.469 174.872 226.455 174.874 226.44 174.873Z" fill="#263238"/>
<path d="M222.701 174.145C222.687 174.148 222.672 174.148 222.658 174.145C222.647 174.134 222.639 174.122 222.633 174.108C222.627 174.095 222.624 174.08 222.624 174.065C222.624 174.05 222.627 174.035 222.633 174.022C222.639 174.008 222.647 173.996 222.658 173.985C222.777 173.84 222.929 173.723 223.101 173.646C223.273 173.568 223.461 173.532 223.649 173.539C223.664 173.541 223.678 173.546 223.69 173.554C223.703 173.561 223.714 173.572 223.722 173.584C223.731 173.596 223.737 173.609 223.74 173.623C223.743 173.638 223.744 173.653 223.741 173.667C223.735 173.698 223.718 173.726 223.693 173.745C223.669 173.764 223.638 173.773 223.606 173.771C223.457 173.769 223.309 173.8 223.173 173.862C223.038 173.925 222.918 174.017 222.823 174.132C222.806 174.145 222.785 174.153 222.764 174.155C222.742 174.157 222.72 174.154 222.701 174.145Z" fill="#263238"/>
<path d="M233.784 186.911L230.381 188.208C230.381 188.208 232.456 196.33 231.783 197.419C230.865 198.906 229.231 202.223 227.841 203.79C227.903 204.38 228.13 204.94 228.496 205.406C231.244 204.182 235.069 199.286 235.406 197.774C236.159 194.316 233.784 186.911 233.784 186.911Z" fill="#FFB573"/>
<path d="M233.172 183.496C235.345 184.188 235.938 192.468 235.938 192.468L230.247 193.349C229.707 191.392 229.31 189.397 229.059 187.382C228.704 184.298 230.834 182.755 233.172 183.496Z" fill="#F99942"/>
<path opacity="0.3" d="M233.172 183.496C235.345 184.188 235.938 192.468 235.938 192.468L230.247 193.349C229.707 191.392 229.31 189.397 229.059 187.382C228.704 184.298 230.834 182.755 233.172 183.496Z" fill="black"/>
<path d="M229.016 203.655L226.77 203.19L227.419 205.877C227.419 205.877 229.402 206.22 230.075 204.726L229.016 203.655Z" fill="#FFB573"/>
<path d="M224.665 204.114L225.375 206.507L227.419 205.877L226.77 203.19L224.665 204.114Z" fill="#FFB573"/>
</g>
<path opacity="0.3" d="M157.48 91.7083H201.348C201.756 91.7019 202.148 91.5434 202.445 91.2639C202.743 90.9843 202.926 90.6038 202.958 90.1966C202.974 90.0031 202.949 89.8083 202.886 89.6248C202.822 89.4413 202.721 89.2732 202.588 89.1314C202.455 88.9895 202.294 88.877 202.116 88.8012C201.937 88.7254 201.744 88.6879 201.55 88.6911H157.688C157.28 88.6972 156.889 88.8546 156.59 89.1328C156.292 89.411 156.107 89.7901 156.072 90.1966C156.056 90.3905 156.08 90.5855 156.144 90.7693C156.208 90.9531 156.309 91.1216 156.442 91.2639C156.574 91.4063 156.735 91.5193 156.914 91.5958C157.093 91.6724 157.285 91.7107 157.48 91.7083Z" fill="#F99942"/>
<path opacity="0.3" d="M169.597 98.3423H200.877C201.285 98.3347 201.677 98.176 201.975 97.8968C202.273 97.6176 202.458 97.2378 202.492 96.8307C202.509 96.6371 202.484 96.4423 202.421 96.2589C202.357 96.0754 202.256 95.9073 202.123 95.7654C201.99 95.6235 201.829 95.5111 201.651 95.4352C201.472 95.3594 201.279 95.3219 201.085 95.3251H169.806C169.398 95.3312 169.006 95.4886 168.708 95.7668C168.409 96.045 168.225 96.4241 168.19 96.8307C168.174 97.0245 168.198 97.2195 168.262 97.4033C168.325 97.5871 168.427 97.7556 168.559 97.898C168.692 98.0403 168.853 98.1533 169.031 98.2299C169.21 98.3064 169.403 98.3447 169.597 98.3423Z" fill="#F99942"/>
<path d="M176.905 85.068H201.789C202.196 85.0631 202.588 84.906 202.885 84.6274C203.183 84.3489 203.366 83.969 203.398 83.5625C203.414 83.3692 203.39 83.1746 203.327 82.9912C203.264 82.8079 203.163 82.6397 203.031 82.4975C202.899 82.3552 202.739 82.242 202.561 82.1651C202.383 82.0882 202.191 82.0493 201.997 82.0508H177.113C176.704 82.0572 176.313 82.2157 176.016 82.4952C175.718 82.7748 175.535 83.1553 175.503 83.5625C175.487 83.7555 175.511 83.9497 175.575 84.1328C175.638 84.3159 175.739 84.4837 175.871 84.6254C176.003 84.7672 176.163 84.8798 176.341 84.956C176.519 85.0322 176.711 85.0704 176.905 85.068Z" fill="white"/>
<path opacity="0.3" d="M176.96 188.637H194.708C194.902 188.634 195.095 188.671 195.273 188.747C195.452 188.823 195.613 188.935 195.746 189.077C195.878 189.219 195.98 189.387 196.044 189.571C196.107 189.754 196.132 189.949 196.115 190.142C196.083 190.551 195.9 190.932 195.601 191.212C195.302 191.491 194.909 191.649 194.5 191.654H176.752C176.557 191.656 176.364 191.618 176.186 191.542C176.007 191.465 175.846 191.352 175.713 191.21C175.581 191.067 175.48 190.899 175.416 190.715C175.352 190.531 175.328 190.336 175.344 190.142C175.378 189.735 175.562 189.355 175.861 189.077C176.159 188.799 176.551 188.642 176.96 188.637Z" fill="#F99942"/>
<path opacity="0.3" d="M152.927 188.637H170.675C170.869 188.634 171.061 188.671 171.24 188.747C171.419 188.823 171.58 188.935 171.713 189.077C171.845 189.219 171.947 189.387 172.01 189.571C172.074 189.754 172.098 189.949 172.082 190.142C172.047 190.55 171.863 190.929 171.565 191.209C171.266 191.488 170.875 191.646 170.466 191.654H152.718C152.524 191.656 152.331 191.618 152.152 191.542C151.974 191.465 151.813 191.352 151.68 191.21C151.548 191.067 151.446 190.899 151.383 190.715C151.319 190.531 151.295 190.336 151.311 190.142C151.343 189.735 151.527 189.354 151.826 189.075C152.125 188.797 152.518 188.64 152.927 188.637Z" fill="#F99942"/>
<path opacity="0.3" d="M163.869 182.003H195.148C195.343 181.999 195.535 182.037 195.714 182.113C195.893 182.189 196.054 182.301 196.186 182.443C196.319 182.585 196.421 182.753 196.484 182.936C196.548 183.12 196.572 183.315 196.556 183.508C196.524 183.915 196.341 184.296 196.044 184.575C195.746 184.855 195.355 185.013 194.946 185.02H163.661C163.467 185.022 163.274 184.984 163.096 184.907C162.917 184.831 162.757 184.718 162.625 184.575C162.493 184.433 162.392 184.264 162.329 184.08C162.266 183.897 162.242 183.702 162.26 183.508C162.292 183.102 162.474 182.722 162.772 182.443C163.07 182.165 163.461 182.007 163.869 182.003Z" fill="#F99942"/>
<path d="M159.732 175.362H195.595C195.789 175.36 195.982 175.398 196.161 175.475C196.339 175.551 196.5 175.665 196.632 175.807C196.764 175.949 196.864 176.118 196.927 176.302C196.99 176.486 197.014 176.681 196.997 176.874C196.965 177.281 196.782 177.66 196.484 177.939C196.186 178.218 195.795 178.375 195.387 178.38H159.542C159.348 178.383 159.155 178.345 158.977 178.269C158.798 178.194 158.637 178.081 158.504 177.939C158.372 177.797 158.27 177.629 158.207 177.446C158.143 177.262 158.118 177.068 158.135 176.874C158.166 176.469 158.347 176.09 158.642 175.811C158.938 175.532 159.326 175.372 159.732 175.362Z" fill="white"/>
<path opacity="0.3" d="M234.274 143.636H201.593C201.185 143.643 200.793 143.801 200.496 144.081C200.198 144.36 200.015 144.741 199.983 145.148C199.967 145.341 199.991 145.535 200.055 145.718C200.118 145.901 200.219 146.069 200.351 146.211C200.483 146.353 200.643 146.465 200.821 146.542C200.999 146.618 201.191 146.656 201.385 146.654H234.066C234.473 146.649 234.865 146.492 235.162 146.213C235.46 145.934 235.643 145.555 235.675 145.148C235.692 144.954 235.669 144.76 235.606 144.576C235.543 144.392 235.442 144.223 235.31 144.081C235.178 143.939 235.018 143.825 234.839 143.749C234.66 143.672 234.468 143.634 234.274 143.636Z" fill="#F99942"/>
<path opacity="0.3" d="M217.468 137.002H202.046C201.637 137.009 201.246 137.167 200.948 137.447C200.651 137.726 200.468 138.107 200.436 138.514C200.42 138.707 200.444 138.902 200.508 139.086C200.572 139.269 200.673 139.437 200.806 139.579C200.938 139.721 201.099 139.834 201.278 139.909C201.457 139.985 201.65 140.023 201.844 140.019H217.26C217.668 140.013 218.059 139.856 218.358 139.578C218.656 139.3 218.841 138.92 218.876 138.514C218.892 138.32 218.867 138.125 218.804 137.941C218.74 137.757 218.639 137.589 218.506 137.447C218.374 137.304 218.213 137.191 218.034 137.115C217.855 137.038 217.663 137 217.468 137.002Z" fill="#F99942"/>
<path d="M226.495 130.356H202.505C202.097 130.362 201.706 130.52 201.407 130.798C201.108 131.076 200.924 131.455 200.889 131.862C200.873 132.055 200.897 132.251 200.961 132.434C201.024 132.618 201.126 132.787 201.258 132.929C201.391 133.071 201.552 133.184 201.731 133.261C201.909 133.337 202.102 133.376 202.297 133.373H226.293C226.702 133.368 227.094 133.21 227.392 132.931C227.69 132.651 227.872 132.269 227.903 131.862C227.919 131.668 227.895 131.473 227.831 131.29C227.767 131.106 227.666 130.938 227.533 130.796C227.401 130.655 227.24 130.542 227.061 130.466C226.882 130.39 226.689 130.353 226.495 130.356Z" fill="white"/>
<path opacity="0.3" d="M245.902 137.002H223.992C223.583 137.01 223.192 137.169 222.894 137.448C222.595 137.727 222.411 138.107 222.376 138.514C222.36 138.707 222.385 138.902 222.448 139.086C222.512 139.269 222.613 139.437 222.746 139.579C222.879 139.721 223.039 139.834 223.218 139.909C223.397 139.985 223.59 140.023 223.784 140.019H245.694C246.102 140.013 246.493 139.856 246.791 139.578C247.09 139.3 247.274 138.92 247.309 138.514C247.325 138.32 247.301 138.125 247.237 137.941C247.174 137.757 247.072 137.589 246.94 137.447C246.807 137.304 246.647 137.191 246.468 137.115C246.289 137.038 246.096 137 245.902 137.002Z" fill="#F99942"/>
<path opacity="0.3" d="M147.376 74.4192H163.765L162.896 59.8965L147.376 74.4192Z" fill="#F99942"/>
<path d="M147.376 74.4192L164.922 72.3201L162.896 59.8965L147.376 74.4192Z" fill="#F99942"/>
<path d="M81.2614 117.443C80.7412 118.667 80.1659 120.025 79.6579 121.335C79.15 122.645 78.6298 123.985 78.1585 125.313C77.2002 127.911 76.4131 130.568 75.8023 133.269C75.7167 133.599 75.6738 133.924 75.6126 134.248L75.5269 134.738L75.4596 135.123C75.399 135.668 75.3867 136.217 75.4229 136.764C75.5284 138.101 75.7102 139.431 75.9676 140.748C76.4939 143.496 77.1916 146.341 77.8831 149.132L74.7742 150.448C73.2296 147.807 71.9269 145.031 70.8819 142.155C70.323 140.643 69.8911 139.088 69.5905 137.504C69.4113 136.593 69.3313 135.666 69.3518 134.738V134.34C69.3518 134.211 69.3518 134.132 69.3518 134.022L69.413 133.41C69.4559 133.012 69.4804 132.602 69.5477 132.186C70.0013 129.099 70.7158 126.057 71.6836 123.091C72.1609 121.629 72.6505 120.184 73.2197 118.771C73.7889 117.357 74.3397 115.968 75.0557 114.517L81.2614 117.443Z" fill="#7F3E3B"/>
<path d="M77.7791 148.373L80.1659 150.699L74.9578 153.147C74.9578 153.147 73.697 150.944 74.5661 148.949L77.7791 148.373Z" fill="#7F3E3B"/>
<path d="M82.0876 154.169L77.6934 155.968L74.9578 153.122L80.1659 150.699L82.0876 154.169Z" fill="#7F3E3B"/>
<path d="M195.715 140.78C202.591 124.179 194.708 105.148 178.108 98.2721C161.508 91.3961 142.477 99.2791 135.601 115.879C128.725 132.48 136.608 151.511 153.208 158.387C169.808 165.263 188.839 157.38 195.715 140.78Z" fill="#F99942"/>
<path d="M165.656 159.15C182.678 159.15 196.476 145.352 196.476 128.33C196.476 111.308 182.678 97.5098 165.656 97.5098C148.635 97.5098 134.836 111.308 134.836 128.33C134.836 145.352 148.635 159.15 165.656 159.15Z" fill="white"/>
<mask id="mask2" mask-type="alpha" maskUnits="userSpaceOnUse" x="133" y="97" width="64" height="64">
<circle cx="165" cy="129" r="32" fill="#C4C4C4"/>
</mask>
<g mask="url(#mask2)">
<path d="M179.034 135.423C179.377 137.945 179.646 140.478 179.946 143.006L180.779 150.552L180.889 151.458L181.017 152.272L181.195 153.116L181.409 153.979C181.727 155.136 182.088 156.311 182.492 157.486C183.276 159.842 184.194 162.204 185.093 164.555L182.988 165.693C181.544 163.518 180.24 161.253 179.083 158.912C178.514 157.725 177.97 156.519 177.504 155.24L177.162 154.273L176.856 153.263C176.764 152.914 176.684 152.553 176.599 152.198L176.409 151.219C175.938 148.661 175.552 146.139 175.185 143.606C174.818 141.072 174.493 138.538 174.224 135.993L179.034 135.423Z" fill="#FF8B7B"/>
<path d="M177.511 130.093C179.463 130.588 180.828 138.624 180.828 138.624L173.367 143.698C173.367 143.698 170.307 134.175 171.795 132.033C173.361 129.799 174.665 129.371 177.511 130.093Z" fill="#F99942"/>
<path opacity="0.2" d="M177.339 131.886L178.839 139.983L175.815 142.033L177.339 131.886Z" fill="black"/>
<path d="M154.781 109.395C151.537 109.866 145.729 125.564 157.449 132.89C169.169 140.215 176.868 131.892 176.868 131.892C176.868 131.892 169.493 123.783 170.136 118.495C170.779 113.208 174.567 106.543 165.681 104.322C159.383 102.749 151.225 104.266 154.781 109.395Z" fill="#263238"/>
<path d="M177.511 130.093C177.511 130.093 179.769 130.888 175.252 158.673H156.017C156.342 150.846 156.348 146.023 152.608 129.958C155.3 129.399 158.028 129.039 160.772 128.881C163.68 128.67 166.598 128.67 169.506 128.881C173.257 129.224 177.511 130.093 177.511 130.093Z" fill="#F99942"/>
<path opacity="0.2" d="M154.224 136.317C155.968 136.751 157.578 138.649 157.382 142.149C157.276 143.74 156.72 145.268 155.778 146.556C155.472 143.863 154.952 140.742 154.138 136.764L154.224 136.317Z" fill="black"/>
<path d="M168.496 135.038C168.496 135.038 165.344 137.633 165.344 140.393C162.725 138.477 159.193 133.251 158.82 129.909C158.808 129.774 158.824 129.639 158.866 129.51C158.908 129.382 158.976 129.263 159.065 129.161C159.154 129.059 159.263 128.977 159.385 128.918C159.507 128.859 159.64 128.826 159.775 128.82C160.009 128.807 160.243 128.776 160.472 128.728C160.571 128.707 160.673 128.709 160.77 128.733C160.868 128.758 160.959 128.804 161.036 128.869L168.496 135.038Z" fill="#FAFAFA"/>
<path d="M168.496 135.038C169.414 135.584 170.198 136.331 170.788 137.222C171.378 138.113 171.76 139.126 171.905 140.185C174.555 138.245 173.202 132.443 171.727 129.603C171.611 129.382 171.443 129.193 171.237 129.052C171.031 128.911 170.794 128.823 170.546 128.795C170.154 128.746 169.861 128.697 169.665 128.655C169.629 128.648 169.593 128.648 169.557 128.656C169.522 128.664 169.489 128.679 169.459 128.7C169.43 128.721 169.405 128.748 169.387 128.779C169.369 128.81 169.357 128.845 169.353 128.881L168.496 135.038Z" fill="#FAFAFA"/>
<path d="M161.641 119.046C162.192 121.855 162.743 127.002 160.772 128.881C162.907 131.432 165.534 133.526 168.496 135.038C172.394 131.929 169.506 128.881 169.506 128.881C166.372 128.134 166.446 125.821 167.003 123.624L161.641 119.046Z" fill="#FF8B7B"/>
<path opacity="0.2" d="M163.826 120.913L166.996 123.624C166.863 124.132 166.773 124.65 166.727 125.172C165.534 125.001 163.667 123.979 163.392 122.675C163.389 122.061 163.538 121.456 163.826 120.913Z" fill="black"/>
<path d="M156.929 114.536C158.226 119.052 158.679 120.986 161.519 122.828C165.803 125.588 171.048 123.006 171.121 118.189C171.189 113.856 169.053 107.173 164.169 106.372C163.092 106.185 161.985 106.276 160.953 106.637C159.921 106.998 158.998 107.617 158.273 108.435C157.548 109.253 157.043 110.243 156.808 111.311C156.573 112.379 156.615 113.489 156.929 114.536Z" fill="#FF8B7B"/>
<path d="M158.508 118.606C161.231 115.827 161.097 112.4 160.289 111.329C162.774 111.121 169.132 109.548 167.927 107.143C166.721 104.738 156.574 103.428 155.607 109.591C152.455 112.375 154.965 117.975 158.508 118.606Z" fill="#263238"/>
<path d="M164.499 114.126C164.585 114.499 164.848 114.738 165.111 114.701C165.375 114.664 165.485 114.303 165.405 113.93C165.326 113.557 165.056 113.318 164.793 113.355C164.53 113.392 164.42 113.753 164.499 114.126Z" fill="#263238"/>
<path d="M168.716 113.22C168.802 113.593 169.065 113.832 169.328 113.795C169.591 113.759 169.701 113.398 169.616 113.024C169.53 112.651 169.267 112.412 169.004 112.443C168.741 112.473 168.637 112.816 168.716 113.22Z" fill="#263238"/>
<path d="M168.912 112.461L169.75 112.002C169.75 112.002 169.438 112.804 168.912 112.461Z" fill="#263238"/>
<path d="M167.566 114.15C168.08 114.924 168.698 115.624 169.402 116.231C169.242 116.409 169.045 116.55 168.825 116.644C168.606 116.738 168.368 116.783 168.129 116.776L167.566 114.15Z" fill="#FF5652"/>
<path d="M166.464 118.691C166.653 118.678 166.842 118.652 167.027 118.612C167.056 118.604 167.081 118.586 167.097 118.561C167.113 118.536 167.118 118.506 167.113 118.477C167.105 118.448 167.087 118.423 167.062 118.407C167.037 118.391 167.007 118.386 166.978 118.391C166.516 118.503 166.035 118.507 165.572 118.4C165.109 118.294 164.676 118.081 164.31 117.779C164.288 117.759 164.26 117.748 164.23 117.748C164.201 117.748 164.172 117.759 164.151 117.779C164.14 117.79 164.131 117.802 164.126 117.816C164.12 117.829 164.117 117.844 164.117 117.859C164.117 117.874 164.12 117.888 164.126 117.902C164.131 117.916 164.14 117.928 164.151 117.938C164.467 118.211 164.834 118.419 165.231 118.548C165.629 118.677 166.048 118.726 166.464 118.691Z" fill="#263238"/>
<path d="M156.629 119.04C156.882 119.412 157.205 119.731 157.581 119.978C157.957 120.225 158.378 120.395 158.82 120.478C160.007 120.699 160.491 119.615 160.044 118.551C159.665 117.596 158.594 116.335 157.449 116.592C157.202 116.658 156.976 116.785 156.789 116.96C156.603 117.135 156.463 117.354 156.382 117.596C156.301 117.838 156.281 118.097 156.324 118.349C156.367 118.601 156.472 118.839 156.629 119.04Z" fill="#FF8B7B"/>
<path d="M162.437 113.306C162.483 113.3 162.527 113.28 162.561 113.248C162.595 113.216 162.618 113.174 162.627 113.128C162.737 112.779 162.919 112.456 163.16 112.18C163.401 111.904 163.697 111.681 164.028 111.525C164.056 111.513 164.08 111.496 164.101 111.474C164.121 111.452 164.137 111.427 164.148 111.398C164.158 111.37 164.162 111.341 164.161 111.311C164.159 111.281 164.152 111.252 164.138 111.225C164.126 111.198 164.108 111.174 164.086 111.154C164.064 111.134 164.039 111.119 164.011 111.109C163.983 111.099 163.953 111.095 163.923 111.097C163.894 111.099 163.865 111.107 163.839 111.121C163.441 111.305 163.088 111.573 162.803 111.905C162.518 112.238 162.308 112.628 162.186 113.049C162.181 113.077 162.181 113.106 162.187 113.135C162.193 113.163 162.205 113.19 162.221 113.214C162.238 113.238 162.259 113.258 162.283 113.274C162.308 113.29 162.335 113.301 162.364 113.306C162.388 113.312 162.413 113.312 162.437 113.306Z" fill="#263238"/>
<path d="M169.524 110.203C169.574 110.209 169.625 110.197 169.668 110.169C169.711 110.142 169.743 110.101 169.758 110.053C169.774 110.004 169.773 109.952 169.755 109.905C169.737 109.858 169.703 109.818 169.659 109.793C169.366 109.589 169.029 109.458 168.675 109.412C168.321 109.366 167.962 109.407 167.627 109.53C167.573 109.554 167.531 109.598 167.509 109.653C167.487 109.708 167.488 109.769 167.51 109.823C167.522 109.851 167.538 109.875 167.559 109.896C167.58 109.916 167.605 109.933 167.633 109.944C167.66 109.954 167.689 109.96 167.719 109.959C167.748 109.958 167.777 109.952 167.804 109.94C168.071 109.846 168.357 109.818 168.636 109.858C168.916 109.897 169.183 110.003 169.414 110.166C169.446 110.19 169.484 110.203 169.524 110.203Z" fill="#263238"/>
<path d="M164.689 113.397L165.528 112.938C165.528 112.938 165.24 113.74 164.689 113.397Z" fill="#263238"/>
<path d="M155.73 157.547L155.234 159.267C155.173 159.401 155.326 159.536 155.552 159.536H175.344C175.515 159.536 175.662 159.45 175.675 159.346L175.846 157.621C175.846 157.504 175.705 157.4 175.515 157.4H156.06C155.997 157.392 155.933 157.402 155.874 157.428C155.816 157.453 155.766 157.495 155.73 157.547Z" fill="#F99942"/>
<path opacity="0.2" d="M155.73 157.547L155.234 159.267C155.173 159.401 155.326 159.536 155.552 159.536H175.344C175.515 159.536 175.662 159.45 175.675 159.346L175.846 157.621C175.846 157.504 175.705 157.4 175.515 157.4H156.06C155.997 157.392 155.933 157.402 155.874 157.428C155.816 157.453 155.766 157.495 155.73 157.547Z" fill="white"/>
<path d="M158.41 159.732H157.896C157.792 159.732 157.712 159.677 157.719 159.61L157.963 157.376C157.963 157.308 158.061 157.253 158.165 157.253H158.685C158.789 157.253 158.869 157.308 158.863 157.376L158.618 159.61C158.606 159.671 158.508 159.732 158.41 159.732Z" fill="#F99942"/>
<path opacity="0.4" d="M158.41 159.732H157.896C157.792 159.732 157.712 159.677 157.719 159.61L157.963 157.376C157.963 157.308 158.061 157.253 158.165 157.253H158.685C158.789 157.253 158.869 157.308 158.863 157.376L158.618 159.61C158.606 159.671 158.508 159.732 158.41 159.732Z" fill="black"/>
<path d="M173.881 159.732H173.355C173.251 159.732 173.171 159.677 173.184 159.61L173.429 157.376C173.429 157.308 173.526 157.253 173.63 157.253H174.151C174.255 157.253 174.334 157.308 174.328 157.376L174.083 159.61C174.068 159.649 174.039 159.683 174.003 159.705C173.966 159.727 173.924 159.736 173.881 159.732Z" fill="#F99942"/>
<path opacity="0.4" d="M173.881 159.732H173.355C173.251 159.732 173.171 159.677 173.184 159.61L173.429 157.376C173.429 157.308 173.526 157.253 173.63 157.253H174.151C174.255 157.253 174.334 157.308 174.328 157.376L174.083 159.61C174.068 159.649 174.039 159.683 174.003 159.705C173.966 159.727 173.924 159.736 173.881 159.732Z" fill="black"/>
<path d="M166.176 159.732H165.656C165.552 159.732 165.473 159.677 165.479 159.61L165.723 157.376C165.723 157.308 165.821 157.253 165.925 157.253H166.464C166.568 157.253 166.648 157.308 166.641 157.376L166.397 159.61C166.372 159.671 166.28 159.732 166.176 159.732Z" fill="#F99942"/>
<path opacity="0.4" d="M166.176 159.732H165.656C165.552 159.732 165.473 159.677 165.479 159.61L165.723 157.376C165.723 157.308 165.821 157.253 165.925 157.253H166.464C166.568 157.253 166.648 157.308 166.641 157.376L166.397 159.61C166.372 159.671 166.28 159.732 166.176 159.732Z" fill="black"/>
<path d="M167.572 162.517L172.241 160.424L170.913 165.056C170.913 165.056 167.945 165.73 166.66 164.242L167.572 162.517Z" fill="#FFB573"/>
<path d="M155.179 136.207C155.02 137.834 154.818 139.462 154.64 141.103L154.028 145.999C153.832 147.62 153.575 149.242 153.355 150.895L153.006 153.343L152.896 154.114C152.903 154.234 152.936 154.351 152.994 154.456C153.26 154.925 153.611 155.34 154.028 155.68C154.573 156.13 155.149 156.539 155.754 156.904C157.074 157.708 158.446 158.424 159.861 159.046C161.305 159.701 162.792 160.27 164.304 160.84C165.815 161.409 167.364 161.929 168.863 162.425L168.324 164.762C165.01 164.228 161.745 163.422 158.563 162.351C156.916 161.812 155.316 161.141 153.777 160.344C152.953 159.915 152.167 159.418 151.427 158.857C150.54 158.21 149.79 157.392 149.224 156.452C148.89 155.836 148.682 155.16 148.612 154.463C148.612 154.273 148.581 154.083 148.612 153.893C148.643 153.704 148.612 153.465 148.643 153.404L148.698 152.792L148.906 150.344C149.059 148.716 149.175 147.082 149.352 145.448L149.848 140.552C150.044 138.924 150.209 137.296 150.423 135.656L155.179 136.207Z" fill="#FF8B7B"/>
<path d="M152.608 129.958C150.681 130.57 148.367 137.18 148.367 137.18L155.099 144.12C155.099 144.12 158.557 136.984 157.743 134.493C156.917 131.898 154.836 129.285 152.608 129.958Z" fill="#F99942"/>
<path d="M176.109 161.384L174.787 165.203L170.913 165.056L172.241 160.424L176.109 161.384Z" fill="#FFB573"/>
</g>
<path opacity="0.2" d="M136.182 136.268C134.612 130.44 134.806 124.276 136.738 118.558C138.671 112.839 142.255 107.822 147.039 104.141C151.823 100.46 157.591 98.2798 163.614 97.8767C169.637 97.4736 175.644 98.8655 180.875 101.876C186.107 104.887 190.329 109.382 193.006 114.792C195.683 120.202 196.696 126.284 195.917 132.27C195.138 138.256 192.601 143.876 188.627 148.42C184.654 152.964 179.422 156.227 173.594 157.798C169.724 158.841 165.686 159.112 161.711 158.594C157.737 158.076 153.903 156.781 150.429 154.782C146.955 152.782 143.908 150.118 141.464 146.942C139.02 143.765 137.225 140.138 136.182 136.268Z" fill="#F99942"/>
<path opacity="0.2" d="M187.774 107.296L162.639 158.704C164.795 158.924 166.968 158.905 169.12 158.649L191.721 112.443C190.594 110.59 189.271 108.864 187.774 107.296ZM195.118 120.38L194.953 119.768L176.905 156.684C183.865 153.92 189.567 148.695 192.925 142.001C196.283 135.307 197.064 127.612 195.118 120.38ZM157.706 98.8562C152.379 100.292 147.54 103.145 143.705 107.112C139.87 111.079 137.181 116.011 135.926 121.384C134.67 126.757 134.894 132.369 136.574 137.625C138.254 142.881 141.327 147.583 145.466 151.231L171.36 98.336C166.828 97.4702 162.159 97.6481 157.706 98.8562Z" fill="white"/>
<path d="M131.311 125.013L130.699 124.952C130.797 123.905 130.95 122.853 131.145 121.825L131.757 121.941C131.58 122.951 131.415 123.985 131.311 125.013ZM132.498 118.801L131.886 118.63C132.692 115.904 133.822 113.284 135.252 110.827L135.784 111.133C134.387 113.549 133.283 116.123 132.498 118.801Z" fill="#F99942"/>
<path d="M197.468 119.75C195.773 113.458 192.25 107.81 187.345 103.52C182.439 99.2304 176.373 96.4913 169.911 95.6491C163.449 94.807 156.883 95.8997 151.042 98.7891C145.202 101.678 140.349 106.235 137.097 111.882C133.846 117.529 132.342 124.014 132.776 130.515C133.209 137.017 135.561 143.245 139.533 148.41C143.506 153.575 148.921 157.447 155.093 159.535C161.266 161.623 167.919 161.835 174.212 160.142C178.392 159.018 182.309 157.081 185.74 154.442C189.171 151.804 192.048 148.515 194.208 144.764C196.368 141.013 197.767 136.873 198.326 132.581C198.886 128.289 198.594 123.929 197.468 119.75ZM136.182 136.274C134.612 130.445 134.806 124.282 136.738 118.564C138.671 112.845 142.255 107.828 147.039 104.147C151.823 100.466 157.591 98.2858 163.614 97.8827C169.637 97.4796 175.644 98.8714 180.875 101.882C186.107 104.893 190.329 109.388 193.006 114.798C195.683 120.208 196.696 126.29 195.917 132.276C195.138 138.262 192.601 143.882 188.627 148.426C184.654 152.97 179.422 156.233 173.594 157.804C169.723 158.847 165.685 159.117 161.71 158.599C157.735 158.081 153.901 156.785 150.427 154.785C146.953 152.785 143.907 150.121 141.463 146.944C139.018 143.766 137.224 140.139 136.182 136.268V136.274Z" fill="#F99942"/>
<path d="M136.672 141.317C136.672 142.718 136.311 142.902 135.925 142.945L134.817 143.239L132.596 143.851L128.153 145.026L119.248 147.308C113.304 148.802 107.351 150.256 101.39 151.672L83.5074 155.956L74.5783 158.122C71.604 158.863 68.6174 159.548 65.6737 160.405C65.3751 160.493 65.0622 160.521 64.7529 160.487C64.4435 160.454 64.1437 160.36 63.8707 160.211C63.5976 160.062 63.3566 159.86 63.1614 159.618C62.9662 159.376 62.8207 159.097 62.733 158.799C62.6454 158.5 62.6175 158.187 62.6508 157.878C62.6842 157.568 62.7781 157.269 62.9273 156.996C63.0764 156.722 63.278 156.481 63.5203 156.286C63.7626 156.091 64.041 155.946 64.3395 155.858H64.4375C67.4179 155.124 70.3433 154.212 73.2809 153.361L82.0937 150.748L99.7009 145.448C105.572 143.673 111.449 141.937 117.333 140.24L126.176 137.7L130.607 136.476L132.822 135.864L133.93 135.558C134.285 135.405 134.677 135.387 135.399 136.592C136.248 138.021 136.688 139.655 136.672 141.317Z" fill="#F99942"/>
<path d="M98.1648 95.6556C98.1648 96.0167 98.3545 96.3104 98.5932 96.3104C98.8319 96.3104 99.0216 96.0167 99.0216 95.6556C99.0216 95.2945 98.8319 94.9946 98.5932 94.9946C98.3545 94.9946 98.1648 95.2884 98.1648 95.6556Z" fill="#263238"/>
<path d="M98.3239 96.3103C98.754 97.4189 99.3347 98.463 100.05 99.4131C99.8022 99.5902 99.5189 99.711 99.2197 99.7671C98.9205 99.8231 98.6127 99.813 98.3178 99.7375L98.3239 96.3103Z" fill="#630F0F"/>
<path d="M96.8796 93.6359C96.8351 93.6347 96.7922 93.6196 96.7567 93.5929C96.7212 93.5661 96.6949 93.529 96.6814 93.4866C96.668 93.4443 96.668 93.3987 96.6816 93.3564C96.6952 93.3141 96.7216 93.277 96.7572 93.2504C97.0276 93.0477 97.3422 92.912 97.6752 92.8546C98.0082 92.7971 98.3501 92.8195 98.6727 92.9199C98.7253 92.9404 98.7677 92.9808 98.7906 93.0324C98.8135 93.084 98.8151 93.1425 98.7951 93.1953C98.7746 93.2478 98.7342 93.2902 98.6826 93.3131C98.631 93.336 98.5725 93.3377 98.5197 93.3177C98.2629 93.2413 97.9917 93.2264 97.728 93.2742C97.4643 93.3221 97.2156 93.4313 97.002 93.5931C96.9675 93.6213 96.9241 93.6365 96.8796 93.6359Z" fill="#263238"/>
<path d="M86.4878 97.9995C86.8122 101.543 86.855 107.987 84.352 110.099C84.352 110.099 84.9211 113.716 91.0044 114.279C97.6936 114.891 94.5295 111.041 94.5295 111.041C90.9616 109.774 91.3226 106.898 92.21 104.254L86.4878 97.9995Z" fill="#7F3E3B"/>
<path d="M76.7019 243.154C76.1756 243.374 74.97 242.842 74.5844 242.615C74.5668 242.606 74.5526 242.592 74.5437 242.574C74.5349 242.557 74.532 242.537 74.5355 242.517C74.537 242.496 74.5449 242.476 74.558 242.46C74.5711 242.444 74.5888 242.432 74.6089 242.425C74.6701 242.425 76.1022 241.948 76.6836 242.285C76.7475 242.319 76.8031 242.367 76.8464 242.425C76.8898 242.483 76.9199 242.55 76.9345 242.621C76.9651 242.706 76.9679 242.799 76.9427 242.886C76.9174 242.973 76.8652 243.049 76.7937 243.105C76.7652 243.125 76.7344 243.141 76.7019 243.154ZM74.921 242.542C75.533 242.848 76.4082 243.105 76.6652 242.921C76.6652 242.921 76.7693 242.848 76.7264 242.652C76.7175 242.611 76.6997 242.572 76.6744 242.538C76.649 242.504 76.6167 242.476 76.5795 242.456C76.029 242.326 75.4524 242.36 74.921 242.554V242.542Z" fill="#F99942"/>
<path d="M74.9761 242.53C74.8753 242.572 74.7708 242.605 74.664 242.627C74.6456 242.634 74.6257 242.635 74.607 242.629C74.5883 242.624 74.5718 242.612 74.56 242.597C74.5508 242.58 74.5461 242.561 74.5461 242.542C74.5461 242.523 74.5508 242.504 74.56 242.487C74.56 242.438 75.0557 241.226 75.6799 240.969C75.754 240.936 75.8343 240.918 75.9155 240.918C75.9967 240.918 76.077 240.936 76.1511 240.969C76.2282 240.99 76.2951 241.038 76.34 241.104C76.3848 241.171 76.4047 241.251 76.3959 241.33C76.3347 241.74 75.5453 242.291 74.9761 242.53ZM74.8292 242.358C75.38 242.15 76.1328 241.612 76.1695 241.312C76.1695 241.281 76.1695 241.22 76.0471 241.159C75.9993 241.136 75.9471 241.124 75.8941 241.124C75.8412 241.124 75.7889 241.136 75.7411 241.159C75.3433 241.33 74.9883 242.009 74.8292 242.352V242.358Z" fill="#F99942"/>
<path d="M104.505 250.375C104.043 250.373 103.583 250.332 103.128 250.253C103.107 250.249 103.088 250.238 103.072 250.223C103.057 250.208 103.047 250.188 103.042 250.167C103.038 250.145 103.04 250.122 103.05 250.102C103.06 250.082 103.077 250.066 103.098 250.057C103.165 250.014 104.732 249.121 105.484 249.323C105.625 249.359 105.746 249.449 105.821 249.574C105.869 249.642 105.895 249.723 105.895 249.806C105.895 249.889 105.869 249.971 105.821 250.039C105.643 250.308 105.086 250.375 104.505 250.375ZM103.471 250.094C104.309 250.21 105.448 250.204 105.656 249.916C105.656 249.88 105.711 249.812 105.656 249.678C105.633 249.64 105.603 249.607 105.567 249.582C105.531 249.557 105.491 249.539 105.448 249.531C104.964 249.402 104.04 249.812 103.471 250.094Z" fill="#F99942"/>
<path d="M103.146 250.253C103.126 250.258 103.105 250.258 103.085 250.253C103.07 250.242 103.058 250.227 103.05 250.21C103.043 250.192 103.04 250.173 103.042 250.155C103.042 250.106 103.171 248.894 103.74 248.423C103.824 248.353 103.922 248.3 104.027 248.268C104.132 248.237 104.243 248.227 104.352 248.239C104.64 248.27 104.725 248.417 104.744 248.539C104.829 249.047 103.752 250.02 103.214 250.265L103.146 250.253ZM104.248 248.417C104.111 248.421 103.98 248.47 103.875 248.557C103.535 248.946 103.322 249.428 103.263 249.941C103.82 249.61 104.548 248.845 104.487 248.539C104.487 248.539 104.487 248.441 104.279 248.423L104.248 248.417Z" fill="#F99942"/>
<path d="M98.2076 250.149H102.7L103.146 239.739H98.6544L98.2076 250.149Z" fill="#7F3E3B"/>
<path d="M69.566 241.556L73.9847 242.389L78.9602 232.725L74.5416 231.899L69.566 241.556Z" fill="#7F3E3B"/>
<path d="M74.4682 241.93L69.6333 240.473C69.5482 240.448 69.457 240.452 69.3748 240.485C69.2925 240.519 69.224 240.579 69.1805 240.657L67.1731 244.231C67.1252 244.318 67.0977 244.415 67.0927 244.515C67.0876 244.614 67.1052 244.714 67.1441 244.806C67.1829 244.898 67.2421 244.979 67.317 245.045C67.392 245.111 67.4809 245.159 67.577 245.185C69.2723 245.663 70.123 245.797 72.2466 246.452C73.5563 246.844 76.9957 248.288 78.8072 248.821C80.6188 249.353 81.3838 247.646 80.6922 247.26C77.5955 245.54 75.8635 243.68 75.0863 242.407C74.9472 242.176 74.7267 242.006 74.4682 241.93Z" fill="#263238"/>
<path d="M102.669 249.628H97.7731C97.6843 249.628 97.598 249.658 97.5289 249.714C97.4598 249.77 97.412 249.848 97.3937 249.934L96.5063 253.931C96.4839 254.027 96.4838 254.127 96.5058 254.223C96.5279 254.319 96.5715 254.409 96.6335 254.485C96.6954 254.562 96.774 254.624 96.8633 254.665C96.9527 254.707 97.0503 254.728 97.1489 254.726C98.9237 254.726 101.482 254.598 103.71 254.598C106.311 254.598 108.557 254.739 111.61 254.739C113.446 254.739 113.967 252.872 113.196 252.701C109.677 251.936 106.806 251.85 103.765 249.977C103.439 249.761 103.06 249.64 102.669 249.628Z" fill="#263238"/>
<path d="M75.888 111.243C71.9834 113.079 70.38 125.662 70.38 125.662L79.3458 129.181C80.737 125.774 81.8624 122.265 82.7118 118.685C83.997 113.006 79.8966 109.334 75.888 111.243Z" fill="#F99942"/>
<path opacity="0.1" d="M75.888 111.243C71.9834 113.079 70.38 125.662 70.38 125.662L79.3458 129.181C80.737 125.774 81.8624 122.265 82.7118 118.685C83.997 113.006 79.8966 109.334 75.888 111.243Z" fill="black"/>
<path opacity="0.2" d="M81.7203 114.934C82.0259 114.785 82.3458 114.668 82.6751 114.585C83.0327 115.927 83.0454 117.337 82.7118 118.685C81.8623 122.265 80.737 125.774 79.3458 129.181L76.3898 128.024C76.9345 124.738 78.6053 116.427 81.7203 114.934Z" fill="black"/>
<path d="M101.91 111.145C101.91 111.145 106.696 116.549 102.173 150.007H78.1279C77.9627 146.335 80.2821 128.306 76.7203 110.913C79.3803 110.401 82.0705 110.062 84.7742 109.897C88.1782 109.701 91.5907 109.701 94.9946 109.897C97.3289 110.132 99.6411 110.549 101.91 111.145Z" fill="#F99942"/>
<path opacity="0.1" d="M101.91 111.145C101.91 111.145 106.696 116.549 102.173 150.007H78.1279C77.9627 146.335 80.2821 128.306 76.7203 110.913C79.3803 110.401 82.0705 110.062 84.7742 109.897C88.1782 109.701 91.5907 109.701 94.9946 109.897C97.3289 110.132 99.6411 110.549 101.91 111.145Z" fill="black"/>
<path opacity="0.2" d="M97.0693 118.318C98.1587 115.05 100.778 114.003 103.446 115.943C103.985 119.114 104.364 124.224 103.93 132.327L99.2358 132.284C99.2358 132.284 95.472 123.183 97.0693 118.318Z" fill="black"/>
<path d="M104.689 116.084C104.921 117.485 105.178 119.015 105.466 120.472C105.754 121.929 106.078 123.41 106.421 124.854C107.054 127.695 107.916 130.481 108.997 133.183C109.273 133.795 109.554 134.444 109.866 135.019L110.264 135.741C110.364 135.904 110.481 136.056 110.613 136.194C111.524 137.059 112.555 137.788 113.673 138.361C116.315 139.735 119.04 140.945 121.831 141.984L121.164 145.289C117.872 145.061 114.624 144.398 111.506 143.318C110.669 143.027 109.851 142.681 109.058 142.284C108.19 141.841 107.37 141.31 106.61 140.699C106.164 140.331 105.754 139.921 105.386 139.475L105.093 139.089L104.903 138.801C104.774 138.612 104.646 138.422 104.53 138.232C104.052 137.467 103.63 136.702 103.238 135.931C101.806 132.934 100.67 129.804 99.8478 126.586C99.4378 125.013 99.0583 123.446 98.7523 121.861C98.4463 120.276 98.1403 118.728 97.9567 117.039L104.689 116.084Z" fill="#7F3E3B"/>
<path d="M95.9004 114.444C94.6336 118.55 99.7744 130.79 99.7744 130.79L110.601 128.067C109.938 124.198 108.822 120.421 107.277 116.812C103.765 109.175 97.4243 109.493 95.9004 114.444Z" fill="#F99942"/>
<path opacity="0.1" d="M95.9004 114.444C94.6336 118.55 99.7744 130.79 99.7744 130.79L110.601 128.067C109.938 124.198 108.822 120.421 107.277 116.812C103.765 109.175 97.4243 109.493 95.9004 114.444Z" fill="black"/>
<path d="M121.898 141.984L126.543 144.071L122.039 147.786C122.039 147.786 120.056 147.137 119.732 143.881L119.04 141.176L121.078 141.696C121.36 141.767 121.634 141.864 121.898 141.984Z" fill="#7F3E3B"/>
<path d="M129.01 146.323L124.487 149.022L122.039 147.761L126.537 144.046L129.01 146.323Z" fill="#7F3E3B"/>
<path d="M97.0387 109.499C95.0987 107.859 90.3863 106.678 85.1108 106.384C82.0937 106.219 78.9908 106.714 77.6995 107.29C76.4082 107.865 77.9382 112.02 79.6273 112.112C78.7338 113.52 80.0312 116.237 81.9713 116.769C81.6653 119.12 87.5894 119.34 91.1513 117.443C94.0277 115.931 99.3643 111.463 97.0387 109.499Z" fill="#263238"/>
<path opacity="0.2" d="M103.146 239.739L102.92 245.106H98.4218L98.6483 239.739H103.146Z" fill="black"/>
<path opacity="0.2" d="M74.5355 231.899L78.9602 232.731L76.396 237.707L71.9712 236.874L74.5355 231.899Z" fill="black"/>
<path d="M86.0717 94.8599C86.341 99.3153 86.2675 101.935 88.5197 104.224C91.8979 107.663 97.3998 105.631 98.4647 101.164C99.4255 97.1611 98.8197 90.5515 94.4622 88.7705C93.5014 88.3731 92.4547 88.2286 91.422 88.3507C90.3894 88.4729 89.4054 88.8578 88.5638 89.4685C87.7223 90.0793 87.0513 90.8956 86.615 91.8394C86.1788 92.7833 85.9917 93.8232 86.0717 94.8599Z" fill="#7F3E3B"/>
<path d="M94.4071 97.3446C96.0901 95.6432 98.8563 91.9345 97.8894 89.1499C96.4634 85.0311 92.21 86.4265 92.8894 87.2466C90.4414 85.6309 85.4964 85.5513 86.5307 87.7178C82.0814 88.3298 81.7204 90.1352 82.9566 90.8145C79.7864 93.8378 79.9394 96.9651 82.3446 96.7326C80.5086 98.5686 83.8868 102.204 87.6629 103.936C88.9481 100.57 95.8269 99.9578 94.4071 97.3446Z" fill="#263238"/>
<path d="M92.4549 98.9542C92.4269 98.9623 92.3971 98.9623 92.3692 98.9542C92.3526 98.9426 92.3385 98.9278 92.3277 98.9108C92.3169 98.8937 92.3096 98.8746 92.3062 98.8547C92.3028 98.8348 92.3033 98.8144 92.3078 98.7947C92.3123 98.775 92.3207 98.7564 92.3324 98.74C93.2994 97.3201 94.2419 96.1818 95.0742 95.1781C96.6654 93.2565 97.816 91.8672 97.9139 89.9823C97.9368 89.21 97.7179 88.4498 97.2878 87.8079C96.8577 87.1661 96.2378 86.6746 95.5148 86.4021C94.3765 85.888 93.1525 85.8574 92.669 86.3347C92.412 86.5857 92.3875 86.9467 92.5956 87.4486C92.6046 87.4665 92.6096 87.4861 92.6104 87.506C92.6111 87.526 92.6076 87.546 92.6001 87.5645C92.5926 87.583 92.5812 87.5997 92.5667 87.6135C92.5522 87.6273 92.5349 87.6378 92.516 87.6444C92.4976 87.6525 92.4777 87.6569 92.4575 87.6573C92.4373 87.6577 92.4173 87.654 92.3985 87.6467C92.3797 87.6393 92.3626 87.6282 92.3481 87.6142C92.3336 87.6001 92.3221 87.5834 92.3141 87.5649C92.179 87.3399 92.1198 87.0776 92.1451 86.8164C92.1704 86.5553 92.279 86.3092 92.4549 86.1144C93.0301 85.5514 94.3704 85.5514 95.6434 86.1144C96.4225 86.41 97.0897 86.9418 97.5517 87.6353C98.0136 88.3288 98.2473 89.1494 98.2199 89.9823C98.1158 91.9713 96.9408 93.3911 95.3129 95.3556C94.4806 96.3593 93.5442 97.4915 92.5834 98.9052C92.5673 98.9228 92.5472 98.9364 92.5249 98.945C92.5026 98.9535 92.4786 98.9566 92.4549 98.9542Z" fill="#263238"/>
<path d="M92.6752 96.8428C92.7566 97.9478 93.1996 98.9952 93.9359 99.8232C94.9151 100.9 95.9433 100.227 96.1146 98.9174C96.2676 97.7302 95.9494 95.7412 94.7499 95.1475C93.5503 94.5539 92.5956 95.5086 92.6752 96.8428Z" fill="#7F3E3B"/>
<path d="M93.636 150.007C93.636 150.007 95.1537 180.313 92.1978 193.153C87.516 213.484 78.5624 237.064 78.5624 237.064L70.227 235.491C70.227 235.491 77.2466 211.88 78.795 194.952C80.1597 179.75 78.1401 162.29 78.1401 150.007H93.636Z" fill="#263238"/>
<path opacity="0.2" d="M91.39 158.985C92.002 157.804 93.1954 161.323 94.0277 165.84C94.0277 172.07 93.9175 179.157 93.3729 185.16C89.2113 177.48 90.0987 161.433 91.39 158.985Z" fill="black"/>
<path d="M80.6065 234.506C80.6432 234.506 79.303 237.395 79.303 237.395L69.6578 235.516L70.7105 232.609L80.6065 234.506Z" fill="#2C6BDB"/>
<path d="M102.204 150.007C102.204 150.007 108.936 178.704 109.426 192.419C109.958 207.798 104.591 244.065 104.591 244.065H96.9775C96.9775 244.065 96.0411 207.517 95.6984 193.508C95.3312 178.239 86.3716 150.007 86.3716 150.007H102.204Z" fill="#263238"/>
<path d="M106.06 241.03C106.096 241.03 105.631 244.194 105.631 244.194H96.3655L96.1146 241.373L106.06 241.03Z" fill="#2C6BDB"/>
</svg>
