<svg width="500" height="500" viewBox="0 0 500 500" fill="none" xmlns="http://www.w3.org/2000/svg">
<g opacity="0.5">
<path d="M250 427.56C357.082 427.56 443.89 422.492 443.89 416.24C443.89 409.988 357.082 404.92 250 404.92C142.917 404.92 56.1099 409.988 56.1099 416.24C56.1099 422.492 142.917 427.56 250 427.56Z" fill="#F5F5F5"/>
</g>
<path d="M107.85 342.4C107.64 343.87 111.62 344.84 114.85 345.4C114.59 348.07 112.85 350.77 110.36 353.29C107.27 351.55 102.87 349.29 102.06 349.81C101.25 350.33 105.68 353.34 108.5 355.06C106.486 356.821 104.351 358.439 102.11 359.9C100.73 358.61 99.1102 357.47 98.1102 358.09C97.1102 358.71 97.3802 360.72 97.8702 362.51C94.5102 364.46 92.0002 365.65 92.0002 365.65C91.0238 362.532 90.2752 359.347 89.7602 356.12C89.9302 355.79 90.1002 355.45 90.2502 355.12C90.7902 353.87 90.2502 353.34 89.3702 353.12C89.1139 350.842 89.0971 348.542 89.3202 346.26C93.1102 345.46 97.7302 343.99 96.0002 341.71C95.0002 340.33 93.0001 340.18 91.0601 340.52C91.3335 340.069 91.6482 339.643 92.0002 339.25C98.9202 331.63 103.74 339.25 103.74 339.25C107.74 335.9 113.4 336.8 114.62 342.04C112.42 341.45 108.11 340.59 107.85 342.4Z" fill="#F99942"/>
<path opacity="0.3" d="M107.85 342.4C107.64 343.87 111.62 344.84 114.85 345.4C114.59 348.07 112.85 350.77 110.36 353.29C107.27 351.55 102.87 349.29 102.06 349.81C101.25 350.33 105.68 353.34 108.5 355.06C106.486 356.821 104.351 358.439 102.11 359.9C100.73 358.61 99.1102 357.47 98.1102 358.09C97.1102 358.71 97.3802 360.72 97.8702 362.51C94.5102 364.46 92.0002 365.65 92.0002 365.65C91.0238 362.532 90.2752 359.347 89.7602 356.12C89.9302 355.79 90.1002 355.45 90.2502 355.12C90.7902 353.87 90.2502 353.34 89.3702 353.12C89.1139 350.842 89.0971 348.542 89.3202 346.26C93.1102 345.46 97.7302 343.99 96.0002 341.71C95.0002 340.33 93.0001 340.18 91.0601 340.52C91.3335 340.069 91.6482 339.643 92.0002 339.25C98.9202 331.63 103.74 339.25 103.74 339.25C107.74 335.9 113.4 336.8 114.62 342.04C112.42 341.45 108.11 340.59 107.85 342.4Z" fill="white"/>
<path d="M99.2201 398.39L100.22 398.31C100.22 397.79 96.1201 346.78 107.57 341.97C108.116 341.715 108.713 341.59 109.316 341.605C109.918 341.621 110.508 341.777 111.04 342.06C115.18 344.21 117.16 353.14 117.18 353.23L118.18 353.02C118.09 352.63 116.07 343.54 111.52 341.17C110.858 340.82 110.123 340.627 109.374 340.606C108.625 340.585 107.881 340.737 107.2 341.05C95.0701 346.14 99.0001 396.26 99.2201 398.39Z" fill="#F99942"/>
<path d="M97.7799 397.28C97.9799 394.99 102.65 341.02 93.9099 335.28C91.8199 333.9 89.9099 333.61 88.3699 334.41C84.2399 336.5 83.6899 345.32 83.6699 345.7L84.6699 345.75C84.6699 345.67 85.1999 337.13 88.8199 335.3C90.0599 334.68 91.5899 334.95 93.3699 336.11C101.61 341.52 96.8299 396.63 96.7799 397.19L97.7799 397.28Z" fill="#F99942"/>
<path d="M96.46 401.65C96.53 399.89 98 358.58 90 355C89.2603 354.652 88.4527 354.471 87.635 354.471C86.8173 354.471 86.0098 354.652 85.27 355C79.81 357.4 76.44 367.58 76.27 368L77.27 368.31C77.27 368.21 80.64 358.13 85.69 355.91C86.3023 355.619 86.9719 355.467 87.65 355.467C88.3281 355.467 88.9977 355.619 89.61 355.91C95.71 358.68 95.91 389.91 95.47 401.65H96.46Z" fill="#F99942"/>
<path d="M98.4899 399.76L99.4899 399.64C98.0899 387.35 95.4099 354.58 99.7899 350.64C100.003 350.385 100.286 350.198 100.604 350.1C100.921 350.003 101.26 349.999 101.58 350.09C104.51 351.22 106.3 361.87 106.74 365.89L107.74 365.78C107.57 364.24 105.97 350.7 101.94 349.16C101.449 348.993 100.92 348.974 100.419 349.105C99.917 349.237 99.4654 349.513 99.1199 349.9C93.4499 355 98.2799 397.93 98.4899 399.76Z" fill="#F99942"/>
<path d="M115.17 376.45H79.25L82.25 416.69H112.17L115.17 376.45Z" fill="#834C1A"/>
<path opacity="0.2" d="M104.26 376.45L103.26 416.69H82.25L79.25 376.45H104.26Z" fill="white"/>
<path d="M110.28 361.68C110.66 362.68 113.45 361.89 115.64 361.11C116.39 362.84 116.22 365.11 115.57 367.51C113.07 367.51 109.57 367.59 109.26 368.21C108.95 368.83 112.7 369.15 115.03 369.21C114.393 370.985 113.631 372.713 112.75 374.38C111.45 374.06 110.07 373.92 109.68 374.63C109.29 375.34 110.14 376.5 111.05 377.43C109.65 379.79 108.51 381.43 108.51 381.43C106.84 379.84 105.286 378.133 103.86 376.32C103.86 376.05 103.86 375.79 103.86 375.51C103.77 374.56 103.26 374.41 102.65 374.61C101.706 373.293 100.904 371.878 100.26 370.39C102.33 368.6 104.67 366.11 102.82 365.29C101.71 364.8 100.48 365.36 99.3701 366.29C99.381 365.917 99.4279 365.545 99.5101 365.18C101.16 358.11 106.75 361.18 106.75 361.18C108.08 357.74 111.87 356.36 114.42 359.18C112.78 359.52 109.82 360.47 110.28 361.68Z" fill="#F99942"/>
<path opacity="0.3" d="M110.28 361.68C110.66 362.68 113.45 361.89 115.64 361.11C116.39 362.84 116.22 365.11 115.57 367.51C113.07 367.51 109.57 367.59 109.26 368.21C108.95 368.83 112.7 369.15 115.03 369.21C114.393 370.985 113.631 372.713 112.75 374.38C111.45 374.06 110.07 373.92 109.68 374.63C109.29 375.34 110.14 376.5 111.05 377.43C109.65 379.79 108.51 381.43 108.51 381.43C106.84 379.84 105.286 378.133 103.86 376.32C103.86 376.05 103.86 375.79 103.86 375.51C103.77 374.56 103.26 374.41 102.65 374.61C101.706 373.293 100.904 371.878 100.26 370.39C102.33 368.6 104.67 366.11 102.82 365.29C101.71 364.8 100.48 365.36 99.3701 366.29C99.381 365.917 99.4279 365.545 99.5101 365.18C101.16 358.11 106.75 361.18 106.75 361.18C108.08 357.74 111.87 356.36 114.42 359.18C112.78 359.52 109.82 360.47 110.28 361.68Z" fill="white"/>
<path d="M83.6101 366.46C84.7278 366.553 85.8297 366.785 86.8901 367.15C87.1807 366.389 87.3429 365.584 87.3701 364.77C87.6001 357.52 82.3701 360.58 79.6701 358.45C79.0501 357.902 78.3223 357.49 77.5335 357.24C76.7447 356.991 75.9124 356.909 75.0901 357C75.3205 357.401 75.5275 357.815 75.7101 358.24C75.7738 358.399 75.8008 358.57 75.7893 358.741C75.7777 358.912 75.7278 359.078 75.6432 359.227C75.5587 359.376 75.4417 359.504 75.3009 359.601C75.1601 359.699 74.9992 359.763 74.8301 359.79C74.1549 359.926 73.4539 359.842 72.8301 359.55C72.64 359.451 72.4621 359.33 72.3001 359.19C71.8621 359.949 71.5259 360.763 71.3001 361.61C71.0237 362.622 70.866 363.662 70.8301 364.71C71.2399 364.799 71.644 364.912 72.0401 365.05C72.1988 365.118 72.3398 365.221 72.4524 365.352C72.565 365.483 72.6461 365.638 72.6895 365.805C72.733 365.972 72.7376 366.146 72.703 366.315C72.6684 366.485 72.5956 366.643 72.4901 366.78C72.0539 367.196 71.55 367.534 71.0001 367.78C71.1849 368.939 71.4899 370.075 71.9101 371.17C72.0301 371.17 72.1601 371.17 72.2801 371.23C72.4001 371.29 72.8001 371.35 73.0601 371.42C73.2118 371.458 73.3592 371.512 73.5001 371.58C73.6807 371.657 73.8381 371.78 73.9566 371.937C74.0751 372.094 74.1507 372.279 74.176 372.474C74.2012 372.668 74.1752 372.867 74.1005 373.048C74.0258 373.23 73.905 373.389 73.7501 373.51C73.576 373.629 73.3958 373.74 73.2101 373.84C73.8988 375.037 74.8881 376.033 76.0801 376.73C77.1112 376.253 78.1129 375.716 79.0801 375.12C78.8601 374.83 78.6501 374.54 78.4501 374.24C78.2113 373.91 78.1011 373.505 78.1401 373.1C78.1949 372.697 78.406 372.332 78.7278 372.083C79.0495 371.834 79.4562 371.722 79.8601 371.77C80.2562 371.833 80.6137 372.044 80.8601 372.36C81.1001 372.72 81.3601 373.06 81.6201 373.36C83.004 372.34 84.2421 371.135 85.3001 369.78H85.1901C84.5345 369.609 83.8653 369.495 83.1901 369.44C82.982 369.423 82.7795 369.364 82.5949 369.267C82.4102 369.17 82.2473 369.036 82.1161 368.873C81.9848 368.711 81.8879 368.524 81.8312 368.323C81.7746 368.122 81.7594 367.912 81.7865 367.705C81.8137 367.498 81.8826 367.298 81.9891 367.119C82.0957 366.939 82.2376 366.783 82.4063 366.66C82.575 366.538 82.7669 366.45 82.9704 366.404C83.1739 366.357 83.3847 366.353 83.5901 366.39L83.6101 366.46Z" fill="#F99942"/>
<path opacity="0.5" d="M83.6101 366.46C84.7278 366.553 85.8297 366.785 86.8901 367.15C87.1807 366.389 87.3429 365.584 87.3701 364.77C87.6001 357.52 82.3701 360.58 79.6701 358.45C79.0501 357.902 78.3223 357.49 77.5335 357.24C76.7447 356.991 75.9124 356.909 75.0901 357C75.3205 357.401 75.5275 357.815 75.7101 358.24C75.7738 358.399 75.8008 358.57 75.7893 358.741C75.7777 358.912 75.7278 359.078 75.6432 359.227C75.5587 359.376 75.4417 359.504 75.3009 359.601C75.1601 359.699 74.9992 359.763 74.8301 359.79C74.1549 359.926 73.4539 359.842 72.8301 359.55C72.64 359.451 72.4621 359.33 72.3001 359.19C71.8621 359.949 71.5259 360.763 71.3001 361.61C71.0237 362.622 70.866 363.662 70.8301 364.71C71.2399 364.799 71.644 364.912 72.0401 365.05C72.1988 365.118 72.3398 365.221 72.4524 365.352C72.565 365.483 72.6461 365.638 72.6895 365.805C72.733 365.972 72.7376 366.146 72.703 366.315C72.6684 366.485 72.5956 366.643 72.4901 366.78C72.0539 367.196 71.55 367.534 71.0001 367.78C71.1849 368.939 71.4899 370.075 71.9101 371.17C72.0301 371.17 72.1601 371.17 72.2801 371.23C72.4001 371.29 72.8001 371.35 73.0601 371.42C73.2118 371.458 73.3592 371.512 73.5001 371.58C73.6807 371.657 73.8381 371.78 73.9566 371.937C74.0751 372.094 74.1507 372.279 74.176 372.474C74.2012 372.668 74.1752 372.867 74.1005 373.048C74.0258 373.23 73.905 373.389 73.7501 373.51C73.576 373.629 73.3958 373.74 73.2101 373.84C73.8988 375.037 74.8881 376.033 76.0801 376.73C77.1112 376.253 78.1129 375.716 79.0801 375.12C78.8601 374.83 78.6501 374.54 78.4501 374.24C78.2113 373.91 78.1011 373.505 78.1401 373.1C78.1949 372.697 78.406 372.332 78.7278 372.083C79.0495 371.834 79.4562 371.722 79.8601 371.77C80.2562 371.833 80.6137 372.044 80.8601 372.36C81.1001 372.72 81.3601 373.06 81.6201 373.36C83.004 372.34 84.2421 371.135 85.3001 369.78H85.1901C84.5345 369.609 83.8653 369.495 83.1901 369.44C82.982 369.423 82.7795 369.364 82.5949 369.267C82.4102 369.17 82.2473 369.036 82.1161 368.873C81.9848 368.711 81.8879 368.524 81.8312 368.323C81.7746 368.122 81.7594 367.912 81.7865 367.705C81.8137 367.498 81.8826 367.298 81.9891 367.119C82.0957 366.939 82.2376 366.783 82.4063 366.66C82.575 366.538 82.7669 366.45 82.9704 366.404C83.1739 366.357 83.3847 366.353 83.5901 366.39L83.6101 366.46Z" fill="white"/>
<path d="M81.5302 341.48C80.9118 341.037 80.2398 340.674 79.5302 340.4C79.7132 339.874 79.9799 339.381 80.3202 338.94C83.3802 335.03 84.7702 338.94 87.1402 339C87.6999 338.987 88.2561 339.091 88.7729 339.307C89.2896 339.522 89.7555 339.843 90.1402 340.25C89.8416 340.356 89.5509 340.483 89.2702 340.63C89.1682 340.687 89.0801 340.765 89.0121 340.86C88.9441 340.955 88.8979 341.064 88.8769 341.178C88.8559 341.293 88.8605 341.411 88.8905 341.524C88.9204 341.636 88.975 341.741 89.0502 341.83C89.3528 342.204 89.7657 342.474 90.2302 342.6C90.3734 342.61 90.517 342.61 90.6602 342.6C90.5569 343.192 90.3753 343.767 90.1202 344.31C89.8161 344.972 89.4405 345.599 89.0002 346.18C88.7434 346.049 88.4797 345.932 88.2102 345.83C88.0976 345.793 87.9779 345.782 87.8605 345.799C87.743 345.816 87.6313 345.861 87.5341 345.929C87.4369 345.997 87.357 346.086 87.3007 346.191C87.2445 346.295 87.2135 346.412 87.2102 346.53C87.2385 346.95 87.3471 347.361 87.5302 347.74C86.9135 348.272 86.2432 348.737 85.5302 349.13C85.4607 349.078 85.3871 349.031 85.3102 348.99C85.1502 348.9 84.9802 348.83 84.8202 348.75L84.5202 348.64C84.3924 348.605 84.2579 348.602 84.1287 348.632C83.9996 348.661 83.8798 348.723 83.7802 348.81C83.6772 348.9 83.6006 349.017 83.5583 349.147C83.5161 349.277 83.5098 349.417 83.5402 349.55C83.5779 349.69 83.6246 349.827 83.6802 349.96C82.7913 350.284 81.8338 350.374 80.9002 350.22C80.5623 349.508 80.2651 348.776 80.0102 348.03C80.2502 347.97 80.4902 347.92 80.7202 347.85C80.9921 347.778 81.2295 347.611 81.3902 347.38C81.4711 347.266 81.5269 347.135 81.5541 346.998C81.5814 346.86 81.5794 346.718 81.5482 346.582C81.5171 346.445 81.4576 346.316 81.3735 346.204C81.2894 346.092 81.1827 345.998 81.0602 345.93C80.9453 345.854 80.8158 345.802 80.6799 345.777C80.5439 345.753 80.4044 345.758 80.2702 345.79C79.9902 345.87 79.7002 345.93 79.4102 346C79.1305 344.855 79.006 343.678 79.0402 342.5H79.1202C79.5464 342.702 79.9546 342.939 80.3402 343.21C80.5749 343.36 80.8595 343.41 81.1315 343.35C81.4034 343.29 81.6403 343.125 81.7902 342.89C81.9313 342.665 81.9829 342.396 81.9347 342.135C81.8866 341.873 81.7422 341.64 81.5302 341.48Z" fill="#F99942"/>
<path opacity="0.3" d="M81.5302 341.48C80.9118 341.037 80.2398 340.674 79.5302 340.4C79.7132 339.874 79.9799 339.381 80.3202 338.94C83.3802 335.03 84.7702 338.94 87.1402 339C87.6999 338.987 88.2561 339.091 88.7729 339.307C89.2896 339.522 89.7555 339.843 90.1402 340.25C89.8416 340.356 89.5509 340.483 89.2702 340.63C89.1682 340.687 89.0801 340.765 89.0121 340.86C88.9441 340.955 88.8979 341.064 88.8769 341.178C88.8559 341.293 88.8605 341.411 88.8905 341.524C88.9204 341.636 88.975 341.741 89.0502 341.83C89.3528 342.204 89.7657 342.474 90.2302 342.6C90.3734 342.61 90.517 342.61 90.6602 342.6C90.5569 343.192 90.3753 343.767 90.1202 344.31C89.8161 344.972 89.4405 345.599 89.0002 346.18C88.7434 346.049 88.4797 345.932 88.2102 345.83C88.0976 345.793 87.9779 345.782 87.8605 345.799C87.743 345.816 87.6313 345.861 87.5341 345.929C87.4369 345.997 87.357 346.086 87.3007 346.191C87.2445 346.295 87.2135 346.412 87.2102 346.53C87.2385 346.95 87.3471 347.361 87.5302 347.74C86.9135 348.272 86.2432 348.737 85.5302 349.13C85.4607 349.078 85.3871 349.031 85.3102 348.99C85.1502 348.9 84.9802 348.83 84.8202 348.75L84.5202 348.64C84.3924 348.605 84.2579 348.602 84.1287 348.632C83.9996 348.661 83.8798 348.723 83.7802 348.81C83.6772 348.9 83.6006 349.017 83.5583 349.147C83.5161 349.277 83.5098 349.417 83.5402 349.55C83.5779 349.69 83.6246 349.827 83.6802 349.96C82.7913 350.284 81.8338 350.374 80.9002 350.22C80.5623 349.508 80.2651 348.776 80.0102 348.03C80.2502 347.97 80.4902 347.92 80.7202 347.85C80.9921 347.778 81.2295 347.611 81.3902 347.38C81.4711 347.266 81.5269 347.135 81.5541 346.998C81.5814 346.86 81.5794 346.718 81.5482 346.582C81.5171 346.445 81.4576 346.316 81.3735 346.204C81.2894 346.092 81.1827 345.998 81.0602 345.93C80.9453 345.854 80.8158 345.802 80.6799 345.777C80.5439 345.753 80.4044 345.758 80.2702 345.79C79.9902 345.87 79.7002 345.93 79.4102 346C79.1305 344.855 79.006 343.678 79.0402 342.5H79.1202C79.5464 342.702 79.9546 342.939 80.3402 343.21C80.5749 343.36 80.8595 343.41 81.1315 343.35C81.4034 343.29 81.6403 343.125 81.7902 342.89C81.9313 342.665 81.9829 342.396 81.9347 342.135C81.8866 341.873 81.7422 341.64 81.5302 341.48Z" fill="white"/>
<path d="M110.8 348.73C111.01 350.2 107.03 351.17 103.8 351.73C104.06 354.4 105.8 357.09 108.29 359.61C111.38 357.87 115.78 355.61 116.59 356.14C117.4 356.67 112.97 359.67 110.15 361.38C112.164 363.141 114.299 364.758 116.54 366.22C117.92 364.93 119.54 363.8 120.54 364.41C121.54 365.02 121.27 367.05 120.78 368.83C124.14 370.83 126.65 371.98 126.65 371.98C127.627 368.862 128.375 365.677 128.89 362.45C128.72 362.11 128.55 361.78 128.4 361.45C127.86 360.2 128.4 359.66 129.28 359.45C129.537 357.168 129.553 354.865 129.33 352.58C125.54 351.79 120.92 350.31 122.65 348.03C123.65 346.66 125.65 346.5 127.59 346.85C127.317 346.395 127.002 345.967 126.65 345.57C119.73 337.95 114.91 345.57 114.91 345.57C110.91 342.22 105.25 343.13 104.03 348.36C106.23 347.77 110.54 346.91 110.8 348.73Z" fill="#F99942"/>
<path opacity="0.5" d="M110.8 348.73C111.01 350.2 107.03 351.17 103.8 351.73C104.06 354.4 105.8 357.09 108.29 359.61C111.38 357.87 115.78 355.61 116.59 356.14C117.4 356.67 112.97 359.67 110.15 361.38C112.164 363.141 114.299 364.758 116.54 366.22C117.92 364.93 119.54 363.8 120.54 364.41C121.54 365.02 121.27 367.05 120.78 368.83C124.14 370.83 126.65 371.98 126.65 371.98C127.627 368.862 128.375 365.677 128.89 362.45C128.72 362.11 128.55 361.78 128.4 361.45C127.86 360.2 128.4 359.66 129.28 359.45C129.537 357.168 129.553 354.865 129.33 352.58C125.54 351.79 120.92 350.31 122.65 348.03C123.65 346.66 125.65 346.5 127.59 346.85C127.317 346.395 127.002 345.967 126.65 345.57C119.73 337.95 114.91 345.57 114.91 345.57C110.91 342.22 105.25 343.13 104.03 348.36C106.23 347.77 110.54 346.91 110.8 348.73Z" fill="white"/>
<path d="M314.69 88.5901V404.71C314.69 405.323 314.568 405.929 314.332 406.494C314.095 407.06 313.749 407.572 313.312 408.002C312.876 408.432 312.358 408.771 311.79 408.999C311.221 409.227 310.613 409.339 310 409.33H142.88C142.324 409.337 141.772 409.232 141.257 409.02C140.742 408.809 140.275 408.496 139.884 408.1C139.493 407.705 139.186 407.234 138.981 406.717C138.775 406.2 138.677 405.646 138.69 405.09V88.2101C138.67 87.7193 138.747 87.2295 138.917 86.7686C139.087 86.3077 139.346 85.8849 139.679 85.5244C140.013 85.1639 140.414 84.8728 140.861 84.6678C141.307 84.4629 141.789 84.3481 142.28 84.3301H184.06C184.645 84.3405 185.213 84.5249 185.692 84.8598C186.171 85.1947 186.539 85.6648 186.75 86.2101L188.48 90.4701C188.694 91.0116 189.064 91.4775 189.543 91.8086C190.022 92.1398 190.588 92.3212 191.17 92.3301H262.3C262.881 92.3296 263.449 92.1551 263.931 91.8289C264.412 91.5027 264.784 91.0399 265 90.5001L266.73 86.2201C266.946 85.6774 267.315 85.2095 267.793 84.8738C268.271 84.5381 268.836 84.3491 269.42 84.3301H310.6C311.704 84.364 312.75 84.8291 313.514 85.6255C314.279 86.4218 314.701 87.4861 314.69 88.5901Z" fill="#F99942"/>
<path opacity="0.3" d="M314.69 104.08H138.69V388.33H314.69V104.08Z" fill="white"/>
<path d="M188.85 202.66C210.859 202.66 228.7 184.819 228.7 162.81C228.7 140.801 210.859 122.96 188.85 122.96C166.841 122.96 149 140.801 149 162.81C149 184.819 166.841 202.66 188.85 202.66Z" fill="white"/>
<path opacity="0.6" d="M222.71 87.1701C224.047 87.1701 225.13 86.0866 225.13 84.7501C225.13 83.4135 224.047 82.3301 222.71 82.3301C221.374 82.3301 220.29 83.4135 220.29 84.7501C220.29 86.0866 221.374 87.1701 222.71 87.1701Z" fill="white"/>
<path opacity="0.6" d="M230 84.75C230 85.0565 229.909 85.3562 229.739 85.6111C229.568 85.866 229.326 86.0647 229.043 86.182C228.76 86.2993 228.448 86.33 228.148 86.2702C227.847 86.2104 227.571 86.0628 227.354 85.846C227.137 85.6292 226.989 85.353 226.93 85.0524C226.87 84.7517 226.901 84.44 227.018 84.1568C227.135 83.8736 227.334 83.6315 227.589 83.4612C227.844 83.2909 228.143 83.2 228.45 83.2C228.654 83.1987 228.856 83.2378 229.045 83.3153C229.233 83.3927 229.405 83.5068 229.549 83.651C229.693 83.7952 229.807 83.9666 229.885 84.1553C229.962 84.3439 230.001 84.5461 230 84.75Z" fill="white"/>
<path opacity="0.6" d="M158.55 97.0701H160.72V94.1701H158.55V97.0701Z" fill="white"/>
<path opacity="0.6" d="M155 97.0701H157.17V93.2101H155V97.0701Z" fill="white"/>
<path opacity="0.6" d="M151.46 97.0701H153.63V92.2401H151.46V97.0701Z" fill="white"/>
<path opacity="0.6" d="M147.92 97.0701H150.09V91.2701H147.92V97.0701Z" fill="white"/>
<path opacity="0.6" d="M295.23 93.1101H293.94V96.0101H295.23V93.1101Z" fill="white"/>
<path opacity="0.6" d="M296.11 97.0701H306.38V92.0601H296.11V97.0701Z" fill="white"/>
<path d="M194 156C185.74 156.1 173.37 156.75 163.09 159.34C163.09 159.34 164.6 166.92 166.24 177.23C166.85 181.07 167.48 185.23 168.06 189.62C168.14 190.27 168.23 190.92 168.31 191.62L168.43 192.62C168.59 193.93 168.75 195.25 168.9 196.56C168.9 196.85 168.97 197.14 169 197.43C174.793 200.751 181.328 202.564 188.004 202.702C194.68 202.84 201.284 201.299 207.21 198.22C207.13 184.9 206.31 167.99 203.16 156.22C203.17 156.11 199.5 155.94 194 156Z" fill="#F99942"/>
<path opacity="0.6" d="M194 156C185.74 156.1 173.37 156.75 163.09 159.34C163.09 159.34 164.6 166.92 166.24 177.23C166.85 181.07 167.48 185.23 168.06 189.62C168.14 190.27 168.23 190.92 168.31 191.62L168.43 192.62C168.59 193.93 168.75 195.25 168.9 196.56C168.9 196.85 168.97 197.14 169 197.43C174.793 200.751 181.328 202.564 188.004 202.702C194.68 202.84 201.284 201.299 207.21 198.22C207.13 184.9 206.31 167.99 203.16 156.22C203.17 156.11 199.5 155.94 194 156Z" fill="white"/>
<path d="M176.53 157.63C179.83 160.63 187.9 159.52 187.9 159.52C187.9 159.52 192.9 158.14 191.9 156.52C188.9 156.03 187.49 154.64 186.9 152.87C186.58 151.77 186.478 150.619 186.6 149.48C186.6 148.85 186.74 148.21 186.85 147.58L176.85 140.19C178.16 145.11 179.76 154.09 176.53 157.63Z" fill="#EBB376"/>
<path opacity="0.2" d="M179.15 144.93C179.55 150.93 184.47 152.57 186.88 152.93C186.56 151.83 186.458 150.679 186.58 149.54L179.15 144.93Z" fill="black"/>
<path d="M191.56 124.84C191.56 124.84 194.98 133.63 190.93 138.21C186.88 142.79 183.09 125.85 183.09 125.85L191.56 124.84Z" fill="#834C1A"/>
<path d="M178.52 148.58C179.871 149.85 181.6 150.643 183.443 150.838C185.287 151.033 187.144 150.619 188.73 149.66C190.799 148.453 192.333 146.505 193.02 144.21C193.12 143.89 193.19 143.57 193.26 143.21C194.39 137.11 192.97 127.21 186.26 124.88C184.783 124.357 183.197 124.221 181.652 124.485C180.107 124.748 178.656 125.403 177.436 126.387C176.216 127.37 175.268 128.649 174.682 130.103C174.097 131.556 173.893 133.135 174.09 134.69C174.84 141.38 175 145.34 178.52 148.58Z" fill="#EBB376"/>
<path d="M184.37 136.07C184.37 136.62 184.7 137.07 185.06 137.07C185.42 137.07 185.68 136.6 185.66 136.07C185.64 135.54 185.32 135.07 184.96 135.12C184.6 135.17 184.34 135.52 184.37 136.07Z" fill="#834C1A"/>
<path d="M190.53 135.76C190.53 136.3 190.87 136.76 191.23 136.76C191.59 136.76 191.85 136.28 191.82 135.76C191.79 135.24 191.48 134.76 191.12 134.81C190.76 134.86 190.5 135.24 190.53 135.76Z" fill="#834C1A"/>
<path d="M188.58 136.13C189.316 137.764 190.276 139.289 191.43 140.66C191.069 140.948 190.648 141.152 190.199 141.259C189.75 141.366 189.282 141.373 188.83 141.28L188.58 136.13Z" fill="#D58745"/>
<path d="M182.35 134.18C182.41 134.184 182.47 134.172 182.525 134.146C182.579 134.119 182.625 134.08 182.66 134.03C182.878 133.692 183.173 133.41 183.52 133.207C183.868 133.004 184.258 132.885 184.66 132.86C184.702 132.86 184.743 132.852 184.782 132.836C184.821 132.82 184.856 132.796 184.886 132.766C184.916 132.737 184.939 132.701 184.955 132.662C184.972 132.624 184.98 132.582 184.98 132.54C184.98 132.498 184.972 132.456 184.955 132.418C184.939 132.379 184.916 132.343 184.886 132.314C184.856 132.284 184.821 132.26 184.782 132.244C184.743 132.228 184.702 132.22 184.66 132.22C184.153 132.244 183.66 132.388 183.22 132.64C182.78 132.892 182.406 133.245 182.13 133.67C182.081 133.74 182.062 133.825 182.075 133.909C182.088 133.993 182.133 134.068 182.2 134.12C182.247 134.147 182.297 134.167 182.35 134.18Z" fill="#834C1A"/>
<path d="M193.07 133.5C193.132 133.52 193.198 133.52 193.26 133.5C193.334 133.46 193.389 133.392 193.413 133.312C193.438 133.231 193.429 133.144 193.39 133.07C193.155 132.617 192.814 132.228 192.396 131.936C191.978 131.644 191.496 131.456 190.99 131.39C190.948 131.384 190.906 131.388 190.865 131.399C190.825 131.411 190.787 131.432 190.755 131.459C190.723 131.486 190.697 131.52 190.679 131.558C190.661 131.596 190.651 131.638 190.65 131.68C190.647 131.763 190.675 131.843 190.729 131.906C190.783 131.969 190.858 132.01 190.94 132.02C191.338 132.084 191.715 132.24 192.042 132.477C192.368 132.713 192.635 133.022 192.82 133.38C192.849 133.419 192.887 133.45 192.93 133.471C192.974 133.491 193.022 133.501 193.07 133.5Z" fill="#834C1A"/>
<path d="M178.6 126.12L179.25 129.02C178.776 129.306 178.427 129.76 178.273 130.292C178.119 130.824 178.172 131.395 178.42 131.89C179.61 134.27 178.59 138.25 176.84 139.96C176.84 139.96 176.68 138.9 175.84 139.24C175 139.58 175.76 145.14 177.79 147.63C175.269 145.368 173.378 142.491 172.3 139.28C170.37 134 170.3 130 171.15 127.79L178.6 126.12Z" fill="#834C1A"/>
<path d="M171.47 140.36C172.295 141.823 173.664 142.901 175.28 143.36C177.43 143.96 178.51 142.04 177.92 140C177.38 138.2 175.61 135.65 173.44 136C172.97 136.071 172.525 136.259 172.146 136.546C171.766 136.833 171.465 137.211 171.269 137.644C171.074 138.078 170.989 138.553 171.024 139.028C171.059 139.502 171.213 139.96 171.47 140.36Z" fill="#EBB376"/>
<path d="M179.25 129C179.25 129 186.49 131.57 190.61 127.75C194.73 123.93 189.97 118.75 189.97 118.75C188.972 119.78 187.638 120.419 186.21 120.55C183.9 120.71 178.57 119.32 174.28 121.55C169.99 123.78 168.38 129.92 172.28 132.72L179.25 129Z" fill="#834C1A"/>
<path d="M185 142.22C185.374 142.793 185.925 143.229 186.57 143.46C187.214 143.691 187.917 143.705 188.57 143.5" stroke="#834C1A" stroke-width="0.5" stroke-linecap="round" stroke-linejoin="round"/>
<path d="M191.19 159L190.19 163.75C190.19 163.75 195.72 186.82 196.91 198.75L194.91 200.75L191.74 198.75C191.74 198.75 191.46 174.38 188.66 164.14L183.66 160.03L187.66 158.76L191.19 159Z" fill="#F99942"/>
<path d="M177.66 153.11L187.25 157.43L187.81 153.97L191.34 155.21C191.948 155.425 192.467 155.837 192.815 156.38C193.162 156.924 193.319 157.567 193.26 158.21L192.86 162.02L188 159.38L185.57 162.81L174.05 157.26L177.66 153.11Z" fill="#F99942"/>
<path opacity="0.7" d="M177.66 153.11L187.25 157.43L187.81 153.97L191.34 155.21C191.948 155.425 192.467 155.837 192.815 156.38C193.162 156.924 193.319 157.567 193.26 158.21L192.86 162.02L188 159.38L185.57 162.81L174.05 157.26L177.66 153.11Z" fill="white"/>
<path d="M203.19 156.11L192 155.57C193.93 164.57 193.56 187.5 193.56 187.5C183.33 164.03 174.28 156.67 174.28 156.67L163.09 159.35C163.57 165.51 165.99 183.84 167.73 196.62C173.779 200.401 180.732 202.488 187.863 202.664C194.994 202.84 202.042 201.098 208.27 197.62C209.15 169.36 203.19 156.11 203.19 156.11Z" fill="#834C1A"/>
<path opacity="0.1" d="M208.36 188C207.82 166.35 203.19 156.14 203.19 156.14L192 155.57C193.65 163.29 193.61 181.29 193.57 186.23C193.57 187.04 193.57 187.49 193.57 187.49L192.99 186.16C182.99 163.75 174.3 156.66 174.3 156.66L173.53 156.85L163.12 159.35C163.39 162.84 164.28 170.23 165.31 178.35C165.65 180.92 165.99 183.55 166.31 186.15C166.63 188.75 166.97 191.04 167.31 193.35C167.46 194.49 167.61 195.59 167.76 196.66C173.812 200.444 180.768 202.532 187.903 202.708C195.038 202.884 202.089 201.141 208.32 197.66C208.32 197.19 208.32 196.66 208.37 196.23C208.423 193.29 208.42 190.547 208.36 188Z" fill="white"/>
<path opacity="0.2" d="M197.7 166.06L200.29 170.62C200.29 170.62 197.6 188.18 193.29 194.29V190.66L176.55 171.36L179.55 166.72L172 168.2C172 168.2 171.3 161.2 173.54 156.85L174.31 156.67C174.31 156.67 183.36 164.04 193.58 187.5C193.58 187.5 193.96 164.56 192.03 155.57C192.03 155.57 197.36 158.46 201.16 166.06H197.7Z" fill="white"/>
<path opacity="0.2" d="M208.37 196.15C208.417 193.257 208.417 190.53 208.37 187.97L193.61 186.23L193.01 186.16L183.67 185.06L171.29 170L166.34 186.1C166.68 188.56 167 190.99 167.34 193.3C167.49 194.44 167.64 195.54 167.79 196.61C172.193 199.366 177.097 201.229 182.22 202.09C187.308 199.632 192.243 196.87 197 193.82C201.72 195 205.54 195.72 208.37 196.15Z" fill="black"/>
<path d="M203.19 156.12C204.496 160.238 205.561 164.428 206.38 168.67C207.1 172.383 207.621 176.131 207.94 179.9L185.28 187.5L184.28 191.81C184.28 191.81 204.67 194.28 215.8 192.17C218.349 189.821 220.584 187.152 222.45 184.23C220 174.24 207.56 157.14 203.19 156.12Z" fill="#834C1A"/>
<path opacity="0.1" d="M203.19 156.11C204.398 159.882 205.4 163.718 206.19 167.6C206.27 167.96 206.34 168.31 206.41 168.67C207.124 172.384 207.645 176.132 207.97 179.9L193.2 184.85L185.3 187.49L184.3 191.8C184.3 191.8 187.42 192.19 191.89 192.52C194.61 192.73 197.82 192.91 201.14 192.99C206.045 193.198 210.958 192.927 215.81 192.18C218.362 189.831 220.601 187.162 222.47 184.24C220 174.24 207.56 157.14 203.19 156.11Z" fill="white"/>
<path opacity="0.2" d="M214.49 179.83C210.643 184.799 206.146 189.229 201.12 193C197.8 192.92 194.59 192.74 191.87 192.53C191.374 190.911 191.137 189.223 191.17 187.53L193.17 184.89L207.94 179.94C207.615 176.172 207.094 172.424 206.38 168.71C206.31 168.35 206.24 168 206.16 167.64L206.24 167.55C206.24 167.55 212.84 172.56 214.49 179.83Z" fill="black"/>
<path d="M187.53 185.11C187.53 185.11 183.02 181.48 181.26 180.93C179.5 180.38 176.08 183.02 176.08 183.02L180.48 189.3L187.53 185.11Z" fill="#EBB376"/>
<path d="M207.78 184.34L214.49 179.83C214.49 179.83 209.43 176.2 208.77 176.09C208.11 175.98 204.77 179.83 204.77 179.83L207.78 184.34Z" fill="#EBB376"/>
<path d="M163.13 159.35C156.6 162.55 165.94 193.54 174.04 199.84C182.14 206.14 209.62 184.29 209.62 184.29L205.47 178.47C205.47 178.47 184 186 181.18 185.26C178.36 184.52 170.78 168.45 168.31 164.73C166.685 162.374 164.604 160.368 162.19 158.83" fill="#834C1A"/>
<path opacity="0.1" d="M163.13 159.35C156.6 162.55 165.94 193.54 174.04 199.84C182.14 206.14 209.62 184.29 209.62 184.29L205.47 178.47C205.47 178.47 184 186 181.18 185.26C178.36 184.52 170.78 168.45 168.31 164.73C166.685 162.374 164.604 160.368 162.19 158.83" fill="white"/>
<path d="M282.93 144.3H245.82C244.551 144.297 243.334 143.792 242.436 142.894C241.538 141.996 241.033 140.78 241.03 139.51C241.033 138.241 241.539 137.026 242.437 136.129C243.335 135.233 244.552 134.73 245.82 134.73H282.93C284.198 134.73 285.414 135.234 286.31 136.13C287.207 137.026 287.71 138.242 287.71 139.51C287.71 140.779 287.207 141.995 286.311 142.893C285.415 143.792 284.199 144.297 282.93 144.3Z" fill="#F99942"/>
<path d="M299.84 155.62H242.84C242.352 155.62 241.884 155.426 241.539 155.081C241.194 154.736 241 154.268 241 153.78C241 153.539 241.048 153.3 241.14 153.077C241.233 152.855 241.369 152.652 241.54 152.482C241.711 152.312 241.913 152.178 242.137 152.086C242.36 151.995 242.599 151.949 242.84 151.95H299.84C300.081 151.949 300.32 151.995 300.543 152.086C300.767 152.178 300.969 152.312 301.14 152.482C301.311 152.652 301.447 152.855 301.54 153.077C301.632 153.3 301.68 153.539 301.68 153.78C301.68 154.268 301.486 154.736 301.141 155.081C300.796 155.426 300.328 155.62 299.84 155.62Z" fill="#F99942"/>
<path d="M275.67 164.16H242.87C242.629 164.161 242.39 164.115 242.167 164.024C241.944 163.932 241.741 163.798 241.57 163.628C241.399 163.457 241.263 163.255 241.171 163.033C241.078 162.81 241.03 162.571 241.03 162.33C241.03 161.842 241.224 161.374 241.569 161.029C241.914 160.684 242.382 160.49 242.87 160.49H275.67C275.911 160.49 276.15 160.538 276.373 160.63C276.596 160.723 276.798 160.859 276.968 161.03C277.138 161.201 277.272 161.403 277.364 161.627C277.455 161.85 277.502 162.089 277.5 162.33C277.5 162.57 277.453 162.808 277.361 163.03C277.269 163.252 277.134 163.454 276.964 163.624C276.794 163.794 276.593 163.929 276.371 164.021C276.149 164.113 275.911 164.16 275.67 164.16Z" fill="#F99942"/>
<path opacity="0.2" d="M259.91 186.66H245.49C244.902 186.664 244.319 186.552 243.774 186.329C243.229 186.107 242.734 185.779 242.317 185.364C241.9 184.95 241.568 184.457 241.342 183.914C241.116 183.371 241 182.788 241 182.2C241 181.017 241.47 179.883 242.306 179.046C243.143 178.21 244.277 177.74 245.46 177.74H259.88C260.466 177.739 261.047 177.853 261.588 178.077C262.13 178.3 262.622 178.629 263.037 179.043C263.451 179.458 263.78 179.95 264.003 180.492C264.227 181.033 264.341 181.614 264.34 182.2C264.34 183.378 263.874 184.508 263.044 185.343C262.214 186.179 261.088 186.652 259.91 186.66Z" fill="black"/>
<path d="M208.46 214.71H143.32V377.94H208.46V214.71Z" fill="#F99942"/>
<g opacity="0.3">
<path opacity="0.3" d="M191.35 257.83H154.35C154.109 257.83 153.869 257.783 153.646 257.69C153.423 257.598 153.22 257.462 153.049 257.291C152.878 257.12 152.743 256.918 152.65 256.694C152.558 256.471 152.51 256.232 152.51 255.99C152.51 255.749 152.558 255.51 152.651 255.288C152.743 255.065 152.879 254.863 153.05 254.693C153.221 254.523 153.424 254.388 153.647 254.297C153.87 254.205 154.109 254.159 154.35 254.16H191.35C191.591 254.159 191.83 254.205 192.054 254.297C192.277 254.388 192.48 254.523 192.651 254.693C192.822 254.863 192.957 255.065 193.05 255.288C193.143 255.51 193.19 255.749 193.19 255.99C193.19 256.478 192.996 256.946 192.651 257.291C192.306 257.636 191.838 257.83 191.35 257.83Z" fill="white"/>
<path opacity="0.3" d="M177.18 266.37H154.38C153.892 266.37 153.424 266.176 153.079 265.831C152.734 265.486 152.54 265.018 152.54 264.53C152.54 264.289 152.588 264.05 152.68 263.828C152.773 263.605 152.909 263.403 153.08 263.233C153.251 263.063 153.453 262.928 153.677 262.837C153.9 262.745 154.139 262.699 154.38 262.7H177.18C177.666 262.7 178.133 262.893 178.478 263.236C178.822 263.578 179.017 264.044 179.02 264.53C179.02 265.018 178.826 265.486 178.481 265.831C178.136 266.176 177.668 266.37 177.18 266.37Z" fill="white"/>
</g>
<g opacity="0.3">
<path opacity="0.3" d="M181.35 283.38H154.35C153.862 283.38 153.394 283.186 153.049 282.841C152.704 282.496 152.51 282.028 152.51 281.54C152.51 281.299 152.558 281.06 152.651 280.837C152.743 280.615 152.879 280.412 153.05 280.242C153.221 280.072 153.424 279.938 153.647 279.846C153.87 279.755 154.109 279.709 154.35 279.71H181.35C181.591 279.709 181.83 279.755 182.054 279.846C182.277 279.938 182.48 280.072 182.651 280.242C182.822 280.412 182.957 280.615 183.05 280.837C183.143 281.06 183.19 281.299 183.19 281.54C183.19 282.028 182.996 282.496 182.651 282.841C182.306 283.186 181.838 283.38 181.35 283.38Z" fill="white"/>
<path opacity="0.3" d="M187.18 291.92H154.38C154.139 291.921 153.9 291.875 153.677 291.784C153.453 291.692 153.251 291.558 153.08 291.388C152.909 291.217 152.773 291.015 152.68 290.793C152.588 290.57 152.54 290.331 152.54 290.09C152.54 289.602 152.734 289.134 153.079 288.789C153.424 288.444 153.892 288.25 154.38 288.25H187.18C187.668 288.25 188.136 288.444 188.481 288.789C188.826 289.134 189.02 289.602 189.02 290.09C189.017 290.576 188.822 291.042 188.478 291.385C188.133 291.728 187.666 291.92 187.18 291.92Z" fill="white"/>
</g>
<g opacity="0.3">
<path opacity="0.3" d="M191.35 308.93H154.35C154.109 308.931 153.87 308.885 153.647 308.794C153.424 308.702 153.221 308.568 153.05 308.398C152.879 308.227 152.743 308.025 152.651 307.803C152.558 307.58 152.51 307.341 152.51 307.1C152.51 306.612 152.704 306.144 153.049 305.799C153.394 305.454 153.862 305.26 154.35 305.26H191.35C191.838 305.26 192.306 305.454 192.651 305.799C192.996 306.144 193.19 306.612 193.19 307.1C193.19 307.341 193.143 307.58 193.05 307.803C192.957 308.025 192.822 308.227 192.651 308.398C192.48 308.568 192.277 308.702 192.054 308.794C191.83 308.885 191.591 308.931 191.35 308.93Z" fill="white"/>
<path opacity="0.3" d="M167.18 317.48H154.38C153.892 317.48 153.424 317.286 153.079 316.941C152.734 316.596 152.54 316.128 152.54 315.64C152.54 315.399 152.588 315.16 152.68 314.937C152.773 314.715 152.909 314.513 153.08 314.343C153.251 314.172 153.453 314.038 153.677 313.946C153.9 313.855 154.139 313.809 154.38 313.81H167.18C167.666 313.81 168.133 314.003 168.478 314.345C168.822 314.688 169.017 315.154 169.02 315.64C169.017 316.127 168.823 316.594 168.478 316.938C168.134 317.283 167.667 317.477 167.18 317.48Z" fill="white"/>
</g>
<g opacity="0.3">
<path opacity="0.3" d="M171.35 334.49H154.35C154.109 334.49 153.869 334.443 153.646 334.35C153.423 334.258 153.22 334.122 153.049 333.951C152.878 333.78 152.743 333.577 152.65 333.354C152.558 333.131 152.51 332.892 152.51 332.65C152.51 332.409 152.558 332.17 152.651 331.947C152.743 331.725 152.879 331.523 153.05 331.353C153.221 331.182 153.424 331.048 153.647 330.957C153.87 330.865 154.109 330.819 154.35 330.82H171.35C171.591 330.819 171.83 330.865 172.054 330.957C172.277 331.048 172.48 331.182 172.651 331.353C172.822 331.523 172.957 331.725 173.05 331.947C173.143 332.17 173.19 332.409 173.19 332.65C173.19 332.892 173.143 333.131 173.05 333.354C172.958 333.577 172.822 333.78 172.651 333.951C172.48 334.122 172.278 334.258 172.054 334.35C171.831 334.443 171.592 334.49 171.35 334.49Z" fill="white"/>
<path opacity="0.3" d="M187.18 343H154.38C153.892 343 153.424 342.806 153.079 342.461C152.734 342.116 152.54 341.648 152.54 341.16C152.54 340.919 152.588 340.68 152.68 340.457C152.773 340.235 152.909 340.033 153.08 339.863C153.251 339.693 153.453 339.558 153.677 339.467C153.9 339.375 154.139 339.329 154.38 339.33H187.18C187.666 339.33 188.133 339.523 188.478 339.866C188.822 340.208 189.017 340.674 189.02 341.16C189.02 341.648 188.826 342.116 188.481 342.461C188.136 342.806 187.668 343 187.18 343Z" fill="white"/>
</g>
<path opacity="0.3" d="M212.16 377.95H309.74V214.72H212.16V377.95Z" fill="white"/>
<g opacity="0.2">
<path opacity="0.2" d="M227.55 232.27H254.55C254.802 232.289 255.056 232.255 255.294 232.171C255.533 232.087 255.752 231.955 255.938 231.783C256.123 231.611 256.271 231.402 256.372 231.17C256.473 230.938 256.525 230.688 256.525 230.435C256.525 230.182 256.473 229.932 256.372 229.7C256.271 229.468 256.123 229.259 255.938 229.087C255.752 228.915 255.533 228.782 255.294 228.699C255.056 228.615 254.802 228.581 254.55 228.6H227.55C227.297 228.581 227.044 228.615 226.805 228.699C226.566 228.782 226.347 228.915 226.162 229.087C225.977 229.259 225.829 229.468 225.728 229.7C225.626 229.932 225.574 230.182 225.574 230.435C225.574 230.688 225.626 230.938 225.728 231.17C225.829 231.402 225.977 231.611 226.162 231.783C226.347 231.955 226.566 232.087 226.805 232.171C227.044 232.255 227.297 232.289 227.55 232.27Z" fill="black"/>
<path opacity="0.2" d="M290.52 247.34H239.52C239.268 247.321 239.014 247.355 238.775 247.439C238.537 247.522 238.318 247.655 238.132 247.827C237.947 247.999 237.799 248.208 237.698 248.44C237.597 248.672 237.544 248.922 237.544 249.175C237.544 249.428 237.597 249.678 237.698 249.91C237.799 250.142 237.947 250.351 238.132 250.523C238.318 250.695 238.537 250.827 238.775 250.911C239.014 250.995 239.268 251.029 239.52 251.01H290.52C290.772 251.029 291.026 250.995 291.265 250.911C291.503 250.827 291.722 250.695 291.908 250.523C292.093 250.351 292.241 250.142 292.342 249.91C292.443 249.678 292.496 249.428 292.496 249.175C292.496 248.922 292.443 248.672 292.342 248.44C292.241 248.208 292.093 247.999 291.908 247.827C291.722 247.655 291.503 247.522 291.265 247.439C291.026 247.355 290.772 247.321 290.52 247.34Z" fill="black"/>
<path opacity="0.2" d="M227.55 259.55H290.35C290.813 259.516 291.246 259.308 291.562 258.967C291.879 258.627 292.054 258.18 292.054 257.715C292.054 257.25 291.879 256.803 291.562 256.463C291.246 256.122 290.813 255.914 290.35 255.88H227.55C227.297 255.861 227.044 255.895 226.805 255.979C226.566 256.063 226.347 256.195 226.162 256.367C225.977 256.539 225.829 256.748 225.728 256.98C225.626 257.212 225.574 257.462 225.574 257.715C225.574 257.968 225.626 258.218 225.728 258.45C225.829 258.682 225.977 258.891 226.162 259.063C226.347 259.235 226.566 259.367 226.805 259.451C227.044 259.535 227.297 259.569 227.55 259.55Z" fill="black"/>
<path opacity="0.2" d="M290.52 266.07H227.52C227.268 266.051 227.014 266.085 226.775 266.169C226.537 266.252 226.318 266.385 226.132 266.557C225.947 266.729 225.799 266.938 225.698 267.17C225.597 267.402 225.544 267.652 225.544 267.905C225.544 268.158 225.597 268.408 225.698 268.64C225.799 268.872 225.947 269.081 226.132 269.253C226.318 269.425 226.537 269.557 226.775 269.641C227.014 269.725 227.268 269.759 227.52 269.74H290.52C290.772 269.759 291.026 269.725 291.265 269.641C291.503 269.557 291.722 269.425 291.908 269.253C292.093 269.081 292.241 268.872 292.342 268.64C292.443 268.408 292.496 268.158 292.496 267.905C292.496 267.652 292.443 267.402 292.342 267.17C292.241 266.938 292.093 266.729 291.908 266.557C291.722 266.385 291.503 266.252 291.265 266.169C291.026 266.085 290.772 266.051 290.52 266.07Z" fill="black"/>
<path opacity="0.2" d="M227.55 278.29H290.35C290.813 278.256 291.246 278.048 291.562 277.707C291.879 277.367 292.054 276.92 292.054 276.455C292.054 275.99 291.879 275.543 291.562 275.203C291.246 274.862 290.813 274.654 290.35 274.62H227.55C227.297 274.601 227.044 274.635 226.805 274.719C226.566 274.803 226.347 274.935 226.162 275.107C225.977 275.279 225.829 275.488 225.728 275.72C225.626 275.952 225.574 276.202 225.574 276.455C225.574 276.708 225.626 276.958 225.728 277.19C225.829 277.422 225.977 277.631 226.162 277.803C226.347 277.975 226.566 278.107 226.805 278.191C227.044 278.275 227.297 278.309 227.55 278.29Z" fill="black"/>
<path opacity="0.2" d="M290.52 284.81H227.52C227.268 284.791 227.014 284.825 226.775 284.909C226.537 284.992 226.318 285.125 226.132 285.297C225.947 285.469 225.799 285.678 225.698 285.91C225.597 286.142 225.544 286.392 225.544 286.645C225.544 286.898 225.597 287.148 225.698 287.38C225.799 287.612 225.947 287.821 226.132 287.993C226.318 288.165 226.537 288.297 226.775 288.381C227.014 288.465 227.268 288.499 227.52 288.48H290.52C290.772 288.499 291.026 288.465 291.265 288.381C291.503 288.297 291.722 288.165 291.908 287.993C292.093 287.821 292.241 287.612 292.342 287.38C292.443 287.148 292.496 286.898 292.496 286.645C292.496 286.392 292.443 286.142 292.342 285.91C292.241 285.678 292.093 285.469 291.908 285.297C291.722 285.125 291.503 284.992 291.265 284.909C291.026 284.825 290.772 284.791 290.52 284.81Z" fill="black"/>
<path opacity="0.2" d="M227.55 297H276.35C276.813 296.966 277.246 296.758 277.562 296.417C277.879 296.077 278.054 295.63 278.054 295.165C278.054 294.7 277.879 294.253 277.562 293.913C277.246 293.572 276.813 293.364 276.35 293.33H227.55C227.297 293.311 227.044 293.345 226.805 293.429C226.566 293.512 226.347 293.645 226.162 293.817C225.977 293.989 225.829 294.198 225.728 294.43C225.626 294.662 225.574 294.912 225.574 295.165C225.574 295.418 225.626 295.668 225.728 295.9C225.829 296.132 225.977 296.341 226.162 296.513C226.347 296.685 226.566 296.817 226.805 296.901C227.044 296.985 227.297 297.019 227.55 297Z" fill="black"/>
<path opacity="0.2" d="M239.55 315.75H290.35C290.813 315.716 291.246 315.508 291.562 315.167C291.879 314.827 292.054 314.38 292.054 313.915C292.054 313.45 291.879 313.003 291.562 312.663C291.246 312.322 290.813 312.114 290.35 312.08H239.55C239.297 312.061 239.044 312.095 238.805 312.179C238.566 312.262 238.347 312.395 238.162 312.567C237.977 312.739 237.829 312.948 237.728 313.18C237.626 313.412 237.574 313.662 237.574 313.915C237.574 314.168 237.626 314.418 237.728 314.65C237.829 314.882 237.977 315.091 238.162 315.263C238.347 315.435 238.566 315.567 238.805 315.651C239.044 315.735 239.297 315.769 239.55 315.75Z" fill="black"/>
<path opacity="0.2" d="M290.52 322.28H227.52C227.268 322.261 227.014 322.295 226.775 322.379C226.537 322.462 226.318 322.595 226.132 322.767C225.947 322.939 225.799 323.148 225.698 323.38C225.597 323.612 225.544 323.862 225.544 324.115C225.544 324.368 225.597 324.618 225.698 324.85C225.799 325.082 225.947 325.291 226.132 325.463C226.318 325.635 226.537 325.767 226.775 325.851C227.014 325.935 227.268 325.969 227.52 325.95H290.52C290.772 325.969 291.026 325.935 291.265 325.851C291.503 325.767 291.722 325.635 291.908 325.463C292.093 325.291 292.241 325.082 292.342 324.85C292.443 324.618 292.496 324.368 292.496 324.115C292.496 323.862 292.443 323.612 292.342 323.38C292.241 323.148 292.093 322.939 291.908 322.767C291.722 322.595 291.503 322.462 291.265 322.379C291.026 322.295 290.772 322.261 290.52 322.28Z" fill="black"/>
<path opacity="0.2" d="M227.55 334.49H290.35C290.813 334.456 291.246 334.248 291.562 333.907C291.879 333.567 292.054 333.119 292.054 332.655C292.054 332.19 291.879 331.743 291.562 331.403C291.246 331.062 290.813 330.854 290.35 330.82H227.55C227.297 330.801 227.044 330.835 226.805 330.919C226.566 331.002 226.347 331.135 226.162 331.307C225.977 331.479 225.829 331.688 225.728 331.92C225.626 332.152 225.574 332.402 225.574 332.655C225.574 332.908 225.626 333.158 225.728 333.39C225.829 333.622 225.977 333.831 226.162 334.003C226.347 334.175 226.566 334.307 226.805 334.391C227.044 334.475 227.297 334.509 227.55 334.49Z" fill="black"/>
<path opacity="0.2" d="M277.52 341H227.52C227.268 340.981 227.014 341.015 226.775 341.099C226.537 341.182 226.318 341.315 226.132 341.487C225.947 341.659 225.799 341.868 225.698 342.1C225.597 342.331 225.544 342.582 225.544 342.835C225.544 343.088 225.597 343.338 225.698 343.57C225.799 343.802 225.947 344.011 226.132 344.183C226.318 344.355 226.537 344.487 226.775 344.571C227.014 344.655 227.268 344.689 227.52 344.67H277.52C277.772 344.689 278.026 344.655 278.265 344.571C278.503 344.487 278.722 344.355 278.908 344.183C279.093 344.011 279.241 343.802 279.342 343.57C279.443 343.338 279.496 343.088 279.496 342.835C279.496 342.582 279.443 342.331 279.342 342.1C279.241 341.868 279.093 341.659 278.908 341.487C278.722 341.315 278.503 341.182 278.265 341.099C278.026 341.015 277.772 340.981 277.52 341Z" fill="black"/>
<path opacity="0.2" d="M290.52 359.75H227.52C227.268 359.731 227.014 359.765 226.775 359.849C226.537 359.932 226.318 360.065 226.132 360.237C225.947 360.409 225.799 360.618 225.698 360.85C225.597 361.081 225.544 361.332 225.544 361.585C225.544 361.838 225.597 362.088 225.698 362.32C225.799 362.552 225.947 362.761 226.132 362.933C226.318 363.105 226.537 363.237 226.775 363.321C227.014 363.405 227.268 363.439 227.52 363.42H290.52C290.772 363.439 291.026 363.405 291.265 363.321C291.503 363.237 291.722 363.105 291.908 362.933C292.093 362.761 292.241 362.552 292.342 362.32C292.443 362.088 292.496 361.838 292.496 361.585C292.496 361.332 292.443 361.081 292.342 360.85C292.241 360.618 292.093 360.409 291.908 360.237C291.722 360.065 291.503 359.932 291.265 359.849C291.026 359.765 290.772 359.731 290.52 359.75Z" fill="black"/>
</g>
<g opacity="0.3">
<path opacity="0.3" d="M181.35 232.27H154.35C154.109 232.271 153.87 232.225 153.647 232.134C153.424 232.042 153.221 231.908 153.05 231.738C152.879 231.568 152.743 231.365 152.651 231.143C152.558 230.92 152.51 230.681 152.51 230.44C152.51 230.198 152.558 229.959 152.65 229.736C152.743 229.513 152.878 229.31 153.049 229.139C153.22 228.968 153.423 228.833 153.646 228.74C153.869 228.648 154.109 228.6 154.35 228.6H181.35C181.838 228.6 182.306 228.794 182.651 229.139C182.996 229.484 183.19 229.952 183.19 230.44C183.19 230.681 183.143 230.92 183.05 231.143C182.957 231.365 182.822 231.568 182.651 231.738C182.48 231.908 182.277 232.042 182.054 232.134C181.83 232.225 181.591 232.271 181.35 232.27Z" fill="white"/>
<path opacity="0.3" d="M167.18 240.82H154.38C153.892 240.82 153.424 240.626 153.079 240.281C152.734 239.936 152.54 239.468 152.54 238.98C152.54 238.739 152.588 238.5 152.68 238.278C152.773 238.055 152.909 237.853 153.08 237.683C153.251 237.513 153.453 237.378 153.677 237.287C153.9 237.195 154.139 237.149 154.38 237.15H167.18C167.666 237.155 168.131 237.353 168.472 237.7C168.813 238.046 169.003 238.514 169 239C168.992 239.48 168.798 239.939 168.458 240.279C168.119 240.618 167.66 240.812 167.18 240.82Z" fill="white"/>
</g>
<path d="M396.9 180.86L399.34 176.43L405.62 167.3L406.8 159.74C406.8 159.74 412.3 161.74 413.2 163.37C414.1 165 413.68 173.07 413.2 174.06C412.72 175.05 407.05 178.94 407.05 178.94L404.05 184.74L396.9 180.86Z" fill="#EBB376"/>
<path d="M369.06 149.09C369.06 149.09 389.38 181 391.76 183.86C394.14 186.72 396.76 176.43 396.76 176.43L407.04 180.91C407.04 180.91 404.14 200.42 396.23 201.21C388.32 202 371.44 181.21 371.44 181.21L369.06 149.09Z" fill="#834C1A"/>
<path opacity="0.1" d="M407.05 180.91C407.05 180.91 404.15 200.42 396.24 201.22C392.29 201.61 386.09 196.61 380.89 191.5C375.69 186.39 371.45 181.18 371.45 181.18L370.63 170.18L369.06 149.04C369.06 149.04 389.38 180.95 391.76 183.81C394.14 186.67 396.76 176.38 396.76 176.38L407.05 180.91Z" fill="white"/>
<path opacity="0.2" d="M380.89 191.5C375.68 186.39 371.45 181.18 371.45 181.18L370.63 170.18C376.589 175.759 380.248 183.363 380.89 191.5Z" fill="black"/>
<path d="M329.73 320.23V310.33C329.73 310.167 329.674 310.009 329.572 309.882C329.471 309.755 329.329 309.666 329.17 309.63L322 308C321.846 307.966 321.686 307.963 321.531 307.991C321.375 308.019 321.227 308.078 321.094 308.163C320.961 308.248 320.847 308.359 320.757 308.489C320.667 308.619 320.603 308.766 320.57 308.92C320.56 309.01 320.56 309.1 320.57 309.19C320.57 312.39 320.79 314.72 320.77 318.74C320.77 321.22 320.46 328.69 320.45 332.11C320.44 335.53 323.81 336 324.12 334.6C325.52 328.32 327.44 323.6 329.26 321.6C329.583 321.218 329.75 320.729 329.73 320.23Z" fill="#834C1A"/>
<path d="M373.92 229.08L377.12 245.85C377.12 245.85 402.39 286.75 402.38 310.36C402.38 338.57 328.78 322.3 328.78 322.3V309.3C328.78 309.3 372.78 313.08 376.78 308.67C381.59 303.31 351.93 261.87 351.93 261.87L373.92 229.08Z" fill="#834C1A"/>
<path opacity="0.2" d="M402.38 310.37C402.38 325.92 380 327.95 359.93 326.64C349.931 325.925 339.987 324.573 330.16 322.59L328.78 322.3V309.3L330.4 309.43C335.4 309.83 350.97 310.96 362.75 310.79C369.75 310.69 375.42 310.12 376.75 308.67C379.11 306.04 373.15 294.67 366.48 283.83C359.57 272.6 351.9 261.88 351.9 261.88L361.56 247.5L373.94 229.08L377.14 245.85C377.14 245.85 402.39 286.75 402.38 310.37Z" fill="white"/>
<path opacity="0.2" d="M362.75 310.8L359.93 326.64C349.931 325.925 339.987 324.573 330.16 322.59L330.4 309.44C335.4 309.84 351 311 362.75 310.8Z" fill="black"/>
<path opacity="0.2" d="M361.58 265.44C361.58 265.44 365.69 275.11 366.46 283.83C359.55 272.6 351.88 261.88 351.88 261.88L361.54 247.5L366.63 245.85C366.63 245.85 367.76 252.45 361.58 265.44Z" fill="black"/>
<path d="M355 407.41H345.1C344.938 407.414 344.782 407.471 344.656 407.572C344.529 407.673 344.439 407.813 344.4 407.97L342.8 415.23C342.766 415.384 342.763 415.543 342.792 415.697C342.82 415.852 342.878 416 342.964 416.132C343.049 416.264 343.16 416.378 343.29 416.467C343.42 416.556 343.566 416.618 343.72 416.65C343.81 416.66 343.9 416.66 343.99 416.65C347.19 416.6 349.52 416.4 353.55 416.4C356.02 416.4 363.5 416.66 366.92 416.66C370.34 416.66 370.78 413.28 369.38 412.97C363.1 411.6 358.38 409.71 356.38 407.9C355.999 407.568 355.506 407.393 355 407.41Z" fill="#834C1A"/>
<path d="M329.83 229.62C329.83 229.62 327.64 237.83 329.83 275.47C333.21 333.26 343.92 410.19 343.92 410.19L356.37 407.93C356.37 407.93 354.78 292.85 356.46 261.09C356.46 261.09 374.06 245.3 373.92 229.09C373.78 212.88 329.83 229.62 329.83 229.62Z" fill="#834C1A"/>
<path opacity="0.2" d="M329.83 229.62C329.83 229.62 327.64 237.83 329.83 275.47C333.21 333.26 343.92 410.19 343.92 410.19L356.37 407.93C356.37 407.93 354.78 292.85 356.46 261.09C356.46 261.09 374.06 245.3 373.92 229.09C373.78 212.88 329.83 229.62 329.83 229.62Z" fill="white"/>
<path d="M373.37 224.43H329.83V229.62L373.93 229.08L373.37 224.43Z" fill="#834C1A"/>
<path d="M343.83 231.3H345.38V222.1H343.83V231.3Z" fill="#834C1A"/>
<path d="M365.86 231.3H367.41V222.1H365.86V231.3Z" fill="#834C1A"/>
<path d="M353.53 229.32H361.58V223.52H353.53V229.32Z" fill="white"/>
<path opacity="0.2" d="M343.83 231.3H345.38V222.1H343.83V231.3Z" fill="white"/>
<path opacity="0.2" d="M365.86 231.3H367.41V222.1H365.86V231.3Z" fill="white"/>
<path d="M369.06 149.09C369.06 149.09 341.55 147.79 321.06 152.96C321.06 152.96 330.11 198.52 329.77 224.43H373.38C373.38 224.43 376.2 175.83 369.06 149.09Z" fill="#F99942"/>
<path opacity="0.6" d="M373.37 224.43H329.77C329.77 221.61 329.77 218.57 329.57 215.37C329.19 207.89 328.34 199.6 327.31 191.58L327.01 189.24C326.31 184.03 325.56 178.99 324.83 174.39C322.83 162.04 321.06 152.96 321.06 152.96C341.55 147.79 369.06 149.08 369.06 149.08C376.2 175.83 373.37 224.43 373.37 224.43Z" fill="white"/>
<path d="M337.12 150.9C341.07 154.49 350.74 153.16 350.74 153.16C350.74 153.16 356.74 151.51 355.52 149.62C351.96 149.03 350.24 147.37 349.52 145.24C349.134 143.924 349.012 142.544 349.16 141.18C349.221 140.419 349.321 139.661 349.46 138.91L337.46 130.05C339.07 135.9 341 146.66 337.12 150.9Z" fill="#EBB376"/>
<path opacity="0.2" d="M340.26 135.68C340.74 142.86 346.64 144.84 349.52 145.24C349.134 143.924 349.012 142.544 349.16 141.18L340.26 135.68Z" fill="black"/>
<path d="M333.51 111.45C333.51 111.45 330.17 122.25 335.4 127.38C340.63 132.51 343.71 111.94 343.71 111.94L333.51 111.45Z" fill="#834C1A"/>
<path d="M351.11 138.71C349.609 140.347 347.611 141.445 345.425 141.835C343.239 142.225 340.985 141.886 339.01 140.87C336.428 139.609 334.424 137.409 333.41 134.72C333.27 134.36 333.15 133.97 333.04 133.58C331.17 126.4 332.04 114.45 339.83 111.09C342.499 109.929 345.519 109.872 348.229 110.933C350.94 111.994 353.119 114.086 354.29 116.75C354.987 118.321 355.299 120.035 355.2 121.75C354.9 129.8 355.09 134.53 351.11 138.71Z" fill="#EBB376"/>
<path d="M343.06 124.27C343.12 124.91 342.74 125.45 342.31 125.46C341.88 125.47 341.53 124.94 341.51 124.29C341.49 123.64 341.84 123.1 342.26 123.1C342.68 123.1 343 123.6 343.06 124.27Z" fill="#834C1A"/>
<path d="M335.67 124.41C335.73 125.06 335.34 125.6 334.92 125.61C334.5 125.62 334.14 125.09 334.12 124.44C334.1 123.79 334.45 123.25 334.87 123.24C335.29 123.23 335.66 123.79 335.67 124.41Z" fill="#834C1A"/>
<path d="M338 124.69C337.267 126.707 336.257 128.612 335 130.35C335.457 130.661 335.977 130.869 336.523 130.958C337.068 131.048 337.627 131.018 338.16 130.87L338 124.69Z" fill="#D58745"/>
<path d="M345.31 121.83C345.239 121.84 345.167 121.831 345.101 121.804C345.034 121.778 344.975 121.735 344.93 121.68C344.641 121.296 344.267 120.984 343.836 120.771C343.405 120.557 342.931 120.447 342.45 120.45C342.348 120.459 342.247 120.427 342.168 120.361C342.09 120.296 342.04 120.202 342.03 120.1C342.026 120.05 342.032 120 342.047 119.952C342.063 119.905 342.087 119.86 342.12 119.822C342.152 119.784 342.192 119.753 342.237 119.73C342.281 119.708 342.33 119.694 342.38 119.69C342.989 119.672 343.593 119.801 344.141 120.065C344.689 120.33 345.166 120.722 345.53 121.21C345.599 121.281 345.638 121.376 345.638 121.475C345.638 121.574 345.599 121.669 345.53 121.74C345.462 121.781 345.387 121.811 345.31 121.83Z" fill="#834C1A"/>
<path d="M332.44 121.93C332.369 121.955 332.291 121.955 332.22 121.93C332.174 121.911 332.132 121.882 332.097 121.846C332.062 121.811 332.035 121.768 332.016 121.722C331.997 121.675 331.988 121.626 331.989 121.576C331.989 121.526 332 121.476 332.02 121.43C332.26 120.869 332.634 120.375 333.107 119.99C333.581 119.605 334.141 119.341 334.74 119.22C334.839 119.206 334.94 119.231 335.021 119.291C335.101 119.351 335.155 119.441 335.17 119.54C335.182 119.639 335.155 119.739 335.095 119.819C335.036 119.899 334.948 119.953 334.85 119.97C334.379 120.08 333.941 120.3 333.571 120.611C333.201 120.922 332.91 121.316 332.72 121.76C332.687 121.806 332.646 121.845 332.598 121.874C332.549 121.904 332.496 121.923 332.44 121.93Z" fill="#834C1A"/>
<path d="M349.11 111.88L348.58 115.4C349.17 115.703 349.623 116.217 349.851 116.84C350.079 117.462 350.064 118.148 349.81 118.76C348.59 121.71 350.15 126.37 352.39 128.27C352.39 128.27 352.49 126.99 353.57 127.27C354.65 127.55 354.17 134.27 351.96 137.46C354.775 134.543 356.787 130.946 357.8 127.02C359.66 120.54 359.46 115.75 358.19 113.19L349.11 111.88Z" fill="#834C1A"/>
<path d="M358.84 128.29C358.422 129.207 357.826 130.032 357.089 130.719C356.351 131.405 355.485 131.939 354.54 132.29C352.02 133.19 350.54 130.98 351.1 128.5C351.6 126.29 353.49 123.1 356.1 123.29C358.71 123.48 359.86 126 358.84 128.29Z" fill="#EBB376"/>
<path d="M337.57 132.83C337.904 133.759 338.168 134.712 338.36 135.68C338.533 135.69 338.707 135.69 338.88 135.68C341.24 135.57 342.3 134.74 342.76 133.86C342.973 133.421 343.079 132.938 343.07 132.45C343.072 132.173 343.035 131.897 342.96 131.63C341.536 132.347 339.973 132.747 338.38 132.8C337.88 132.83 337.57 132.83 337.57 132.83Z" fill="#834C1A"/>
<path d="M338.38 132.78L338.63 133.62C340.85 133.51 342.4 133.14 343.07 132.43C343.072 132.153 343.035 131.877 342.96 131.61C341.536 132.327 339.973 132.727 338.38 132.78Z" fill="white"/>
<path d="M338.88 135.66C341.24 135.55 342.3 134.72 342.76 133.84C341.862 133.898 340.982 134.115 340.16 134.48C339.619 134.727 339.17 135.141 338.88 135.66Z" fill="#DE5753"/>
<path d="M348.58 115.4C348.58 115.4 340.15 119.09 334.9 114.87C329.65 110.65 334.9 104.08 334.9 104.08C336.181 105.219 337.826 105.864 339.54 105.9C342.31 105.9 348.54 103.79 353.88 106.03C359.22 108.27 361.64 115.53 357.18 119.22L348.58 115.4Z" fill="#834C1A"/>
<path d="M354.68 152.57L353.53 158.27C353.53 158.27 360.15 185.91 361.58 200.27L359.16 202.68L355.36 200.27C355.36 200.27 355.02 171.07 351.67 158.8L345.67 153.88L350.4 152.35L354.68 152.57Z" fill="#F99942"/>
<path d="M338.47 145.48L350 150.66L350.68 146.51L354.9 148C355.638 148.256 356.267 148.754 356.684 149.413C357.102 150.072 357.284 150.854 357.2 151.63L356.73 156.19L350.85 153L347.95 157.11L334.14 150.46L338.47 145.48Z" fill="#F99942"/>
<path opacity="0.7" d="M338.47 145.48L350 150.66L350.68 146.51L354.9 148C355.638 148.256 356.267 148.754 356.684 149.413C357.102 150.072 357.284 150.854 357.2 151.63L356.73 156.19L350.85 153L347.95 157.11L334.14 150.46L338.47 145.48Z" fill="white"/>
<path d="M334.46 149.75C334.46 149.75 345.3 158.57 357.55 186.69C357.55 186.69 358 159.21 355.69 148.43L369.06 149.08C369.06 149.08 378.84 170.69 373.93 217.37L377.32 240.71L362.58 246.88L359.18 236L355.69 246.67L327.27 242.87L328.78 213.4C328.78 213.4 322 164.71 321.06 153L334.46 149.75Z" fill="#834C1A"/>
<path opacity="0.1" d="M377.32 240.72L362.58 246.88L359.18 236L355.69 246.66L344.69 245.19L327.25 242.86L328 228.22L328.76 213.39C328.76 213.39 327.54 204.62 326.05 193.63C325.28 187.93 324.45 181.63 323.67 175.63C322.43 165.95 321.36 157.09 321.04 152.91L333.51 149.91L334.44 149.69C334.44 149.69 345.28 158.52 357.53 186.63C357.53 186.63 357.98 159.15 355.67 148.38L369.04 149.03C369.04 149.03 378.82 170.63 373.91 217.32L377.32 240.72Z" fill="white"/>
<path opacity="0.2" d="M362.48 161L365.58 166.47C365.58 166.47 362.36 187.47 357.18 194.83V190.48L337.12 167.35L340.72 161.79L331.72 163.57C331.72 163.57 330.88 155.12 333.56 149.97L334.49 149.75C334.49 149.75 345.33 158.58 357.58 186.69C357.58 186.69 358.03 159.21 355.72 148.44C355.72 148.44 362.11 151.9 366.66 161H362.48Z" fill="white"/>
<path opacity="0.2" d="M326.07 193.66C325.3 187.96 324.47 181.66 323.69 175.66L326.88 174.03C326.88 174.03 329.74 185 326.07 193.66Z" fill="black"/>
<path opacity="0.2" d="M344.71 245.22L327.27 242.89L328.02 228.25C333.35 230.84 342 236.28 344.71 245.22Z" fill="black"/>
<path d="M321.06 153C321.06 153 299.71 184.89 301.82 202.69C303.93 220.49 329.82 249.49 329.82 249.49L338.07 244.36C338.07 244.36 317.37 212.59 315.53 202.69C314.53 197.37 326.87 174.08 326.87 174.08C326.87 174.08 326.05 158 321.06 153Z" fill="#834C1A"/>
<path opacity="0.1" d="M321.06 153C321.06 153 299.71 184.89 301.82 202.69C303.93 220.49 329.82 249.49 329.82 249.49L338.07 244.36C338.07 244.36 317.37 212.59 315.53 202.69C314.53 197.37 326.87 174.08 326.87 174.08C326.87 174.08 326.05 158 321.06 153Z" fill="white"/>
<path d="M388.06 175.16L389.98 148.94L407.05 150.12L409.07 141.72L413.2 143.45L404.56 174.06L388.06 175.16Z" fill="#F99942"/>
<path opacity="0.7" d="M388.06 175.16L389.98 148.94L407.05 150.12L409.07 141.72L413.2 143.45L404.56 174.06L388.06 175.16Z" fill="white"/>
<path d="M384.57 178.94L390.9 151.78H408.04L414.11 141.98L409.1 171.04L403.03 177.4L384.57 178.94Z" fill="#F99942"/>
<path opacity="0.2" d="M408.04 151.78L403.03 177.4L409.1 171.04L414.11 141.98L408.04 151.78Z" fill="black"/>
<path d="M410.74 161.51C410.74 161.51 407.85 162.51 407.45 164.19C407.05 165.87 406.4 176.45 406.4 176.45C406.4 176.45 410.88 175.45 411.54 173.02C412.2 170.59 410.74 161.51 410.74 161.51Z" fill="#EBB376"/>
</svg>
