<svg width="306" height="306" viewBox="0 0 306 306" fill="none" xmlns="http://www.w3.org/2000/svg">
<path d="M150.154 276.85C204.041 276.85 247.725 273.436 247.725 269.225C247.725 265.013 204.041 261.599 150.154 261.599C96.2671 261.599 52.583 265.013 52.583 269.225C52.583 273.436 96.2671 276.85 150.154 276.85Z" fill="#F5F5F5"/>
<path d="M242.909 98.8932L229.867 139.579C229.718 140.045 229.451 140.465 229.091 140.797C228.731 141.129 228.292 141.362 227.815 141.473C227.338 141.585 226.84 141.57 226.371 141.431C225.901 141.292 225.476 141.033 225.136 140.681L218.355 133.661C217.843 133.133 217.146 132.825 216.411 132.801C215.676 132.777 214.96 133.039 214.414 133.532L157.786 184.94C157.28 185.399 156.626 185.659 155.943 185.674C155.261 185.689 154.596 185.456 154.071 185.02L118.116 155.124C117.596 154.696 116.942 154.468 116.269 154.479C115.596 154.49 114.949 154.74 114.444 155.185L43.8131 217.78L46.4936 192.688C46.5625 191.98 46.897 191.324 47.43 190.852L114.083 131.782C114.589 131.34 115.236 131.091 115.909 131.081C116.581 131.071 117.235 131.3 117.755 131.727L153.563 161.568C154.088 162.005 154.753 162.237 155.435 162.222C156.118 162.208 156.772 161.947 157.278 161.489L201.954 120.907C202.235 120.652 202.462 120.343 202.621 119.999C202.78 119.654 202.868 119.281 202.88 118.902C202.892 118.523 202.828 118.145 202.691 117.792C202.553 117.438 202.347 117.115 202.082 116.843L195.412 109.903C195.063 109.543 194.816 109.096 194.696 108.609C194.576 108.122 194.588 107.612 194.73 107.131C194.872 106.65 195.139 106.215 195.504 105.871C195.869 105.527 196.318 105.286 196.807 105.172L239.574 95.2702C240.061 95.1558 240.571 95.1732 241.05 95.3204C241.528 95.4676 241.96 95.7394 242.299 96.108C242.638 96.4766 242.874 96.9287 242.981 97.4181C243.088 97.9074 243.063 98.4165 242.909 98.8932Z" fill="#F99942"/>
<path opacity="0.1" d="M242.891 98.9606L229.892 139.536C229.739 140.009 229.466 140.433 229.101 140.769C228.735 141.105 228.288 141.34 227.805 141.452C227.321 141.565 226.817 141.55 226.34 141.409C225.864 141.268 225.433 141.007 225.087 140.65L218.355 133.71C217.836 133.173 217.128 132.859 216.381 132.834C215.635 132.809 214.908 133.075 214.353 133.575L157.786 184.94C157.228 185.45 156.491 185.718 155.736 185.687C155.102 185.667 154.495 185.434 154.01 185.026L118.134 155.167C117.604 154.732 116.937 154.499 116.252 154.509C115.566 154.519 114.906 154.771 114.389 155.222L43.8131 217.78L46.6099 191.63L114.058 131.856C114.574 131.403 115.235 131.149 115.921 131.139C116.607 131.129 117.275 131.363 117.804 131.801L133.049 144.487L153.532 161.568C154.066 162.009 154.74 162.243 155.432 162.228C156.124 162.214 156.788 161.951 157.302 161.489L201.96 120.931C202.246 120.673 202.477 120.36 202.64 120.011C202.802 119.661 202.892 119.283 202.905 118.898C202.917 118.512 202.852 118.129 202.713 117.769C202.574 117.41 202.363 117.083 202.095 116.807L195.479 109.958C195.126 109.592 194.876 109.139 194.756 108.645C194.635 108.151 194.647 107.633 194.792 107.146C194.936 106.658 195.207 106.217 195.577 105.868C195.947 105.52 196.403 105.275 196.899 105.16L239.518 95.2825C240.012 95.1714 240.527 95.1927 241.01 95.3441C241.493 95.4956 241.928 95.7718 242.27 96.145C242.612 96.5182 242.849 96.975 242.958 97.4694C243.067 97.9637 243.044 98.4781 242.891 98.9606Z" fill="black"/>
<path d="M169.102 251.557H116.892V263.405H169.102V251.557Z" fill="#F99942"/>
<path opacity="0.2" d="M123.502 251.557H122.088V263.405H123.502V251.557Z" fill="black"/>
<path opacity="0.2" d="M130.766 251.557H129.352V263.405H130.766V251.557Z" fill="black"/>
<path opacity="0.2" d="M138.024 263.405H136.611V251.557L138.024 251.765V263.405Z" fill="black"/>
<path opacity="0.2" d="M145.289 251.557H143.875V263.405H145.289V251.557Z" fill="black"/>
<path opacity="0.2" d="M152.553 251.557H151.14V263.405H152.553V251.557Z" fill="black"/>
<path opacity="0.2" d="M159.812 251.557H158.398V263.405H159.812V251.557Z" fill="black"/>
<path opacity="0.2" d="M167.076 251.557H165.662V263.405H167.076V251.557Z" fill="black"/>
<path opacity="0.09" d="M169.102 251.557H116.892V253.999H169.102V251.557Z" fill="black"/>
<path d="M177.241 239.702H125.032V251.55H177.241V239.702Z" fill="#F99942"/>
<path opacity="0.2" d="M131.641 239.702H130.227V251.55H131.641V239.702Z" fill="black"/>
<path opacity="0.2" d="M138.906 239.702H137.492V251.55H138.906V239.702Z" fill="black"/>
<path opacity="0.2" d="M146.17 239.702H144.756V251.55H146.17V239.702Z" fill="black"/>
<path opacity="0.2" d="M153.428 239.702H152.015V251.55H153.428V239.702Z" fill="black"/>
<path opacity="0.2" d="M160.693 239.702H159.279V251.55H160.693V239.702Z" fill="black"/>
<path opacity="0.2" d="M167.951 239.702H166.537V251.55H167.951V239.702Z" fill="black"/>
<path opacity="0.2" d="M175.216 239.702H173.802V251.55H175.216V239.702Z" fill="black"/>
<path opacity="0.09" d="M177.241 239.702H125.032V242.144H177.241V239.702Z" fill="black"/>
<path d="M169.983 227.854H117.773V239.702H169.983V227.854Z" fill="#F99942"/>
<path opacity="0.2" d="M124.383 227.854H122.969V239.702H124.383V227.854Z" fill="black"/>
<path opacity="0.2" d="M131.641 239.708H130.227V227.866L131.641 227.854V239.708Z" fill="black"/>
<path opacity="0.2" d="M138.906 227.854H137.492V239.702H138.906V227.854Z" fill="black"/>
<path opacity="0.2" d="M146.17 227.854H144.756V239.702H146.17V227.854Z" fill="black"/>
<path opacity="0.2" d="M153.428 239.708H152.015V227.854L153.428 227.866V239.708Z" fill="black"/>
<path opacity="0.2" d="M160.693 227.854H159.279V239.702H160.693V227.854Z" fill="black"/>
<path opacity="0.2" d="M167.951 227.854H166.537V239.702H167.951V227.854Z" fill="black"/>
<path opacity="0.09" d="M169.983 227.854H117.773V230.773H169.983V227.854Z" fill="black"/>
<path d="M177.241 216.012H125.032V227.86H177.241V216.012Z" fill="#F99942"/>
<path opacity="0.2" d="M131.641 216.012H130.227V227.86H131.641V216.012Z" fill="black"/>
<path opacity="0.2" d="M138.906 216.012H137.492V227.86H138.906V216.012Z" fill="black"/>
<path opacity="0.2" d="M146.17 216.012H144.756V227.86H146.17V216.012Z" fill="black"/>
<path opacity="0.2" d="M153.428 216.012H152.015V227.86H153.428V216.012Z" fill="black"/>
<path opacity="0.2" d="M160.693 216.012H159.279V227.86H160.693V216.012Z" fill="black"/>
<path opacity="0.2" d="M167.951 227.854L166.537 227.866V216.012L167.951 216.226V227.854Z" fill="black"/>
<path opacity="0.2" d="M175.216 216.012H173.802V227.86H175.216V216.012Z" fill="black"/>
<path opacity="0.09" d="M177.241 216.012H125.032V218.454H177.241V216.012Z" fill="black"/>
<path d="M179.536 204.163H127.327V216.012H179.536V204.163Z" fill="#F99942"/>
<path opacity="0.2" d="M133.936 204.163H132.522V216.012H133.936V204.163Z" fill="black"/>
<path opacity="0.2" d="M141.195 204.163H139.781V216.012H141.195V204.163Z" fill="black"/>
<path opacity="0.2" d="M148.459 204.163H147.045V216.012H148.459V204.163Z" fill="black"/>
<path opacity="0.2" d="M155.723 204.163H154.31V216.012H155.723V204.163Z" fill="black"/>
<path opacity="0.2" d="M162.982 204.163H161.568V216.012H162.982V204.163Z" fill="black"/>
<path opacity="0.2" d="M170.246 204.163H168.832V216.012H170.246V204.163Z" fill="black"/>
<path opacity="0.2" d="M177.504 204.163H176.091V216.012H177.504V204.163Z" fill="black"/>
<path opacity="0.09" d="M179.536 204.163H127.327V206.605H179.536V204.163Z" fill="black"/>
<path d="M173.325 192.315H121.115V204.163H173.325V192.315Z" fill="#F99942"/>
<path opacity="0.2" d="M127.724 192.315H126.311V204.163H127.724V192.315Z" fill="black"/>
<path opacity="0.2" d="M134.989 192.315H133.575V204.163H134.989V192.315Z" fill="black"/>
<path opacity="0.2" d="M142.247 192.315H140.833V204.163H142.247V192.315Z" fill="black"/>
<path opacity="0.2" d="M149.512 192.315H148.098V204.163H149.512V192.315Z" fill="black"/>
<path opacity="0.2" d="M156.77 192.315H155.356V204.163H156.77V192.315Z" fill="black"/>
<path opacity="0.2" d="M164.034 192.315H162.621V204.163H164.034V192.315Z" fill="black"/>
<path opacity="0.2" d="M171.299 192.315H169.885V204.163H171.299V192.315Z" fill="black"/>
<path opacity="0.09" d="M173.325 192.315H121.115V194.757H173.325V192.315Z" fill="black"/>
<path d="M103.82 251.734H51.61V263.582H103.82V251.734Z" fill="#F99942"/>
<path opacity="0.2" d="M58.2196 251.734H56.8058V263.582H58.2196V251.734Z" fill="black"/>
<path opacity="0.2" d="M65.484 251.734H64.0703V263.582H65.484V251.734Z" fill="black"/>
<path opacity="0.2" d="M72.7484 251.734H71.3347V263.582H72.7484V251.734Z" fill="black"/>
<path opacity="0.2" d="M80.0068 251.734H78.593V263.582H80.0068V251.734Z" fill="black"/>
<path opacity="0.2" d="M87.2712 251.734H85.8575V263.582H87.2712V251.734Z" fill="black"/>
<path opacity="0.2" d="M94.5295 251.734H93.1158V263.582H94.5295V251.734Z" fill="black"/>
<path opacity="0.2" d="M101.794 251.734H100.38V263.582H101.794V251.734Z" fill="black"/>
<path opacity="0.09" d="M103.82 251.734H51.61V254.176H103.82V251.734Z" fill="black"/>
<path d="M106.286 239.886H54.0763V251.734H106.286V239.886Z" fill="#F99942"/>
<path opacity="0.2" d="M60.6859 239.886H59.2722V251.734H60.6859V239.886Z" fill="black"/>
<path opacity="0.2" d="M67.9504 239.886H66.5367V251.734H67.9504V239.886Z" fill="black"/>
<path opacity="0.2" d="M75.2087 239.886H73.795V251.734H75.2087V239.886Z" fill="black"/>
<path opacity="0.2" d="M82.4731 239.886H81.0594V251.734H82.4731V239.886Z" fill="black"/>
<path opacity="0.2" d="M89.7314 239.886H88.3177V251.734H89.7314V239.886Z" fill="black"/>
<path opacity="0.2" d="M96.9959 239.886H95.5822V251.734H96.9959V239.886Z" fill="black"/>
<path opacity="0.2" d="M104.26 239.886H102.847V251.734H104.26V239.886Z" fill="black"/>
<path opacity="0.09" d="M106.286 239.886H54.0763V242.12H106.286V239.886Z" fill="black"/>
<path d="M103.085 228.031H50.8755V239.88H103.085V228.031Z" fill="#F99942"/>
<path opacity="0.2" d="M57.4852 228.031H56.0714V239.88H57.4852V228.031Z" fill="black"/>
<path opacity="0.2" d="M64.7496 228.031H63.3359V239.88H64.7496V228.031Z" fill="black"/>
<path opacity="0.2" d="M72.0079 228.031H70.5942V239.88H72.0079V228.031Z" fill="black"/>
<path opacity="0.2" d="M79.2724 228.031H77.8586V239.88H79.2724V228.031Z" fill="black"/>
<path opacity="0.2" d="M86.5368 228.031H85.1231V239.88H86.5368V228.031Z" fill="black"/>
<path opacity="0.2" d="M93.7951 228.031H92.3814V239.88H93.7951V228.031Z" fill="black"/>
<path opacity="0.2" d="M101.06 228.031H99.6459V239.88H101.06V228.031Z" fill="black"/>
<path opacity="0.09" d="M103.085 228.031H50.8755V230.265H103.085V228.031Z" fill="black"/>
<path d="M217.774 222.089H206.336V263.901H217.774V222.089Z" fill="#F99942"/>
<g opacity="0.4">
<path opacity="0.4" d="M217.774 233.215V241.716L206.336 253.154V244.011L217.774 233.215Z" fill="white"/>
<path opacity="0.4" d="M217.774 226.997V228.441L206.336 239.886V238.441L217.774 226.997Z" fill="white"/>
</g>
<path d="M231.856 235.559H220.418V263.901H231.856V235.559Z" fill="#F99942"/>
<g opacity="0.4">
<path opacity="0.4" d="M231.856 243.913V252.328L220.418 263.76V254.715L231.856 243.913Z" fill="white"/>
<path opacity="0.4" d="M231.856 239.947V241.563L220.418 253.007V251.379L231.856 239.947Z" fill="white"/>
</g>
<path d="M203.686 201.997H192.248V263.901H203.686V201.997Z" fill="#F99942"/>
<g opacity="0.4">
<path opacity="0.4" d="M203.692 213.619V222.076L192.248 233.515V224.42L203.692 213.619Z" fill="white"/>
<path opacity="0.4" d="M203.692 208.968V210.546L192.248 221.997V220.406L203.692 208.968Z" fill="white"/>
</g>
<path d="M199.359 207.174C199.187 207.45 198.937 207.668 198.642 207.801C198.346 207.935 198.017 207.977 197.697 207.924C197.377 207.87 197.08 207.723 196.844 207.5C196.607 207.278 196.442 206.99 196.369 206.674C196.297 206.358 196.319 206.027 196.434 205.724C196.55 205.42 196.752 205.158 197.017 204.97C197.281 204.782 197.595 204.676 197.92 204.666C198.244 204.657 198.564 204.744 198.839 204.916C199.206 205.148 199.466 205.515 199.564 205.938C199.661 206.361 199.587 206.806 199.359 207.174Z" fill="#263238"/>
<path d="M213.441 227.052C213.269 227.325 213.02 227.541 212.726 227.673C212.431 227.805 212.104 227.847 211.786 227.793C211.467 227.739 211.172 227.592 210.937 227.37C210.702 227.149 210.538 226.863 210.466 226.548C210.393 226.234 210.416 225.905 210.53 225.603C210.644 225.301 210.846 225.04 211.108 224.852C211.371 224.665 211.683 224.559 212.006 224.548C212.328 224.538 212.647 224.623 212.921 224.794C213.104 224.908 213.262 225.056 213.388 225.232C213.513 225.407 213.602 225.605 213.651 225.815C213.699 226.025 213.705 226.242 213.669 226.454C213.633 226.667 213.556 226.87 213.441 227.052Z" fill="#263238"/>
<path d="M227.523 240.516C227.352 240.79 227.103 241.007 226.809 241.14C226.514 241.273 226.187 241.315 225.868 241.262C225.549 241.208 225.253 241.062 225.018 240.84C224.783 240.619 224.618 240.333 224.545 240.018C224.473 239.703 224.495 239.373 224.609 239.071C224.724 238.769 224.925 238.508 225.188 238.32C225.451 238.132 225.764 238.027 226.087 238.017C226.41 238.007 226.729 238.093 227.003 238.264C227.186 238.377 227.344 238.525 227.469 238.7C227.594 238.875 227.684 239.072 227.732 239.282C227.781 239.491 227.787 239.708 227.751 239.92C227.715 240.132 227.638 240.334 227.523 240.516Z" fill="#263238"/>
<path d="M226.14 239.635L211.623 253.154L212.052 226.183L197.97 234.892V206.305" stroke="#263238" stroke-miterlimit="10"/>
<path d="M95.117 131.139C95.117 131.139 91.2186 136.892 90.3067 137.486C89.3948 138.079 77.0875 135.741 71.0471 132.59L67.932 128.685L63.2318 127.033L60.5329 132.394L64.26 134.842C64.26 134.842 66.6468 137.59 69.3212 136.825C69.3212 136.825 78.9419 143.104 85.8452 144.707C92.7486 146.311 94.3459 144.456 96.3594 142.816C98.3729 141.176 103.703 133.398 103.703 133.398L95.117 131.139Z" fill="#B55B52"/>
<path d="M132.112 106.941C132.112 106.941 147.51 102.241 152.725 98.3422C152.725 98.3422 160.638 88.6604 161.954 78.3237L160.173 72.9442L161.115 66.8242L166.978 68.1339C166.978 68.1339 170.038 74.5721 166.311 79.615C166.311 79.615 165.313 94.5968 158.967 102.406C152.621 110.215 132.767 115.435 132.767 115.435L132.112 106.941Z" fill="#B55B52"/>
<path d="M137.633 163.52L136.372 118.232L146.268 113.502L139.909 102.155C139.909 102.155 132.192 104.419 125.509 104.419C116.629 104.419 107.694 111.151 102.865 113.061C98.0362 114.97 92.6751 131.39 92.6751 131.39L103.838 137.37L105.931 131.213C105.931 131.213 108.936 153.967 108.948 163.949L137.633 163.52Z" fill="#F99942"/>
<path opacity="0.1" d="M137.633 163.52L136.372 118.232L146.268 113.502L139.909 102.155C139.909 102.155 132.192 104.419 125.509 104.419C116.629 104.419 107.694 111.151 102.865 113.061C98.0362 114.97 92.6751 131.39 92.6751 131.39L103.838 137.37L105.931 131.213C105.931 131.213 108.936 153.967 108.948 163.949L137.633 163.52Z" fill="white"/>
<path d="M115.056 100.288C115.056 100.288 107.326 101.096 105.925 94.9456C105.925 94.9456 101.31 93.1096 104.591 88.5563C104.591 88.5563 100.343 82.2343 105.766 80.3555C106.507 78.5713 107.663 76.9898 109.139 75.7423C110.614 74.4948 112.366 73.6173 114.248 73.1828C118.636 72.1057 117.394 74.4619 117.394 74.4619C117.394 74.4619 126.494 70.9429 127.798 74.8658C129.101 78.7888 122.014 80.5268 122.014 80.5268L115.056 100.288Z" fill="#263238"/>
<path d="M119.866 99.1439C119.889 99.5115 119.934 99.8773 120.001 100.239C120.313 102.075 121.574 105.001 124.634 105.968C124.634 105.968 125.056 109.236 120.001 108.673C114.946 108.11 112.541 107.21 112.541 107.21C113.315 103.256 113.265 99.1852 112.394 95.2516C112.394 95.2516 109.542 95.729 107.932 94.1011C106.323 92.4731 106.904 88.3544 111.941 90.6861C111.941 90.6861 113.03 84.6824 109.493 82.877C109.493 82.877 116.421 83.8807 121.959 80.5085C121.959 80.5085 126.739 86.6285 126.072 92.4731C125.405 98.3177 119.866 99.1439 119.866 99.1439Z" fill="#B55B52"/>
<path d="M121.096 92.0876C121.096 92.0876 119.297 93.2565 117.247 91.5674" stroke="#263238" stroke-width="0.722314" stroke-linecap="round" stroke-linejoin="round"/>
<path d="M116.892 87.0385C117.002 87.4853 117.314 87.7913 117.59 87.7239C117.865 87.6566 118 87.2405 117.89 86.7937C117.779 86.347 117.467 86.0348 117.192 86.1022C116.916 86.1695 116.751 86.5918 116.892 87.0385Z" fill="#263238"/>
<path d="M121.696 85.2454C121.806 85.6983 122.118 86.0043 122.394 85.937C122.669 85.8697 122.804 85.4474 122.694 85.0006C122.584 84.5539 122.271 84.2479 121.996 84.3152C121.721 84.3825 121.586 84.7987 121.696 85.2454Z" fill="#263238"/>
<path d="M116.574 83.7888C116.16 83.9028 115.791 84.1392 115.515 84.4669C115.239 84.7946 115.068 85.1983 115.025 85.6248" stroke="#263238" stroke-width="0.963085" stroke-linecap="round" stroke-linejoin="round"/>
<path d="M123.104 82.2343C123.104 82.2343 122.014 81.4203 121.054 82.118" stroke="#263238" stroke-width="0.963085" stroke-linecap="round" stroke-linejoin="round"/>
<path d="M121.837 89.8109L120.699 86.0593L123.906 88.7276C123.733 89.1144 123.434 89.4316 123.059 89.6281C122.684 89.8247 122.253 89.889 121.837 89.8109Z" fill="#A02724"/>
<path opacity="0.19" d="M120.001 100.258C119.54 100.342 119.066 100.326 118.611 100.212C118.156 100.098 117.73 99.8885 117.363 99.5969C118.3 99.499 119.866 99.1624 119.866 99.1624C119.889 99.5299 119.934 99.8957 120.001 100.258Z" fill="black"/>
<path d="M122.718 108.759L122.688 114.622L119.811 114.885C119.811 114.885 117.614 112.73 117.473 111.604C117.333 110.478 120.637 107.522 122.718 108.759Z" fill="#263238"/>
<path d="M122.271 114.021C122.271 114.021 126.592 129.933 128.667 137.889L126.305 142.596L122.327 138.624L120.178 114.285L122.271 114.021Z" fill="#263238"/>
<path d="M142.033 258.264L133.269 259.641C133.269 259.641 130.57 226.158 129.879 213.6C129.762 211.428 129.542 209.114 129.267 206.764C127.908 195.491 125.129 183.441 125.129 183.441C125.129 183.441 124.224 203.545 121.715 218.937C119.205 234.329 108.587 256.881 108.587 256.881L100.252 253.044C106.763 234.414 108.257 211.213 108.82 202.535C109.383 193.857 108.746 158.165 108.746 158.165L137.449 156.911C140.221 170.424 143.826 201.311 144.224 211.991C144.622 222.67 142.033 258.264 142.033 258.264Z" fill="#263238"/>
<path d="M140.478 260.81L140.944 267.848L135.76 269.017L135.215 261.146L140.478 260.81Z" fill="#B55B52"/>
<path d="M143.428 257.113L132.333 259.261L132.877 262.707L143.22 260.828L143.428 257.113Z" fill="#F99942"/>
<path d="M106.794 257.842L103.734 264.365L98.8073 262.462L102.094 255.663L106.794 257.842Z" fill="#B55B52"/>
<path d="M99.144 262.548L104.921 264.824C105.172 264.921 105.379 265.106 105.503 265.345C105.943 266.195 107.149 268.282 108.593 269.078C110.429 270.094 111.402 270.804 110.741 271.856C110.08 272.909 109.077 272.548 108.049 272.279C107.21 272.058 99.3092 268.747 96.4206 267.523C96.2885 267.468 96.1702 267.384 96.0739 267.277C95.9776 267.171 95.9057 267.045 95.8631 266.908C95.8206 266.771 95.8085 266.627 95.8276 266.484C95.8467 266.342 95.8966 266.206 95.9738 266.085L97.9751 262.94C98.0971 262.752 98.279 262.611 98.4913 262.54C98.7035 262.469 98.9336 262.472 99.144 262.548Z" fill="#263238"/>
<path d="M135.65 268.748L141.77 267.524C142.032 267.473 142.303 267.519 142.535 267.652C143.367 268.123 145.503 269.237 147.149 269.133C149.236 268.998 150.442 269.072 150.454 270.314C150.466 271.557 149.426 271.795 148.41 272.12C147.59 272.383 139.15 273.852 136.035 274.39C135.894 274.415 135.749 274.409 135.611 274.372C135.472 274.335 135.344 274.268 135.234 274.176C135.124 274.084 135.036 273.968 134.976 273.838C134.915 273.708 134.884 273.567 134.885 273.423V269.69C134.89 269.47 134.968 269.259 135.106 269.088C135.245 268.917 135.436 268.798 135.65 268.748Z" fill="#263238"/>
<path d="M111.696 255.455L99.8049 252.903L98.7584 256.348L109.548 259.519L111.696 255.455Z" fill="#F99942"/>
<path opacity="0.61" d="M129.26 206.856C127.902 195.589 125.123 183.533 125.123 183.533L123.948 168.532C123.948 168.532 130.582 194.445 129.26 206.856Z" fill="black"/>
<path d="M112.847 105.423C115.025 106.918 117.445 108.023 120.001 108.691L118.116 114.242C118.116 114.242 113.508 112.125 111.17 110.209L112.847 105.423Z" fill="white"/>
<path d="M120.001 108.691L123.104 113.502C124.526 111.534 125.554 109.311 126.133 106.953L122.645 104.419C122.645 104.419 121.176 107.626 120.001 108.691Z" fill="white"/>
</svg>
