<svg width="512" height="512" viewBox="0 0 512 512" fill="none" xmlns="http://www.w3.org/2000/svg">
<path d="M512 391.578H0V391.834H512V391.578Z" fill="#E0E0E0"/>
<path d="M402.616 399.36H385.352V399.616H402.616V399.36Z" fill="#E0E0E0"/>
<path d="M459.325 399.237H413.696V399.493H459.325V399.237Z" fill="#E0E0E0"/>
<path d="M328.428 400.957H271.626V401.213H328.428V400.957Z" fill="#E0E0E0"/>
<path d="M265.728 400.957H244.511V401.213H265.728V400.957Z" fill="#E0E0E0"/>
<path d="M155.197 398.981H145.879V399.237H155.197V398.981Z" fill="#E0E0E0"/>
<path d="M176.282 398.981H160.881V399.237H176.282V398.981Z" fill="#E0E0E0"/>
<path d="M136.653 403.599H68.4954V403.855H136.653V403.599Z" fill="#E0E0E0"/>
<path d="M242.688 345.907H44.9638C43.4149 345.905 41.9303 345.287 40.836 344.191C39.7417 343.095 39.127 341.609 39.127 340.06V62.1158C39.1405 60.5758 39.7611 59.1032 40.854 58.018C41.9468 56.9328 43.4237 56.3226 44.9638 56.32H242.688C244.239 56.32 245.726 56.936 246.823 58.0326C247.919 59.1291 248.535 60.6163 248.535 62.167V340.06C248.535 341.611 247.919 343.098 246.823 344.195C245.726 345.291 244.239 345.907 242.688 345.907ZM44.9638 56.5248C43.4828 56.5275 42.0633 57.1178 41.017 58.166C39.9707 59.2142 39.383 60.6348 39.383 62.1158V340.06C39.383 341.541 39.9707 342.962 41.017 344.01C42.0633 345.058 43.4828 345.648 44.9638 345.651H242.688C244.17 345.648 245.591 345.059 246.638 344.011C247.686 342.963 248.276 341.542 248.279 340.06V62.1158C248.276 60.6338 247.686 59.2133 246.638 58.1654C245.591 57.1174 244.17 56.5275 242.688 56.5248H44.9638Z" fill="#E0E0E0"/>
<path d="M464.189 345.907H266.455C264.905 345.905 263.42 345.288 262.324 344.192C261.228 343.096 260.611 341.61 260.608 340.06V62.1158C260.624 60.5748 261.247 59.1023 262.342 58.0174C263.436 56.9325 264.914 56.3226 266.455 56.32H464.189C465.728 56.3253 467.202 56.9367 468.293 58.0216C469.383 59.1065 470.003 60.5775 470.016 62.1158V340.06C470.016 341.607 469.403 343.091 468.311 344.187C467.219 345.283 465.737 345.902 464.189 345.907ZM266.455 56.5248C264.973 56.5275 263.553 57.1174 262.505 58.1654C261.457 59.2133 260.867 60.6338 260.864 62.1158V340.06C260.867 341.542 261.457 342.963 262.505 344.011C263.553 345.059 264.973 345.648 266.455 345.651H464.189C465.671 345.648 467.092 345.059 468.14 344.011C469.188 342.963 469.778 341.542 469.78 340.06V62.1158C469.778 60.6338 469.188 59.2133 468.14 58.1654C467.092 57.1174 465.671 56.5275 464.189 56.5248H266.455Z" fill="#E0E0E0"/>
<path d="M325.417 266.793H276.92V391.578H325.417V266.793Z" fill="#E0E0E0"/>
<path d="M316.201 391.578H325.417V365.373H306.545L316.201 391.578Z" fill="#F0F0F0"/>
<path d="M144.169 266.793H95.6723V391.578H144.169V266.793Z" fill="#E0E0E0"/>
<path d="M325.407 266.793H136.131V375.501H325.407V266.793Z" fill="#F0F0F0"/>
<path d="M233.861 274.688V342.743H318.269V274.688H233.861Z" fill="#E0E0E0"/>
<path d="M143.278 274.698V342.753H227.686V274.698H143.278Z" fill="#E0E0E0"/>
<path d="M318.269 365.373V360.366H233.861V365.373H318.269Z" fill="#E0E0E0"/>
<path d="M227.686 365.373V360.366H143.278V365.373H227.686Z" fill="#E0E0E0"/>
<path d="M318.259 355.697V350.689H233.851V355.697H318.259Z" fill="#E0E0E0"/>
<path d="M227.676 355.707V350.7H143.268V355.707H227.676Z" fill="#E0E0E0"/>
<path d="M193.833 282.02H177.152C173.563 282.02 170.011 281.289 166.714 279.872C163.416 278.455 160.442 276.381 157.972 273.777H212.992C210.525 276.379 207.555 278.453 204.261 279.87C200.967 281.287 197.419 282.019 193.833 282.02Z" fill="#F0F0F0"/>
<path d="M285.266 282.02H268.575C264.985 282.021 261.433 281.291 258.136 279.874C254.838 278.457 251.864 276.382 249.395 273.777H304.445C301.976 276.382 299.002 278.457 295.705 279.874C292.407 281.291 288.855 282.021 285.266 282.02Z" fill="#F0F0F0"/>
<path d="M145.347 391.578H136.131V365.373H155.003L145.347 391.578Z" fill="#F0F0F0"/>
<path d="M324.372 75.7657H69.9904V221.071H324.372V75.7657Z" fill="#E0E0E0"/>
<path d="M338.442 71.2806H61.44C61.0951 71.2806 60.7643 71.4177 60.5204 71.6615C60.2765 71.9054 60.1395 72.2362 60.1395 72.5811C60.1382 72.7528 60.1708 72.923 60.2356 73.0819C60.3003 73.2409 60.3959 73.3855 60.5168 73.5073C60.6377 73.6292 60.7815 73.7259 60.94 73.7919C61.0984 73.8579 61.2684 73.8919 61.44 73.8918H338.442C338.614 73.8919 338.784 73.8579 338.942 73.7919C339.101 73.7259 339.245 73.6292 339.365 73.5073C339.486 73.3855 339.582 73.2409 339.647 73.0819C339.711 72.923 339.744 72.7528 339.743 72.5811C339.743 72.2362 339.606 71.9054 339.362 71.6615C339.118 71.4177 338.787 71.2806 338.442 71.2806Z" fill="#E0E0E0"/>
<path d="M329.943 75.7657H72.5914V221.071H329.943V75.7657Z" fill="#E6E6E6"/>
<path d="M324.372 221.071H69.9904V231.424H324.372V221.071Z" fill="#E0E0E0"/>
<path d="M339.22 221.071H81.8688V231.424H339.22V221.071Z" fill="#E6E6E6"/>
<path d="M322.13 213.268V83.5687L80.384 83.5687V213.268L322.13 213.268Z" fill="#F5F5F5"/>
<path d="M200.028 213.268L245.811 83.5687H267.418L221.635 213.268H200.028Z" fill="#FAFAFA"/>
<path d="M226.284 213.268L272.067 83.5687H280.484L234.711 213.268H226.284Z" fill="#FAFAFA"/>
<path d="M322.13 213.268V83.5687H321.137V213.268H322.13Z" fill="#E0E0E0"/>
<path d="M80.4762 68.9459H67.0515V194.099H80.4762V68.9459Z" fill="#EBEBEB"/>
<path d="M85.7088 68.9459H75.2538V194.099H85.7088V68.9459Z" fill="#E0E0E0"/>
<path d="M93.9008 68.9459H80.4762V194.099H93.9008V68.9459Z" fill="#EBEBEB"/>
<path d="M99.1334 68.9459H88.6784V194.099H99.1334V68.9459Z" fill="#E0E0E0"/>
<path d="M107.325 68.9459H93.9008V194.099H107.325V68.9459Z" fill="#EBEBEB"/>
<path d="M317.133 68.9459H309.402V194.099H317.133V68.9459Z" fill="#EBEBEB"/>
<path d="M320.164 68.9459H314.132V194.099H320.164V68.9459Z" fill="#E0E0E0"/>
<path d="M324.874 68.9459H317.143V194.099H324.874V68.9459Z" fill="#EBEBEB"/>
<path d="M327.895 68.9459H321.864V194.099H327.895V68.9459Z" fill="#E0E0E0"/>
<path d="M332.605 68.9459H324.874V194.099H332.605V68.9459Z" fill="#EBEBEB"/>
<path d="M402.975 123.238H385.812V170.066H402.975V123.238Z" fill="#E6E6E6"/>
<path d="M379.29 177.879L375.316 188.703H379.29L403.589 177.879H379.29Z" fill="#F0F0F0"/>
<path d="M375.316 177.879V188.703L399.626 177.879H375.316Z" fill="#E0E0E0"/>
<path d="M420.854 177.879L416.881 188.703H420.854L445.153 177.879H420.854Z" fill="#F0F0F0"/>
<path d="M416.881 177.879V188.703L441.19 177.879H416.881Z" fill="#E0E0E0"/>
<path d="M357.489 178.381H383.918V170.138H357.489V178.381Z" fill="#E0E0E0"/>
<path d="M459.325 170.138H383.908V178.381H459.325V170.138Z" fill="#F0F0F0"/>
<path d="M431.565 170.066H389.796L384.625 113.326H426.394L431.565 170.066Z" fill="#E0E0E0"/>
<path d="M433.725 170.066H391.956L386.796 113.326H428.564L433.725 170.066Z" fill="#F0F0F0"/>
<path d="M397.67 163.789L393.646 119.603H422.851L426.875 163.789H397.67Z" fill="#FAFAFA"/>
<path d="M161.188 248.576C161.188 248.576 143.176 217.539 168.161 192.829C168.161 192.829 174.684 197.079 174.582 202.793C174.479 208.507 167.598 209.961 169.083 214.712C170.568 219.464 177.06 224.164 172.79 228.106C168.52 232.049 173.476 235.551 173.189 240.394C172.902 245.238 161.188 248.576 161.188 248.576Z" fill="#E0E0E0"/>
<path d="M162.55 251.412C162.55 251.412 169.851 216.279 138.353 200.704C138.353 200.704 133.509 206.797 135.404 212.183C137.298 217.569 144.282 216.781 144.384 221.768C144.486 226.755 139.796 233.247 145.08 235.643C150.364 238.039 146.78 242.934 148.582 247.419C150.385 251.904 162.55 251.412 162.55 251.412Z" fill="#E0E0E0"/>
<path d="M134.963 243.63C134.963 243.63 135.557 266.793 158.515 266.793C181.473 266.793 182.067 243.63 182.067 243.63H134.963Z" fill="#F0F0F0"/>
<path d="M405.862 391.578H408.207L414.884 358.646L416.061 352.881L423.342 317.041H451.287L466.432 391.578H468.777L453.345 315.617C453.291 315.359 453.149 315.127 452.944 314.961C452.739 314.795 452.483 314.705 452.219 314.706H422.41C422.147 314.703 421.891 314.793 421.687 314.96C421.483 315.126 421.344 315.359 421.294 315.617L414.894 347.136L413.696 352.901L405.862 391.578Z" fill="#EBEBEB"/>
<path d="M361.001 391.578H363.346L378.491 317H406.436L413.696 352.901L414.863 358.646L421.55 391.578H423.936L416.082 352.881L414.894 347.136L408.494 315.617C408.44 315.359 408.298 315.127 408.093 314.961C407.888 314.795 407.632 314.705 407.368 314.706H377.559C377.295 314.705 377.039 314.795 376.834 314.961C376.628 315.127 376.487 315.359 376.433 315.617L361.001 391.578Z" fill="#EBEBEB"/>
<path d="M429.885 315.853H378.542C373.83 315.851 369.306 314.003 365.941 310.705C362.575 307.406 360.637 302.92 360.54 298.209L358.625 220.16C358.6 218.424 358.919 216.7 359.565 215.088C360.21 213.476 361.17 212.008 362.387 210.769C363.604 209.531 365.056 208.547 366.656 207.874C368.257 207.201 369.975 206.852 371.712 206.848H403.896C407.119 206.847 410.228 208.033 412.633 210.178C415.037 212.324 416.567 215.279 416.932 218.481L429.885 315.853Z" fill="#E6E6E6"/>
<path d="M401.879 306.012H452.127C453.992 306.012 455.782 306.753 457.101 308.073C458.42 309.392 459.162 311.181 459.162 313.047V313.293C459.162 313.972 458.892 314.623 458.412 315.103C457.932 315.583 457.281 315.853 456.602 315.853H401.879V306.012Z" fill="#E6E6E6"/>
<path d="M256 437.821C365.652 437.821 454.543 432.632 454.543 426.23C454.543 419.828 365.652 414.638 256 414.638C146.348 414.638 57.4566 419.828 57.4566 426.23C57.4566 432.632 146.348 437.821 256 437.821Z" fill="#EDEDED"/>
<path d="M191.027 131.359C191.031 129.451 190.877 127.547 190.566 125.665C189.194 117.348 184.934 109.78 178.534 104.293C172.135 98.8055 164.006 95.7495 155.576 95.6621H155.269C149.614 95.6655 144.041 97.0137 139.009 99.5953C133.977 102.177 129.632 105.918 126.331 110.51C125.788 111.258 125.307 112.026 124.815 112.794C124.775 112.844 124.741 112.899 124.713 112.957C121.351 118.517 119.58 124.893 119.593 131.389V131.461C119.614 139.012 122.028 146.362 126.487 152.455C130.946 158.549 137.222 163.072 144.413 165.376C151.604 167.679 159.34 167.645 166.51 165.277C173.68 162.909 179.915 158.33 184.32 152.197C184.852 151.45 185.344 150.692 185.825 149.914C185.865 149.863 185.9 149.808 185.928 149.75C189.285 144.204 191.049 137.841 191.027 131.359ZM121.119 130.55C121.237 124.703 122.871 118.987 125.86 113.961H137.032C135.324 119.327 134.43 124.919 134.38 130.55H121.119ZM138.598 113.961H154.532V130.55H135.916C135.949 124.915 136.854 119.319 138.598 113.961ZM156.068 112.425V97.1469C158.283 97.3476 160.404 98.136 162.212 99.4304C166.011 102.031 169.196 106.598 171.428 112.425H156.068ZM171.981 113.961C173.248 117.797 174.072 121.765 174.438 125.788C174.592 127.386 174.664 128.973 174.684 130.55H156.068V113.961H171.981ZM152.279 97.577C153.014 97.3681 153.769 97.2377 154.532 97.1878V112.456H139.172C142.039 104.735 146.688 99.1232 152.279 97.5462V97.577ZM154.532 132.116V148.705H138.629C137.362 144.86 136.544 140.881 136.192 136.847C136.049 135.25 135.967 133.663 135.946 132.086L154.532 132.116ZM154.532 150.241V165.519C152.317 165.317 150.197 164.529 148.388 163.236C144.599 160.635 141.414 156.068 139.172 150.241H154.532ZM158.321 165.12C157.586 165.33 156.831 165.46 156.068 165.509V150.211H171.428C168.561 157.901 163.912 163.523 158.321 165.089V165.12ZM156.068 148.736V132.096H174.684C174.655 137.731 173.75 143.328 172.001 148.685L156.068 148.736ZM176.22 132.096H189.532C189.408 137.942 187.775 143.656 184.791 148.685H173.568C175.275 143.319 176.169 137.727 176.22 132.096ZM189.532 130.56H176.22C176.22 128.942 176.118 127.304 175.964 125.655C175.615 121.686 174.828 117.768 173.619 113.971H184.771C186.926 117.63 188.38 121.658 189.061 125.85C189.305 127.406 189.449 128.975 189.491 130.55L189.532 130.56ZM175.329 103.598C178.676 106.009 181.562 109.002 183.849 112.435H173.056C170.762 106.097 167.311 101.079 163.082 98.1709L162.755 97.9558C167.27 98.967 171.534 100.883 175.288 103.588L175.329 103.598ZM147.814 97.9763C143.503 100.813 139.96 105.974 137.574 112.435H126.822L127.57 111.34C132.433 104.551 139.625 99.7905 147.773 97.9661L147.814 97.9763ZM121.19 132.096H134.451C134.451 133.714 134.554 135.352 134.707 137.001C135.062 140.969 135.848 144.887 137.052 148.685H125.839C123.68 145.028 122.225 140.999 121.549 136.806C121.294 135.248 121.15 133.674 121.119 132.096H121.19ZM126.863 150.221H137.574C139.868 156.559 143.319 161.577 147.548 164.485L147.886 164.7C139.282 162.746 131.757 157.563 126.863 150.221ZM162.816 164.669C167.117 161.843 170.66 156.672 173.056 150.211H183.788C183.542 150.579 183.296 150.948 183.04 151.306C178.173 158.098 170.972 162.856 162.816 164.669Z" fill="#F99942"/>
<path opacity="0.8" d="M191.027 131.359C191.031 129.451 190.877 127.547 190.566 125.665C189.194 117.348 184.934 109.78 178.534 104.293C172.135 98.8055 164.006 95.7495 155.576 95.6621H155.269C149.614 95.6655 144.041 97.0137 139.009 99.5953C133.977 102.177 129.632 105.918 126.331 110.51C125.788 111.258 125.307 112.026 124.815 112.794C124.775 112.844 124.741 112.899 124.713 112.957C121.351 118.517 119.58 124.893 119.593 131.389V131.461C119.614 139.012 122.028 146.362 126.487 152.455C130.946 158.549 137.222 163.072 144.413 165.376C151.604 167.679 159.34 167.645 166.51 165.277C173.68 162.909 179.915 158.33 184.32 152.197C184.852 151.45 185.344 150.692 185.825 149.914C185.865 149.863 185.9 149.808 185.928 149.75C189.285 144.204 191.049 137.841 191.027 131.359ZM121.119 130.55C121.237 124.703 122.871 118.987 125.86 113.961H137.032C135.324 119.327 134.43 124.919 134.38 130.55H121.119ZM138.598 113.961H154.532V130.55H135.916C135.949 124.915 136.854 119.319 138.598 113.961ZM156.068 112.425V97.1469C158.283 97.3476 160.404 98.136 162.212 99.4304C166.011 102.031 169.196 106.598 171.428 112.425H156.068ZM171.981 113.961C173.248 117.797 174.072 121.765 174.438 125.788C174.592 127.386 174.664 128.973 174.684 130.55H156.068V113.961H171.981ZM152.279 97.577C153.014 97.3681 153.769 97.2377 154.532 97.1878V112.456H139.172C142.039 104.735 146.688 99.1232 152.279 97.5462V97.577ZM154.532 132.116V148.705H138.629C137.362 144.86 136.544 140.881 136.192 136.847C136.049 135.25 135.967 133.663 135.946 132.086L154.532 132.116ZM154.532 150.241V165.519C152.317 165.317 150.197 164.529 148.388 163.236C144.599 160.635 141.414 156.068 139.172 150.241H154.532ZM158.321 165.12C157.586 165.33 156.831 165.46 156.068 165.509V150.211H171.428C168.561 157.901 163.912 163.523 158.321 165.089V165.12ZM156.068 148.736V132.096H174.684C174.655 137.731 173.75 143.328 172.001 148.685L156.068 148.736ZM176.22 132.096H189.532C189.408 137.942 187.775 143.656 184.791 148.685H173.568C175.275 143.319 176.169 137.727 176.22 132.096ZM189.532 130.56H176.22C176.22 128.942 176.118 127.304 175.964 125.655C175.615 121.686 174.828 117.768 173.619 113.971H184.771C186.926 117.63 188.38 121.658 189.061 125.85C189.305 127.406 189.449 128.975 189.491 130.55L189.532 130.56ZM175.329 103.598C178.676 106.009 181.562 109.002 183.849 112.435H173.056C170.762 106.097 167.311 101.079 163.082 98.1709L162.755 97.9558C167.27 98.967 171.534 100.883 175.288 103.588L175.329 103.598ZM147.814 97.9763C143.503 100.813 139.96 105.974 137.574 112.435H126.822L127.57 111.34C132.433 104.551 139.625 99.7905 147.773 97.9661L147.814 97.9763ZM121.19 132.096H134.451C134.451 133.714 134.554 135.352 134.707 137.001C135.062 140.969 135.848 144.887 137.052 148.685H125.839C123.68 145.028 122.225 140.999 121.549 136.806C121.294 135.248 121.15 133.674 121.119 132.096H121.19ZM126.863 150.221H137.574C139.868 156.559 143.319 161.577 147.548 164.485L147.886 164.7C139.282 162.746 131.757 157.563 126.863 150.221ZM162.816 164.669C167.117 161.843 170.66 156.672 173.056 150.211H183.788C183.542 150.579 183.296 150.948 183.04 151.306C178.173 158.098 170.972 162.856 162.816 164.669Z" fill="#FAFAFA"/>
<path d="M424.233 148.378H102.287V226.386H424.233V148.378Z" fill="#00A688"/>
<path opacity="0.6" d="M424.233 148.378H102.287V226.386H424.233V148.378Z" fill="#FAFAFA"/>
<path d="M416.973 155.638H95.0272V233.646H416.973V155.638Z" fill="#00A688"/>
<path opacity="0.3" d="M416.973 155.638H95.0272V233.646H416.973V155.638Z" fill="black"/>
<path d="M409.713 162.898H87.767V240.906H409.713V162.898Z" fill="#00A688"/>
<path opacity="0.1" d="M409.713 162.898H87.767V240.906H409.713V162.898Z" fill="#FAFAFA"/>
<path d="M394.353 225.546V178.258L103.127 178.258V225.546L394.353 225.546Z" fill="#00A688"/>
<path opacity="0.9" d="M394.353 225.546V178.258L103.127 178.258V225.546L394.353 225.546Z" fill="#FAFAFA"/>
<path d="M345.364 178.258V225.546H347.075V178.258H345.364Z" fill="#00A688"/>
<path opacity="0.6" d="M345.364 178.258V225.546H347.075V178.258H345.364Z" fill="#FAFAFA"/>
<path d="M110.387 184.781V219.023H112.097V184.781H110.387Z" fill="#00A688"/>
<path opacity="0.6" d="M110.387 184.781V219.023H112.097V184.781H110.387Z" fill="#FAFAFA"/>
<path d="M369.08 207.872C367.838 207.871 366.615 207.565 365.519 206.978C364.423 206.392 363.489 205.545 362.799 204.512C362.109 203.479 361.684 202.291 361.563 201.054C361.441 199.818 361.626 198.57 362.102 197.422C362.577 196.275 363.329 195.262 364.289 194.473C365.25 193.685 366.39 193.146 367.608 192.903C368.827 192.661 370.087 192.722 371.276 193.083C372.465 193.443 373.547 194.091 374.426 194.97C375.483 196.027 376.203 197.373 376.495 198.84C376.787 200.306 376.637 201.826 376.065 203.207C375.493 204.589 374.524 205.769 373.28 206.599C372.037 207.43 370.575 207.873 369.08 207.872ZM369.08 194.816C367.805 194.816 366.57 195.259 365.585 196.068C364.6 196.877 363.926 198.003 363.678 199.254C363.43 200.504 363.623 201.802 364.225 202.926C364.827 204.05 365.8 204.93 366.978 205.417C368.156 205.904 369.467 205.967 370.687 205.595C371.906 205.224 372.959 204.441 373.666 203.38C374.373 202.319 374.69 201.046 374.564 199.778C374.437 198.509 373.874 197.324 372.972 196.424C372.466 195.902 371.861 195.487 371.193 195.202C370.525 194.917 369.807 194.768 369.08 194.765V194.816Z" fill="#00A688"/>
<path d="M378.88 211.087C378.745 211.087 378.61 211.059 378.486 211.007C378.361 210.954 378.248 210.877 378.153 210.78L372.982 205.609C372.875 205.517 372.788 205.404 372.726 205.277C372.665 205.15 372.63 205.012 372.625 204.871C372.619 204.73 372.643 204.589 372.694 204.458C372.746 204.326 372.824 204.207 372.924 204.107C373.024 204.007 373.143 203.929 373.274 203.878C373.406 203.826 373.546 203.803 373.687 203.808C373.828 203.813 373.967 203.848 374.094 203.909C374.221 203.971 374.334 204.058 374.426 204.165L379.597 209.336C379.788 209.528 379.895 209.788 379.895 210.058C379.895 210.329 379.788 210.588 379.597 210.78C379.408 210.973 379.15 211.084 378.88 211.087Z" fill="#00A688"/>
<g opacity="0.6">
<path opacity="0.6" d="M369.08 207.872C367.838 207.871 366.615 207.565 365.519 206.978C364.423 206.392 363.489 205.545 362.799 204.512C362.109 203.479 361.684 202.291 361.563 201.054C361.441 199.818 361.626 198.57 362.102 197.422C362.577 196.275 363.329 195.262 364.289 194.473C365.25 193.685 366.39 193.146 367.608 192.903C368.827 192.661 370.087 192.722 371.276 193.083C372.465 193.443 373.547 194.091 374.426 194.97C375.483 196.027 376.203 197.373 376.495 198.84C376.787 200.306 376.637 201.826 376.065 203.207C375.493 204.589 374.524 205.769 373.28 206.599C372.037 207.43 370.575 207.873 369.08 207.872ZM369.08 194.816C367.805 194.816 366.57 195.259 365.585 196.068C364.6 196.877 363.926 198.003 363.678 199.254C363.43 200.504 363.623 201.802 364.225 202.926C364.827 204.05 365.8 204.93 366.978 205.417C368.156 205.904 369.467 205.967 370.687 205.595C371.906 205.224 372.959 204.441 373.666 203.38C374.373 202.319 374.69 201.046 374.564 199.778C374.437 198.509 373.874 197.324 372.972 196.424C372.466 195.902 371.861 195.487 371.193 195.202C370.525 194.917 369.807 194.768 369.08 194.765V194.816Z" fill="#FAFAFA"/>
<path opacity="0.6" d="M378.88 211.087C378.745 211.087 378.61 211.059 378.486 211.007C378.361 210.954 378.248 210.877 378.153 210.78L372.982 205.609C372.875 205.517 372.788 205.404 372.726 205.277C372.665 205.15 372.63 205.012 372.625 204.871C372.619 204.73 372.643 204.589 372.694 204.458C372.746 204.326 372.824 204.207 372.924 204.107C373.024 204.007 373.143 203.929 373.274 203.878C373.406 203.826 373.546 203.803 373.687 203.808C373.828 203.813 373.967 203.848 374.094 203.909C374.221 203.971 374.334 204.058 374.426 204.165L379.597 209.336C379.788 209.528 379.895 209.788 379.895 210.058C379.895 210.329 379.788 210.588 379.597 210.78C379.408 210.973 379.15 211.084 378.88 211.087Z" fill="#FAFAFA"/>
</g>
<path d="M299.612 101.222H267.418V102.021H299.612V101.222Z" fill="#00A688"/>
<path d="M299.612 104.612H267.418V105.411H299.612V104.612Z" fill="#00A688"/>
<path d="M299.612 108.012H267.418V108.81H299.612V108.012Z" fill="#00A688"/>
<path d="M299.612 111.401H267.418V112.2H299.612V111.401Z" fill="#00A688"/>
<path d="M299.612 114.79H267.418V115.589H299.612V114.79Z" fill="#00A688"/>
<path d="M288.41 118.19H267.418V118.989H288.41V118.19Z" fill="#00A688"/>
<g opacity="0.5">
<path opacity="0.5" d="M299.612 101.222H267.418V102.021H299.612V101.222Z" fill="#FAFAFA"/>
<path opacity="0.5" d="M299.612 104.612H267.418V105.411H299.612V104.612Z" fill="#FAFAFA"/>
<path opacity="0.5" d="M299.612 108.012H267.418V108.81H299.612V108.012Z" fill="#FAFAFA"/>
<path opacity="0.5" d="M299.612 111.401H267.418V112.2H299.612V111.401Z" fill="#FAFAFA"/>
<path opacity="0.5" d="M299.612 114.79H267.418V115.589H299.612V114.79Z" fill="#FAFAFA"/>
<path opacity="0.5" d="M288.41 118.19H267.418V118.989H288.41V118.19Z" fill="#FAFAFA"/>
</g>
<path d="M105.83 247.644H71.5264V248.156H105.83V247.644Z" fill="#00A688"/>
<path d="M105.83 249.815H71.5264V250.327H105.83V249.815Z" fill="#00A688"/>
<path d="M105.83 251.986H71.5264V252.498H105.83V251.986Z" fill="#00A688"/>
<path d="M105.83 254.157H71.5264V254.669H105.83V254.157Z" fill="#00A688"/>
<path d="M105.83 256.328H71.5264V256.84H105.83V256.328Z" fill="#00A688"/>
<path d="M93.0918 258.509H71.5264V259.021H93.0918V258.509Z" fill="#00A688"/>
<g opacity="0.4">
<path opacity="0.4" d="M105.83 247.644H71.5264V248.156H105.83V247.644Z" fill="#FAFAFA"/>
<path opacity="0.4" d="M105.83 249.815H71.5264V250.327H105.83V249.815Z" fill="#FAFAFA"/>
<path opacity="0.4" d="M105.83 251.986H71.5264V252.498H105.83V251.986Z" fill="#FAFAFA"/>
<path opacity="0.4" d="M105.83 254.157H71.5264V254.669H105.83V254.157Z" fill="#FAFAFA"/>
<path opacity="0.4" d="M105.83 256.328H71.5264V256.84H105.83V256.328Z" fill="#FAFAFA"/>
<path opacity="0.4" d="M93.0918 258.509H71.5264V259.021H93.0918V258.509Z" fill="#FAFAFA"/>
</g>
<path d="M218.573 106.25C216.856 106.25 215.21 106.932 213.997 108.146C212.783 109.359 212.101 111.006 212.101 112.722V134.072C212.101 135.789 212.783 137.435 213.997 138.648C215.21 139.862 216.856 140.544 218.573 140.544C220.289 140.544 221.935 139.862 223.149 138.648C224.363 137.435 225.044 135.789 225.044 134.072V112.722C225.044 111.006 224.363 109.359 223.149 108.146C221.935 106.932 220.289 106.25 218.573 106.25Z" fill="#F99942"/>
<path opacity="0.2" d="M218.573 106.25C216.856 106.25 215.21 106.932 213.997 108.146C212.783 109.359 212.101 111.006 212.101 112.722V134.072C212.101 135.789 212.783 137.435 213.997 138.648C215.21 139.862 216.856 140.544 218.573 140.544C220.289 140.544 221.935 139.862 223.149 138.648C224.363 137.435 225.044 135.789 225.044 134.072V112.722C225.044 111.006 224.363 109.359 223.149 108.146C221.935 106.932 220.289 106.25 218.573 106.25Z" fill="#FAFAFA"/>
<path d="M234.793 93.5219C233.082 93.53 231.444 94.2155 230.237 95.4283C229.03 96.6411 228.352 98.2825 228.352 99.9936V134.072C228.352 135.789 229.034 137.435 230.248 138.648C231.461 139.862 233.107 140.544 234.824 140.544C236.54 140.544 238.186 139.862 239.4 138.648C240.614 137.435 241.295 135.789 241.295 134.072V99.9936C241.295 99.1411 241.127 98.2971 240.8 97.5099C240.473 96.7227 239.993 96.0079 239.389 95.4065C238.785 94.8052 238.068 94.3291 237.279 94.0057C236.49 93.6823 235.645 93.5179 234.793 93.5219Z" fill="#F99942"/>
<path opacity="0.3" d="M234.793 93.5219C233.082 93.53 231.444 94.2155 230.237 95.4283C229.03 96.6411 228.352 98.2825 228.352 99.9936V134.072C228.352 135.789 229.034 137.435 230.248 138.648C231.461 139.862 233.107 140.544 234.824 140.544C236.54 140.544 238.186 139.862 239.4 138.648C240.614 137.435 241.295 135.789 241.295 134.072V99.9936C241.295 99.1411 241.127 98.2971 240.8 97.5099C240.473 96.7227 239.993 96.0079 239.389 95.4065C238.785 94.8052 238.068 94.3291 237.279 94.0057C236.49 93.6823 235.645 93.5179 234.793 93.5219Z" fill="black"/>
<path d="M251.003 118.979C249.286 118.979 247.64 119.66 246.427 120.874C245.213 122.088 244.531 123.734 244.531 125.45V134.072C244.531 135.789 245.213 137.435 246.427 138.648C247.64 139.862 249.286 140.544 251.003 140.544C251.854 140.545 252.696 140.379 253.483 140.054C254.269 139.73 254.984 139.253 255.586 138.652C256.188 138.051 256.665 137.337 256.991 136.551C257.317 135.765 257.485 134.923 257.485 134.072V125.45C257.485 124.6 257.317 123.757 256.991 122.971C256.665 122.185 256.188 121.472 255.586 120.87C254.984 120.269 254.269 119.793 253.483 119.468C252.696 119.144 251.854 118.977 251.003 118.979Z" fill="#F99942"/>
<path opacity="0.6" d="M251.003 118.979C249.287 118.979 247.64 119.66 246.427 120.874C245.213 122.088 244.531 123.734 244.531 125.45V134.072C244.531 135.789 245.213 137.435 246.427 138.648C247.64 139.862 249.287 140.544 251.003 140.544C251.854 140.545 252.696 140.379 253.483 140.054C254.269 139.73 254.984 139.253 255.586 138.652C256.188 138.051 256.665 137.337 256.991 136.551C257.317 135.765 257.485 134.923 257.485 134.072V125.45C257.485 124.6 257.317 123.757 256.991 122.971C256.665 122.185 256.188 121.472 255.586 120.87C254.984 120.269 254.269 119.793 253.483 119.468C252.696 119.144 251.854 118.977 251.003 118.979Z" fill="#FAFAFA"/>
<path d="M387.697 265.349H413.86L369.193 219.023L387.697 265.349Z" fill="#F99942"/>
<g opacity="0.1">
<path opacity="0.1" d="M387.697 265.349H413.86L369.193 219.023L387.697 265.349Z" fill="black"/>
</g>
<g style="mix-blend-mode:multiply">
<path d="M362.547 240.896L369.193 219.023L372.961 240.896H362.547Z" fill="#00A688"/>
</g>
<path d="M369.193 219.023V283.843L373.821 279.224L387.697 265.349L369.193 219.023Z" fill="#F99942"/>
<path opacity="0.3" d="M369.193 219.023V283.843L373.821 279.224L387.697 265.349L369.193 219.023Z" fill="#FAFAFA"/>
<path d="M415.457 79.9846H358.113C355.207 79.9954 352.423 81.154 350.367 83.2081C348.311 85.2622 347.149 88.0454 347.136 90.9517V120.566C347.149 123.47 348.309 126.252 350.363 128.306C352.417 130.36 355.199 131.519 358.103 131.533H400.179L399.872 141.885L410.491 131.533H415.437C418.343 131.522 421.127 130.363 423.183 128.309C425.239 126.255 426.401 123.472 426.414 120.566V90.9517C426.401 88.049 425.242 85.2688 423.191 83.2153C421.139 81.1618 418.36 80.0008 415.457 79.9846ZM356.823 92.6003C356.823 91.7856 357.147 91.0042 357.723 90.4281C358.299 89.852 359.08 89.5283 359.895 89.5283H373.094C373.909 89.5283 374.691 89.852 375.267 90.4281C375.843 91.0042 376.166 91.7856 376.166 92.6003C376.166 93.4151 375.843 94.1965 375.267 94.7726C374.691 95.3487 373.909 95.6723 373.094 95.6723H359.885C359.072 95.6696 358.293 95.3448 357.719 94.7689C357.145 94.1931 356.823 93.4133 356.823 92.6003ZM412.201 121.272H389.386C388.945 121.35 388.492 121.329 388.059 121.213C387.626 121.097 387.223 120.887 386.88 120.599C386.537 120.31 386.261 119.95 386.072 119.544C385.882 119.138 385.784 118.695 385.784 118.246C385.784 117.798 385.882 117.355 386.072 116.949C386.261 116.543 386.537 116.183 386.88 115.894C387.223 115.606 387.626 115.396 388.059 115.28C388.492 115.163 388.945 115.143 389.386 115.22H412.201C412.643 115.143 413.096 115.163 413.529 115.28C413.962 115.396 414.364 115.606 414.707 115.894C415.05 116.183 415.326 116.543 415.516 116.949C415.705 117.355 415.803 117.798 415.803 118.246C415.803 118.695 415.705 119.138 415.516 119.544C415.326 119.95 415.05 120.31 414.707 120.599C414.364 120.887 413.962 121.097 413.529 121.213C413.096 121.329 412.643 121.35 412.201 121.272ZM412.201 108.462H362.957C362.515 108.539 362.062 108.519 361.629 108.403C361.196 108.286 360.794 108.077 360.451 107.788C360.107 107.5 359.832 107.14 359.642 106.734C359.453 106.327 359.355 105.884 359.355 105.436C359.355 104.988 359.453 104.545 359.642 104.139C359.832 103.732 360.107 103.372 360.451 103.084C360.794 102.796 361.196 102.586 361.629 102.47C362.062 102.353 362.515 102.333 362.957 102.41H412.201C412.643 102.333 413.096 102.353 413.529 102.47C413.962 102.586 414.364 102.796 414.707 103.084C415.05 103.372 415.326 103.732 415.516 104.139C415.705 104.545 415.803 104.988 415.803 105.436C415.803 105.884 415.705 106.327 415.516 106.734C415.326 107.14 415.05 107.5 414.707 107.788C414.364 108.077 413.962 108.286 413.529 108.403C413.096 108.519 412.643 108.539 412.201 108.462ZM412.201 95.6519H383.048C382.233 95.6519 381.452 95.3282 380.875 94.7521C380.299 94.176 379.976 93.3946 379.976 92.5799C379.976 91.7651 380.299 90.9837 380.875 90.4076C381.452 89.8315 382.233 89.5079 383.048 89.5079H412.201C413.016 89.5079 413.797 89.8315 414.373 90.4076C414.949 90.9837 415.273 91.7651 415.273 92.5799C415.273 93.3946 414.949 94.176 414.373 94.7521C413.797 95.3282 413.016 95.6519 412.201 95.6519Z" fill="#F99942"/>
<path d="M325.775 173.855C323.326 167.127 319.587 160.942 314.767 155.648H233.349C228.53 160.942 224.79 167.127 222.341 173.855L233.605 229.929C242.222 239.27 253.808 245.34 266.393 247.108C278.978 248.876 291.787 246.232 302.645 239.626C313.502 233.02 321.737 222.86 325.952 210.87C330.166 198.88 330.101 185.801 325.765 173.855H325.775Z" fill="#00A688"/>
<path opacity="0.1" d="M325.775 173.855C323.326 167.127 319.587 160.942 314.767 155.648H233.349C228.53 160.942 224.79 167.127 222.341 173.855L233.605 229.929C242.222 239.27 253.808 245.34 266.393 247.108C278.978 248.876 291.787 246.232 302.645 239.626C313.502 233.02 321.737 222.86 325.952 210.87C330.166 198.88 330.101 185.801 325.765 173.855H325.775Z" fill="#FAFAFA"/>
<path d="M329.021 195.185C328.44 208.114 323.304 220.422 314.522 229.929H233.626C226.796 222.508 222.135 213.355 220.148 203.468C218.162 193.58 218.928 183.337 222.362 173.855H325.786C328.269 180.679 329.369 187.93 329.021 195.185Z" fill="#00A688"/>
<path opacity="0.9" d="M329.021 195.185C328.44 208.114 323.304 220.422 314.522 229.929H233.626C226.796 222.508 222.135 213.355 220.148 203.468C218.162 193.58 218.928 183.337 222.362 173.855H325.786C328.269 180.679 329.369 187.93 329.021 195.185Z" fill="#FAFAFA"/>
<path opacity="0.3" d="M329.021 195.185C328.385 208.791 322.712 221.674 313.106 231.332C303.501 240.989 290.648 246.73 277.045 247.44C263.443 248.15 250.062 243.777 239.503 235.172C228.945 226.567 221.962 214.343 219.913 200.877C217.864 187.411 220.894 173.664 228.415 162.308C235.935 150.951 247.409 142.796 260.607 139.427C273.805 136.058 287.784 137.716 299.828 144.079C311.872 150.441 321.12 161.054 325.775 173.855C328.259 180.68 329.363 187.93 329.021 195.185Z" fill="white"/>
<path opacity="0.4" d="M305.07 147.21L225.956 219.361C225.56 218.631 225.171 217.894 224.788 217.149C222.369 212.307 220.689 207.129 219.802 201.789L288.133 139.469C294.18 141.062 299.908 143.681 305.07 147.21Z" fill="white"/>
<path opacity="0.4" d="M326.236 175.176L251.904 243.005C244.194 239.604 237.369 234.474 231.956 228.014L313.18 153.938C319.099 159.925 323.566 167.191 326.236 175.176Z" fill="white"/>
<path d="M329.001 160.922C322.726 150.041 313.364 141.266 302.101 135.707C290.838 130.148 278.178 128.056 265.725 129.693C253.272 131.331 241.584 136.626 232.141 144.908C222.698 153.19 215.924 164.087 212.675 176.22C209.427 188.354 209.851 201.178 213.893 213.07C217.935 224.962 225.413 235.388 235.383 243.029C245.352 250.67 257.363 255.182 269.897 255.994C282.432 256.807 294.925 253.883 305.797 247.593C320.359 239.168 330.981 225.309 335.332 209.058C339.682 192.808 337.405 175.495 329.001 160.922ZM230.697 217.692C225.746 209.117 223.449 199.267 224.096 189.387C224.743 179.507 228.305 170.04 234.332 162.185C240.359 154.329 248.581 148.437 257.956 145.254C267.332 142.07 277.441 141.738 287.005 144.3C296.569 146.862 305.159 152.202 311.688 159.646C318.218 167.09 322.393 176.302 323.686 186.119C324.98 195.935 323.334 205.915 318.955 214.796C314.577 223.676 307.664 231.06 299.09 236.012C293.397 239.299 287.112 241.434 280.595 242.293C274.077 243.151 267.454 242.718 261.104 241.017C254.754 239.316 248.801 236.38 243.585 232.378C238.37 228.376 233.994 223.386 230.707 217.692H230.697Z" fill="#00A688"/>
<path opacity="0.1" d="M329.001 160.922C322.726 150.041 313.364 141.266 302.101 135.707C290.838 130.148 278.178 128.056 265.725 129.693C253.272 131.331 241.584 136.626 232.141 144.908C222.698 153.19 215.924 164.087 212.675 176.22C209.427 188.354 209.851 201.178 213.893 213.07C217.935 224.962 225.413 235.388 235.383 243.029C245.352 250.67 257.363 255.182 269.897 255.994C282.432 256.807 294.925 253.883 305.797 247.593C320.359 239.168 330.981 225.309 335.332 209.058C339.682 192.808 337.405 175.495 329.001 160.922ZM230.697 217.692C225.746 209.117 223.449 199.267 224.096 189.387C224.743 179.507 228.305 170.04 234.332 162.185C240.359 154.329 248.581 148.437 257.956 145.254C267.332 142.07 277.441 141.738 287.005 144.3C296.569 146.862 305.159 152.202 311.688 159.646C318.218 167.09 322.393 176.302 323.686 186.119C324.98 195.935 323.334 205.915 318.955 214.796C314.577 223.676 307.664 231.06 299.09 236.012C293.397 239.299 287.112 241.434 280.595 242.293C274.077 243.151 267.454 242.718 261.104 241.017C254.754 239.316 248.801 236.38 243.585 232.378C238.37 228.376 233.994 223.386 230.707 217.692H230.697Z" fill="black"/>
<path d="M128.061 257.935L135.905 259.758L129.403 264.612C129.403 264.612 124.744 262.502 124.529 259.195L128.061 257.935Z" fill="#E4897B"/>
<path d="M140.104 264.98L134.451 268.749L129.403 264.612L135.905 259.768L140.104 264.98Z" fill="#E4897B"/>
<path d="M228.833 226.079C220.498 232.223 211.948 238.06 203.356 243.763C194.765 249.467 186.061 255.027 177.316 260.485C168.571 265.943 159.744 271.288 150.886 276.48C146.463 279.122 141.998 281.682 137.574 284.283C135.377 285.682 132.981 286.742 130.468 287.427C129.127 287.782 127.756 288.012 126.372 288.113C124.836 288.238 123.289 288.159 121.774 287.877C120.691 287.663 119.661 287.237 118.743 286.624C117.824 286.012 117.036 285.224 116.422 284.306C115.809 283.388 115.383 282.358 115.168 281.276C114.952 280.193 114.953 279.078 115.169 277.996C115.239 277.648 115.335 277.305 115.456 276.972C115.95 275.52 116.639 274.142 117.504 272.876C118.275 271.737 119.153 270.674 120.125 269.701C121.977 267.868 124.093 266.321 126.403 265.114C130.877 262.564 135.322 259.994 139.827 257.464C148.797 252.396 157.85 247.46 166.922 242.586C175.995 237.711 185.18 232.991 194.417 228.383C203.653 223.775 212.961 219.29 222.464 215.153C223.898 214.519 225.516 214.437 227.007 214.923C228.497 215.409 229.756 216.428 230.541 217.786C231.326 219.143 231.581 220.743 231.258 222.277C230.936 223.812 230.057 225.173 228.792 226.099L228.833 226.079Z" fill="#00A688"/>
<path opacity="0.1" d="M228.833 226.079C220.498 232.223 211.948 238.06 203.356 243.763C194.765 249.467 186.061 255.027 177.316 260.485C168.571 265.943 159.744 271.288 150.886 276.48C146.463 279.122 141.998 281.682 137.574 284.283C135.377 285.682 132.981 286.742 130.468 287.427C129.127 287.782 127.756 288.012 126.372 288.113C124.836 288.238 123.289 288.159 121.774 287.877C120.691 287.663 119.661 287.237 118.743 286.624C117.824 286.012 117.036 285.224 116.422 284.306C115.809 283.388 115.383 282.358 115.168 281.276C114.952 280.193 114.953 279.078 115.169 277.996C115.239 277.648 115.335 277.305 115.456 276.972C115.95 275.52 116.639 274.142 117.504 272.876C118.275 271.737 119.153 270.674 120.125 269.701C121.977 267.868 124.093 266.321 126.403 265.114C130.877 262.564 135.322 259.994 139.827 257.464C148.797 252.396 157.85 247.46 166.922 242.586C175.995 237.711 185.18 232.991 194.417 228.383C203.653 223.775 212.961 219.29 222.464 215.153C223.898 214.519 225.516 214.437 227.007 214.923C228.497 215.409 229.756 216.428 230.541 217.786C231.326 219.143 231.581 220.743 231.258 222.277C230.936 223.812 230.057 225.173 228.792 226.099L228.833 226.079Z" fill="black"/>
<path d="M139.428 209.428C138.916 210.258 138.332 211.261 137.779 212.204C137.226 213.146 136.684 214.129 136.172 215.122C135.148 217.078 134.124 219.064 133.1 221.082C132.076 223.099 131.246 225.178 130.406 227.226C129.997 228.25 129.567 229.274 129.188 230.298L128.614 231.864C128.502 232.161 128.481 232.284 128.41 232.499C128.338 232.714 128.307 232.919 128.246 233.124C127.846 235.147 127.644 237.205 127.642 239.268C127.59 241.469 127.642 243.712 127.764 245.975C127.887 248.238 128.01 250.511 128.215 252.785C128.42 255.058 128.625 257.372 128.84 259.625L124.887 260.434C124.191 258.15 123.648 255.877 123.105 253.573C122.563 251.269 122.153 248.955 121.754 246.6C121.354 244.244 121.088 241.879 120.914 239.432C120.701 236.869 120.766 234.29 121.108 231.741C121.17 231.383 121.221 231.045 121.313 230.717C121.405 230.39 121.498 229.929 121.58 229.693L122.081 227.953C122.409 226.796 122.788 225.649 123.177 224.512C123.965 222.228 124.826 219.986 125.788 217.774C126.751 215.562 127.775 213.402 128.86 211.272C129.423 210.248 130.017 209.152 130.621 208.097C131.226 207.043 131.83 206.049 132.588 204.933L139.428 209.428Z" fill="#E4897B"/>
<path d="M135.055 420.864C134.364 420.842 133.678 420.746 133.007 420.577C132.971 420.571 132.938 420.554 132.913 420.529C132.887 420.503 132.87 420.47 132.864 420.434C132.857 420.397 132.862 420.359 132.876 420.325C132.891 420.29 132.915 420.261 132.946 420.239C133.222 420.055 135.639 418.499 136.571 418.918C136.674 418.966 136.763 419.04 136.828 419.134C136.893 419.228 136.932 419.337 136.94 419.451C136.988 419.633 136.984 419.825 136.93 420.006C136.876 420.187 136.773 420.349 136.632 420.475C136.171 420.791 135.611 420.929 135.055 420.864ZM133.489 420.311C134.881 420.588 135.926 420.536 136.325 420.168C136.413 420.083 136.477 419.978 136.511 419.861C136.545 419.744 136.548 419.62 136.52 419.502C136.518 419.45 136.502 419.399 136.473 419.356C136.444 419.312 136.404 419.278 136.356 419.256C135.875 419.041 134.472 419.717 133.489 420.311Z" fill="#00A688"/>
<path d="M132.997 420.588C132.967 420.596 132.935 420.596 132.905 420.588C132.876 420.572 132.851 420.548 132.835 420.519C132.819 420.49 132.811 420.457 132.813 420.424C132.813 420.332 132.813 418.038 133.683 417.27C133.791 417.173 133.917 417.1 134.055 417.056C134.193 417.012 134.338 416.998 134.482 417.014C134.633 417.016 134.779 417.07 134.894 417.167C135.01 417.264 135.088 417.398 135.117 417.546C135.301 418.437 133.847 420.157 133.069 420.618C133.043 420.614 133.018 420.603 132.997 420.588ZM134.359 417.352C134.204 417.353 134.054 417.411 133.939 417.516C133.436 418.257 133.178 419.138 133.202 420.035C133.96 419.42 134.861 418.13 134.748 417.587C134.748 417.495 134.676 417.393 134.441 417.362L134.359 417.352Z" fill="#00A688"/>
<path d="M171.325 420.864C170.482 420.851 169.641 420.755 168.817 420.577C168.777 420.573 168.741 420.555 168.713 420.527C168.685 420.499 168.667 420.463 168.663 420.424C168.658 420.385 168.666 420.345 168.684 420.311C168.702 420.276 168.731 420.247 168.765 420.229C169.124 420.045 172.298 418.427 173.271 418.959C173.365 419.007 173.444 419.079 173.501 419.167C173.559 419.255 173.592 419.356 173.599 419.461C173.621 419.63 173.601 419.802 173.54 419.961C173.479 420.12 173.38 420.262 173.251 420.372C172.684 420.753 172.005 420.926 171.325 420.864ZM169.441 420.311C171.213 420.608 172.513 420.526 173.005 420.096C173.086 420.02 173.149 419.925 173.186 419.82C173.223 419.715 173.235 419.602 173.22 419.492C173.219 419.45 173.208 419.409 173.186 419.373C173.165 419.337 173.134 419.307 173.097 419.287C172.564 419 170.742 419.686 169.441 420.311Z" fill="#00A688"/>
<path d="M168.847 420.588C168.831 420.594 168.814 420.598 168.796 420.598C168.779 420.598 168.761 420.594 168.745 420.588C168.715 420.573 168.692 420.549 168.677 420.519C168.662 420.49 168.657 420.456 168.663 420.424C168.663 420.332 168.858 418.181 169.851 417.352C170.136 417.113 170.504 416.995 170.875 417.024C171.397 417.075 171.54 417.341 171.581 417.556C171.725 418.458 169.851 420.178 168.899 420.628L168.847 420.588ZM170.752 417.352C170.511 417.354 170.279 417.441 170.097 417.597C169.509 418.291 169.152 419.15 169.073 420.055C170.035 419.471 171.315 418.12 171.223 417.577C171.223 417.577 171.223 417.393 170.854 417.362L170.752 417.352Z" fill="#00A688"/>
<path d="M151.552 178.678C152.177 183.46 153.6 193.157 150.139 196.086C150.139 196.086 151.163 200.96 159.887 201.523C169.533 202.148 164.803 197.038 164.803 197.038C159.621 195.441 160.01 191.539 161.167 187.935L151.552 178.678Z" fill="#E4897B"/>
<path d="M169.441 168.96C169.38 168.959 169.32 168.941 169.267 168.909C169.223 168.886 169.183 168.855 169.151 168.816C169.119 168.778 169.095 168.734 169.08 168.686C169.066 168.638 169.062 168.588 169.067 168.538C169.073 168.488 169.089 168.44 169.114 168.397C169.38 167.855 169.773 167.386 170.26 167.029C170.746 166.673 171.312 166.439 171.909 166.349C172.001 166.352 172.088 166.389 172.155 166.452C172.221 166.515 172.263 166.6 172.272 166.691C172.28 166.783 172.256 166.874 172.202 166.948C172.149 167.023 172.07 167.075 171.981 167.096C171.514 167.178 171.072 167.366 170.69 167.647C170.308 167.928 169.996 168.293 169.779 168.714C169.75 168.782 169.703 168.84 169.644 168.883C169.584 168.927 169.514 168.953 169.441 168.96Z" fill="#263238"/>
<path d="M172.196 173.158C172.901 174.565 173.797 175.867 174.858 177.029C174.554 177.294 174.196 177.488 173.808 177.6C173.421 177.711 173.014 177.737 172.616 177.674L172.196 173.158Z" fill="#DE5753"/>
<path d="M171.52 172.114C171.581 172.759 171.971 173.24 172.38 173.199C172.79 173.158 173.097 172.616 173.036 171.971C172.974 171.325 172.585 170.844 172.165 170.885C171.745 170.926 171.459 171.479 171.52 172.114Z" fill="#263238"/>
<path d="M172.032 170.936L173.527 170.353C173.527 170.353 172.81 171.622 172.032 170.936Z" fill="#263238"/>
<path d="M160.082 420.393H168.059L168.591 401.94H160.614L160.082 420.393Z" fill="#E4897B"/>
<path d="M123.863 420.393H131.84L134.4 401.94H126.433L123.863 420.393Z" fill="#E4897B"/>
<path d="M132.332 419.471H123.372C123.218 419.47 123.069 419.524 122.952 419.624C122.836 419.723 122.759 419.862 122.737 420.014L121.713 427.1C121.692 427.279 121.71 427.46 121.765 427.632C121.819 427.803 121.91 427.961 122.029 428.096C122.149 428.23 122.296 428.337 122.46 428.411C122.624 428.485 122.802 428.523 122.982 428.524C126.054 428.472 127.611 428.288 131.553 428.288C133.97 428.288 137.513 428.534 140.861 428.534C144.21 428.534 144.384 425.226 142.991 424.929C136.745 423.588 135.762 421.734 133.652 419.963C133.284 419.648 132.816 419.474 132.332 419.471Z" fill="#263238"/>
<path d="M168.325 419.471H159.375C159.221 419.468 159.071 419.521 158.954 419.621C158.837 419.721 158.761 419.861 158.74 420.014L157.716 427.1C157.698 427.28 157.717 427.461 157.773 427.632C157.829 427.804 157.92 427.962 158.04 428.096C158.161 428.23 158.308 428.337 158.473 428.411C158.638 428.485 158.816 428.523 158.996 428.524C162.068 428.472 163.625 428.288 167.557 428.288C169.984 428.288 174.991 428.534 178.34 428.534C181.688 428.534 181.862 425.226 180.47 424.929C174.223 423.588 171.766 421.734 169.656 419.963C169.285 419.646 168.813 419.471 168.325 419.471Z" fill="#263238"/>
<path d="M168.581 401.94L168.315 411.453H160.338L160.614 401.94H168.581Z" fill="#CE6F64"/>
<path d="M126.423 401.94H134.4L133.079 411.453H125.102L126.423 401.94Z" fill="#CE6F64"/>
<path d="M142.828 210.657C141.314 213.022 139.56 215.225 137.595 217.231L136.684 216.627L126.587 209.92C126.587 209.92 132.096 197.632 136.243 197.007C140.206 196.372 143.094 200.468 144.435 204.851C144.947 206.438 144.097 208.589 142.828 210.657Z" fill="#00A688"/>
<path opacity="0.6" d="M142.828 210.657C141.314 213.022 139.56 215.225 137.595 217.231L136.684 216.627L126.587 209.92C126.587 209.92 132.096 197.632 136.243 197.007C140.206 196.372 143.094 200.468 144.435 204.851C144.947 206.438 144.097 208.589 142.828 210.657Z" fill="#FAFAFA"/>
<path d="M142.827 210.657C141.314 213.022 139.56 215.225 137.595 217.231L136.684 216.627C137.134 212.941 138.568 209.285 140.206 208.128C141.21 208.23 142.1 209.295 142.827 210.657Z" fill="#00A688"/>
<path opacity="0.4" d="M142.827 210.657C141.314 213.022 139.56 215.225 137.595 217.231L136.684 216.627C137.134 212.941 138.568 209.285 140.206 208.128C141.21 208.23 142.1 209.295 142.827 210.657Z" fill="#FAFAFA"/>
<path d="M177.367 216.791C176.886 219.863 176.261 223.478 175.421 227.768C174.397 233.257 172.964 239.841 171.151 247.716L138.844 245.668C140.237 232.55 140.78 224.44 136.243 197.048C140.83 196.408 145.457 196.103 150.088 196.137C154.992 196.105 159.892 196.423 164.751 197.089C171.018 198.113 178.063 199.997 178.063 199.997C178.063 199.997 179.866 200.704 177.367 216.791Z" fill="#00A688"/>
<path opacity="0.6" d="M177.367 216.791C176.886 219.863 176.261 223.478 175.421 227.768C174.397 233.257 172.964 239.841 171.151 247.716L138.844 245.668C140.237 232.55 140.78 224.44 136.243 197.048C140.83 196.408 145.457 196.103 150.088 196.137C154.992 196.105 159.892 196.423 164.751 197.089C171.018 198.113 178.063 199.997 178.063 199.997C178.063 199.997 179.866 200.704 177.367 216.791Z" fill="#FAFAFA"/>
<path d="M177.367 216.791C176.886 219.863 176.261 223.478 175.421 227.768C173.645 223.989 172.169 220.076 171.008 216.064H177.009L177.367 216.791Z" fill="#00A688"/>
<path opacity="0.4" d="M177.367 216.791C176.886 219.863 176.261 223.478 175.421 227.768C173.645 223.989 172.169 220.076 171.008 216.064H177.009L177.367 216.791Z" fill="#FAFAFA"/>
<path d="M149.791 171.95C151.009 179.763 151.368 183.101 155.72 186.757C162.263 192.266 171.592 189.051 172.728 181.023C173.752 173.804 171.581 162.232 163.584 159.836C161.825 159.296 159.957 159.216 158.158 159.602C156.359 159.988 154.688 160.829 153.306 162.043C151.923 163.257 150.874 164.805 150.259 166.539C149.644 168.273 149.483 170.136 149.791 171.95Z" fill="#E4897B"/>
<path d="M162.611 247.163C162.611 247.163 162.099 261.386 160.87 279.327C159.846 294.38 158.3 312.033 156.14 326.103L156.078 326.492C152.197 351.396 135.004 409.6 135.004 409.6H124.129C124.129 409.6 133.089 353.382 135.055 328.704C140.042 266.373 127.549 259.318 138.844 245.576L162.611 247.163Z" fill="#00A688"/>
<path opacity="0.3" d="M162.611 247.163C162.611 247.163 162.099 261.386 160.87 279.327C159.846 294.38 158.3 312.033 156.14 326.103L156.078 326.492C152.197 351.396 135.004 409.6 135.004 409.6H124.129C124.129 409.6 133.089 353.382 135.055 328.704C140.042 266.373 127.549 259.318 138.844 245.576L162.611 247.163Z" fill="black"/>
<path d="M160.87 279.327C159.846 294.38 158.3 312.033 156.14 326.103C152.463 307.825 146.422 281.129 154.532 263.639C156.467 268.605 158.72 274.217 160.87 279.327Z" fill="#00A688"/>
<path opacity="0.4" d="M160.87 279.327C159.846 294.38 158.3 312.033 156.14 326.103C152.463 307.825 146.422 281.129 154.532 263.639C156.467 268.605 158.72 274.217 160.87 279.327Z" fill="black"/>
<path d="M171.151 247.726C171.151 247.726 180.367 302.346 179.814 326.656C179.272 351.949 170.004 409.6 170.004 409.6H159.232C159.232 409.6 160.932 353.413 159.98 328.581C158.956 301.507 147.487 246.18 147.487 246.18L171.151 247.726Z" fill="#00A688"/>
<path opacity="0.3" d="M171.151 247.726C171.151 247.726 180.367 302.346 179.814 326.656C179.272 351.949 170.004 409.6 170.004 409.6H159.232C159.232 409.6 160.932 353.413 159.98 328.581C158.956 301.507 147.487 246.18 147.487 246.18L171.151 247.726Z" fill="black"/>
<path d="M157.389 410.112H171.837L172.964 405.268L156.877 405.381L157.389 410.112Z" fill="#263238"/>
<path d="M122.552 410.112H137.001L138.127 405.268L122.655 405.381L122.552 410.112Z" fill="#263238"/>
<path d="M138.475 243.712L136.837 246.518C136.704 246.733 136.96 246.979 137.329 246.999L171.213 249.201C171.5 249.201 171.756 249.098 171.786 248.914L172.268 246.036C172.268 245.842 172.052 245.658 171.735 245.637L138.967 243.507C138.875 243.503 138.783 243.519 138.698 243.555C138.613 243.59 138.537 243.644 138.475 243.712Z" fill="#263238"/>
<path d="M142.633 247.644L141.763 247.583C141.588 247.583 141.455 247.47 141.476 247.368L142.131 243.63C142.131 243.528 142.305 243.446 142.479 243.456L143.36 243.507C143.534 243.507 143.657 243.62 143.647 243.732L142.991 247.46C142.971 247.572 142.807 247.654 142.633 247.644Z" fill="#00A688"/>
<path opacity="0.3" d="M142.633 247.644L141.763 247.583C141.588 247.583 141.455 247.47 141.476 247.368L142.131 243.63C142.131 243.528 142.305 243.446 142.479 243.456L143.36 243.507C143.534 243.507 143.657 243.62 143.647 243.732L142.991 247.46C142.971 247.572 142.807 247.654 142.633 247.644Z" fill="black"/>
<path d="M163.84 249.016L162.97 248.965C162.796 248.965 162.662 248.852 162.683 248.74L163.338 245.012C163.338 244.9 163.512 244.828 163.697 244.838L164.567 244.89C164.741 244.89 164.874 245.002 164.854 245.115L164.198 248.842C164.209 248.955 164.045 249.027 163.84 249.016Z" fill="#00A688"/>
<path opacity="0.3" d="M163.84 249.016L162.97 248.965C162.796 248.965 162.662 248.852 162.683 248.74L163.338 245.012C163.338 244.9 163.512 244.828 163.697 244.838L164.567 244.89C164.741 244.89 164.874 245.002 164.854 245.115L164.198 248.842C164.209 248.955 164.045 249.027 163.84 249.016Z" fill="black"/>
<path d="M179.896 208.189C181.125 212.285 182.292 216.433 183.429 220.57L186.859 232.95L187.29 234.486L187.402 234.865L187.453 235.059V235.162C187.49 235.297 187.535 235.431 187.587 235.561C187.838 236.183 188.183 236.764 188.611 237.281C189.833 238.572 191.25 239.663 192.809 240.517C196.381 242.45 200.16 243.976 204.073 245.064L203.479 249.057C198.887 248.821 194.364 247.842 190.085 246.159C187.717 245.231 185.536 243.886 183.644 242.186C182.561 241.182 181.66 239.997 180.982 238.684C180.799 238.329 180.638 237.963 180.5 237.588L180.388 237.312L180.316 237.117L180.183 236.739L179.64 235.192C178.207 231.096 176.876 227 175.616 222.843C174.356 218.685 173.117 214.589 171.991 210.412L179.896 208.189Z" fill="#E4897B"/>
<path d="M178.063 199.956C182.159 201.298 186.46 214.692 186.46 214.692L171.674 221.061C171.674 221.061 165.53 206.029 168.253 202.629C170.977 199.229 173.363 198.42 178.063 199.956Z" fill="#00A688"/>
<path opacity="0.6" d="M178.063 199.956C182.159 201.298 186.46 214.692 186.46 214.692L171.674 221.061C171.674 221.061 165.53 206.029 168.253 202.629C170.977 199.229 173.363 198.42 178.063 199.956Z" fill="#FAFAFA"/>
<path d="M170.158 159.386C167.547 156.16 147.374 153.856 146.299 162.642C139.131 167.66 145.93 180.623 146.954 183.921C142.008 185.293 126.075 190.74 137.738 201.329C149.402 211.917 166.892 210.115 170.312 199.158C172.708 191.498 165.1 178.678 165.263 174.193C165.427 169.708 174.633 164.864 170.158 159.386Z" fill="#263238"/>
<path d="M148.367 185.539C148.33 185.54 148.293 185.532 148.259 185.516C148.225 185.5 148.196 185.476 148.173 185.446C146.319 183.194 139.868 171.356 142.131 165.724C142.482 164.85 143.077 164.096 143.845 163.551C144.613 163.007 145.522 162.694 146.463 162.652C146.496 162.648 146.529 162.65 146.562 162.66C146.594 162.669 146.623 162.684 146.649 162.705C146.675 162.726 146.697 162.753 146.712 162.782C146.727 162.812 146.737 162.844 146.739 162.877C146.748 162.944 146.73 163.011 146.69 163.065C146.65 163.118 146.59 163.154 146.524 163.164C145.678 163.195 144.859 163.469 144.164 163.951C143.469 164.434 142.927 165.106 142.602 165.888C140.421 171.336 146.749 182.897 148.562 185.108C148.594 185.145 148.615 185.189 148.622 185.237C148.629 185.285 148.622 185.334 148.601 185.378C148.58 185.422 148.547 185.458 148.505 185.483C148.464 185.508 148.416 185.52 148.367 185.518V185.539Z" fill="#263238"/>
<path d="M163.666 173.711C163.894 175.207 164.615 176.583 165.714 177.623C167.168 179.016 168.54 178.063 168.673 176.292C168.796 174.705 168.182 172.073 166.461 171.336C164.741 170.598 163.451 171.94 163.666 173.711Z" fill="#E4897B"/>
<path d="M199.055 243.958L204.872 241.981L203.96 248.975C203.96 248.975 201.667 249.999 198.697 247.419L195.86 245.606L198.093 244.388C198.399 244.213 198.721 244.069 199.055 243.958Z" fill="#E4897B"/>
<path d="M208.937 241.961L207.155 248.074L203.96 248.965L204.872 241.981L208.937 241.961Z" fill="#E4897B"/>
</svg>
