<svg width="500" height="500" viewBox="0 0 500 500" fill="none" xmlns="http://www.w3.org/2000/svg">
<path d="M240.25 97.45C153.57 115.45 57.2501 162.38 73.9001 262.81C88.9801 353.94 193.79 394.81 270.67 334.17C303.84 308.02 307.59 265.27 345.67 243.69C383.75 222.11 440.75 217.26 437.34 159.05C432.06 68.91 297.28 85.59 240.25 97.45Z" fill="#F99942"/>
<path opacity="0.9" d="M240.25 97.45C153.57 115.45 57.2501 162.38 73.9001 262.81C88.9801 353.94 193.79 394.81 270.67 334.17C303.84 308.02 307.59 265.27 345.67 243.69C383.75 222.11 440.75 217.26 437.34 159.05C432.06 68.91 297.28 85.59 240.25 97.45Z" fill="white"/>
<path d="M250 427.56C357.082 427.56 443.89 422.492 443.89 416.24C443.89 409.988 357.082 404.92 250 404.92C142.917 404.92 56.11 409.988 56.11 416.24C56.11 422.492 142.917 427.56 250 427.56Z" fill="#F5F5F5"/>
<path d="M313.76 408.35H306.04L302.95 390.46H310.67L313.76 408.35Z" fill="#FFC3BD"/>
<path d="M359.19 408.35H351.47L344.41 390.46H352.13L359.19 408.35Z" fill="#FFC3BD"/>
<path d="M350.38 407.46H359.8C359.955 407.462 360.106 407.513 360.23 407.607C360.354 407.7 360.445 407.831 360.49 407.98L362.41 414.85C362.46 415.011 362.47 415.182 362.44 415.349C362.41 415.515 362.341 415.671 362.238 415.805C362.135 415.939 362.002 416.047 361.849 416.119C361.697 416.191 361.529 416.226 361.36 416.22C358.36 416.17 356.11 415.99 352.29 415.99C349.94 415.99 345.12 416.24 341.88 416.24C338.64 416.24 338.03 413.03 339.34 412.74C345.21 411.44 347.34 409.64 349.16 407.93C349.49 407.621 349.928 407.452 350.38 407.46Z" fill="#263238"/>
<path d="M306 407.46H314.44C314.595 407.463 314.745 407.516 314.869 407.609C314.993 407.702 315.084 407.832 315.13 407.98L317.05 414.85C317.1 415.007 317.113 415.175 317.086 415.338C317.06 415.501 316.996 415.656 316.898 415.789C316.801 415.923 316.673 416.031 316.526 416.106C316.378 416.181 316.215 416.22 316.05 416.22C313 416.17 308.6 415.99 304.77 415.99C300.3 415.99 296.45 416.24 291.21 416.24C288.04 416.24 286.97 413.03 288.28 412.74C294.28 411.42 299.17 411.28 304.21 408.06C304.738 407.694 305.358 407.486 306 407.46Z" fill="#263238"/>
<path d="M313.46 211.12C310.64 215.21 307.75 219.3 304.86 223.36L296.17 235.51L294.02 238.51L293.45 239.32C293.21 239.66 292.94 240.01 292.65 240.32C291.998 241.134 291.249 241.866 290.42 242.5C289.878 242.91 289.295 243.261 288.68 243.55C287.92 243.913 287.106 244.149 286.27 244.25C285.362 244.371 284.439 244.32 283.55 244.1C282.768 243.911 282.02 243.604 281.33 243.19C280.33 242.572 279.45 241.779 278.73 240.85C278.19 240.15 277.709 239.408 277.29 238.63C276.596 237.307 276.02 235.925 275.57 234.5C275.148 233.186 274.795 231.851 274.51 230.5C274.21 229.19 273.99 227.88 273.81 226.57C273.63 225.26 273.48 223.98 273.4 222.57L279.08 221.42L280.43 224.76C280.9 225.88 281.43 226.97 281.88 228.05C282.33 229.13 282.88 230.16 283.43 231.13C283.922 232.031 284.477 232.896 285.09 233.72C285.319 234.018 285.581 234.29 285.87 234.53C286.08 234.7 286.26 234.77 286.12 234.62C285.731 234.363 285.264 234.249 284.8 234.3C284.21 234.36 283.99 234.52 284 234.45C284.102 234.261 284.219 234.08 284.35 233.91C284.44 233.76 284.54 233.6 284.64 233.41L285.09 232.65L287.09 229.37C289.74 225.04 292.48 220.8 295.28 216.59C298.08 212.38 300.96 208.27 303.96 204.19L313.46 211.12Z" fill="#FFC3BD"/>
<path d="M317.33 208.83C316.77 216.35 301.65 234.56 301.65 234.56L290 218.74C290 218.74 295.51 208.59 302.66 202.32C309.81 196.05 318 200.58 317.33 208.83Z" fill="#00A688"/>
<path opacity="0.2" d="M317.33 208.83C316.77 216.35 301.65 234.56 301.65 234.56L290 218.74C290 218.74 295.51 208.59 302.66 202.32C309.81 196.05 318 200.58 317.33 208.83Z" fill="white"/>
<path d="M279.85 226.14L278.45 216.25L271 223C271 223 271.9 228.7 277.4 228.48L279.85 226.14Z" fill="#FFC3BD"/>
<path d="M273.52 210.51L268.28 215.69L271 222.95L278.45 216.25L273.52 210.51Z" fill="#FFC3BD"/>
<path opacity="0.2" d="M302.95 390.47L304.54 399.69H312.27L310.68 390.47H302.95Z" fill="black"/>
<path opacity="0.2" d="M352.14 390.47H344.41L348.05 399.69H355.78L352.14 390.47Z" fill="black"/>
<path d="M307.12 199.89C307.12 199.89 299.36 223.21 310.54 266.65H351.86C351.77 260.31 345.99 229.37 350.37 199.49C345.768 198.613 341.116 198.028 336.44 197.74C330.592 197.405 324.729 197.405 318.88 197.74C314.909 198.142 310.977 198.861 307.12 199.89Z" fill="#00A688"/>
<path opacity="0.2" d="M307.12 199.89C307.12 199.89 299.36 223.21 310.54 266.65H351.86C351.77 260.31 345.99 229.37 350.37 199.49C345.768 198.613 341.116 198.028 336.44 197.74C330.592 197.405 324.729 197.405 318.88 197.74C314.909 198.142 310.977 198.861 307.12 199.89Z" fill="white"/>
<path opacity="0.2" d="M350.37 199.49H350.19C346.07 198.9 342.06 203.68 340.42 210.11C338.03 219.47 337.81 234.59 337.81 234.59L348.93 233.24C348.368 221.97 348.851 210.672 350.37 199.49Z" fill="black"/>
<path d="M355.47 203.11C360.39 211.4 356.89 232.24 356.89 232.24L339.6 232.06C339.6 232.06 338.22 217.88 340.09 208.4C342 198.6 351.69 196.72 355.47 203.11Z" fill="#00A688"/>
<path d="M320.11 210.33C320.052 210.328 319.995 210.307 319.95 210.27L318.83 209.35C314.04 205.44 314.97 199.73 315.37 198.08C315.377 198.048 315.391 198.017 315.409 197.99C315.428 197.963 315.453 197.94 315.48 197.922C315.508 197.905 315.539 197.893 315.572 197.887C315.605 197.882 315.638 197.883 315.67 197.89C315.736 197.907 315.793 197.948 315.828 198.006C315.864 198.064 315.875 198.134 315.86 198.2C315.47 199.78 314.58 205.2 319.14 208.96L320.14 209.81L321.44 209.52C328.003 207.977 333.948 204.493 338.5 199.52L339.93 197.82C339.952 197.795 339.978 197.775 340.008 197.76C340.037 197.745 340.069 197.736 340.102 197.734C340.135 197.732 340.168 197.736 340.2 197.746C340.231 197.757 340.26 197.773 340.285 197.795C340.31 197.817 340.33 197.843 340.345 197.873C340.36 197.902 340.369 197.934 340.371 197.967C340.373 198 340.369 198.033 340.359 198.065C340.348 198.096 340.332 198.125 340.31 198.15L338.89 199.84C334.271 204.883 328.244 208.422 321.59 210L320.17 210.31L320.11 210.33Z" fill="white"/>
<path d="M333.55 178C332.77 183.65 332.27 194 336.44 197.77C332.273 202.281 326.856 205.446 320.88 206.86C316.55 203.32 318.88 197.77 318.88 197.77C325.09 196.27 324.66 191.59 323.31 187.2L333.55 178Z" fill="#FFC3BD"/>
<path opacity="0.2" d="M329.38 181.72L323.31 187.17C323.643 188.186 323.884 189.23 324.03 190.29C326.42 189.94 329.57 187.29 329.68 184.77C329.766 183.744 329.664 182.71 329.38 181.72Z" fill="black"/>
<path d="M319.13 158.54C315.13 159.44 311.8 169.54 316.33 172.84C320.86 176.14 326.66 156.84 319.13 158.54Z" fill="#263238"/>
<path d="M336.57 170.62C335.16 178.07 334.73 182.52 330.4 185.69C323.9 190.45 314.94 185.31 314.06 177.47C313.27 170.41 315.7 159.47 323.52 157.78C325.289 157.435 327.116 157.527 328.842 158.047C330.568 158.566 332.142 159.499 333.427 160.763C334.712 162.027 335.669 163.585 336.217 165.303C336.765 167.02 336.886 168.845 336.57 170.62Z" fill="#FFC3BD"/>
<path d="M335.12 177.9C331.57 180.37 325.58 157.66 337.33 161.53C347.68 164.93 340.86 173.92 335.12 177.9Z" fill="#263238"/>
<path d="M332.64 163.42C329.96 163.36 318.17 161.64 315.2 158.56C312.23 155.48 317.5 151 317.5 151C317.5 151 317.64 153.42 318.86 154.25C319.11 153.56 319.81 150.33 318.72 148.67C319.81 148.36 324.28 151.58 324.78 152.78C324.916 151.77 324.81 150.741 324.47 149.78C327.203 150.166 329.753 151.376 331.78 153.25C338.36 159.14 340.78 157.92 342.61 160.72C344.36 163.36 344.11 165.8 340.36 166.21C338.44 166.46 334 163.44 332.64 163.42Z" fill="#263238"/>
<path d="M339 179.54C338.387 180.248 337.635 180.823 336.79 181.227C335.945 181.631 335.026 181.857 334.09 181.89C331.54 181.98 330.72 179.56 331.81 177.46C332.81 175.57 335.29 173.25 337.67 174.15C338.183 174.341 338.641 174.654 339.005 175.063C339.369 175.471 339.628 175.962 339.759 176.494C339.89 177.025 339.89 177.58 339.757 178.111C339.625 178.642 339.365 179.132 339 179.54Z" fill="#FFC3BD"/>
<path d="M310.54 266.65C310.54 266.65 282.85 308.39 285.05 331.94C287.35 356.45 301.54 397.94 301.54 397.94H314.62C314.62 397.94 306.94 357.94 306.13 333.85C305.24 307.62 338.87 286.93 337.7 266.69L310.54 266.65Z" fill="#263238"/>
<path opacity="0.2" d="M327.08 280.33C318.38 285.82 313.83 299.63 313.15 310.92C319.38 300.44 328.26 290.75 333.46 281.41C332.23 279.28 330.25 278.33 327.08 280.33Z" fill="black"/>
<path d="M325.2 266.65C325.2 266.65 312.35 309.65 318.44 331.78C325.12 356 344.31 397.9 344.31 397.9H358.46C358.46 397.9 346.14 358 341.74 334C337 308 353 286 351.86 266.65H325.2Z" fill="#263238"/>
<path d="M341.83 398.21H359.79L358.59 392.91H339.34L341.83 398.21Z" fill="#00A688"/>
<path opacity="0.2" d="M341.83 398.21H359.79L358.59 392.91H339.34L341.83 398.21Z" fill="black"/>
<path d="M298.64 398.21H316.42L316.13 393.17L297.64 392.91L298.64 398.21Z" fill="#00A688"/>
<path opacity="0.2" d="M298.64 398.21H316.42L316.13 393.17L297.64 392.91L298.64 398.21Z" fill="black"/>
<path d="M324.77 170.64C324.69 171.26 324.3 171.69 323.9 171.64C323.5 171.59 323.22 171.01 323.3 170.4C323.38 169.79 323.77 169.4 324.17 169.4C324.57 169.4 324.84 170 324.77 170.64Z" fill="#263238"/>
<path d="M317.77 169.38C317.69 169.99 317.3 170.43 316.9 170.38C316.5 170.33 316.22 169.75 316.3 169.13C316.38 168.51 316.77 168.08 317.17 168.13C317.57 168.18 317.84 168.77 317.77 169.38Z" fill="#263238"/>
<path d="M320 170.09C319.035 171.826 317.818 173.41 316.39 174.79C316.768 175.165 317.221 175.456 317.719 175.644C318.217 175.831 318.749 175.912 319.28 175.88L320 170.09Z" fill="#ED847E"/>
<path d="M320.83 177.9C321.638 178.079 322.477 178.055 323.273 177.83C324.068 177.604 324.796 177.185 325.39 176.61C325.421 176.574 325.438 176.528 325.438 176.48C325.438 176.432 325.421 176.386 325.39 176.35C325.355 176.317 325.308 176.299 325.26 176.299C325.212 176.299 325.165 176.317 325.13 176.35C324.573 176.877 323.895 177.26 323.156 177.466C322.417 177.671 321.639 177.693 320.89 177.53C320.868 177.524 320.844 177.523 320.821 177.527C320.798 177.531 320.777 177.54 320.758 177.554C320.739 177.567 320.723 177.584 320.711 177.604C320.699 177.624 320.692 177.647 320.69 177.67C320.683 177.719 320.693 177.768 320.718 177.81C320.744 177.852 320.783 177.884 320.83 177.9Z" fill="#263238"/>
<path d="M327.16 168.79C327.231 168.819 327.31 168.819 327.38 168.79C327.422 168.768 327.46 168.738 327.49 168.701C327.52 168.664 327.543 168.621 327.556 168.575C327.569 168.529 327.573 168.481 327.566 168.434C327.56 168.387 327.544 168.341 327.52 168.3C327.241 167.776 326.845 167.323 326.363 166.977C325.881 166.63 325.326 166.398 324.74 166.3C324.694 166.293 324.646 166.296 324.601 166.308C324.555 166.321 324.513 166.343 324.477 166.374C324.441 166.404 324.412 166.442 324.392 166.484C324.372 166.527 324.361 166.573 324.36 166.62C324.354 166.718 324.387 166.814 324.45 166.888C324.513 166.963 324.603 167.01 324.7 167.02C325.163 167.109 325.6 167.302 325.977 167.585C326.355 167.867 326.663 168.231 326.88 168.65C326.952 168.731 327.052 168.781 327.16 168.79Z" fill="#263238"/>
<path d="M315 166.45C315.067 166.461 315.135 166.453 315.197 166.427C315.259 166.4 315.312 166.356 315.35 166.3C315.591 165.921 315.924 165.608 316.317 165.39C316.709 165.171 317.151 165.055 317.6 165.05C317.648 165.053 317.695 165.046 317.74 165.029C317.785 165.013 317.826 164.988 317.861 164.955C317.895 164.922 317.923 164.883 317.942 164.839C317.96 164.795 317.97 164.748 317.97 164.7C317.968 164.602 317.928 164.508 317.86 164.437C317.791 164.367 317.698 164.325 317.6 164.32C317.03 164.318 316.469 164.459 315.968 164.73C315.466 165 315.041 165.392 314.73 165.87C314.68 165.953 314.663 166.052 314.684 166.147C314.704 166.242 314.76 166.325 314.84 166.38C314.886 166.417 314.941 166.441 315 166.45Z" fill="#263238"/>
<path d="M354.71 207.25C354.81 213.364 354.583 219.48 354.03 225.57C353.75 228.62 353.41 231.67 352.9 234.74C352.68 236.27 352.37 237.82 352.09 239.36C351.81 240.9 351.41 242.46 350.95 244.03L350.64 245.21L350.56 245.45L350.45 245.79C350.383 246.009 350.3 246.223 350.2 246.43C350.026 246.836 349.818 247.228 349.58 247.6C348.798 248.811 347.777 249.848 346.58 250.65C344.9 251.753 343.058 252.587 341.12 253.12C337.95 253.983 334.699 254.519 331.42 254.72C325.277 255.117 319.111 254.943 313 254.2L313.11 248.4C315.96 248.08 318.9 247.76 321.77 247.33C324.64 246.9 327.49 246.49 330.25 245.91C332.878 245.414 335.457 244.692 337.96 243.75C338.874 243.42 339.728 242.944 340.49 242.34C340.7 242.15 340.74 242.02 340.59 242.19L340.47 242.37L340.42 242.49V242.56L340.62 241.56C341.15 238.92 341.51 236.12 341.8 233.3C342.09 230.48 342.3 227.61 342.46 224.73C342.79 218.99 342.95 213.09 343.02 207.4L354.71 207.25Z" fill="#FFC3BD"/>
<path d="M355.47 203.11C360.39 211.4 356.89 232.24 356.89 232.24L339.6 232.06C339.6 232.06 338.22 217.88 340.09 208.4C342 198.6 351.69 196.72 355.47 203.11Z" fill="#00A688"/>
<path opacity="0.2" d="M355.47 203.11C360.39 211.4 356.89 232.24 356.89 232.24L339.6 232.06C339.6 232.06 338.22 217.88 340.09 208.4C342 198.6 351.69 196.72 355.47 203.11Z" fill="white"/>
<path d="M347.91 408.81C348.585 408.793 349.256 408.699 349.91 408.53C349.944 408.52 349.974 408.501 349.998 408.475C350.021 408.448 350.035 408.415 350.04 408.38C350.043 408.345 350.037 408.309 350.021 408.277C350.005 408.245 349.98 408.219 349.95 408.2C349.66 408.02 347.08 406.49 346.25 406.93C346.156 406.979 346.078 407.054 346.027 407.146C345.975 407.239 345.952 407.344 345.96 407.45C345.946 407.64 345.979 407.83 346.056 408.005C346.133 408.179 346.251 408.332 346.4 408.45C346.849 408.735 347.381 408.861 347.91 408.81ZM349.37 408.27C348.469 408.573 347.486 408.523 346.62 408.13C346.521 408.052 346.444 407.951 346.393 407.836C346.342 407.721 346.321 407.595 346.33 407.47C346.326 407.428 346.333 407.385 346.35 407.347C346.368 407.308 346.395 407.275 346.43 407.25C346.86 407 348.32 407.69 349.37 408.27Z" fill="#00A688"/>
<path d="M349.87 408.53C349.903 408.54 349.937 408.54 349.97 408.53C349.996 408.513 350.016 408.489 350.029 408.46C350.041 408.432 350.045 408.401 350.04 408.37C350.04 408.27 349.71 406.04 348.77 405.31C348.662 405.218 348.536 405.15 348.4 405.11C348.264 405.07 348.121 405.06 347.98 405.08C347.847 405.079 347.718 405.125 347.617 405.212C347.516 405.298 347.449 405.418 347.43 405.55C347.31 406.42 348.96 408.11 349.78 408.55C349.811 408.553 349.843 408.546 349.87 408.53ZM348.13 405.4C348.287 405.406 348.437 405.462 348.56 405.56C349.134 406.25 349.499 407.089 349.61 407.98C348.78 407.38 347.72 406.1 347.79 405.59C347.79 405.59 347.79 405.44 348.05 405.41L348.13 405.4Z" fill="#00A688"/>
<path d="M302.91 408.81C303.72 408.793 304.527 408.699 305.32 408.53C305.357 408.524 305.39 408.506 305.415 408.479C305.441 408.451 305.456 408.417 305.46 408.38C305.462 408.341 305.453 408.302 305.433 408.269C305.414 408.235 305.385 408.208 305.35 408.19C304.99 408.01 301.79 406.43 300.88 406.96C300.796 407.008 300.727 407.079 300.679 407.163C300.632 407.247 300.608 407.343 300.61 407.44C300.601 407.609 300.632 407.777 300.699 407.931C300.767 408.086 300.87 408.222 301 408.33C301.565 408.7 302.238 408.87 302.91 408.81ZM304.69 408.27C303.01 408.55 301.69 408.48 301.23 408.06C301.145 407.988 301.078 407.897 301.035 407.795C300.991 407.692 300.973 407.581 300.98 407.47C300.977 407.432 300.985 407.394 301.002 407.36C301.02 407.327 301.047 407.299 301.08 407.28C301.57 407 303.38 407.66 304.69 408.27Z" fill="#00A688"/>
<path d="M305.28 408.53C305.316 408.54 305.354 408.54 305.39 408.53C305.416 408.511 305.436 408.485 305.448 408.455C305.461 408.425 305.465 408.392 305.46 408.36C305.46 408.28 305.11 406.2 304.08 405.36C303.8 405.129 303.442 405.014 303.08 405.04C302.58 405.1 302.45 405.35 302.43 405.56C302.34 406.43 304.28 408.1 305.24 408.56L305.28 408.53ZM303.22 405.4C303.458 405.4 303.689 405.485 303.87 405.64C304.463 406.304 304.855 407.122 305 408C304 407.43 302.68 406.12 302.73 405.59C302.73 405.59 302.73 405.42 303.08 405.39L303.22 405.4Z" fill="#00A688"/>
<path d="M286.23 217.46C284.805 212.569 282.064 208.163 278.305 204.724C274.547 201.285 269.917 198.944 264.919 197.957C259.921 196.97 254.748 197.374 249.964 199.127C245.181 200.879 240.97 203.912 237.793 207.894C234.615 211.876 232.593 216.654 231.946 221.707C231.299 226.76 232.052 231.894 234.124 236.548C236.195 241.203 239.505 245.198 243.693 248.099C247.881 251.001 252.785 252.696 257.87 253H257.92C258.39 253 258.86 253 259.33 253C276.03 253.59 283.41 256.42 283.41 256.42L289.34 248.99L295.27 241.55C295.27 241.55 290.88 234.99 286.6 218.84C286.49 218.38 286.37 217.93 286.24 217.47C286.237 217.467 286.233 217.463 286.23 217.46Z" fill="#F99942"/>
<path d="M293.62 250.09C293.597 250.114 293.569 250.133 293.538 250.147C293.507 250.16 293.474 250.166 293.44 250.166C293.407 250.166 293.373 250.16 293.342 250.147C293.311 250.133 293.283 250.114 293.26 250.09L274.4 233.55C274.452 233.697 274.512 233.84 274.58 233.98C274.77 234.39 275.01 234.91 274.68 235.33C274.35 235.75 273.78 235.63 273.34 235.54C272.9 235.45 272.63 235.4 272.5 235.54C272.37 235.68 272.5 235.96 272.65 236.36C272.8 236.76 273.09 237.29 272.75 237.72C272.41 238.15 271.85 238.02 271.41 237.92C271.259 237.883 271.105 237.856 270.95 237.84L291.26 252.57C291.292 252.584 291.32 252.605 291.344 252.631C291.367 252.658 291.385 252.688 291.395 252.722C291.406 252.755 291.409 252.79 291.406 252.825C291.402 252.86 291.391 252.893 291.373 252.923C291.356 252.954 291.332 252.98 291.304 253C291.275 253.021 291.243 253.035 291.209 253.042C291.174 253.05 291.139 253.05 291.105 253.042C291.071 253.035 291.038 253.021 291.01 253L270.24 238C270.21 237.981 270.184 237.956 270.163 237.927C270.142 237.898 270.128 237.865 270.12 237.83C270.115 237.794 270.118 237.758 270.128 237.723C270.139 237.689 270.156 237.657 270.18 237.63C270.51 237.21 271.07 237.32 271.51 237.42C271.95 237.52 272.22 237.56 272.35 237.42C272.48 237.28 272.35 237 272.2 236.6C272.05 236.2 271.76 235.67 272.1 235.24C272.44 234.81 273 234.94 273.44 235.04C273.88 235.14 274.15 235.17 274.28 235.04C274.41 234.91 274.28 234.61 274.13 234.21C273.98 233.81 273.69 233.28 274.03 232.86C274.054 232.833 274.083 232.811 274.116 232.795C274.148 232.78 274.184 232.772 274.22 232.772C274.256 232.772 274.292 232.78 274.325 232.795C274.357 232.811 274.387 232.833 274.41 232.86L293.63 249.79C293.661 249.834 293.677 249.888 293.675 249.942C293.673 249.996 293.654 250.048 293.62 250.09Z" fill="white"/>
<path d="M283.334 256.536L295.241 241.615L300.877 246.112C301.288 246.439 301.63 246.845 301.883 247.305C302.137 247.764 302.298 248.27 302.357 248.792C302.416 249.314 302.371 249.842 302.225 250.347C302.08 250.852 301.836 251.323 301.508 251.733L294.348 260.706C293.751 261.455 292.881 261.935 291.929 262.042C290.978 262.149 290.023 261.874 289.274 261.276L283.334 256.536Z" fill="#263238"/>
<path d="M296.08 258.5L297.37 259C297.531 259.064 297.706 259.078 297.875 259.043C298.044 259.007 298.199 258.923 298.32 258.8L300.85 255.63C300.952 255.483 301.006 255.309 301.006 255.13C301.006 254.951 300.952 254.777 300.85 254.63L300.08 253.48L296.08 258.5Z" fill="#00A688"/>
<path d="M314.49 248.57L307.19 245.75L308.27 255.75C308.27 255.75 314.94 256.75 315.69 253.13L314.49 248.57Z" fill="#FFC3BD"/>
<path d="M299.29 247.75L300.6 255.95L308.27 255.79L307.19 245.75L299.29 247.75Z" fill="#FFC3BD"/>
<path d="M161.26 408.14H169.19L169.97 389.76H162.03L161.26 408.14Z" fill="#FF8B7B"/>
<path d="M170.12 407.22H160.45C160.298 407.214 160.15 407.267 160.037 407.368C159.923 407.468 159.853 407.609 159.84 407.76L159.1 414.81C159.089 414.991 159.115 415.173 159.177 415.344C159.239 415.514 159.335 415.67 159.46 415.803C159.585 415.935 159.735 416.04 159.902 416.112C160.069 416.183 160.248 416.22 160.43 416.22C163.53 416.17 165.78 415.99 169.7 415.99C172.11 415.99 179.41 416.24 182.7 416.24C185.99 416.24 186.08 412.95 184.7 412.65C178.43 411.31 173.61 409.47 171.45 407.71C171.075 407.4 170.606 407.227 170.12 407.22Z" fill="#263238"/>
<path opacity="0.2" d="M162.03 389.77H169.97L169.56 399.24H161.63L162.03 389.77Z" fill="black"/>
<path d="M187.92 160.33H183C185.07 162.03 193 207.74 190.69 229.7C195.48 230 197.14 228.33 197.14 228.33C197.14 228.33 197.22 194.11 187.92 160.33Z" fill="white"/>
<path d="M200.61 408.14H208.55L209.32 389.76H201.39L200.61 408.14Z" fill="#FF8B7B"/>
<path opacity="0.2" d="M201.39 389.77H209.32L208.92 399.24H200.98L201.39 389.77Z" fill="black"/>
<path d="M213.34 396L199.17 395.88C199.17 395.88 200.37 344.15 198.31 319.52C197.68 312.02 197.54 301.63 195.17 290.45C192.17 276.36 188.39 261.11 185.29 249.18C182.02 236.6 179.52 227.7 179.52 227.7L207.37 226.05C207.37 226.05 219.95 292.05 220.51 316.23C221.1 341.44 213.34 396 213.34 396Z" fill="#00A688"/>
<path d="M209.48 407.22H199.81C199.657 407.214 199.508 407.267 199.393 407.367C199.278 407.467 199.205 407.608 199.19 407.76L198.46 414.81C198.448 414.991 198.473 415.172 198.533 415.343C198.594 415.514 198.689 415.67 198.813 415.802C198.937 415.934 199.087 416.04 199.253 416.112C199.419 416.184 199.599 416.22 199.78 416.22C202.89 416.17 205.14 415.99 209.06 415.99C211.47 415.99 220.18 416.24 223.51 416.24C226.84 416.24 226.89 412.95 225.51 412.65C219.24 411.31 213.01 409.47 210.84 407.71C210.458 407.393 209.977 407.22 209.48 407.22Z" fill="#263238"/>
<path d="M214.5 397.72H196.28V392.61L215.34 392.28L214.5 397.72Z" fill="#263238"/>
<path d="M212.27 408.6C212.795 408.646 213.319 408.504 213.75 408.2C213.882 408.074 213.977 407.914 214.025 407.738C214.072 407.561 214.071 407.375 214.02 407.2C214.005 407.086 213.962 406.977 213.893 406.885C213.825 406.792 213.735 406.718 213.63 406.67C212.7 406.21 210.33 407.79 210.06 407.97C210.031 407.991 210.01 408.021 209.999 408.055C209.988 408.089 209.989 408.126 210 408.16C210.011 408.197 210.032 408.23 210.06 408.256C210.088 408.283 210.123 408.301 210.16 408.31C210.851 408.482 211.558 408.579 212.27 408.6ZM213.27 406.96C213.356 406.959 213.441 406.976 213.52 407.01C213.561 407.031 213.597 407.063 213.623 407.101C213.649 407.139 213.665 407.184 213.67 407.23C213.702 407.349 213.702 407.475 213.67 407.594C213.639 407.713 213.576 407.822 213.49 407.91C213.1 408.28 212.07 408.33 210.69 408.06C211.461 407.533 212.333 407.173 213.25 407L213.27 406.96Z" fill="#00A688"/>
<path d="M210.2 408.33H210.29C211.06 407.89 212.44 406.15 212.17 405.26C212.123 405.121 212.035 404.999 211.917 404.912C211.799 404.824 211.657 404.775 211.51 404.77C211.372 404.754 211.232 404.768 211.1 404.809C210.967 404.85 210.845 404.919 210.74 405.01C209.91 405.77 209.99 408.01 209.99 408.15C209.989 408.186 209.999 408.222 210.019 408.252C210.038 408.282 210.067 408.306 210.1 408.32C210.131 408.336 210.167 408.339 210.2 408.33ZM211.42 405.11H211.51C211.76 405.11 211.79 405.26 211.81 405.3C211.97 405.83 211.11 407.14 210.37 407.76C210.312 406.883 210.537 406.01 211.01 405.27C211.121 405.166 211.268 405.108 211.42 405.11Z" fill="#00A688"/>
<path opacity="0.2" d="M195.17 290.49C192.17 276.4 188.39 261.15 185.29 249.22L188.29 243.03C195.06 251.3 196.65 276.71 195.17 290.49Z" fill="black"/>
<path d="M192.34 227C192.34 227 188.62 294.89 185.03 317.86C181.1 343.01 173.43 397.43 173.43 397.43H158.9C158.9 397.43 158.57 345.87 161.79 321.26C165.46 293.26 165.01 228.62 165.01 228.62L192.34 227Z" fill="#00A688"/>
<path d="M175.14 397.72H156.92V392.61L175.98 392.28L175.14 397.72Z" fill="#263238"/>
<path d="M172.91 408.6C173.435 408.646 173.959 408.504 174.39 408.2C174.522 408.074 174.617 407.914 174.665 407.738C174.712 407.561 174.711 407.375 174.66 407.2C174.645 407.087 174.603 406.98 174.537 406.887C174.47 406.795 174.382 406.72 174.28 406.67C173.35 406.21 170.97 407.79 170.7 407.97C170.671 407.991 170.65 408.021 170.639 408.055C170.628 408.089 170.629 408.126 170.64 408.16C170.651 408.197 170.672 408.23 170.7 408.256C170.728 408.283 170.763 408.301 170.8 408.31C171.491 408.481 172.198 408.579 172.91 408.6ZM173.91 406.96C173.996 406.958 174.081 406.975 174.16 407.01C174.203 407.03 174.239 407.061 174.265 407.099C174.292 407.138 174.307 407.183 174.31 407.23C174.342 407.349 174.342 407.475 174.31 407.594C174.279 407.713 174.216 407.822 174.13 407.91C173.74 408.28 172.71 408.33 171.33 408.06C172.102 407.535 172.973 407.174 173.89 407L173.91 406.96Z" fill="#00A688"/>
<path d="M170.84 408.33H170.93C171.7 407.89 173.08 406.15 172.81 405.26C172.764 405.122 172.677 405.002 172.561 404.914C172.445 404.827 172.305 404.777 172.16 404.77C172.02 404.753 171.879 404.765 171.744 404.807C171.61 404.848 171.486 404.917 171.38 405.01C170.55 405.77 170.63 408.01 170.63 408.15C170.634 408.185 170.646 408.218 170.665 408.248C170.684 408.277 170.71 408.302 170.74 408.32C170.771 408.336 170.807 408.339 170.84 408.33ZM172.07 405.11H172.15C172.4 405.11 172.44 405.26 172.45 405.3C172.61 405.83 171.75 407.14 171.01 407.76C170.951 406.881 171.179 406.008 171.66 405.27C171.714 405.217 171.779 405.176 171.849 405.149C171.919 405.121 171.994 405.108 172.07 405.11Z" fill="#00A688"/>
<path d="M207.58 162.17C211.11 166.3 214.82 170.53 218.52 174.59C220.38 176.59 222.26 178.65 224.16 180.59C226.06 182.53 227.99 184.45 229.94 186.25L231.41 187.58L232.89 188.83L233.48 189.33L233.88 189.63C234.164 189.81 234.461 189.967 234.77 190.1C236.532 190.667 238.422 190.695 240.2 190.18C244.63 189.18 249.57 186.44 253.88 183.55L258 187.86C257.014 189.039 255.963 190.16 254.85 191.22C253.753 192.28 252.602 193.281 251.4 194.22C250.169 195.19 248.88 196.085 247.54 196.9C246.135 197.765 244.656 198.505 243.12 199.11C241.449 199.78 239.703 200.243 237.92 200.49C235.917 200.743 233.885 200.635 231.92 200.17C230.882 199.911 229.876 199.539 228.92 199.06C228.433 198.819 227.959 198.552 227.5 198.26L226.86 197.84L226.39 197.5L224.53 196.14L222.75 194.74C218.215 191.001 213.907 186.993 209.85 182.74C205.85 178.54 202.04 174.3 198.36 169.74L207.58 162.17Z" fill="#FF8B7B"/>
<path d="M193.85 165.17C193.1 172.72 211.59 189.41 211.59 189.41L224.69 177C220.697 171.329 216.107 166.103 211 161.41C203.44 154.78 194.67 156.89 193.85 165.17Z" fill="#263238"/>
<path opacity="0.2" d="M205.24 171.24C209.72 171.6 213.61 182.36 212.87 188.24L211.59 189.45C207.163 185.4 203.042 181.028 199.26 176.37C199 172.47 200.38 170.85 205.24 171.24Z" fill="black"/>
<path d="M209.31 229.08C205.58 230.67 200.31 230.97 195.68 231.25C195.84 223.82 195.47 189.56 187.4 160.25H183.03C185.03 161.88 192.81 209.14 191.33 231.92C180.52 232.56 166.53 231.32 163.87 228.75C164.627 220.292 164.844 211.795 164.52 203.31C164.29 197.99 163.91 192.12 163.22 185.96C162.286 177.136 160.691 168.395 158.45 159.81C158.45 159.81 163.45 158.48 169.13 157.62C170.25 157.45 171.4 157.3 172.53 157.18C178.504 156.478 184.514 156.121 190.53 156.11C191.27 156.11 192 156.17 192.72 156.22C196.114 156.467 199.491 156.921 202.83 157.58C202.83 157.58 212.87 184.91 209.31 229.08Z" fill="#263238"/>
<path d="M173.11 136.87C174.59 142.6 176.35 153.15 172.53 157.26C174.425 159.013 176.674 160.34 179.126 161.15C181.577 161.961 184.173 162.237 186.74 161.96C191.74 161.55 191.74 158.05 190.54 156.19C183.98 155.03 183.87 150.19 184.73 145.66L173.11 136.87Z" fill="#FF8B7B"/>
<path d="M169.69 157.62C169.69 157.62 171.18 155.14 172.89 154.62C176.49 158.32 184.76 160.05 184.76 160.05C184 162.15 185.18 164.55 185.85 165.49C185.85 165.54 172.92 162.42 169.69 157.62Z" fill="#263238"/>
<g opacity="0.2">
<path opacity="0.2" d="M169.69 157.62C169.69 157.62 171.18 155.14 172.89 154.62C176.49 158.32 184.76 160.05 184.76 160.05C184 162.15 185.18 164.55 185.85 165.49C185.85 165.54 172.92 162.42 169.69 157.62Z" fill="white"/>
</g>
<path d="M192 155.88C190.689 155.518 189.351 155.258 188 155.1C189.15 158.96 186.8 159.71 186.8 159.71C187.665 161.477 188.012 163.454 187.8 165.41C187.8 165.41 194.08 161.46 192 155.88Z" fill="#263238"/>
<g opacity="0.2">
<path opacity="0.2" d="M192 155.88C190.689 155.518 189.351 155.258 188 155.1C189.15 158.96 186.8 159.71 186.8 159.71C187.665 161.477 188.012 163.454 187.8 165.41C187.8 165.41 194.08 161.46 192 155.88Z" fill="white"/>
</g>
<path opacity="0.2" d="M177.85 140.46L184.72 145.65C184.505 146.714 184.381 147.795 184.35 148.88C181.86 148.67 178.35 146.16 177.9 143.59C177.689 142.559 177.672 141.497 177.85 140.46Z" fill="black"/>
<path d="M193 117.57C198.73 119.86 196.32 133.8 191.86 135.49C187.4 137.18 182.24 113.29 193 117.57Z" fill="#263238"/>
<path d="M173.51 126.57C173.3 134.44 172.78 139.04 176.38 143.41C181.8 149.97 191.78 147.24 194.38 139.59C196.68 132.7 196.64 120.99 189.25 117.2C187.623 116.344 185.804 115.92 183.967 115.968C182.129 116.017 180.335 116.536 178.755 117.476C177.176 118.416 175.864 119.746 174.946 121.338C174.027 122.931 173.533 124.732 173.51 126.57Z" fill="#FF8B7B"/>
<path d="M173.38 134.29C176.29 137.09 182.57 117.92 175.11 116.23C162.47 113.36 166.52 127.68 173.38 134.29Z" fill="#263238"/>
<path d="M174.48 117.54C176.31 117.48 205.48 134.97 204.4 113.33C202.76 114.21 197.11 115.02 190.95 111.05C183.3 106.14 172.69 106.46 170.66 111.77C169 116.15 174.48 117.54 174.48 117.54Z" fill="#263238"/>
<path d="M169.21 134.89C170.118 136.65 171.686 137.98 173.57 138.59C176.08 139.38 177.41 137.16 176.78 134.75C176.22 132.59 174.24 129.57 171.69 129.83C169.14 130.09 168.13 132.72 169.21 134.89Z" fill="#FF8B7B"/>
<path d="M185.19 129.81C185.14 130.44 185.43 130.99 185.85 131.03C186.27 131.07 186.65 130.58 186.7 129.94C186.75 129.3 186.47 128.76 186.05 128.72C185.63 128.68 185.25 129.17 185.19 129.81Z" fill="#263238"/>
<path d="M192.4 130.44C192.34 131.08 192.63 131.62 193.05 131.66C193.47 131.7 193.85 131.21 193.91 130.57C193.97 129.93 193.67 129.39 193.25 129.35C192.83 129.31 192.45 129.8 192.4 130.44Z" fill="#263238"/>
<path d="M190.08 130.56C190.667 132.575 191.528 134.5 192.64 136.28C192.178 136.552 191.662 136.72 191.128 136.772C190.594 136.824 190.056 136.758 189.55 136.58L190.08 130.56Z" fill="#FF5652"/>
<path d="M186.71 138.05C186.984 138.111 187.261 138.154 187.54 138.18C187.588 138.181 187.635 138.164 187.672 138.132C187.709 138.101 187.733 138.058 187.74 138.01C187.743 137.985 187.741 137.96 187.734 137.936C187.726 137.912 187.715 137.889 187.699 137.87C187.683 137.85 187.664 137.834 187.641 137.822C187.619 137.81 187.595 137.802 187.57 137.8C186.776 137.749 186.006 137.511 185.321 137.106C184.637 136.701 184.057 136.141 183.63 135.47C183.618 135.447 183.602 135.427 183.583 135.411C183.564 135.395 183.541 135.383 183.517 135.375C183.493 135.368 183.467 135.365 183.442 135.368C183.417 135.37 183.392 135.378 183.37 135.39C183.327 135.413 183.295 135.452 183.28 135.499C183.265 135.546 183.269 135.596 183.29 135.64C183.667 136.253 184.164 136.782 184.752 137.197C185.34 137.611 186.006 137.901 186.71 138.05Z" fill="#263238"/>
<path d="M183.18 127.28C183.244 127.294 183.311 127.291 183.374 127.271C183.437 127.252 183.494 127.217 183.54 127.17C183.851 126.819 184.24 126.545 184.676 126.371C185.112 126.198 185.583 126.129 186.05 126.17C186.147 126.182 186.246 126.157 186.326 126.099C186.405 126.042 186.461 125.956 186.48 125.86C186.494 125.761 186.469 125.66 186.409 125.579C186.349 125.498 186.259 125.445 186.16 125.43C185.566 125.371 184.967 125.457 184.413 125.68C183.859 125.902 183.367 126.256 182.98 126.71C182.945 126.744 182.916 126.786 182.897 126.831C182.878 126.877 182.868 126.926 182.868 126.975C182.868 127.024 182.878 127.073 182.897 127.119C182.916 127.164 182.945 127.206 182.98 127.24C183.041 127.273 183.111 127.287 183.18 127.28Z" fill="#263238"/>
<path d="M195.72 128.24C195.792 128.26 195.868 128.26 195.94 128.24C195.987 128.222 196.029 128.196 196.065 128.161C196.101 128.127 196.13 128.085 196.149 128.04C196.169 127.994 196.179 127.945 196.179 127.895C196.179 127.845 196.169 127.796 196.15 127.75C195.948 127.19 195.616 126.686 195.182 126.279C194.747 125.872 194.222 125.574 193.65 125.41C193.552 125.392 193.451 125.412 193.367 125.466C193.284 125.52 193.224 125.603 193.2 125.7C193.182 125.797 193.202 125.896 193.256 125.978C193.31 126.06 193.394 126.118 193.49 126.14C193.951 126.267 194.374 126.505 194.723 126.832C195.071 127.16 195.335 127.568 195.49 128.02C195.511 128.07 195.543 128.116 195.582 128.154C195.622 128.192 195.669 128.221 195.72 128.24Z" fill="#263238"/>
<path d="M165.24 167.27L165.75 169.06L166.32 170.96C166.7 172.23 167.12 173.49 167.57 174.74C168.45 177.24 169.4 179.74 170.45 182.1C172.344 186.706 174.957 190.982 178.19 194.77L178.49 195.08L178.62 195.23C178.57 195.23 178.56 195.23 178.62 195.23C178.838 195.385 179.082 195.5 179.34 195.57C180.313 195.873 181.322 196.052 182.34 196.1C184.89 196.245 187.448 196.188 189.99 195.93C192.65 195.7 195.37 195.34 198.09 194.93C200.81 194.52 203.59 194.05 206.27 193.58L208.11 199.24C202.744 201.652 197.162 203.554 191.44 204.92C188.412 205.647 185.321 206.086 182.21 206.23C180.398 206.313 178.582 206.182 176.8 205.84C175.674 205.603 174.583 205.227 173.55 204.72C172.92 204.404 172.324 204.025 171.77 203.59L171.33 203.22L171 203L170.53 202.58C168.141 200.365 166.023 197.874 164.22 195.16C162.481 192.613 160.936 189.939 159.6 187.16C158.272 184.447 157.103 181.659 156.1 178.81C155.6 177.39 155.1 175.97 154.69 174.53C154.48 173.81 154.26 173.09 154.06 172.35C153.86 171.61 153.7 170.93 153.5 170.05L165.24 167.27Z" fill="#FF8B7B"/>
<path d="M153 165.06C149.25 171.66 157.82 192.32 157.82 192.32L176.35 186.14C174.812 179.647 172.686 173.308 170 167.2C165.59 157.48 157.48 157.07 153 165.06Z" fill="#263238"/>
<path d="M205.66 193.71L214.75 191.85L211.59 201.48C211.59 201.48 204.59 200.74 204.59 196.99L205.66 193.71Z" fill="#FF8B7B"/>
<path d="M220.42 195.28L217.44 203.11L211.59 201.47L214.75 191.85L220.42 195.28Z" fill="#FF8B7B"/>
<path d="M253.92 183.47L260.72 179.15L262.09 189.15C262.09 189.15 255.49 191.54 253.83 188.15L253.92 183.47Z" fill="#FF8B7B"/>
<path d="M267.32 179.75L268.07 188.1L262.1 189.19L260.72 179.15L267.32 179.75Z" fill="#FF8B7B"/>
</svg>
