<svg width="200" height="172" viewBox="0 0 200 172" fill="none" xmlns="http://www.w3.org/2000/svg">
<path d="M167.697 51.2579C144.094 25.8934 85.0702 4.91166 51.3191 15.3053C19.5751 25.0947 -0.392882 64.2269 23.323 90.4157C50.633 120.567 97.6807 133.029 136.311 127.735C171.562 122.902 196.379 82.0803 167.697 51.2579Z" fill="#F99942"/>
<path opacity="0.9" d="M167.697 51.2579C144.094 25.8934 85.0702 4.91166 51.3191 15.3053C19.5751 25.0947 -0.392882 64.2269 23.323 90.4157C50.633 120.567 97.6807 133.029 136.311 127.735C171.562 122.902 196.379 82.0803 167.697 51.2579Z" fill="white"/>
<path d="M99.9999 171.911C154.826 171.911 199.272 169.316 199.272 166.115C199.272 162.914 154.826 160.319 99.9999 160.319C45.1737 160.319 0.728271 162.914 0.728271 166.115C0.728271 169.316 45.1737 171.911 99.9999 171.911Z" fill="#F5F5F5"/>
<g opacity="0.2">
<path opacity="0.3" d="M156.694 161.829L124.084 101.557L91.4751 161.829H156.694Z" fill="#F99942"/>
<path opacity="0.3" d="M156.694 59.8646L124.084 120.132L91.4751 59.8646H156.694Z" fill="#F99942"/>
</g>
<path d="M130.059 95.4487L125.288 104.265C125.171 104.482 124.997 104.664 124.785 104.79C124.573 104.917 124.331 104.983 124.084 104.983C123.838 104.983 123.596 104.917 123.384 104.79C123.172 104.664 122.998 104.482 122.881 104.265L118.109 95.4487C117.679 94.6517 117.463 93.7567 117.483 92.8513C117.503 91.9459 117.758 91.0612 118.222 90.2838C118.687 89.5064 119.345 88.8631 120.133 88.4168C120.921 87.9705 121.812 87.7365 122.717 87.7379H125.477C126.381 87.741 127.268 87.9781 128.052 88.4262C128.837 88.8743 129.492 89.5181 129.953 90.2948C130.415 91.0714 130.667 91.9544 130.686 92.8577C130.704 93.761 130.489 94.6536 130.059 95.4487Z" fill="#F99942"/>
<path d="M124.602 146.613L139.424 152.706C139.713 152.828 139.952 153.045 140.099 153.322C140.247 153.599 140.295 153.919 140.235 154.227C140.175 154.535 140.01 154.813 139.769 155.014C139.529 155.215 139.226 155.328 138.912 155.332H109.283C108.969 155.328 108.666 155.215 108.425 155.014C108.184 154.813 108.02 154.535 107.96 154.227C107.9 153.919 107.948 153.599 108.095 153.322C108.243 153.045 108.481 152.828 108.771 152.706L123.552 146.613C123.718 146.543 123.897 146.507 124.077 146.507C124.257 146.507 124.435 146.543 124.602 146.613Z" fill="#F99942"/>
<path d="M124.085 135.021C125.134 135.021 125.984 134.171 125.984 133.122C125.984 132.072 125.134 131.222 124.085 131.222C123.036 131.222 122.185 132.072 122.185 133.122C122.185 134.171 123.036 135.021 124.085 135.021Z" fill="#F99942"/>
<path d="M124.085 114.26C124.625 114.26 125.063 113.822 125.063 113.282C125.063 112.742 124.625 112.304 124.085 112.304C123.545 112.304 123.107 112.742 123.107 113.282C123.107 113.822 123.545 114.26 124.085 114.26Z" fill="#F99942"/>
<path d="M124.084 123.849C124.698 123.849 125.195 123.352 125.195 122.738C125.195 122.125 124.698 121.627 124.084 121.627C123.471 121.627 122.973 122.125 122.973 122.738C122.973 123.352 123.471 123.849 124.084 123.849Z" fill="#F99942"/>
<path d="M156.53 158.855H91.639C90.8514 158.857 90.0969 159.172 89.5404 159.729C88.9839 160.287 88.6708 161.042 88.6694 161.829C88.6721 162.616 88.9859 163.37 89.5422 163.926C90.0985 164.483 90.8523 164.796 91.639 164.799H156.53C157.317 164.796 158.07 164.483 158.627 163.926C159.183 163.37 159.497 162.616 159.5 161.829C159.498 161.042 159.185 160.287 158.629 159.729C158.072 159.172 157.318 158.857 156.53 158.855Z" fill="#00A688"/>
<path d="M156.53 56.895H91.639C90.8523 56.8977 90.0985 57.2115 89.5422 57.7678C88.9859 58.3241 88.6721 59.0779 88.6694 59.8646C88.6721 60.6514 88.9859 61.4051 89.5422 61.9615C90.0985 62.5178 90.8523 62.8315 91.639 62.8342H156.53C157.317 62.8315 158.07 62.5178 158.627 61.9615C159.183 61.4051 159.497 60.6514 159.5 59.8646C159.497 59.0779 159.183 58.3241 158.627 57.7678C158.07 57.2115 157.317 56.8977 156.53 56.895Z" fill="#00A688"/>
<path d="M71.6504 160.708L68.0408 159.536L70.2833 151.021L73.8929 152.194L71.6504 160.708Z" fill="#FF8B7B"/>
<path d="M67.9844 159.054L72.0395 160.37C72.1079 160.391 72.1658 160.436 72.2012 160.499C72.2365 160.561 72.2464 160.634 72.2289 160.703L71.3841 163.98C71.33 164.149 71.2114 164.289 71.054 164.371C70.8967 164.452 70.7135 164.468 70.5444 164.415C69.1416 163.934 68.4964 163.632 66.7096 163.053C65.6088 162.695 61.994 161.763 60.4785 161.271C58.963 160.78 59.4904 159.295 60.1764 159.367C63.2484 159.689 66.0132 159.546 67.2932 159.075C67.515 158.992 67.7581 158.985 67.9844 159.054Z" fill="#263238"/>
<path opacity="0.2" d="M73.8929 152.199L70.2833 151.021L69.1262 155.414L72.7409 156.587L73.8929 152.199Z" fill="black"/>
<path d="M83.7592 66.0086C83.7592 66.0086 77.2824 95.9862 75.7617 106.764C74.0977 118.565 67.8462 154.006 67.8462 154.006L74.5483 155.859C74.5483 155.859 83.836 121.489 86.5496 110.015C89.4936 97.5581 97.3016 65.983 97.3016 65.983L83.7592 66.0086Z" fill="#00A688"/>
<path opacity="0.3" d="M91.767 75.8391C89.207 81.6451 87.9424 94.271 88.9357 100.082C90.7482 92.6326 92.9293 83.7751 94.6137 76.9603C94.0454 74.984 93.1034 72.808 91.767 75.8391Z" fill="black"/>
<path d="M74.7173 155.993L67.5391 154.016L67.6824 151.093L75.7618 153.883L74.7173 155.993Z" fill="#263238"/>
<path d="M66.4999 159.269C66.8338 159.367 67.177 159.429 67.5239 159.454C67.541 159.455 67.5581 159.451 67.5732 159.443C67.5883 159.435 67.6008 159.422 67.6093 159.408C67.6178 159.393 67.622 159.376 67.6214 159.358C67.6208 159.341 67.6154 159.325 67.6058 159.31C67.5136 159.193 66.72 158.164 66.2234 158.194C66.1662 158.197 66.1108 158.215 66.0623 158.245C66.0139 158.276 65.9741 158.318 65.9469 158.368C65.8956 158.443 65.8648 158.529 65.8576 158.619C65.8504 158.709 65.8671 158.799 65.906 158.88C66.0512 159.077 66.2618 159.215 66.4999 159.269ZM67.314 159.269C66.6279 159.188 66.1568 159.013 66.0442 158.793C66.0206 158.741 66.0115 158.684 66.0178 158.627C66.0241 158.57 66.0456 158.516 66.08 158.471C66.093 158.446 66.112 158.425 66.1353 158.41C66.1586 158.395 66.1854 158.386 66.2132 158.384C66.4794 158.353 66.9812 158.855 67.314 159.254V159.269Z" fill="#263238"/>
<path d="M67.4878 159.449H67.5288C67.5436 159.445 67.5575 159.439 67.5691 159.429C67.5807 159.419 67.5897 159.406 67.5953 159.392C67.5953 159.351 68.0305 158.338 67.7796 157.856C67.7485 157.796 67.7035 157.743 67.6484 157.703C67.5932 157.663 67.5295 157.637 67.4622 157.626C67.3895 157.604 67.3116 157.607 67.241 157.635C67.1704 157.663 67.1113 157.714 67.0731 157.78C66.8632 158.148 67.155 159.075 67.4468 159.408L67.4878 159.449ZM67.4878 157.826C67.5221 157.836 67.5539 157.852 67.5812 157.875C67.6086 157.898 67.6308 157.927 67.6465 157.959C67.7323 158.371 67.6839 158.8 67.5083 159.182C67.2604 158.799 67.1671 158.336 67.2472 157.887C67.2472 157.841 67.3188 157.79 67.4468 157.815L67.4878 157.826Z" fill="#263238"/>
<path d="M90.6509 37.5465C90.4563 38.0073 90.2925 38.3555 90.1133 38.7446C89.9341 39.1337 89.7395 39.4921 89.5501 39.8608C89.1712 40.6032 88.7718 41.3251 88.3571 42.047C87.5194 43.4966 86.5961 44.8952 85.5923 46.2352C84.5649 47.6209 83.4262 48.9206 82.1875 50.1213C80.8679 51.4202 79.3718 52.5268 77.7434 53.4083L77.6154 53.4749C77.4082 53.5819 77.1879 53.6611 76.96 53.7104C75.7939 53.9529 74.5861 53.9054 73.4426 53.5721C72.4925 53.2878 71.5888 52.867 70.7597 52.3229C69.3688 51.3876 68.1203 50.2563 67.0528 48.9641C66.0611 47.7858 65.1592 46.5347 64.3546 45.2214C63.56 43.9308 62.8535 42.588 62.24 41.2022C62.082 40.8357 62.0615 40.4245 62.1821 40.044C62.3028 39.6635 62.5566 39.3393 62.897 39.1309C63.2374 38.9224 63.6415 38.8437 64.0352 38.9091C64.429 38.9745 64.786 39.1797 65.0406 39.487L65.0918 39.5484C65.9366 40.5724 66.8531 41.663 67.7747 42.6563C68.6728 43.6453 69.6266 44.582 70.6317 45.462C71.52 46.2672 72.5076 46.9555 73.5706 47.51C73.9679 47.7144 74.3945 47.856 74.8352 47.9299C75.082 47.9757 75.3366 47.9545 75.5725 47.8684L74.7891 48.1705C75.8473 47.4571 76.8122 46.6143 77.6614 45.6617C78.5859 44.6234 79.4411 43.5253 80.2214 42.3747C81.0304 41.1971 81.7984 39.9632 82.5203 38.6934C82.889 38.0636 83.2422 37.4236 83.575 36.7734L84.087 35.8057C84.2458 35.4934 84.4198 35.135 84.5427 34.8841L84.5734 34.8124C84.9467 34.0248 85.614 33.415 86.4321 33.1141C87.2501 32.8132 88.1535 32.8453 88.9482 33.2034C89.7428 33.5615 90.3653 34.217 90.6817 35.0292C90.9982 35.8413 90.9835 36.7452 90.6406 37.5465H90.6509Z" fill="#263238"/>
<path opacity="0.3" d="M82.2796 44.4996C83.8872 40.2295 87.3023 40.1578 88.782 41.2893C88.6744 41.489 88.5618 41.6887 88.4492 41.8884C87.646 43.2862 86.7657 44.6382 85.8124 45.9383C84.8339 47.2758 83.7575 48.5388 82.5919 49.7168C82.2232 50.0804 81.8444 50.4388 81.4501 50.7869C81.3145 48.6571 81.5962 46.5213 82.2796 44.4996Z" fill="black"/>
<path d="M62.1119 41.4685L58.7839 41.5914L59.6134 38.033C60.7592 38.0898 61.8964 38.2613 63.0079 38.545C63.2103 38.6062 63.3954 38.7143 63.5483 38.8604C63.7011 39.0066 63.8174 39.1866 63.8877 39.3861C63.958 39.5855 63.9803 39.7987 63.9529 40.0084C63.9255 40.2181 63.8491 40.4183 63.7299 40.593C63.5498 40.8576 63.3089 41.0752 63.0274 41.2276C62.7459 41.3799 62.432 41.4625 62.1119 41.4685Z" fill="#FF8B7B"/>
<path d="M63.9755 38.463C63.6488 38.204 63.275 38.011 62.8747 37.8947C62.5982 39.3488 60.8267 41.8013 60.8267 41.8013H62.2142C62.3927 41.8018 62.5692 41.7631 62.7311 41.6879C62.893 41.6127 63.0364 41.5028 63.1511 41.3661L64.1239 40.1987C64.2305 40.0761 64.3113 39.9333 64.3617 39.7788C64.412 39.6243 64.4308 39.4613 64.4169 39.2995C64.4031 39.1376 64.3569 38.9801 64.281 38.8365C64.2052 38.6928 64.1013 38.5658 63.9755 38.463Z" fill="#00A688"/>
<path d="M56.2341 39.953L57.166 37.4442L59.6031 38.0381L58.7736 41.5914L56.2341 39.953Z" fill="#FF8B7B"/>
<path d="M98.0799 162.367H94.2859L94.1528 153.576H97.9468L98.0799 162.367Z" fill="#FF8B7B"/>
<path d="M94.0863 161.927H98.3513C98.3869 161.925 98.4225 161.931 98.4559 161.943C98.4894 161.956 98.52 161.975 98.5462 161.999C98.5723 162.023 98.5935 162.052 98.6083 162.085C98.6232 162.117 98.6315 162.152 98.6329 162.188L98.8377 165.562C98.8377 165.739 98.7679 165.91 98.6433 166.036C98.5188 166.163 98.3495 166.235 98.1721 166.238C96.6873 166.212 95.9807 166.125 94.076 166.125C92.924 166.125 89.0687 166.243 87.4764 166.243C85.884 166.243 85.9404 164.666 86.6008 164.523C89.6319 163.888 92.3352 162.987 93.4053 162.162C93.5978 162.007 93.8388 161.923 94.0863 161.927Z" fill="#263238"/>
<path opacity="0.2" d="M97.9519 153.581H94.1528L94.2245 158.112H98.0184L97.9519 153.581Z" fill="black"/>
<path d="M91.1629 66.0087C91.1629 66.0087 89.7139 98.9866 90.3283 109.856C91.0042 121.755 92.4173 157.017 92.4173 157.017H99.3702C99.3702 157.017 101.121 122.713 101.541 110.937C101.997 98.1367 104.06 66.0087 104.06 66.0087H91.1629Z" fill="#00A688"/>
<path d="M99.6516 157.017H92.1406L91.5671 154.221L99.8564 154.636L99.6516 157.017Z" fill="#263238"/>
<path d="M92.7397 162.587C93.0847 162.579 93.4279 162.534 93.7637 162.454C93.7798 162.449 93.7944 162.439 93.806 162.427C93.8177 162.414 93.826 162.399 93.8302 162.382C93.8321 162.366 93.8298 162.349 93.8235 162.334C93.8172 162.319 93.8072 162.306 93.7944 162.295C93.6715 162.208 92.5963 161.476 92.1304 161.66C92.0786 161.681 92.0328 161.715 91.997 161.758C91.9613 161.8 91.9367 161.852 91.9256 161.906C91.9022 161.989 91.9003 162.077 91.92 162.161C91.9397 162.246 91.9803 162.323 92.0382 162.388C92.2396 162.538 92.4893 162.609 92.7397 162.587ZM93.5077 162.326C92.8267 162.459 92.33 162.439 92.1508 162.265C92.114 162.222 92.089 162.17 92.0782 162.114C92.0675 162.058 92.0713 162.001 92.0894 161.947C92.0931 161.92 92.1041 161.894 92.1212 161.872C92.1383 161.851 92.1609 161.834 92.1867 161.824C92.4376 161.727 93.0673 162.044 93.5077 162.326Z" fill="#263238"/>
<path d="M93.7331 162.454C93.7464 162.458 93.7607 162.458 93.774 162.454C93.7869 162.447 93.7978 162.436 93.8059 162.424C93.8139 162.411 93.8188 162.397 93.8201 162.382C93.8201 162.336 93.9072 161.246 93.5232 160.877C93.4744 160.829 93.4154 160.793 93.3506 160.772C93.2858 160.751 93.217 160.745 93.1494 160.754C93.0745 160.757 93.0026 160.785 92.9451 160.833C92.8876 160.881 92.8478 160.947 92.832 161.02C92.7398 161.435 93.3081 162.229 93.687 162.454C93.702 162.459 93.7181 162.459 93.7331 162.454ZM93.2211 160.918C93.2562 160.917 93.2912 160.924 93.3238 160.937C93.3564 160.95 93.3859 160.97 93.4105 160.995C93.622 161.36 93.71 161.784 93.6614 162.203C93.3337 161.922 92.9549 161.317 93.0112 161.046C93.0112 160.995 93.0521 160.933 93.1801 160.918H93.2211Z" fill="#263238"/>
<path d="M105.96 35.4013C106.016 35.0812 106.008 34.7529 105.935 34.4361C105.862 34.1194 105.726 33.8206 105.535 33.5577C105.343 33.2948 105.101 33.0731 104.822 32.906C104.543 32.739 104.234 32.6299 103.912 32.5853H103.871C102.647 32.4061 101.111 32.2217 99.6057 32.1501C96.7323 31.9861 93.8519 31.9861 90.9785 32.1501C89.6524 32.2729 88.357 32.4931 87.3228 32.6928H87.2818C86.6352 32.8234 86.0365 33.1279 85.5502 33.5736C85.0639 34.0193 84.7085 34.5893 84.5221 35.2221C83.2831 39.3949 81.8034 47.9146 83.7388 66.0035H104.04C104.183 64.191 103.778 58.2928 104.075 50.7817C104.372 45.6197 105.002 40.4823 105.96 35.4013Z" fill="#263238"/>
<path opacity="0.3" d="M105.765 36.5175C105.345 38.9443 104.828 42.2467 104.47 45.7335C104.47 45.7335 102.616 42.0983 102.278 38.9904C101.94 35.8826 104.608 35.6471 105.765 36.5175Z" fill="black"/>
<g opacity="0.2">
<path opacity="0.2" d="M92.1508 36.9987C92.1087 36.9967 92.0684 36.9811 92.0359 36.9542C92.0034 36.9273 91.9805 36.8906 91.9707 36.8496C91.9609 36.8086 91.9646 36.7655 91.9814 36.7268C91.9982 36.6882 92.0271 36.656 92.0638 36.6351L98.3921 33.3532C98.4371 33.3313 98.4889 33.3276 98.5365 33.3429C98.5842 33.3581 98.6242 33.3912 98.6481 33.4351C98.6716 33.4807 98.6762 33.5337 98.6608 33.5825C98.6455 33.6314 98.6115 33.6723 98.5662 33.6963L92.2379 36.9679C92.2111 36.9837 92.1816 36.9941 92.1508 36.9987Z" fill="white"/>
<path opacity="0.2" d="M95.0488 37.2957C95.0238 37.2967 94.9989 37.2922 94.9759 37.2825C94.9529 37.2727 94.9323 37.258 94.9156 37.2393L91.4443 33.7936C91.4101 33.7567 91.3911 33.7082 91.3911 33.6579C91.3911 33.6076 91.4101 33.5591 91.4443 33.5222C91.4806 33.4869 91.5293 33.4671 91.58 33.4671C91.6306 33.4671 91.6793 33.4869 91.7157 33.5222L95.1819 36.9731C95.2172 37.0094 95.237 37.0581 95.237 37.1088C95.237 37.1595 95.2172 37.2081 95.1819 37.2445C95.1642 37.2614 95.1433 37.2747 95.1205 37.2835C95.0976 37.2922 95.0732 37.2964 95.0488 37.2957Z" fill="white"/>
<path opacity="0.2" d="M99.621 32.1449C96.7493 31.981 93.8706 31.981 90.9989 32.1449H90.8555C90.7858 32.4084 90.7693 32.6832 90.8072 32.9531C90.845 33.223 90.9363 33.4826 91.0757 33.7168C91.557 34.4848 92.5656 34.9149 94.0811 34.9968H94.6495C98.7455 34.9968 100.328 32.5085 100.394 32.4009L100.537 32.1705L99.621 32.1449Z" fill="white"/>
</g>
<path d="M91.4085 32.1142C93.9173 31.5203 94.3576 29.9689 94.1887 28.264C94.1489 27.837 94.0822 27.4129 93.989 26.9942L97.1327 24.383L99.4418 22.4681C98.8018 25.2483 98.0799 30.312 99.9538 32.1654C99.9538 32.1654 98.4178 34.7254 94.1016 34.5001C90.4818 34.3005 91.4085 32.1142 91.4085 32.1142Z" fill="#FF8B7B"/>
<path opacity="0.2" d="M93.989 26.9943C94.0822 27.4129 94.1489 27.837 94.1887 28.264C95.3612 28.0285 96.9279 26.7792 97.0917 25.5811C97.1493 25.1845 97.1631 24.7827 97.1327 24.3831L93.989 26.9943Z" fill="black"/>
<path d="M92.3199 13.672C90.615 14.696 90.8863 17.256 90.4255 19.089C91.511 19.1965 93.221 17.2662 93.221 17.2662L94.245 14.3325L92.3199 13.672Z" fill="#263238"/>
<path d="M101.387 18.8227C100.297 22.4374 99.8515 24.6032 97.5373 26.1136C96.793 26.6113 95.9268 26.896 95.0324 26.937C94.1381 26.9779 93.2495 26.7736 92.4629 26.346C91.6762 25.9184 91.0215 25.2839 90.5695 24.511C90.1174 23.7382 89.8853 22.8565 89.8982 21.9612C89.8982 18.5155 91.6697 13.1804 95.6224 12.4432C96.4743 12.2611 97.3592 12.3063 98.1881 12.5743C99.0171 12.8423 99.7609 13.3237 100.345 13.97C100.929 14.6164 101.333 15.405 101.516 16.2568C101.699 17.1086 101.655 17.9935 101.387 18.8227Z" fill="#FF8B7B"/>
<path d="M97.9825 21.8896C100.543 18.92 97.3425 17.4557 99.9589 15.3923C97.0149 15.5306 92.1662 15.3206 91.3009 13.3034C90.4357 11.2861 93.0981 8.552 95.315 8.296C97.875 7.99904 97.3221 11.1683 97.3221 11.1683C97.3221 11.1683 107.117 10.559 104.009 14.7523C106.364 14.609 105.714 18.4182 101.618 21.6336C100.589 21.9766 97.9825 21.8896 97.9825 21.8896Z" fill="#263238"/>
<path d="M103.42 14.8035C103.42 14.8035 105.437 14.2045 105.371 12.6071C106.098 13.1088 106.175 14.6346 103.42 14.8035Z" fill="#263238"/>
<path d="M101.986 22.5962C101.397 23.324 100.574 23.8252 99.6569 24.0144C98.4946 24.2243 98.2233 23.1491 98.8018 22.0995C99.3138 21.1575 100.558 19.9133 101.602 20.1744C102.647 20.4355 102.729 21.6797 101.986 22.5962Z" fill="#FF8B7B"/>
<path d="M95.5557 18.7306C95.484 19.0275 95.269 19.2425 95.0693 19.1965C94.8696 19.1504 94.7724 18.8842 94.844 18.5872C94.9157 18.2902 95.1308 18.0752 95.3253 18.1162C95.5199 18.1571 95.6274 18.4285 95.5557 18.7306Z" fill="#263238"/>
<path d="M92.1612 18.0496C92.0895 18.3465 91.8745 18.5616 91.6799 18.5206C91.4854 18.4797 91.3779 18.2083 91.4496 17.9113C91.5212 17.6144 91.7363 17.3994 91.9308 17.4403C92.1254 17.4813 92.2329 17.7526 92.1612 18.0496Z" fill="#263238"/>
<path d="M93.2057 18.4131C92.6278 19.2561 91.9389 20.0172 91.1577 20.6762C91.3317 20.8638 91.5448 21.011 91.7819 21.1075C92.0189 21.2039 92.2743 21.2472 92.5299 21.2343L93.2057 18.4131Z" fill="#FF5652"/>
<path d="M93.5743 22.2787C93.9287 22.312 94.2863 22.2729 94.6251 22.1638C94.964 22.0546 95.2771 21.8777 95.5455 21.6438C95.5542 21.6362 95.5612 21.6267 95.566 21.6161C95.5708 21.6055 95.5732 21.594 95.5732 21.5824C95.5732 21.5708 95.5708 21.5593 95.566 21.5487C95.5612 21.5381 95.5542 21.5286 95.5455 21.521C95.5283 21.5044 95.5054 21.4951 95.4815 21.4951C95.4576 21.4951 95.4347 21.5044 95.4175 21.521C95.1232 21.7712 94.7751 21.9499 94.4002 22.0432C94.0254 22.1364 93.6341 22.1417 93.2569 22.0586C93.2454 22.0564 93.2336 22.0565 93.2222 22.0589C93.2108 22.0613 93.2 22.066 93.1905 22.0727C93.1809 22.0794 93.1728 22.088 93.1666 22.0978C93.1605 22.1077 93.1563 22.1187 93.1545 22.1303C93.1499 22.154 93.1549 22.1786 93.1683 22.1987C93.1817 22.2188 93.2025 22.2328 93.2262 22.2378L93.5743 22.2787Z" fill="#263238"/>
<path d="M96.8665 17.9011C96.8947 17.9105 96.9253 17.9105 96.9535 17.9011C96.975 17.8918 96.9944 17.8781 97.0105 17.8611C97.0266 17.844 97.0391 17.8239 97.0472 17.8019C97.0553 17.7799 97.0589 17.7565 97.0578 17.7331C97.0566 17.7097 97.0508 17.6867 97.0405 17.6656C96.9306 17.4038 96.7576 17.1733 96.537 16.9946C96.3163 16.816 96.0548 16.6947 95.7759 16.6416C95.7285 16.6357 95.6807 16.6484 95.6425 16.6771C95.6043 16.7057 95.5787 16.7481 95.5711 16.7952C95.5683 16.8188 95.5701 16.8427 95.5766 16.8655C95.583 16.8883 95.594 16.9097 95.6087 16.9282C95.6235 16.9468 95.6418 16.9623 95.6626 16.9737C95.6834 16.9852 95.7062 16.9924 95.7298 16.9949C95.9467 17.0407 96.1493 17.1381 96.3204 17.279C96.4916 17.4198 96.6262 17.5999 96.7129 17.8039C96.7279 17.832 96.7499 17.8557 96.7768 17.8728C96.8038 17.8898 96.8346 17.8996 96.8665 17.9011Z" fill="#263238"/>
<path d="M91.3216 16.0119C91.3491 16.0219 91.3789 16.0243 91.4077 16.0189C91.4365 16.0135 91.4633 16.0004 91.4854 15.9811C91.6622 15.834 91.8708 15.73 92.0948 15.6776C92.3188 15.6252 92.5519 15.6257 92.7756 15.6791C92.7982 15.6864 92.8219 15.6893 92.8456 15.6875C92.8692 15.6858 92.8923 15.6793 92.9134 15.6686C92.9346 15.6579 92.9534 15.6432 92.9689 15.6252C92.9843 15.6072 92.9961 15.5864 93.0035 15.5639C93.0109 15.5413 93.0138 15.5176 93.012 15.4939C93.0102 15.4703 93.0038 15.4472 92.9931 15.4261C92.9824 15.4049 92.9676 15.3861 92.9496 15.3706C92.9316 15.3552 92.9108 15.3434 92.8883 15.336C92.6081 15.2668 92.3156 15.2636 92.034 15.3267C91.7523 15.3898 91.4891 15.5174 91.2652 15.6995C91.228 15.7288 91.2039 15.7716 91.1981 15.8186C91.1923 15.8656 91.2054 15.913 91.2345 15.9504C91.2553 15.9806 91.2861 16.0024 91.3216 16.0119Z" fill="#263238"/>
<path d="M106.144 33.9421L106.569 34.5206L106.953 35.0633C107.209 35.4269 107.439 35.7904 107.68 36.1539C108.146 36.8861 108.586 37.6285 109.011 38.376C109.863 39.8703 110.635 41.4085 111.325 42.984C111.684 43.7622 111.991 44.5712 112.319 45.3648C112.646 46.1584 112.923 46.9827 113.174 47.8121C113.713 49.463 114.158 51.1434 114.505 52.8451L114.546 53.0397C114.621 53.3833 114.628 53.7384 114.565 54.0845C114.503 54.4307 114.373 54.7612 114.182 55.0569C113.523 56.0694 112.74 56.9964 111.853 57.8166C110.94 58.653 109.904 59.3438 108.781 59.8646C107.672 60.3813 106.485 60.7101 105.268 60.8374C104.673 60.8988 104.074 60.9091 103.476 60.8681C103.18 60.8681 102.883 60.8118 102.586 60.7657L102.135 60.6787L101.623 60.5507C101.563 60.5361 101.511 60.4984 101.478 60.4456C101.446 60.3929 101.435 60.3295 101.449 60.2691L102.156 57.2995C102.156 57.2739 102.289 57.2688 102.371 57.2483L102.652 57.192C102.847 57.151 103.036 57.1049 103.231 57.0537C103.61 56.951 103.981 56.821 104.342 56.6646C105.04 56.3782 105.693 55.9937 106.282 55.5229C107.435 54.574 108.356 53.3745 108.975 52.0157L108.653 54.2275C108.212 52.7785 107.747 51.3449 107.183 49.9267C106.62 48.5085 106.006 47.1158 105.335 45.7437C104.664 44.3715 103.948 43.0147 103.174 41.6937C102.796 41.0333 102.396 40.383 101.997 39.7379L101.388 38.7856L101.085 38.3248L100.804 37.9152L100.701 37.7616C100.195 37.0399 99.9959 36.1465 100.148 35.278C100.3 34.4095 100.791 33.6371 101.513 33.1306C102.235 32.6241 103.128 32.425 103.997 32.5772C104.865 32.7294 105.637 33.2203 106.144 33.9421Z" fill="#263238"/>
<path d="M99.3752 60.2538L98.2744 62.056L103.051 61.8666C103.051 61.8666 104.306 58.6512 102.596 58.1443L101.93 58.3236C100.865 58.6217 99.9529 59.3112 99.3752 60.2538Z" fill="#FF8B7B"/>
<path d="M101.341 57.7296C100.997 57.9623 100.702 58.2596 100.471 58.6051C101.771 59.3117 103.584 61.7181 103.584 61.7181L104.004 60.3971C104.057 60.2267 104.072 60.0467 104.049 59.8697C104.025 59.6928 103.962 59.5233 103.865 59.3731L103.072 58.0931C102.985 57.9522 102.871 57.8305 102.735 57.7353C102.6 57.6401 102.447 57.5735 102.285 57.5395C102.123 57.5054 101.956 57.5048 101.793 57.5374C101.631 57.5701 101.477 57.6355 101.341 57.7296Z" fill="#00A688"/>
<path d="M98.6942 64.8311L102.632 64.4829L103.051 61.8666L98.2744 62.056L98.6942 64.8311Z" fill="#FF8B7B"/>
<path d="M50.3668 2.32606L50.1057 1.88575C50.8565 1.44078 51.6385 1.05064 52.4456 0.718384L52.6401 1.19454C51.8553 1.51482 51.0955 1.89304 50.3668 2.32606Z" fill="#00A688"/>
<path d="M42.8916 11.368L42.3796 11.1939C43.5934 7.83316 45.7893 4.9148 48.6824 2.81763L48.9844 3.23235C46.1827 5.27096 44.0596 8.10589 42.8916 11.368Z" fill="#00A688"/>
<path d="M59.1424 32.959C67.8461 32.959 74.9018 25.9033 74.9018 17.1997C74.9018 8.49601 67.8461 1.44031 59.1424 1.44031C50.4388 1.44031 43.3831 8.49601 43.3831 17.1997C43.3831 25.9033 50.4388 32.959 59.1424 32.959Z" fill="#00A688"/>
<path opacity="0.6" d="M72.306 17.1997C72.305 20.2708 71.2303 23.2448 69.2679 25.6071C67.3054 27.9693 64.5788 29.5711 61.56 30.1351C58.5412 30.6991 55.4202 30.1898 52.7372 28.6954C50.0543 27.2011 47.9782 24.8157 46.8685 21.9521C45.7587 19.0886 45.6851 15.9272 46.6604 13.0151C47.6357 10.103 49.5984 7.62358 52.2089 6.00597C54.8194 4.38836 57.9134 3.7344 60.9551 4.15728C63.9969 4.58017 66.7952 6.05329 68.8654 8.32164C68.8694 8.3198 68.8738 8.31884 68.8782 8.31884C68.8826 8.31884 68.887 8.3198 68.891 8.32164C71.0983 10.7505 72.3166 13.9177 72.306 17.1997Z" fill="white"/>
<path d="M72.306 17.1996C72.306 19.7584 71.5602 22.2617 70.1599 24.4033C68.7595 26.5448 66.7654 28.2319 64.4215 29.258C62.0775 30.2842 59.4852 30.6049 56.9618 30.181C54.4384 29.7571 52.0933 28.607 50.2132 26.8713C47.9145 24.3665 46.6741 21.0694 46.7517 17.6706C46.8293 14.2718 48.2189 11.0348 50.6294 8.63742C53.04 6.24008 56.2846 4.86835 59.6838 4.80947C63.083 4.75059 66.3732 6.00914 68.8654 8.32155C68.8694 8.31971 68.8737 8.31876 68.8782 8.31876C68.8826 8.31876 68.8869 8.31971 68.891 8.32155C71.0983 10.7505 72.3166 13.9176 72.306 17.1996Z" fill="white"/>
<path d="M59.1424 17.9677C59.0416 17.9679 58.9417 17.9481 58.8485 17.9094C58.7554 17.8707 58.6708 17.814 58.5997 17.7424L52.1793 11.3219C52.1038 11.2516 52.0433 11.1668 52.0013 11.0726C51.9593 10.9784 51.9368 10.8767 51.9349 10.7736C51.9331 10.6705 51.9521 10.5681 51.9907 10.4724C52.0293 10.3768 52.0868 10.2899 52.1598 10.217C52.2327 10.1441 52.3196 10.0866 52.4152 10.048C52.5108 10.0093 52.6132 9.99037 52.7164 9.99218C52.8195 9.994 52.9212 10.0166 53.0154 10.0585C53.1096 10.1005 53.1944 10.161 53.2647 10.2365L59.1424 16.1143L62.537 12.7197C62.6826 12.584 62.8751 12.5102 63.0741 12.5137C63.2731 12.5172 63.4629 12.5978 63.6036 12.7385C63.7443 12.8792 63.8249 13.0691 63.8284 13.268C63.832 13.467 63.7581 13.6596 63.6224 13.8051L59.6852 17.7424C59.541 17.886 59.3459 17.967 59.1424 17.9677Z" fill="#263238"/>
</svg>
