<svg width="256" height="256" viewBox="0 0 256 256" fill="none" xmlns="http://www.w3.org/2000/svg">
<path d="M256 195.789H0V195.917H256V195.789Z" fill="#EBEBEB"/>
<path d="M230.349 204.027H213.391V204.155H230.349V204.027Z" fill="#EBEBEB"/>
<path d="M169.585 205.42H165.135V205.548H169.585V205.42Z" fill="#EBEBEB"/>
<path d="M212.879 199.276H203.054V199.404H212.879V199.276Z" fill="#EBEBEB"/>
<path d="M48.9728 200.136H26.8595V200.264H48.9728V200.136Z" fill="#EBEBEB"/>
<path d="M56.7756 200.136H53.5347V200.264H56.7756V200.136Z" fill="#EBEBEB"/>
<path d="M115.277 202.296H67.3126V202.424H115.277V202.296Z" fill="#EBEBEB"/>
<path d="M89.088 74.752V36.3521H30.208V190.976H37.888V47.1399L65.6282 44.0321L65.751 44.1652L65.879 44.0064L79.6621 42.4704L79.8157 42.6394L79.9795 42.4346L87.552 41.5693V74.752H79.36V78.848H96.768V74.752H89.088ZM49.4387 39.0298L54.0467 43.7812L44.544 44.8461L49.4387 39.0298ZM43.223 44.0321L38.7379 37.8881H48.3942L43.223 44.0321ZM50.4678 37.8881H59.904L55.3574 42.9005L50.4678 37.8881ZM87.552 38.5332V40.0231L86.3539 40.1562L87.552 38.5332ZM85.0227 39.378L83.6454 37.8881H86.1184L85.0227 39.378ZM81.623 37.8881L79.7338 40.2586L77.568 37.8881H81.623ZM75.5456 37.8881L73.2672 40.7501L70.7686 37.8881H75.5456ZM68.7667 37.8881L65.6538 41.81L61.9827 37.8881H68.7667ZM37.888 39.3268L42.1325 45.1175L37.888 45.5937V39.3268ZM56.9139 43.4586L60.928 39.0196L64.3072 42.6292L56.9139 43.4586ZM69.7754 39.0861L72.1101 41.7537L67.2256 42.3015L69.7754 39.0861ZM74.6598 41.4721L76.5696 39.0759L78.3821 41.0573L74.6598 41.4721ZM82.647 39.0708L83.9066 40.4481L81.3466 40.7348L82.647 39.0708Z" fill="#E0E0E0"/>
<path d="M71.68 82.4321H60.928V77.3121H59.392V82.4321H49.152V72.7041H47.104V179.712H73.728V75.7761H71.68V82.4321ZM59.392 90.6241H49.152V84.9921H59.392V90.6241ZM71.68 90.6241H60.928V84.9921H71.68V90.6241Z" fill="#E0E0E0"/>
<path d="M231.921 195.584V169.39H229.683V156.908H226.406V113.51H221.67V107.909L211.569 103.194V97.5514H210.166V113.51H208.205V156.908H206.249V134.088H200.929V122.327H199.445V156.908H195.405V143.749H192.742V140.385H186.583V128.906H183.209V120.786H179.062V108.959H177.582V120.786H173.435V128.906H170.061V140.385H163.902V143.749H161.244V156.908H158.09V140.385H151.931V104.832H149.97V100.91H136.812V104.832H134.011V130.591H122.808V133.11H118.61V135.071H122.808V145.147H111.053V111.55H108.529V104.407H103.071V79.0682H101.53V104.407H97.6129V111.55H74.6292V109.199H73.2314V125.158H71.2705V125.44H70.0929V141.399H68.1319V145.736H63.9898V133.98H62.505V161.976H60.8564V150.216H59.3716V168.556H58.4653V155.397H55.8081V152.038H49.6487V140.559H46.2746V132.439H42.1274V120.607H40.6477V132.439H36.5005V140.559H33.1265V152.038H26.9671V155.397H24.3098V168.279H23.8285V168.556H22.5127V195.584H231.921Z" fill="#EBEBEB"/>
<path d="M89.0419 113.121H87.4547V114.709H89.0419V113.121Z" fill="#F5F5F5"/>
<path d="M89.0419 115.779H87.4547V117.366H89.0419V115.779Z" fill="#F5F5F5"/>
<path d="M89.0419 126.418H87.4547V128.005H89.0419V126.418Z" fill="#F5F5F5"/>
<path d="M89.0419 129.08H87.4547V130.668H89.0419V129.08Z" fill="#F5F5F5"/>
<path d="M89.0419 131.738H87.4547V133.325H89.0419V131.738Z" fill="#F5F5F5"/>
<path d="M89.0419 139.72H87.4547V141.307H89.0419V139.72Z" fill="#F5F5F5"/>
<path d="M89.0419 142.377H87.4547V143.964H89.0419V142.377Z" fill="#F5F5F5"/>
<path d="M91.561 123.761H89.9738V125.348H91.561V123.761Z" fill="#F5F5F5"/>
<path d="M91.561 126.418H89.9738V128.005H91.561V126.418Z" fill="#F5F5F5"/>
<path d="M91.561 129.08H89.9738V130.668H91.561V129.08Z" fill="#F5F5F5"/>
<path d="M91.561 131.738H89.9738V133.325H91.561V131.738Z" fill="#F5F5F5"/>
<path d="M91.561 134.4H89.9738V135.987H91.561V134.4Z" fill="#F5F5F5"/>
<path d="M91.561 139.72H89.9738V141.307H91.561V139.72Z" fill="#F5F5F5"/>
<path d="M91.561 142.377H89.9738V143.964H91.561V142.377Z" fill="#F5F5F5"/>
<path d="M94.08 113.121H92.4928V114.709H94.08V113.121Z" fill="#F5F5F5"/>
<path d="M94.08 115.779H92.4928V117.366H94.08V115.779Z" fill="#F5F5F5"/>
<path d="M94.08 118.441H92.4928V120.028H94.08V118.441Z" fill="#F5F5F5"/>
<path d="M94.08 121.098H92.4928V122.685H94.08V121.098Z" fill="#F5F5F5"/>
<path d="M94.08 123.761H92.4928V125.348H94.08V123.761Z" fill="#F5F5F5"/>
<path d="M94.08 126.418H92.4928V128.005H94.08V126.418Z" fill="#F5F5F5"/>
<path d="M94.08 129.08H92.4928V130.668H94.08V129.08Z" fill="#F5F5F5"/>
<path d="M94.08 131.738H92.4928V133.325H94.08V131.738Z" fill="#F5F5F5"/>
<path d="M94.08 134.4H92.4928V135.987H94.08V134.4Z" fill="#F5F5F5"/>
<path d="M94.08 137.057H92.4928V138.645H94.08V137.057Z" fill="#F5F5F5"/>
<path d="M94.08 142.377H92.4928V143.964H94.08V142.377Z" fill="#F5F5F5"/>
<path d="M96.599 113.121H95.0118V114.709H96.599V113.121Z" fill="#F5F5F5"/>
<path d="M96.599 115.779H95.0118V117.366H96.599V115.779Z" fill="#F5F5F5"/>
<path d="M96.599 118.441H95.0118V120.028H96.599V118.441Z" fill="#F5F5F5"/>
<path d="M96.599 121.098H95.0118V122.685H96.599V121.098Z" fill="#F5F5F5"/>
<path d="M96.599 123.761H95.0118V125.348H96.599V123.761Z" fill="#F5F5F5"/>
<path d="M96.599 126.418H95.0118V128.005H96.599V126.418Z" fill="#F5F5F5"/>
<path d="M96.599 129.08H95.0118V130.668H96.599V129.08Z" fill="#F5F5F5"/>
<path d="M96.599 153.016H95.0118V154.604H96.599V153.016Z" fill="#F5F5F5"/>
<path d="M99.1181 113.121H97.5309V114.709H99.1181V113.121Z" fill="#F5F5F5"/>
<path d="M99.1181 115.779H97.5309V117.366H99.1181V115.779Z" fill="#F5F5F5"/>
<path d="M99.1181 118.441H97.5309V120.028H99.1181V118.441Z" fill="#F5F5F5"/>
<path d="M99.1181 121.098H97.5309V122.685H99.1181V121.098Z" fill="#F5F5F5"/>
<path d="M99.1181 123.761H97.5309V125.348H99.1181V123.761Z" fill="#F5F5F5"/>
<path d="M99.1181 126.418H97.5309V128.005H99.1181V126.418Z" fill="#F5F5F5"/>
<path d="M99.1181 129.08H97.5309V130.668H99.1181V129.08Z" fill="#F5F5F5"/>
<path d="M99.1181 131.738H97.5309V133.325H99.1181V131.738Z" fill="#F5F5F5"/>
<path d="M99.1181 147.697H97.5309V149.284H99.1181V147.697Z" fill="#F5F5F5"/>
<path d="M99.1181 150.359H97.5309V151.946H99.1181V150.359Z" fill="#F5F5F5"/>
<path d="M99.1181 153.016H97.5309V154.604H99.1181V153.016Z" fill="#F5F5F5"/>
<path d="M99.1181 155.679H97.5309V157.266H99.1181V155.679Z" fill="#F5F5F5"/>
<path d="M99.1181 166.318H97.5309V167.905H99.1181V166.318Z" fill="#F5F5F5"/>
<path d="M101.642 113.121H100.055V114.709H101.642V113.121Z" fill="#F5F5F5"/>
<path d="M101.642 115.779H100.055V117.366H101.642V115.779Z" fill="#F5F5F5"/>
<path d="M101.642 118.441H100.055V120.028H101.642V118.441Z" fill="#F5F5F5"/>
<path d="M101.642 121.098H100.055V122.685H101.642V121.098Z" fill="#F5F5F5"/>
<path d="M101.642 123.761H100.055V125.348H101.642V123.761Z" fill="#F5F5F5"/>
<path d="M101.642 126.418H100.055V128.005H101.642V126.418Z" fill="#F5F5F5"/>
<path d="M101.642 129.08H100.055V130.668H101.642V129.08Z" fill="#F5F5F5"/>
<path d="M101.642 131.738H100.055V133.325H101.642V131.738Z" fill="#F5F5F5"/>
<path d="M101.642 134.4H100.055V135.987H101.642V134.4Z" fill="#F5F5F5"/>
<path d="M101.642 137.057H100.055V138.645H101.642V137.057Z" fill="#F5F5F5"/>
<path d="M101.642 145.039H100.055V146.627H101.642V145.039Z" fill="#F5F5F5"/>
<path d="M101.642 147.697H100.055V149.284H101.642V147.697Z" fill="#F5F5F5"/>
<path d="M101.642 150.359H100.055V151.946H101.642V150.359Z" fill="#F5F5F5"/>
<path d="M101.642 153.016H100.055V154.604H101.642V153.016Z" fill="#F5F5F5"/>
<path d="M101.642 155.679H100.055V157.266H101.642V155.679Z" fill="#F5F5F5"/>
<path d="M101.642 166.318H100.055V167.905H101.642V166.318Z" fill="#F5F5F5"/>
<path d="M104.161 113.121H102.574V114.709H104.161V113.121Z" fill="#F5F5F5"/>
<path d="M104.161 115.779H102.574V117.366H104.161V115.779Z" fill="#F5F5F5"/>
<path d="M104.161 118.441H102.574V120.028H104.161V118.441Z" fill="#F5F5F5"/>
<path d="M104.161 121.098H102.574V122.685H104.161V121.098Z" fill="#F5F5F5"/>
<path d="M104.161 123.761H102.574V125.348H104.161V123.761Z" fill="#F5F5F5"/>
<path d="M104.161 126.418H102.574V128.005H104.161V126.418Z" fill="#F5F5F5"/>
<path d="M104.161 129.08H102.574V130.668H104.161V129.08Z" fill="#F5F5F5"/>
<path d="M104.161 131.738H102.574V133.325H104.161V131.738Z" fill="#F5F5F5"/>
<path d="M104.161 134.4H102.574V135.987H104.161V134.4Z" fill="#F5F5F5"/>
<path d="M104.161 137.057H102.574V138.645H104.161V137.057Z" fill="#F5F5F5"/>
<path d="M104.161 139.72H102.574V141.307H104.161V139.72Z" fill="#F5F5F5"/>
<path d="M104.161 142.377H102.574V143.964H104.161V142.377Z" fill="#F5F5F5"/>
<path d="M104.161 145.039H102.574V146.627H104.161V145.039Z" fill="#F5F5F5"/>
<path d="M104.161 147.697H102.574V149.284H104.161V147.697Z" fill="#F5F5F5"/>
<path d="M104.161 150.359H102.574V151.946H104.161V150.359Z" fill="#F5F5F5"/>
<path d="M104.161 153.016H102.574V154.604H104.161V153.016Z" fill="#F5F5F5"/>
<path d="M104.161 155.679H102.574V157.266H104.161V155.679Z" fill="#F5F5F5"/>
<path d="M104.161 158.336H102.574V159.923H104.161V158.336Z" fill="#F5F5F5"/>
<path d="M106.68 113.121H105.093V114.709H106.68V113.121Z" fill="#F5F5F5"/>
<path d="M106.68 115.779H105.093V117.366H106.68V115.779Z" fill="#F5F5F5"/>
<path d="M106.68 118.441H105.093V120.028H106.68V118.441Z" fill="#F5F5F5"/>
<path d="M106.68 121.098H105.093V122.685H106.68V121.098Z" fill="#F5F5F5"/>
<path d="M106.68 123.761H105.093V125.348H106.68V123.761Z" fill="#F5F5F5"/>
<path d="M106.68 126.418H105.093V128.005H106.68V126.418Z" fill="#F5F5F5"/>
<path d="M106.68 129.08H105.093V130.668H106.68V129.08Z" fill="#F5F5F5"/>
<path d="M106.68 131.738H105.093V133.325H106.68V131.738Z" fill="#F5F5F5"/>
<path d="M106.68 134.4H105.093V135.987H106.68V134.4Z" fill="#F5F5F5"/>
<path d="M106.68 137.057H105.093V138.645H106.68V137.057Z" fill="#F5F5F5"/>
<path d="M106.68 145.039H105.093V146.627H106.68V145.039Z" fill="#F5F5F5"/>
<path d="M106.68 147.697H105.093V149.284H106.68V147.697Z" fill="#F5F5F5"/>
<path d="M106.68 150.359H105.093V151.946H106.68V150.359Z" fill="#F5F5F5"/>
<path d="M106.68 153.016H105.093V154.604H106.68V153.016Z" fill="#F5F5F5"/>
<path d="M109.199 113.121H107.612V114.709H109.199V113.121Z" fill="#F5F5F5"/>
<path d="M109.199 115.779H107.612V117.366H109.199V115.779Z" fill="#F5F5F5"/>
<path d="M109.199 118.441H107.612V120.028H109.199V118.441Z" fill="#F5F5F5"/>
<path d="M109.199 121.098H107.612V122.685H109.199V121.098Z" fill="#F5F5F5"/>
<path d="M109.199 123.761H107.612V125.348H109.199V123.761Z" fill="#F5F5F5"/>
<path d="M109.199 126.418H107.612V128.005H109.199V126.418Z" fill="#F5F5F5"/>
<path d="M109.199 129.08H107.612V130.668H109.199V129.08Z" fill="#F5F5F5"/>
<path d="M109.199 131.738H107.612V133.325H109.199V131.738Z" fill="#F5F5F5"/>
<path d="M109.199 134.4H107.612V135.987H109.199V134.4Z" fill="#F5F5F5"/>
<path d="M109.199 137.057H107.612V138.645H109.199V137.057Z" fill="#F5F5F5"/>
<path d="M109.199 145.039H107.612V146.627H109.199V145.039Z" fill="#F5F5F5"/>
<path d="M109.199 147.697H107.612V149.284H109.199V147.697Z" fill="#F5F5F5"/>
<path d="M109.199 150.359H107.612V151.946H109.199V150.359Z" fill="#F5F5F5"/>
<path d="M137.569 106.214H135.982V107.802H137.569V106.214Z" fill="#F5F5F5"/>
<path d="M137.569 108.872H135.982V110.459H137.569V108.872Z" fill="#F5F5F5"/>
<path d="M137.569 111.534H135.982V113.121H137.569V111.534Z" fill="#F5F5F5"/>
<path d="M137.569 114.191H135.982V115.779H137.569V114.191Z" fill="#F5F5F5"/>
<path d="M137.569 116.854H135.982V118.441H137.569V116.854Z" fill="#F5F5F5"/>
<path d="M137.569 119.511H135.982V121.098H137.569V119.511Z" fill="#F5F5F5"/>
<path d="M137.569 122.173H135.982V123.761H137.569V122.173Z" fill="#F5F5F5"/>
<path d="M137.569 124.831H135.982V126.418H137.569V124.831Z" fill="#F5F5F5"/>
<path d="M137.569 132.813H135.982V134.4H137.569V132.813Z" fill="#F5F5F5"/>
<path d="M137.569 135.47H135.982V137.057H137.569V135.47Z" fill="#F5F5F5"/>
<path d="M140.094 106.214H138.506V107.802H140.094V106.214Z" fill="#F5F5F5"/>
<path d="M140.094 108.872H138.506V110.459H140.094V108.872Z" fill="#F5F5F5"/>
<path d="M140.094 111.534H138.506V113.121H140.094V111.534Z" fill="#F5F5F5"/>
<path d="M140.094 114.191H138.506V115.779H140.094V114.191Z" fill="#F5F5F5"/>
<path d="M140.094 116.854H138.506V118.441H140.094V116.854Z" fill="#F5F5F5"/>
<path d="M140.094 119.511H138.506V121.098H140.094V119.511Z" fill="#F5F5F5"/>
<path d="M140.094 122.173H138.506V123.761H140.094V122.173Z" fill="#F5F5F5"/>
<path d="M140.094 124.831H138.506V126.418H140.094V124.831Z" fill="#F5F5F5"/>
<path d="M140.094 135.47H138.506V137.057H140.094V135.47Z" fill="#F5F5F5"/>
<path d="M142.613 106.214H141.025V107.802H142.613V106.214Z" fill="#F5F5F5"/>
<path d="M142.613 108.872H141.025V110.459H142.613V108.872Z" fill="#F5F5F5"/>
<path d="M142.613 111.534H141.025V113.121H142.613V111.534Z" fill="#F5F5F5"/>
<path d="M142.613 114.191H141.025V115.779H142.613V114.191Z" fill="#F5F5F5"/>
<path d="M142.613 116.854H141.025V118.441H142.613V116.854Z" fill="#F5F5F5"/>
<path d="M142.613 119.511H141.025V121.098H142.613V119.511Z" fill="#F5F5F5"/>
<path d="M142.613 122.173H141.025V123.761H142.613V122.173Z" fill="#F5F5F5"/>
<path d="M142.613 124.831H141.025V126.418H142.613V124.831Z" fill="#F5F5F5"/>
<path d="M145.132 106.214H143.544V107.802H145.132V106.214Z" fill="#F5F5F5"/>
<path d="M145.132 108.872H143.544V110.459H145.132V108.872Z" fill="#F5F5F5"/>
<path d="M145.132 111.534H143.544V113.121H145.132V111.534Z" fill="#F5F5F5"/>
<path d="M145.132 114.191H143.544V115.779H145.132V114.191Z" fill="#F5F5F5"/>
<path d="M145.132 116.854H143.544V118.441H145.132V116.854Z" fill="#F5F5F5"/>
<path d="M145.132 119.511H143.544V121.098H145.132V119.511Z" fill="#F5F5F5"/>
<path d="M145.132 124.831H143.544V126.418H145.132V124.831Z" fill="#F5F5F5"/>
<path d="M145.132 127.493H143.544V129.08H145.132V127.493Z" fill="#F5F5F5"/>
<path d="M145.132 135.47H143.544V137.057H145.132V135.47Z" fill="#F5F5F5"/>
<path d="M145.132 138.133H143.544V139.72H145.132V138.133Z" fill="#F5F5F5"/>
<path d="M145.132 140.79H143.544V142.377H145.132V140.79Z" fill="#F5F5F5"/>
<path d="M145.132 143.452H143.544V145.039H145.132V143.452Z" fill="#F5F5F5"/>
<path d="M145.132 146.109H143.544V147.697H145.132V146.109Z" fill="#F5F5F5"/>
<path d="M145.132 148.772H143.544V150.359H145.132V148.772Z" fill="#F5F5F5"/>
<path d="M145.132 151.429H143.544V153.016H145.132V151.429Z" fill="#F5F5F5"/>
<path d="M147.65 106.214H146.063V107.802H147.65V106.214Z" fill="#F5F5F5"/>
<path d="M147.65 108.872H146.063V110.459H147.65V108.872Z" fill="#F5F5F5"/>
<path d="M147.65 111.534H146.063V113.121H147.65V111.534Z" fill="#F5F5F5"/>
<path d="M147.65 114.191H146.063V115.779H147.65V114.191Z" fill="#F5F5F5"/>
<path d="M147.65 116.854H146.063V118.441H147.65V116.854Z" fill="#F5F5F5"/>
<path d="M147.65 119.511H146.063V121.098H147.65V119.511Z" fill="#F5F5F5"/>
<path d="M147.65 127.493H146.063V129.08H147.65V127.493Z" fill="#F5F5F5"/>
<path d="M147.65 130.15H146.063V131.738H147.65V130.15Z" fill="#F5F5F5"/>
<path d="M147.65 132.813H146.063V134.4H147.65V132.813Z" fill="#F5F5F5"/>
<path d="M147.65 135.47H146.063V137.057H147.65V135.47Z" fill="#F5F5F5"/>
<path d="M147.65 138.133H146.063V139.72H147.65V138.133Z" fill="#F5F5F5"/>
<path d="M147.65 140.79H146.063V142.377H147.65V140.79Z" fill="#F5F5F5"/>
<path d="M147.65 143.452H146.063V145.039H147.65V143.452Z" fill="#F5F5F5"/>
<path d="M147.65 146.109H146.063V147.697H147.65V146.109Z" fill="#F5F5F5"/>
<path d="M147.65 148.772H146.063V150.359H147.65V148.772Z" fill="#F5F5F5"/>
<path d="M147.65 151.429H146.063V153.016H147.65V151.429Z" fill="#F5F5F5"/>
<path d="M147.65 154.092H146.063V155.679H147.65V154.092Z" fill="#F5F5F5"/>
<path d="M147.65 159.411H146.063V160.998H147.65V159.411Z" fill="#F5F5F5"/>
<path d="M150.17 106.214H148.583V107.802H150.17V106.214Z" fill="#F5F5F5"/>
<path d="M150.17 108.872H148.583V110.459H150.17V108.872Z" fill="#F5F5F5"/>
<path d="M150.17 111.534H148.583V113.121H150.17V111.534Z" fill="#F5F5F5"/>
<path d="M150.17 114.191H148.583V115.779H150.17V114.191Z" fill="#F5F5F5"/>
<path d="M150.17 116.854H148.583V118.441H150.17V116.854Z" fill="#F5F5F5"/>
<path d="M150.17 119.511H148.583V121.098H150.17V119.511Z" fill="#F5F5F5"/>
<path d="M150.17 127.493H148.583V129.08H150.17V127.493Z" fill="#F5F5F5"/>
<path d="M150.17 130.15H148.583V131.738H150.17V130.15Z" fill="#F5F5F5"/>
<path d="M150.17 132.813H148.583V134.4H150.17V132.813Z" fill="#F5F5F5"/>
<path d="M150.17 135.47H148.583V137.057H150.17V135.47Z" fill="#F5F5F5"/>
<path d="M150.17 143.452H148.583V145.039H150.17V143.452Z" fill="#F5F5F5"/>
<path d="M150.17 146.109H148.583V147.697H150.17V146.109Z" fill="#F5F5F5"/>
<path d="M150.17 148.772H148.583V150.359H150.17V148.772Z" fill="#F5F5F5"/>
<path d="M150.17 151.429H148.583V153.016H150.17V151.429Z" fill="#F5F5F5"/>
<path d="M150.17 154.092H148.583V155.679H150.17V154.092Z" fill="#F5F5F5"/>
<path d="M150.17 159.411H148.583V160.998H150.17V159.411Z" fill="#F5F5F5"/>
<path d="M150.17 162.068H148.583V163.656H150.17V162.068Z" fill="#F5F5F5"/>
<path d="M173.036 130.944H171.448V132.531H173.036V130.944Z" fill="#F5F5F5"/>
<path d="M173.036 133.606H171.448V135.194H173.036V133.606Z" fill="#F5F5F5"/>
<path d="M173.036 136.264H171.448V137.851H173.036V136.264Z" fill="#F5F5F5"/>
<path d="M173.036 138.926H171.448V140.513H173.036V138.926Z" fill="#F5F5F5"/>
<path d="M173.036 141.583H171.448V143.171H173.036V141.583Z" fill="#F5F5F5"/>
<path d="M173.036 144.246H171.448V145.833H173.036V144.246Z" fill="#F5F5F5"/>
<path d="M173.036 146.903H171.448V148.49H173.036V146.903Z" fill="#F5F5F5"/>
<path d="M173.036 154.885H171.448V156.472H173.036V154.885Z" fill="#F5F5F5"/>
<path d="M173.036 157.542H171.448V159.13H173.036V157.542Z" fill="#F5F5F5"/>
<path d="M173.036 160.205H171.448V161.792H173.036V160.205Z" fill="#F5F5F5"/>
<path d="M175.554 130.944H173.967V132.531H175.554V130.944Z" fill="#F5F5F5"/>
<path d="M175.554 133.606H173.967V135.194H175.554V133.606Z" fill="#F5F5F5"/>
<path d="M175.554 136.264H173.967V137.851H175.554V136.264Z" fill="#F5F5F5"/>
<path d="M175.554 138.926H173.967V140.513H175.554V138.926Z" fill="#F5F5F5"/>
<path d="M175.554 141.583H173.967V143.171H175.554V141.583Z" fill="#F5F5F5"/>
<path d="M175.554 144.246H173.967V145.833H175.554V144.246Z" fill="#F5F5F5"/>
<path d="M175.554 146.903H173.967V148.49H175.554V146.903Z" fill="#F5F5F5"/>
<path d="M178.079 130.944H176.491V132.531H178.079V130.944Z" fill="#F5F5F5"/>
<path d="M178.079 133.606H176.491V135.194H178.079V133.606Z" fill="#F5F5F5"/>
<path d="M178.079 136.264H176.491V137.851H178.079V136.264Z" fill="#F5F5F5"/>
<path d="M178.079 138.926H176.491V140.513H178.079V138.926Z" fill="#F5F5F5"/>
<path d="M178.079 141.583H176.491V143.171H178.079V141.583Z" fill="#F5F5F5"/>
<path d="M178.079 144.246H176.491V145.833H178.079V144.246Z" fill="#F5F5F5"/>
<path d="M178.079 146.903H176.491V148.49H178.079V146.903Z" fill="#F5F5F5"/>
<path d="M180.598 130.944H179.011V132.531H180.598V130.944Z" fill="#F5F5F5"/>
<path d="M180.598 133.606H179.011V135.194H180.598V133.606Z" fill="#F5F5F5"/>
<path d="M180.598 136.264H179.011V137.851H180.598V136.264Z" fill="#F5F5F5"/>
<path d="M180.598 138.926H179.011V140.513H180.598V138.926Z" fill="#F5F5F5"/>
<path d="M180.598 141.583H179.011V143.171H180.598V141.583Z" fill="#F5F5F5"/>
<path d="M180.598 144.246H179.011V145.833H180.598V144.246Z" fill="#F5F5F5"/>
<path d="M180.598 146.903H179.011V148.49H180.598V146.903Z" fill="#F5F5F5"/>
<path d="M180.598 149.566H179.011V151.153H180.598V149.566Z" fill="#F5F5F5"/>
<path d="M180.598 152.223H179.011V153.81H180.598V152.223Z" fill="#F5F5F5"/>
<path d="M180.598 154.885H179.011V156.472H180.598V154.885Z" fill="#F5F5F5"/>
<path d="M180.598 157.542H179.011V159.13H180.598V157.542Z" fill="#F5F5F5"/>
<path d="M183.117 130.944H181.53V132.531H183.117V130.944Z" fill="#F5F5F5"/>
<path d="M183.117 133.606H181.53V135.194H183.117V133.606Z" fill="#F5F5F5"/>
<path d="M183.117 136.264H181.53V137.851H183.117V136.264Z" fill="#F5F5F5"/>
<path d="M183.117 138.926H181.53V140.513H183.117V138.926Z" fill="#F5F5F5"/>
<path d="M183.117 141.583H181.53V143.171H183.117V141.583Z" fill="#F5F5F5"/>
<path d="M183.117 144.246H181.53V145.833H183.117V144.246Z" fill="#F5F5F5"/>
<path d="M183.117 146.903H181.53V148.49H183.117V146.903Z" fill="#F5F5F5"/>
<path d="M183.117 149.566H181.53V151.153H183.117V149.566Z" fill="#F5F5F5"/>
<path d="M183.117 152.223H181.53V153.81H183.117V152.223Z" fill="#F5F5F5"/>
<path d="M183.117 154.885H181.53V156.472H183.117V154.885Z" fill="#F5F5F5"/>
<path d="M183.117 157.542H181.53V159.13H183.117V157.542Z" fill="#F5F5F5"/>
<path d="M183.117 160.205H181.53V161.792H183.117V160.205Z" fill="#F5F5F5"/>
<path d="M183.117 168.182H181.53V169.769H183.117V168.182Z" fill="#F5F5F5"/>
<path d="M183.117 170.844H181.53V172.431H183.117V170.844Z" fill="#F5F5F5"/>
<path d="M185.636 130.944H184.049V132.531H185.636V130.944Z" fill="#F5F5F5"/>
<path d="M185.636 133.606H184.049V135.194H185.636V133.606Z" fill="#F5F5F5"/>
<path d="M185.636 136.264H184.049V137.851H185.636V136.264Z" fill="#F5F5F5"/>
<path d="M185.636 144.246H184.049V145.833H185.636V144.246Z" fill="#F5F5F5"/>
<path d="M185.636 146.903H184.049V148.49H185.636V146.903Z" fill="#F5F5F5"/>
<path d="M185.636 149.566H184.049V151.153H185.636V149.566Z" fill="#F5F5F5"/>
<path d="M185.636 152.223H184.049V153.81H185.636V152.223Z" fill="#F5F5F5"/>
<path d="M185.636 154.885H184.049V156.472H185.636V154.885Z" fill="#F5F5F5"/>
<path d="M185.636 157.542H184.049V159.13H185.636V157.542Z" fill="#F5F5F5"/>
<path d="M185.636 160.205H184.049V161.792H185.636V160.205Z" fill="#F5F5F5"/>
<path d="M185.636 168.182H184.049V169.769H185.636V168.182Z" fill="#F5F5F5"/>
<path d="M185.636 170.844H184.049V172.431H185.636V170.844Z" fill="#F5F5F5"/>
<path d="M185.636 173.501H184.049V175.089H185.636V173.501Z" fill="#F5F5F5"/>
<path d="M212.05 114.985H210.463V116.572H212.05V114.985Z" fill="#F5F5F5"/>
<path d="M212.05 117.647H210.463V119.235H212.05V117.647Z" fill="#F5F5F5"/>
<path d="M212.05 120.305H210.463V121.892H212.05V120.305Z" fill="#F5F5F5"/>
<path d="M212.05 122.967H210.463V124.554H212.05V122.967Z" fill="#F5F5F5"/>
<path d="M212.05 125.624H210.463V127.212H212.05V125.624Z" fill="#F5F5F5"/>
<path d="M212.05 128.287H210.463V129.874H212.05V128.287Z" fill="#F5F5F5"/>
<path d="M212.05 130.944H210.463V132.531H212.05V130.944Z" fill="#F5F5F5"/>
<path d="M212.05 133.606H210.463V135.194H212.05V133.606Z" fill="#F5F5F5"/>
<path d="M212.05 136.264H210.463V137.851H212.05V136.264Z" fill="#F5F5F5"/>
<path d="M212.05 138.926H210.463V140.513H212.05V138.926Z" fill="#F5F5F5"/>
<path d="M212.05 141.583H210.463V143.171H212.05V141.583Z" fill="#F5F5F5"/>
<path d="M212.05 144.246H210.463V145.833H212.05V144.246Z" fill="#F5F5F5"/>
<path d="M212.05 146.903H210.463V148.49H212.05V146.903Z" fill="#F5F5F5"/>
<path d="M212.05 149.566H210.463V151.153H212.05V149.566Z" fill="#F5F5F5"/>
<path d="M212.05 152.223H210.463V153.81H212.05V152.223Z" fill="#F5F5F5"/>
<path d="M212.05 154.885H210.463V156.472H212.05V154.885Z" fill="#F5F5F5"/>
<path d="M212.05 157.542H210.463V159.13H212.05V157.542Z" fill="#F5F5F5"/>
<path d="M212.05 160.205H210.463V161.792H212.05V160.205Z" fill="#F5F5F5"/>
<path d="M212.05 162.862H210.463V164.449H212.05V162.862Z" fill="#F5F5F5"/>
<path d="M212.05 165.525H210.463V167.112H212.05V165.525Z" fill="#F5F5F5"/>
<path d="M212.05 168.182H210.463V169.769H212.05V168.182Z" fill="#F5F5F5"/>
<path d="M212.05 170.844H210.463V172.431H212.05V170.844Z" fill="#F5F5F5"/>
<path d="M212.05 173.501H210.463V175.089H212.05V173.501Z" fill="#F5F5F5"/>
<path d="M214.569 114.985H212.982V116.572H214.569V114.985Z" fill="#F5F5F5"/>
<path d="M214.569 117.647H212.982V119.235H214.569V117.647Z" fill="#F5F5F5"/>
<path d="M214.569 120.305H212.982V121.892H214.569V120.305Z" fill="#F5F5F5"/>
<path d="M214.569 122.967H212.982V124.554H214.569V122.967Z" fill="#F5F5F5"/>
<path d="M214.569 125.624H212.982V127.212H214.569V125.624Z" fill="#F5F5F5"/>
<path d="M214.569 128.287H212.982V129.874H214.569V128.287Z" fill="#F5F5F5"/>
<path d="M214.569 130.944H212.982V132.531H214.569V130.944Z" fill="#F5F5F5"/>
<path d="M214.569 133.606H212.982V135.194H214.569V133.606Z" fill="#F5F5F5"/>
<path d="M214.569 136.264H212.982V137.851H214.569V136.264Z" fill="#F5F5F5"/>
<path d="M214.569 138.926H212.982V140.513H214.569V138.926Z" fill="#F5F5F5"/>
<path d="M214.569 141.583H212.982V143.171H214.569V141.583Z" fill="#F5F5F5"/>
<path d="M214.569 144.246H212.982V145.833H214.569V144.246Z" fill="#F5F5F5"/>
<path d="M214.569 146.903H212.982V148.49H214.569V146.903Z" fill="#F5F5F5"/>
<path d="M214.569 149.566H212.982V151.153H214.569V149.566Z" fill="#F5F5F5"/>
<path d="M214.569 152.223H212.982V153.81H214.569V152.223Z" fill="#F5F5F5"/>
<path d="M214.569 154.885H212.982V156.472H214.569V154.885Z" fill="#F5F5F5"/>
<path d="M214.569 157.542H212.982V159.13H214.569V157.542Z" fill="#F5F5F5"/>
<path d="M214.569 160.205H212.982V161.792H214.569V160.205Z" fill="#F5F5F5"/>
<path d="M214.569 162.862H212.982V164.449H214.569V162.862Z" fill="#F5F5F5"/>
<path d="M217.088 114.985H215.501V116.572H217.088V114.985Z" fill="#F5F5F5"/>
<path d="M217.088 117.647H215.501V119.235H217.088V117.647Z" fill="#F5F5F5"/>
<path d="M217.088 120.305H215.501V121.892H217.088V120.305Z" fill="#F5F5F5"/>
<path d="M217.088 122.967H215.501V124.554H217.088V122.967Z" fill="#F5F5F5"/>
<path d="M217.088 125.624H215.501V127.212H217.088V125.624Z" fill="#F5F5F5"/>
<path d="M217.088 128.287H215.501V129.874H217.088V128.287Z" fill="#F5F5F5"/>
<path d="M217.088 130.944H215.501V132.531H217.088V130.944Z" fill="#F5F5F5"/>
<path d="M217.088 133.606H215.501V135.194H217.088V133.606Z" fill="#F5F5F5"/>
<path d="M217.088 136.264H215.501V137.851H217.088V136.264Z" fill="#F5F5F5"/>
<path d="M217.088 138.926H215.501V140.513H217.088V138.926Z" fill="#F5F5F5"/>
<path d="M217.088 141.583H215.501V143.171H217.088V141.583Z" fill="#F5F5F5"/>
<path d="M217.088 144.246H215.501V145.833H217.088V144.246Z" fill="#F5F5F5"/>
<path d="M217.088 146.903H215.501V148.49H217.088V146.903Z" fill="#F5F5F5"/>
<path d="M217.088 149.566H215.501V151.153H217.088V149.566Z" fill="#F5F5F5"/>
<path d="M217.088 152.223H215.501V153.81H217.088V152.223Z" fill="#F5F5F5"/>
<path d="M217.088 154.885H215.501V156.472H217.088V154.885Z" fill="#F5F5F5"/>
<path d="M217.088 157.542H215.501V159.13H217.088V157.542Z" fill="#F5F5F5"/>
<path d="M217.088 160.205H215.501V161.792H217.088V160.205Z" fill="#F5F5F5"/>
<path d="M217.088 162.862H215.501V164.449H217.088V162.862Z" fill="#F5F5F5"/>
<path d="M219.607 114.985H218.02V116.572H219.607V114.985Z" fill="#F5F5F5"/>
<path d="M219.607 117.647H218.02V119.235H219.607V117.647Z" fill="#F5F5F5"/>
<path d="M219.607 120.305H218.02V121.892H219.607V120.305Z" fill="#F5F5F5"/>
<path d="M219.607 122.967H218.02V124.554H219.607V122.967Z" fill="#F5F5F5"/>
<path d="M219.607 125.624H218.02V127.212H219.607V125.624Z" fill="#F5F5F5"/>
<path d="M219.607 128.287H218.02V129.874H219.607V128.287Z" fill="#F5F5F5"/>
<path d="M219.607 130.944H218.02V132.531H219.607V130.944Z" fill="#F5F5F5"/>
<path d="M219.607 133.606H218.02V135.194H219.607V133.606Z" fill="#F5F5F5"/>
<path d="M219.607 136.264H218.02V137.851H219.607V136.264Z" fill="#F5F5F5"/>
<path d="M219.607 138.926H218.02V140.513H219.607V138.926Z" fill="#F5F5F5"/>
<path d="M219.607 141.583H218.02V143.171H219.607V141.583Z" fill="#F5F5F5"/>
<path d="M219.607 144.246H218.02V145.833H219.607V144.246Z" fill="#F5F5F5"/>
<path d="M219.607 146.903H218.02V148.49H219.607V146.903Z" fill="#F5F5F5"/>
<path d="M219.607 149.566H218.02V151.153H219.607V149.566Z" fill="#F5F5F5"/>
<path d="M219.607 152.223H218.02V153.81H219.607V152.223Z" fill="#F5F5F5"/>
<path d="M222.126 114.985H220.539V116.572H222.126V114.985Z" fill="#F5F5F5"/>
<path d="M222.126 117.647H220.539V119.235H222.126V117.647Z" fill="#F5F5F5"/>
<path d="M222.126 120.305H220.539V121.892H222.126V120.305Z" fill="#F5F5F5"/>
<path d="M222.126 122.967H220.539V124.554H222.126V122.967Z" fill="#F5F5F5"/>
<path d="M222.126 125.624H220.539V127.212H222.126V125.624Z" fill="#F5F5F5"/>
<path d="M222.126 128.287H220.539V129.874H222.126V128.287Z" fill="#F5F5F5"/>
<path d="M222.126 130.944H220.539V132.531H222.126V130.944Z" fill="#F5F5F5"/>
<path d="M222.126 133.606H220.539V135.194H222.126V133.606Z" fill="#F5F5F5"/>
<path d="M222.126 136.264H220.539V137.851H222.126V136.264Z" fill="#F5F5F5"/>
<path d="M222.126 138.926H220.539V140.513H222.126V138.926Z" fill="#F5F5F5"/>
<path d="M222.126 141.583H220.539V143.171H222.126V141.583Z" fill="#F5F5F5"/>
<path d="M222.126 144.246H220.539V145.833H222.126V144.246Z" fill="#F5F5F5"/>
<path d="M222.126 146.903H220.539V148.49H222.126V146.903Z" fill="#F5F5F5"/>
<path d="M224.65 114.985H223.063V116.572H224.65V114.985Z" fill="#F5F5F5"/>
<path d="M224.65 117.647H223.063V119.235H224.65V117.647Z" fill="#F5F5F5"/>
<path d="M224.65 120.305H223.063V121.892H224.65V120.305Z" fill="#F5F5F5"/>
<path d="M224.65 122.967H223.063V124.554H224.65V122.967Z" fill="#F5F5F5"/>
<path d="M224.65 125.624H223.063V127.212H224.65V125.624Z" fill="#F5F5F5"/>
<path d="M224.65 128.287H223.063V129.874H224.65V128.287Z" fill="#F5F5F5"/>
<path d="M224.65 130.944H223.063V132.531H224.65V130.944Z" fill="#F5F5F5"/>
<path d="M224.65 133.606H223.063V135.194H224.65V133.606Z" fill="#F5F5F5"/>
<path d="M224.65 136.264H223.063V137.851H224.65V136.264Z" fill="#F5F5F5"/>
<path d="M224.65 138.926H223.063V140.513H224.65V138.926Z" fill="#F5F5F5"/>
<path d="M224.65 141.583H223.063V143.171H224.65V141.583Z" fill="#F5F5F5"/>
<path d="M224.65 144.246H223.063V145.833H224.65V144.246Z" fill="#F5F5F5"/>
<path d="M39.4803 134.4H37.8931V135.987H39.4803V134.4Z" fill="#F5F5F5"/>
<path d="M39.4803 137.057H37.8931V138.645H39.4803V137.057Z" fill="#F5F5F5"/>
<path d="M39.4803 139.72H37.8931V141.307H39.4803V139.72Z" fill="#F5F5F5"/>
<path d="M39.4803 142.377H37.8931V143.964H39.4803V142.377Z" fill="#F5F5F5"/>
<path d="M39.4803 145.039H37.8931V146.627H39.4803V145.039Z" fill="#F5F5F5"/>
<path d="M39.4803 147.697H37.8931V149.284H39.4803V147.697Z" fill="#F5F5F5"/>
<path d="M39.4803 150.359H37.8931V151.946H39.4803V150.359Z" fill="#F5F5F5"/>
<path d="M39.4803 153.016H37.8931V154.604H39.4803V153.016Z" fill="#F5F5F5"/>
<path d="M39.4803 155.679H37.8931V157.266H39.4803V155.679Z" fill="#F5F5F5"/>
<path d="M39.4803 158.336H37.8931V159.923H39.4803V158.336Z" fill="#F5F5F5"/>
<path d="M39.4803 160.998H37.8931V162.586H39.4803V160.998Z" fill="#F5F5F5"/>
<path d="M39.4803 163.656H37.8931V165.243H39.4803V163.656Z" fill="#F5F5F5"/>
<path d="M39.4803 166.318H37.8931V167.905H39.4803V166.318Z" fill="#F5F5F5"/>
<path d="M39.4803 168.975H37.8931V170.563H39.4803V168.975Z" fill="#F5F5F5"/>
<path d="M39.4803 171.638H37.8931V173.225H39.4803V171.638Z" fill="#F5F5F5"/>
<path d="M39.4803 174.295H37.8931V175.882H39.4803V174.295Z" fill="#F5F5F5"/>
<path d="M39.4803 176.958H37.8931V178.545H39.4803V176.958Z" fill="#F5F5F5"/>
<path d="M39.4803 179.615H37.8931V181.202H39.4803V179.615Z" fill="#F5F5F5"/>
<path d="M39.4803 182.277H37.8931V183.864H39.4803V182.277Z" fill="#F5F5F5"/>
<path d="M39.4803 184.934H37.8931V186.522H39.4803V184.934Z" fill="#F5F5F5"/>
<path d="M41.9994 134.4H40.4122V135.987H41.9994V134.4Z" fill="#F5F5F5"/>
<path d="M41.9994 137.057H40.4122V138.645H41.9994V137.057Z" fill="#F5F5F5"/>
<path d="M41.9994 139.72H40.4122V141.307H41.9994V139.72Z" fill="#F5F5F5"/>
<path d="M41.9994 142.377H40.4122V143.964H41.9994V142.377Z" fill="#F5F5F5"/>
<path d="M41.9994 145.039H40.4122V146.627H41.9994V145.039Z" fill="#F5F5F5"/>
<path d="M41.9994 147.697H40.4122V149.284H41.9994V147.697Z" fill="#F5F5F5"/>
<path d="M41.9994 150.359H40.4122V151.946H41.9994V150.359Z" fill="#F5F5F5"/>
<path d="M41.9994 153.016H40.4122V154.604H41.9994V153.016Z" fill="#F5F5F5"/>
<path d="M41.9994 155.679H40.4122V157.266H41.9994V155.679Z" fill="#F5F5F5"/>
<path d="M41.9994 158.336H40.4122V159.923H41.9994V158.336Z" fill="#F5F5F5"/>
<path d="M41.9994 160.998H40.4122V162.586H41.9994V160.998Z" fill="#F5F5F5"/>
<path d="M41.9994 163.656H40.4122V165.243H41.9994V163.656Z" fill="#F5F5F5"/>
<path d="M41.9994 166.318H40.4122V167.905H41.9994V166.318Z" fill="#F5F5F5"/>
<path d="M41.9994 168.975H40.4122V170.563H41.9994V168.975Z" fill="#F5F5F5"/>
<path d="M41.9994 171.638H40.4122V173.225H41.9994V171.638Z" fill="#F5F5F5"/>
<path d="M41.9994 174.295H40.4122V175.882H41.9994V174.295Z" fill="#F5F5F5"/>
<path d="M41.9994 176.958H40.4122V178.545H41.9994V176.958Z" fill="#F5F5F5"/>
<path d="M41.9994 179.615H40.4122V181.202H41.9994V179.615Z" fill="#F5F5F5"/>
<path d="M44.5235 134.4H42.9363V135.987H44.5235V134.4Z" fill="#F5F5F5"/>
<path d="M44.5235 137.057H42.9363V138.645H44.5235V137.057Z" fill="#F5F5F5"/>
<path d="M44.5235 139.72H42.9363V141.307H44.5235V139.72Z" fill="#F5F5F5"/>
<path d="M44.5235 142.377H42.9363V143.964H44.5235V142.377Z" fill="#F5F5F5"/>
<path d="M44.5235 145.039H42.9363V146.627H44.5235V145.039Z" fill="#F5F5F5"/>
<path d="M44.5235 147.697H42.9363V149.284H44.5235V147.697Z" fill="#F5F5F5"/>
<path d="M44.5235 150.359H42.9363V151.946H44.5235V150.359Z" fill="#F5F5F5"/>
<path d="M44.5235 153.016H42.9363V154.604H44.5235V153.016Z" fill="#F5F5F5"/>
<path d="M44.5235 155.679H42.9363V157.266H44.5235V155.679Z" fill="#F5F5F5"/>
<path d="M44.5235 158.336H42.9363V159.923H44.5235V158.336Z" fill="#F5F5F5"/>
<path d="M44.5235 160.998H42.9363V162.586H44.5235V160.998Z" fill="#F5F5F5"/>
<path d="M44.5235 163.656H42.9363V165.243H44.5235V163.656Z" fill="#F5F5F5"/>
<path d="M44.5235 166.318H42.9363V167.905H44.5235V166.318Z" fill="#F5F5F5"/>
<path d="M44.5235 168.975H42.9363V170.563H44.5235V168.975Z" fill="#F5F5F5"/>
<path d="M44.5235 171.638H42.9363V173.225H44.5235V171.638Z" fill="#F5F5F5"/>
<path d="M44.5235 174.295H42.9363V175.882H44.5235V174.295Z" fill="#F5F5F5"/>
<path d="M44.5235 176.958H42.9363V178.545H44.5235V176.958Z" fill="#F5F5F5"/>
<path d="M44.5235 179.615H42.9363V181.202H44.5235V179.615Z" fill="#F5F5F5"/>
<path d="M30.0544 153.81H28.4672V155.397H30.0544V153.81Z" fill="#F5F5F5"/>
<path d="M30.0544 156.472H28.4672V158.06H30.0544V156.472Z" fill="#F5F5F5"/>
<path d="M30.0544 159.13H28.4672V160.717H30.0544V159.13Z" fill="#F5F5F5"/>
<path d="M30.0544 161.792H28.4672V163.379H30.0544V161.792Z" fill="#F5F5F5"/>
<path d="M30.0544 164.449H28.4672V166.037H30.0544V164.449Z" fill="#F5F5F5"/>
<path d="M30.0544 167.112H28.4672V168.699H30.0544V167.112Z" fill="#F5F5F5"/>
<path d="M30.0544 169.769H28.4672V171.356H30.0544V169.769Z" fill="#F5F5F5"/>
<path d="M30.0544 172.431H28.4672V174.019H30.0544V172.431Z" fill="#F5F5F5"/>
<path d="M30.0544 175.089H28.4672V176.676H30.0544V175.089Z" fill="#F5F5F5"/>
<path d="M30.0544 177.751H28.4672V179.338H30.0544V177.751Z" fill="#F5F5F5"/>
<path d="M30.0544 180.408H28.4672V181.996H30.0544V180.408Z" fill="#F5F5F5"/>
<path d="M30.0544 183.071H28.4672V184.658H30.0544V183.071Z" fill="#F5F5F5"/>
<path d="M30.0544 185.728H28.4672V187.315H30.0544V185.728Z" fill="#F5F5F5"/>
<path d="M32.5734 153.81H30.9862V155.397H32.5734V153.81Z" fill="#F5F5F5"/>
<path d="M32.5734 156.472H30.9862V158.06H32.5734V156.472Z" fill="#F5F5F5"/>
<path d="M32.5734 159.13H30.9862V160.717H32.5734V159.13Z" fill="#F5F5F5"/>
<path d="M32.5734 161.792H30.9862V163.379H32.5734V161.792Z" fill="#F5F5F5"/>
<path d="M32.5734 164.449H30.9862V166.037H32.5734V164.449Z" fill="#F5F5F5"/>
<path d="M32.5734 167.112H30.9862V168.699H32.5734V167.112Z" fill="#F5F5F5"/>
<path d="M32.5734 169.769H30.9862V171.356H32.5734V169.769Z" fill="#F5F5F5"/>
<path d="M32.5734 172.431H30.9862V174.019H32.5734V172.431Z" fill="#F5F5F5"/>
<path d="M32.5734 175.089H30.9862V176.676H32.5734V175.089Z" fill="#F5F5F5"/>
<path d="M32.5734 177.751H30.9862V179.338H32.5734V177.751Z" fill="#F5F5F5"/>
<path d="M32.5734 180.408H30.9862V181.996H32.5734V180.408Z" fill="#F5F5F5"/>
<path d="M32.5734 183.071H30.9862V184.658H32.5734V183.071Z" fill="#F5F5F5"/>
<path d="M32.5734 185.728H30.9862V187.315H32.5734V185.728Z" fill="#F5F5F5"/>
<path d="M35.0976 153.81H33.5104V155.397H35.0976V153.81Z" fill="#F5F5F5"/>
<path d="M35.0976 156.472H33.5104V158.06H35.0976V156.472Z" fill="#F5F5F5"/>
<path d="M35.0976 159.13H33.5104V160.717H35.0976V159.13Z" fill="#F5F5F5"/>
<path d="M35.0976 161.792H33.5104V163.379H35.0976V161.792Z" fill="#F5F5F5"/>
<path d="M35.0976 164.449H33.5104V166.037H35.0976V164.449Z" fill="#F5F5F5"/>
<path d="M35.0976 167.112H33.5104V168.699H35.0976V167.112Z" fill="#F5F5F5"/>
<path d="M35.0976 169.769H33.5104V171.356H35.0976V169.769Z" fill="#F5F5F5"/>
<path d="M35.0976 172.431H33.5104V174.019H35.0976V172.431Z" fill="#F5F5F5"/>
<path d="M35.0976 175.089H33.5104V176.676H35.0976V175.089Z" fill="#F5F5F5"/>
<path d="M35.0976 177.751H33.5104V179.338H35.0976V177.751Z" fill="#F5F5F5"/>
<path d="M35.0976 180.408H33.5104V181.996H35.0976V180.408Z" fill="#F5F5F5"/>
<path d="M35.0976 183.071H33.5104V184.658H35.0976V183.071Z" fill="#F5F5F5"/>
<path d="M35.0976 185.728H33.5104V187.315H35.0976V185.728Z" fill="#F5F5F5"/>
<path d="M35.0976 188.391H33.5104V189.978H35.0976V188.391Z" fill="#F5F5F5"/>
<path d="M49.0956 154.604H47.5084V156.191H49.0956V154.604Z" fill="#F5F5F5"/>
<path d="M49.0956 157.266H47.5084V158.853H49.0956V157.266Z" fill="#F5F5F5"/>
<path d="M49.0956 159.923H47.5084V161.51H49.0956V159.923Z" fill="#F5F5F5"/>
<path d="M49.0956 162.586H47.5084V164.173H49.0956V162.586Z" fill="#F5F5F5"/>
<path d="M49.0956 165.243H47.5084V166.83H49.0956V165.243Z" fill="#F5F5F5"/>
<path d="M49.0956 167.905H47.5084V169.492H49.0956V167.905Z" fill="#F5F5F5"/>
<path d="M49.0956 170.563H47.5084V172.15H49.0956V170.563Z" fill="#F5F5F5"/>
<path d="M49.0956 173.225H47.5084V174.812H49.0956V173.225Z" fill="#F5F5F5"/>
<path d="M49.0956 175.882H47.5084V177.47H49.0956V175.882Z" fill="#F5F5F5"/>
<path d="M49.0956 178.545H47.5084V180.132H49.0956V178.545Z" fill="#F5F5F5"/>
<path d="M49.0956 186.522H47.5084V188.109H49.0956V186.522Z" fill="#F5F5F5"/>
<path d="M51.6148 154.604H50.0276V156.191H51.6148V154.604Z" fill="#F5F5F5"/>
<path d="M51.6148 157.266H50.0276V158.853H51.6148V157.266Z" fill="#F5F5F5"/>
<path d="M51.6148 159.923H50.0276V161.51H51.6148V159.923Z" fill="#F5F5F5"/>
<path d="M51.6148 162.586H50.0276V164.173H51.6148V162.586Z" fill="#F5F5F5"/>
<path d="M51.6148 165.243H50.0276V166.83H51.6148V165.243Z" fill="#F5F5F5"/>
<path d="M51.6148 167.905H50.0276V169.492H51.6148V167.905Z" fill="#F5F5F5"/>
<path d="M51.6148 170.563H50.0276V172.15H51.6148V170.563Z" fill="#F5F5F5"/>
<path d="M51.6148 173.225H50.0276V174.812H51.6148V173.225Z" fill="#F5F5F5"/>
<path d="M51.6148 175.882H50.0276V177.47H51.6148V175.882Z" fill="#F5F5F5"/>
<path d="M51.6148 183.864H50.0276V185.452H51.6148V183.864Z" fill="#F5F5F5"/>
<path d="M51.6148 186.522H50.0276V188.109H51.6148V186.522Z" fill="#F5F5F5"/>
<path d="M54.1338 154.604H52.5466V156.191H54.1338V154.604Z" fill="#F5F5F5"/>
<path d="M54.1338 157.266H52.5466V158.853H54.1338V157.266Z" fill="#F5F5F5"/>
<path d="M54.1338 159.923H52.5466V161.51H54.1338V159.923Z" fill="#F5F5F5"/>
<path d="M54.1338 162.586H52.5466V164.173H54.1338V162.586Z" fill="#F5F5F5"/>
<path d="M54.1338 165.243H52.5466V166.83H54.1338V165.243Z" fill="#F5F5F5"/>
<path d="M54.1338 167.905H52.5466V169.492H54.1338V167.905Z" fill="#F5F5F5"/>
<path d="M54.1338 170.563H52.5466V172.15H54.1338V170.563Z" fill="#F5F5F5"/>
<path d="M54.1338 173.225H52.5466V174.812H54.1338V173.225Z" fill="#F5F5F5"/>
<path d="M54.1338 181.202H52.5466V182.789H54.1338V181.202Z" fill="#F5F5F5"/>
<path d="M54.1338 183.864H52.5466V185.452H54.1338V183.864Z" fill="#F5F5F5"/>
<path d="M54.1338 186.522H52.5466V188.109H54.1338V186.522Z" fill="#F5F5F5"/>
<path d="M77.5629 114.191H75.9757V115.779H77.5629V114.191Z" fill="#F5F5F5"/>
<path d="M77.5629 116.854H75.9757V118.441H77.5629V116.854Z" fill="#F5F5F5"/>
<path d="M77.5629 119.511H75.9757V121.098H77.5629V119.511Z" fill="#F5F5F5"/>
<path d="M77.5629 122.173H75.9757V123.761H77.5629V122.173Z" fill="#F5F5F5"/>
<path d="M77.5629 124.831H75.9757V126.418H77.5629V124.831Z" fill="#F5F5F5"/>
<path d="M77.5629 127.493H75.9757V129.08H77.5629V127.493Z" fill="#F5F5F5"/>
<path d="M77.5629 130.15H75.9757V131.738H77.5629V130.15Z" fill="#F5F5F5"/>
<path d="M77.5629 132.813H75.9757V134.4H77.5629V132.813Z" fill="#F5F5F5"/>
<path d="M77.5629 135.47H75.9757V137.057H77.5629V135.47Z" fill="#F5F5F5"/>
<path d="M77.5629 138.133H75.9757V139.72H77.5629V138.133Z" fill="#F5F5F5"/>
<path d="M77.5629 140.79H75.9757V142.377H77.5629V140.79Z" fill="#F5F5F5"/>
<path d="M77.5629 143.452H75.9757V145.039H77.5629V143.452Z" fill="#F5F5F5"/>
<path d="M77.5629 146.109H75.9757V147.697H77.5629V146.109Z" fill="#F5F5F5"/>
<path d="M77.5629 148.772H75.9757V150.359H77.5629V148.772Z" fill="#F5F5F5"/>
<path d="M77.5629 151.429H75.9757V153.016H77.5629V151.429Z" fill="#F5F5F5"/>
<path d="M77.5629 154.092H75.9757V155.679H77.5629V154.092Z" fill="#F5F5F5"/>
<path d="M77.5629 156.749H75.9757V158.336H77.5629V156.749Z" fill="#F5F5F5"/>
<path d="M77.5629 162.068H75.9757V163.656H77.5629V162.068Z" fill="#F5F5F5"/>
<path d="M77.5629 164.731H75.9757V166.318H77.5629V164.731Z" fill="#F5F5F5"/>
<path d="M77.5629 167.388H75.9757V168.975H77.5629V167.388Z" fill="#F5F5F5"/>
<path d="M77.5629 170.051H75.9757V171.638H77.5629V170.051Z" fill="#F5F5F5"/>
<path d="M77.5629 172.708H75.9757V174.295H77.5629V172.708Z" fill="#F5F5F5"/>
<path d="M80.0818 114.191H78.4946V115.779H80.0818V114.191Z" fill="#F5F5F5"/>
<path d="M80.0818 116.854H78.4946V118.441H80.0818V116.854Z" fill="#F5F5F5"/>
<path d="M80.0818 119.511H78.4946V121.098H80.0818V119.511Z" fill="#F5F5F5"/>
<path d="M80.0818 122.173H78.4946V123.761H80.0818V122.173Z" fill="#F5F5F5"/>
<path d="M80.0818 124.831H78.4946V126.418H80.0818V124.831Z" fill="#F5F5F5"/>
<path d="M80.0818 127.493H78.4946V129.08H80.0818V127.493Z" fill="#F5F5F5"/>
<path d="M80.0818 130.15H78.4946V131.738H80.0818V130.15Z" fill="#F5F5F5"/>
<path d="M80.0818 132.813H78.4946V134.4H80.0818V132.813Z" fill="#F5F5F5"/>
<path d="M80.0818 135.47H78.4946V137.057H80.0818V135.47Z" fill="#F5F5F5"/>
<path d="M80.0818 138.133H78.4946V139.72H80.0818V138.133Z" fill="#F5F5F5"/>
<path d="M80.0818 140.79H78.4946V142.377H80.0818V140.79Z" fill="#F5F5F5"/>
<path d="M80.0818 143.452H78.4946V145.039H80.0818V143.452Z" fill="#F5F5F5"/>
<path d="M80.0818 146.109H78.4946V147.697H80.0818V146.109Z" fill="#F5F5F5"/>
<path d="M80.0818 148.772H78.4946V150.359H80.0818V148.772Z" fill="#F5F5F5"/>
<path d="M80.0818 151.429H78.4946V153.016H80.0818V151.429Z" fill="#F5F5F5"/>
<path d="M80.0818 154.092H78.4946V155.679H80.0818V154.092Z" fill="#F5F5F5"/>
<path d="M80.0818 170.051H78.4946V171.638H80.0818V170.051Z" fill="#F5F5F5"/>
<path d="M80.0818 172.708H78.4946V174.295H80.0818V172.708Z" fill="#F5F5F5"/>
<path d="M82.601 114.191H81.0138V115.779H82.601V114.191Z" fill="#F5F5F5"/>
<path d="M82.601 116.854H81.0138V118.441H82.601V116.854Z" fill="#F5F5F5"/>
<path d="M82.601 119.511H81.0138V121.098H82.601V119.511Z" fill="#F5F5F5"/>
<path d="M82.601 122.173H81.0138V123.761H82.601V122.173Z" fill="#F5F5F5"/>
<path d="M82.601 124.831H81.0138V126.418H82.601V124.831Z" fill="#F5F5F5"/>
<path d="M82.601 127.493H81.0138V129.08H82.601V127.493Z" fill="#F5F5F5"/>
<path d="M82.601 130.15H81.0138V131.738H82.601V130.15Z" fill="#F5F5F5"/>
<path d="M82.601 132.813H81.0138V134.4H82.601V132.813Z" fill="#F5F5F5"/>
<path d="M82.601 135.47H81.0138V137.057H82.601V135.47Z" fill="#F5F5F5"/>
<path d="M82.601 138.133H81.0138V139.72H82.601V138.133Z" fill="#F5F5F5"/>
<path d="M82.601 140.79H81.0138V142.377H82.601V140.79Z" fill="#F5F5F5"/>
<path d="M82.601 143.452H81.0138V145.039H82.601V143.452Z" fill="#F5F5F5"/>
<path d="M82.601 146.109H81.0138V147.697H82.601V146.109Z" fill="#F5F5F5"/>
<path d="M82.601 148.772H81.0138V150.359H82.601V148.772Z" fill="#F5F5F5"/>
<path d="M82.601 151.429H81.0138V153.016H82.601V151.429Z" fill="#F5F5F5"/>
<path d="M82.601 154.092H81.0138V155.679H82.601V154.092Z" fill="#F5F5F5"/>
<path d="M82.601 159.411H81.0138V160.998H82.601V159.411Z" fill="#F5F5F5"/>
<path d="M82.601 162.068H81.0138V163.656H82.601V162.068Z" fill="#F5F5F5"/>
<path d="M82.601 164.731H81.0138V166.318H82.601V164.731Z" fill="#F5F5F5"/>
<path d="M82.601 167.388H81.0138V168.975H82.601V167.388Z" fill="#F5F5F5"/>
<path d="M82.601 172.708H81.0138V174.295H82.601V172.708Z" fill="#F5F5F5"/>
<path d="M68.4134 147.697H66.8262V149.284H68.4134V147.697Z" fill="#F5F5F5"/>
<path d="M68.4134 150.359H66.8262V151.946H68.4134V150.359Z" fill="#F5F5F5"/>
<path d="M68.4134 153.016H66.8262V154.604H68.4134V153.016Z" fill="#F5F5F5"/>
<path d="M68.4134 155.679H66.8262V157.266H68.4134V155.679Z" fill="#F5F5F5"/>
<path d="M68.4134 158.336H66.8262V159.923H68.4134V158.336Z" fill="#F5F5F5"/>
<path d="M68.4134 160.998H66.8262V162.586H68.4134V160.998Z" fill="#F5F5F5"/>
<path d="M68.4134 163.656H66.8262V165.243H68.4134V163.656Z" fill="#F5F5F5"/>
<path d="M68.4134 168.975H66.8262V170.563H68.4134V168.975Z" fill="#F5F5F5"/>
<path d="M68.4134 171.638H66.8262V173.225H68.4134V171.638Z" fill="#F5F5F5"/>
<path d="M68.4134 174.295H66.8262V175.882H68.4134V174.295Z" fill="#F5F5F5"/>
<path d="M68.4134 176.958H66.8262V178.545H68.4134V176.958Z" fill="#F5F5F5"/>
<path d="M68.4134 179.615H66.8262V181.202H68.4134V179.615Z" fill="#F5F5F5"/>
<path d="M68.4134 182.277H66.8262V183.864H68.4134V182.277Z" fill="#F5F5F5"/>
<path d="M68.4134 184.934H66.8262V186.522H68.4134V184.934Z" fill="#F5F5F5"/>
<path d="M68.4134 187.597H66.8262V189.184H68.4134V187.597Z" fill="#F5F5F5"/>
<path d="M70.9325 147.697H69.3453V149.284H70.9325V147.697Z" fill="#F5F5F5"/>
<path d="M70.9325 150.359H69.3453V151.946H70.9325V150.359Z" fill="#F5F5F5"/>
<path d="M70.9325 153.016H69.3453V154.604H70.9325V153.016Z" fill="#F5F5F5"/>
<path d="M70.9325 155.679H69.3453V157.266H70.9325V155.679Z" fill="#F5F5F5"/>
<path d="M70.9325 158.336H69.3453V159.923H70.9325V158.336Z" fill="#F5F5F5"/>
<path d="M70.9325 160.998H69.3453V162.586H70.9325V160.998Z" fill="#F5F5F5"/>
<path d="M70.9325 168.975H69.3453V170.563H70.9325V168.975Z" fill="#F5F5F5"/>
<path d="M70.9325 171.638H69.3453V173.225H70.9325V171.638Z" fill="#F5F5F5"/>
<path d="M70.9325 174.295H69.3453V175.882H70.9325V174.295Z" fill="#F5F5F5"/>
<path d="M70.9325 176.958H69.3453V178.545H70.9325V176.958Z" fill="#F5F5F5"/>
<path d="M70.9325 179.615H69.3453V181.202H70.9325V179.615Z" fill="#F5F5F5"/>
<path d="M70.9325 182.277H69.3453V183.864H70.9325V182.277Z" fill="#F5F5F5"/>
<path d="M70.9325 184.934H69.3453V186.522H70.9325V184.934Z" fill="#F5F5F5"/>
<path d="M70.9325 187.597H69.3453V189.184H70.9325V187.597Z" fill="#F5F5F5"/>
<path d="M73.4515 147.697H71.8643V149.284H73.4515V147.697Z" fill="#F5F5F5"/>
<path d="M73.4515 150.359H71.8643V151.946H73.4515V150.359Z" fill="#F5F5F5"/>
<path d="M73.4515 153.016H71.8643V154.604H73.4515V153.016Z" fill="#F5F5F5"/>
<path d="M73.4515 155.679H71.8643V157.266H73.4515V155.679Z" fill="#F5F5F5"/>
<path d="M73.4515 158.336H71.8643V159.923H73.4515V158.336Z" fill="#F5F5F5"/>
<path d="M73.4515 160.998H71.8643V162.586H73.4515V160.998Z" fill="#F5F5F5"/>
<path d="M73.4515 166.318H71.8643V167.905H73.4515V166.318Z" fill="#F5F5F5"/>
<path d="M73.4515 168.975H71.8643V170.563H73.4515V168.975Z" fill="#F5F5F5"/>
<path d="M73.4515 171.638H71.8643V173.225H73.4515V171.638Z" fill="#F5F5F5"/>
<path d="M73.4515 174.295H71.8643V175.882H73.4515V174.295Z" fill="#F5F5F5"/>
<path d="M73.4515 176.958H71.8643V178.545H73.4515V176.958Z" fill="#F5F5F5"/>
<path d="M73.4515 179.615H71.8643V181.202H73.4515V179.615Z" fill="#F5F5F5"/>
<path d="M73.4515 182.277H71.8643V183.864H73.4515V182.277Z" fill="#F5F5F5"/>
<path d="M73.4515 184.934H71.8643V186.522H73.4515V184.934Z" fill="#F5F5F5"/>
<path d="M73.4515 187.597H71.8643V189.184H73.4515V187.597Z" fill="#F5F5F5"/>
<path d="M126.561 132.813H124.974V134.4H126.561V132.813Z" fill="#F5F5F5"/>
<path d="M126.561 135.47H124.974V137.057H126.561V135.47Z" fill="#F5F5F5"/>
<path d="M126.561 138.133H124.974V139.72H126.561V138.133Z" fill="#F5F5F5"/>
<path d="M126.561 140.79H124.974V142.377H126.561V140.79Z" fill="#F5F5F5"/>
<path d="M126.561 143.452H124.974V145.039H126.561V143.452Z" fill="#F5F5F5"/>
<path d="M126.561 146.109H124.974V147.697H126.561V146.109Z" fill="#F5F5F5"/>
<path d="M126.561 148.772H124.974V150.359H126.561V148.772Z" fill="#F5F5F5"/>
<path d="M126.561 151.429H124.974V153.016H126.561V151.429Z" fill="#F5F5F5"/>
<path d="M126.561 154.092H124.974V155.679H126.561V154.092Z" fill="#F5F5F5"/>
<path d="M126.561 156.749H124.974V158.336H126.561V156.749Z" fill="#F5F5F5"/>
<path d="M126.561 159.411H124.974V160.998H126.561V159.411Z" fill="#F5F5F5"/>
<path d="M126.561 162.068H124.974V163.656H126.561V162.068Z" fill="#F5F5F5"/>
<path d="M126.561 164.731H124.974V166.318H126.561V164.731Z" fill="#F5F5F5"/>
<path d="M126.561 170.051H124.974V171.638H126.561V170.051Z" fill="#F5F5F5"/>
<path d="M126.561 172.708H124.974V174.295H126.561V172.708Z" fill="#F5F5F5"/>
<path d="M126.561 175.37H124.974V176.957H126.561V175.37Z" fill="#F5F5F5"/>
<path d="M126.561 178.028H124.974V179.615H126.561V178.028Z" fill="#F5F5F5"/>
<path d="M126.561 183.347H124.974V184.934H126.561V183.347Z" fill="#F5F5F5"/>
<path d="M126.561 186.01H124.974V187.597H126.561V186.01Z" fill="#F5F5F5"/>
<path d="M126.561 188.672H124.974V190.259H126.561V188.672Z" fill="#F5F5F5"/>
<path d="M129.08 132.813H127.493V134.4H129.08V132.813Z" fill="#F5F5F5"/>
<path d="M129.08 135.47H127.493V137.057H129.08V135.47Z" fill="#F5F5F5"/>
<path d="M129.08 138.133H127.493V139.72H129.08V138.133Z" fill="#F5F5F5"/>
<path d="M129.08 140.79H127.493V142.377H129.08V140.79Z" fill="#F5F5F5"/>
<path d="M129.08 143.452H127.493V145.039H129.08V143.452Z" fill="#F5F5F5"/>
<path d="M129.08 146.109H127.493V147.697H129.08V146.109Z" fill="#F5F5F5"/>
<path d="M129.08 148.772H127.493V150.359H129.08V148.772Z" fill="#F5F5F5"/>
<path d="M129.08 151.429H127.493V153.016H129.08V151.429Z" fill="#F5F5F5"/>
<path d="M129.08 154.092H127.493V155.679H129.08V154.092Z" fill="#F5F5F5"/>
<path d="M129.08 156.749H127.493V158.336H129.08V156.749Z" fill="#F5F5F5"/>
<path d="M129.08 159.411H127.493V160.998H129.08V159.411Z" fill="#F5F5F5"/>
<path d="M129.08 162.068H127.493V163.656H129.08V162.068Z" fill="#F5F5F5"/>
<path d="M129.08 164.731H127.493V166.318H129.08V164.731Z" fill="#F5F5F5"/>
<path d="M129.08 172.708H127.493V174.295H129.08V172.708Z" fill="#F5F5F5"/>
<path d="M129.08 175.37H127.493V176.957H129.08V175.37Z" fill="#F5F5F5"/>
<path d="M129.08 180.69H127.493V182.277H129.08V180.69Z" fill="#F5F5F5"/>
<path d="M129.08 183.347H127.493V184.934H129.08V183.347Z" fill="#F5F5F5"/>
<path d="M129.08 186.01H127.493V187.597H129.08V186.01Z" fill="#F5F5F5"/>
<path d="M129.08 188.672H127.493V190.259H129.08V188.672Z" fill="#F5F5F5"/>
<path d="M131.599 132.813H130.012V134.4H131.599V132.813Z" fill="#F5F5F5"/>
<path d="M131.599 135.47H130.012V137.057H131.599V135.47Z" fill="#F5F5F5"/>
<path d="M131.599 138.133H130.012V139.72H131.599V138.133Z" fill="#F5F5F5"/>
<path d="M131.599 140.79H130.012V142.377H131.599V140.79Z" fill="#F5F5F5"/>
<path d="M131.599 143.452H130.012V145.039H131.599V143.452Z" fill="#F5F5F5"/>
<path d="M131.599 146.109H130.012V147.697H131.599V146.109Z" fill="#F5F5F5"/>
<path d="M131.599 148.772H130.012V150.359H131.599V148.772Z" fill="#F5F5F5"/>
<path d="M131.599 151.429H130.012V153.016H131.599V151.429Z" fill="#F5F5F5"/>
<path d="M131.599 154.092H130.012V155.679H131.599V154.092Z" fill="#F5F5F5"/>
<path d="M131.599 156.749H130.012V158.336H131.599V156.749Z" fill="#F5F5F5"/>
<path d="M131.599 159.411H130.012V160.998H131.599V159.411Z" fill="#F5F5F5"/>
<path d="M131.599 162.068H130.012V163.656H131.599V162.068Z" fill="#F5F5F5"/>
<path d="M131.599 164.731H130.012V166.318H131.599V164.731Z" fill="#F5F5F5"/>
<path d="M131.599 167.388H130.012V168.975H131.599V167.388Z" fill="#F5F5F5"/>
<path d="M131.599 172.708H130.012V174.295H131.599V172.708Z" fill="#F5F5F5"/>
<path d="M131.599 178.028H130.012V179.615H131.599V178.028Z" fill="#F5F5F5"/>
<path d="M131.599 180.69H130.012V182.277H131.599V180.69Z" fill="#F5F5F5"/>
<path d="M131.599 183.347H130.012V184.934H131.599V183.347Z" fill="#F5F5F5"/>
<path d="M131.599 186.01H130.012V187.597H131.599V186.01Z" fill="#F5F5F5"/>
<path d="M131.599 188.672H130.012V190.259H131.599V188.672Z" fill="#F5F5F5"/>
<path d="M116.291 147.978H114.703V149.565H116.291V147.978Z" fill="#F5F5F5"/>
<path d="M116.291 150.636H114.703V152.223H116.291V150.636Z" fill="#F5F5F5"/>
<path d="M116.291 153.298H114.703V154.885H116.291V153.298Z" fill="#F5F5F5"/>
<path d="M116.291 155.955H114.703V157.543H116.291V155.955Z" fill="#F5F5F5"/>
<path d="M116.291 158.618H114.703V160.205H116.291V158.618Z" fill="#F5F5F5"/>
<path d="M116.291 161.275H114.703V162.862H116.291V161.275Z" fill="#F5F5F5"/>
<path d="M116.291 169.257H114.703V170.844H116.291V169.257Z" fill="#F5F5F5"/>
<path d="M116.291 171.919H114.703V173.507H116.291V171.919Z" fill="#F5F5F5"/>
<path d="M116.291 174.577H114.703V176.164H116.291V174.577Z" fill="#F5F5F5"/>
<path d="M116.291 177.239H114.703V178.826H116.291V177.239Z" fill="#F5F5F5"/>
<path d="M116.291 179.896H114.703V181.484H116.291V179.896Z" fill="#F5F5F5"/>
<path d="M116.291 182.559H114.703V184.146H116.291V182.559Z" fill="#F5F5F5"/>
<path d="M116.291 185.216H114.703V186.803H116.291V185.216Z" fill="#F5F5F5"/>
<path d="M118.815 147.978H117.228V149.565H118.815V147.978Z" fill="#F5F5F5"/>
<path d="M118.815 150.636H117.228V152.223H118.815V150.636Z" fill="#F5F5F5"/>
<path d="M118.815 153.298H117.228V154.885H118.815V153.298Z" fill="#F5F5F5"/>
<path d="M118.815 155.955H117.228V157.543H118.815V155.955Z" fill="#F5F5F5"/>
<path d="M118.815 158.618H117.228V160.205H118.815V158.618Z" fill="#F5F5F5"/>
<path d="M118.815 161.275H117.228V162.862H118.815V161.275Z" fill="#F5F5F5"/>
<path d="M118.815 169.257H117.228V170.844H118.815V169.257Z" fill="#F5F5F5"/>
<path d="M118.815 171.919H117.228V173.507H118.815V171.919Z" fill="#F5F5F5"/>
<path d="M118.815 174.577H117.228V176.164H118.815V174.577Z" fill="#F5F5F5"/>
<path d="M118.815 177.239H117.228V178.826H118.815V177.239Z" fill="#F5F5F5"/>
<path d="M118.815 179.896H117.228V181.484H118.815V179.896Z" fill="#F5F5F5"/>
<path d="M118.815 182.559H117.228V184.146H118.815V182.559Z" fill="#F5F5F5"/>
<path d="M118.815 187.878H117.228V189.466H118.815V187.878Z" fill="#F5F5F5"/>
<path d="M202.527 136.264H200.939V137.851H202.527V136.264Z" fill="#F5F5F5"/>
<path d="M202.527 138.926H200.939V140.513H202.527V138.926Z" fill="#F5F5F5"/>
<path d="M202.527 141.583H200.939V143.171H202.527V141.583Z" fill="#F5F5F5"/>
<path d="M202.527 144.246H200.939V145.833H202.527V144.246Z" fill="#F5F5F5"/>
<path d="M202.527 146.903H200.939V148.49H202.527V146.903Z" fill="#F5F5F5"/>
<path d="M202.527 149.566H200.939V151.153H202.527V149.566Z" fill="#F5F5F5"/>
<path d="M202.527 152.223H200.939V153.81H202.527V152.223Z" fill="#F5F5F5"/>
<path d="M202.527 154.885H200.939V156.472H202.527V154.885Z" fill="#F5F5F5"/>
<path d="M202.527 157.542H200.939V159.13H202.527V157.542Z" fill="#F5F5F5"/>
<path d="M202.527 160.205H200.939V161.792H202.527V160.205Z" fill="#F5F5F5"/>
<path d="M202.527 162.862H200.939V164.449H202.527V162.862Z" fill="#F5F5F5"/>
<path d="M202.527 168.182H200.939V169.769H202.527V168.182Z" fill="#F5F5F5"/>
<path d="M202.527 170.844H200.939V172.431H202.527V170.844Z" fill="#F5F5F5"/>
<path d="M202.527 173.501H200.939V175.089H202.527V173.501Z" fill="#F5F5F5"/>
<path d="M202.527 176.164H200.939V177.751H202.527V176.164Z" fill="#F5F5F5"/>
<path d="M202.527 178.821H200.939V180.408H202.527V178.821Z" fill="#F5F5F5"/>
<path d="M202.527 181.484H200.939V183.071H202.527V181.484Z" fill="#F5F5F5"/>
<path d="M202.527 184.141H200.939V185.728H202.527V184.141Z" fill="#F5F5F5"/>
<path d="M202.527 186.803H200.939V188.39H202.527V186.803Z" fill="#F5F5F5"/>
<path d="M205.051 136.264H203.464V137.851H205.051V136.264Z" fill="#F5F5F5"/>
<path d="M205.051 138.926H203.464V140.513H205.051V138.926Z" fill="#F5F5F5"/>
<path d="M205.051 141.583H203.464V143.171H205.051V141.583Z" fill="#F5F5F5"/>
<path d="M205.051 144.246H203.464V145.833H205.051V144.246Z" fill="#F5F5F5"/>
<path d="M205.051 146.903H203.464V148.49H205.051V146.903Z" fill="#F5F5F5"/>
<path d="M205.051 149.566H203.464V151.153H205.051V149.566Z" fill="#F5F5F5"/>
<path d="M205.051 152.223H203.464V153.81H205.051V152.223Z" fill="#F5F5F5"/>
<path d="M205.051 154.885H203.464V156.472H205.051V154.885Z" fill="#F5F5F5"/>
<path d="M205.051 157.542H203.464V159.13H205.051V157.542Z" fill="#F5F5F5"/>
<path d="M205.051 160.205H203.464V161.792H205.051V160.205Z" fill="#F5F5F5"/>
<path d="M205.051 162.862H203.464V164.449H205.051V162.862Z" fill="#F5F5F5"/>
<path d="M205.051 165.525H203.464V167.112H205.051V165.525Z" fill="#F5F5F5"/>
<path d="M205.051 168.182H203.464V169.769H205.051V168.182Z" fill="#F5F5F5"/>
<path d="M205.051 170.844H203.464V172.431H205.051V170.844Z" fill="#F5F5F5"/>
<path d="M205.051 173.501H203.464V175.089H205.051V173.501Z" fill="#F5F5F5"/>
<path d="M205.051 176.164H203.464V177.751H205.051V176.164Z" fill="#F5F5F5"/>
<path d="M205.051 178.821H203.464V180.408H205.051V178.821Z" fill="#F5F5F5"/>
<path d="M205.051 181.484H203.464V183.071H205.051V181.484Z" fill="#F5F5F5"/>
<path d="M205.051 184.141H203.464V185.728H205.051V184.141Z" fill="#F5F5F5"/>
<path d="M205.051 186.803H203.464V188.39H205.051V186.803Z" fill="#F5F5F5"/>
<path d="M190.116 146.627H188.529V148.214H190.116V146.627Z" fill="#F5F5F5"/>
<path d="M190.116 149.284H188.529V150.871H190.116V149.284Z" fill="#F5F5F5"/>
<path d="M190.116 151.946H188.529V153.533H190.116V151.946Z" fill="#F5F5F5"/>
<path d="M190.116 154.604H188.529V156.191H190.116V154.604Z" fill="#F5F5F5"/>
<path d="M190.116 157.266H188.529V158.853H190.116V157.266Z" fill="#F5F5F5"/>
<path d="M190.116 159.923H188.529V161.51H190.116V159.923Z" fill="#F5F5F5"/>
<path d="M190.116 162.586H188.529V164.173H190.116V162.586Z" fill="#F5F5F5"/>
<path d="M190.116 165.243H188.529V166.83H190.116V165.243Z" fill="#F5F5F5"/>
<path d="M190.116 167.905H188.529V169.492H190.116V167.905Z" fill="#F5F5F5"/>
<path d="M190.116 170.563H188.529V172.15H190.116V170.563Z" fill="#F5F5F5"/>
<path d="M192.635 146.627H191.048V148.214H192.635V146.627Z" fill="#F5F5F5"/>
<path d="M192.635 149.284H191.048V150.871H192.635V149.284Z" fill="#F5F5F5"/>
<path d="M192.635 151.946H191.048V153.533H192.635V151.946Z" fill="#F5F5F5"/>
<path d="M192.635 154.604H191.048V156.191H192.635V154.604Z" fill="#F5F5F5"/>
<path d="M192.635 157.266H191.048V158.853H192.635V157.266Z" fill="#F5F5F5"/>
<path d="M192.635 159.923H191.048V161.51H192.635V159.923Z" fill="#F5F5F5"/>
<path d="M192.635 162.586H191.048V164.173H192.635V162.586Z" fill="#F5F5F5"/>
<path d="M192.635 165.243H191.048V166.83H192.635V165.243Z" fill="#F5F5F5"/>
<path d="M192.635 167.905H191.048V169.492H192.635V167.905Z" fill="#F5F5F5"/>
<path d="M128 218.911C182.826 218.911 227.272 216.316 227.272 213.115C227.272 209.914 182.826 207.319 128 207.319C73.1737 207.319 28.7283 209.914 28.7283 213.115C28.7283 216.316 73.1737 218.911 128 218.911Z" fill="#F5F5F5"/>
<path d="M216.146 209.372L209.06 174.08H206.515L199.255 209.372L194.048 212.562V213.504H221.184V212.562L216.146 209.372Z" fill="#F99942"/>
<path opacity="0.2" d="M221.353 212.562H194.217V213.75H221.353V212.562Z" fill="black"/>
<path opacity="0.2" d="M209.06 174.29H206.515L199.342 209.474H216.233L209.06 174.29Z" fill="black"/>
<path opacity="0.6" d="M214.677 201.728H200.945L203.418 189.44H212.178L214.631 201.492L214.677 201.728Z" fill="white"/>
<path d="M144.983 88.4224L140.457 90.112C140.119 89.856 141.824 74.496 141.824 74.496L139.08 74.0916C139.08 74.0916 134.441 90.0455 136.008 93.2711C138.056 97.449 147.098 93.2711 147.098 93.2711L144.983 88.4224Z" fill="#B97964"/>
<path d="M227.833 97.7507L229.94 88.5895L109.068 60.795L106.961 69.9562L227.833 97.7507Z" fill="#F99942"/>
<path opacity="0.6" d="M227.833 97.7507L229.94 88.5895L109.068 60.795L106.961 69.9562L227.833 97.7507Z" fill="white"/>
<path opacity="0.2" d="M228.718 93.9087L229.054 92.4467L108.182 64.6521L107.846 66.1141L228.718 93.9087Z" fill="black"/>
<path d="M112.128 66.3347C112.353 65.36 112.317 64.343 112.022 63.3871C111.727 62.4312 111.184 61.5704 110.449 60.8921L110.244 60.7027L109.22 60.462C109.123 60.4406 109.023 60.4582 108.939 60.511C108.856 60.5637 108.796 60.6474 108.774 60.7436L106.675 69.8931C106.664 69.9405 106.662 69.9897 106.67 70.0378C106.678 70.086 106.695 70.1321 106.72 70.1735C106.746 70.2149 106.78 70.2508 106.82 70.2792C106.859 70.3075 106.904 70.3277 106.952 70.3385L107.976 70.5791L108.247 70.4972C109.203 70.2067 110.066 69.6688 110.747 68.9378C111.429 68.2069 111.905 67.3089 112.128 66.3347Z" fill="#F99942"/>
<path opacity="0.2" d="M112.128 66.3347C112.353 65.36 112.317 64.343 112.022 63.3871C111.727 62.4312 111.184 61.5704 110.449 60.8921L110.244 60.7027L109.22 60.462C109.123 60.4406 109.023 60.4582 108.939 60.511C108.856 60.5637 108.796 60.6474 108.774 60.7436L106.675 69.8931C106.664 69.9405 106.662 69.9897 106.67 70.0378C106.678 70.086 106.695 70.1321 106.72 70.1735C106.746 70.2149 106.78 70.2508 106.82 70.2792C106.859 70.3075 106.904 70.3277 106.952 70.3385L107.976 70.5791L108.247 70.4972C109.203 70.2067 110.066 69.6688 110.747 68.9378C111.429 68.2069 111.905 67.3089 112.128 66.3347Z" fill="black"/>
<path d="M133.53 73.897L139.54 47.7389L137.329 47.2269L130.985 74.8186C130.971 74.8805 130.969 74.9446 130.979 75.0072C130.99 75.0699 131.012 75.1298 131.046 75.1836C131.08 75.2374 131.124 75.2839 131.176 75.3206C131.228 75.3573 131.286 75.3833 131.348 75.3972C131.415 75.4128 131.484 75.414 131.551 75.4007C131.618 75.3875 131.682 75.3601 131.738 75.3204L133.335 74.1786C133.43 74.1098 133.499 74.0104 133.53 73.897Z" fill="#F99942"/>
<path d="M157.286 79.36L163.328 53.2019L161.111 52.6899L154.773 80.2816C154.743 80.4059 154.765 80.5366 154.832 80.6451C154.899 80.7536 155.007 80.831 155.131 80.8602C155.197 80.8761 155.267 80.8775 155.334 80.8642C155.401 80.851 155.465 80.8234 155.52 80.7834L157.123 79.6416C157.206 79.5681 157.264 79.4692 157.286 79.36Z" fill="#F99942"/>
<path d="M181.048 84.823L187.059 58.665L184.847 58.153L178.504 85.7446C178.489 85.8065 178.487 85.8706 178.498 85.9333C178.508 85.9959 178.531 86.0558 178.565 86.1096C178.599 86.1634 178.643 86.21 178.695 86.2466C178.747 86.2833 178.805 86.3093 178.867 86.3232C178.934 86.3369 179.003 86.3372 179.07 86.324C179.136 86.3108 179.2 86.2844 179.256 86.2464L180.859 85.0995C180.951 85.0312 181.018 84.9338 181.048 84.823Z" fill="#F99942"/>
<path d="M204.8 90.2809L210.811 64.128L208.599 63.616L202.255 91.2077C202.233 91.3327 202.257 91.4617 202.324 91.5696C202.392 91.6775 202.497 91.7565 202.619 91.7913C202.686 91.8062 202.755 91.8066 202.822 91.7924C202.889 91.7783 202.953 91.75 203.008 91.7094L204.605 90.5677C204.702 90.4976 204.77 90.3962 204.8 90.2809Z" fill="#F99942"/>
<path d="M232.397 77.8802L234.504 68.719L113.632 40.9245L111.525 50.0857L232.397 77.8802Z" fill="#F99942"/>
<path opacity="0.7" d="M232.397 77.8802L234.504 68.719L113.632 40.9245L111.525 50.0857L232.397 77.8802Z" fill="white"/>
<path opacity="0.2" d="M233.287 74.033L233.623 72.571L112.751 44.7765L112.415 46.2385L233.287 74.033Z" fill="black"/>
<path d="M109.768 68.4339L115.963 41.472L113.751 40.96L107.223 69.3555C107.201 69.4805 107.225 69.6095 107.292 69.7174C107.36 69.8253 107.464 69.9043 107.587 69.9392C107.654 69.954 107.723 69.9544 107.79 69.9403C107.857 69.9261 107.921 69.8978 107.976 69.8572L109.578 68.7155C109.672 68.6459 109.739 68.5465 109.768 68.4339Z" fill="#F99942"/>
<path d="M116.695 46.464C116.919 45.4888 116.881 44.4719 116.585 43.5162C116.289 42.5604 115.746 41.6998 115.011 41.0214L114.806 40.832L113.782 40.5914C113.734 40.58 113.685 40.5781 113.637 40.5859C113.589 40.5937 113.543 40.6109 113.501 40.6366C113.46 40.6623 113.424 40.696 113.396 40.7357C113.367 40.7754 113.347 40.8203 113.336 40.8678L111.217 50.0224C111.205 50.0698 111.203 50.119 111.211 50.1671C111.219 50.2153 111.236 50.2614 111.262 50.3028C111.288 50.3443 111.321 50.3802 111.361 50.4085C111.401 50.4368 111.446 50.457 111.493 50.4678L112.517 50.7034L112.783 50.6266C113.744 50.3393 114.613 49.8029 115.3 49.0719C115.987 48.3408 116.468 47.4411 116.695 46.464Z" fill="#F99942"/>
<path opacity="0.1" d="M116.695 46.464C116.919 45.4888 116.881 44.4719 116.585 43.5162C116.289 42.5604 115.746 41.6998 115.011 41.0214L114.806 40.832L113.782 40.5914C113.734 40.58 113.685 40.5781 113.637 40.5859C113.589 40.5937 113.543 40.6109 113.501 40.6366C113.46 40.6623 113.424 40.696 113.396 40.7357C113.367 40.7754 113.347 40.8203 113.336 40.8678L111.217 50.0224C111.205 50.0698 111.203 50.119 111.211 50.1671C111.219 50.2153 111.236 50.2614 111.262 50.3028C111.288 50.3443 111.321 50.3802 111.361 50.4085C111.401 50.4368 111.446 50.457 111.493 50.4678L112.517 50.7034L112.783 50.6266C113.744 50.3393 114.613 49.8029 115.3 49.0719C115.987 48.3408 116.468 47.4411 116.695 46.464Z" fill="white"/>
<path d="M159.872 92.16C159.601 92.133 159.329 92.133 159.058 92.16C157.083 92.3831 155.124 92.725 153.19 93.184C148.797 94.1108 143.974 95.3549 143.974 95.3549L141.824 89.088C141.824 89.088 155.991 80.896 158.29 81.5668C158.29 81.5668 162.135 92.5031 159.872 92.16Z" fill="#263238"/>
<path d="M192.384 98.5344C192.384 98.5344 196.183 102.912 195.753 108.544C195.323 114.176 181.023 122.88 181.023 122.88L179.2 120.064C179.2 120.064 190.592 110.464 190.848 108.544C191.104 106.624 188.483 102.4 188.483 102.4L192.384 98.5344Z" fill="#B97964"/>
<path d="M179.712 119.081C179.712 119.081 182.042 122.204 181.929 122.604C181.816 123.003 179.932 124.175 179.932 124.175C179.932 124.175 180.25 126.039 180.25 126.377C180.25 127.212 178.76 128.256 178.376 128C176.999 127.078 176.497 124.585 176.241 123.443C175.985 122.302 179.041 118.738 179.712 119.081Z" fill="#F99942"/>
<path opacity="0.7" d="M179.712 119.081C179.712 119.081 182.042 122.204 181.929 122.604C181.816 123.003 179.932 124.175 179.932 124.175C179.932 124.175 180.25 126.039 180.25 126.377C180.25 127.212 178.76 128.256 178.376 128C176.999 127.078 176.497 124.585 176.241 123.443C175.985 122.302 179.041 118.738 179.712 119.081Z" fill="white"/>
<path d="M158.966 209.935L154.813 210.371L154.035 201.416L158.187 200.975L158.966 209.935Z" fill="#B97964"/>
<path d="M179.692 209.633H175.667L175.334 200.31H179.364L179.692 209.633Z" fill="#B97964"/>
<path d="M175.104 209.167H179.994C180.074 209.167 180.152 209.194 180.214 209.244C180.277 209.295 180.32 209.365 180.337 209.444L181.13 213.028C181.147 213.115 181.144 213.204 181.122 213.29C181.1 213.376 181.06 213.456 181.004 213.524C180.947 213.592 180.877 213.648 180.797 213.686C180.717 213.724 180.63 213.744 180.541 213.745C178.959 213.719 177.807 213.622 175.821 213.622C174.597 213.622 170.906 213.75 169.216 213.75C167.526 213.75 167.306 212.081 167.997 211.927C171.1 211.251 173.435 210.314 174.428 209.423C174.612 209.254 174.854 209.162 175.104 209.167Z" fill="#263238"/>
<path d="M173.778 209.874C173.505 209.895 173.232 209.822 173.005 209.669C172.931 209.607 172.875 209.528 172.84 209.439C172.805 209.349 172.793 209.252 172.805 209.157C172.803 209.102 172.818 209.047 172.847 208.999C172.876 208.952 172.918 208.914 172.969 208.891C173.414 208.661 174.715 209.459 174.858 209.551C174.875 209.559 174.889 209.573 174.898 209.589C174.906 209.606 174.908 209.625 174.904 209.644C174.902 209.663 174.894 209.681 174.881 209.695C174.868 209.71 174.851 209.721 174.833 209.725C174.488 209.814 174.134 209.863 173.778 209.874ZM173.179 209.039C173.136 209.035 173.093 209.044 173.056 209.065C173.03 209.065 173 209.101 172.995 209.178C172.987 209.241 172.994 209.305 173.016 209.365C173.039 209.425 173.075 209.478 173.123 209.521C173.574 209.725 174.087 209.751 174.556 209.592C174.137 209.32 173.67 209.132 173.179 209.039Z" fill="#F99942"/>
<path d="M174.807 209.731H174.761C174.346 209.505 173.542 208.62 173.624 208.195C173.638 208.124 173.677 208.06 173.733 208.014C173.789 207.968 173.859 207.943 173.931 207.944C174.004 207.934 174.077 207.94 174.147 207.961C174.217 207.983 174.281 208.018 174.336 208.067C174.802 208.445 174.899 209.603 174.904 209.659C174.904 209.676 174.9 209.693 174.892 209.708C174.884 209.724 174.873 209.736 174.858 209.746C174.84 209.746 174.822 209.741 174.807 209.731ZM173.998 208.097H173.952C173.829 208.097 173.819 208.169 173.814 208.195C173.762 208.456 174.274 209.126 174.689 209.439C174.663 208.98 174.497 208.54 174.213 208.179C174.154 208.126 174.077 208.096 173.998 208.097Z" fill="#F99942"/>
<path d="M154.373 209.039H159.263C159.343 209.039 159.421 209.066 159.483 209.116C159.546 209.167 159.589 209.237 159.606 209.316L160.399 212.9C160.416 212.987 160.413 213.076 160.391 213.162C160.369 213.248 160.329 213.328 160.273 213.396C160.216 213.464 160.146 213.52 160.066 213.558C159.986 213.596 159.899 213.616 159.81 213.617C158.228 213.591 157.076 213.494 155.09 213.494C153.866 213.494 150.175 213.622 148.485 213.622C146.795 213.622 146.575 211.953 147.266 211.799C150.369 211.123 152.704 210.186 153.697 209.295C153.881 209.126 154.123 209.034 154.373 209.039Z" fill="#263238"/>
<path d="M153.042 209.746C152.769 209.767 152.496 209.694 152.269 209.541C152.195 209.479 152.139 209.4 152.104 209.311C152.069 209.221 152.057 209.124 152.069 209.029C152.067 208.974 152.082 208.919 152.111 208.871C152.14 208.824 152.182 208.786 152.233 208.763C152.678 208.532 153.979 209.331 154.122 209.423C154.139 209.431 154.153 209.444 154.162 209.461C154.17 209.478 154.172 209.497 154.168 209.516C154.166 209.535 154.158 209.553 154.145 209.567C154.132 209.582 154.115 209.592 154.097 209.597C153.752 209.686 153.398 209.735 153.042 209.746ZM152.443 208.896C152.4 208.891 152.357 208.9 152.32 208.922C152.294 208.922 152.264 208.957 152.259 209.034C152.251 209.097 152.258 209.162 152.28 209.222C152.303 209.281 152.339 209.335 152.387 209.377C152.838 209.582 153.35 209.608 153.82 209.449C153.401 209.177 152.934 208.989 152.443 208.896Z" fill="#F99942"/>
<path d="M154.071 209.603H154.025C153.61 209.377 152.806 208.491 152.888 208.067C152.903 207.996 152.941 207.932 152.997 207.886C153.053 207.84 153.123 207.815 153.196 207.816C153.268 207.806 153.341 207.812 153.411 207.833C153.481 207.855 153.545 207.89 153.6 207.939C154.066 208.317 154.163 209.475 154.168 209.531C154.169 209.548 154.165 209.565 154.157 209.58C154.148 209.595 154.137 209.608 154.122 209.618C154.104 209.618 154.086 209.613 154.071 209.603ZM153.262 207.969H153.216C153.093 207.969 153.083 208.041 153.078 208.067C153.027 208.328 153.539 208.998 153.953 209.311C153.927 208.852 153.761 208.412 153.477 208.051C153.419 207.997 153.342 207.968 153.262 207.969Z" fill="#F99942"/>
<path opacity="0.2" d="M158.187 200.975L154.035 201.416L154.44 206.034L158.592 205.599L158.187 200.975Z" fill="black"/>
<path opacity="0.2" d="M179.364 200.315H175.334L175.509 205.122H179.538L179.364 200.315Z" fill="black"/>
<path d="M177.7 118.528H156.339C154.291 129.618 147.953 168.868 152.515 203.843L159.744 202.947C159.744 202.947 159.073 156.518 165.458 139.356C166.195 148.541 167.066 158.3 167.823 163.512C169.682 176.312 173.66 204.288 173.66 204.288H181.023C181.023 204.288 179.517 177.51 178.821 164.931C178.058 151.275 177.731 121.344 177.7 118.528Z" fill="#00A688"/>
<path opacity="0.2" d="M165.458 139.356C164.407 142.365 163.609 145.456 163.072 148.598C162.473 140.406 164.864 131.753 164.864 131.753L165.458 139.356Z" fill="black"/>
<path d="M151.685 205.527L160.635 204.196L160.364 201.718L151.05 202.936L151.685 205.527Z" fill="#F99942"/>
<path opacity="0.6" d="M151.685 205.527L160.635 204.196L160.364 201.718L151.05 202.936L151.685 205.527Z" fill="white"/>
<path d="M172.774 204.349H181.458V201.754L172.447 201.585L172.774 204.349Z" fill="#F99942"/>
<path opacity="0.6" d="M172.774 204.349H181.458V201.754L172.447 201.585L172.774 204.349Z" fill="white"/>
<path d="M156.16 118.784H177.664V121.344L155.884 121.078L156.16 118.784Z" fill="#263238"/>
<path d="M170.752 117.632H169.984V122.179H170.752V117.632Z" fill="#F99942"/>
<path d="M159.872 117.632H159.104V122.179H159.872V117.632Z" fill="#F99942"/>
<path opacity="0.2" d="M159.058 92.16C157.083 92.3831 155.124 92.725 153.19 93.184C153.984 89.7536 158.208 86.9479 158.208 86.9479L159.058 92.16Z" fill="black"/>
<path d="M165.965 118.339H161.987V121.206H165.965V118.339Z" fill="white"/>
<path d="M182.001 83.4815C182.001 83.4815 181.35 86.7481 180.557 91.4943C180.198 93.6499 179.809 96.1023 179.435 98.7084C178.473 105.426 177.623 113.07 177.7 118.784H156.16C156.16 118.784 154.762 94.7763 158.29 81.5667C158.29 81.5667 171.878 80.9267 182.001 83.4815Z" fill="#263238"/>
<path d="M174.274 82.0481C172.313 83.8298 167.511 83.1693 167.511 83.1693C167.511 83.1693 164.511 82.3501 165.14 81.4132C166.907 81.1213 167.762 80.297 168.115 79.2423C168.309 78.5885 168.369 77.9027 168.294 77.225C168.265 76.8472 168.215 76.4712 168.146 76.0986L174.08 71.6801C173.307 74.6036 172.354 79.9437 174.274 82.0481Z" fill="#B97964"/>
<path opacity="0.2" d="M172.713 74.496C172.477 78.08 169.549 79.0425 168.105 79.2422C168.298 78.5884 168.359 77.9026 168.284 77.2249L172.713 74.496Z" fill="black"/>
<path d="M173.399 79.7849L167.721 82.3449L167.388 80.2969L165.304 81.0291C164.939 81.1555 164.628 81.4022 164.421 81.7287C164.215 82.0552 164.125 82.4422 164.168 82.8262L164.398 85.079L167.281 83.502L168.714 85.55L175.534 82.2681L173.399 79.7849Z" fill="#263238"/>
<path opacity="0.2" d="M173.399 79.7849L167.721 82.3449L167.388 80.2969L165.304 81.0291C164.939 81.1555 164.628 81.4022 164.421 81.7287C164.215 82.0552 164.125 82.4422 164.168 82.8262L164.398 85.079L167.281 83.502L168.714 85.55L175.534 82.2681L173.399 79.7849Z" fill="white"/>
<path d="M179.794 82.9849C179.794 82.9849 174.771 99.8809 179.205 102.912C179.205 102.912 178.591 116.808 177.705 118.784C170.529 119.173 163.336 119.173 156.16 118.784C155.579 113.514 155.352 108.212 155.479 102.912C155.479 102.912 157.097 100.864 157.097 99.328C157.097 97.792 158.034 85.504 161.106 81.408H162.816C162.816 81.408 160.343 86.4409 160.681 90.88C160.681 90.88 168.192 92.16 173.655 91.392C173.655 91.392 175.273 85.4169 177.065 82.432L179.794 82.9849Z" fill="#00A688"/>
<path opacity="0.2" d="M159.872 103.936H172.544C172.544 103.936 173.312 114.345 164.598 113.664C157.937 113.152 159.872 103.936 159.872 103.936Z" fill="black"/>
<path d="M164.086 62.3104C164.086 62.3104 162.391 67.6608 164.966 70.2259C167.542 72.7911 169.149 62.592 169.149 62.592L164.086 62.3104Z" fill="#263238"/>
<path d="M173.507 74.9261C173.282 75.2802 173.022 75.6097 172.728 75.9091C171.976 76.7152 170.98 77.2519 169.893 77.4369C168.806 77.6219 167.689 77.4449 166.712 76.9331C165.439 76.2945 164.454 75.1967 163.958 73.8611C163.887 73.6753 163.828 73.4855 163.779 73.2928C163.658 72.8212 163.567 72.3424 163.507 71.8592C163.041 68.3111 163.82 63.5853 167.224 62.1312C167.882 61.847 168.59 61.6954 169.307 61.6852C170.024 61.6751 170.735 61.8064 171.401 62.0718C172.067 62.3373 172.674 62.7315 173.188 63.2319C173.701 63.7324 174.11 64.3292 174.392 64.9882C174.735 65.776 174.884 66.6345 174.828 67.4919C174.669 70.8864 174.7 73.0829 173.507 74.9261Z" fill="#B97964"/>
<path opacity="0.1" d="M173.507 74.9261C173.283 75.2802 173.022 75.6097 172.728 75.9091C171.976 76.7152 170.98 77.2519 169.893 77.4369C168.806 77.6219 167.689 77.4449 166.712 76.9331C165.439 76.2945 164.454 75.1967 163.958 73.8611C163.887 73.6753 163.828 73.4855 163.779 73.2928C163.658 72.8212 163.567 72.3424 163.507 71.8592C164.101 72.2096 164.762 72.4279 165.448 72.4992C165.916 72.4517 166.385 72.5895 166.753 72.8832C168.044 72.1101 170.122 72.0691 171.08 71.8285C172.037 71.5879 172.288 67.8861 172.288 67.8861L173.507 69.2224C174.034 71.6442 173.978 73.5232 173.507 74.9261Z" fill="black"/>
<path d="M168.786 68.7104C168.786 69.0278 168.622 69.2992 168.407 69.2992C168.192 69.2992 168.018 69.0381 168.013 68.7155C168.008 68.393 168.182 68.1267 168.392 68.1267C168.602 68.1267 168.776 68.3776 168.786 68.7104Z" fill="#263238"/>
<path d="M165.115 68.7564C165.14 69.079 164.946 69.3452 164.736 69.3452C164.526 69.3452 164.352 69.0841 164.342 68.7615C164.331 68.439 164.511 68.1727 164.721 68.1727C164.931 68.1727 165.11 68.4492 165.115 68.7564Z" fill="#263238"/>
<path d="M166.282 68.8999C165.902 69.8983 165.385 70.8391 164.746 71.6954C164.971 71.8531 165.228 71.9591 165.499 72.006C165.77 72.053 166.048 72.0395 166.313 71.9668L166.282 68.8999Z" fill="#A24E3F"/>
<path d="M169.907 67.5072C169.873 67.5117 169.838 67.5076 169.806 67.495C169.774 67.4825 169.745 67.462 169.723 67.4355C169.581 67.2428 169.396 67.086 169.182 66.9776C168.969 66.8691 168.733 66.812 168.494 66.8108C168.469 66.8137 168.444 66.8113 168.42 66.804C168.396 66.7966 168.373 66.7844 168.354 66.7681C168.335 66.7518 168.319 66.7317 168.308 66.7091C168.297 66.6865 168.291 66.6619 168.289 66.6367C168.285 66.5873 168.3 66.5381 168.332 66.4998C168.363 66.4615 168.409 66.4371 168.458 66.4319C168.757 66.4295 169.052 66.4978 169.319 66.6313C169.586 66.7648 169.817 66.9597 169.994 67.2C170.026 67.2387 170.041 67.2885 170.036 67.3384C170.032 67.3883 170.007 67.4342 169.969 67.4662C169.95 67.4829 169.93 67.4967 169.907 67.5072Z" fill="#263238"/>
<path d="M166.881 73.641C167.35 73.7101 167.828 73.6636 168.274 73.5057C168.72 73.3477 169.121 73.0831 169.441 72.7347C169.459 72.7151 169.468 72.6892 169.467 72.6628C169.465 72.6363 169.453 72.6116 169.434 72.594C169.414 72.5763 169.388 72.5672 169.362 72.5686C169.335 72.5701 169.311 72.5819 169.293 72.6016C168.99 72.9145 168.619 73.1523 168.208 73.2963C167.798 73.4403 167.359 73.4865 166.928 73.4311C166.902 73.4291 166.877 73.4363 166.856 73.4513C166.835 73.4663 166.821 73.4882 166.815 73.513C166.813 73.5258 166.813 73.5389 166.816 73.5515C166.819 73.5642 166.824 73.5761 166.832 73.5866C166.84 73.5971 166.849 73.6059 166.86 73.6126C166.872 73.6194 166.884 73.6238 166.897 73.6256L166.881 73.641Z" fill="#263238"/>
<path d="M163.523 67.5123C163.486 67.5223 163.447 67.5223 163.41 67.5123C163.365 67.4911 163.329 67.4531 163.311 67.4064C163.293 67.3597 163.294 67.3077 163.313 67.2614C163.435 66.9839 163.621 66.7399 163.858 66.5501C164.094 66.3602 164.372 66.2302 164.67 66.1709C164.72 66.165 164.77 66.1788 164.81 66.2094C164.85 66.2399 164.877 66.2849 164.885 66.3347C164.889 66.3846 164.875 66.4344 164.845 66.4742C164.814 66.514 164.77 66.541 164.721 66.5498C164.488 66.6033 164.271 66.7104 164.087 66.8623C163.903 67.0143 163.757 67.2071 163.661 67.4253C163.645 67.4485 163.625 67.4682 163.601 67.4832C163.577 67.4982 163.55 67.5081 163.523 67.5123Z" fill="#263238"/>
<path d="M171.832 62.5818L171.556 64.3277C171.848 64.4804 172.072 64.7374 172.183 65.0477C172.294 65.358 172.284 65.6987 172.155 66.0019C171.535 67.456 172.298 69.7805 173.399 70.7328C173.399 70.7328 173.455 70.0928 173.988 70.2618C174.52 70.4307 174.259 73.7587 173.153 75.3152C173.153 75.3152 174.797 73.9328 175.816 70.4615C176.758 67.2563 176.958 64.5632 176.328 63.2935L171.832 62.5818Z" fill="#263238"/>
<path d="M176.256 63.7951C176.256 63.7951 178.033 61.0508 173.251 59.607C168.468 58.1631 165.14 60.2162 165.14 60.2162C165.14 60.2162 162.028 63.9334 166.164 64.5426C170.225 65.1314 176.256 63.7951 176.256 63.7951Z" fill="#263238"/>
<path d="M176.963 70.8198C176.532 71.7275 175.758 72.4272 174.812 72.7654C173.558 73.2057 172.846 72.0998 173.123 70.871C173.373 69.7753 174.326 68.1984 175.626 68.311C176.927 68.4237 177.48 69.6985 176.963 70.8198Z" fill="#B97964"/>
<path d="M174.3 64.1792C174.3 64.1792 172.907 77.4349 166.175 76.5594L166.984 77.1072C166.984 77.1072 173.035 77.9725 175.176 64.3072L174.3 64.1792Z" fill="#263238"/>
<path opacity="0.2" d="M174.3 64.1792C174.3 64.1792 172.907 77.4349 166.175 76.5594L166.984 77.1072C166.984 77.1072 173.035 77.9725 175.176 64.3072L174.3 64.1792Z" fill="black"/>
<path d="M177.541 65.2953C175.555 64.7833 169.088 65.8636 166.047 65.7305C163.005 65.5974 162.017 65.1007 161.521 64.6707C161.024 64.2406 162.847 63.6467 162.847 63.6467C162.847 63.6467 163.087 59.0387 166.866 56.9292C168.017 56.3108 169.293 55.9607 170.598 55.9052C171.589 55.8181 172.586 55.9312 173.532 56.238C178.099 57.774 177.751 63.918 177.751 63.918C177.751 63.918 179.533 65.7817 177.541 65.2953Z" fill="#00A688"/>
<path opacity="0.2" d="M177.541 65.2954C175.554 64.7834 169.088 65.8637 166.047 65.7306C163.005 65.5975 162.017 65.1009 161.521 64.6708C161.024 64.2407 162.847 63.6468 162.847 63.6468C162.847 63.6468 164.746 64.9473 166.692 64.5786C168.637 64.21 174.244 62.6791 177.756 63.9181C177.756 63.9437 179.533 65.7818 177.541 65.2954Z" fill="black"/>
<path opacity="0.2" d="M173.537 56.2432C171.597 56.5555 169.953 58.3373 169.216 60.0115C168.223 62.2285 164.756 64.7066 165.202 59.8067C165.253 59.2385 165.429 58.6884 165.716 58.1956C166.004 57.7027 166.396 57.2792 166.866 56.9549C168.017 56.3364 169.293 55.9864 170.598 55.9309C171.589 55.8364 172.589 55.9426 173.537 56.2432Z" fill="black"/>
<path d="M145.597 95.8669L142.228 88.0333L140.764 89.1034L143.478 96.2765L145.597 95.8669Z" fill="#263238"/>
<path opacity="0.2" d="M145.597 95.8669L142.228 88.0333L140.764 89.1034L143.478 96.2765L145.597 95.8669Z" fill="white"/>
<path d="M139.54 67.8143C139.54 67.8143 139.351 69.2531 139.945 69.4015C141.007 69.7015 142.088 69.929 143.181 70.0825C143.693 70.0825 144.041 68.0345 144.041 67.8143C144.041 67.5942 139.986 66.3347 139.54 67.8143Z" fill="#F99942"/>
<path opacity="0.7" d="M139.54 67.8143C139.54 67.8143 139.351 69.2531 139.945 69.4015C141.007 69.7015 142.088 69.929 143.181 70.0825C143.693 70.0825 144.041 68.0345 144.041 67.8143C144.041 67.5942 139.986 66.3347 139.54 67.8143Z" fill="white"/>
<path opacity="0.2" d="M180.557 91.4944C180.198 93.6499 179.809 96.1024 179.435 98.7085C177.746 95.6006 179.092 90.4294 179.092 90.4294L180.557 91.4944Z" fill="black"/>
<path d="M182.001 83.4816C182.001 83.4816 185.027 84.48 195.753 102.057L189.568 105.856C189.568 105.856 181.827 95.232 179.794 94.72C179.794 94.72 177.249 85.9545 182.001 83.4816Z" fill="#263238"/>
<path d="M195.456 100.951L188.483 105.856L189.824 107.075L196.291 102.938L195.456 100.951Z" fill="#263238"/>
<path opacity="0.2" d="M195.456 100.951L188.483 105.856L189.824 107.075L196.291 102.938L195.456 100.951Z" fill="white"/>
<path d="M28.0677 213.75H31.7695L40.3046 136.52H36.6028L28.0677 213.75Z" fill="#263238"/>
<path opacity="0.1" d="M37.9545 157.732L34.99 184.474L31.7695 213.504H28.0677L31.2882 184.453L34.5343 155.136H34.5394L37.9545 157.732Z" fill="white"/>
<path d="M89.093 213.75H92.7897L101.325 136.52H97.6281L89.093 213.75Z" fill="#263238"/>
<path opacity="0.1" d="M94.3205 199.798L92.7897 213.504H89.093L90.9055 197.181L94.3205 199.798Z" fill="white"/>
<path d="M31.2882 184.617H96.0357L104.893 104.479H40.1458L31.2882 184.617Z" fill="#263238"/>
<path opacity="0.1" d="M73.8559 184.832H31.2882L34.5394 155.32L37.9544 157.932L73.8559 184.832Z" fill="white"/>
<path d="M117.181 213.75H113.48L104.945 136.52H108.641L117.181 213.75Z" fill="#263238"/>
<path opacity="0.2" d="M117.181 213.75H113.48L104.945 136.52H108.641L117.181 213.75Z" fill="white"/>
<path d="M56.1561 213.75H52.4595L43.9244 136.52H47.6211L56.1561 213.75Z" fill="#263238"/>
<path opacity="0.2" d="M56.1561 213.75H52.4595L43.9244 136.52H47.6211L56.1561 213.75Z" fill="white"/>
<path d="M113.961 184.617H49.2133L40.3557 104.479H105.103L113.961 184.617Z" fill="#F99942"/>
<path opacity="0.6" d="M113.961 184.617H49.2133L40.3557 104.479H105.103L113.961 184.617Z" fill="white"/>
<path d="M105.083 104.448L105.876 111.616H41.1544L40.3608 104.448H105.083Z" fill="#F99942"/>
<path opacity="0.2" d="M105.083 104.448L105.876 111.616H41.1544L40.3608 104.448H105.083Z" fill="white"/>
<path d="M46.295 104.448L44.9075 111.58L44.9023 111.616H42.7417L42.7468 111.58L44.1343 104.448H46.295Z" fill="#263238"/>
<path d="M53.079 104.448L51.6864 111.58L51.6813 111.616H49.5206L49.5258 111.58L50.9184 104.448H53.079Z" fill="#263238"/>
<path d="M59.8578 104.448L58.4703 111.58L58.4652 111.616H56.3046L56.3097 111.58L57.6972 104.448H59.8578Z" fill="#263238"/>
<path d="M66.6419 104.448L65.2493 111.58L65.2441 111.616H63.0886L63.0989 111.58L64.4864 104.448H66.6419Z" fill="#263238"/>
<path d="M73.4258 104.448L72.0383 111.58L72.0332 111.616H69.8726L69.8777 111.58L71.2652 104.448H73.4258Z" fill="#263238"/>
<path d="M80.2099 104.448L78.8173 111.58L78.8121 111.616H76.6566L76.6617 111.58L78.0493 104.448H80.2099Z" fill="#263238"/>
<path d="M86.9887 104.448L85.6012 111.58L85.5961 111.616H83.4406L83.4457 111.58L84.8332 104.448H86.9887Z" fill="#263238"/>
<path d="M93.7779 104.448L92.3853 111.58L92.3801 111.616H90.2246L90.2297 111.58L91.6173 104.448H93.7779Z" fill="#263238"/>
<path d="M100.557 104.448L99.1693 111.58L99.1642 111.616H97.0035L97.0087 111.58L98.4013 104.448H100.557Z" fill="#263238"/>
<path d="M105.175 105.272L105.876 111.616H103.803L105.175 105.272Z" fill="#263238"/>
<path d="M49.2492 184.832L48.4556 177.664H113.177L113.966 184.832H49.2492Z" fill="#F99942"/>
<path opacity="0.2" d="M49.2492 184.832L48.4556 177.664H113.177L113.966 184.832H49.2492Z" fill="white"/>
<path d="M108.037 184.832L109.425 177.7L109.43 177.664H111.59L111.585 177.7L110.193 184.832H108.037Z" fill="#263238"/>
<path d="M101.253 184.832L102.646 177.7L102.651 177.664H104.806L104.801 177.7L103.414 184.832H101.253Z" fill="#263238"/>
<path d="M94.4741 184.832L95.8616 177.7L95.8668 177.664H98.0274L98.0223 177.7L96.6296 184.832H94.4741Z" fill="#263238"/>
<path d="M87.6902 184.832L89.0828 177.7L89.0879 177.664H91.2383L91.2332 177.7L89.8457 184.832H87.6902Z" fill="#263238"/>
<path d="M80.9061 184.832L82.2936 177.7L82.2988 177.664H84.4594L84.4543 177.7L83.0616 184.832H80.9061Z" fill="#263238"/>
<path d="M74.1222 184.832L75.5148 177.7L75.5199 177.664H77.6755L77.6703 177.7L76.2828 184.832H74.1222Z" fill="#263238"/>
<path d="M67.3433 184.832L68.7308 177.7L68.7359 177.664H70.8914L70.8863 177.7L69.4937 184.832H67.3433Z" fill="#263238"/>
<path d="M60.5542 184.832L61.9417 177.7L61.952 177.664H64.1075L64.1024 177.7L62.7148 184.832H60.5542Z" fill="#263238"/>
<path d="M53.7753 184.832L55.1628 177.7L55.1679 177.664H57.3285L57.3183 177.7L55.9308 184.832H53.7753Z" fill="#263238"/>
<path d="M49.157 184.008L48.4556 177.664H50.5292L49.157 184.008Z" fill="#263238"/>
<path d="M65.3464 133.202L60.0472 145.695L61.3682 160.579L54.1797 171.52H55.7208L63.667 161.725L64.7832 152.131L71.4495 161.792L70.7531 171.52H72.3659L74.0606 159.672L68.0754 147.18L72.5912 138.737L65.3464 133.202Z" fill="#F99942"/>
<path d="M68.2649 136.704C68.2649 136.704 69.3196 131.251 71.4546 130.734C72.2124 130.55 74.885 133.13 74.8697 134.948C74.8543 136.765 69.1199 137.81 69.1199 137.81L68.2649 136.704Z" fill="#F99942"/>
<path d="M65.3465 133.202C65.3465 133.202 58.8492 132.69 57.943 132.951C57.0367 133.212 57.7177 139.873 57.7177 139.873L58.7929 140.165C58.7929 140.165 58.7263 134.682 59.054 134.687C59.3817 134.692 64.9778 136.299 64.9778 136.299L65.3465 133.202Z" fill="#F99942"/>
<path d="M72.5964 138.721C73.3285 139.264 71.0604 148.506 71.0604 148.506L73.2876 153.349L72.7756 153.672C72.7756 153.672 69.5653 149.576 69.1916 148.68C68.4338 146.908 69.8265 140.861 69.8265 140.861L72.5964 138.721Z" fill="#F99942"/>
<path d="M82.6213 162.458L83.164 161.7L51.0309 132.5L50.4882 133.253L82.6213 162.458Z" fill="#F99942"/>
<path d="M83.0361 159.775L81.1315 162.166C81.1315 162.166 83.8143 165.064 86.0415 164.895C86.0415 164.895 86.0159 162.76 83.0361 159.775Z" fill="#F99942"/>
<path d="M72.8166 152.924C72.8166 152.924 74.6802 153.472 74.5983 153.974C74.5164 154.476 74.2348 155.254 73.9174 155.295C73.5999 155.336 72.7551 153.672 72.7551 153.672L72.8166 152.924Z" fill="#F99942"/>
<path d="M57.8048 139.264C57.8048 139.264 57.5078 140.134 58.4652 141.112C59.4227 142.09 59.8374 141.112 59.8374 141.112L57.8048 139.264Z" fill="#F99942"/>
<path d="M51.4764 171.52H106.496L103.485 170.086C103.485 170.086 100.552 165.012 98.9593 163.86C97.367 162.708 94.1619 159.964 93.1276 159.764C92.0934 159.565 91.7145 157.537 90.7161 157.537C89.7177 157.537 84.7411 164.879 84.7411 164.879C84.2367 165.644 83.5642 166.283 82.775 166.748C81.6947 167.26 79.8822 170.061 79.8822 170.061C79.8822 170.061 63.5545 170.496 51.4764 171.52Z" fill="#F99942"/>
<g opacity="0.2">
<path opacity="0.2" d="M65.3464 133.202L60.0472 145.695L61.3682 160.579L54.1797 171.52H55.7208L63.667 161.725L64.7832 152.131L71.4495 161.792L70.7531 171.52H72.3659L74.0606 159.672L68.0754 147.18L72.5912 138.737L65.3464 133.202Z" fill="black"/>
<path opacity="0.2" d="M68.2648 136.704C68.2648 136.704 69.3195 131.251 71.4545 130.734C72.2123 130.55 74.8849 133.13 74.8696 134.948C74.8542 136.765 69.1198 137.81 69.1198 137.81L68.2648 136.704Z" fill="black"/>
<path opacity="0.2" d="M65.3465 133.202C65.3465 133.202 58.8492 132.69 57.943 132.951C57.0367 133.212 57.7177 139.873 57.7177 139.873L58.7929 140.165C58.7929 140.165 58.7263 134.682 59.054 134.687C59.3817 134.692 64.9778 136.299 64.9778 136.299L65.3465 133.202Z" fill="black"/>
<path opacity="0.2" d="M72.5963 138.721C73.3284 139.264 71.0603 148.506 71.0603 148.506L73.2875 153.349L72.7755 153.672C72.7755 153.672 69.5652 149.576 69.1915 148.68C68.4337 146.908 69.8263 140.861 69.8263 140.861L72.5963 138.721Z" fill="black"/>
<path opacity="0.2" d="M82.6213 162.458L83.164 161.7L51.0309 132.5L50.4882 133.253L82.6213 162.458Z" fill="black"/>
<path opacity="0.2" d="M83.036 159.775L81.1313 162.166C81.1313 162.166 83.8142 165.064 86.0414 164.895C86.0414 164.895 86.0158 162.76 83.036 159.775Z" fill="black"/>
<path opacity="0.2" d="M72.8164 152.924C72.8164 152.924 74.6801 153.472 74.5982 153.974C74.5163 154.476 74.2347 155.254 73.9172 155.295C73.5998 155.336 72.755 153.672 72.755 153.672L72.8164 152.924Z" fill="black"/>
<path opacity="0.2" d="M57.8046 139.264C57.8046 139.264 57.5077 140.134 58.4651 141.112C59.4226 142.09 59.8373 141.112 59.8373 141.112L57.8046 139.264Z" fill="black"/>
<path opacity="0.2" d="M51.4763 171.52H106.496L103.485 170.086C103.485 170.086 100.552 165.012 98.9592 163.86C97.3669 162.708 94.1618 159.964 93.1275 159.764C92.0933 159.565 91.7144 157.537 90.716 157.537C89.7176 157.537 84.741 164.879 84.741 164.879C84.2365 165.644 83.5641 166.283 82.7749 166.748C81.6946 167.26 79.8821 170.061 79.8821 170.061C79.8821 170.061 63.5544 170.496 51.4763 171.52Z" fill="black"/>
</g>
<path d="M133.315 198.656L128.256 205.153L126.443 204.877L131.779 198.656H133.315Z" fill="#00A688"/>
<path opacity="0.3" d="M133.315 198.656L128.256 205.153L126.443 204.877L131.779 198.656H133.315Z" fill="black"/>
<path d="M131.779 192.512L126.72 199.009L124.907 198.733L130.243 192.512H131.779Z" fill="#00A688"/>
<path opacity="0.3" d="M131.779 192.512L126.72 199.009L124.907 198.733L130.243 192.512H131.779Z" fill="black"/>
<path d="M117.233 189.184H95.3855L100.511 202.716H122.358L117.233 189.184Z" fill="#00A688"/>
<path opacity="0.3" d="M117.233 189.184H95.3855L100.511 202.716H122.358L117.233 189.184Z" fill="black"/>
<path d="M134.195 197.596H99.4867V199.342H134.195V197.596Z" fill="#00A688"/>
<path opacity="0.2" d="M112.809 197.596H99.4867V199.342H112.809V197.596Z" fill="black"/>
<path d="M132.147 192.471H97.4387V194.217H132.147V192.471Z" fill="#00A688"/>
<path opacity="0.2" d="M110.761 192.471H97.4387V194.217H110.761V192.471Z" fill="black"/>
<path d="M95.4214 189.276L94.208 190.684L98.816 202.752H100.618L95.4214 189.276Z" fill="#00A688"/>
<path d="M142.945 196.352L145.29 196.936C145.201 196.301 144.931 195.704 144.514 195.217C144.097 194.73 143.549 194.372 142.935 194.186C142.203 194.018 141.435 194.118 140.77 194.468C140.106 194.819 139.589 195.397 139.315 196.096C139.113 196.582 139.058 197.115 139.156 197.632L125.02 206.141C123.361 204.749 121.4 205.798 120.591 206.93L122.926 207.498C123.061 207.528 123.188 207.584 123.3 207.664C123.413 207.743 123.508 207.845 123.58 207.962C123.652 208.079 123.7 208.21 123.72 208.346C123.741 208.483 123.734 208.622 123.699 208.755C123.665 208.888 123.604 209.013 123.52 209.123C123.436 209.232 123.331 209.323 123.211 209.391C123.091 209.458 122.958 209.501 122.822 209.516C122.685 209.532 122.546 209.519 122.414 209.48L120.079 208.896C120.17 209.531 120.44 210.126 120.857 210.613C121.274 211.1 121.821 211.458 122.435 211.645C123.165 211.83 123.938 211.746 124.612 211.408C125.285 211.071 125.816 210.503 126.106 209.807C126.32 209.357 126.393 208.852 126.316 208.358L140.452 199.849C141.844 200.801 144.036 200.11 144.829 198.979L142.469 198.364C142.336 198.333 142.211 198.276 142.1 198.195C141.99 198.115 141.897 198.013 141.826 197.897C141.755 197.78 141.709 197.65 141.689 197.515C141.669 197.38 141.677 197.242 141.711 197.11C141.775 196.846 141.94 196.617 142.171 196.475C142.403 196.333 142.681 196.289 142.945 196.352Z" fill="#00A688"/>
<path opacity="0.6" d="M142.945 196.352L145.29 196.936C145.201 196.301 144.931 195.704 144.514 195.217C144.097 194.73 143.549 194.372 142.935 194.186C142.203 194.018 141.435 194.118 140.77 194.468C140.106 194.819 139.589 195.397 139.315 196.096C139.113 196.582 139.058 197.115 139.156 197.632L125.02 206.141C123.361 204.749 121.4 205.798 120.591 206.93L122.926 207.498C123.061 207.528 123.188 207.584 123.3 207.664C123.413 207.743 123.508 207.845 123.58 207.962C123.652 208.079 123.7 208.21 123.72 208.346C123.741 208.483 123.734 208.622 123.699 208.755C123.665 208.888 123.604 209.013 123.52 209.123C123.436 209.232 123.331 209.323 123.211 209.391C123.091 209.458 122.958 209.501 122.822 209.516C122.685 209.532 122.546 209.519 122.414 209.48L120.079 208.896C120.17 209.531 120.44 210.126 120.857 210.613C121.274 211.1 121.821 211.458 122.435 211.645C123.165 211.83 123.938 211.746 124.612 211.408C125.285 211.071 125.816 210.503 126.106 209.807C126.32 209.357 126.393 208.852 126.316 208.358L140.452 199.849C141.844 200.801 144.036 200.11 144.829 198.979L142.469 198.364C142.336 198.333 142.211 198.276 142.1 198.195C141.99 198.115 141.897 198.013 141.826 197.897C141.755 197.78 141.709 197.65 141.689 197.515C141.669 197.38 141.677 197.242 141.711 197.11C141.775 196.846 141.94 196.617 142.171 196.475C142.403 196.333 142.681 196.289 142.945 196.352Z" fill="white"/>
<path d="M138.296 202.716H100.511V213.75H138.296V202.716Z" fill="#00A688"/>
<path opacity="0.2" d="M115.369 202.716H100.511V213.75H115.369V202.716Z" fill="black"/>
<path d="M87.2396 210.944L85.5347 209.234C85.2809 209.826 85.2019 210.478 85.3072 211.113C85.4124 211.748 85.6975 212.34 86.1286 212.818C86.6701 213.341 87.3818 213.653 88.1338 213.695C88.8857 213.737 89.6278 213.508 90.2246 213.048C90.6462 212.735 90.9681 212.307 91.1513 211.814L107.648 211.84C108.349 213.888 110.571 214.006 111.851 213.453L110.141 211.758C109.952 211.566 109.846 211.308 109.846 211.039C109.846 210.769 109.952 210.511 110.141 210.319C110.333 210.129 110.593 210.022 110.863 210.022C111.134 210.022 111.393 210.129 111.585 210.319L113.295 212.029C113.548 211.437 113.627 210.785 113.52 210.15C113.414 209.514 113.128 208.923 112.696 208.445C112.166 207.908 111.461 207.58 110.708 207.521C109.956 207.461 109.208 207.675 108.6 208.123C108.183 208.399 107.86 208.795 107.674 209.259L91.1718 209.234C90.4704 207.698 88.2534 207.186 86.9734 207.698L88.6784 209.444C88.7751 209.539 88.8519 209.653 88.9044 209.778C88.9568 209.903 88.9839 210.038 88.9839 210.173C88.9839 210.309 88.9568 210.444 88.9044 210.569C88.8519 210.694 88.7751 210.808 88.6784 210.903C88.4922 211.098 88.2367 211.211 87.9674 211.219C87.6981 211.227 87.4366 211.128 87.2396 210.944Z" fill="#00A688"/>
<path opacity="0.6" d="M87.2396 210.944L85.5347 209.234C85.2809 209.826 85.2019 210.478 85.3072 211.113C85.4124 211.748 85.6975 212.34 86.1286 212.818C86.6701 213.341 87.3818 213.653 88.1338 213.695C88.8857 213.737 89.6278 213.508 90.2246 213.048C90.6462 212.735 90.9681 212.307 91.1513 211.814L107.648 211.84C108.349 213.888 110.571 214.006 111.851 213.453L110.141 211.758C109.952 211.566 109.846 211.308 109.846 211.039C109.846 210.769 109.952 210.511 110.141 210.319C110.333 210.129 110.593 210.022 110.863 210.022C111.134 210.022 111.393 210.129 111.585 210.319L113.295 212.029C113.548 211.437 113.627 210.785 113.52 210.15C113.414 209.514 113.128 208.923 112.696 208.445C112.166 207.908 111.461 207.58 110.708 207.521C109.956 207.461 109.208 207.675 108.6 208.123C108.183 208.399 107.86 208.795 107.674 209.259L91.1718 209.234C90.4704 207.698 88.2534 207.186 86.9734 207.698L88.6784 209.444C88.7751 209.539 88.8519 209.653 88.9044 209.778C88.9568 209.903 88.9839 210.038 88.9839 210.173C88.9839 210.309 88.9568 210.444 88.9044 210.569C88.8519 210.694 88.7751 210.808 88.6784 210.903C88.4922 211.098 88.2367 211.211 87.9674 211.219C87.6981 211.227 87.4366 211.128 87.2396 210.944Z" fill="white"/>
</svg>
