<svg width="1351" height="627" viewBox="0 0 1351 627" fill="none" xmlns="http://www.w3.org/2000/svg">
<g opacity="0.4">
<path d="M387.784 437.323C56.584 384.123 -8.21598 650.49 0.784017 790.323L1535.28 749.823C1405.12 538.156 1095.18 131.523 896.784 198.323C648.784 281.823 801.784 503.823 387.784 437.323Z" fill="#EDEDED"/>
</g>
<g opacity="0.1">
<path d="M959 437.822C1068.65 437.822 1157.54 432.632 1157.54 426.23C1157.54 419.828 1068.65 414.638 959 414.638C849.348 414.638 760.457 419.828 760.457 426.23C760.457 432.632 849.348 437.822 959 437.822Z" fill="#848484"/>
</g>
<path d="M1103.89 168.233H1018.63C1015.31 168.233 1012.13 169.547 1009.79 171.886C1007.44 174.226 1006.11 177.401 1006.1 180.715V226.857C1006.11 230.166 1007.43 233.336 1009.78 235.675C1012.12 238.014 1015.29 239.331 1018.6 239.339H1027.23L1023.9 252.928C1028.78 252.483 1033.51 251.051 1037.81 248.719C1042.11 246.386 1045.9 243.202 1048.93 239.36H1103.89C1107.19 239.352 1110.37 238.034 1112.71 235.696C1115.05 233.357 1116.37 230.186 1116.38 226.877V180.715C1116.37 177.406 1115.05 174.236 1112.71 171.897C1110.37 169.558 1107.19 168.241 1103.89 168.233Z" fill="#00A688"/>
<path opacity="0.3" d="M1103.89 168.233H1018.63C1015.31 168.233 1012.13 169.547 1009.79 171.886C1007.44 174.226 1006.11 177.401 1006.1 180.715V226.857C1006.11 230.166 1007.43 233.336 1009.78 235.675C1012.12 238.014 1015.29 239.331 1018.6 239.339H1027.23L1023.9 252.928C1028.78 252.483 1033.51 251.051 1037.81 248.719C1042.11 246.386 1045.9 243.202 1048.93 239.36H1103.89C1107.19 239.352 1110.37 238.034 1112.71 235.696C1115.05 233.357 1116.37 230.186 1116.38 226.877V180.715C1116.37 177.406 1115.05 174.236 1112.71 171.897C1110.37 169.558 1107.19 168.241 1103.89 168.233Z" fill="black"/>
<path d="M1093.84 214.333C1099.67 214.333 1104.39 209.611 1104.39 203.786C1104.39 197.961 1099.67 193.239 1093.84 193.239C1088.02 193.239 1083.29 197.961 1083.29 203.786C1083.29 209.611 1088.02 214.333 1093.84 214.333Z" fill="#00A688"/>
<path d="M1061.26 214.333C1067.08 214.333 1071.8 209.611 1071.8 203.786C1071.8 197.961 1067.08 193.239 1061.26 193.239C1055.43 193.239 1050.71 197.961 1050.71 203.786C1050.71 209.611 1055.43 214.333 1061.26 214.333Z" fill="#00A688"/>
<path d="M1028.68 214.333C1034.51 214.333 1039.23 209.611 1039.23 203.786C1039.23 197.961 1034.51 193.239 1028.68 193.239C1022.86 193.239 1018.14 197.961 1018.14 203.786C1018.14 209.611 1022.86 214.333 1028.68 214.333Z" fill="#00A688"/>
<g opacity="0.1">
<path opacity="0.1" d="M1093.84 214.333C1099.67 214.333 1104.39 209.611 1104.39 203.786C1104.39 197.961 1099.67 193.239 1093.84 193.239C1088.02 193.239 1083.29 197.961 1083.29 203.786C1083.29 209.611 1088.02 214.333 1093.84 214.333Z" fill="#FAFAFA"/>
<path opacity="0.1" d="M1061.26 214.333C1067.08 214.333 1071.8 209.611 1071.8 203.786C1071.8 197.961 1067.08 193.239 1061.26 193.239C1055.43 193.239 1050.71 197.961 1050.71 203.786C1050.71 209.611 1055.43 214.333 1061.26 214.333Z" fill="#FAFAFA"/>
<path opacity="0.1" d="M1028.68 214.333C1034.51 214.333 1039.23 209.611 1039.23 203.786C1039.23 197.961 1034.51 193.239 1028.68 193.239C1022.86 193.239 1018.14 197.961 1018.14 203.786C1018.14 209.611 1022.86 214.333 1028.68 214.333Z" fill="#FAFAFA"/>
</g>
<path d="M894.826 101.98H980.094C983.404 101.991 986.576 103.311 988.916 105.651C991.257 107.992 992.576 111.163 992.587 114.473V160.604C992.566 163.907 991.241 167.068 988.902 169.4C986.563 171.731 983.397 173.045 980.094 173.056H971.462L974.821 186.614C969.946 186.171 965.213 184.74 960.908 182.409C956.604 180.079 952.819 176.896 949.784 173.056H894.826C891.517 173.045 888.347 171.725 886.008 169.384C883.669 167.044 882.351 163.872 882.343 160.563V114.483C882.349 111.172 883.665 107.998 886.004 105.655C888.343 103.312 891.515 101.991 894.826 101.98Z" fill="#00A688"/>
<path opacity="0.1" d="M894.826 101.98H980.094C983.404 101.991 986.576 103.311 988.916 105.651C991.257 107.992 992.576 111.163 992.587 114.473V160.604C992.566 163.907 991.241 167.068 988.902 169.4C986.563 171.731 983.397 173.045 980.094 173.056H971.462L974.821 186.614C969.946 186.171 965.213 184.74 960.908 182.409C956.604 180.079 952.819 176.896 949.784 173.056H894.826C891.517 173.045 888.347 171.725 886.008 169.384C883.669 167.044 882.351 163.872 882.343 160.563V114.483C882.349 111.172 883.665 107.998 886.004 105.655C888.343 103.312 891.515 101.991 894.826 101.98Z" fill="#FAFAFA"/>
<path d="M977.483 118.047H897.437V125.624H977.483V118.047Z" fill="#00A688"/>
<path d="M959.174 133.745H897.437V141.322H959.174V133.745Z" fill="#00A688"/>
<path d="M967.233 149.453H897.437V157.03H967.233V149.453Z" fill="#00A688"/>
<g opacity="0.3">
<path opacity="0.3" d="M977.483 118.047H897.437V125.624H977.483V118.047Z" fill="black"/>
<path opacity="0.3" d="M959.174 133.745H897.437V141.322H959.174V133.745Z" fill="black"/>
<path opacity="0.3" d="M967.233 149.453H897.437V157.031H967.233V149.453Z" fill="black"/>
</g>
<path d="M1008.2 318.781C1007.64 318.781 1007.07 318.781 1006.48 318.833C994.318 319.703 984.477 330.005 983.699 342.682C983.526 345.481 983.792 348.29 984.487 351.007C987.172 361.91 988.466 373.11 988.338 384.338V417.106C988.316 418.218 988.734 419.294 989.501 420.099C990.268 420.905 991.322 421.375 992.434 421.407H1073.69V318.781H1008.2Z" fill="#00A688"/>
<path opacity="0.3" d="M1008.2 318.781C1007.64 318.781 1007.07 318.781 1006.48 318.833C994.318 319.703 984.477 330.005 983.699 342.682C983.526 345.481 983.792 348.29 984.487 351.007C987.172 361.91 988.466 373.11 988.338 384.338V417.106C988.316 418.218 988.734 419.294 989.501 420.099C990.268 420.905 991.322 421.375 992.434 421.407H1073.69V318.781H1008.2Z" fill="black"/>
<path d="M1098.26 344.361C1098.26 329.646 1086.33 317.819 1071.99 318.843C1059.82 319.713 1049.98 330.015 1049.2 342.692C1049.03 345.491 1049.3 348.3 1049.99 351.017C1052.68 361.92 1053.97 373.12 1053.84 384.348V417.116C1053.82 418.228 1054.24 419.304 1055.01 420.109C1055.77 420.915 1056.83 421.385 1057.94 421.417H1089.43C1090.54 421.387 1091.6 420.918 1092.36 420.112C1093.13 419.306 1093.55 418.229 1093.52 417.116V382.423C1093.45 371.902 1094.76 361.417 1097.39 351.232C1097.98 348.989 1098.27 346.679 1098.26 344.361Z" fill="#00A688"/>
<path d="M1039.88 359.076H936.288V421.356H1039.88V359.076Z" fill="#00A688"/>
<path opacity="0.3" d="M1039.88 359.076H936.288V421.356H1039.88V359.076Z" fill="black"/>
<path d="M881.299 284.478H995.68C1000.71 284.478 1005.53 286.476 1009.09 290.032C1012.65 293.589 1014.64 298.412 1014.64 303.442V373.156H862.324V303.442C862.324 300.951 862.815 298.484 863.769 296.182C864.722 293.881 866.12 291.79 867.882 290.028C869.644 288.267 871.736 286.871 874.038 285.918C876.34 284.966 878.808 284.476 881.299 284.478Z" fill="#00A688"/>
<path opacity="0.4" d="M881.299 284.478H995.68C1000.71 284.478 1005.53 286.476 1009.09 290.032C1012.65 293.589 1014.64 298.412 1014.64 303.442V373.156H862.324V303.442C862.324 300.951 862.815 298.484 863.769 296.182C864.722 293.881 866.12 291.79 867.882 290.028C869.644 288.267 871.736 286.871 874.038 285.918C876.34 284.966 878.808 284.476 881.299 284.478Z" fill="black"/>
<path d="M903.786 284.478H1001.56C1006.35 284.478 1010.94 286.38 1014.32 289.765C1017.71 293.151 1019.61 297.743 1019.61 302.531V373.187H885.733V302.531C885.733 300.16 886.2 297.812 887.107 295.622C888.014 293.432 889.344 291.442 891.02 289.765C892.697 288.089 894.687 286.759 896.877 285.852C899.068 284.945 901.415 284.478 903.786 284.478Z" fill="#00A688"/>
<path d="M942.206 352.594H1038.53C1040.02 352.594 1041.44 353.183 1042.49 354.232C1043.54 355.28 1044.13 356.702 1044.13 358.185V373.166C1044.13 374.649 1043.54 376.071 1042.49 377.12C1041.44 378.168 1040.02 378.757 1038.53 378.757H942.206C941.764 378.757 941.339 378.581 941.026 378.268C940.713 377.955 940.537 377.531 940.537 377.088V354.304C940.532 354.081 940.571 353.86 940.652 353.653C940.734 353.445 940.856 353.257 941.011 353.097C941.167 352.938 941.353 352.811 941.558 352.725C941.763 352.638 941.984 352.594 942.206 352.594Z" fill="#00A688"/>
<path opacity="0.4" d="M942.206 352.594H1038.53C1040.02 352.594 1041.44 353.183 1042.49 354.232C1043.54 355.28 1044.13 356.702 1044.13 358.185V373.166C1044.13 374.649 1043.54 376.071 1042.49 377.12C1041.44 378.168 1040.02 378.757 1038.53 378.757H942.206C941.764 378.757 941.339 378.581 941.026 378.268C940.713 377.955 940.537 377.531 940.537 377.088V354.304C940.532 354.081 940.571 353.86 940.652 353.653C940.734 353.445 940.856 353.257 941.011 353.097C941.167 352.938 941.353 352.811 941.558 352.725C941.763 352.638 941.984 352.594 942.206 352.594Z" fill="black"/>
<path d="M852.268 421.366H1074.96V421.427C1074.96 422.242 1074.63 423.023 1074.06 423.599C1073.48 424.176 1072.7 424.499 1071.89 424.499H855.32C854.505 424.499 853.724 424.176 853.148 423.599C852.572 423.023 852.248 422.242 852.248 421.427V421.366H852.268Z" fill="#00A688"/>
<path opacity="0.4" d="M852.268 421.366H1074.96V421.427C1074.96 422.242 1074.63 423.023 1074.06 423.599C1073.48 424.176 1072.7 424.499 1071.89 424.499H855.32C854.505 424.499 853.724 424.176 853.148 423.599C852.572 423.023 852.248 422.242 852.248 421.427V421.366H852.268Z" fill="black"/>
<path d="M985.337 274.166L985.747 275.835L986.218 277.647C986.545 278.856 986.894 280.074 987.242 281.283C987.969 283.72 988.757 286.157 989.576 288.584C990.396 291.011 991.246 293.448 992.167 295.854C992.628 297.062 993.079 298.271 993.55 299.469L994.113 300.913C994.225 301.162 994.374 301.393 994.553 301.599C995.918 302.982 997.582 304.033 999.417 304.671C1001.67 305.564 1003.99 306.283 1006.35 306.821C1008.79 307.384 1011.3 307.845 1013.84 308.245C1016.37 308.644 1018.96 308.961 1021.47 309.269L1021.57 314.44C1016.08 314.989 1010.56 314.965 1005.08 314.368C1002.21 314.078 999.371 313.527 996.601 312.719C995.102 312.272 993.643 311.7 992.239 311.009C990.624 310.225 989.144 309.188 987.856 307.937C987.11 307.198 986.463 306.365 985.931 305.459C985.788 305.224 985.665 304.968 985.532 304.712L985.286 304.2L984.835 303.288C984.241 302.07 983.648 300.841 983.095 299.602C981.978 297.124 980.903 294.636 979.93 292.086C978.958 289.536 978.026 286.966 977.196 284.334C976.797 283.013 976.418 281.692 976.06 280.34L975.537 278.292C975.374 277.576 975.241 276.961 975.077 276.101L985.337 274.166Z" fill="#B55B52"/>
<path d="M982.071 263.281C986.167 264.305 989.075 281.293 989.075 281.293L977.719 289.014C977.719 289.014 966.823 271.903 969.998 267.377C973.336 262.656 976.05 261.755 982.071 263.281Z" fill="#00A688"/>
<path opacity="0.5" d="M982.071 263.281C986.167 264.305 989.075 281.293 989.075 281.293L977.719 289.014C977.719 289.014 966.823 271.903 969.998 267.377C973.336 262.656 976.05 261.755 982.071 263.281Z" fill="#FAFAFA"/>
<path d="M982.439 269.445L973.623 271.493L972.773 280.115C974.269 283.164 975.92 286.134 977.719 289.014L984.6 284.334C984.313 280.371 983.576 272.128 982.439 269.445Z" fill="#00A688"/>
<path opacity="0.3" d="M982.439 269.445L973.623 271.493L972.773 280.115C974.269 283.164 975.92 286.134 977.719 289.014L984.6 284.334C984.313 280.371 983.576 272.128 982.439 269.445Z" fill="#FAFAFA"/>
<path d="M1020.02 309.176L1027.12 302.008L1028.05 312.136C1028.05 312.136 1022.72 315.73 1019.05 313.795L1020.02 309.176Z" fill="#B55B52"/>
<path d="M1035.45 300.913L1035.77 309.432L1028.05 312.115L1027.12 301.988L1035.45 300.913Z" fill="#B55B52"/>
<path d="M982.071 263.281C982.071 263.281 986.832 264.96 977.289 323.635H936.677C937.363 307.108 937.383 296.909 929.509 262.994C935.181 261.82 940.93 261.061 946.712 260.721C952.848 260.28 959.008 260.28 965.144 260.721C973.09 261.448 982.071 263.281 982.071 263.281Z" fill="#00A688"/>
<path opacity="0.5" d="M982.071 263.281C982.071 263.281 986.832 264.96 977.289 323.635H936.677C937.363 307.108 937.383 296.909 929.509 262.994C935.181 261.82 940.93 261.061 946.712 260.721C952.848 260.28 959.008 260.28 965.144 260.721C973.09 261.448 982.071 263.281 982.071 263.281Z" fill="#FAFAFA"/>
<path d="M969.875 261.253C968.318 261.048 966.721 260.864 965.164 260.721C959.028 260.28 952.869 260.28 946.732 260.721C945.309 260.792 943.896 260.895 942.534 261.028L942.831 261.96C942.995 262.482 947.06 274.852 961.714 281.416L964.519 282.675L966.506 280.32C968.765 277.758 970.275 274.624 970.869 271.26C971.464 267.896 971.12 264.434 969.875 261.253Z" fill="#00A688"/>
<path opacity="0.3" d="M969.875 261.253C968.318 261.048 966.721 260.864 965.164 260.721C959.028 260.28 952.869 260.28 946.732 260.721C945.309 260.792 943.896 260.895 942.534 261.028L942.831 261.96C942.995 262.482 947.06 274.852 961.714 281.416L964.519 282.675L966.506 280.32C968.765 277.758 970.275 274.624 970.869 271.26C971.464 267.896 971.12 264.434 969.875 261.253Z" fill="black"/>
<path d="M939.032 278.743L933.789 283.198C934.915 289.137 935.663 294.083 936.144 298.476C937.127 294.062 939.616 282.112 939.032 278.743Z" fill="#00A688"/>
<path opacity="0.3" d="M939.032 278.743L933.789 283.198C934.915 289.137 935.663 294.083 936.144 298.476C937.127 294.062 939.616 282.112 939.032 278.743Z" fill="#FAFAFA"/>
<path d="M954.085 209.92C943.333 206.551 937.342 218.112 938.377 232.571C939.124 242.934 937.035 247.45 930.84 247.142C933.738 253.952 970.264 264.192 980.832 252.017C977.862 250.409 976.377 243.251 978.548 236.841C983.463 222.382 978.907 200.55 954.085 209.92Z" fill="#263238"/>
<path d="M948.555 239.954C949.712 245.893 950.88 256.758 946.722 260.721C946.722 260.721 950.235 271.79 963.372 277.678C965.354 275.366 966.585 272.505 966.901 269.476C967.218 266.447 966.605 263.393 965.144 260.721C958.529 259.144 958.703 254.229 959.85 249.621L948.555 239.954Z" fill="#B55B52"/>
<path d="M953.163 243.896L959.87 249.621C959.586 250.691 959.394 251.784 959.297 252.887C956.768 252.529 953.296 249.754 953.03 247.102C952.881 246.034 952.926 244.948 953.163 243.896Z" fill="#9E4541"/>
<path d="M949.108 223.355C946.784 233.001 945.596 237.035 948.883 243.364C953.829 252.877 966.189 253.604 971.349 244.869C975.998 236.984 979.019 222.536 970.909 215.921C969.127 214.454 967 213.467 964.729 213.053C962.459 212.64 960.12 212.814 957.936 213.559C955.751 214.304 953.794 215.595 952.249 217.309C950.704 219.024 949.623 221.105 949.108 223.355Z" fill="#B55B52"/>
<path d="M947.398 229.018C947.398 229.018 967.366 222.802 958.232 212.306C947.48 214.958 947.398 218.112 947.398 218.112V229.018Z" fill="#263238"/>
<path d="M959.502 218.286C967.018 219.064 974.493 223.488 976.91 227.502C978.302 220.672 973.408 212.142 967.96 210.944C962.512 209.746 955.928 212.306 955.928 212.306L959.502 218.286Z" fill="#263238"/>
<path d="M944.142 229.755C944.109 231.666 944.804 233.519 946.087 234.936C947.808 236.8 949.897 235.581 950.45 233.277C950.941 231.229 950.644 227.717 948.402 226.714C946.159 225.71 944.203 227.42 944.142 229.755Z" fill="#B55B52"/>
<path d="M1028.54 331.582C1005.87 331.264 991.01 346.829 991.01 346.829C993.181 353.126 994.553 357.857 994.553 357.857C1006.97 355.656 1021.09 354.683 1032.72 351.887C1043.22 349.358 1044.43 336.681 1043.36 331.407C1042.28 326.134 1036.32 324.915 1030.49 323.215C1023.82 321.301 1011.09 321.249 1001.97 321.311C992.341 321.362 979.695 322.273 973.141 323.656C973.141 323.656 959.225 323.215 948.924 323.471C942.903 322.611 946.446 331.356 955.948 338.76C960.874 342.517 966.512 345.234 972.52 346.746C978.528 348.258 984.78 348.533 990.898 347.556H990.969" fill="#263238"/>
<path d="M993.14 356.352L990.252 345.498C990.208 345.309 990.096 345.143 989.938 345.031C989.779 344.92 989.585 344.871 989.392 344.894L980.473 345.918C980.244 345.949 980.025 346.03 979.83 346.154C979.635 346.279 979.47 346.444 979.345 346.639C979.221 346.834 979.14 347.053 979.108 347.282C979.077 347.511 979.095 347.744 979.163 347.966C980.238 351.734 980.944 353.495 982.235 358.267C983.013 361.206 984.283 367.36 985.399 371.415C986.515 375.47 990.519 374.62 990.468 372.839C990.078 364.831 991.492 361.257 992.997 358.134C993.254 357.576 993.304 356.944 993.14 356.352Z" fill="#263238"/>
<path d="M994.338 362.752C994.101 362.751 993.869 362.679 993.673 362.547C992.474 361.769 992.126 358.912 992.024 357.284C992.021 357.249 992.028 357.215 992.046 357.185C992.064 357.155 992.091 357.132 992.123 357.118C992.154 357.104 992.19 357.101 992.224 357.109C992.257 357.117 992.288 357.135 992.311 357.161C992.649 357.53 995.618 360.827 995.301 362.158C995.272 362.274 995.213 362.38 995.13 362.466C995.048 362.553 994.944 362.616 994.83 362.65C994.675 362.718 994.507 362.753 994.338 362.752ZM992.393 357.755C992.597 360.12 993.13 361.79 993.857 362.261C993.982 362.344 994.126 362.396 994.277 362.41C994.427 362.424 994.578 362.401 994.717 362.343C994.779 362.325 994.836 362.29 994.881 362.244C994.926 362.197 994.958 362.139 994.973 362.076C995.188 361.206 993.406 358.922 992.393 357.755Z" fill="#00A688"/>
<path d="M993.171 358.277L989.423 344.218L994.359 342.18L1001.31 357.274L993.171 358.277Z" fill="#00A688"/>
<path opacity="0.6" d="M993.171 358.277L989.423 344.218L994.359 342.18L1001.31 357.274L993.171 358.277Z" fill="#FAFAFA"/>
<path d="M996.13 359.701C994.932 359.701 992.782 358.257 992.034 357.376C992.022 357.351 992.015 357.323 992.015 357.294C992.015 357.266 992.022 357.238 992.034 357.212C992.045 357.186 992.062 357.162 992.083 357.142C992.104 357.123 992.13 357.108 992.157 357.1C992.27 357.1 994.902 356.618 996.253 357.55C996.443 357.676 996.604 357.84 996.726 358.033C996.847 358.225 996.927 358.441 996.96 358.666C997.062 359.27 996.806 359.526 996.581 359.619C996.441 359.686 996.285 359.714 996.13 359.701ZM992.526 357.376C993.55 358.4 995.721 359.608 996.407 359.311C996.468 359.311 996.663 359.189 996.591 358.707C996.565 358.526 996.5 358.353 996.401 358.2C996.302 358.046 996.171 357.915 996.018 357.816C995.065 357.151 993.243 357.294 992.526 357.376Z" fill="#00A688"/>
<path d="M944.449 324.178C931.843 322.56 913.196 321.935 912.131 335.073C911.066 348.211 920.129 361.697 944.777 362.424C969.424 363.151 974.749 356.956 975.63 351.672C976.756 344.996 978.702 343.296 972.814 340.275C966.926 337.254 965.84 326.912 944.449 324.178Z" fill="#263238"/>
<path d="M971.114 358.595L968.216 347.74C968.16 347.554 968.176 347.353 968.259 347.178C968.342 347.002 968.487 346.863 968.667 346.788L976.93 343.265C977.141 343.184 977.366 343.149 977.591 343.16C977.816 343.172 978.036 343.231 978.237 343.333C978.438 343.436 978.615 343.579 978.757 343.755C978.899 343.93 979.002 344.133 979.06 344.351C980.002 348.16 980.268 350.044 981.538 354.816C982.316 357.755 984.242 363.745 985.327 367.8C986.412 371.855 982.45 373.146 981.641 371.548C977.995 364.38 974.954 362.025 972.128 360.049C971.631 359.697 971.272 359.183 971.114 358.595Z" fill="#263238"/>
<path d="M972.64 364.923C972.546 364.925 972.452 364.906 972.366 364.869C972.279 364.832 972.202 364.777 972.138 364.708C971.196 363.684 972.138 359.383 972.24 358.892C972.247 358.857 972.264 358.825 972.29 358.801C972.316 358.777 972.349 358.762 972.384 358.758C972.417 358.754 972.452 358.76 972.481 358.777C972.511 358.793 972.534 358.819 972.548 358.851C973.275 360.315 974.391 362.947 973.735 364.237C973.644 364.419 973.51 364.576 973.344 364.694C973.178 364.812 972.985 364.887 972.783 364.913L972.64 364.923ZM972.466 359.445C972.169 360.97 971.759 363.827 972.373 364.472C972.418 364.522 972.474 364.558 972.537 364.578C972.6 364.598 972.667 364.6 972.732 364.585C972.882 364.566 973.025 364.51 973.148 364.422C973.271 364.335 973.371 364.218 973.438 364.083C973.981 363.029 973.008 360.632 972.466 359.424V359.445Z" fill="#00A688"/>
<path d="M969.732 363.131C969.486 363.131 969.189 363.008 968.994 362.486C968.914 362.274 968.877 362.047 968.885 361.82C968.894 361.593 968.949 361.37 969.045 361.165C969.721 359.711 972.24 358.799 972.343 358.769C972.367 358.753 972.396 358.745 972.425 358.745C972.454 358.745 972.482 358.753 972.507 358.769C972.531 358.785 972.551 358.808 972.562 358.836C972.573 358.863 972.575 358.894 972.568 358.922C972.353 360.192 970.909 363.018 969.793 363.1L969.732 363.131ZM972.169 359.199C971.503 359.475 969.844 360.223 969.353 361.308C969.283 361.47 969.247 361.644 969.247 361.82C969.247 361.996 969.283 362.171 969.353 362.332C969.516 362.783 969.742 362.762 969.803 362.752C970.51 362.721 971.81 360.602 972.169 359.199Z" fill="#00A688"/>
<path d="M971.575 358.462L969.219 345.293L963.465 345.078L963.905 361.841L971.575 358.462Z" fill="#00A688"/>
<path opacity="0.6" d="M971.575 358.462L969.219 345.293L963.465 345.078L963.905 361.841L971.575 358.462Z" fill="#FAFAFA"/>
<path d="M962.656 230.4C962.42 231.168 962.656 231.916 963.147 232.079C963.639 232.243 964.253 231.731 964.489 230.963C964.724 230.195 964.489 229.437 963.997 229.284C963.506 229.13 962.901 229.642 962.656 230.4Z" fill="#263238"/>
<path d="M971.37 233.083C971.134 233.861 971.37 234.609 971.861 234.762C972.353 234.916 972.967 234.414 973.203 233.646C973.438 232.878 973.203 232.12 972.711 231.967C972.22 231.813 971.616 232.315 971.37 233.083Z" fill="#263238"/>
<path d="M972.476 231.946H974.524C974.524 231.946 973.1 233.134 972.476 231.946Z" fill="#263238"/>
<path d="M968.666 233.708C968.812 235.677 969.229 237.617 969.905 239.473C969.425 239.632 968.916 239.684 968.414 239.625C967.912 239.567 967.428 239.399 966.997 239.135L968.666 233.708Z" fill="#A02724"/>
<path d="M962.686 240.824C962.677 240.829 962.666 240.831 962.656 240.831C962.645 240.831 962.634 240.829 962.625 240.824C961.07 239.988 959.899 238.583 959.358 236.902C959.352 236.884 959.35 236.864 959.352 236.844C959.354 236.824 959.359 236.805 959.369 236.788C959.379 236.771 959.392 236.755 959.408 236.743C959.423 236.731 959.441 236.723 959.461 236.718C959.499 236.708 959.539 236.714 959.573 236.733C959.607 236.752 959.633 236.783 959.645 236.821C960.168 238.405 961.264 239.738 962.717 240.558C962.746 240.575 962.769 240.6 962.782 240.631C962.795 240.662 962.798 240.696 962.79 240.729C962.781 240.761 962.763 240.79 962.737 240.811C962.711 240.832 962.679 240.844 962.645 240.845L962.686 240.824Z" fill="#263238"/>
<path d="M962.226 225.28C962.16 225.279 962.097 225.257 962.045 225.217C961.993 225.177 961.955 225.122 961.937 225.059C961.918 224.996 961.921 224.929 961.943 224.867C961.966 224.806 962.007 224.753 962.062 224.717C962.652 224.307 963.332 224.044 964.044 223.95C964.756 223.855 965.481 223.932 966.158 224.174C966.23 224.208 966.288 224.268 966.318 224.342C966.348 224.416 966.35 224.498 966.322 224.573C966.306 224.61 966.283 224.644 966.255 224.671C966.226 224.699 966.192 224.721 966.155 224.735C966.117 224.75 966.078 224.756 966.038 224.755C965.998 224.753 965.958 224.744 965.922 224.727C965.332 224.525 964.703 224.465 964.086 224.553C963.468 224.64 962.88 224.872 962.369 225.229C962.326 225.258 962.277 225.275 962.226 225.28Z" fill="#263238"/>
<path d="M976.889 230.462C976.834 230.462 976.78 230.446 976.733 230.418C976.686 230.389 976.648 230.347 976.623 230.298C976.342 229.742 975.934 229.259 975.433 228.889C974.931 228.519 974.35 228.272 973.735 228.168C973.695 228.165 973.656 228.155 973.621 228.137C973.585 228.119 973.553 228.094 973.527 228.063C973.501 228.032 973.482 227.997 973.47 227.958C973.459 227.92 973.455 227.88 973.459 227.84C973.469 227.762 973.509 227.691 973.57 227.642C973.631 227.592 973.708 227.568 973.787 227.574C974.504 227.679 975.186 227.957 975.772 228.383C976.359 228.809 976.834 229.371 977.156 230.021C977.192 230.092 977.2 230.174 977.177 230.251C977.154 230.327 977.102 230.392 977.033 230.431C976.988 230.451 976.939 230.461 976.889 230.462Z" fill="#263238"/>
<path d="M963.761 229.263H965.809C965.809 229.263 964.386 230.462 963.761 229.263Z" fill="#263238"/>
<path d="M936.073 321.249L935.745 324.885C935.602 325.171 935.94 325.458 936.411 325.458H977.493C977.852 325.458 978.159 325.274 978.18 325.048L978.548 321.413C978.548 321.157 978.261 320.942 977.852 320.942H936.728C936.601 320.932 936.474 320.955 936.359 321.008C936.244 321.062 936.146 321.145 936.073 321.249Z" fill="#00A688"/>
<path opacity="0.3" d="M936.073 321.249L935.745 324.885C935.602 325.171 935.94 325.458 936.411 325.458H977.493C977.852 325.458 978.159 325.274 978.18 325.048L978.548 321.413C978.548 321.157 978.261 320.942 977.852 320.942H936.728C936.601 320.932 936.474 320.955 936.359 321.008C936.244 321.062 936.146 321.145 936.073 321.249Z" fill="black"/>
<path d="M941.592 325.847H940.496C940.271 325.847 940.107 325.735 940.117 325.601L940.64 320.871C940.64 320.737 940.844 320.625 941.059 320.625H942.165C942.38 320.625 942.555 320.737 942.534 320.871L942.022 325.601C942.002 325.735 941.817 325.847 941.592 325.847Z" fill="#263238"/>
<path d="M974.36 325.847H973.336C973.111 325.847 972.947 325.735 972.967 325.601L973.479 320.871C973.479 320.737 973.684 320.625 973.909 320.625H975.005C975.23 320.625 975.394 320.737 975.374 320.871L974.862 325.601C974.81 325.735 974.616 325.847 974.36 325.847Z" fill="#263238"/>
<path d="M957.976 325.847H956.87C956.655 325.847 956.481 325.735 956.501 325.601L957.013 320.871C957.013 320.737 957.228 320.625 957.443 320.625H958.549C958.764 320.625 958.928 320.737 958.918 320.871L958.396 325.601C958.406 325.735 958.211 325.847 957.976 325.847Z" fill="#263238"/>
<path d="M1050.05 295.567H978.784L968.451 337.654H1039.72L1050.05 295.567Z" fill="#FAFAFA"/>
<path d="M1013.95 329.81L970.356 339.978L942.38 332.135L942.667 329.81H1013.95Z" fill="#FAFAFA"/>
<path d="M935.55 277.504C934.69 280.289 933.769 283.187 932.949 286.054C932.13 288.922 931.26 291.779 930.512 294.646C929.765 297.513 929.048 300.37 928.464 303.176C928.198 304.568 927.952 305.961 927.789 307.272C927.66 308.194 927.599 309.125 927.604 310.057C927.843 310.809 928.257 311.494 928.813 312.054C929.642 312.958 930.565 313.772 931.567 314.481C933.832 316.117 936.23 317.563 938.735 318.802C944.061 321.414 949.531 323.722 955.119 325.714L953.88 330.732C947.661 329.71 941.554 328.095 935.643 325.908C932.545 324.777 929.56 323.362 926.724 321.679C925.166 320.73 923.707 319.625 922.372 318.382C920.684 316.851 919.406 314.922 918.654 312.771C918.439 312.104 918.292 311.418 918.214 310.723V310.19V309.801V309.094C918.214 308.173 918.214 307.292 918.214 306.432C918.306 304.712 918.491 303.084 918.726 301.486C919.187 298.271 919.75 295.178 920.518 292.127C921.286 289.075 921.993 286.054 922.843 283.064C923.693 280.074 924.594 277.135 925.638 274.145L935.55 277.504Z" fill="#B55B52"/>
<path d="M929.478 262.994C925.382 264.233 919.238 280.197 919.238 280.197L935.018 291.461C935.018 291.461 942.114 277.811 940.404 272.548C938.571 267.09 934.127 261.581 929.478 262.994Z" fill="#00A688"/>
<path opacity="0.5" d="M929.478 262.994C925.382 264.233 919.238 280.197 919.238 280.197L935.018 291.461C935.018 291.461 942.114 277.811 940.404 272.548C938.571 267.09 934.127 261.581 929.478 262.994Z" fill="#FAFAFA"/>
<path d="M953.132 326.031L962.615 323.635L958.099 332.739C958.099 332.739 951.689 333.015 949.569 329.441L953.132 326.031Z" fill="#B55B52"/>
<path d="M970.284 327.096L966.086 334.52L958.099 332.739L962.615 323.635L970.284 327.096Z" fill="#B55B52"/>
<path d="M1052.25 295.567H980.975L970.643 337.654H1041.91L1052.25 295.567Z" fill="#00A688"/>
<path d="M1041.91 337.654L1041.63 339.978H970.356L970.643 337.654H1041.91Z" fill="#00A688"/>
<path d="M853.528 318.781C852.955 318.781 852.381 318.781 851.797 318.833C839.632 319.703 829.792 330.005 829.024 342.682C828.841 345.481 829.107 348.292 829.812 351.007C832.492 361.911 833.786 373.11 833.662 384.338V417.106C833.638 418.219 834.055 419.296 834.822 420.102C835.59 420.908 836.646 421.377 837.758 421.407H937.496V318.781H853.528Z" fill="#00A688"/>
<path opacity="0.3" d="M853.528 318.781C852.955 318.781 852.381 318.781 851.797 318.833C839.632 319.703 829.792 330.005 829.024 342.682C828.841 345.481 829.107 348.292 829.812 351.007C832.492 361.911 833.786 373.11 833.662 384.338V417.106C833.638 418.219 834.055 419.296 834.822 420.102C835.59 420.908 836.646 421.377 837.758 421.407H937.496V318.781H853.528Z" fill="black"/>
<path d="M962.072 344.361C962.072 329.646 950.132 317.819 935.786 318.843C923.621 319.713 913.78 330.015 913.012 342.692C912.829 345.491 913.096 348.302 913.801 351.017C916.481 361.921 917.774 373.12 917.651 384.348V417.116C917.626 418.229 918.043 419.306 918.811 420.112C919.579 420.918 920.634 421.387 921.747 421.417H953.235C954.347 421.385 955.401 420.915 956.168 420.109C956.935 419.304 957.353 418.228 957.331 417.116V382.423C957.239 371.905 958.516 361.42 961.13 351.232C961.745 348.993 962.062 346.683 962.072 344.361Z" fill="#00A688"/>
</svg>
