<svg width="500" height="500" viewBox="0 0 500 500" fill="none" xmlns="http://www.w3.org/2000/svg">
<path d="M356.03 401.21H311V401.46H356.03V401.21Z" fill="#EBEBEB"/>
<path d="M244.14 395.11H169.67V395.36H244.14V395.11Z" fill="#EBEBEB"/>
<path opacity="0.3" d="M436.69 170.34C436.97 163.85 433.04 158.84 426.69 157.79C424.74 154.92 421.37 153.14 417.08 153.14C410.38 153.14 403.46 157.47 399.73 163.49C397.123 163.872 394.62 164.777 392.372 166.152C390.124 167.527 388.177 169.343 386.65 171.49C385.972 171.269 385.263 171.161 384.55 171.17C382.378 171.299 380.296 172.089 378.584 173.432C376.873 174.776 375.612 176.61 374.97 178.69C374.678 179.682 374.603 180.726 374.75 181.75H439.93C440.571 180.814 441.057 179.781 441.37 178.69C442.51 174.51 440.48 171.08 436.69 170.34Z" fill="#F5F5F5"/>
<path opacity="0.3" d="M100.35 91.59C100.595 89.009 99.8271 86.434 98.2096 84.408C96.5921 82.3819 94.2511 81.0632 91.6801 80.73C90.7376 79.424 89.4838 78.374 88.0326 77.6755C86.5814 76.9769 84.9787 76.652 83.3701 76.73C77.5701 76.73 71.5901 80.48 68.3701 85.73C66.1096 86.0717 63.9419 86.8681 61.9979 88.0713C60.054 89.2744 58.3742 90.8593 57.0601 92.73C56.4719 92.5415 55.8577 92.447 55.2401 92.45C53.3599 92.5545 51.5563 93.2299 50.0698 94.3858C48.5833 95.5418 47.4845 97.1235 46.9201 98.92C46.6677 99.7761 46.6029 100.677 46.7301 101.56H103.12C103.678 100.754 104.1 99.8622 104.37 98.92C105.42 95.2 103.66 92.19 100.35 91.59Z" fill="#F5F5F5"/>
<path d="M304.15 258.8C281.05 258.8 263.15 272.1 248.75 299.47C240.28 291.94 229.333 287.792 218 287.82C185.62 287.82 164.78 311.71 149.53 361.96H374.42C374.42 361.96 360.23 258.72 304.15 258.8Z" fill="#089D82"/>
<path d="M303.72 316.9L301.2 328.63H306.54L303.72 316.9Z" fill="#00886F"/>
<path d="M301.06 269.44L298.53 281.17H303.87L301.06 269.44Z" fill="#00886F"/>
<path d="M282.78 290.17L280.25 301.9H285.59L282.78 290.17Z" fill="#00886F"/>
<path d="M205.27 296.21L202.75 307.94H208.08L205.27 296.21Z" fill="#00886F"/>
<path d="M219.34 317.37L216.82 329.1H222.16L219.34 317.37Z" fill="#00886F"/>
<path d="M270.03 334.69L267.51 346.43H272.85L270.03 334.69Z" fill="#00886F"/>
<path d="M320.88 286.56L318.36 298.29H323.69L320.88 286.56Z" fill="#00886F"/>
<path d="M382 228.88L381.84 327.11C381.84 327.11 386.71 328.47 390.62 327.11L386.23 226.7L382 228.88Z" fill="#00A688"/>
<path d="M390.66 225.24C390.659 224.666 390.544 224.098 390.324 223.568C390.103 223.039 389.78 222.558 389.373 222.153C388.966 221.748 388.484 221.427 387.953 221.209C387.422 220.99 386.854 220.879 386.28 220.88H376.11L376.46 229.6C376.46 229.6 381.36 229.42 384.77 229.32C385.805 229.71 386.95 229.689 387.97 229.26C388.767 228.932 389.448 228.375 389.927 227.659C390.406 226.944 390.661 226.101 390.66 225.24Z" fill="#00A688"/>
<path d="M400.09 176.19L375.77 208.59L376.28 220.87H375.67C374.548 221.035 373.525 221.601 372.789 222.463C372.053 223.326 371.656 224.426 371.67 225.56L322.2 229.31L362.42 234.13L372.42 227.75C372.984 228.461 373.734 229.002 374.586 229.313C375.439 229.623 376.361 229.692 377.25 229.51C377.863 229.391 378.452 229.167 378.99 228.85L407.47 270L391.29 232.86L380.6 227.37C381.191 226.489 381.42 225.415 381.24 224.37C381.093 223.637 380.756 222.956 380.262 222.395C379.769 221.833 379.138 221.411 378.43 221.17L400.09 176.19Z" fill="#00A688"/>
<path opacity="0.2" d="M400.09 176.19L375.77 208.59L376.28 220.87H375.67C374.548 221.035 373.525 221.601 372.789 222.463C372.053 223.326 371.656 224.426 371.67 225.56L322.2 229.31L362.42 234.13L372.42 227.75C372.984 228.461 373.734 229.002 374.586 229.313C375.439 229.623 376.361 229.692 377.25 229.51C377.863 229.391 378.452 229.167 378.99 228.85L407.47 270L391.29 232.86L380.6 227.37C381.191 226.489 381.42 225.415 381.24 224.37C381.093 223.637 380.756 222.956 380.262 222.395C379.769 221.833 379.138 221.411 378.43 221.17L400.09 176.19Z" fill="white"/>
<path opacity="0.2" d="M375.8 227.22C375.44 227.149 375.109 226.976 374.845 226.721C374.582 226.466 374.398 226.14 374.315 225.783C374.233 225.426 374.255 225.052 374.38 224.707C374.505 224.363 374.728 224.062 375.02 223.84C375.312 223.619 375.663 223.487 376.028 223.461C376.394 223.434 376.76 223.514 377.081 223.69C377.402 223.867 377.666 224.132 377.84 224.455C378.013 224.778 378.09 225.144 378.06 225.51C377.988 226.035 377.711 226.51 377.289 226.83C376.867 227.151 376.335 227.291 375.81 227.22H375.8Z" fill="white"/>
<path opacity="0.4" d="M366.25 215.11C363.083 215.111 359.991 214.152 357.38 212.36C355.604 211.011 353.981 209.472 352.54 207.77C351.078 206.01 349.398 204.444 347.54 203.11C345.535 201.841 343.232 201.121 340.861 201.021C338.49 200.921 336.135 201.445 334.03 202.54C331.924 203.843 329.991 205.409 328.28 207.2C327.6 207.86 326.92 208.51 326.28 209.14C322.84 212.23 319.69 213.65 316.65 213.47C314.985 213.351 313.39 212.758 312.05 211.763C310.711 210.767 309.684 209.409 309.09 207.85C309.063 207.778 309.05 207.702 309.052 207.626C309.055 207.549 309.072 207.474 309.104 207.404C309.135 207.334 309.181 207.272 309.237 207.219C309.293 207.167 309.358 207.127 309.43 207.1C309.573 207.048 309.731 207.055 309.87 207.118C310.008 207.182 310.116 207.297 310.17 207.44C310.685 208.792 311.575 209.969 312.735 210.833C313.895 211.697 315.277 212.213 316.72 212.32C319.44 212.48 322.31 211.15 325.51 208.32C326.19 207.7 326.86 207.06 327.51 206.41C329.289 204.54 331.306 202.913 333.51 201.57C335.795 200.373 338.354 199.799 340.93 199.904C343.507 200.01 346.011 200.791 348.19 202.17C350.121 203.557 351.871 205.179 353.4 207C354.778 208.641 356.334 210.123 358.04 211.42C359.888 212.687 362.005 213.508 364.225 213.819C366.444 214.129 368.705 213.921 370.83 213.21C370.902 213.186 370.979 213.176 371.055 213.181C371.131 213.186 371.205 213.206 371.273 213.24C371.341 213.274 371.402 213.321 371.452 213.379C371.502 213.436 371.541 213.503 371.565 213.575C371.589 213.647 371.599 213.723 371.594 213.799C371.589 213.875 371.569 213.95 371.535 214.018C371.501 214.086 371.454 214.147 371.396 214.197C371.339 214.247 371.272 214.286 371.2 214.31C369.604 214.842 367.932 215.113 366.25 215.11Z" fill="white"/>
<path opacity="0.4" d="M366.25 223.42C363.083 223.421 359.991 222.462 357.38 220.67C355.606 219.319 353.984 217.78 352.54 216.08C351.078 214.318 349.398 212.749 347.54 211.41C345.536 210.143 343.234 209.424 340.865 209.326C338.496 209.227 336.142 209.753 334.04 210.85C331.934 212.153 330.001 213.719 328.29 215.51C327.61 216.17 326.93 216.82 326.29 217.45C322.85 220.54 319.7 221.95 316.66 221.78C314.996 221.661 313.4 221.068 312.06 220.073C310.721 219.077 309.694 217.72 309.1 216.16C309.073 216.088 309.06 216.012 309.062 215.936C309.065 215.859 309.082 215.784 309.114 215.714C309.145 215.644 309.191 215.582 309.247 215.529C309.303 215.477 309.368 215.437 309.44 215.41C309.583 215.358 309.741 215.365 309.88 215.428C310.018 215.492 310.126 215.607 310.18 215.75C310.695 217.102 311.585 218.279 312.745 219.143C313.905 220.008 315.287 220.523 316.73 220.63C319.45 220.79 322.32 219.46 325.52 216.63C326.2 216.01 326.87 215.37 327.52 214.72C329.299 212.85 331.316 211.223 333.52 209.88C335.804 208.682 338.362 208.106 340.939 208.209C343.516 208.313 346.02 209.093 348.2 210.47C350.147 211.867 351.911 213.503 353.45 215.34C354.833 216.976 356.389 218.458 358.09 219.76C359.939 221.025 362.056 221.845 364.275 222.155C366.494 222.466 368.755 222.259 370.88 221.55C370.952 221.526 371.029 221.516 371.105 221.521C371.181 221.526 371.255 221.546 371.323 221.58C371.391 221.614 371.452 221.661 371.502 221.719C371.553 221.776 371.591 221.843 371.615 221.915C371.639 221.987 371.649 222.064 371.644 222.14C371.639 222.216 371.619 222.29 371.585 222.358C371.551 222.426 371.504 222.487 371.446 222.537C371.389 222.587 371.322 222.626 371.25 222.65C369.637 223.178 367.948 223.438 366.25 223.42Z" fill="white"/>
<path opacity="0.4" d="M366.25 231.73C363.083 231.731 359.991 230.772 357.38 228.98C355.606 227.628 353.984 226.09 352.54 224.39C351.078 222.628 349.398 221.059 347.54 219.72C345.536 218.453 343.234 217.734 340.865 217.636C338.496 217.537 336.142 218.063 334.04 219.16C331.93 220.455 330 222.021 328.3 223.82C327.62 224.47 326.94 225.13 326.24 225.76C322.8 228.85 319.65 230.27 316.61 230.09C314.944 229.971 313.347 229.378 312.007 228.38C310.667 227.382 309.641 226.022 309.05 224.46C309.023 224.388 309.01 224.312 309.012 224.236C309.015 224.159 309.032 224.084 309.064 224.014C309.095 223.944 309.141 223.882 309.197 223.829C309.253 223.777 309.318 223.737 309.39 223.71C309.533 223.658 309.691 223.665 309.83 223.728C309.968 223.792 310.076 223.907 310.13 224.05C310.642 225.404 311.531 226.584 312.692 227.45C313.852 228.317 315.236 228.834 316.68 228.94C319.4 229.09 322.27 227.77 325.47 224.94C326.15 224.32 326.83 223.67 327.47 223.03C329.244 221.152 331.262 219.52 333.47 218.18C335.755 216.986 338.314 216.414 340.89 216.519C343.466 216.624 345.97 217.404 348.15 218.78C350.097 220.177 351.861 221.813 353.4 223.65C354.775 225.259 356.317 226.717 358 228C359.848 229.267 361.965 230.088 364.185 230.399C366.404 230.709 368.665 230.501 370.79 229.79C370.936 229.741 371.095 229.752 371.233 229.82C371.371 229.889 371.476 230.009 371.525 230.155C371.574 230.301 371.563 230.46 371.495 230.598C371.426 230.736 371.306 230.841 371.16 230.89C369.579 231.432 367.921 231.715 366.25 231.73Z" fill="white"/>
<path d="M296.66 372.7H464.81C464.81 372.7 448.65 318.16 384.81 318.2C343.1 318.23 316.28 335.76 296.66 372.7Z" fill="#08AD8F"/>
<path d="M366.7 306.77L363.3 324.3H370.49L366.7 306.77Z" fill="#00957A"/>
<path d="M385.54 321.85L382.14 339.37H389.33L385.54 321.85Z" fill="#00957A"/>
<path d="M348.25 340.28L344.84 357.8H352.04L348.25 340.28Z" fill="#00957A"/>
<path d="M428.54 342.44L425.14 359.96H432.33L428.54 342.44Z" fill="#00957A"/>
<path d="M406.69 306.95L403.29 324.47H410.48L406.69 306.95Z" fill="#00957A"/>
<path d="M135.61 198.85C135.629 197.087 134.948 195.389 133.716 194.127C132.485 192.865 130.803 192.144 129.04 192.12H113.82L114.35 205.57H129.61C131.27 205.405 132.808 204.623 133.919 203.378C135.03 202.134 135.633 200.518 135.61 198.85Z" fill="#00A688"/>
<path opacity="0.1" d="M135.61 198.85C135.629 197.087 134.948 195.389 133.716 194.127C132.485 192.865 130.803 192.144 129.04 192.12H113.82L114.35 205.57H129.61C131.27 205.405 132.808 204.623 133.919 203.378C135.03 202.134 135.633 200.518 135.61 198.85Z" fill="black"/>
<path d="M122.69 205.19L122.46 351.64C122.46 351.64 129.74 353.64 135.59 351.64L129 201.92L122.69 205.19Z" fill="#00A688"/>
<path opacity="0.1" d="M135.61 351.64C129.77 353.64 122.48 351.64 122.48 351.64V322.45L122.66 205.19L129 201.92L134.27 322.45L134.35 324.18L134.54 328.39L134.77 333.76L135.61 351.64Z" fill="black"/>
<path d="M137.49 189.57L120.43 196.51C119.77 195.149 118.727 194.009 117.43 193.23C116.495 192.647 115.445 192.274 114.352 192.138C113.259 192.001 112.149 192.104 111.1 192.44L80.36 124.68L94.24 183.68L108.24 194.44C108.079 194.636 107.932 194.843 107.8 195.06C105.99 198.06 107.05 201.98 110.14 204.16L66.14 264.72L110.61 223.52L113.13 205.43C114.462 205.758 115.862 205.664 117.138 205.161C118.414 204.657 119.501 203.769 120.25 202.62C120.8 201.714 121.1 200.679 121.12 199.62L195.42 207.37L137.49 189.57Z" fill="#00A688"/>
<path opacity="0.3" d="M134.3 322.45H122.51V324.18H134.38L134.3 322.45Z" fill="white"/>
<path opacity="0.3" d="M134.8 333.76H122.49L122.5 328.39H134.57L134.8 333.76Z" fill="white"/>
<path opacity="0.2" d="M116 196.78C116.352 197.206 116.574 197.724 116.638 198.273C116.703 198.822 116.608 199.377 116.365 199.873C116.121 200.369 115.74 200.784 115.266 201.069C114.793 201.354 114.247 201.495 113.695 201.477C113.143 201.459 112.607 201.282 112.153 200.968C111.699 200.653 111.346 200.214 111.135 199.703C110.924 199.192 110.866 198.631 110.966 198.088C111.066 197.545 111.321 197.042 111.7 196.64C112.273 196.089 113.042 195.787 113.837 195.802C114.632 195.817 115.388 196.147 115.94 196.72L116 196.78Z" fill="white"/>
<path d="M62.3301 372.7H193C193 372.7 180.45 325.34 130.82 325.38C98.4201 325.4 77.5801 340.63 62.3301 372.7Z" fill="#00A688"/>
<path d="M113.25 316.44L109.85 333.97H117.04L113.25 316.44Z" fill="#00957A"/>
<path d="M132.09 331.51L128.69 349.04H135.88L132.09 331.51Z" fill="#00957A"/>
<path d="M153.23 316.61L149.83 334.14H157.02L153.23 316.61Z" fill="#00957A"/>
<path opacity="0.4" d="M103.18 213.66C100.016 213.662 96.9265 212.703 94.3201 210.91C92.5386 209.564 90.912 208.025 89.4701 206.32C88.0053 204.563 86.3255 202.998 84.4701 201.66C82.4701 200.396 80.1736 199.68 77.8099 199.581C75.4462 199.483 73.098 200.007 71.0001 201.1C68.8759 202.407 66.9297 203.983 65.2101 205.79C64.5501 206.44 63.8801 207.08 63.2101 207.69C59.7901 210.78 56.6301 212.2 53.5701 212.03C51.9026 211.912 50.3038 211.319 48.9625 210.321C47.6211 209.324 46.5932 207.963 46.0001 206.4C45.9478 206.255 45.9541 206.096 46.0176 205.956C46.0811 205.816 46.1968 205.706 46.3401 205.65C46.4109 205.623 46.4865 205.61 46.5623 205.613C46.6381 205.615 46.7126 205.633 46.7815 205.665C46.8504 205.696 46.9124 205.741 46.9636 205.797C47.0149 205.853 47.0545 205.919 47.0801 205.99C47.5928 207.337 48.4762 208.511 49.6283 209.376C50.7804 210.241 52.154 210.763 53.5901 210.88C56.3301 211.02 59.2001 209.71 62.3801 206.88C63.0501 206.27 63.7101 205.64 64.3801 205C66.1584 203.118 68.1755 201.478 70.3801 200.12C72.6621 198.926 75.2184 198.353 77.7918 198.461C80.3652 198.568 82.8651 199.35 85.0401 200.73C86.9914 202.118 88.7559 203.751 90.2901 205.59C91.6908 207.231 93.2706 208.71 95.0001 210C96.8454 211.269 98.9603 212.093 101.178 212.405C103.396 212.717 105.656 212.51 107.78 211.8C107.919 211.772 108.063 211.795 108.185 211.865C108.308 211.935 108.401 212.048 108.446 212.182C108.492 212.316 108.487 212.461 108.432 212.592C108.378 212.722 108.277 212.828 108.15 212.89C106.546 213.415 104.868 213.675 103.18 213.66Z" fill="white"/>
<path opacity="0.4" d="M103.18 222C100.016 222.002 96.9265 221.043 94.3201 219.25C92.5443 217.905 90.9213 216.369 89.4801 214.67C88.0177 212.908 86.3376 211.339 84.4801 210C82.4767 208.731 80.1746 208.011 77.8051 207.913C75.4355 207.814 73.0817 208.341 70.9801 209.44C68.8559 210.747 66.9097 212.323 65.1901 214.13C64.5301 214.78 63.8601 215.42 63.1901 216.03C59.7701 219.12 56.6101 220.53 53.5501 220.36C51.8869 220.24 50.2927 219.647 48.9551 218.652C47.6175 217.656 46.5922 216.299 46.0001 214.74C45.9478 214.595 45.9541 214.436 46.0176 214.296C46.0811 214.156 46.1968 214.046 46.3401 213.99C46.4109 213.963 46.4865 213.95 46.5623 213.953C46.6381 213.955 46.7126 213.973 46.7815 214.005C46.8504 214.036 46.9124 214.081 46.9636 214.137C47.0149 214.193 47.0545 214.259 47.0801 214.33C47.5922 215.676 48.4758 216.849 49.6282 217.713C50.7806 218.577 52.1544 219.096 53.5901 219.21C56.3201 219.36 59.2001 218.05 62.3801 215.21C63.0501 214.6 63.7101 213.97 64.3801 213.33C66.1584 211.448 68.1755 209.808 70.3801 208.45C72.6621 207.256 75.2184 206.683 77.7918 206.791C80.3652 206.898 82.8651 207.68 85.0401 209.06C86.9942 210.448 88.762 212.082 90.3001 213.92C91.7015 215.548 93.2776 217.017 95.0001 218.3C96.8457 219.569 98.9606 220.391 101.178 220.704C103.396 221.016 105.656 220.809 107.78 220.1C107.919 220.071 108.063 220.095 108.185 220.165C108.308 220.235 108.401 220.348 108.446 220.482C108.492 220.616 108.487 220.761 108.432 220.892C108.378 221.022 108.277 221.128 108.15 221.19C106.548 221.728 104.87 222.002 103.18 222Z" fill="white"/>
<path opacity="0.4" d="M103.18 230.31C100.016 230.312 96.9265 229.353 94.32 227.56C92.5402 226.224 90.9136 224.694 89.4701 223C88.0082 221.238 86.328 219.668 84.4701 218.33C82.4657 217.062 80.1632 216.344 77.7937 216.248C75.4241 216.151 73.0708 216.68 70.97 217.78C68.8444 219.081 66.9008 220.658 65.1901 222.47C64.5201 223.11 63.85 223.76 63.19 224.37C59.77 227.46 56.61 228.87 53.55 228.7C51.878 228.572 50.2778 227.967 48.9395 226.957C47.6011 225.946 46.5809 224.573 46 223C45.9457 222.855 45.951 222.695 46.0147 222.555C46.0785 222.414 46.1955 222.304 46.34 222.25C46.4846 222.196 46.6448 222.201 46.7855 222.265C46.9261 222.328 47.0357 222.445 47.09 222.59C47.5937 223.941 48.4734 225.119 49.6252 225.985C50.777 226.852 52.1528 227.37 53.59 227.48C56.32 227.64 59.2 226.32 62.38 223.48C63.05 222.87 63.71 222.23 64.38 221.6C66.1525 219.712 68.1706 218.071 70.38 216.72C72.6612 215.524 75.217 214.95 77.7904 215.056C80.3639 215.161 82.8642 215.942 85.0401 217.32C86.9914 218.708 88.7559 220.341 90.2901 222.18C91.69 223.828 93.2698 225.314 95 226.61C96.8457 227.879 98.9606 228.701 101.178 229.014C103.396 229.326 105.656 229.119 107.78 228.41C107.919 228.381 108.063 228.405 108.185 228.475C108.308 228.545 108.401 228.658 108.446 228.792C108.492 228.926 108.487 229.071 108.432 229.202C108.378 229.332 108.277 229.438 108.15 229.5C106.548 230.038 104.87 230.312 103.18 230.31Z" fill="white"/>
<path d="M261.66 169.7L261.36 403.46C261.36 403.46 272.97 406.74 282.29 403.46L271.82 164.46L261.66 169.7Z" fill="#00A688"/>
<path opacity="0.2" d="M282.29 403.46C272.97 406.73 261.36 403.46 261.36 403.46V365L261.66 169.7L271.82 164.45L280.6 365L280.77 368.81L281.15 377.49L281.62 388.21L282.29 403.46Z" fill="black"/>
<path d="M271.82 170.2C277.597 170.2 282.28 165.015 282.28 158.62C282.28 152.225 277.597 147.04 271.82 147.04C266.043 147.04 261.36 152.225 261.36 158.62C261.36 165.015 266.043 170.2 271.82 170.2Z" fill="#00A688"/>
<path d="M271.82 170.21C272.26 169.98 248.44 170.21 248.44 170.21V147H271.82V170.21Z" fill="#00A688"/>
<path opacity="0.1" d="M271.82 147H248.44V170.17C248.44 170.17 266.02 169.96 270.69 170.05C271.065 170.102 271.442 170.129 271.82 170.13C277.6 170.13 282.29 164.94 282.29 158.54C282.29 152.14 277.6 147 271.82 147Z" fill="black"/>
<path d="M248.44 147C254.22 147 258.9 152.18 258.9 158.58C258.9 164.98 254.22 170.17 248.44 170.17C242.66 170.17 238 165 238 158.62C238 152.24 242.66 147 248.44 147Z" fill="#00A688"/>
<path d="M243.72 154.45L205.38 165.92L115.61 128.55L243.72 154.45Z" fill="#00A688"/>
<path d="M251.15 151.96L260.53 112.62L338.69 53L251.15 151.96Z" fill="#00A688"/>
<path d="M254.21 162.59L283.54 189.9L296.72 286.44L254.21 162.59Z" fill="#00A688"/>
<path opacity="0.3" d="M281.62 388.24H261.39V377.47C266.34 377.54 274.88 377.61 281.13 377.47L281.62 388.24Z" fill="white"/>
<path opacity="0.3" d="M280.77 368.84H261.42L261.43 365.03H280.6L280.77 368.84Z" fill="white"/>
<path opacity="0.2" d="M253.22 158C253.46 161 251.5 163.58 248.85 163.79C248.178 163.806 247.51 163.689 246.883 163.446C246.256 163.204 245.683 162.839 245.198 162.375C244.712 161.911 244.322 161.355 244.052 160.74C243.781 160.124 243.634 159.462 243.62 158.79C243.39 155.79 245.34 153.21 247.99 152.99C248.663 152.974 249.332 153.091 249.959 153.335C250.587 153.578 251.16 153.943 251.646 154.408C252.132 154.874 252.521 155.431 252.791 156.047C253.061 156.664 253.207 157.327 253.22 158Z" fill="white"/>
<path d="M173.76 360C232.03 360 255.27 402.93 255.27 402.93C255.27 402.93 365.58 365.18 408.27 442H58.53C58.53 442 87.16 360 173.76 360Z" fill="#08AD8F"/>
<path opacity="0.4" d="M218.2 155.78C213.845 155.778 209.593 154.46 206 152C203.51 150.117 201.239 147.96 199.23 145.57C197.178 143.101 194.827 140.898 192.23 139.01C189.386 137.205 186.117 136.181 182.752 136.041C179.387 135.9 176.044 136.648 173.06 138.21C170.059 140.017 167.32 142.228 164.92 144.78C164 145.68 163.05 146.6 162.08 147.48C157.37 151.74 153.03 153.7 148.83 153.48C146.56 153.315 144.384 152.504 142.559 151.143C140.734 149.783 139.336 147.929 138.53 145.8C138.506 145.738 138.494 145.672 138.496 145.606C138.497 145.54 138.512 145.475 138.539 145.414C138.566 145.354 138.605 145.299 138.653 145.254C138.701 145.209 138.758 145.173 138.82 145.15C138.946 145.101 139.086 145.104 139.21 145.158C139.334 145.213 139.431 145.314 139.48 145.44C140.222 147.382 141.502 149.072 143.171 150.312C144.839 151.551 146.827 152.29 148.9 152.44C152.8 152.64 156.9 150.78 161.4 146.72C162.4 145.85 163.3 144.93 164.22 144.05C166.679 141.425 169.493 139.157 172.58 137.31C175.724 135.665 179.246 134.875 182.791 135.021C186.337 135.166 189.782 136.242 192.78 138.14C195.46 140.079 197.888 142.343 200.01 144.88C201.974 147.208 204.187 149.314 206.61 151.16C209.235 152.953 212.239 154.115 215.387 154.556C218.536 154.997 221.743 154.704 224.76 153.7C224.887 153.659 225.026 153.669 225.146 153.729C225.265 153.789 225.357 153.893 225.4 154.02C225.422 154.083 225.431 154.15 225.427 154.216C225.422 154.283 225.405 154.348 225.375 154.407C225.345 154.467 225.304 154.52 225.253 154.563C225.202 154.607 225.143 154.64 225.08 154.66C222.864 155.41 220.539 155.788 218.2 155.78Z" fill="white"/>
<path opacity="0.4" d="M218.17 167.38C213.818 167.383 209.566 166.073 205.97 163.62C203.485 161.735 201.214 159.582 199.2 157.2C197.151 154.726 194.799 152.518 192.2 150.63C189.354 148.83 186.086 147.809 182.722 147.668C179.358 147.528 176.016 148.273 173.03 149.83C170.034 151.644 167.299 153.858 164.9 156.41C163.98 157.3 163.02 158.23 162.05 159.11C157.34 163.37 153 165.33 148.8 165.11C146.531 164.937 144.357 164.122 142.534 162.76C140.71 161.399 139.311 159.547 138.5 157.42C138.476 157.358 138.464 157.292 138.466 157.226C138.468 157.16 138.482 157.095 138.509 157.034C138.536 156.974 138.575 156.919 138.623 156.874C138.671 156.829 138.728 156.793 138.79 156.77C138.916 156.721 139.056 156.724 139.18 156.778C139.304 156.833 139.401 156.934 139.45 157.06C140.193 159.001 141.474 160.69 143.142 161.93C144.81 163.17 146.797 163.909 148.87 164.06C152.77 164.27 156.87 162.4 161.37 158.34C162.37 157.47 163.28 156.55 164.2 155.66C166.659 153.038 169.469 150.77 172.55 148.92C175.694 147.275 179.216 146.485 182.761 146.631C186.307 146.776 189.752 147.852 192.75 149.75C195.435 151.686 197.868 153.95 199.99 156.49C201.945 158.823 204.156 160.929 206.58 162.77C209.207 164.559 212.212 165.716 215.361 166.152C218.509 166.587 221.716 166.289 224.73 165.28C224.857 165.239 224.996 165.249 225.116 165.309C225.235 165.369 225.327 165.473 225.37 165.6C225.392 165.663 225.401 165.73 225.397 165.796C225.392 165.863 225.375 165.928 225.345 165.987C225.315 166.047 225.274 166.1 225.223 166.143C225.172 166.187 225.114 166.22 225.05 166.24C222.836 166.998 220.511 167.383 218.17 167.38Z" fill="white"/>
<path opacity="0.4" d="M218.24 179C213.87 179 209.602 177.675 206 175.2C203.514 173.315 201.244 171.162 199.23 168.78C197.181 166.306 194.829 164.098 192.23 162.21C189.386 160.405 186.117 159.381 182.752 159.241C179.387 159.1 176.044 159.848 173.06 161.41C170.064 163.224 167.329 165.438 164.93 167.99C164.01 168.88 163.05 169.81 162.08 170.69C157.36 174.95 153.08 176.9 148.83 176.69C146.559 176.526 144.383 175.716 142.558 174.355C140.733 172.994 139.335 171.139 138.53 169.01C138.506 168.948 138.494 168.882 138.496 168.816C138.497 168.75 138.512 168.685 138.539 168.624C138.566 168.564 138.605 168.509 138.653 168.464C138.701 168.419 138.758 168.383 138.82 168.36C138.946 168.311 139.086 168.314 139.21 168.368C139.334 168.423 139.431 168.524 139.48 168.65C140.22 170.593 141.5 172.284 143.169 173.525C144.837 174.765 146.826 175.502 148.9 175.65C152.8 175.87 156.9 174 161.4 169.94C162.4 169.07 163.31 168.15 164.23 167.26C166.688 164.638 169.499 162.37 172.58 160.52C175.724 158.875 179.246 158.085 182.791 158.231C186.337 158.376 189.782 159.452 192.78 161.35C195.465 163.286 197.898 165.55 200.02 168.09C201.975 170.423 204.186 172.529 206.61 174.37C209.22 176.171 212.21 177.345 215.347 177.801C218.485 178.258 221.686 177.983 224.7 177C224.827 176.959 224.966 176.969 225.086 177.029C225.205 177.089 225.297 177.193 225.34 177.32C225.362 177.383 225.371 177.45 225.367 177.516C225.362 177.583 225.345 177.648 225.315 177.707C225.285 177.767 225.244 177.82 225.193 177.863C225.142 177.907 225.083 177.94 225.02 177.96C222.831 178.671 220.541 179.022 218.24 179Z" fill="white"/>
</svg>
