<svg width="200" height="177" viewBox="0 0 200 177" fill="none" xmlns="http://www.w3.org/2000/svg">
<path d="M118.396 50.1241C91.3779 61.3216 71.3433 26.6438 48.9638 21.0374C21.582 14.1766 -0.648999 39.2032 7.53788 65.4278C14.5625 87.9149 35.79 87.3977 52.3481 98.7078C74.958 114.175 84.4864 137.82 113.65 144.947C169.97 158.714 186.687 77.6902 173.139 35.2147C168.465 20.5613 163.718 8.40638 145.67 13.7619C129.302 18.6413 129.527 45.511 118.396 50.1241Z" fill="#F99942"/>
<path opacity="0.9" d="M118.396 50.1241C91.3779 61.3216 71.3433 26.6438 48.9638 21.0374C21.582 14.1766 -0.648999 39.2032 7.53788 65.4278C14.5625 87.9149 35.79 87.3977 52.3481 98.7078C74.958 114.175 84.4864 137.82 113.65 144.947C169.97 158.714 186.687 77.6902 173.139 35.2147C168.465 20.5613 163.718 8.40638 145.67 13.7619C129.302 18.6413 129.527 45.511 118.396 50.1241Z" fill="white"/>
<path d="M99.9999 176.911C154.826 176.911 199.272 174.316 199.272 171.115C199.272 167.914 154.826 165.319 99.9999 165.319C45.1737 165.319 0.728271 167.914 0.728271 171.115C0.728271 174.316 45.1737 176.911 99.9999 176.911Z" fill="#F5F5F5"/>
<path d="M196.973 0.552368H100.276V96.7674H196.973V0.552368Z" fill="#00A688"/>
<path opacity="0.1" d="M131.841 5.3396H100.276V23.449H131.841V5.3396Z" fill="black"/>
<path opacity="0.2" d="M131.841 41.5585H100.276V59.6679H131.841V41.5585Z" fill="black"/>
<path opacity="0.1" d="M131.841 59.668H100.276V77.7774H131.841V59.668Z" fill="black"/>
<path d="M131.841 5.3396H195.37V93.1681C195.37 93.79 195.123 94.3865 194.683 94.8262C194.244 95.266 193.647 95.513 193.025 95.513H134.186C133.564 95.513 132.968 95.266 132.528 94.8262C132.088 94.3865 131.841 93.79 131.841 93.1681V5.3396Z" fill="white"/>
<path opacity="0.3" d="M196.973 0.552368H100.276V5.33957H196.973V0.552368Z" fill="black"/>
<path opacity="0.8" d="M104.045 3.92131C104.582 3.92131 105.018 3.48577 105.018 2.94851C105.018 2.41125 104.582 1.97571 104.045 1.97571C103.508 1.97571 103.072 2.41125 103.072 2.94851C103.072 3.48577 103.508 3.92131 104.045 3.92131Z" fill="#00A688"/>
<path opacity="0.8" d="M108.484 3.92131C109.021 3.92131 109.457 3.48577 109.457 2.94851C109.457 2.41125 109.021 1.97571 108.484 1.97571C107.947 1.97571 107.511 2.41125 107.511 2.94851C107.511 3.48577 107.947 3.92131 108.484 3.92131Z" fill="#00A688"/>
<path opacity="0.8" d="M112.918 3.92131C113.455 3.92131 113.891 3.48577 113.891 2.94851C113.891 2.41125 113.455 1.97571 112.918 1.97571C112.381 1.97571 111.945 2.41125 111.945 2.94851C111.945 3.48577 112.381 3.92131 112.918 3.92131Z" fill="#00A688"/>
<path opacity="0.2" d="M175.228 14.3661H138.205C137.399 14.3661 136.746 15.0194 136.746 15.8253V44.9274C136.746 45.7333 137.399 46.3866 138.205 46.3866H175.228C176.034 46.3866 176.687 45.7333 176.687 44.9274V15.8253C176.687 15.0194 176.034 14.3661 175.228 14.3661Z" fill="#00A688"/>
<path opacity="0.2" d="M190.434 11.8215H161.998C161.379 11.8215 160.877 12.3235 160.877 12.9428V35.2967C160.877 35.916 161.379 36.418 161.998 36.418H190.434C191.054 36.418 191.556 35.916 191.556 35.2967V12.9428C191.556 12.3235 191.054 11.8215 190.434 11.8215Z" fill="#00A688"/>
<path opacity="0.2" d="M174.527 56.7188H146.09C145.471 56.7188 144.969 57.2208 144.969 57.84V80.194C144.969 80.8132 145.471 81.3152 146.09 81.3152H174.527C175.146 81.3152 175.648 80.8132 175.648 80.194V57.84C175.648 57.2208 175.146 56.7188 174.527 56.7188Z" fill="#00A688"/>
<path opacity="0.7" d="M196.973 0.552368H100.276V96.7674H196.973V0.552368Z" fill="white"/>
<path d="M188.095 9.43042H91.3984V105.645H188.095V9.43042Z" fill="#00A688"/>
<path opacity="0.1" d="M122.963 14.2177H91.3984V32.3271H122.963V14.2177Z" fill="black"/>
<path opacity="0.2" d="M122.963 50.4314H91.3984V68.5408H122.963V50.4314Z" fill="black"/>
<path opacity="0.1" d="M122.963 68.5408H91.3984V86.6502H122.963V68.5408Z" fill="black"/>
<path d="M122.963 14.2177H186.492V102.041C186.492 102.663 186.245 103.259 185.805 103.699C185.366 104.139 184.769 104.386 184.147 104.386H125.313C124.691 104.386 124.095 104.139 123.655 103.699C123.215 103.259 122.968 102.663 122.968 102.041V14.2177H122.963Z" fill="white"/>
<path opacity="0.3" d="M188.095 9.43042H91.3984V14.2176H188.095V9.43042Z" fill="black"/>
<path opacity="0.8" d="M95.1666 12.7944C95.7039 12.7944 96.1394 12.3588 96.1394 11.8216C96.1394 11.2843 95.7039 10.8488 95.1666 10.8488C94.6294 10.8488 94.1938 11.2843 94.1938 11.8216C94.1938 12.3588 94.6294 12.7944 95.1666 12.7944Z" fill="#00A688"/>
<path opacity="0.8" d="M99.6059 12.7944C100.143 12.7944 100.579 12.3588 100.579 11.8216C100.579 11.2843 100.143 10.8488 99.6059 10.8488C99.0686 10.8488 98.6331 11.2843 98.6331 11.8216C98.6331 12.3588 99.0686 12.7944 99.6059 12.7944Z" fill="#00A688"/>
<path opacity="0.8" d="M104.045 12.7944C104.582 12.7944 105.018 12.3588 105.018 11.8216C105.018 11.2843 104.582 10.8488 104.045 10.8488C103.508 10.8488 103.072 11.2843 103.072 11.8216C103.072 12.3588 103.508 12.7944 104.045 12.7944Z" fill="#00A688"/>
<path opacity="0.2" d="M166.355 23.2443H129.332C128.527 23.2443 127.873 23.8976 127.873 24.7035V53.8055C127.873 54.6114 128.527 55.2647 129.332 55.2647H166.355C167.161 55.2647 167.814 54.6114 167.814 53.8055V24.7035C167.814 23.8976 167.161 23.2443 166.355 23.2443Z" fill="#00A688"/>
<path opacity="0.2" d="M182.027 48.5421H153.591C152.972 48.5421 152.47 49.0441 152.47 49.6634V72.0173C152.47 72.6366 152.972 73.1386 153.591 73.1386H182.027C182.647 73.1386 183.149 72.6366 183.149 72.0173V49.6634C183.149 49.0441 182.647 48.5421 182.027 48.5421Z" fill="#00A688"/>
<path opacity="0.2" d="M165.654 65.5968H137.217C136.598 65.5968 136.096 66.0988 136.096 66.7181V89.072C136.096 89.6913 136.598 90.1933 137.217 90.1933H165.654C166.273 90.1933 166.775 89.6913 166.775 89.072V66.7181C166.775 66.0988 166.273 65.5968 165.654 65.5968Z" fill="#00A688"/>
<path opacity="0.5" d="M188.095 9.43042H91.3984V105.645H188.095V9.43042Z" fill="white"/>
<path d="M179.222 18.3033H82.5254V114.518H179.222V18.3033Z" fill="#00A688"/>
<path opacity="0.1" d="M114.09 23.0906H82.5254V41.2H114.09V23.0906Z" fill="black"/>
<path opacity="0.2" d="M114.09 59.3094H82.5254V77.4189H114.09V59.3094Z" fill="black"/>
<path opacity="0.1" d="M114.09 77.4189H82.5254V95.5284H114.09V77.4189Z" fill="black"/>
<path d="M114.09 23.0906H177.619V110.919C177.619 111.541 177.372 112.137 176.932 112.577C176.492 113.017 175.896 113.264 175.274 113.264H116.435C115.813 113.264 115.217 113.017 114.777 112.577C114.337 112.137 114.09 111.541 114.09 110.919V23.0906Z" fill="white"/>
<path opacity="0.3" d="M179.222 18.3033H82.5254V23.0905H179.222V18.3033Z" fill="black"/>
<path opacity="0.8" d="M86.2938 21.6724C86.8311 21.6724 87.2666 21.2369 87.2666 20.6996C87.2666 20.1623 86.8311 19.7268 86.2938 19.7268C85.7566 19.7268 85.321 20.1623 85.321 20.6996C85.321 21.2369 85.7566 21.6724 86.2938 21.6724Z" fill="#00A688"/>
<path opacity="0.8" d="M91.7056 20.6996C91.7066 20.8933 91.6501 21.0828 91.5433 21.2443C91.4364 21.4058 91.2841 21.5319 91.1055 21.6067C90.9269 21.6815 90.7301 21.7016 90.54 21.6645C90.35 21.6273 90.1753 21.5346 90.038 21.398C89.9007 21.2615 89.8071 21.0873 89.7689 20.8974C89.7308 20.7076 89.7498 20.5107 89.8237 20.3317C89.8976 20.1527 90.0229 19.9997 90.1838 19.892C90.3448 19.7843 90.534 19.7268 90.7277 19.7268C90.8558 19.7261 90.9829 19.7508 91.1015 19.7994C91.2201 19.848 91.328 19.9195 91.4189 20.0099C91.5097 20.1003 91.5818 20.2078 91.6311 20.3262C91.6803 20.4445 91.7056 20.5714 91.7056 20.6996Z" fill="#00A688"/>
<path opacity="0.8" d="M95.1666 21.6724C95.7039 21.6724 96.1394 21.2369 96.1394 20.6996C96.1394 20.1623 95.7039 19.7268 95.1666 19.7268C94.6294 19.7268 94.1938 20.1623 94.1938 20.6996C94.1938 21.2369 94.6294 21.6724 95.1666 21.6724Z" fill="#00A688"/>
<path opacity="0.2" d="M134.995 15.9431H79.3664C78.1562 15.9431 77.175 16.9242 77.175 18.1345V61.8644C77.175 63.0747 78.1562 64.0558 79.3664 64.0558H134.995C136.205 64.0558 137.187 63.0747 137.187 61.8644V18.1345C137.187 16.9242 136.205 15.9431 134.995 15.9431Z" fill="#00A688"/>
<path opacity="0.2" d="M165.085 39.449H122.359C121.429 39.449 120.675 40.2031 120.675 41.1335V74.7207C120.675 75.651 121.429 76.4051 122.359 76.4051H165.085C166.016 76.4051 166.77 75.651 166.77 74.7207V41.1335C166.77 40.2031 166.016 39.449 165.085 39.449Z" fill="#00A688"/>
<path opacity="0.2" d="M180.507 85.0938H137.78C136.85 85.0938 136.096 85.8479 136.096 86.7782V120.365C136.096 121.296 136.85 122.05 137.78 122.05H180.507C181.437 122.05 182.191 121.296 182.191 120.365V86.7782C182.191 85.8479 181.437 85.0938 180.507 85.0938Z" fill="#00A688"/>
<path d="M54.0994 44.0978L50.3822 51.8956C49.1534 54.4965 47.9502 57.1129 46.8802 59.7036L46.4962 60.6713C46.4398 60.8197 46.4245 60.8505 46.3835 60.9785C46.3426 61.1065 46.3118 61.2089 46.2811 61.3522C46.1461 61.964 46.0453 62.5827 45.979 63.2057C45.8357 64.542 45.7538 65.9551 45.7026 67.3733C45.6002 70.2149 45.5746 73.1282 45.5387 76.0108L42.733 76.3231C42.0913 73.4133 41.6262 70.4673 41.3403 67.5013C41.1865 65.9703 41.1148 64.4321 41.1253 62.8933C41.1282 62.061 41.1863 61.2297 41.2994 60.405C41.325 60.19 41.3762 59.9442 41.4274 59.7087C41.4786 59.4732 41.5656 59.1609 41.6219 58.9663L41.9752 57.8757C42.9326 54.9932 44.0488 52.2437 45.2213 49.5353C46.3938 46.8268 47.6482 44.1695 48.9998 41.5225L54.0994 44.0978Z" fill="#FFC3BD"/>
<path d="M45.4976 75.1301L46.8084 77.5826L42.6253 78.75C42.6253 78.75 41.8266 76.7788 42.7738 75.2274L45.4976 75.1301Z" fill="#FFC3BD"/>
<path d="M48.4162 81.1206L44.566 81.4226L42.6255 78.75L46.8085 77.5826L48.4162 81.1206Z" fill="#FFC3BD"/>
<path d="M66.6279 23.8534C66.6893 24.1504 66.8941 24.3654 67.0887 24.3193C67.2833 24.2733 67.3908 24.007 67.3345 23.7101C67.2781 23.4131 67.0682 23.1981 66.8737 23.2441C66.6791 23.2902 66.5665 23.536 66.6279 23.8534Z" fill="#263238"/>
<path d="M66.8687 24.3654C67.4076 25.2014 68.0588 25.9594 68.804 26.6182C68.6315 26.805 68.4202 26.9518 68.1849 27.0482C67.9496 27.1446 67.6961 27.1883 67.4421 27.1762L66.8687 24.3654Z" fill="#ED847E"/>
<path d="M65.1841 22.4249C65.234 22.4239 65.2817 22.4038 65.3172 22.3686C65.4635 22.1994 65.648 22.0674 65.8555 21.9838C66.063 21.9001 66.2874 21.867 66.5102 21.8873C66.557 21.8955 66.6052 21.8847 66.6441 21.8573C66.683 21.8299 66.7094 21.7882 66.7175 21.7414C66.7257 21.6946 66.7149 21.6464 66.6875 21.6075C66.6601 21.5686 66.6185 21.5422 66.5716 21.534C66.287 21.5007 65.9986 21.5368 65.7311 21.6393C65.4636 21.7419 65.2249 21.9078 65.0356 22.1228C65.0117 22.1481 64.9958 22.1799 64.9896 22.2141C64.9835 22.2483 64.9874 22.2836 65.001 22.3156C65.0146 22.3477 65.0372 22.3751 65.0661 22.3945C65.0949 22.4139 65.1288 22.4244 65.1636 22.4249H65.1841Z" fill="#263238"/>
<path d="M58.1595 28.0364C58.6971 30.7858 59.2398 35.829 57.3147 37.662C57.3147 37.662 58.0673 40.4575 63.1771 40.4575C68.8091 40.4575 65.8651 37.6671 65.8651 37.6671C62.7931 36.9298 62.875 34.6565 63.4075 32.5164L58.1595 28.0364Z" fill="#FFC3BD"/>
<path d="M56.0347 38.6399C55.5893 37.8412 55.0926 36.9298 56.1166 36.6482C57.2379 36.3308 63.3973 36.0133 65.5221 36.6021C67.6469 37.1909 67.0581 38.8037 67.0581 38.8037L56.0347 38.6399Z" fill="#263238"/>
<path d="M40.1526 163.506C40.469 163.581 40.802 163.528 41.0793 163.358C41.1287 163.3 41.1591 163.228 41.1664 163.152C41.1737 163.076 41.1576 163 41.1202 162.933C41.0969 162.878 41.0619 162.828 41.0178 162.787C40.9736 162.747 40.9213 162.716 40.8642 162.697C40.3522 162.508 39.2258 163.107 39.1746 163.133C39.1599 163.141 39.1478 163.152 39.1396 163.167C39.1314 163.181 39.1276 163.198 39.1286 163.215C39.1299 163.232 39.1364 163.249 39.1474 163.263C39.1584 163.276 39.1732 163.286 39.19 163.291C39.503 163.395 39.8254 163.467 40.1526 163.506ZM40.7004 162.841L40.8079 162.866C40.8414 162.877 40.8721 162.895 40.8978 162.919C40.9235 162.943 40.9435 162.972 40.9564 163.005C41.023 163.158 40.9564 163.215 40.9564 163.235C40.7721 163.425 40.0092 163.348 39.4614 163.189C39.8435 162.983 40.2667 162.864 40.7004 162.841Z" fill="#00A688"/>
<path d="M39.2104 163.312C39.2235 163.317 39.2381 163.317 39.2513 163.312C39.6609 163.143 40.5006 162.406 40.4648 161.981C40.4592 161.914 40.4305 161.852 40.3838 161.804C40.3371 161.756 40.2751 161.726 40.2088 161.72C40.1426 161.702 40.0735 161.7 40.0062 161.712C39.939 161.724 39.8753 161.751 39.8196 161.791C39.3486 162.098 39.1387 163.169 39.1335 163.215C39.131 163.23 39.1325 163.245 39.1379 163.26C39.1433 163.274 39.1524 163.287 39.1643 163.297C39.1703 163.302 39.1776 163.307 39.1856 163.309C39.1935 163.312 39.202 163.313 39.2104 163.312ZM40.0654 161.996H40.1012C40.2139 162.032 40.2139 162.083 40.2139 162.109C40.2139 162.36 39.6302 162.887 39.1899 163.102C39.2927 162.686 39.5194 162.311 39.8401 162.027C39.8727 162.004 39.9094 161.989 39.9481 161.981C39.9868 161.973 40.0267 161.973 40.0654 161.981V161.996Z" fill="#00A688"/>
<path d="M67.3192 167.09C67.8005 167.09 68.2664 167.024 68.42 166.804C68.4616 166.747 68.484 166.679 68.484 166.609C68.484 166.539 68.4616 166.471 68.42 166.415C68.3575 166.31 68.2563 166.235 68.1384 166.205C67.5138 166.036 66.1979 166.788 66.1416 166.819C66.1247 166.825 66.1102 166.836 66.0998 166.851C66.0895 166.866 66.084 166.883 66.084 166.901C66.084 166.919 66.0895 166.936 66.0998 166.951C66.1102 166.966 66.1247 166.977 66.1416 166.983C66.5303 167.053 66.9243 167.089 67.3192 167.09ZM67.9131 166.358C67.9709 166.35 68.0295 166.35 68.0872 166.358C68.1232 166.365 68.1574 166.38 68.1874 166.401C68.2174 166.422 68.2425 166.45 68.2613 166.481C68.3227 166.594 68.3022 166.65 68.2613 166.681C68.0872 166.922 67.1349 166.927 66.4386 166.829C66.8966 166.587 67.3974 166.436 67.9131 166.384V166.358Z" fill="#00A688"/>
<path d="M66.2081 166.983C66.6587 166.778 67.5598 165.959 67.4932 165.539C67.4932 165.442 67.4062 165.314 67.1605 165.288C67.0692 165.278 66.9767 165.286 66.8888 165.313C66.8008 165.339 66.719 165.383 66.6485 165.442C66.1723 165.836 66.0699 166.85 66.0648 166.891C66.0642 166.906 66.0671 166.922 66.0733 166.936C66.0795 166.95 66.0888 166.963 66.1006 166.973C66.1164 166.983 66.1344 166.989 66.1531 166.991C66.1718 166.993 66.1907 166.99 66.2081 166.983ZM67.1246 165.447H67.1758C67.3397 165.447 67.3499 165.529 67.3499 165.549C67.3908 165.8 66.7816 166.44 66.3259 166.722C66.3741 166.291 66.5527 165.886 66.8379 165.56C66.9137 165.502 67.0041 165.466 67.099 165.457L67.1246 165.447Z" fill="#00A688"/>
<path d="M62.0454 166.896H65.8086L66.1824 158.187H62.4192L62.0454 166.896Z" fill="#FFC3BD"/>
<path d="M34.9351 162.744L38.6727 163.148L41.4938 154.695L37.7562 154.291L34.9351 162.744Z" fill="#FFC3BD"/>
<path d="M38.9851 162.744L34.7867 162.288C34.7123 162.28 34.6376 162.298 34.5744 162.338C34.5113 162.378 34.4634 162.438 34.4385 162.508L33.3428 165.754C33.3161 165.833 33.3076 165.916 33.318 165.999C33.3284 166.081 33.3574 166.16 33.4027 166.23C33.4481 166.299 33.5087 166.358 33.5799 166.4C33.6511 166.443 33.7311 166.469 33.8139 166.476C35.2833 166.614 36.0052 166.604 37.8535 166.804C38.9902 166.927 41.3198 167.316 42.8916 167.469C44.4635 167.623 44.8321 166.113 44.2075 165.903C41.3915 164.961 40.4033 163.972 39.5687 163.041C39.4165 162.874 39.2091 162.769 38.9851 162.744Z" fill="#263238"/>
<path d="M65.7831 166.461H61.6871C61.6128 166.46 61.5406 166.486 61.4828 166.532C61.4249 166.579 61.385 166.644 61.3696 166.717L60.6272 170.06C60.6087 170.141 60.6086 170.224 60.6271 170.305C60.6455 170.386 60.6819 170.461 60.7336 170.526C60.7854 170.59 60.851 170.642 60.9257 170.678C61.0004 170.713 61.0821 170.731 61.1648 170.731C62.6496 170.705 64.7898 170.618 66.6535 170.618C68.8295 170.618 70.7085 170.736 73.2634 170.736C74.7994 170.736 75.2346 169.174 74.5895 169.031C71.6455 168.391 69.2442 168.319 66.7047 166.753C66.4307 166.571 66.1115 166.47 65.7831 166.461Z" fill="#263238"/>
<path d="M71.3896 39.5871C72.4545 39.9199 73.6475 40.2835 74.7892 40.6111C75.931 40.9388 77.1035 41.2204 78.2657 41.4713C80.5281 42.0041 82.832 42.3415 85.1521 42.4799C85.7051 42.4799 86.2529 42.5158 86.7803 42.4799H87.1028C87.1694 42.4799 87.282 42.4799 87.3742 42.4543C87.579 42.4236 87.8145 42.3724 88.0603 42.311C89.1502 42.0113 90.2192 41.6401 91.2603 41.1999C93.4619 40.2988 95.7198 39.2441 97.9521 38.2252L99.5137 40.5753C97.5732 42.29 95.4865 43.8319 93.2776 45.1833C92.1109 45.911 90.8825 46.5347 89.6065 47.047C89.2422 47.192 88.8694 47.3151 88.4904 47.4156C88.2753 47.4668 88.0808 47.518 87.8401 47.559L87.4971 47.6153L87.2308 47.646C86.514 47.7382 85.8126 47.774 85.1163 47.7945C82.4327 47.8174 79.7541 47.56 77.124 47.0265C75.8388 46.7705 74.564 46.5145 73.3096 46.1459C72.0552 45.7772 70.8366 45.4547 69.531 44.9836L71.3896 39.5871Z" fill="#FFC3BD"/>
<path d="M50.5768 38.5171C47.0542 39.3209 43.4907 49.6326 43.4907 49.6326L50.7458 54.8345C50.7458 54.8345 52.7938 50.0371 54.765 45.8387C56.8539 41.4559 54.1813 37.6876 50.5768 38.5171Z" fill="#00A688"/>
<path opacity="0.3" d="M50.5768 38.5171C47.0542 39.3209 43.4907 49.6326 43.4907 49.6326L50.7458 54.8345C50.7458 54.8345 52.7938 50.0371 54.765 45.8387C56.8539 41.4559 54.1813 37.6876 50.5768 38.5171Z" fill="black"/>
<path d="M71.6506 38.7065C71.6506 38.7065 75.6544 43.2326 71.8707 71.2185H51.7543C51.616 68.1465 53.5565 53.0681 50.5767 38.5171C52.8017 38.086 55.0524 37.8004 57.3146 37.662C60.1623 37.4955 63.0173 37.4955 65.865 37.662C67.8176 37.8602 69.7519 38.2094 71.6506 38.7065Z" fill="#00A688"/>
<path opacity="0.3" d="M71.6506 38.7065C71.6506 38.7065 75.6544 43.2326 71.8707 71.2185H51.7543C51.616 68.1465 53.5565 53.0681 50.5767 38.5171C52.8017 38.086 55.0524 37.8004 57.3146 37.662C60.1623 37.4955 63.0173 37.4955 65.865 37.662C67.8176 37.8602 69.7519 38.2094 71.6506 38.7065Z" fill="black"/>
<path opacity="0.3" d="M71.6505 38.7065C71.6505 38.7065 71.2 38.5836 70.4678 38.4147C68.256 38.6451 67.1808 41.1897 67.7747 43.8316C68.215 45.7977 71.072 48.4857 73.4988 50.4876C73.4425 40.734 71.6505 38.7065 71.6505 38.7065Z" fill="black"/>
<path d="M66.72 44.4819C68.5171 47.5948 78.3424 50.6259 78.3424 50.6259L81.6397 41.7888C81.6397 41.7888 76.0077 40.2528 71.6403 38.7168C66.2387 36.7763 64.759 41.0617 66.72 44.4819Z" fill="#00A688"/>
<path opacity="0.3" d="M66.72 44.4819C68.5171 47.5948 78.3424 50.6259 78.3424 50.6259L81.6397 41.7888C81.6397 41.7888 76.0077 40.2528 71.6403 38.7168C66.2387 36.7763 64.759 41.0617 66.72 44.4819Z" fill="black"/>
<path d="M97.312 39.0802L97.9367 35.1635L101.408 36.1567C101.408 36.1567 101.92 39.6434 99.3907 40.6726L97.312 39.0802Z" fill="#FFC3BD"/>
<path d="M99.4318 31.7075L102.36 34.1702L101.408 36.1568L97.9368 35.1635L99.4318 31.7075Z" fill="#FFC3BD"/>
<path opacity="0.2" d="M66.1775 158.187L65.9881 162.677H62.2249L62.4143 158.187H66.1775Z" fill="black"/>
<path opacity="0.2" d="M37.7563 154.291L41.4939 154.7L40.0398 159.057L36.2971 158.648L37.7563 154.291Z" fill="black"/>
<path d="M56.5825 25.2358C57.5502 28.8454 57.9342 31.006 60.1665 32.5011C63.515 34.759 67.6827 32.1683 67.8107 28.3487C67.9284 24.9081 66.331 19.5884 62.4602 18.8614C61.6085 18.7029 60.7305 18.7632 59.9084 19.0365C59.0863 19.3099 58.347 19.7873 57.7598 20.4242C57.1725 21.0611 56.7564 21.8367 56.5505 22.6782C56.3446 23.5197 56.3556 24.3997 56.5825 25.2358Z" fill="#FFC3BD"/>
<path d="M65.0662 14.3916C65.043 14.6346 64.9656 14.8692 64.8398 15.0783C64.714 15.2874 64.5429 15.4656 64.3392 15.5999C64.1702 13.7055 63.4175 11.8828 61.7331 10.9919C62.0095 11.7958 61.2211 13.0707 60.0639 14.3711C59.9353 13.895 59.7097 13.4505 59.4014 13.0655C59.093 12.6805 58.7085 12.3633 58.2719 12.1337C57.5039 15.1084 55.0463 15.5999 53.0956 17.4329C52.6734 17.848 52.3856 18.3804 52.2697 18.9611C52.1538 19.5417 52.215 20.1438 52.4454 20.6892C51.9334 20.4588 51.3241 20.5151 50.8838 21.662C51.3063 21.3948 51.7922 21.2446 52.2918 21.2268C51.9436 21.5545 51.6723 22.1228 51.8719 23.4028C52.2201 25.5686 56.6694 32.0044 59.4803 31.6819C62.5523 31.3286 63.1155 27.7702 63.1872 24.5599L63.3049 24.4985C65.4348 23.367 68.0665 17.3151 65.0662 14.3916Z" fill="#263238"/>
<path d="M61.7282 25.2972C62.1129 26.1412 62.764 26.8356 63.5816 27.2736C64.6671 27.8368 65.2712 27.0124 65.0306 25.9321C64.8104 24.9542 64.0066 23.4899 62.8648 23.3721C61.7231 23.2543 61.2776 24.2732 61.7282 25.2972Z" fill="#FFC3BD"/>
<path d="M64.7386 71.2185C64.7386 71.2185 60.4685 99.9622 58.1235 110.735C55.5635 122.511 42.0621 158.632 42.0621 158.632L35.2883 157.388C35.2883 157.388 45.3747 123.478 46.839 111.82C48.4314 99.1481 51.7543 71.239 51.7543 71.239L64.7386 71.2185Z" fill="#00A688"/>
<path opacity="0.2" d="M62.0405 81.4586C57.1049 82.4262 57.6271 100.833 58.221 110.3C59.6444 103.608 61.7282 90.7309 63.1516 81.5917C62.8072 81.422 62.4152 81.375 62.0405 81.4586Z" fill="black"/>
<path d="M71.8707 71.2185C71.8707 71.2185 72.3827 99.3427 71.9834 110.811C71.5584 122.741 67.3754 161.807 67.3754 161.807H61.0163C61.0163 161.807 60.7808 123.437 60.5043 111.723C60.1971 98.9484 58.6509 71.2185 58.6509 71.2185H71.8707Z" fill="#00A688"/>
<path opacity="0.2" d="M66.3155 157.194L66.0391 157.163C67.1603 146.354 69.8125 120.202 70.1351 110.827C70.4781 101.222 70.1658 79.7587 70.0634 73.4099L70.3399 73.3792C70.4423 79.7279 70.7546 101.201 70.4115 110.822C70.089 120.212 67.4368 146.38 66.3155 157.194Z" fill="black"/>
<path d="M43.6033 156.339C43.634 156.339 42.4257 158.811 42.4257 158.811L34.802 157.409L35.3703 155.11L43.6033 156.339Z" fill="#00A688"/>
<path opacity="0.5" d="M43.6033 156.339C43.634 156.339 42.4257 158.811 42.4257 158.811L34.802 157.409L35.3703 155.11L43.6033 156.339Z" fill="black"/>
<path d="M68.6144 159.267C68.6452 159.267 68.256 161.914 68.256 161.914H60.5044L60.2944 159.554L68.6144 159.267Z" fill="#00A688"/>
<path opacity="0.5" d="M68.6144 159.267C68.6452 159.267 68.256 161.914 68.256 161.914H60.5044L60.2944 159.554L68.6144 159.267Z" fill="black"/>
</svg>
