<svg width="32" height="32" viewBox="0 0 32 32" fill="none" xmlns="http://www.w3.org/2000/svg">
<path d="M28 15.3334C28.0046 17.0932 27.5934 18.8292 26.8 20.4C25.8592 22.2824 24.413 23.8656 22.6233 24.9724C20.8335 26.0792 18.771 26.6659 16.6667 26.6667C14.9068 26.6713 13.1708 26.2601 11.6 25.4667L4 28L6.53333 20.4C5.73991 18.8292 5.32875 17.0932 5.33333 15.3334C5.33415 13.229 5.92082 11.1665 7.02763 9.37677C8.13444 7.58704 9.71767 6.14079 11.6 5.20004C13.1708 4.40661 14.9068 3.99545 16.6667 4.00004H17.3333C20.1125 4.15336 22.7374 5.32639 24.7055 7.29452C26.6737 9.26265 27.8467 11.8876 28 14.6667V15.3334Z" stroke="#00A688" stroke-width="2" stroke-linecap="round" stroke-linejoin="round"/>
</svg>
