<svg width="32" height="32" viewBox="0 0 32 32" fill="none" xmlns="http://www.w3.org/2000/svg">
<path d="M9.33335 29.3333H5.33335C4.62611 29.3333 3.94783 29.0523 3.44774 28.5522C2.94764 28.0521 2.66669 27.3739 2.66669 26.6666V17.3333C2.66669 16.626 2.94764 15.9478 3.44774 15.4477C3.94783 14.9476 4.62611 14.6666 5.33335 14.6666H9.33335M18.6667 12V6.66663C18.6667 5.60576 18.2453 4.58834 17.4951 3.8382C16.745 3.08805 15.7276 2.66663 14.6667 2.66663L9.33335 14.6666V29.3333H24.3734C25.0165 29.3406 25.6405 29.1152 26.1306 28.6986C26.6206 28.2821 26.9436 27.7025 27.04 27.0666L28.88 15.0666C28.938 14.6844 28.9123 14.2942 28.8045 13.923C28.6967 13.5517 28.5095 13.2084 28.2558 12.9166C28.0022 12.6249 27.6881 12.3919 27.3354 12.2336C26.9828 12.0753 26.5999 11.9956 26.2134 12H18.6667Z" stroke="#00A688" stroke-width="2" stroke-linecap="round" stroke-linejoin="round"/>
</svg>
